<?xml version="1.0" encoding="utf-8"?>
<!-- Generator: Adobe Illustrator 23.0.1, SVG Export Plug-In . SVG Version: 6.00 Build 0)  -->
<svg version="1.1" id="Calque_1" xmlns="http://www.w3.org/2000/svg" xmlns:xlink="http://www.w3.org/1999/xlink" x="0px" y="0px"
	 viewBox="0 0 215.6 50" style="enable-background:new 0 0 215.6 50;" xml:space="preserve">
<style type="text/css">
	.st0{opacity:0.2;}
</style>
<g class="st0">
	<polygon points="1.8,8.8 4.1,12.9 11.1,12.9 22.9,33.3 21.8,35.1 10,14.9 5.3,14.9 21.7,43.4 27.5,33.3 13.6,8.8 	"/>
	<polygon points="15.7,8.8 21.6,18.9 31.2,18.9 28.8,23.1 27.5,21 22.8,21 28.8,31.4 38.2,14.9 23.9,14.9 22.8,12.9 39.4,12.9 
		41.6,8.8 	"/>
</g>
<g class="st0">
	<path d="M44.3,13.9h10.2c2.4,0,4.6,0.5,6.5,1.4c1.9,0.9,3.3,2.2,4.4,3.9c1,1.7,1.6,3.7,1.6,5.9s-0.5,4.2-1.6,5.9
		c-1,1.7-2.5,3-4.4,3.9c-1.9,0.9-4,1.4-6.5,1.4H44.3V13.9z M54.2,32.2c2.2,0,4-0.6,5.4-1.9c1.3-1.3,2-3,2-5.1c0-2.1-0.7-3.8-2-5.1
		c-1.3-1.3-3.1-1.9-5.4-1.9h-4.8v13.9H54.2z"/>
	<path d="M70.7,15.9c-0.6-0.5-0.9-1.2-0.9-2c0-0.8,0.3-1.5,0.9-2c0.6-0.5,1.3-0.8,2.2-0.8c0.9,0,1.7,0.3,2.2,0.8s0.9,1.2,0.9,1.9
		c0,0.8-0.3,1.5-0.9,2.1s-1.3,0.8-2.2,0.8C72,16.7,71.3,16.5,70.7,15.9z M70.5,19.1h5v17.3h-5V19.1z"/>
	<path d="M98,19.1v14.4c0,3.2-0.8,5.5-2.5,7.1c-1.6,1.5-4.1,2.3-7.2,2.3c-1.7,0-3.3-0.2-4.8-0.6c-1.5-0.4-2.7-1-3.7-1.8l2-3.6
		c0.7,0.6,1.6,1.1,2.8,1.4s2.2,0.5,3.3,0.5c1.7,0,3-0.4,3.8-1.2c0.8-0.8,1.2-2,1.2-3.6v-0.7c-1.3,1.4-3.1,2.2-5.5,2.2
		c-1.6,0-3-0.3-4.4-1c-1.3-0.7-2.4-1.7-3.1-2.9c-0.8-1.3-1.2-2.7-1.2-4.4c0-1.6,0.4-3.1,1.2-4.4c0.8-1.3,1.8-2.2,3.1-2.9
		c1.3-0.7,2.8-1,4.4-1c2.5,0,4.4,0.8,5.7,2.5v-2.2H98z M91.7,30.3c0.8-0.8,1.3-1.8,1.3-3.1c0-1.3-0.4-2.3-1.3-3.1
		c-0.8-0.8-1.9-1.2-3.3-1.2c-1.3,0-2.4,0.4-3.3,1.2c-0.9,0.8-1.3,1.8-1.3,3.1c0,1.3,0.4,2.3,1.3,3.1c0.9,0.8,1.9,1.2,3.3,1.2
		C89.8,31.5,90.9,31.1,91.7,30.3z"/>
	<path d="M102.9,15.9c-0.6-0.5-0.9-1.2-0.9-2c0-0.8,0.3-1.5,0.9-2c0.6-0.5,1.3-0.8,2.2-0.8s1.7,0.3,2.3,0.8s0.9,1.2,0.9,1.9
		c0,0.8-0.3,1.5-0.9,2.1s-1.3,0.8-2.3,0.8S103.5,16.5,102.9,15.9z M102.6,19.1h5v17.3h-5V19.1z"/>
	<path d="M113.9,36.2c-1.4-0.4-2.5-0.8-3.3-1.3l1.7-3.6c0.8,0.5,1.7,0.9,2.8,1.2s2.2,0.5,3.2,0.5c2.1,0,3.2-0.5,3.2-1.6
		c0-0.5-0.3-0.8-0.9-1.1c-0.6-0.2-1.5-0.4-2.7-0.5c-1.4-0.2-2.6-0.5-3.5-0.7s-1.7-0.8-2.4-1.5s-1-1.7-1-3c0-1.1,0.3-2.1,0.9-2.9
		c0.6-0.8,1.6-1.5,2.8-2c1.2-0.5,2.6-0.7,4.3-0.7c1.2,0,2.4,0.1,3.6,0.4c1.2,0.3,2.2,0.6,3,1.1L124,24c-1.5-0.9-3.2-1.3-5-1.3
		c-1.1,0-1.9,0.1-2.4,0.4c-0.5,0.3-0.8,0.7-0.8,1.2c0,0.5,0.3,0.9,0.9,1.1c0.6,0.2,1.5,0.4,2.8,0.6c1.4,0.2,2.6,0.5,3.5,0.8
		c0.9,0.3,1.7,0.8,2.3,1.5s1,1.7,1,3c0,1.1-0.3,2-1,2.9c-0.6,0.8-1.6,1.5-2.8,1.9c-1.2,0.5-2.7,0.7-4.4,0.7
		C116.7,36.7,115.3,36.5,113.9,36.2z"/>
	<path d="M146.9,19.1v23.5h-5v-8.1c-1.2,1.4-3,2.1-5.2,2.1c-1.6,0-3.1-0.4-4.4-1.1c-1.3-0.7-2.4-1.8-3.1-3.1s-1.1-2.9-1.1-4.7
		c0-1.8,0.4-3.3,1.1-4.7c0.8-1.3,1.8-2.4,3.1-3.1c1.3-0.7,2.8-1.1,4.4-1.1c2.4,0,4.2,0.8,5.4,2.2v-2H146.9z M140.7,31.3
		c0.8-0.9,1.3-2,1.3-3.5c0-1.5-0.4-2.6-1.3-3.5c-0.8-0.9-1.9-1.3-3.1-1.3c-1.3,0-2.3,0.4-3.2,1.3c-0.8,0.9-1.3,2-1.3,3.5
		c0,1.5,0.4,2.6,1.3,3.5c0.8,0.9,1.9,1.3,3.2,1.3C138.9,32.6,139.9,32.2,140.7,31.3z"/>
	<path d="M169,19.1v17.3h-4.8v-2.1c-0.7,0.8-1.5,1.3-2.4,1.7c-0.9,0.4-1.9,0.6-3,0.6c-2.3,0-4.1-0.7-5.4-2s-2-3.2-2-5.8v-9.8h5v9
		c0,2.8,1.2,4.2,3.5,4.2c1.2,0,2.2-0.4,2.9-1.2c0.7-0.8,1.1-1.9,1.1-3.5v-8.5H169z"/>
	<path d="M186.8,20.8c1.4,1.3,2.2,3.2,2.2,5.8v9.9h-4.7v-2.2c-0.9,1.6-2.7,2.4-5.3,2.4c-1.3,0-2.5-0.2-3.5-0.7
		c-1-0.5-1.7-1.1-2.2-1.9c-0.5-0.8-0.8-1.7-0.8-2.7c0-1.6,0.6-2.9,1.8-3.8c1.2-0.9,3.1-1.4,5.6-1.4h4c0-1.1-0.3-1.9-1-2.5
		c-0.7-0.6-1.7-0.9-3-0.9c-0.9,0-1.8,0.1-2.7,0.4c-0.9,0.3-1.6,0.7-2.3,1.2l-1.8-3.5c0.9-0.7,2.1-1.2,3.4-1.5
		c1.3-0.4,2.7-0.5,4.1-0.5C183.3,18.9,185.3,19.5,186.8,20.8z M182.5,32.7c0.7-0.4,1.1-1,1.4-1.8v-1.8h-3.4c-2.1,0-3.1,0.7-3.1,2
		c0,0.6,0.3,1.2,0.8,1.5s1.2,0.6,2.1,0.6C181.1,33.3,181.8,33.1,182.5,32.7z"/>
	<path d="M211.2,12.6v23.8h-4.8v-2c-1.2,1.5-3,2.2-5.4,2.2c-1.6,0-3.1-0.4-4.4-1.1c-1.3-0.7-2.4-1.8-3.1-3.1
		c-0.8-1.3-1.1-2.9-1.1-4.7c0-1.8,0.4-3.3,1.1-4.7c0.7-1.3,1.8-2.4,3.1-3.1c1.3-0.7,2.8-1.1,4.4-1.1c2.2,0,3.9,0.7,5.2,2.1v-8.4
		H211.2z M205.1,31.3c0.8-0.9,1.3-2,1.3-3.5c0-1.5-0.4-2.6-1.3-3.5c-0.8-0.9-1.9-1.3-3.1-1.3c-1.3,0-2.3,0.4-3.2,1.3s-1.3,2-1.3,3.5
		c0,1.5,0.4,2.6,1.3,3.5s1.9,1.3,3.2,1.3C203.2,32.6,204.2,32.2,205.1,31.3z"/>
</g>
</svg>
