<?xml version="1.0" encoding="utf-8"?>
<!-- Generator: Adobe Illustrator 23.0.1, SVG Export Plug-In . SVG Version: 6.00 Build 0)  -->
<svg version="1.1" id="Layer_1" xmlns="http://www.w3.org/2000/svg" xmlns:xlink="http://www.w3.org/1999/xlink" x="0px" y="0px"
	 viewBox="0 0 500 500" style="enable-background:new 0 0 500 500;" xml:space="preserve">
<style type="text/css">
	.st0{fill:#E8E8E8;}
	.st1{fill:#F4E3FF;}
	.st2{clip-path:url(#SVGID_2_);}
	.st3{fill:url(#SVGID_3_);}
	.st4{fill:url(#SVGID_4_);}
	.st5{opacity:0.3;fill:#405EA7;enable-background:new    ;}
	.st6{fill:url(#SVGID_5_);}
	.st7{fill:#DB157C;}
	.st8{fill:url(#SVGID_6_);}
	.st9{fill:#F2C9B9;}
	.st10{opacity:0.72;fill:url(#SVGID_7_);enable-background:new    ;}
	.st11{fill:#EE9395;}
	.st12{fill:#B53D2B;}
	.st13{fill:#25255C;}
	.st14{fill:#9C2364;}
	.st15{fill:url(#SVGID_8_);}
	.st16{opacity:0.72;fill:url(#SVGID_9_);enable-background:new    ;}
	.st17{fill:#F3CEBF;}
	.st18{fill:#EAA6A6;}
	.st19{opacity:0.56;fill:#E37070;enable-background:new    ;}
	.st20{fill:#FFFFFF;}
	.st21{opacity:0.71;fill:#5781EA;enable-background:new    ;}
	.st22{opacity:0.61;fill:#C5BEDE;enable-background:new    ;}
	.st23{fill:#3861E5;}
	.st24{opacity:0.71;fill:#DDD8EB;enable-background:new    ;}
	.st25{opacity:0.58;fill:#C5BEDE;enable-background:new    ;}
	.st26{fill:#186D6B;}
	.st27{fill:#191919;}
	.st28{fill:#262969;}
	.st29{fill:#2EB8D0;}
	.st30{clip-path:url(#SVGID_11_);}
	.st31{fill:#ED5970;}
	.st32{fill:#C6445E;}
	.st33{fill:#DF2D86;}
	.st34{fill:#E9ACAF;}
	.st35{fill:#F5D6C8;}
	.st36{fill:#748094;}
	.st37{fill:#717171;}
	.st38{fill:#464648;}
	.st39{fill:#FFD0A1;}
	.st40{clip-path:url(#SVGID_13_);}
	.st41{fill:#B44735;}
	.st42{opacity:0.17;fill:#3F5EA7;enable-background:new    ;}
	.st43{fill:#5D4298;}
	.st44{fill:#828282;}
	.st45{clip-path:url(#SVGID_18_);}
	.st46{clip-path:url(#SVGID_19_);fill:url(#SVGID_20_);}
	.st47{fill:#A03D30;}
	.st48{opacity:0.47;fill:#E37070;enable-background:new    ;}
	.st49{fill:#1D2E58;}
	.st50{clip-path:url(#SVGID_25_);}
	.st51{clip-path:url(#SVGID_26_);fill:url(#SVGID_27_);}
	.st52{opacity:0.18;fill:url(#SVGID_28_);enable-background:new    ;}
	.st53{fill:#E37070;}
	.st54{fill:#17162C;}
	.st55{opacity:0.51;fill:#B073AD;enable-background:new    ;}
	.st56{clip-path:url(#SVGID_33_);}
	.st57{clip-path:url(#SVGID_34_);fill:url(#SVGID_35_);}
	.st58{clip-path:url(#SVGID_40_);}
	.st59{clip-path:url(#SVGID_41_);fill:url(#SVGID_42_);}
	.st60{fill:#4C3884;}
	.st61{clip-path:url(#SVGID_44_);}
	.st62{fill:url(#SVGID_45_);}
	.st63{clip-path:url(#SVGID_50_);}
	.st64{clip-path:url(#SVGID_51_);fill:url(#SVGID_52_);}
	.st65{opacity:0.31;fill:url(#SVGID_53_);enable-background:new    ;}
	.st66{fill:url(#SVGID_54_);}
	.st67{fill:#F1807F;}
	.st68{fill:url(#SVGID_55_);}
	.st69{fill:#EE9978;}
	.st70{opacity:0.55;fill:#E37070;enable-background:new    ;}
	.st71{fill:#E45856;}
	.st72{fill:url(#SVGID_56_);}
	.st73{opacity:0.36;fill:#E37070;enable-background:new    ;}
	.st74{fill:none;stroke:#B6385F;stroke-width:2;stroke-linecap:round;stroke-linejoin:round;stroke-miterlimit:10;}
	.st75{fill:#544E9A;}
	.st76{fill:#B63350;}
	.st77{fill:url(#SVGID_57_);}
	.st78{fill:url(#SVGID_58_);}
	.st79{fill:url(#SVGID_59_);}
	.st80{fill:#AEAFAF;}
	.st81{fill:#BBB9BA;}
	.st82{fill:url(#SVGID_60_);stroke:url(#SVGID_61_);stroke-miterlimit:10;}
	.st83{clip-path:url(#SVGID_66_);}
	.st84{clip-path:url(#SVGID_67_);fill:url(#SVGID_68_);}
	.st85{opacity:0.31;fill:url(#SVGID_69_);enable-background:new    ;}
	.st86{clip-path:url(#SVGID_74_);}
	.st87{clip-path:url(#SVGID_75_);fill:url(#SVGID_76_);}
	.st88{opacity:0.31;fill:url(#SVGID_77_);enable-background:new    ;}
	.st89{clip-path:url(#SVGID_82_);}
	.st90{clip-path:url(#SVGID_83_);fill:url(#SVGID_84_);}
	.st91{opacity:0.31;fill:url(#SVGID_85_);enable-background:new    ;}
	.st92{fill:#626262;}
	.st93{clip-path:url(#SVGID_87_);}
	.st94{fill:url(#SVGID_88_);}
	.st95{clip-path:url(#SVGID_93_);}
	.st96{clip-path:url(#SVGID_94_);fill:none;}
	.st97{opacity:0.42;fill:url(#SVGID_95_);enable-background:new    ;}
	.st98{clip-path:url(#SVGID_100_);}
	.st99{clip-path:url(#SVGID_101_);fill:none;}
	.st100{opacity:0.42;fill:url(#SVGID_102_);enable-background:new    ;}
	.st101{display:none;fill:#E1F3FC;}
	.st102{fill:url(#SVGID_103_);}
	.st103{clip-path:url(#SVGID_108_);}
	.st104{clip-path:url(#SVGID_109_);fill:none;}
	.st105{display:none;fill:#7E98A0;}
	.st106{fill:url(#SVGID_110_);}
	.st107{fill:#9696AD;}
	.st108{fill:#989797;}
	.st109{fill:#8B8A9D;}
	.st110{fill:url(#SVGID_111_);}
	.st111{fill:#202020;}
	.st112{clip-path:url(#SVGID_113_);fill:#97C1FF;}
	.st113{clip-path:url(#SVGID_115_);fill:#39BA93;}
	.st114{clip-path:url(#SVGID_117_);fill:#39BA93;}
	.st115{opacity:0.3;clip-path:url(#SVGID_119_);fill:#405EA7;enable-background:new    ;}
	.st116{clip-path:url(#SVGID_121_);fill:#39BA93;}
	.st117{clip-path:url(#SVGID_123_);fill:#F2C9B9;}
	.st118{opacity:0.72;clip-path:url(#SVGID_125_);fill:url(#SVGID_126_);enable-background:new    ;}
	.st119{opacity:0.3;clip-path:url(#SVGID_128_);fill:#405EA7;enable-background:new    ;}
	.st120{clip-path:url(#SVGID_130_);fill:#F3CEBF;}
	.st121{clip-path:url(#SVGID_132_);}
	.st122{fill:#39BA93;}
	.st123{fill:#1C82C4;}
	.st124{fill:#EE708C;}
	.st125{fill:#041E41;}
	.st126{opacity:0.3;fill:#405162;enable-background:new    ;}
	.st127{fill:#9DBFC1;}
	.st128{opacity:0.3;fill:#5D5D5D;enable-background:new    ;}
	.st129{fill:#C1E5E5;}
	.st130{fill:#07113D;}
	.st131{fill:#FFC7B0;}
	.st132{fill:#F4A891;}
	.st133{fill:#8E3E33;}
	.st134{fill:#B95241;}
	.st135{fill:#435568;}
	.st136{fill:#6A8593;}
	.st137{fill:#638896;}
	.st138{opacity:0.63;}
	.st139{fill:#FFE0D2;}
	.st140{fill:#FFD7C5;}
	.st141{fill:#2552C1;}
</style>
<g>
	<rect x="64.1" y="152.2" class="st0" width="39.3" height="5.1"/>
	<g>
		<g>
			<rect x="64.4" y="163" class="st0" width="79.9" height="2.3"/>
			<path class="st0" d="M144.1,163.3v1.7H64.7v-1.7H144.1L144.1,163.3z M144.6,162.7h-0.6H64.7h-0.6v0.6v1.7v0.6h0.6h79.4h0.6V165
				v-1.7V162.7L144.6,162.7z"/>
		</g>
		<g>
			<rect x="64.4" y="170.4" class="st0" width="79.9" height="2.3"/>
			<path class="st0" d="M144.1,170.6v1.7H64.7v-1.7H144.1L144.1,170.6z M144.6,170.1h-0.6H64.7h-0.6v0.6v1.7v0.6h0.6h79.4h0.6v-0.6
				v-1.7V170.1L144.6,170.1z"/>
		</g>
		<g>
			<rect x="64.4" y="177.7" class="st0" width="51.5" height="2.3"/>
			<path class="st0" d="M115.7,178v1.7h-51V178H115.7L115.7,178z M116.2,177.5h-0.6h-51h-0.6v0.6v1.7v0.6h0.6h50.9h0.6v-0.6V178
				L116.2,177.5L116.2,177.5z"/>
		</g>
	</g>
	<rect x="173" y="152.2" class="st0" width="32.2" height="5.1"/>
	<g>
		<g>
			<rect x="173.2" y="163" class="st0" width="48.2" height="2.3"/>
			<path class="st0" d="M221.2,163.3v1.7h-47.7v-1.7H221.2L221.2,163.3z M221.8,162.7h-0.6h-47.7H173v0.6v1.7v0.6h0.6h47.7h0.6V165
				v-1.7L221.8,162.7L221.8,162.7z"/>
		</g>
		<g>
			<rect x="173.2" y="170.4" class="st0" width="74" height="2.3"/>
			<path class="st0" d="M247,170.6v1.7h-73.4v-1.7H247L247,170.6z M247.5,170.1H247h-73.4H173v0.6v1.7v0.6h0.6H247h0.6v-0.6v-1.7
				V170.1L247.5,170.1z"/>
		</g>
		<g>
			<rect x="173.2" y="177.7" class="st0" width="51.5" height="2.3"/>
			<path class="st0" d="M224.5,178v1.7h-50.9V178H224.5L224.5,178z M225,177.5h-0.6h-50.9H173v0.6v1.7v0.6h0.6h50.9h0.6v-0.6V178
				V177.5L225,177.5z"/>
		</g>
	</g>
	<rect x="289" y="152.2" class="st0" width="56.3" height="5.1"/>
	<g>
		<g>
			<rect x="289.3" y="163" class="st0" width="68.3" height="2.3"/>
			<path class="st0" d="M357.3,163.3v1.7h-67.7v-1.7H357.3L357.3,163.3z M357.9,162.7h-0.6h-67.7H289v0.6v1.7v0.6h0.6h67.7h0.6V165
				v-1.7L357.9,162.7L357.9,162.7z"/>
		</g>
		<g>
			<rect x="289.3" y="170.4" class="st0" width="68.4" height="2.3"/>
			<path class="st0" d="M357.5,170.6v1.7h-67.9v-1.7H357.5L357.5,170.6z M358.1,170.1h-0.6h-67.9H289v0.6v1.7v0.6h0.6h67.8h0.6v-0.6
				v-1.7L358.1,170.1L358.1,170.1z"/>
		</g>
		<g>
			<rect x="289.3" y="177.7" class="st0" width="33.6" height="2.3"/>
			<path class="st0" d="M322.7,178v1.7h-33.1V178H322.7L322.7,178z M323.3,177.5h-0.6h-33.1h-0.6v0.6v1.7v0.6h0.6h33.1h0.6v-0.6V178
				V177.5L323.3,177.5z"/>
		</g>
	</g>
	<rect x="173" y="344.2" class="st0" width="39.3" height="5.1"/>
	<g>
		<g>
			<rect x="173.2" y="355" class="st0" width="79.9" height="2.3"/>
			<path class="st0" d="M252.9,355.3v1.7h-79.4v-1.7H252.9L252.9,355.3z M253.4,354.7h-0.6h-79.4H173v0.6v1.7v0.6h0.6h79.3h0.6V357
				v-1.7L253.4,354.7L253.4,354.7z"/>
		</g>
		<g>
			<rect x="173.2" y="362.4" class="st0" width="79.9" height="2.3"/>
			<path class="st0" d="M252.9,362.7v1.7h-79.4v-1.7H252.9L252.9,362.7z M253.4,362.1h-0.6h-79.4H173v0.6v1.7v0.6h0.6h79.3h0.6v-0.6
				v-1.7L253.4,362.1L253.4,362.1z"/>
		</g>
		<g>
			<rect x="173.2" y="369.8" class="st0" width="51.5" height="2.3"/>
			<path class="st0" d="M224.5,370v1.7h-50.9V370H224.5L224.5,370z M225,369.5h-0.6h-50.9H173v0.6v1.7v0.6h0.6h50.9h0.6v-0.6V370
				V369.5L225,369.5z"/>
		</g>
	</g>
	<rect x="64.1" y="344.2" class="st0" width="52.2" height="5.1"/>
	<g>
		<g>
			<rect x="64.4" y="355" class="st0" width="48.7" height="2.3"/>
			<path class="st0" d="M112.8,355.3v1.7H64.7v-1.7H112.8L112.8,355.3z M113.4,354.7h-0.6H64.7h-0.6v0.6v1.7v0.6h0.6h48.1h0.6V357
				v-1.7V354.7L113.4,354.7z"/>
		</g>
		<g>
			<rect x="64.4" y="362.4" class="st0" width="48.7" height="2.3"/>
			<path class="st0" d="M112.8,362.7v1.7H64.7v-1.7H112.8L112.8,362.7z M113.4,362.1h-0.6H64.7h-0.6v0.6v1.7v0.6h0.6h48.1h0.6v-0.6
				v-1.7V362.1L113.4,362.1z"/>
		</g>
		<g>
			<rect x="64.4" y="369.8" class="st0" width="31.5" height="2.3"/>
			<path class="st0" d="M95.6,370v1.7H64.7V370H95.6L95.6,370z M96.2,369.5h-0.6H64.7h-0.6v0.6v1.7v0.6h0.6h30.9h0.6v-0.6V370V369.5
				L96.2,369.5z"/>
		</g>
	</g>
	<rect x="287.8" y="344.2" class="st0" width="52" height="5.1"/>
	<g>
		<g>
			<rect x="289.2" y="355" class="st0" width="55.6" height="2.3"/>
			<path class="st0" d="M344.4,355.3v1.7h-55v-1.7H344.4L344.4,355.3z M345,354.7h-0.6h-55h-0.6v0.6v1.7v0.6h0.6h55h0.6V357v-1.7
				V354.7L345,354.7z"/>
		</g>
		<g>
			<rect x="289.2" y="362.4" class="st0" width="55.6" height="2.3"/>
			<path class="st0" d="M344.4,362.7v1.7h-55v-1.7H344.4L344.4,362.7z M345,362.1h-0.6h-55h-0.6v0.6v1.7v0.6h0.6h55h0.6v-0.6v-1.7
				V362.1L345,362.1z"/>
		</g>
		<rect x="288.3" y="370" class="st0" width="50.9" height="1.7"/>
	</g>
	<g>
		<path class="st1" d="M139.9,144.3H75.3c-7.6,0-13.7-6.1-13.7-13.7V41.8c0-7.6,6.1-13.7,13.7-13.7h64.6c7.6,0,13.7,6.1,13.7,13.7
			v88.7C153.6,138.1,147.5,144.3,139.9,144.3z"/>
		<g>
			<g>
				<defs>
					<path id="SVGID_1_" d="M139.9,144H75.3c-7.6,0-13.7-6.1-13.7-13.7V41.5c0-7.6,6.1-13.7,13.7-13.7h64.6
						c7.6,0,13.7,6.1,13.7,13.7v88.7C153.6,137.8,147.5,144,139.9,144z"/>
				</defs>
				<clipPath id="SVGID_2_">
					<use xlink:href="#SVGID_1_"  style="overflow:visible;"/>
				</clipPath>
				<g class="st2">
					
						<linearGradient id="SVGID_3_" gradientUnits="userSpaceOnUse" x1="129.866" y1="-252.6593" x2="80.46" y2="-252.6593" gradientTransform="matrix(1 0 0 1 0 402)">
						<stop  offset="0.4884" style="stop-color:#F6A94A"/>
						<stop  offset="1" style="stop-color:#FBC079"/>
					</linearGradient>
					<path class="st3" d="M123.8,144.7c2.3,4.4,6.1,18.8,6.1,18.8H80.5c0,0,0.3-10.1,7.7-19.3c5.8-7.2,7.6-7.9,7.6-7.9l21.3-1.1
						C117,135.2,121.5,140.3,123.8,144.7z"/>
					
						<linearGradient id="SVGID_4_" gradientUnits="userSpaceOnUse" x1="126.9598" y1="-272.4441" x2="82.3602" y2="-272.4441" gradientTransform="matrix(1 0 0 1 0 402)">
						<stop  offset="0.4884" style="stop-color:#F6A94A"/>
						<stop  offset="1" style="stop-color:#FBC079"/>
					</linearGradient>
					<path class="st4" d="M87.1,118.9c0,0,9.7-3.2,19.2-3.2s17.2,1.5,17.2,1.5l3.5,12.4c-0.3,2.3-3.1,10.2-5.3,12.7l-32.9,1.3
						L82.4,130L87.1,118.9z"/>
					<path class="st5" d="M84.3,134.4l2.7,6.9c-1.2,1.5-0.1,3.4-3,8.8c-1.6,3-2.7,5.3-3.5,10.1c0.7,0,0.8,0.5,1.6,0.5
						c10.2,0,20.3-6.9,20.3-6.9c5,1,19.8,6,27.4,7c-0.1-0.4-1.3-4.1-1.5-4.4c-1.8-5.6-4.9-11.8-6.8-15.6h0.6
						c2.1-2.5,4.2-8.3,4.6-10.4l-3-10.6c0,0,2.6,9.2-1.3,12c-5.3,3.9-3.1,11.7-3.1,11.7l-26.5,3.1l-2.2-10.1c0,0-3.9-4-2.2-14.9
						L84.3,134.4z"/>
					
						<linearGradient id="SVGID_5_" gradientUnits="userSpaceOnUse" x1="143.8384" y1="-278.4242" x2="69.2958" y2="-278.4242" gradientTransform="matrix(1 0 0 1 0 402)">
						<stop  offset="0.4884" style="stop-color:#F6A94A"/>
						<stop  offset="1" style="stop-color:#FBC079"/>
					</linearGradient>
					<path class="st6" d="M143.8,142.5c-4.7-2.9-9.5-4-14.9-3.6l-5.5-21.9l-36.3,1.8c0,0-0.3,3.2-2,9.8c-1.5,5.9-1.6,11.8-1.6,13
						c-2.2,2.9-5.6,7.6-7.7,12.4c-0.4-0.1-0.8-0.2-1.2-0.3c-11.3-3.4-1.6-36.5,2.3-46.3c3.9-9.8,15-9.8,23.4-14.3l14.4,2
						c0,0,5,2.2,13,6C135.2,104.7,143.8,142.5,143.8,142.5z"/>
					<path class="st7" d="M101.9,54.7c-0.6-2.1-0.8-1.6-4.9-3.2c-4.1-1.6-2.6-6.5,1.5-6.3c3.4,0.1,1.8-4,4.9-5.4
						c3.2-1.4,3.9,1.7,5.5,1.6c1.6-0.2,1.1-4.4,5.5-3.7c3.2,0.5,3,3.2,2.7,5.1c-0.2,1.9,3.4,0.4,4.2,3.2c0.8,2.7-2.8,3.4-3,5.9
						c-0.2,2.5-1.7,3.8-1.7,3.8L101.9,54.7z"/>
					
						<linearGradient id="SVGID_6_" gradientUnits="userSpaceOnUse" x1="110.9535" y1="-320.3834" x2="110.9535" y2="-351.3665" gradientTransform="matrix(1 0 0 1 0 402)">
						<stop  offset="0" style="stop-color:#DA707E"/>
						<stop  offset="1" style="stop-color:#DC157D"/>
					</linearGradient>
					<path class="st8" d="M96.1,74.6c-2.2-2.4-4.1-6.5-1.6-9.9c0.5-0.7,0.7-1.5,0.5-2.3c-0.3-1.3-0.3-3.5,1.6-5.3
						c1.2-1.1,2.5-1.6,3.5-1.7c1-0.2,1.7-0.7,2.2-1.6c0.7-1.2,1.9-2.6,4-3c3.6-0.7,6.3,3.3,6.3,3.3s4.7-4.7,10-1
						c3.5,2.5,3.3,6,2.8,8.2c-0.3,1.1,0.1,2.3,1,3c1.3,1.2,2.8,3.2,2.2,6.7c-1,5.6-3.1,10.7-11.7,10.7C108,81.6,96.1,74.6,96.1,74.6
						z"/>
					<path class="st9" d="M104,77.2l-3.7,16c0,0-9.7,18.3,5.6,19.6c16.2,1.4,8.8-17.6,8.8-17.6l3-16.6L104,77.2z"/>
					
						<linearGradient id="SVGID_7_" gradientUnits="userSpaceOnUse" x1="108.6884" y1="-317.3084" x2="106.2038" y2="-289.3565" gradientTransform="matrix(1 0 0 1 0 402)">
						<stop  offset="0" style="stop-color:#ECBBA0"/>
						<stop  offset="1" style="stop-color:#FFFFFF"/>
					</linearGradient>
					<path class="st10" d="M103.1,81.8l-2.7,11.3c0,0-9.7,18.3,5.6,19.6c16.2,1.4,8.8-17.6,8.8-17.6l2-11.9L103.1,81.8z"/>
					<path class="st5" d="M103.4,80.3c1.7,3.4,4.4,5.6,8,5.6c2.1,0,4-0.8,5.5-2.1l1-5.1l-13.7-1.5L103.4,80.3z"/>
					<path class="st11" d="M119.5,79.8c2.6,0.1,4.8-1.9,4.9-4.5c0.1-2.6-1.9-4.8-4.5-4.9L119.5,79.8z"/>
					<path class="st12" d="M119.6,77.5c1.4,0.1,2.5-1,2.6-2.3c0.1-1.4-1-2.5-2.3-2.6L119.6,77.5z"/>
					<path class="st9" d="M121,74.1c0,8.2-5.7,15.3-10.2,14.9s-10.2-6.7-10.2-14.9c0-8.2,2.8-15,10-15C118.4,59.1,121,66,121,74.1z"
						/>
					<circle class="st11" cx="105.1" cy="77.1" r="2.3"/>
					<circle class="st11" cx="118" cy="76.9" r="2.3"/>
					<circle class="st13" cx="105.5" cy="72.2" r="0.6"/>
					<circle class="st13" cx="117.1" cy="72.3" r="0.6"/>
					<path class="st14" d="M103.1,69.9c0.3-0.3,0.7-0.6,1.1-0.8c0.4-0.2,0.8-0.3,1.3-0.3c0.4-0.1,0.9,0,1.3,0.1
						c0.4,0.1,0.8,0.3,1.1,0.7c-0.4-0.1-0.8-0.1-1.2-0.1s-0.8,0-1.2,0.1c-0.4,0.1-0.8,0.1-1.2,0.1C103.9,69.7,103.5,69.8,103.1,69.9
						z"/>
					<path class="st14" d="M114.6,69.7c0.3-0.3,0.7-0.6,1.1-0.8c0.4-0.2,0.8-0.3,1.3-0.3s0.9,0,1.3,0.1c0.4,0.1,0.8,0.3,1.1,0.7
						c-0.4-0.1-0.8-0.1-1.2-0.1c-0.4,0-0.8,0-1.2,0.1c-0.4,0.1-0.8,0.1-1.2,0.1C115.3,69.5,114.9,69.6,114.6,69.7z"/>
					<path class="st11" d="M101.3,80c-2.6,0.1-4.8-1.9-4.9-4.5c-0.1-2.6,1.9-4.8,4.5-4.9L101.3,80z"/>
					<path class="st12" d="M101.1,77.8c-1.4,0.1-2.5-1-2.6-2.3c-0.1-1.4,1-2.5,2.3-2.6L101.1,77.8z"/>
					
						<linearGradient id="SVGID_8_" gradientUnits="userSpaceOnUse" x1="111.1424" y1="-330.3727" x2="111.1424" y2="-344.6311" gradientTransform="matrix(1 0 0 1 0 402)">
						<stop  offset="0" style="stop-color:#DA707E"/>
						<stop  offset="1" style="stop-color:#DC157D"/>
					</linearGradient>
					<path class="st15" d="M99.2,70.6c1.6,1.2,2.8,1.2,3.4,0.7s1.3-6.4,3.9-8.5c2.6-2.1,6.4-2.7,6.4-2.7s1.7,5.1,5,8
						c3.3,3,5.1,3,5.1,3s-0.4-14-12.3-13.8C98.8,57.6,99.2,70.6,99.2,70.6z"/>
					<path class="st9" d="M143.8,142.5c1.2,6.9-3.7,10.2-9.9,10.2c-6.2,0-37.2-3-37.2-3l18.1-10.3l14.5-0.6c0,0,4.1-0.7,8.2,0.7
						C141.8,140.8,143.8,142.5,143.8,142.5z"/>
					
						<linearGradient id="SVGID_9_" gradientUnits="userSpaceOnUse" x1="105.067" y1="-257.1069" x2="137.8094" y2="-256.2123" gradientTransform="matrix(1 0 0 1 0 402)">
						<stop  offset="0" style="stop-color:#ECBBA0"/>
						<stop  offset="1" style="stop-color:#FFFFFF"/>
					</linearGradient>
					<path class="st16" d="M143.8,142.5c1.2,6.9-3.7,10.2-9.9,10.2c-6.2,0-37.2-3-37.2-3l18.1-10.3l14.5-0.6c0,0,4.1-0.7,8.2,0.7
						C141.8,140.8,143.8,142.5,143.8,142.5z"/>
					<path class="st5" d="M96.7,149.7c0,0,4,0.4,9.4,0.9c2.8-3.9,9.8-7.8,13.8-8.9c4.2-1.1,9.4-2.8,9.4-2.8l-14.5,0.6L96.7,149.7z"
						/>
					<path class="st17" d="M129,138.9c0,0-8.9-0.6-21.7,7.7c-12.2,7.9-20.8,10.3-31.5,7.5c2.2-6.8,4.6-9.6,7.7-12.4
						c0,0.1,0,0.2,0,0.2s12.7-1.5,26.5-4.5C123.8,134.4,129,138.9,129,138.9z"/>
					<g>
						<polygon class="st18" points="110.8,75.1 110.1,79 111.6,79.4 112.8,79.1 112.1,75.1 						"/>
						<g>
							<path class="st19" d="M111.9,79.2c-0.1-0.2,0.1-0.3,0.2-0.4c0.2-0.1,0.3,0.1,0.4,0.2L111.9,79.2z"/>
						</g>
						<g>
							<path class="st19" d="M111,79.2c0.1-0.2-0.1-0.3-0.2-0.4c-0.2-0.1-0.3,0.1-0.4,0.2L111,79.2z"/>
						</g>
					</g>
					<g>
						<g>
							<path class="st11" d="M115.5,82.1c-0.1,1.1-2,2.5-4.2,2.5c-2.3-0.1-4.1-1.7-4.1-2.7c0-1.1,1.9-0.8,4.2-0.8
								C113.7,81.1,115.6,80.8,115.5,82.1z"/>
						</g>
						<g>
							<path class="st20" d="M115.3,81.9c-0.1,0.6-1.8,1.5-4,1.4s-3.9-1-3.9-1.6c-0.1-0.7,1.8,0.1,3.9,0.2
								C113.4,81.9,115.3,81.3,115.3,81.9z"/>
						</g>
					</g>
				</g>
			</g>
		</g>
	</g>
	<g>
		<path class="st21" d="M364.9,144h-64.6c-7.6,0-13.7-6.1-13.7-13.7V41.6c0-7.6,6.1-13.7,13.7-13.7h64.6c7.6,0,13.7,6.1,13.7,13.7
			v88.6C378.6,137.8,372.5,144,364.9,144z"/>
		<g>
			<path class="st9" d="M340.3,85.6c-0.1-0.2-0.2-0.5-0.3-0.8c-0.9-3.2-0.4-21.5-0.4-21.5l-14.3,0.5c0,0-0.2,18-0.6,20.9
				c-0.1,0.4-0.2,0.9-0.5,1.3L340.3,85.6z"/>
			<path class="st22" d="M340.5,61l-14.9,0.6c0,0-0.1,4.8-0.2,10.5c1.1,2.7,3.4,7,7.4,6.9c4.6-0.1,6-4.1,7.4-6.4
				C340.2,66.5,340.5,61,340.5,61z"/>
			<path class="st9" d="M329.3,61.4c-0.2,2.9-2.7,5-5.6,4.9c-2.9-0.2-5-2.7-4.9-5.6c0.2-2.9,2.7-5,5.6-4.9
				C327.3,56.1,329.4,58.6,329.3,61.4z"/>
			<path class="st11" d="M326.8,61.3c-0.1,1.5-1.4,2.7-3,2.6c-1.5-0.1-2.7-1.4-2.6-3c0.1-1.5,1.4-2.7,3-2.6
				C325.8,58.5,326.9,59.8,326.8,61.3z"/>
			<path class="st23" d="M320.8,59.8c-2.4-2.1-3-9.6,1.5-12.6c1.6-1.1,3.7-1.5,4.2-3.1c0.8-3.1,5.5-5.3,8.9-3.6
				c4.4,2.2,6.6,0.5,9.1-2.1c2.7-2.8,4.4-5.7,12-4.4c7.5,1.3,9.8,0.4,11.2-3.1c1.4-3.6,8.3-6.5,14.7-2.1c6.4,4.5,8.4,8,12.7,6.4
				s8.7-4.1,12.5-0.1c3.8,4,0.7,11.8-4.3,11.7c-5-0.1-2.5,5.9-1.2,9.4c1.3,3.6-2.3,9-8.7,6.8c-6.3-2.2-7.7-0.4-9.7,2.9
				c-2.1,3.3-7.4,3.1-10.1,1.2s-5.8-3.5-9.5-1.2c-3.7,2.3-5,3.7-9.4,1.9s-5.3-1.2-7.8,0.2c-2.5,1.3-7.5-0.6-7.5-0.6L320.8,59.8z"/>
			<path class="st24" d="M333.4,62.1l-0.3-3.9l14.6,1c5.9-3.4,7.3-3.4,11.9-2.2s4-4.2,8.9-5.9c4.9-1.6,5.8,2.7,10.3,2.6
				c4.5-0.1,3.1-4.6,8.9-4.2c5.4,0.3,6,4.4,13.6,4.2c0.3,0.9,0.6,1.7,1,2.5c1.3,3.6-2.3,9-8.7,6.8c-6.3-2.2-7.7-0.4-9.7,2.9
				c-2.1,3.3-7.4,3.1-10.1,1.2c-2.6-2-5.8-3.5-9.5-1.2s-5,3.7-9.4,1.9c-4.4-1.8-5.1-1.4-7.6-0.1c-2.5,1.3-7.4,0.2-7.4,0.2
				L333.4,62.1z"/>
			<path class="st9" d="M337.2,61.4c0.2,2.9,2.7,5,5.6,4.9c2.9-0.2,5-2.7,4.9-5.6c-0.2-2.9-2.7-5-5.6-4.9
				C339.2,56.1,337,58.6,337.2,61.4z"/>
			<path class="st11" d="M339.7,61.3c0.1,1.5,1.4,2.7,3,2.6c1.5-0.1,2.7-1.4,2.6-3c-0.1-1.5-1.4-2.7-3-2.6
				C340.7,58.5,339.6,59.8,339.7,61.3z"/>
			<path class="st9" d="M323.4,63.3c0.5,7.3,3.1,12.6,10.5,12.5c4.7-0.1,8.6-5.3,8.6-12.6c-0.1-7.7-1.7-13.9-10.4-13.9
				C323.6,49.4,322.9,55.9,323.4,63.3z"/>
			<path class="st11" d="M336.3,67.4c0.1,1.3,1.2,2.2,2.5,2.1c1.3-0.1,2.2-1.2,2.1-2.5s-1.2-2.2-2.5-2.1
				C337.2,65.1,336.2,66.2,336.3,67.4z"/>
			<circle class="st11" cx="327.2" cy="67.2" r="2.3"/>
			<path class="st25" d="M347.5,62.4c-4.2,1.7-6.3,0.2-8.2-0.9c-2-1.1-1.7-6.5-4.6-7.4c-2.9-0.9-3.6,1.4-6.7,0.6
				c-3.6-1-4.4,1.2-4.4,1.2s-0.1-2.7,5.3-4.6c5.4-1.9,11.5-2,14.6,1.3c1.1,1.1,1,2.7,2.2,3.8C348.5,59.1,347.5,62.4,347.5,62.4z"/>
			<path class="st26" d="M340.4,61.3c-0.2-0.1-0.5-0.1-0.7-0.2c-0.2-0.1-0.4-0.1-0.7-0.1c-0.4-0.1-1-0.1-1.4-0.1s-0.9,0.1-1.3,0.2
				c-0.4,0.1-0.9,0.2-1.3,0.4l0,0c-0.1,0.1-0.2,0-0.2-0.1c-0.1-0.1,0-0.2,0.1-0.2c0.4-0.4,0.8-0.7,1.3-0.8c0.5-0.2,1-0.3,1.6-0.3
				c0.5,0,1.1,0.1,1.6,0.2c0.2,0.1,0.5,0.2,0.7,0.3c0.2,0.1,0.4,0.2,0.7,0.3c0.1,0.1,0.1,0.2,0.1,0.3
				C340.6,61.3,340.5,61.3,340.4,61.3L340.4,61.3z"/>
			<path class="st27" d="M336.4,63.2c0.3,0.1,0.6,0.1,1,0.2c0.3,0.1,0.6,0.1,0.9,0.1s0.6-0.1,0.9-0.1s0.6-0.2,0.8-0.3l0,0
				c0.1-0.1,0.2,0,0.2,0.1c0,0.1,0,0.1,0,0.2c-0.5,0.6-1.2,0.7-1.9,0.8c-0.3,0-0.7-0.1-1-0.2c-0.2-0.1-0.3-0.1-0.5-0.2
				c-0.2-0.1-0.3-0.2-0.4-0.2c-0.1-0.1-0.1-0.1-0.1-0.2C336.3,63.2,336.3,63.2,336.4,63.2L336.4,63.2z"/>
			<path class="st27" d="M326.1,63.2c0.3,0.1,0.6,0.1,1,0.2c0.3,0.1,0.6,0.1,0.9,0.1s0.6-0.1,0.9-0.1s0.6-0.2,0.8-0.3l0,0
				c0.1-0.1,0.2,0,0.2,0.1c0,0.1,0,0.1,0,0.2c-0.5,0.6-1.2,0.7-1.9,0.8c-0.3,0-0.7-0.1-1-0.2c-0.2-0.1-0.3-0.1-0.5-0.2
				c-0.2-0.1-0.3-0.2-0.4-0.2c-0.1-0.1-0.1-0.1-0.1-0.2C326,63.2,326.1,63.2,326.1,63.2L326.1,63.2z"/>
			<path class="st26" d="M330.8,60.8c-0.2,0-0.4-0.1-0.7-0.1s-0.4-0.1-0.6-0.1c-0.4-0.1-0.8-0.1-1.2-0.1c-0.4,0-0.8,0-1.2,0.1
				c-0.4,0.1-0.8,0.2-1.2,0.3h-0.1c-0.1,0.1-0.2,0-0.2-0.1c0-0.1,0-0.2,0.1-0.2c0.3-0.4,0.8-0.6,1.2-0.7c0.4-0.2,1-0.2,1.4-0.2
				c0.4,0,1,0.1,1.4,0.2c0.2,0.1,0.4,0.2,0.7,0.2c0.2,0.1,0.4,0.2,0.6,0.3c0.1,0.1,0.1,0.2,0.1,0.3C331,60.7,330.9,60.8,330.8,60.8
				L330.8,60.8z"/>
			<path class="st11" d="M329.6,70.5c0,0.3,1.1,0.6,2.5,0.6c1.3,0,2.4-0.3,2.5-0.7c0-0.4-1.1,0.1-2.5,0.1
				C330.7,70.5,329.6,70,329.6,70.5z"/>
			<path class="st28" d="M322.8,70.9c-0.2,0-0.3-0.1-0.3-0.3v-5.5c0-0.2,0.1-0.3,0.3-0.3s0.3,0.1,0.3,0.3v5.5
				C323,70.8,322.9,70.9,322.8,70.9z"/>
			<path class="st28" d="M343.1,71.2c-0.2,0-0.3-0.1-0.3-0.3v-5.5c0-0.2,0.1-0.3,0.3-0.3s0.3,0.1,0.3,0.3v5.5
				C343.4,71,343.3,71.2,343.1,71.2z"/>
			<path class="st29" d="M347.6,59.2c-4.2,1.7-5.9,2.2-7.9,1.1c-2-1.1-1.7-6.5-4.6-7.4c-2.9-0.9-3.6,1.7-6.7,1.3
				c-3.4-0.4-4.9,1.1-4.9,1.1s-1.1-5,4.2-7c5.4-1.9,13.1-0.2,16.3,3.1C347.1,54.8,347.6,59.2,347.6,59.2z"/>
			<g>
				<polygon class="st18" points="332.4,64.5 331.7,68.1 333.1,68.5 334.2,68.2 333.6,64.4 				"/>
				<g>
					<path class="st19" d="M333.4,68.2c-0.1-0.2,0.1-0.3,0.2-0.3c0.2-0.1,0.3,0.1,0.3,0.2L333.4,68.2z"/>
				</g>
				<g>
					<path class="st19" d="M332.6,68.2c0.1-0.2-0.1-0.3-0.2-0.3c-0.2-0.1-0.3,0.1-0.3,0.2L332.6,68.2z"/>
				</g>
			</g>
		</g>
		<g>
			<g>
				<defs>
					<path id="SVGID_10_" d="M364.9,143.7h-64.6c-7.6,0-13.7-6.1-13.7-13.7V41.3c0-7.6,6.1-13.7,13.7-13.7h64.6
						c7.6,0,13.7,6.1,13.7,13.7v88.6C378.6,137.5,372.5,143.7,364.9,143.7z"/>
				</defs>
				<clipPath id="SVGID_11_">
					<use xlink:href="#SVGID_10_"  style="overflow:visible;"/>
				</clipPath>
				<g class="st30">
					<g>
						<path class="st9" d="M340,84.8c-0.9-3.2-0.4-21.5-0.4-21.5l-14.3,0.5c0,0-0.2,18-0.6,20.9c-0.4,2.9-5.3,4-11.1,7
							c-0.8,0.4-1.7,1.3-2.5,2c1,2.1,20.2,9.1,21.6,11c1.5,2,15.8-8.6,17.5-13.2C343.5,87.8,340.8,87.9,340,84.8z"/>
						<path class="st9" d="M340.3,85.6c-0.1-0.2-0.2-0.5-0.3-0.8c-0.9-3.2-0.4-21.5-0.4-21.5l-14.3,0.5c0,0-0.2,18-0.6,20.9
							c-0.1,0.4-0.2,0.9-0.5,1.3L340.3,85.6z"/>
						<path class="st22" d="M340.5,61l-14.9,0.6c0,0-0.1,4.8-0.2,10.5c1.1,2.7,3.4,7,7.4,6.9c4.6-0.1,6-4.1,7.4-6.4
							C340.2,66.5,340.5,61,340.5,61z"/>
						<path class="st9" d="M329.3,61.4c-0.2,2.9-2.7,5-5.6,4.9c-2.9-0.2-5-2.7-4.9-5.6c0.2-2.9,2.7-5,5.6-4.9
							C327.3,56.1,329.4,58.6,329.3,61.4z"/>
						<path class="st11" d="M326.8,61.3c-0.1,1.5-1.4,2.7-3,2.6c-1.5-0.1-2.7-1.4-2.6-3c0.1-1.5,1.4-2.7,3-2.6
							C325.8,58.5,326.9,59.8,326.8,61.3z"/>
						<path class="st23" d="M320.8,59.8c-2.4-2.1-3-9.6,1.5-12.6c1.6-1.1,3.7-1.5,4.2-3.1c0.8-3.1,5.5-5.3,8.9-3.6
							c4.4,2.2,6.6,0.5,9.1-2.1c2.7-2.8,4.4-5.7,12-4.4c7.5,1.3,9.8,0.4,11.2-3.1c1.4-3.6,8.3-6.5,14.7-2.1c6.4,4.5,8.4,8,12.7,6.4
							s8.7-4.1,12.5-0.1c3.8,4,0.7,11.8-4.3,11.7c-5-0.1-2.5,5.9-1.2,9.4c1.3,3.6-2.3,9-8.7,6.8c-6.3-2.2-7.7-0.4-9.7,2.9
							c-2.1,3.3-7.4,3.1-10.1,1.2s-5.8-3.5-9.5-1.2c-3.7,2.3-5,3.7-9.4,1.9s-5.3-1.2-7.8,0.2c-2.5,1.3-7.5-0.6-7.5-0.6L320.8,59.8z"
							/>
						<path class="st24" d="M333.4,62.1l-0.3-3.9l14.6,1c5.9-3.4,7.3-3.4,11.9-2.2s4-4.2,8.9-5.9c4.9-1.6,5.8,2.7,10.3,2.6
							c4.5-0.1,3.1-4.6,8.9-4.2c5.4,0.3,6,4.4,13.6,4.2c0.3,0.9,0.6,1.7,1,2.5c1.3,3.6-2.3,9-8.7,6.8c-6.3-2.2-7.7-0.4-9.7,2.9
							c-2.1,3.3-7.4,3.1-10.1,1.2c-2.6-2-5.8-3.5-9.5-1.2s-5,3.7-9.4,1.9c-4.4-1.8-5.1-1.4-7.6-0.1c-2.5,1.3-7.4,0.2-7.4,0.2
							L333.4,62.1z"/>
						<path class="st9" d="M337.2,61.4c0.2,2.9,2.7,5,5.6,4.9c2.9-0.2,5-2.7,4.9-5.6c-0.2-2.9-2.7-5-5.6-4.9
							C339.2,56.1,337,58.6,337.2,61.4z"/>
						<path class="st11" d="M339.7,61.3c0.1,1.5,1.4,2.7,3,2.6c1.5-0.1,2.7-1.4,2.6-3c-0.1-1.5-1.4-2.7-3-2.6
							C340.7,58.5,339.6,59.8,339.7,61.3z"/>
						<path class="st9" d="M323.4,63.3c0.5,7.3,3.1,12.6,10.5,12.5c4.7-0.1,8.6-5.3,8.6-12.6c-0.1-7.7-1.7-13.9-10.4-13.9
							C323.6,49.4,322.9,55.9,323.4,63.3z"/>
						<path class="st11" d="M336.3,67.4c0.1,1.3,1.2,2.2,2.5,2.1c1.3-0.1,2.2-1.2,2.1-2.5s-1.2-2.2-2.5-2.1
							C337.2,65.1,336.2,66.2,336.3,67.4z"/>
						<circle class="st11" cx="327.2" cy="67.2" r="2.3"/>
						<path class="st25" d="M347.5,62.4c-4.2,1.7-6.3,0.2-8.2-0.9c-2-1.1-1.7-6.5-4.6-7.4c-2.9-0.9-3.6,1.4-6.7,0.6
							c-3.6-1-4.4,1.2-4.4,1.2s-0.1-2.7,5.3-4.6c5.4-1.9,11.5-2,14.6,1.3c1.1,1.1,1,2.7,2.2,3.8C348.5,59.1,347.5,62.4,347.5,62.4z"
							/>
						<path class="st26" d="M340.4,61.3c-0.2-0.1-0.5-0.1-0.7-0.2c-0.2-0.1-0.4-0.1-0.7-0.1c-0.4-0.1-1-0.1-1.4-0.1
							s-0.9,0.1-1.3,0.2c-0.4,0.1-0.9,0.2-1.3,0.4l0,0c-0.1,0.1-0.2,0-0.2-0.1c-0.1-0.1,0-0.2,0.1-0.2c0.4-0.4,0.8-0.7,1.3-0.8
							c0.5-0.2,1-0.3,1.6-0.3c0.5,0,1.1,0.1,1.6,0.2c0.2,0.1,0.5,0.2,0.7,0.3c0.2,0.1,0.4,0.2,0.7,0.3c0.1,0.1,0.1,0.2,0.1,0.3
							C340.6,61.3,340.5,61.3,340.4,61.3L340.4,61.3z"/>
						<path class="st27" d="M336.4,63.2c0.3,0.1,0.6,0.1,1,0.2c0.3,0.1,0.6,0.1,0.9,0.1s0.6-0.1,0.9-0.1s0.6-0.2,0.8-0.3l0,0
							c0.1-0.1,0.2,0,0.2,0.1c0,0.1,0,0.1,0,0.2c-0.5,0.6-1.2,0.7-1.9,0.8c-0.3,0-0.7-0.1-1-0.2c-0.2-0.1-0.3-0.1-0.5-0.2
							c-0.2-0.1-0.3-0.2-0.4-0.2c-0.1-0.1-0.1-0.1-0.1-0.2C336.3,63.2,336.3,63.2,336.4,63.2L336.4,63.2z"/>
						<path class="st27" d="M326.1,63.2c0.3,0.1,0.6,0.1,1,0.2c0.3,0.1,0.6,0.1,0.9,0.1s0.6-0.1,0.9-0.1s0.6-0.2,0.8-0.3l0,0
							c0.1-0.1,0.2,0,0.2,0.1c0,0.1,0,0.1,0,0.2c-0.5,0.6-1.2,0.7-1.9,0.8c-0.3,0-0.7-0.1-1-0.2c-0.2-0.1-0.3-0.1-0.5-0.2
							c-0.2-0.1-0.3-0.2-0.4-0.2c-0.1-0.1-0.1-0.1-0.1-0.2C326,63.2,326.1,63.2,326.1,63.2L326.1,63.2z"/>
						<path class="st26" d="M330.8,60.8c-0.2,0-0.4-0.1-0.7-0.1s-0.4-0.1-0.6-0.1c-0.4-0.1-0.8-0.1-1.2-0.1c-0.4,0-0.8,0-1.2,0.1
							c-0.4,0.1-0.8,0.2-1.2,0.3h-0.1c-0.1,0.1-0.2,0-0.2-0.1c0-0.1,0-0.2,0.1-0.2c0.3-0.4,0.8-0.6,1.2-0.7c0.4-0.2,1-0.2,1.4-0.2
							c0.4,0,1,0.1,1.4,0.2c0.2,0.1,0.4,0.2,0.7,0.2c0.2,0.1,0.4,0.2,0.6,0.3c0.1,0.1,0.1,0.2,0.1,0.3
							C331,60.7,330.9,60.8,330.8,60.8L330.8,60.8z"/>
						<path class="st11" d="M329.6,70.5c0,0.3,1.1,0.6,2.5,0.6c1.3,0,2.4-0.3,2.5-0.7c0-0.4-1.1,0.1-2.5,0.1
							C330.7,70.5,329.6,70,329.6,70.5z"/>
						<path class="st28" d="M322.8,70.9c-0.2,0-0.3-0.1-0.3-0.3v-5.5c0-0.2,0.1-0.3,0.3-0.3s0.3,0.1,0.3,0.3v5.5
							C323,70.8,322.9,70.9,322.8,70.9z"/>
						<path class="st28" d="M343.1,71.2c-0.2,0-0.3-0.1-0.3-0.3v-5.5c0-0.2,0.1-0.3,0.3-0.3s0.3,0.1,0.3,0.3v5.5
							C343.4,71,343.3,71.2,343.1,71.2z"/>
						<path class="st23" d="M347.6,59.2c-4.2,1.7-5.9,2.2-7.9,1.1c-2-1.1-1.7-6.5-4.6-7.4c-2.9-0.9-3.6,1.7-6.7,1.3
							c-3.4-0.4-4.9,1.1-4.9,1.1s-1.1-5,4.2-7c5.4-1.9,13.1-0.2,16.3,3.1C347.1,54.8,347.6,59.2,347.6,59.2z"/>
						<g>
							<polygon class="st18" points="332.4,64.5 331.7,68.1 333.1,68.5 334.2,68.2 333.6,64.4 							"/>
							<g>
								<path class="st19" d="M333.4,68.2c-0.1-0.2,0.1-0.3,0.2-0.3c0.2-0.1,0.3,0.1,0.3,0.2L333.4,68.2z"/>
							</g>
							<g>
								<path class="st19" d="M332.6,68.2c0.1-0.2-0.1-0.3-0.2-0.3c-0.2-0.1-0.3,0.1-0.3,0.2L332.6,68.2z"/>
							</g>
						</g>
					</g>
					<path class="st31" d="M316.5,163.9c-8.7,0-11-9.2-9.1-18.7c2.2-11.1,13.2-16.4,23.5-16.4s21,6.3,23.9,17.2
						c2.3,8.4-0.8,17.8-9.4,17.8L316.5,163.9L316.5,163.9z"/>
					<path class="st32" d="M344,163.4h-28c-1.9,0-3.5-1.6-3.5-3.5v-8.7c0-1.9,1.6-3.5,3.5-3.5h28c1.9,0,3.5,1.6,3.5,3.5v8.7
						C347.5,161.7,345.9,163.4,344,163.4z"/>
					<path class="st33" d="M321.8,87.6c0,0-8.7,3.2-11.8,6.4c-2.6,2.7-3.6,4.5-3.6,4.5l8.9,29H347l11.1-29c0,0-2.4-4.4-7.8-7.4
						c-5.4-3-6.9-3.2-7.5-3.6c0,0-7.7,9.4-9.7,9.6C330.9,97.1,321.8,87.6,321.8,87.6z"/>
					<path class="st33" d="M332.9,97.9c2.4,0.1,9.3-8.7,10.3-10.1c-0.3-0.1-0.4-0.2-0.6-0.3c0,0-7.7,9.4-9.7,9.6
						c-2,0.1-11.1-9.4-11.1-9.4s-0.2,0.1-0.7,0.2C322.1,89,330.5,97.9,332.9,97.9z"/>
					<path class="st9" d="M306.5,98.5c1.3,5.1,6.4,5.7,7.2,12.4c-4.4,8-8.8,20.1-8.8,20.1s17,0.8,23.8,3l-0.2,8c0,0-21.6,0-27.7,0
						c-6.1,0-9-4.1-7-13.5C296.2,116.8,302.9,103.6,306.5,98.5z"/>
					<path class="st9" d="M357.7,98.5c-0.4,5.2-8.6,8.8-7.2,12.4c3.2,8,8.3,20.3,8.3,20.3s-16.8-0.4-23.1,1.5v9.3c0,0,21.6,0,27.7,0
						c6.1,0,9.1-4.6,6.9-13.9C368.1,119,363.8,107.1,357.7,98.5z"/>
					<g>
						<path class="st9" d="M313.7,149.1c6.8-1,9.5,5.5,12,15.9s9,38.1,12.2,47.6c3,8.8-0.5,6-2,10.8c-1.4,4.4-3.6,7.7-7,7.9
							c-2.4,0.1-0.1-7.2,2.6-12.6c-0.4-5.1-5.8-15.1-14.1-33.3c-8.3-17.9-8.4-20.7-8.9-26.7C308,152.5,311.2,149.4,313.7,149.1z"/>
						<path class="st34" d="M312.3,155c0,1.6,1.3,2.9,2.9,2.9c1.6,0,2.9-1.3,2.9-2.9c0-1.6-1.3-2.9-2.9-2.9
							C313.6,152.1,312.3,153.4,312.3,155z"/>
					</g>
					<path class="st34" d="M295.2,136.2c-0.6,0-1.2,0.2-1.7,0.5c0.6,2.6,2.1,4.2,4.2,4.9c0.5-0.6,0.8-1.3,0.8-2.1
						C298.5,137.6,297,136.2,295.2,136.2z"/>
					<path class="st34" d="M370.5,137c-0.6-0.4-1.2-0.6-1.9-0.6c-1.8,0-3.3,1.5-3.3,3.3c0,0.7,0.2,1.4,0.6,2
						C368.2,141.1,369.8,139.5,370.5,137z"/>
					<g>
						<path class="st35" d="M337.6,148.8c6.4,0,6.3,12.6,5.9,19.4c-0.4,6.8-4.4,28.1-9.4,42.4c-5,14.4-5.8,16.8-5.9,20.9
							s-4.8,4.9-7.9,4.8c-3.1-0.1-3.1-0.9,0.1-9.8c3.2-8.9,7.4-33.9,8.2-48.7C329.3,163,326.1,148.8,337.6,148.8z"/>
						<circle class="st34" cx="336.5" cy="155.2" r="2.9"/>
					</g>
					<path class="st31" d="M307.4,154c2.7-4.5,32.4-4.5,41.4-0.6l-0.6-12.7l-38.1,0.7L307.4,154z"/>
					<g>
						<path class="st36" d="M350.6,141.7h-41.2c-1.5,0-2.6-1.2-2.6-2.6v-25.9c0-1.5,1.2-2.6,2.6-2.6h41.2c1.5,0,2.6,1.2,2.6,2.6
							v25.9C353.1,140.6,352,141.7,350.6,141.7z"/>
						<path class="st37" d="M353.4,142.3h-46.5v-28.5c0-1.5,1.2-2.6,2.6-2.6h41.2c1.5,0,2.6,1.2,2.6,2.6V142.3L353.4,142.3z"/>
						<path class="st38" d="M353.1,142.3h-46.4v0.9c0,0.3,0.3,0.6,0.6,0.6h45.3c0.3,0,0.6-0.3,0.6-0.6V142.3L353.1,142.3z"/>
						<g>
							<path class="st20" d="M327.5,125.6c-0.7,1.1-0.3,2.7,0.3,3.7c0.3,0.5,0.7,1,1.1,1l0,0c0.2,0,0.4-0.1,0.6-0.1s0.3-0.1,0.6-0.1
								s0.4,0.1,0.6,0.2c0.2,0.1,0.3,0.2,0.6,0.2c0.5,0,0.9-0.4,1.2-0.8c0.3-0.4,0.5-0.8,0.6-1l0,0c0-0.1,0-0.1-0.1-0.1l0,0
								c-0.1-0.1-0.9-0.4-0.9-1.4c0-0.8,0.7-1.2,0.8-1.3l0,0c0,0,0,0,0-0.1v-0.1c-0.4-0.6-1.1-0.8-1.3-0.8c-0.1,0-0.1,0-0.1,0
								c-0.3,0-0.6,0.1-0.8,0.2c-0.2,0.1-0.3,0.1-0.4,0.1c-0.1,0-0.3-0.1-0.4-0.1c-0.2-0.1-0.4-0.2-0.7-0.2l0,0
								C328.5,124.7,327.9,125.1,327.5,125.6z"/>
							<path class="st20" d="M331.7,123.1c-0.4,0-0.8,0.2-1.1,0.5c-0.2,0.3-0.5,0.7-0.4,1.1c0,0.1,0,0.1,0.1,0.1h0.1
								c0.4,0,0.8-0.2,1.1-0.5C331.6,124,331.8,123.5,331.7,123.1C331.8,123.1,331.8,123.1,331.7,123.1z"/>
						</g>
					</g>
				</g>
			</g>
		</g>
	</g>
	<g>
		<path class="st39" d="M251.3,144.3h-64.6c-7.6,0-13.7-6.1-13.7-13.7V41.8c0-7.6,6.1-13.7,13.7-13.7h64.6c7.6,0,13.7,6.1,13.7,13.7
			v88.8C265.1,138.1,258.9,144.3,251.3,144.3z"/>
		<g>
			<g>
				<defs>
					<path id="SVGID_12_" d="M251.3,144.3h-64.6c-7.6,0-13.7-6.1-13.7-13.7V41.8c0-7.6,6.1-13.7,13.7-13.7h64.6
						c7.6,0,13.7,6.1,13.7,13.7v88.8C265.1,138.1,258.9,144.3,251.3,144.3z"/>
				</defs>
				<clipPath id="SVGID_13_">
					<use xlink:href="#SVGID_12_"  style="overflow:visible;"/>
				</clipPath>
				<g class="st40">
					<polygon class="st41" points="192.3,134.3 191.2,149.8 200,149.8 200.7,133.4 					"/>
					<path class="st42" d="M191.9,140.2l0.4-5.9l8.4-0.9l-0.2,5.6C200.5,139.1,195.3,139.7,191.9,140.2z"/>
					<path class="st41" d="M266.6,131c2,6.9,4.4,18.9,4.4,18.9h-18.5l-3.7-10.7L266.6,131z"/>
					<path class="st42" d="M248.8,139.1l17.8-8.2c0.4,1.3,0.8,2.9,1.2,4.5C262,138.3,248.8,139.1,248.8,139.1z"/>
					<path class="st43" d="M188.5,134c0,0,2,1.1,5.4,1.7c3.4,0.6,5.5,0.4,5.5,0.4l0.6,13.6h49.1l-0.3-10.7c0,0,6.4-1.4,10.9-3.2
						c4.5-1.8,9.3-5.2,9.3-5.2s-9.1-25.2-16-34.5c-6.7-9-17.3-14.1-21.3-16.9c-5.6,2.7-10.2,7.5-11.8,10.2c-1.8,2.9-4.6,8.9-4.6,8.9
						s-3.2-4.6-4.6-10.6c-0.5-2.2-0.8-4-1-5.4c-2.8,3.4-10.1,11.1-13.3,18.6C192.5,110.2,188.5,134,188.5,134z"/>
					<path class="st44" d="M210.8,80.6c-0.1,0.3-0.4,0.8-1.2,1.7c0.2,1.3,0.5,3.1,1,5.4c1.4,6,4.6,10.6,4.6,10.6s2.7-6,4.6-8.9
						c1.6-2.6,6.1-7.5,11.8-10.2c-0.2-0.1-0.3-0.2-0.5-0.3c-3.7-2.7-3.8-11.3-4-16.9l-17.9,3.4C209.3,65.4,211,79.2,210.8,80.6z"/>
					<path class="st41" d="M210.8,80.6c-0.1,0.3-0.4,0.8-1.2,1.7c0.2,1.3,0.5,3.1,1,5.4c1.4,6,4.6,10.6,4.6,10.6s2.7-6,4.6-8.9
						c1.6-2.6,6.1-7.5,11.8-10.2c-0.2-0.1-0.3-0.2-0.5-0.3c-3.7-2.7-3.8-11.3-4-16.9l-17.9,3.4C209.3,65.4,211,79.2,210.8,80.6z"/>
					<g>
						<g>
							<g>
								<defs>
									<polygon id="SVGID_14_" points="130.3,-36.3 130.6,-36.3 130.3,-36 									"/>
								</defs>
								<clipPath id="SVGID_15_">
									<use xlink:href="#SVGID_14_"  style="overflow:visible;"/>
								</clipPath>
							</g>
							<g>
								<defs>
									<polygon id="SVGID_16_" points="130.3,-36.3 130.6,-36.3 130.3,-36 									"/>
								</defs>
								<defs>
									<polygon id="SVGID_17_" points="129.8,-36.8 129.5,-36.8 129.8,-37.1 									"/>
								</defs>
								<clipPath id="SVGID_18_">
									<use xlink:href="#SVGID_16_"  style="overflow:visible;"/>
								</clipPath>
								<clipPath id="SVGID_19_" class="st45">
									<use xlink:href="#SVGID_17_"  style="overflow:visible;"/>
								</clipPath>
								
									<linearGradient id="SVGID_20_" gradientUnits="userSpaceOnUse" x1="219.8373" y1="-323.9156" x2="215.7647" y2="-338.1243" gradientTransform="matrix(1 0 0 1 0 402)">
									<stop  offset="0" style="stop-color:#000000"/>
									<stop  offset="1" style="stop-color:#FFFFFF"/>
								</linearGradient>
								<path class="st46" d="M210.8,80.6c-0.1,0.3-0.4,0.8-1.2,1.7c0.2,1.3,0.5,3.1,1,5.4c1.4,6,4.6,10.6,4.6,10.6s2.7-6,4.6-8.9
									c1.6-2.6,6.1-7.5,11.8-10.2c-0.2-0.1-0.3-0.2-0.5-0.3c-3.7-2.7-3.8-11.3-4-16.9l-17.9,3.4C209.3,65.4,211,79.2,210.8,80.6z"
									/>
							</g>
						</g>
					</g>
					<path class="st47" d="M210.8,80.6c-0.1,0.3-0.4,0.8-1.2,1.7c0.2,1.3,0.5,3.1,1,5.4c1.4,6,4.6,10.6,4.6,10.6s2.7-6,4.6-8.9
						c1.6-2.6,6.1-7.5,11.8-10.2c-0.2-0.1-0.3-0.2-0.5-0.3c-3.7-2.7-3.8-11.3-4-16.9l-17.9,3.4C209.3,65.4,211,79.2,210.8,80.6z"/>
					<g>
						<path class="st41" d="M227.5,50.2c2.2-1.1,4.5-0.3,5,2.7c0.4,3-0.4,6.1-2.7,7.2c-2.3,1-3.2-0.1-3.2-0.1L227.5,50.2z"/>
						<path class="st48" d="M226.8,57.2l0.4-4.5c0.3-0.2,1.3-1.1,2.4-0.7c1.2,0.4,1.5,2.9,0.7,4.2C229.7,57.6,228.4,57.9,226.8,57.2
							z"/>
					</g>
					<g>
						<path class="st41" d="M208.2,50.1c-2.2-1.1-4.5-0.3-5,2.7c-0.4,3,0.4,6.1,2.7,7.2c2.3,1,3.2-0.1,3.2-0.1L208.2,50.1z"/>
						<path class="st48" d="M208.9,57.1l-0.4-4.5c-0.3-0.2-1.3-1.1-2.4-0.7c-1.2,0.4-1.5,2.9-0.7,4.2
							C206,57.5,207.3,57.7,208.9,57.1z"/>
					</g>
					<path class="st49" d="M228.3,54c1-4.2,1.1-8.2,0-10.6c-1.1-2.5-3.9-5-5.6-6c-2.5-1.5-7.5-1.3-9.2-0.5c-1.9,0.9-5.5,3.7-6.1,5.7
						c-0.6,2-0.9,4.6-0.8,6.5c0.1,1.8,0.4,3.4,0.4,3.4L228.3,54z"/>
					<path class="st41" d="M222.5,38.6c0,0-2.6,1.3-4.8,1.1c-2.1-0.2-3.9-1.5-3.9-1.5s-4,1.5-5.3,4.5c-1.2,3-1.2,4.6-1.1,6.1
						c0.1,1.5-0.4,3.6-0.4,3.6s0.1,9.8,1.1,12.2c1,2.3,4.8,6,5.8,6.8s4,0.7,5.8,0.3c1.8-0.3,6.7-4.4,7.5-7.2
						c0.9-2.8,1.1-10.5,1.1-10.5s-0.6-1-0.7-3.5c-0.1-2.5,0.3-3.9-0.2-5.8C227,42.8,224.5,39.5,222.5,38.6z"/>
					<g>
						<g>
							<g>
								<g>
									<defs>
										<polygon id="SVGID_21_" points="130.3,-36.3 130.6,-36.3 130.3,-36 										"/>
									</defs>
									<clipPath id="SVGID_22_">
										<use xlink:href="#SVGID_21_"  style="overflow:visible;"/>
									</clipPath>
								</g>
								<g>
									<defs>
										<polygon id="SVGID_23_" points="130.3,-36.3 130.6,-36.3 130.3,-36 										"/>
									</defs>
									<defs>
										<polygon id="SVGID_24_" points="129.8,-36.8 129.5,-36.8 129.8,-37.1 										"/>
									</defs>
									<clipPath id="SVGID_25_">
										<use xlink:href="#SVGID_23_"  style="overflow:visible;"/>
									</clipPath>
									<clipPath id="SVGID_26_" class="st50">
										<use xlink:href="#SVGID_24_"  style="overflow:visible;"/>
									</clipPath>
									
										<linearGradient id="SVGID_27_" gradientUnits="userSpaceOnUse" x1="217.5004" y1="-344.5017" x2="217.5004" y2="-351.7417" gradientTransform="matrix(1 0 0 1 0 402)">
										<stop  offset="0" style="stop-color:#FFFFFF"/>
										<stop  offset="1" style="stop-color:#000000"/>
									</linearGradient>
									<polygon class="st51" points="218.8,50.2 220.3,57.1 217.2,57.7 214.7,57.2 216,50.1 									"/>
								</g>
							</g>
						</g>
						
							<linearGradient id="SVGID_28_" gradientUnits="userSpaceOnUse" x1="217.5004" y1="-344.5017" x2="217.5004" y2="-351.7417" gradientTransform="matrix(1 0 0 1 0 402)">
							<stop  offset="0" style="stop-color:#FFFFFF"/>
							<stop  offset="1" style="stop-color:#FFFFFF"/>
						</linearGradient>
						<polygon class="st52" points="218.8,50.2 220.3,57.1 217.2,57.7 214.7,57.2 216,50.1 						"/>
						<g>
							<path class="st53" d="M216.5,57.3c0.1-0.3-0.2-0.6-0.5-0.7s-0.7,0.1-0.8,0.4L216.5,57.3z"/>
						</g>
						<g>
							<path class="st53" d="M218.4,57.3c-0.1-0.3,0.2-0.6,0.5-0.7c0.3-0.1,0.7,0.1,0.8,0.4L218.4,57.3z"/>
						</g>
					</g>
					<path class="st49" d="M215.5,49.2l0.1,1.3c0,0-2.9-0.7-4.8-0.4c-1.2,0.2-2.4,0.5-2.4,0.5s0.8-1.7,3-2
						C213.7,48.3,215.5,49.2,215.5,49.2z"/>
					<path class="st49" d="M220,49.4l-0.1,1.3c0,0,2.9-0.7,4.8-0.4c1.2,0.2,2.4,0.5,2.4,0.5s-0.8-1.7-3-2
						C221.9,48.5,220,49.4,220,49.4z"/>
					<g>
						<ellipse class="st54" cx="223.7" cy="52.8" rx="0.6" ry="0.6"/>
					</g>
					<g>
						<ellipse class="st54" cx="212.1" cy="52.5" rx="0.6" ry="0.6"/>
					</g>
					<g>
						<path class="st55" d="M213.3,61.1c0.1,1.6,0.7,4.6,4.6,4.6c4,0,4.6-3.1,4.7-4.6c0.1-2.2-2.1-1.7-4.6-1.7
							C215.3,59.5,213.2,58.9,213.3,61.1z"/>
					</g>
					<g>
						<path class="st20" d="M213.3,61.4c0.1,1.2,2.1,2.6,4.6,2.6c2.6,0,4.6-1.5,4.6-2.6c0.1-1.6-2.1-0.7-4.6-0.7
							C215.4,60.7,213.2,59.8,213.3,61.4z"/>
					</g>
					<g>
						<g>
							<g>
								<defs>
									<polygon id="SVGID_29_" points="130.3,-36.3 130.6,-36.3 130.3,-36 									"/>
								</defs>
								<clipPath id="SVGID_30_">
									<use xlink:href="#SVGID_29_"  style="overflow:visible;"/>
								</clipPath>
							</g>
							<g>
								<defs>
									<polygon id="SVGID_31_" points="130.3,-36.3 130.6,-36.3 130.3,-36 									"/>
								</defs>
								<defs>
									<polygon id="SVGID_32_" points="129.8,-36.8 129.5,-36.8 129.8,-37.1 									"/>
								</defs>
								<clipPath id="SVGID_33_">
									<use xlink:href="#SVGID_31_"  style="overflow:visible;"/>
								</clipPath>
								<clipPath id="SVGID_34_" class="st56">
									<use xlink:href="#SVGID_32_"  style="overflow:visible;"/>
								</clipPath>
								
									<linearGradient id="SVGID_35_" gradientUnits="userSpaceOnUse" x1="2560.6206" y1="-269.2263" x2="2541.8987" y2="-268.9194" gradientTransform="matrix(-1 0 0 1 2793.0977 402)">
									<stop  offset="0" style="stop-color:#000000"/>
									<stop  offset="1" style="stop-color:#FFFFFF"/>
								</linearGradient>
								<path class="st57" d="M219.2,128.8c5.7-11.8,19.2-13.2,19.2-13.2c1.2,4.3,10.5,23.5,10.5,23.5l0.3,10.7h-33.2
									C215.4,145.3,215.3,136.9,219.2,128.8z"/>
							</g>
						</g>
					</g>
					<path class="st43" d="M219.2,128.8c5.7-11.8,19.2-13.2,19.2-13.2c1.2,4.3,10.5,23.5,10.5,23.5l0.3,10.7h-33.2
						C215.4,145.3,215.3,136.9,219.2,128.8z"/>
					<g>
						<g>
							<g>
								<defs>
									<polygon id="SVGID_36_" points="130.3,-36.3 130.6,-36.3 130.3,-36 									"/>
								</defs>
								<clipPath id="SVGID_37_">
									<use xlink:href="#SVGID_36_"  style="overflow:visible;"/>
								</clipPath>
							</g>
							<g>
								<defs>
									<polygon id="SVGID_38_" points="130.3,-36.3 130.6,-36.3 130.3,-36 									"/>
								</defs>
								<defs>
									<polygon id="SVGID_39_" points="129.8,-36.8 129.5,-36.8 129.8,-37.1 									"/>
								</defs>
								<clipPath id="SVGID_40_">
									<use xlink:href="#SVGID_38_"  style="overflow:visible;"/>
								</clipPath>
								<clipPath id="SVGID_41_" class="st58">
									<use xlink:href="#SVGID_39_"  style="overflow:visible;"/>
								</clipPath>
								
									<linearGradient id="SVGID_42_" gradientUnits="userSpaceOnUse" x1="2600.6279" y1="-288.0972" x2="2590.6533" y2="-286.2557" gradientTransform="matrix(-1 0 0 1 2793.0977 402)">
									<stop  offset="0" style="stop-color:#000000"/>
									<stop  offset="1" style="stop-color:#FFFFFF"/>
								</linearGradient>
								<path class="st59" d="M193.9,135.7c-3.4-0.6-5.4-1.7-5.4-1.7s4-23.8,8-33.1c1-2.4,2.5-4.8,4-7c0.3,5.8-0.6,11.6-0.6,11.6
									c-1.1,6.8-2.3,9.7-2.5,14s2,16.7,2,16.7S197.2,136.3,193.9,135.7z"/>
							</g>
						</g>
					</g>
					<path class="st60" d="M193.9,135.7c-3.4-0.6-5.4-1.7-5.4-1.7s4-23.8,8-33.1c1-2.4,2.5-4.8,4-7c0.3,5.8-0.6,11.6-0.6,11.6
						c-1.1,6.8-2.3,9.7-2.5,14s2,16.7,2,16.7S197.2,136.3,193.9,135.7z"/>
				</g>
			</g>
		</g>
	</g>
	<g>
		<path class="st1" d="M363.9,334h-64.4c-7.6,0-13.7-6.1-13.7-13.7v-88.5c0-7.6,6.1-13.7,13.7-13.7h64.4c7.6,0,13.7,6.1,13.7,13.7
			v88.4C377.7,327.9,371.5,334,363.9,334z"/>
		<g>
			<g>
				<defs>
					<path id="SVGID_43_" d="M363.9,334h-64.4c-7.6,0-13.7-6.1-13.7-13.7v-88.5c0-7.6,6.1-13.7,13.7-13.7h64.4
						c7.6,0,13.7,6.1,13.7,13.7v88.4C377.7,327.9,371.5,334,363.9,334z"/>
				</defs>
				<clipPath id="SVGID_44_">
					<use xlink:href="#SVGID_43_"  style="overflow:visible;"/>
				</clipPath>
				<g class="st61">
					<path class="st20" d="M321.2,269.4l0.6-0.4l21,1.2l1.2,1.1c0,0,2.9,7.1,3,11.7c0.2,4.6-5.9,38.1-5.9,38.1l-11.6,7.5l-5.7-4.6
						c0,0-6.8-42.9-6.8-43.3C317.1,280.2,321.2,269.4,321.2,269.4z"/>
					
						<linearGradient id="SVGID_45_" gradientUnits="userSpaceOnUse" x1="348.5632" y1="-65.8287" x2="348.5632" y2="-130.7648" gradientTransform="matrix(1 0 0 1 0 402)">
						<stop  offset="0" style="stop-color:#DC3E7E"/>
						<stop  offset="1" style="stop-color:#F38351"/>
					</linearGradient>
					<path class="st62" d="M343.9,271.2c0,0,12.3,8.9,15.5,11.2c3.2,2.3,5.1,4.7,6.4,9.7c1.2,5,3,23.4,2.9,29.8
						c-0.2,6.4-0.3,13.5-5.8,14c-5.5,0.4-14.6,0.4-23.2-2.5c-8.7-2.9-11.2-4.1-11.2-4.1l8.9-10.2c0,0,1.2-11.1,3.2-18.3
						c2-7.3,3.3-14.5,3.6-19.2C344.6,276.5,343.9,271.2,343.9,271.2z"/>
					<g>
						<g>
							<g>
								<defs>
									<polygon id="SVGID_46_" points="276.2,136.1 276.5,136.1 276.2,136.4 									"/>
								</defs>
								<clipPath id="SVGID_47_">
									<use xlink:href="#SVGID_46_"  style="overflow:visible;"/>
								</clipPath>
							</g>
							<g>
								<defs>
									<polygon id="SVGID_48_" points="276.2,136.1 276.5,136.1 276.2,136.4 									"/>
								</defs>
								<defs>
									<polygon id="SVGID_49_" points="275.7,135.6 275.4,135.6 275.7,135.3 									"/>
								</defs>
								<clipPath id="SVGID_50_">
									<use xlink:href="#SVGID_48_"  style="overflow:visible;"/>
								</clipPath>
								<clipPath id="SVGID_51_" class="st63">
									<use xlink:href="#SVGID_49_"  style="overflow:visible;"/>
								</clipPath>
								
									<linearGradient id="SVGID_52_" gradientUnits="userSpaceOnUse" x1="348.274" y1="-98.759" x2="357.3657" y2="-94.0689" gradientTransform="matrix(1 0 0 1 0 402)">
									<stop  offset="0" style="stop-color:#000000"/>
									<stop  offset="1" style="stop-color:#FFFFFF"/>
								</linearGradient>
								<path class="st64" d="M343.5,287.3c-0.7,4-1.6,8.8-3,13.6c-2,7.3-3.2,18.3-3.2,18.3l-0.1,0.1c4.3,0.4,17.3,1,17.3-0.5
									c0-1.7-1.6-10.8-1.6-13.1c-0.1-2.3,0.7-5.8,2.8-8.1c0,0,2.5-6.8-0.6-12C353.2,282.2,348,283.8,343.5,287.3z"/>
							</g>
						</g>
					</g>
					
						<linearGradient id="SVGID_53_" gradientUnits="userSpaceOnUse" x1="348.274" y1="-98.759" x2="357.3657" y2="-94.0689" gradientTransform="matrix(1 0 0 1 0 402)">
						<stop  offset="0" style="stop-color:#FFFFFF"/>
						<stop  offset="1" style="stop-color:#405EA7"/>
					</linearGradient>
					<path class="st65" d="M343.5,287.3c-0.7,4-1.6,8.8-3,13.6c-2,7.3-3.2,18.3-3.2,18.3l-0.1,0.1c4.3,0.4,17.3,1,17.3-0.5
						c0-1.7-1.6-10.8-1.6-13.1c-0.1-2.3,0.7-5.8,2.8-8.1c0,0,2.5-6.8-0.6-12C353.2,282.2,348,283.8,343.5,287.3z"/>
					
						<linearGradient id="SVGID_54_" gradientUnits="userSpaceOnUse" x1="347.1798" y1="-147.166" x2="337.7497" y2="-130.8324" gradientTransform="matrix(1 0 0 1 0 402)">
						<stop  offset="0" style="stop-color:#3574B4"/>
						<stop  offset="0.4664" style="stop-color:#533A8B"/>
					</linearGradient>
					<path class="st66" d="M343.6,252.8c1,2.6,1.6,4.6,1.2,8.2c-0.4,3.3,2,5.8,4.2,4.5c0,0,0.7,2.6-3.6,4.5c-4.3,1.9-8.1,1-8.1,1
						l-0.6-13.4L343.6,252.8z"/>
					<g>
						<path class="st67" d="M323.4,242.5c-2-1.2-4.2-0.7-4.9,2.1c-0.7,2.7-0.2,5.8,1.8,6.9c2.1,1.2,3,0.2,3,0.2L323.4,242.5z"/>
						<path class="st53" d="M323.4,249v-4.2c-0.2-0.2-1.1-1.1-2.2-0.8c-1.2,0.3-1.6,2.5-1.1,3.8C320.7,249.1,321.9,249.5,323.4,249z
							"/>
					</g>
					<g>
						<path class="st67" d="M343.6,245.9c2.2-0.4,4.2,0.8,3.9,3.6c-0.3,2.8-1.7,5.5-4.1,5.9s-2.9-0.8-2.9-0.8L343.6,245.9z"/>
						<path class="st53" d="M341.5,252l1.4-4c0.3-0.1,1.5-0.6,2.3-0.1c1.1,0.7,0.7,2.9-0.3,4C344,253,342.7,253,341.5,252z"/>
					</g>
					
						<linearGradient id="SVGID_55_" gradientUnits="userSpaceOnUse" x1="332.2713" y1="-132.7133" x2="332.3616" y2="-143.0051" gradientTransform="matrix(1 0 0 1 0 402)">
						<stop  offset="0" style="stop-color:#EE9978"/>
						<stop  offset="1" style="stop-color:#E37070"/>
					</linearGradient>
					<path class="st68" d="M332,283.2c1.5,0.2,10.8-13.1,10.8-13.1c-0.6-0.3-3.1-2.3-3.5-4.2c-0.3-1.9,0.6-7.9,0.6-7.9l-16-1.5
						c0,3.6,0.7,10.2-2.1,12.5c0.4,0.6,0.8,1.3,1.2,2.1C325.1,275.7,330.4,283.1,332,283.2z"/>
					<path class="st69" d="M322,242.6c-0.6,4.2-0.6,7.8,0.2,11.1c0.7,3.3,3.2,9.8,9,10.2s9.1-5.1,10.1-6.9
						c1.1-1.9,4.2-10.9,4.2-10.9s2.5-11.1-4.8-13.6C333.4,230.1,323.4,232.7,322,242.6z"/>
					<g>
						<circle class="st70" cx="325.3" cy="250.1" r="2.7"/>
					</g>
					<g>
						<circle class="st70" cx="339.1" cy="251.8" r="2.7"/>
					</g>
					<g>
						<g>
							<path class="st71" d="M336.2,254.9c-0.2,1.1-2.3,2.5-4.8,2.2c-2.5-0.3-4.2-2.2-4.1-3.3c0.1-1.2,2.1-0.7,4.5-0.4
								C334.3,253.7,336.4,253.6,336.2,254.9z"/>
						</g>
						<g>
							<path class="st20" d="M335.9,254.7c-0.2,0.7-2.1,1.3-4.4,1.1c-2.2-0.3-4-1.4-4-2.1c0-0.7,1.9,0.3,4.1,0.6
								C333.9,254.6,336.1,254,335.9,254.7z"/>
						</g>
					</g>
					<g>
						
							<linearGradient id="SVGID_56_" gradientUnits="userSpaceOnUse" x1="-5865.5649" y1="-7778.0356" x2="-5865.5649" y2="-7774.5469" gradientTransform="matrix(2.0761 0.4307 -0.4307 2.0761 9160.8877 18918.375)">
							<stop  offset="0" style="stop-color:#EE9978"/>
							<stop  offset="1" style="stop-color:#E37070"/>
						</linearGradient>
						<path class="st72" d="M333.3,244.1l-3.4,5.9c-0.2,0.4,0,1,0.5,1l3.7,0.6l0.1-7.3L333.3,244.1z"/>
						<g>
							<path class="st73" d="M332.6,250.9c0.1-0.3,0.3-0.5,0.6-0.4s0.5,0.3,0.4,0.7L332.6,250.9z"/>
						</g>
					</g>
					<g>
						<path class="st74" d="M324.7,242.4c0,0,1.8-0.4,4.1,0c2.2,0.4,3.5,1.4,3.5,1.4c0.1,0-0.7,3-1.3,3.7c-0.6,0.6-1.7,0.9-3.4,0.6
							c-1.7-0.2-3.3-0.7-3.4-2.6C324.2,243.6,324.7,242.4,324.7,242.4z"/>
						<path class="st74" d="M342.3,244.9c0,0-1.7-0.9-3.9-1.2c-2.2-0.2-3.8,0.3-3.8,0.3c-0.1,0-0.2,3.1,0.2,3.9
							c0.4,0.8,1.3,1.3,3.1,1.6c1.7,0.2,3.4,0.3,4-1.5C342.4,246.2,342.3,244.9,342.3,244.9z"/>
						<g>
							<path class="st75" d="M324.9,242.7c-0.2,0-0.3-0.1-0.4-0.2c0,0-0.3-0.4-0.5-0.8c-0.1-0.2-0.6-0.4-0.8-0.4
								c-0.1,0-0.1,0-0.1,0.1c-0.1,0.3-0.4,0.4-0.7,0.3s-0.4-0.4-0.3-0.7c0.2-0.4,0.5-0.7,0.9-0.7c0.7-0.1,1.5,0.4,1.8,0.8
								s0.6,0.9,0.6,0.9c0.2,0.2,0.1,0.6-0.2,0.7C325,242.7,324.9,242.7,324.9,242.7z"/>
						</g>
						<g>
							<path class="st76" d="M346.9,247.1c-0.1,0-0.1,0-0.2,0c-0.3-0.1-0.4-0.4-0.3-0.6c0.1-0.3,0-0.3,0-0.4
								c-0.3-0.4-1.8-0.4-2.9-0.4c-0.4,0-0.8,0-1.2,0c-0.3,0-0.5-0.3-0.4-0.6c0-0.3,0.3-0.5,0.6-0.4c0.3,0,0.7,0,1.2,0
								c1.5,0,3.1,0,3.7,0.8c0.2,0.2,0.3,0.7,0.2,1.3C347.3,246.9,347.1,247.1,346.9,247.1z"/>
						</g>
						<g>
							<path class="st76" d="M334.6,244.6c-0.1,0-0.1,0-0.2-0.1c-0.6-0.2-1.2-0.3-2.1-0.3c-0.3,0-0.5-0.2-0.5-0.5s0.2-0.5,0.5-0.5
								c1,0,1.8,0.1,2.5,0.3c0.3,0.1,0.4,0.4,0.3,0.7C335,244.5,334.8,244.6,334.6,244.6z"/>
						</g>
					</g>
					<g>
						<ellipse class="st54" cx="328" cy="244.8" rx="0.6" ry="0.6"/>
					</g>
					<g>
						<ellipse class="st54" cx="338.4" cy="246.5" rx="0.6" ry="0.6"/>
					</g>
					<g>
						
							<linearGradient id="SVGID_57_" gradientUnits="userSpaceOnUse" x1="335.7102" y1="-158.6955" x2="342.6805" y2="-158.6955" gradientTransform="matrix(1 0 0 1 0 402)">
							<stop  offset="0" style="stop-color:#3574B4"/>
							<stop  offset="0.4664" style="stop-color:#533A8B"/>
						</linearGradient>
						<path class="st77" d="M342.7,244.3c-0.6-0.3-1.1-0.5-1.7-0.7c-0.6-0.2-1.1-0.3-1.7-0.3c-0.6-0.1-1.2-0.1-1.7-0.2
							c-0.6-0.1-1.2-0.1-1.8-0.1c0.6-0.3,1.2-0.5,1.8-0.6c0.6-0.1,1.3-0.1,1.9,0c0.6,0.1,1.3,0.3,1.8,0.6
							C341.9,243.3,342.4,243.7,342.7,244.3z"/>
					</g>
					<g>
						
							<linearGradient id="SVGID_58_" gradientUnits="userSpaceOnUse" x1="325.1223" y1="-160.0927" x2="332.0928" y2="-160.0927" gradientTransform="matrix(1 0 0 1 0 402)">
							<stop  offset="0" style="stop-color:#3574B4"/>
							<stop  offset="0.4664" style="stop-color:#533A8B"/>
						</linearGradient>
						<path class="st78" d="M332.1,242.9c-0.6-0.3-1.1-0.5-1.7-0.7c-0.6-0.2-1.1-0.3-1.7-0.3c-0.6-0.1-1.2-0.1-1.7-0.2
							c-0.6-0.1-1.2-0.1-1.8-0.1c0.6-0.3,1.2-0.5,1.8-0.6c0.6-0.1,1.3-0.1,1.9,0c0.6,0.1,1.3,0.3,1.8,0.6
							C331.2,241.9,331.7,242.3,332.1,242.9z"/>
					</g>
					
						<linearGradient id="SVGID_59_" gradientUnits="userSpaceOnUse" x1="341.0182" y1="-173.5497" x2="325.6966" y2="-147.0119" gradientTransform="matrix(1 0 0 1 0 402)">
						<stop  offset="0" style="stop-color:#3574B4"/>
						<stop  offset="0.4664" style="stop-color:#533A8B"/>
					</linearGradient>
					<path class="st79" d="M325.1,242.1c3-2.1,6.7-0.3,11.5-2.9c4.8-2.6,6.3-4.6,6.3-4.6s-0.6,2.7,0.1,4.6c0.7,2,2.1,3.8,2.1,5.4
						s-1,5.3-1,5.3s2.7-3.6,3.2-5.3c0.4-1.6,0.7-5.3-0.3-7.9c-1-2.6-2.9-3.5-3.2-4.2c-0.3-0.7-1.7-4.8-7.1-5.9
						c-4.3-0.9-9.9,0.7-12.6,4.3c-2.3,3.1-2.9,5.5-3.4,8.8c-0.4,3.2-1.7,5.5-2.9,6.4s-3.5,2.3-3.5,2.3s3.1-0.1,5.1-0.9
						C321.5,246.8,323.2,243.5,325.1,242.1z"/>
					<g>
						<polyline class="st80" points="336,329.5 339,341.6 309.7,337 309.5,336.5 						"/>
						<polyline class="st81" points="335.3,330 338.1,341.4 309.7,337.1 309.5,336.5 						"/>
						<g>
							<path class="st20" d="M320.3,321.5c-0.7,0.6-1.8,0.6-2.7,0.2c-0.4-0.2-0.8-0.3-0.8-0.7l0,0c0-0.2,0-0.3,0-0.4s0.1-0.3,0-0.4
								s-0.1-0.3-0.2-0.4s-0.2-0.2-0.2-0.4c-0.1-0.4,0.2-0.7,0.4-1c0.3-0.3,0.6-0.4,0.7-0.5l0,0h0.1l0,0c0.1,0.1,0.4,0.6,1.1,0.4
								c0.6-0.1,0.8-0.6,0.8-0.7l0,0l0,0c0,0,0,0,0.1,0c0.5,0.2,0.7,0.7,0.7,0.8v0.1c0.1,0.2,0,0.4,0,0.6c0,0.1-0.1,0.2,0,0.3
								c0,0.1,0.1,0.2,0.2,0.3c0.1,0.2,0.2,0.3,0.2,0.5l0,0C320.8,320.8,320.6,321.2,320.3,321.5z"/>
							<path class="st20" d="M321.6,318.2c0.1,0.3-0.1,0.6-0.2,0.9c-0.2,0.2-0.4,0.4-0.8,0.4c0,0-0.1,0-0.1-0.1v-0.1
								c-0.1-0.3,0.1-0.6,0.2-0.8C321,318.4,321.2,318.2,321.6,318.2C321.6,318.2,321.6,318.2,321.6,318.2z"/>
						</g>
					</g>
					<g>
						
							<linearGradient id="SVGID_60_" gradientUnits="userSpaceOnUse" x1="314.2167" y1="-65.4779" x2="314.2167" y2="-132.5533" gradientTransform="matrix(1 0 0 1 0 402)">
							<stop  offset="0" style="stop-color:#DC3E7E"/>
							<stop  offset="1" style="stop-color:#F38351"/>
						</linearGradient>
						
							<linearGradient id="SVGID_61_" gradientUnits="userSpaceOnUse" x1="295.2453" y1="-99.2764" x2="333.245" y2="-99.2764" gradientTransform="matrix(1 0 0 1 0 402)">
							<stop  offset="0" style="stop-color:#ED5970"/>
							<stop  offset="1" style="stop-color:#F38351"/>
						</linearGradient>
						<path class="st82" d="M298.9,288.1c-2.7,6.1-3.2,17.9-3.2,25.1c0,7.2,1.1,20.8,5.3,22.4s13.5,0.9,18.4,0.4s13.2-1.7,13.2-1.7
							l-2-15.6h-1.7c0,0-3.6-13.7-5.5-18.7c-1.6-4.4-3-22.3-2.3-30.6C317.2,272.3,301.6,282.3,298.9,288.1z"/>
					</g>
					<g>
						<g>
							<g>
								<defs>
									<polygon id="SVGID_62_" points="276.2,136.1 276.5,136.1 276.2,136.4 									"/>
								</defs>
								<clipPath id="SVGID_63_">
									<use xlink:href="#SVGID_62_"  style="overflow:visible;"/>
								</clipPath>
							</g>
							<g>
								<defs>
									<polygon id="SVGID_64_" points="276.2,136.1 276.5,136.1 276.2,136.4 									"/>
								</defs>
								<defs>
									<polygon id="SVGID_65_" points="275.7,135.6 275.4,135.6 275.7,135.3 									"/>
								</defs>
								<clipPath id="SVGID_66_">
									<use xlink:href="#SVGID_64_"  style="overflow:visible;"/>
								</clipPath>
								<clipPath id="SVGID_67_" class="st83">
									<use xlink:href="#SVGID_65_"  style="overflow:visible;"/>
								</clipPath>
								
									<linearGradient id="SVGID_68_" gradientUnits="userSpaceOnUse" x1="322.2945" y1="-104.5549" x2="316.2155" y2="-89.2055" gradientTransform="matrix(1 0 0 1 0 402)">
									<stop  offset="0" style="stop-color:#000000"/>
									<stop  offset="1" style="stop-color:#FFFFFF"/>
								</linearGradient>
								<path class="st84" d="M329.1,318.6c0,0-3.6-13.7-5.5-18.7c-0.8-2.3-1.6-8.6-2.1-15.1c-6.8-2-8.6-0.4-9.8,1.4
									c-1.3,1.9-2.2,9.3-2.2,9.3c1.5,2.9,2.6,12.6,2.6,14.4c0.1,1.7,0.3,10.5,0.3,10.5s13.8-1.2,14.6-1.3
									C327.8,319,329.1,318.6,329.1,318.6z"/>
							</g>
						</g>
					</g>
					
						<linearGradient id="SVGID_69_" gradientUnits="userSpaceOnUse" x1="322.2945" y1="-104.5549" x2="316.2155" y2="-89.2055" gradientTransform="matrix(1 0 0 1 0 402)">
						<stop  offset="0" style="stop-color:#FFFFFF"/>
						<stop  offset="1" style="stop-color:#405EA7"/>
					</linearGradient>
					<path class="st85" d="M329.1,318.6c0,0-3.6-13.7-5.5-18.7c-0.8-2.3-1.6-8.6-2.1-15.1c-6.8-2-8.6-0.4-9.8,1.4
						c-1.3,1.9-2.2,9.3-2.2,9.3c1.5,2.9,2.6,12.6,2.6,14.4c0.1,1.7,0.3,10.5,0.3,10.5s13.8-1.2,14.6-1.3
						C327.8,319,329.1,318.6,329.1,318.6z"/>
					<g>
						<g>
							<g>
								<defs>
									<polygon id="SVGID_70_" points="276.2,136.1 276.5,136.1 276.2,136.4 									"/>
								</defs>
								<clipPath id="SVGID_71_">
									<use xlink:href="#SVGID_70_"  style="overflow:visible;"/>
								</clipPath>
							</g>
							<g>
								<defs>
									<polygon id="SVGID_72_" points="276.2,136.1 276.5,136.1 276.2,136.4 									"/>
								</defs>
								<defs>
									<polygon id="SVGID_73_" points="275.7,135.6 275.4,135.6 275.7,135.3 									"/>
								</defs>
								<clipPath id="SVGID_74_">
									<use xlink:href="#SVGID_72_"  style="overflow:visible;"/>
								</clipPath>
								<clipPath id="SVGID_75_" class="st86">
									<use xlink:href="#SVGID_73_"  style="overflow:visible;"/>
								</clipPath>
								
									<linearGradient id="SVGID_76_" gradientUnits="userSpaceOnUse" x1="304.9048" y1="-90.9838" x2="312.7421" y2="-86.9407" gradientTransform="matrix(1 0 0 1 0 402)">
									<stop  offset="0" style="stop-color:#000000"/>
									<stop  offset="1" style="stop-color:#FFFFFF"/>
								</linearGradient>
								<path class="st87" d="M312.5,320.5c-2.9,0.1-7.7,0.3-10.3,1.5c0,0-8.8-10.7-4.4-18.6c4.5-7.8,13.1-1.7,13.1-1.7L312.5,320.5
									z"/>
							</g>
						</g>
					</g>
					
						<linearGradient id="SVGID_77_" gradientUnits="userSpaceOnUse" x1="304.9048" y1="-90.9838" x2="312.7421" y2="-86.9407" gradientTransform="matrix(1 0 0 1 0 402)">
						<stop  offset="0" style="stop-color:#FFFFFF"/>
						<stop  offset="1" style="stop-color:#405EA7"/>
					</linearGradient>
					<path class="st88" d="M312.5,320.5c-2.9,0.1-7.7,0.3-10.3,1.5c0,0-8.8-10.7-4.4-18.6c4.5-7.8,13.1-1.7,13.1-1.7L312.5,320.5z"
						/>
					<path class="st69" d="M330.7,318.6c3.7-0.2,13.2-2.2,14.4-2c1.2,0.2,9.4,2.2,9.4,2.2l0.2,4.1c0,0-3.4,0.1-6.5,1.3
						c-3.1,1.2-14.7,6.4-16.2,6.7L330.7,318.6z"/>
					<path class="st69" d="M304.6,307.6c0,0,0.1,0.6,0.7,0.9c0.6,0.3,1.8,0.5,2.5,0.8c0.7,0.3,2.3,1.3,2.3,1.3l-3-1l-3.3-0.3
						c0,0,0.1,0.9,0.7,1.3c0.6,0.3,2.6,0.7,2.6,0.7l2.9,1.8l-3.3-1.5h-2.4c0,0-0.4,0.4,0,0.8c0.4,0.3,2.4,0.8,2.4,0.8l1.9,1.3
						l-2.5-1.1l-1.3,0.1c0,0,0,0.8,0.9,1.2s2.6,1.1,3.3,1.8s2.5,3.2,3.3,4.1c6.3-0.4,14.6-1.3,14.6-1.3l-9.1-3.8c0,0-3.2-4.7-5-5.9
						c-0.2-0.1-3-1.4-4.1-1.6C307.8,307.7,304.6,307.6,304.6,307.6z"/>
					<g>
						<g>
							<g>
								<defs>
									<polygon id="SVGID_78_" points="276.2,136.1 276.5,136.1 276.2,136.4 									"/>
								</defs>
								<clipPath id="SVGID_79_">
									<use xlink:href="#SVGID_78_"  style="overflow:visible;"/>
								</clipPath>
							</g>
							<g>
								<defs>
									<polygon id="SVGID_80_" points="276.2,136.1 276.5,136.1 276.2,136.4 									"/>
								</defs>
								<defs>
									<polygon id="SVGID_81_" points="275.7,135.6 275.4,135.6 275.7,135.3 									"/>
								</defs>
								<clipPath id="SVGID_82_">
									<use xlink:href="#SVGID_80_"  style="overflow:visible;"/>
								</clipPath>
								<clipPath id="SVGID_83_" class="st89">
									<use xlink:href="#SVGID_81_"  style="overflow:visible;"/>
								</clipPath>
								
									<linearGradient id="SVGID_84_" gradientUnits="userSpaceOnUse" x1="358.1833" y1="-85.7159" x2="354.2657" y2="-79.0288" gradientTransform="matrix(1 0 0 1 0 402)">
									<stop  offset="0" style="stop-color:#000000"/>
									<stop  offset="1" style="stop-color:#FFFFFF"/>
								</linearGradient>
								<path class="st90" d="M354.8,323c2,0.2,7.8,0.3,9.6,0.8c0,0,1.6-11.9-2.8-15.5c-4.4-3.6-8.2-1.9-8.2-1.9s0.9,7.8,1.2,9.6
									C354.8,317.8,354.8,323,354.8,323z"/>
							</g>
						</g>
					</g>
					
						<linearGradient id="SVGID_85_" gradientUnits="userSpaceOnUse" x1="358.1833" y1="-85.7159" x2="354.2657" y2="-79.0288" gradientTransform="matrix(1 0 0 1 0 402)">
						<stop  offset="0" style="stop-color:#FFFFFF"/>
						<stop  offset="1" style="stop-color:#405EA7"/>
					</linearGradient>
					<path class="st91" d="M354.8,323c2,0.2,7.8,0.3,9.6,0.8c0,0,1.6-11.9-2.8-15.5c-4.4-3.6-8.2-1.9-8.2-1.9s0.9,7.8,1.2,9.6
						C354.8,317.8,354.8,323,354.8,323z"/>
					<path class="st73" d="M320.7,304c2.2,3.7,5.9,9.1,7.4,11.1c-1.2-4.4-3.3-11.8-4.5-15.2c-1.6-4.4-3-22.3-2.3-30.6
						c-1.2,0.8-3.4,2.3-5.9,4.1c-1.3,4-2.2,10.1-2.2,10.1l5,1.8l-3.2,4.4C314.9,289.7,317.9,299.3,320.7,304z"/>
					<path class="st73" d="M344.3,281.6c-0.4,4.7-1.7,12-3.6,19.2c-1.2,4.4-2.1,10.2-2.6,14.1c1.5-3.3,4.4-10,6.6-14.1
						c3-5.6,6.1-10.5,6.1-10.5l-3.6-4.1l4.7-1.5c-0.8-3.1-2.2-7.5-3.4-10.3c-2.5-1.8-4.4-3.2-4.4-3.2S344.6,276.5,344.3,281.6z"/>
					<g>
						<polyline class="st80" points="328.7,298.2 333.1,318.3 305.8,321.6 299.8,295.4 						"/>
						<polyline class="st81" points="328.3,299.1 332.6,318.5 305.8,321.6 300,296.6 						"/>
					</g>
					<g>
						<path class="st92" d="M315.6,317.5l2.2,0.1l0.3,1.8l-2.2-0.1L315.6,317.5z"/>
						<g>
							<path class="st92" d="M318.1,317.6l2.2,0.1l0.3,1.8l-2.2-0.1L318.1,317.6z"/>
						</g>
						<g>
							<path class="st92" d="M316,319.4l2.2,0.1l0.1,0.7l-2.1,0.2L316,319.4z"/>
							<g>
								<path class="st92" d="M318.4,319.5l2.2,0.1l0.1,0.3l-2.2,0.2L318.4,319.5z"/>
							</g>
						</g>
					</g>
				</g>
			</g>
		</g>
	</g>
	<g>
		<path class="st21" d="M139.8,335.2H75.4c-7.6,0-13.7-6.1-13.7-13.7v-88.4c0-7.6,6.1-13.7,13.7-13.7h64.4c7.6,0,13.7,6.1,13.7,13.7
			v88.4C153.5,329.1,147.4,335.2,139.8,335.2z"/>
		<g>
			<g>
				<defs>
					<path id="SVGID_86_" d="M139.8,335.2H75.4c-7.6,0-13.7-6.1-13.7-13.7v-88.4c0-7.6,6.1-13.7,13.7-13.7h64.4
						c7.6,0,13.7,6.1,13.7,13.7v88.4C153.5,329.1,147.4,335.2,139.8,335.2z"/>
				</defs>
				<clipPath id="SVGID_87_">
					<use xlink:href="#SVGID_86_"  style="overflow:visible;"/>
				</clipPath>
				<g class="st93">
					
						<linearGradient id="SVGID_88_" gradientUnits="userSpaceOnUse" x1="127.1599" y1="-48.0953" x2="79.5886" y2="-130.4911" gradientTransform="matrix(1 0 0 1 0 402)">
						<stop  offset="0" style="stop-color:#1E2E59"/>
						<stop  offset="0.565" style="stop-color:#2573B9"/>
					</linearGradient>
					<path class="st94" d="M148.9,331c-1,3.9-12.8,18.9-15.4,19.2c-2.6,0.3-4.1-2.3-4.1-2.3H66.8c0,0-4.4-12-5.6-18.4
						c-1.2-6.4,3.9-34.9,6.7-41.7s7.2-9.3,12.4-12.5c5.1-3.1,14.3-10,15.9-12.4c0.3-0.4,0.6-1,0.7-1.5c1.6,4.9,7.2,10.7,10.3,10.7
						c3.2,0,7.5-5.9,8.9-11.5c0.6,1.7,1.6,3.2,3.1,4.5c3.2,2.7,12.6,5.8,17,8.6c4.4,2.8,6.1,9,8.6,19.3
						C147.4,303.4,149.9,327,148.9,331z"/>
					<path class="st42" d="M135.6,338.2c-1.1-2.8-2.4-2.9-4.2-2.9l-4.1,3.1l0.8,9.4h1.3c0,0,1.5,2.6,4.1,2.3c0.4-0.1,1-0.4,1.7-1
						C135.7,347.1,136.6,340.8,135.6,338.2z"/>
					<g>
						<g>
							<g>
								<defs>
									<polygon id="SVGID_89_" points="-56.1,149.1 -55.8,149.1 -56.1,149.4 									"/>
								</defs>
								<clipPath id="SVGID_90_">
									<use xlink:href="#SVGID_89_"  style="overflow:visible;"/>
								</clipPath>
							</g>
							<g>
								<defs>
									<polygon id="SVGID_91_" points="-56.1,149.1 -55.8,149.1 -56.1,149.4 									"/>
								</defs>
								<defs>
									<polygon id="SVGID_92_" points="-56.6,148.6 -56.9,148.6 -56.6,148.3 									"/>
								</defs>
								<clipPath id="SVGID_93_">
									<use xlink:href="#SVGID_91_"  style="overflow:visible;"/>
								</clipPath>
								<clipPath id="SVGID_94_" class="st95">
									<use xlink:href="#SVGID_92_"  style="overflow:visible;"/>
								</clipPath>
								<path class="st96" d="M95.6,339.7c0.4-13.7,0.5-27.6,1.3-41.2c-7.3,0.4-14.1,1.3-14.6,3.2c-0.9,3.8-4.5,26.7-4.5,26.7
									c1.4,3.6,5.2,19.6,5.2,19.6h12.2C95.4,345.1,95.5,342.4,95.6,339.7z"/>
							</g>
						</g>
					</g>
					
						<linearGradient id="SVGID_95_" gradientUnits="userSpaceOnUse" x1="96.5576" y1="-89.1124" x2="78.8394" y2="-61.9882" gradientTransform="matrix(1 0 0 1 0 402)">
						<stop  offset="0" style="stop-color:#FFFFFF"/>
						<stop  offset="1" style="stop-color:#405EA7"/>
					</linearGradient>
					<path class="st97" d="M95.6,339.7c0.4-13.7,0.5-27.6,1.3-41.2c-7.3,0.4-14.1,1.3-14.6,3.2c-0.9,3.8-4.5,26.7-4.5,26.7
						c1.4,3.6,5.2,19.6,5.2,19.6h12.2C95.4,345.1,95.5,342.4,95.6,339.7z"/>
					<g>
						<g>
							<g>
								<defs>
									<polygon id="SVGID_96_" points="-56.1,149.1 -55.8,149.1 -56.1,149.4 									"/>
								</defs>
								<clipPath id="SVGID_97_">
									<use xlink:href="#SVGID_96_"  style="overflow:visible;"/>
								</clipPath>
							</g>
							<g>
								<defs>
									<polygon id="SVGID_98_" points="-56.1,149.1 -55.8,149.1 -56.1,149.4 									"/>
								</defs>
								<defs>
									<polygon id="SVGID_99_" points="-56.6,148.6 -56.9,148.6 -56.6,148.3 									"/>
								</defs>
								<clipPath id="SVGID_100_">
									<use xlink:href="#SVGID_98_"  style="overflow:visible;"/>
								</clipPath>
								<clipPath id="SVGID_101_" class="st98">
									<use xlink:href="#SVGID_99_"  style="overflow:visible;"/>
								</clipPath>
								<path class="st99" d="M114.4,298.6c-0.3-0.1-0.9-0.2-1.6-0.2c-0.1,1.7-0.2,3.5-0.3,5.3c-0.7,14.7-0.7,29.5-1.3,44.2h18.2
									l3.5-19.4c0,0,1.3-10.1,1.7-15.1c0.4-5,1.7-19.6,1.7-19.6S117.7,299.4,114.4,298.6z"/>
							</g>
						</g>
					</g>
					
						<linearGradient id="SVGID_102_" gradientUnits="userSpaceOnUse" x1="113.2316" y1="-88.8716" x2="131.9342" y2="-75.3095" gradientTransform="matrix(1 0 0 1 0 402)">
						<stop  offset="0" style="stop-color:#FFFFFF"/>
						<stop  offset="1" style="stop-color:#405EA7"/>
					</linearGradient>
					<path class="st100" d="M114.4,298.6c-0.3-0.1-0.9-0.2-1.6-0.2c-0.1,1.7-0.2,3.5-0.3,5.3c-0.7,14.7-0.7,29.5-1.3,44.2h18.2
						l3.5-19.4c0,0,1.3-10.1,1.7-15.1c0.4-5,1.7-19.6,1.7-19.6S117.7,299.4,114.4,298.6z"/>
					<path class="st101" d="M116.3,260.7c-1.4,5.5-5.8,11.5-8.9,11.5c-3.1,0-8.7-5.8-10.3-10.7c-0.2,0.6-0.4,1.1-0.7,1.5
						c-0.8,1.1-3.3,3.4-6.3,5.6c-2.5,5.3-3.5,11-3.5,11l5.9,5.1l-2.6,3.6c0,0,5.3,6.9,6.3,11.6c1,4.8,19.7,1.2,19.7,1.2l6.9-9.2
						l-2.5-5.9l5.8-1.5c0,0-0.1-9.4-3.2-17.3c-1.4-0.7-2.6-1.4-3.4-2.1C117.9,263.9,116.9,262.4,116.3,260.7z"/>
					
						<linearGradient id="SVGID_103_" gradientUnits="userSpaceOnUse" x1="101.3421" y1="-141.272" x2="101.3421" y2="-54.1407" gradientTransform="matrix(1 0 0 1 0 402)">
						<stop  offset="0" style="stop-color:#D0D1D3"/>
						<stop  offset="0.223" style="stop-color:#C4C7CD"/>
						<stop  offset="0.6601" style="stop-color:#ABB3C5"/>
						<stop  offset="1" style="stop-color:#95A4C0"/>
					</linearGradient>
					<path class="st102" d="M116.3,260.7c-1.4,5.5-5.8,11.5-8.9,11.5c-3.1,0-8.7-5.8-10.3-10.7c-0.2,0.6-0.4,1.1-0.7,1.5
						c-0.1,0.1-0.1,0.2-0.2,0.3c-1.5,6.7-2.1,14.3-1.7,23.6c0.4,10.2,0.2,18.6-2.8,29.8c-2.5,9.7-7.3,26.7-8.6,31.2h32.6
						c0-5.9,0.1-32.9,0.3-41.9c0.3-10,1.3-16.5,3-24c1.3-5.9,0-13.5-0.7-17.9C117.4,263.1,116.7,262,116.3,260.7z"/>
					<g>
						<g>
							<g>
								<defs>
									<polygon id="SVGID_104_" points="-56.1,149.1 -55.8,149.1 -56.1,149.4 									"/>
								</defs>
								<clipPath id="SVGID_105_">
									<use xlink:href="#SVGID_104_"  style="overflow:visible;"/>
								</clipPath>
							</g>
							<g>
								<defs>
									<polygon id="SVGID_106_" points="-56.1,149.1 -55.8,149.1 -56.1,149.4 									"/>
								</defs>
								<defs>
									<polygon id="SVGID_107_" points="-56.6,148.6 -56.9,148.6 -56.6,148.3 									"/>
								</defs>
								<clipPath id="SVGID_108_">
									<use xlink:href="#SVGID_106_"  style="overflow:visible;"/>
								</clipPath>
								<clipPath id="SVGID_109_" class="st103">
									<use xlink:href="#SVGID_107_"  style="overflow:visible;"/>
								</clipPath>
								<path class="st104" d="M94.5,296c4.1-0.1,8.3-0.4,12.5-0.5c3.2-0.1,6.5-0.1,9.8-0.1c0.5-4.8,1.3-8.9,2.2-13.4
									c1.3-5.9,0-13.5-0.7-17.9c-1-1.1-1.6-2.2-2.1-3.5c-1.4,5.5-5.8,11.5-8.9,11.5c-3.1,0-8.7-5.8-10.3-10.7
									c-0.2,0.6-0.4,1.1-0.7,1.5c-0.1,0.1-0.1,0.2-0.2,0.3c-1.5,6.7-2.1,14.3-1.7,23.6C94.5,290,94.6,293,94.5,296z"/>
							</g>
						</g>
					</g>
					<path class="st105" d="M94.5,296c4.1-0.1,8.3-0.4,12.5-0.5c3.2-0.1,6.5-0.1,9.8-0.1c0.5-4.8,1.3-8.9,2.2-13.4
						c1.3-5.9,0-13.5-0.7-17.9c-1-1.1-1.6-2.2-2.1-3.5c-1.4,5.5-5.8,11.5-8.9,11.5c-3.1,0-8.7-5.8-10.3-10.7
						c-0.2,0.6-0.4,1.1-0.7,1.5c-0.1,0.1-0.1,0.2-0.2,0.3c-1.5,6.7-2.1,14.3-1.7,23.6C94.5,290,94.6,293,94.5,296z"/>
					<path class="st20" d="M119.1,269.3c-0.2-1.9-0.5-3.7-0.7-5.1c-1-1.1-1.6-2.2-2.1-3.5c-1.4,5.5-5.8,11.5-8.9,11.5
						c-3.1,0-8.7-5.8-10.3-10.7c-0.2,0.6-0.4,1.1-0.7,1.5c-0.1,0.1-0.1,0.2-0.2,0.3c-0.6,2.6-1,5.3-1.3,8.1l3.9,7.2
						c0,0,4.8-5.1,5.9-4.4c0.3,0.2-0.7,1.5-0.4,2.2c1,1.8,3.1,4.2,3.1,4.2s2.2-2.5,3.5-4.2c0.6-0.8-0.5-2.5-0.3-2.5
						c0.7-0.2,5.6,3.6,5.6,3.6S117.9,273.3,119.1,269.3z"/>
					
						<linearGradient id="SVGID_110_" gradientUnits="userSpaceOnUse" x1="106.9455" y1="-134.099" x2="106.4942" y2="-145.2901" gradientTransform="matrix(1 0 0 1 0 402)">
						<stop  offset="0" style="stop-color:#EE9978"/>
						<stop  offset="1" style="stop-color:#E37070"/>
					</linearGradient>
					<path class="st106" d="M116.3,260.7c-1.2,6.4-6.6,10.7-8.9,19.9c-1.5-9.3-8.9-12.6-10.3-19.1c0.8-2.3,0.7-5.6,0.7-9.3
						c0.1-0.2,0.2-0.4,0.3-0.7l17.2,2.7C115.2,256.5,115.5,258.7,116.3,260.7z"/>
					<g>
						<path class="st67" d="M98,241.7c-2.2-1.2-4.7-0.7-5.5,2.1c-0.8,2.7-0.3,5.8,2.1,6.9c2.3,1.2,3.4,0.2,3.4,0.2L98,241.7z"/>
						<path class="st53" d="M98,248.3v-4.2c-0.2-0.2-1.3-1.1-2.5-0.8c-1.3,0.3-1.8,2.5-1.2,3.8C94.9,248.3,96.3,248.7,98,248.3z"/>
					</g>
					<g>
						<path class="st67" d="M115.6,241.9c2.2-1.2,4.7-0.7,5.5,2.1c0.8,2.7,0.3,5.8-2.1,6.9c-2.3,1.2-3.4,0.2-3.4,0.2L115.6,241.9z"
							/>
						<path class="st53" d="M115.6,248.4v-4.2c0.2-0.2,1.3-1.1,2.5-0.8c1.3,0.3,1.8,2.5,1.2,3.8
							C118.6,248.5,117.3,248.9,115.6,248.4z"/>
					</g>
					<path class="st107" d="M97.7,229.8c3.2-3.8,9.3-4.7,13.5-3.2c4.1,1.5,5.1,2.8,6.8,5.3c1.7,2.5,1.6,6.4,1.2,8.4
						c-0.4,2.2-1,3.5-1.2,4.2c-0.3,0.7-0.8,0.8-0.8,0.8l-19.4,0.6c0,0-1.3,0.4-1.4-1.5c-0.1-1.8-0.6-2.8-1.3-3
						C94.8,241.3,93.5,234.6,97.7,229.8z"/>
					<path class="st108" d="M98,251.5c-0.1,0.2-0.2,0.4-0.3,0.7c0-0.2,0-0.4,0-0.7H98z"/>
					<path class="st69" d="M99.7,231.2c0,0-2.7,4.4-2.3,7.8c0.4,3.4-0.1,6.8-0.3,9.2c-0.2,2.5,0.8,6.4,2.3,9.5
						c1.5,3.1,4.3,5.9,8.6,5.7c4.2-0.2,4.9-2.3,6.8-5.8c1.8-3.5,2.3-6.6,2.5-8.7c0.2-2-0.3-4.8-0.3-7.7c0.1-2.9,0.1-6.2-1.3-8.2
						c-1.5-2-2.2-2.6-2.2-2.6s-3.9,2.5-7.7,2.5C101.9,233,99.7,231.2,99.7,231.2z"/>
					<g>
						<path class="st109" d="M99.1,241.7c3-0.6,4.4-0.2,6.5-0.3C104.9,239.1,99.6,238.7,99.1,241.7z"/>
					</g>
					<g>
						<path class="st109" d="M115.1,241.4c-3-0.6-4.4-0.2-6.5-0.3C109.4,238.9,114.7,238.4,115.1,241.4z"/>
					</g>
					<g>
						<ellipse class="st54" cx="101.9" cy="243.4" rx="0.6" ry="0.6"/>
					</g>
					<g>
						<ellipse class="st54" cx="112.3" cy="243.4" rx="0.6" ry="0.6"/>
					</g>
					<g>
						
							<linearGradient id="SVGID_111_" gradientUnits="userSpaceOnUse" x1="-8579.9463" y1="-7379.9834" x2="-8579.9463" y2="-7376.4971" gradientTransform="matrix(-1.8476 0.1215 0.1423 2.1635 -14694.6504 17250.2695)">
							<stop  offset="0" style="stop-color:#EE9978"/>
							<stop  offset="1" style="stop-color:#E37070"/>
						</linearGradient>
						<path class="st110" d="M107.6,241.3l2.3,6.4c0.2,0.4-0.1,1-0.6,1H106l0.8-7.4L107.6,241.3z"/>
						<g>
							<path class="st73" d="M107.4,248.3c0-0.3-0.2-0.6-0.5-0.6c-0.3,0-0.5,0.3-0.4,0.6H107.4z"/>
						</g>
					</g>
					<g>
						<path class="st20" d="M110.7,252.3c0,0.9-1.6,2-3.6,2s-3.5-1.2-3.6-2c-0.1-1.3,1.6-0.5,3.6-0.5
							C109.1,251.8,110.8,251.1,110.7,252.3z"/>
					</g>
					<g>
						<circle class="st70" cx="101.1" cy="248.5" r="2.5"/>
					</g>
					<g>
						<circle class="st70" cx="113.4" cy="248.5" r="2.5"/>
					</g>
					<polygon class="st111" points="124.3,338.2 152.5,292.9 149.7,305.8 128.6,340.1 124.4,340 					"/>
					<path class="st69" d="M126,335.5c0,0-0.6-0.6-1.2-0.2s-3,2-3.6,3.2c0,0-1.2-0.2-2.1,0.7c-0.9,0.9-1.2,2.1-1.2,2.1
						s-0.8-0.2-1.2,0.9c-0.4,1.2-0.2,2.6,0.7,3.5c0.8,1,2.1,3.1,3,4.4c0.9,1.3,3.3,1.8,4.8,0.8c1.5-1,8.9-4.1,9.8-5
						c0.9-0.8,1.5-8.3-0.5-9.2c-2-0.9-4.5-0.3-5.3-0.4c-0.8-0.1-2.1,0.4-2,1.5c0.1,1.1,1.9,1.9,1.9,1.9l-1.7,0.1l-2.1-1.3L126,335.5
						z"/>
				</g>
			</g>
		</g>
	</g>
	<g>
		<g>
			<defs>
				<path id="SVGID_112_" d="M251.9,334.1h-64.6c-7.6,0-13.7-6.1-13.7-13.7v-88.7c0-7.6,6.1-13.7,13.7-13.7h64.6
					c7.6,0,13.7,6.1,13.7,13.7v88.7C265.7,328,259.5,334.1,251.9,334.1z"/>
			</defs>
			<clipPath id="SVGID_113_">
				<use xlink:href="#SVGID_112_"  style="overflow:visible;"/>
			</clipPath>
			<path class="st112" d="M251.9,334.4h-64.6c-7.6,0-13.7-6.1-13.7-13.7v-88.7c0-7.6,6.1-13.7,13.7-13.7h64.6
				c7.6,0,13.7,6.1,13.7,13.7v88.7C265.7,328.2,259.5,334.4,251.9,334.4z"/>
		</g>
		<g>
			<defs>
				<path id="SVGID_114_" d="M251.9,334.1h-64.6c-7.6,0-13.7-6.1-13.7-13.7v-88.7c0-7.6,6.1-13.7,13.7-13.7h64.6
					c7.6,0,13.7,6.1,13.7,13.7v88.7C265.7,328,259.5,334.1,251.9,334.1z"/>
			</defs>
			<clipPath id="SVGID_115_">
				<use xlink:href="#SVGID_114_"  style="overflow:visible;"/>
			</clipPath>
			<path class="st113" d="M235.8,334.8c2.3,4.4,6.1,18.8,6.1,18.8h-49.4c0,0,0.3-10.1,7.7-19.3c5.8-7.2,7.6-7.9,7.6-7.9l21.3-1.1
				C229,325.3,233.5,330.5,235.8,334.8z"/>
		</g>
		<g>
			<defs>
				<path id="SVGID_116_" d="M251.9,334.1h-64.6c-7.6,0-13.7-6.1-13.7-13.7v-88.7c0-7.6,6.1-13.7,13.7-13.7h64.6
					c7.6,0,13.7,6.1,13.7,13.7v88.7C265.7,328,259.5,334.1,251.9,334.1z"/>
			</defs>
			<clipPath id="SVGID_117_">
				<use xlink:href="#SVGID_116_"  style="overflow:visible;"/>
			</clipPath>
			<path class="st114" d="M199.2,309c0,0,9.7-3.2,19.2-3.2s17.2,1.5,17.2,1.5l3.5,12.4c-0.3,2.3-3.1,10.2-5.3,12.7l-32.9,1.3
				l-6.4-13.5L199.2,309z"/>
		</g>
		<g>
			<defs>
				<path id="SVGID_118_" d="M251.9,334.1h-64.6c-7.6,0-13.7-6.1-13.7-13.7v-88.7c0-7.6,6.1-13.7,13.7-13.7h64.6
					c7.6,0,13.7,6.1,13.7,13.7v88.7C265.7,328,259.5,334.1,251.9,334.1z"/>
			</defs>
			<clipPath id="SVGID_119_">
				<use xlink:href="#SVGID_118_"  style="overflow:visible;"/>
			</clipPath>
			<path class="st115" d="M196.4,324.6l2.7,6.9c-1.2,1.5-0.1,3.4-3,8.8c-1.6,3-2.7,5.3-3.5,10.1c0.7,0,0.8,0.5,1.6,0.5
				c10.2,0,20.3-6.9,20.3-6.9c5,1,19.8,6,27.4,7c-0.1-0.4-1.3-4.1-1.5-4.4c-1.8-5.6-4.9-11.8-6.8-15.6h0.6c2.1-2.5,4.2-8.3,4.6-10.4
				l-3-10.6c0,0,2.6,9.2-1.3,12c-5.3,3.9-3.1,11.7-3.1,11.7l-26.5,3.1l-2.2-10.1c0,0-3.9-4-2.2-14.9L196.4,324.6z"/>
		</g>
		<g>
			<defs>
				<path id="SVGID_120_" d="M251.9,334.1h-64.6c-7.6,0-13.7-6.1-13.7-13.7v-88.7c0-7.6,6.1-13.7,13.7-13.7h64.6
					c7.6,0,13.7,6.1,13.7,13.7v88.7C265.7,328,259.5,334.1,251.9,334.1z"/>
			</defs>
			<clipPath id="SVGID_121_">
				<use xlink:href="#SVGID_120_"  style="overflow:visible;"/>
			</clipPath>
			<path class="st116" d="M255.9,332.6c-4.7-2.9-9.5-4-14.9-3.6l-5.5-21.9l-36.3,1.8c0,0-0.3,3.2-2,9.8c-1.5,5.9-1.6,11.8-1.6,13
				c-2.2,2.9-5.6,7.6-7.7,12.4c-0.4-0.1-0.8-0.2-1.2-0.3c-11.3-3.4-1.6-36.5,2.3-46.3c3.9-9.8,15-9.8,23.4-14.3l14.4,2
				c0,0,5,2.2,13,6C247.3,294.9,255.9,332.6,255.9,332.6z"/>
		</g>
		<g>
			<defs>
				<path id="SVGID_122_" d="M251.9,334.1h-64.6c-7.6,0-13.7-6.1-13.7-13.7v-88.7c0-7.6,6.1-13.7,13.7-13.7h64.6
					c7.6,0,13.7,6.1,13.7,13.7v88.7C265.7,328,259.5,334.1,251.9,334.1z"/>
			</defs>
			<clipPath id="SVGID_123_">
				<use xlink:href="#SVGID_122_"  style="overflow:visible;"/>
			</clipPath>
			<path class="st117" d="M255.9,332.6c1.2,6.9-3.7,10.2-9.9,10.2c-6.2,0-37.2-3-37.2-3l18.1-10.3l14.5-0.6c0,0,4.1-0.7,8.2,0.7
				C253.8,331,255.9,332.6,255.9,332.6z"/>
		</g>
		<g>
			<defs>
				<path id="SVGID_124_" d="M251.9,334.1h-64.6c-7.6,0-13.7-6.1-13.7-13.7v-88.7c0-7.6,6.1-13.7,13.7-13.7h64.6
					c7.6,0,13.7,6.1,13.7,13.7v88.7C265.7,328,259.5,334.1,251.9,334.1z"/>
			</defs>
			<clipPath id="SVGID_125_">
				<use xlink:href="#SVGID_124_"  style="overflow:visible;"/>
			</clipPath>
			
				<linearGradient id="SVGID_126_" gradientUnits="userSpaceOnUse" x1="217.1449" y1="-66.9712" x2="249.8873" y2="-66.0766" gradientTransform="matrix(1 0 0 1 0 402)">
				<stop  offset="0" style="stop-color:#ECBBA0"/>
				<stop  offset="1" style="stop-color:#FFFFFF"/>
			</linearGradient>
			<path class="st118" d="M255.9,332.6c1.2,6.9-3.7,10.2-9.9,10.2c-6.2,0-37.2-3-37.2-3l18.1-10.3l14.5-0.6c0,0,4.1-0.7,8.2,0.7
				C253.8,331,255.9,332.6,255.9,332.6z"/>
		</g>
		<g>
			<defs>
				<path id="SVGID_127_" d="M251.9,334.1h-64.6c-7.6,0-13.7-6.1-13.7-13.7v-88.7c0-7.6,6.1-13.7,13.7-13.7h64.6
					c7.6,0,13.7,6.1,13.7,13.7v88.7C265.7,328,259.5,334.1,251.9,334.1z"/>
			</defs>
			<clipPath id="SVGID_128_">
				<use xlink:href="#SVGID_127_"  style="overflow:visible;"/>
			</clipPath>
			<path class="st119" d="M208.7,339.8c0,0,4,0.4,9.4,0.9c2.8-3.9,9.8-7.8,13.8-8.9c4.2-1.1,9.4-2.8,9.4-2.8l-14.5,0.6L208.7,339.8z
				"/>
		</g>
		<g>
			<defs>
				<path id="SVGID_129_" d="M251.9,334.1h-64.6c-7.6,0-13.7-6.1-13.7-13.7v-88.7c0-7.6,6.1-13.7,13.7-13.7h64.6
					c7.6,0,13.7,6.1,13.7,13.7v88.7C265.7,328,259.5,334.1,251.9,334.1z"/>
			</defs>
			<clipPath id="SVGID_130_">
				<use xlink:href="#SVGID_129_"  style="overflow:visible;"/>
			</clipPath>
			<path class="st120" d="M241.1,329c0,0-8.9-0.6-21.7,7.7c-12.2,7.9-20.8,10.3-31.5,7.5c2.2-6.8,4.6-9.6,7.7-12.4
				c0,0.1,0,0.2,0,0.2s12.7-1.5,26.5-4.5C235.9,324.6,241.1,329,241.1,329z"/>
		</g>
		<g>
			<defs>
				<path id="SVGID_131_" d="M251.9,334.1h-64.6c-7.6,0-13.7-6.1-13.7-13.7v-88.7c0-7.6,6.1-13.7,13.7-13.7h64.6
					c7.6,0,13.7,6.1,13.7,13.7v88.7C265.7,328,259.5,334.1,251.9,334.1z"/>
			</defs>
			<clipPath id="SVGID_132_">
				<use xlink:href="#SVGID_131_"  style="overflow:visible;"/>
			</clipPath>
			<g class="st121">
				<path class="st122" d="M240,295.7c-3.2-5.7-7.3-6.8-10.8-11.2c-1.3-1.6-1.8-4.8-2.3-6.7c-0.2-0.8-1-1.4-1.8-1.5l-12.6-0.5
					c-0.6,0-1.2,0.3-1.6,0.8c-1.2,1.6-3,5.3-5.7,7.4c-3.5,2.8-13.8,6.3-16.9,14.6c-0.5,1.3-1.1,3-1.6,4.8h55.7
					C241.7,300.1,240.9,297.2,240,295.7z"/>
				<path class="st123" d="M223.3,234.7c-0.3-2.9-2.6-7.2-6.5-7c-3.9,0.1-5.3,2.2-6.2,3.7c-0.9,1.5-3.4,3.1-6.6,3.5
					c-3.2,0.4-4.5,3.6-3.9,6.2c0.6,2.6-0.6,4.8-2.7,6c-2.1,1.2-3.9,4.5-2.3,7.3c1.6,2.8,3,4,1.9,7.5s2.6,6.9,5.6,6
					c3-1,3.8-1,5.1,0.1c1.3,1.1,3.5,3.5,6.6,2.1C217.5,268.7,223.3,234.7,223.3,234.7z"/>
				<path class="st17" d="M212.2,256.5c-0.3,7.3-0.4,21.5-0.4,21.5s3.4,1.6,7.4,1.6s7.1-0.6,7.1-0.6l0.4-8.6L212.2,256.5z"/>
				<path class="st17" d="M212.2,256.5c-0.3,4.6,4,16.5,10.2,17.6c7,1.2,13-6.7,15.7-12.3c2.2-4.6,2.8-10.1,1.1-15.5
					s-12.7-6.9-18.6-4.5C214.8,244.3,212.6,250.1,212.2,256.5z"/>
				<g>
					<g>
						<g>
							<path class="st20" d="M223.9,264.7c-0.4,1.2,0.7,2.6,2.5,3.1c1.8,0.6,3.5,0.1,3.9-1.1c0.4-1.2-1.3-0.4-3.1-1
								C225.4,265.2,224.3,263.5,223.9,264.7z"/>
						</g>
					</g>
				</g>
				<g>
					<g>
						<path class="st124" d="M230,258.7l-2.2,4.5l2.6,1c0.4,0.1,0.7-0.1,0.6-0.4L230,258.7z"/>
					</g>
				</g>
				<g>
					<g>
						<circle class="st125" cx="222.1" cy="256" r="0.7"/>
					</g>
				</g>
				<g>
					<g>
						<circle class="st125" cx="234.8" cy="261.7" r="0.7"/>
					</g>
				</g>
				<g>
					<g>
						<circle class="st124" cx="219.8" cy="260.7" r="2.1"/>
					</g>
				</g>
				<path class="st124" d="M234.5,265.3c-1.2,0-2.1,1-2.1,2.1c0,0.7,0.3,1.3,0.9,1.7c1-1.1,1.8-2.2,2.6-3.4
					C235.5,265.5,235,265.3,234.5,265.3z"/>
				<path class="st123" d="M222.1,243.2c0,0-4,2.2-6.1,5.1c-2.1,2.9-2.8,6.7-2.8,6.7s-3.2-3.5-2.4-8.7c0.5-3.4,3.8-11.1,13.4-11.9
					c9.6-0.9,15,6.4,16.2,9.7c1.2,3.2,1.8,8.7-0.6,13.7c0,0,0.6-5.1,0.1-8.8c0,0-2.9,0.7-8.3-1.1
					C226.2,246.3,222.1,243.2,222.1,243.2z"/>
				<g>
					<g>
						<path class="st124" d="M213.3,249.8c0,0-2.9-1.2-3.7,2.7c-0.8,4,3,4,3,4L213.3,249.8z"/>
					</g>
				</g>
			</g>
		</g>
	</g>
	<g>
		<path class="st126" d="M388.4,388.4v0.7l0,0l-0.1,4l-14.4-0.4l-0.2,5.5c-12-3.2-39.2-10.3-46.9-11.8c-0.9-0.2-1.7-0.3-2.6-0.4
			l-50-13.9l-8.3-15.4l0.8-0.4c2.1-1.2,2.9-3.8,1.8-5.9l-3.6-6.7c-1.2-2.1-3.8-2.9-5.9-1.8l-0.6,0.3c-0.1,0.1-0.2,0.1-0.3,0.1
			l-3.6-6.7c24.7-20.3,32-56,15.6-84.7c-18.2-32-58.9-43.3-91-25c-32,18.2-43.3,58.9-25,91c16.8,29.6,52.9,41.5,83.6,28.8l3.2,5.9
			l-1.5,0.8c-2.2,1.2-3.1,4-1.8,6.2l3.4,6.3c1.2,2.2,4,3.1,6.2,1.8l1.5-0.8l16.9,31.1l-16.9,3.9c-3.8,0.9-6.4,4.2-6.6,7.9v0.1
			c0,0.7,0.1,1.5,0.2,2.2c1.1,4.6,5.6,7.4,10.2,6.4l20.1-4.6c0.5-0.1,1-0.3,1.4-0.4l0.1,0.2l-10.3,2.3c-3.9,0.9-6.5,4.3-6.7,8v0.1
			c0,0.7,0.1,1.5,0.2,2.2c1.1,4.6,5.6,7.5,10.3,6.4l6-1.3c-2.5,1.3-4.1,3.9-4.2,6.7c0,0.5,0,1,0.1,1.5c0.1,0.2,0.1,0.3,0.1,0.4
			c1,4.1,5.1,6.7,9.2,5.8l4.5-1c-2.4,1.3-3.9,4-3.4,6.8l0.2,1c0,0.2,0.1,0.3,0.1,0.4c0.7,3.4,4,5.8,7.5,5.3l6.5-1
			c0.9-0.1,2.1-0.2,3.5-0.3l6.7,12.4c2.6,4.8,8.6,6.5,13.3,4c1.2-0.7,2.2-1.5,3-2.5c2.3-3,2.9-7.2,1-10.8l-2.8-5.2h0.1l0.1,0.1
			l1.7-0.3c14.3-1.7,31.1-4,43.1-6.8l8.7-1.3l-0.2,5.8l14.4,0.4l-0.2,5.9l80.8,2.9V454V392v-0.8L388.4,388.4z M258,258
			c14.4,25.3,5.5,57.5-19.8,71.9c-14.6,8.3-31.5,8.8-45.9,2.9c-10.6-4.3-19.8-12-25.8-22.7c-14.3-25.4-5.5-57.6,19.8-71.9
			C211.5,223.8,243.7,232.7,258,258z"/>
		<path class="st127" d="M257.7,210.3l-4.8,6.3l0,0c-14.4-11-33.3-14.9-51-10c-4.7,1.3-9.3,3.1-13.7,5.6c-0.4,0.2-0.8,0.4-1.2,0.7
			c-1.9,1.1-3.7,2.3-5.4,3.6c-1.8,1.3-3.5,2.9-5.1,4.4c-19,18.2-23.9,47.6-10.4,71.6c4,7,9.2,12.9,15.2,17.5l0,0l-4.8,6.3
			c-6.8-5.3-12.7-12-17.3-20c-15.4-27.1-9.8-60.4,11.6-81c1.6-1.6,3.3-3,5.1-4.4c2.1-1.7,4.4-3.2,6.7-4.6c0.6-0.3,1.1-0.6,1.6-1
			c4.4-2.5,8.8-4.4,13.4-5.8C218.3,193.1,240.8,197.3,257.7,210.3z"/>
		<path class="st127" d="M266.9,332.9l-1,0.5c-1.6,0.8-3.6,0.3-4.4-1.3l-4.1-7.4l5.5-2.9c0.1,0,0.1-0.1,0.2-0.1l4.2,7.5
			C267.9,330.5,267.7,331.9,266.9,332.9z"/>
		<path class="st128" d="M182.1,222.4c28.5-16.2,64.7-6.3,80.9,22.2c5.6,9.8,8,20.6,7.7,31.1c3-13,1.3-27.1-5.8-39.6
			c-3.8-6.7-8.7-12.2-14.4-16.5c-17-13-40.8-15.3-60.6-4.1c-4.9,2.7-9.2,6.1-12.9,10.1C178.8,224.4,180.4,223.4,182.1,222.4z"/>
		<path class="st129" d="M181.6,216.6c-1.8,1.3-3.5,2.9-5.1,4.4c-0.7-0.7-1.5-1.5-2.2-2.2c-1.2-1.2-2.3-2.3-3.5-3.4
			c1.6-1.6,3.3-3,5.1-4.4c0.8,0.8,1.7,1.6,2.5,2.4C179.4,214.3,180.4,215.5,181.6,216.6z"/>
		<path class="st129" d="M201.9,206.6c-4.7,1.3-9.3,3.1-13.7,5.6c-0.4,0.2-0.8,0.4-1.2,0.7c-1.5-2.2-3-4.4-4.5-6.7
			c0.6-0.3,1.1-0.6,1.6-1c4.4-2.5,8.8-4.4,13.4-5.8C199.1,201.8,200.5,204.2,201.9,206.6z"/>
		<path class="st130" d="M404.8,427.8c-0.1,1.6,1.2,3,2.9,3c1.6,0.1,3-1.2,3-2.9c0.1-1.6-1.2-3-2.9-3
			C406.2,424.9,404.8,426.2,404.8,427.8z"/>
		<path class="st131" d="M284.8,373.8c14.5-6.1,30.5-10.6,45.9-7.5c9.9,2,52.6,10.9,52.6,10.9s-1.3,39.5-0.4,41.5
			c4.5,10.2-87.1,17.6-87.1,17.6S276.4,377.4,284.8,373.8z"/>
		<path class="st132" d="M327.7,432.8c0,0-15.1-51.1-16.5-51.5c-1.5-0.3-32-10.3-32-10.3s32.1,62.7,33.1,62.8
			C313.5,433.8,327.7,432.8,327.7,432.8z"/>
		<path class="st133" d="M308,448.2l-71.7-132.1l6.1-3.3l11.2-6l71.7,132.1c2,3.6,1.5,7.8-1,10.8c-0.8,1-1.8,1.9-3,2.5
			C316.6,454.7,310.6,452.9,308,448.2z"/>
		<path class="st134" d="M314,444.6l-51.3-95l8.9-9.8l53.7,98.9c2,3.6,1.5,7.8-1,10.8C320.3,450.3,316.1,448.5,314,444.6z"/>
		<polygon class="st133" points="281,387.5 294.7,382.5 289.5,372.7 269.1,362.4 265.9,368 		"/>
		<path class="st135" d="M251,346.7l18.4-10c2.2-1.2,3.1-4,1.8-6.2l-3.4-6.3c-1.2-2.2-4-3.1-6.2-1.8l-18.4,10
			c-2.2,1.2-3.1,4-1.8,6.2l3.4,6.3C246,347.1,248.8,348,251,346.7z"/>
		<path class="st136" d="M270.7,336.2l-12.5,6.5c-2.1,1.2-4.8,0.3-5.9-1.7l-3.6-6.7c-1.2-2.1-0.3-4.8,1.7-5.9l0.7-0.3l6.3-3.3
			l5.5-2.9c0.1,0,0.1-0.1,0.2-0.1l0,0c2.1-1,4.6-0.2,5.8,1.8l3.6,6.7C273.6,332.3,272.8,335,270.7,336.2z"/>
		<path class="st137" d="M275.1,230.3c-4.5-8-10.5-14.8-17.4-20c-20.6-15.8-49.5-18.7-73.6-5c-32,18.2-43.3,58.9-25,91
			c4.5,8,10.5,14.7,17.3,20c20.7,15.9,49.7,18.9,73.8,5.2C282.2,303.1,293.5,262.3,275.1,230.3z M244.3,311.3
			c-19.8,11.2-43.8,8.8-60.8-4.2c-5.6-4.3-10.5-9.8-14.2-16.4c-14.9-26.5-5.8-60.2,20.7-75.1c19.8-11.2,43.5-8.9,60.6,4.1
			c5.7,4.4,10.7,9.9,14.4,16.5C280.1,262.5,270.7,296.2,244.3,311.3z"/>
		<path class="st132" d="M245.9,388.9L245.9,388.9c0,0.8,0.1,1.5,0.2,2.2c1.1,4.6,5.6,7.4,10.2,6.4l20.1-4.6c3.9-0.9,6.5-4.2,6.6-8
			c0-0.7-0.1-1.5-0.2-2.2c0,0,0,0,0-0.1c-1.1-4.5-5.6-7.4-10.2-6.4l-20.1,4.6C248.7,381.8,246,385.1,245.9,388.9z"/>
		<path class="st131" d="M245.9,388.9c1.1,4.5,5.6,7.4,10.2,6.3l20.1-4.6c3.8-0.8,6.4-4.2,6.6-7.9c-1.1-4.5-5.6-7.4-10.2-6.4
			l-20.1,4.6C248.7,381.8,246,385.1,245.9,388.9z"/>
		<path class="st132" d="M260.9,403L260.9,403c0,0.7,0.1,1.5,0.2,2.2c1.1,4.6,5.6,7.5,10.3,6.4l22.5-5.1c3.9-0.9,6.5-4.3,6.7-8.1
			c0-0.7-0.1-1.5-0.2-2.2c-0.1-0.2-0.1-0.3-0.1-0.5c-1.2-4.3-5.7-7-10.1-6l-22.5,5.1C263.7,395.8,261.1,399.2,260.9,403z"/>
		<path class="st131" d="M260.9,403c1.3,4.3,5.7,6.9,10.1,5.9l22.5-5.1c3.9-0.9,6.5-4.2,6.7-8c-1.2-4.3-5.7-7-10.1-6l-22.5,5.1
			C263.7,395.8,261.1,399.2,260.9,403z"/>
		<path class="st132" d="M273.2,416.9c0,0.5,0,1,0.1,1.5c0.1,0.2,0.1,0.3,0.1,0.4c1,4.1,5.1,6.7,9.2,5.8l19.2-4.4
			c3.5-0.8,5.9-3.9,6-7.3c0-0.6-0.1-1.3-0.2-2c-0.1-0.4-0.3-0.9-0.4-1.3c-1.5-3.3-5.1-5.3-8.8-4.4l-19.2,4.4
			C275.7,410.5,273.3,413.5,273.2,416.9z"/>
		<path class="st131" d="M273.2,416.9c0,0.5,0,1,0.1,1.5c1.5,3.4,5.1,5.3,8.8,4.5l19.2-4.4c3.5-0.8,5.9-3.9,6-7.3c0-0.5,0-1-0.1-1.6
			c-1.5-3.3-5.1-5.3-8.8-4.4l-19.2,4.4C275.7,410.5,273.3,413.5,273.2,416.9z"/>
		<path class="st132" d="M283.6,430.4l0.2,1c0,0.2,0.1,0.3,0.1,0.4c0.7,3.4,4,5.8,7.5,5.3l19.1-2.7c3.6-0.5,6.2-3.9,5.7-7.5l-0.2-1
			c-0.1-0.9-0.4-1.7-0.9-2.5c-1.3-2.2-3.9-3.6-6.7-3.2l-19.1,2.7C285.6,423.4,283.1,426.8,283.6,430.4z"/>
		<path class="st131" d="M283.6,430.4l0.2,1c0,0.2,0.1,0.3,0.1,0.4c1.3,2.2,3.9,3.6,6.7,3.2l19.1-2.7c3.6-0.5,6.2-3.9,5.7-7.5
			l-0.2-1c0-0.2-0.1-0.3-0.1-0.4c-1.3-2.2-3.9-3.6-6.7-3.2l-19.1,2.7C285.6,423.4,283.1,426.8,283.6,430.4z"/>
		<path class="st131" d="M345.7,389.9L299,377.1l-20.6-6.9c-6.9-1.9-10.5-6.3-11-13.4c0-0.2,0-0.4,0-0.6c0-0.8,0.2-1.7,0.6-2.3
			c0.7-1.5,2.3-1.8,4.1-1.6c1.1,0.1,2.1,0.3,3.1,0.6l7.1,2.4l11.9,4.1l38.8,7.4L345.7,389.9z"/>
		<g class="st138">
			<path class="st139" d="M269.8,379.9l3.4-0.9c0.4-0.1,0.8-0.2,1.2-0.2c2.2,0,4,1.5,4.5,3.6c0.6,2.5-1,5-3.4,5.5l-3.6,0.9
				L269.8,379.9z"/>
		</g>
		<g class="st138">
			<path class="st139" d="M287.8,393.7l3.3-0.9c0.4-0.1,0.8-0.2,1.2-0.2c2.1,0,3.9,1.4,4.4,3.5c0.6,2.4-1,4.8-3.4,5.4l-3.5,0.8
				L287.8,393.7z"/>
		</g>
		<g class="st138">
			<path class="st139" d="M296.4,408.9l3.1-0.8c0.4-0.1,0.7-0.2,1.1-0.2c2,0,3.7,1.3,4.2,3.1c0.3,1,0.1,2.1-0.4,3
				c-0.6,1-1.6,1.6-2.7,1.9l-3.4,0.8L296.4,408.9z"/>
		</g>
		<g class="st138">
			<path class="st139" d="M305.4,423.4l3-0.6c0.2-0.1,0.5-0.1,0.7-0.1c2,0,3.7,1.5,4,3.4c0.3,2.2-1.2,4.2-3.4,4.5l-3.2,0.5
				L305.4,423.4z"/>
		</g>
		<g>
			<path class="st140" d="M282.4,355.3c0,0.1,0,0.1-0.1,0.2l-1.5,4c-0.1,0.2-0.3,0.4-0.6,0.4c-0.1,0-0.1,0-0.2-0.1
				c-2-0.6-6.7-2.2-7.9-4.9c-0.4-0.8-0.4-1.7-0.1-2.6c0-0.1,0.1-0.1,0.1-0.1c0.3-0.6,2,0.1,3.1,0.6L282.4,355.3z"/>
		</g>
		<path class="st132" d="M266.8,356.7c0,0.1,0,0.1,0,0.2c0.5,7,3.7,11.2,12.9,14.9l31.4,13c0.1,0,7.1-4,7.2-4.1
			c0-0.7-39.5-12.1-45.7-16.4c-8.4-5.8-3.5-12.6-3.6-11.6C267.3,353.3,267,355.6,266.8,356.7z"/>
		<path class="st132" d="M323.1,391.8l-11.5-9.7l11.3,52.7l62.4-8.9l-2.1-50.8h-8.4l-2.6,24.5C372.3,399.6,348.4,412.6,323.1,391.8z
			"/>
		
			<rect x="356.5" y="393" transform="matrix(3.211038e-02 -0.9995 0.9995 3.211038e-02 -28.4174 774.8106)" class="st20" width="58.6" height="18.1"/>
		<polygon class="st141" points="390,441 466.9,443.8 466.9,375.2 392.2,372.5 		"/>
		<polygon class="st23" points="390.3,435.4 466.9,438.2 466.9,375.3 392.3,372.5 		"/>
	</g>
</g>
</svg>
