<svg version="1.1" id="Layer_1" xmlns="http://www.w3.org/2000/svg" xmlns:xlink="http://www.w3.org/1999/xlink" x="0" y="0" viewBox="0 0 500 500" style="enable-background:new 0 0 500 500" xml:space="preserve"><style>.st0{fill:#e8e8e8}.st1{fill:#f4e3ff}.st5{opacity:.3;fill:#405ea7;enable-background:new}.st9{fill:#f2c9b9}.st11{fill:#ee9395}.st12{fill:#b53d2b}.st13{fill:#25255c}.st14{fill:#9c2364}.st17{fill:#f3cebf}.st18{fill:#eaa6a6}.st19{opacity:.56;fill:#e37070;enable-background:new}.st20{fill:#fff}.st21,.st22{opacity:.71;fill:#5781ea;enable-background:new}.st22{opacity:.61;fill:#c5bede}.st23{fill:#3861e5}.st24,.st25{opacity:.71;fill:#ddd8eb;enable-background:new}.st25{opacity:.58;fill:#c5bede}.st26{fill:#186d6b}.st27{fill:#191919}.st28{fill:#262969}.st31{fill:#ed5970}.st33{fill:#df2d86}.st34{fill:#e9acaf}.st41{fill:#b44735}.st42{opacity:.17;fill:#3f5ea7;enable-background:new}.st43{fill:#5d4298}.st48{opacity:.47;fill:#e37070;enable-background:new}.st49{fill:#1d2e58}.st53{fill:#e37070}.st54{fill:#17162c}.st67{fill:#f1807f}.st69{fill:#ee9978}.st70,.st73{opacity:.55;fill:#e37070;enable-background:new}.st73{opacity:.36}.st74{fill:none;stroke:#b6385f;stroke-width:2;stroke-linecap:round;stroke-linejoin:round;stroke-miterlimit:10}.st76{fill:#b63350}.st80{fill:#aeafaf}.st81{fill:#bbb9ba}.st92{fill:#626262}.st109{fill:#8b8a9d}.st123{fill:#1c82c4}.st124{fill:#ee708c}.st125{fill:#041e41}.st127{fill:#9dbfc1}.st129{fill:#c1e5e5}.st131{fill:#ffc7b0}.st132{fill:#f4a891}.st133{fill:#8e3e33}.st138{opacity:.63}.st139{fill:#ffe0d2}</style><path class="st0" d="M64.1 152.2h39.3v5.1H64.1zM64.4 163h79.9v2.3H64.4z"/><path class="st0" d="M144.1 163.3v1.7H64.7v-1.7h79.4zm.5-.6H64.1v2.9h80.6v-2.9h-.1zM64.4 170.4h79.9v2.3H64.4z"/><path class="st0" d="M144.1 170.6v1.7H64.7v-1.7h79.4zm.5-.5H64.1v2.9h80.6v-2.9h-.1zM64.4 177.7h51.5v2.3H64.4z"/><path class="st0" d="M115.7 178v1.7h-51V178h51zm.5-.5H64v2.9h52.1V178l.1-.5zM173 152.2h32.2v5.1H173zM173.2 163h48.2v2.3h-48.2z"/><path class="st0" d="M221.2 163.3v1.7h-47.7v-1.7h47.7zm.6-.6H173v2.9H221.9v-2.3l-.1-.6zM173.2 170.4h74v2.3h-74z"/><path class="st0" d="M247 170.6v1.7h-73.4v-1.7H247zm.5-.5H173v2.9h74.6v-2.9h-.1zM173.2 177.7h51.5v2.3h-51.5z"/><path class="st0" d="M224.5 178v1.7h-50.9V178h50.9zm.5-.5h-52v2.9h52.1v-2.9h-.1zM289 152.2h56.3v5.1H289zM289.3 163h68.3v2.3h-68.3z"/><path class="st0" d="M357.3 163.3v1.7h-67.7v-1.7h67.7zm.6-.6H289v2.9H357.9v-2.9zM289.3 170.4h68.4v2.3h-68.4z"/><path class="st0" d="M357.5 170.6v1.7h-67.9v-1.7h67.9zm.6-.5H289v2.9H358v-2.3l.1-.6zM289.3 177.7h33.6v2.3h-33.6z"/><path class="st0" d="M322.7 178v1.7h-33.1V178h33.1zm.6-.5H289v2.9H323.3v-2.9zM173 344.2h39.3v5.1H173zM173.2 355h79.9v2.3h-79.9z"/><path class="st0" d="M252.9 355.3v1.7h-79.4v-1.7h79.4zm.5-.6H173v2.9H253.5v-2.3l-.1-.6zM173.2 362.4h79.9v2.3h-79.9z"/><path class="st0" d="M252.9 362.7v1.7h-79.4v-1.7h79.4zm.5-.6H173v2.9H253.5v-2.3l-.1-.6zM173.2 369.8h51.5v2.3h-51.5z"/><path class="st0" d="M224.5 370v1.7h-50.9V370h50.9zm.5-.5h-52v2.9h52.1v-2.9h-.1zM64.1 344.2h52.2v5.1H64.1zM64.4 355h48.7v2.3H64.4z"/><path class="st0" d="M112.8 355.3v1.7H64.7v-1.7h48.1zm.6-.6H64.1v2.9H113.4v-2.9zM64.4 362.4h48.7v2.3H64.4z"/><path class="st0" d="M112.8 362.7v1.7H64.7v-1.7h48.1zm.6-.6H64.1v2.9H113.4v-2.9zM64.4 369.8h31.5v2.3H64.4z"/><path class="st0" d="M95.6 370v1.7H64.7V370h30.9zm.6-.5H64.1v2.9h32.1v-2.9zM287.8 344.2h52v5.1h-52zM289.2 355h55.6v2.3h-55.6z"/><path class="st0" d="M344.4 355.3v1.7h-55v-1.7h55zm.6-.6h-56.2v2.9H345v-2.9zM289.2 362.4h55.6v2.3h-55.6z"/><path class="st0" d="M344.4 362.7v1.7h-55v-1.7h55zm.6-.6h-56.2v2.9H345v-2.9zM288.3 370h50.9v1.7h-50.9z"/><path class="st1" d="M139.9 144.3H75.3c-7.6 0-13.7-6.1-13.7-13.7V41.8c0-7.6 6.1-13.7 13.7-13.7h64.6c7.6 0 13.7 6.1 13.7 13.7v88.7c0 7.6-6.1 13.8-13.7 13.8z"/><defs><path id="SVGID_1_" d="M139.9 144H75.3c-7.6 0-13.7-6.1-13.7-13.7V41.5c0-7.6 6.1-13.7 13.7-13.7h64.6c7.6 0 13.7 6.1 13.7 13.7v88.7c0 7.6-6.1 13.8-13.7 13.8z"/></defs><clipPath id="SVGID_2_"><use xlink:href="#SVGID_1_" style="overflow:visible"/></clipPath><g style="clip-path:url(#SVGID_2_)"><linearGradient id="SVGID_3_" gradientUnits="userSpaceOnUse" x1="129.866" y1="-252.659" x2="80.46" y2="-252.659" gradientTransform="translate(0 402)"><stop offset=".488" style="stop-color:#f6a94a"/><stop offset="1" style="stop-color:#fbc079"/></linearGradient><path d="M123.8 144.7c2.3 4.4 6.1 18.8 6.1 18.8H80.5s.3-10.1 7.7-19.3c5.8-7.2 7.6-7.9 7.6-7.9l21.3-1.1c-.1 0 4.4 5.1 6.7 9.5z" style="fill:url(#SVGID_3_)"/><linearGradient id="SVGID_4_" gradientUnits="userSpaceOnUse" x1="126.96" y1="-272.444" x2="82.36" y2="-272.444" gradientTransform="translate(0 402)"><stop offset=".488" style="stop-color:#f6a94a"/><stop offset="1" style="stop-color:#fbc079"/></linearGradient><path d="M87.1 118.9s9.7-3.2 19.2-3.2 17.2 1.5 17.2 1.5l3.5 12.4c-.3 2.3-3.1 10.2-5.3 12.7l-32.9 1.3-6.4-13.6 4.7-11.1z" style="fill:url(#SVGID_4_)"/><path class="st5" d="m84.3 134.4 2.7 6.9c-1.2 1.5-.1 3.4-3 8.8-1.6 3-2.7 5.3-3.5 10.1.7 0 .8.5 1.6.5 10.2 0 20.3-6.9 20.3-6.9 5 1 19.8 6 27.4 7-.1-.4-1.3-4.1-1.5-4.4-1.8-5.6-4.9-11.8-6.8-15.6h.6c2.1-2.5 4.2-8.3 4.6-10.4l-3-10.6s2.6 9.2-1.3 12c-5.3 3.9-3.1 11.7-3.1 11.7l-26.5 3.1-2.2-10.1s-3.9-4-2.2-14.9l-4.1 12.8z"/><linearGradient id="SVGID_5_" gradientUnits="userSpaceOnUse" x1="143.838" y1="-278.424" x2="69.296" y2="-278.424" gradientTransform="translate(0 402)"><stop offset=".488" style="stop-color:#f6a94a"/><stop offset="1" style="stop-color:#fbc079"/></linearGradient><path d="M143.8 142.5c-4.7-2.9-9.5-4-14.9-3.6l-5.5-21.9-36.3 1.8s-.3 3.2-2 9.8c-1.5 5.9-1.6 11.8-1.6 13-2.2 2.9-5.6 7.6-7.7 12.4l-1.2-.3c-11.3-3.4-1.6-36.5 2.3-46.3 3.9-9.8 15-9.8 23.4-14.3l14.4 2s5 2.2 13 6c7.5 3.6 16.1 41.4 16.1 41.4z" style="fill:url(#SVGID_5_)"/><path d="M101.9 54.7c-.6-2.1-.8-1.6-4.9-3.2-4.1-1.6-2.6-6.5 1.5-6.3 3.4.1 1.8-4 4.9-5.4 3.2-1.4 3.9 1.7 5.5 1.6 1.6-.2 1.1-4.4 5.5-3.7 3.2.5 3 3.2 2.7 5.1-.2 1.9 3.4.4 4.2 3.2.8 2.7-2.8 3.4-3 5.9-.2 2.5-1.7 3.8-1.7 3.8l-14.7-1z" style="fill:#db157c"/><linearGradient id="SVGID_6_" gradientUnits="userSpaceOnUse" x1="110.954" y1="-320.383" x2="110.954" y2="-351.366" gradientTransform="translate(0 402)"><stop offset="0" style="stop-color:#da707e"/><stop offset="1" style="stop-color:#dc157d"/></linearGradient><path d="M96.1 74.6c-2.2-2.4-4.1-6.5-1.6-9.9.5-.7.7-1.5.5-2.3-.3-1.3-.3-3.5 1.6-5.3 1.2-1.1 2.5-1.6 3.5-1.7 1-.2 1.7-.7 2.2-1.6.7-1.2 1.9-2.6 4-3 3.6-.7 6.3 3.3 6.3 3.3s4.7-4.7 10-1c3.5 2.5 3.3 6 2.8 8.2-.3 1.1.1 2.3 1 3 1.3 1.2 2.8 3.2 2.2 6.7-1 5.6-3.1 10.7-11.7 10.7-8.9-.1-20.8-7.1-20.8-7.1z" style="fill:url(#SVGID_6_)"/><path class="st9" d="m104 77.2-3.7 16s-9.7 18.3 5.6 19.6c16.2 1.4 8.8-17.6 8.8-17.6l3-16.6-13.7-1.4z"/><linearGradient id="SVGID_7_" gradientUnits="userSpaceOnUse" x1="108.688" y1="-317.308" x2="106.204" y2="-289.356" gradientTransform="translate(0 402)"><stop offset="0" style="stop-color:#ecbba0"/><stop offset="1" style="stop-color:#fff"/></linearGradient><path d="m103.1 81.8-2.7 11.3s-9.7 18.3 5.6 19.6c16.2 1.4 8.8-17.6 8.8-17.6l2-11.9-13.7-1.4z" style="opacity:.72;fill:url(#SVGID_7_);enable-background:new"/><path class="st5" d="M103.4 80.3c1.7 3.4 4.4 5.6 8 5.6 2.1 0 4-.8 5.5-2.1l1-5.1-13.7-1.5-.8 3.1z"/><path class="st11" d="M119.5 79.8c2.6.1 4.8-1.9 4.9-4.5.1-2.6-1.9-4.8-4.5-4.9l-.4 9.4z"/><path class="st12" d="M119.6 77.5c1.4.1 2.5-1 2.6-2.3.1-1.4-1-2.5-2.3-2.6l-.3 4.9z"/><path class="st9" d="M121 74.1c0 8.2-5.7 15.3-10.2 14.9s-10.2-6.7-10.2-14.9 2.8-15 10-15c7.8 0 10.4 6.9 10.4 15z"/><circle class="st11" cx="105.1" cy="77.1" r="2.3"/><circle class="st11" cx="118" cy="76.9" r="2.3"/><circle class="st13" cx="105.5" cy="72.2" r=".6"/><circle class="st13" cx="117.1" cy="72.3" r=".6"/><path class="st14" d="M103.1 69.9c.3-.3.7-.6 1.1-.8.4-.2.8-.3 1.3-.3.4-.1.9 0 1.3.1s.8.3 1.1.7c-.4-.1-.8-.1-1.2-.1s-.8 0-1.2.1c-.4.1-.8.1-1.2.1-.4 0-.8.1-1.2.2zM114.6 69.7c.3-.3.7-.6 1.1-.8.4-.2.8-.3 1.3-.3s.9 0 1.3.1.8.3 1.1.7c-.4-.1-.8-.1-1.2-.1-.4 0-.8 0-1.2.1-.4.1-.8.1-1.2.1-.5 0-.9.1-1.2.2z"/><path class="st11" d="M101.3 80c-2.6.1-4.8-1.9-4.9-4.5-.1-2.6 1.9-4.8 4.5-4.9l.4 9.4z"/><path class="st12" d="M101.1 77.8c-1.4.1-2.5-1-2.6-2.3-.1-1.4 1-2.5 2.3-2.6l.3 4.9z"/><linearGradient id="SVGID_8_" gradientUnits="userSpaceOnUse" x1="111.142" y1="-330.373" x2="111.142" y2="-344.631" gradientTransform="translate(0 402)"><stop offset="0" style="stop-color:#da707e"/><stop offset="1" style="stop-color:#dc157d"/></linearGradient><path d="M99.2 70.6c1.6 1.2 2.8 1.2 3.4.7s1.3-6.4 3.9-8.5c2.6-2.1 6.4-2.7 6.4-2.7s1.7 5.1 5 8c3.3 3 5.1 3 5.1 3s-.4-14-12.3-13.8c-11.9.3-11.5 13.3-11.5 13.3z" style="fill:url(#SVGID_8_)"/><path class="st9" d="M143.8 142.5c1.2 6.9-3.7 10.2-9.9 10.2s-37.2-3-37.2-3l18.1-10.3 14.5-.6s4.1-.7 8.2.7c4.3 1.3 6.3 3 6.3 3z"/><linearGradient id="SVGID_9_" gradientUnits="userSpaceOnUse" x1="105.067" y1="-257.107" x2="137.809" y2="-256.212" gradientTransform="translate(0 402)"><stop offset="0" style="stop-color:#ecbba0"/><stop offset="1" style="stop-color:#fff"/></linearGradient><path d="M143.8 142.5c1.2 6.9-3.7 10.2-9.9 10.2s-37.2-3-37.2-3l18.1-10.3 14.5-.6s4.1-.7 8.2.7c4.3 1.3 6.3 3 6.3 3z" style="opacity:.72;fill:url(#SVGID_9_);enable-background:new"/><path class="st5" d="M96.7 149.7s4 .4 9.4.9c2.8-3.9 9.8-7.8 13.8-8.9 4.2-1.1 9.4-2.8 9.4-2.8l-14.5.6-18.1 10.2z"/><path class="st17" d="M129 138.9s-8.9-.6-21.7 7.7c-12.2 7.9-20.8 10.3-31.5 7.5 2.2-6.8 4.6-9.6 7.7-12.4v.2s12.7-1.5 26.5-4.5 19 1.5 19 1.5z"/><path class="st18" d="m110.8 75.1-.7 3.9 1.5.4 1.2-.3-.7-4z"/><path class="st19" d="M111.9 79.2c-.1-.2.1-.3.2-.4.2-.1.3.1.4.2l-.6.2zM111 79.2c.1-.2-.1-.3-.2-.4-.2-.1-.3.1-.4.2l.6.2z"/><path class="st11" d="M115.5 82.1c-.1 1.1-2 2.5-4.2 2.5-2.3-.1-4.1-1.7-4.1-2.7 0-1.1 1.9-.8 4.2-.8 2.3 0 4.2-.3 4.1 1z"/><path class="st20" d="M115.3 81.9c-.1.6-1.8 1.5-4 1.4s-3.9-1-3.9-1.6c-.1-.7 1.8.1 3.9.2 2.1 0 4-.6 4 0z"/></g><path class="st21" d="M364.9 144h-64.6c-7.6 0-13.7-6.1-13.7-13.7V41.6c0-7.6 6.1-13.7 13.7-13.7h64.6c7.6 0 13.7 6.1 13.7 13.7v88.6c0 7.6-6.1 13.8-13.7 13.8z"/><path class="st9" d="M340.3 85.6c-.1-.2-.2-.5-.3-.8-.9-3.2-.4-21.5-.4-21.5l-14.3.5s-.2 18-.6 20.9c-.1.4-.2.9-.5 1.3l16.1-.4z"/><path class="st22" d="m340.5 61-14.9.6s-.1 4.8-.2 10.5c1.1 2.7 3.4 7 7.4 6.9 4.6-.1 6-4.1 7.4-6.4 0-6.1.3-11.6.3-11.6z"/><path class="st9" d="M329.3 61.4c-.2 2.9-2.7 5-5.6 4.9-2.9-.2-5-2.7-4.9-5.6.2-2.9 2.7-5 5.6-4.9 2.9.3 5 2.8 4.9 5.6z"/><path class="st11" d="M326.8 61.3a2.808 2.808 0 0 1-5.6-.4c.1-1.5 1.4-2.7 3-2.6 1.6.2 2.7 1.5 2.6 3z"/><path class="st23" d="M320.8 59.8c-2.4-2.1-3-9.6 1.5-12.6 1.6-1.1 3.7-1.5 4.2-3.1.8-3.1 5.5-5.3 8.9-3.6 4.4 2.2 6.6.5 9.1-2.1 2.7-2.8 4.4-5.7 12-4.4 7.5 1.3 9.8.4 11.2-3.1 1.4-3.6 8.3-6.5 14.7-2.1 6.4 4.5 8.4 8 12.7 6.4s8.7-4.1 12.5-.1c3.8 4 .7 11.8-4.3 11.7-5-.1-2.5 5.9-1.2 9.4 1.3 3.6-2.3 9-8.7 6.8-6.3-2.2-7.7-.4-9.7 2.9-2.1 3.3-7.4 3.1-10.1 1.2s-5.8-3.5-9.5-1.2-5 3.7-9.4 1.9-5.3-1.2-7.8.2c-2.5 1.3-7.5-.6-7.5-.6l-18.6-7.6z"/><path class="st24" d="m333.4 62.1-.3-3.9 14.6 1c5.9-3.4 7.3-3.4 11.9-2.2s4-4.2 8.9-5.9c4.9-1.6 5.8 2.7 10.3 2.6 4.5-.1 3.1-4.6 8.9-4.2 5.4.3 6 4.4 13.6 4.2.3.9.6 1.7 1 2.5 1.3 3.6-2.3 9-8.7 6.8-6.3-2.2-7.7-.4-9.7 2.9-2.1 3.3-7.4 3.1-10.1 1.2-2.6-2-5.8-3.5-9.5-1.2s-5 3.7-9.4 1.9c-4.4-1.8-5.1-1.4-7.6-.1-2.5 1.3-7.4.2-7.4.2l-6.5-5.8z"/><path class="st9" d="M337.2 61.4c.2 2.9 2.7 5 5.6 4.9 2.9-.2 5-2.7 4.9-5.6-.2-2.9-2.7-5-5.6-4.9-2.9.3-5.1 2.8-4.9 5.6z"/><path class="st11" d="M339.7 61.3a2.808 2.808 0 0 0 5.6-.4c-.1-1.5-1.4-2.7-3-2.6-1.6.2-2.7 1.5-2.6 3z"/><path class="st9" d="M323.4 63.3c.5 7.3 3.1 12.6 10.5 12.5 4.7-.1 8.6-5.3 8.6-12.6-.1-7.7-1.7-13.9-10.4-13.9-8.5.1-9.2 6.6-8.7 14z"/><path class="st11" d="M336.3 67.4c.1 1.3 1.2 2.2 2.5 2.1 1.3-.1 2.2-1.2 2.1-2.5s-1.2-2.2-2.5-2.1c-1.2.2-2.2 1.3-2.1 2.5z"/><circle class="st11" cx="327.2" cy="67.2" r="2.3"/><path class="st25" d="M347.5 62.4c-4.2 1.7-6.3.2-8.2-.9-2-1.1-1.7-6.5-4.6-7.4-2.9-.9-3.6 1.4-6.7.6-3.6-1-4.4 1.2-4.4 1.2s-.1-2.7 5.3-4.6c5.4-1.9 11.5-2 14.6 1.3 1.1 1.1 1 2.7 2.2 3.8 2.8 2.7 1.8 6 1.8 6z"/><path class="st26" d="M340.4 61.3c-.2-.1-.5-.1-.7-.2-.2-.1-.4-.1-.7-.1-.4-.1-1-.1-1.4-.1s-.9.1-1.3.2-.9.2-1.3.4c-.1.1-.2 0-.2-.1-.1-.1 0-.2.1-.2.4-.4.8-.7 1.3-.8.5-.2 1-.3 1.6-.3.5 0 1.1.1 1.6.2.2.1.5.2.7.3.2.1.4.2.7.3.1.1.1.2.1.3-.3.1-.4.1-.5.1z"/><path class="st27" d="M336.4 63.2c.3.1.6.1 1 .2.3.1.6.1.9.1s.6-.1.9-.1.6-.2.8-.3c.1-.1.2 0 .2.1v.2c-.5.6-1.2.7-1.9.8-.3 0-.7-.1-1-.2-.2-.1-.3-.1-.5-.2s-.3-.2-.4-.2c-.1-.1-.1-.1-.1-.2 0-.2 0-.2.1-.2zM326.1 63.2c.3.1.6.1 1 .2.3.1.6.1.9.1s.6-.1.9-.1.6-.2.8-.3c.1-.1.2 0 .2.1v.2c-.5.6-1.2.7-1.9.8-.3 0-.7-.1-1-.2-.2-.1-.3-.1-.5-.2s-.3-.2-.4-.2c-.1-.1-.1-.1-.1-.2 0-.2.1-.2.1-.2z"/><path class="st26" d="M330.8 60.8c-.2 0-.4-.1-.7-.1s-.4-.1-.6-.1c-.4-.1-.8-.1-1.2-.1-.4 0-.8 0-1.2.1l-1.2.3h-.1c-.1.1-.2 0-.2-.1s0-.2.1-.2c.3-.4.8-.6 1.2-.7.4-.2 1-.2 1.4-.2.4 0 1 .1 1.4.2.2.1.4.2.7.2l.6.3c.1.1.1.2.1.3-.1 0-.2.1-.3.1z"/><path class="st11" d="M329.6 70.5c0 .3 1.1.6 2.5.6 1.3 0 2.4-.3 2.5-.7 0-.4-1.1.1-2.5.1s-2.5-.5-2.5 0z"/><path class="st28" d="M322.8 70.9c-.2 0-.3-.1-.3-.3v-5.5c0-.2.1-.3.3-.3s.3.1.3.3v5.5c-.1.2-.2.3-.3.3zM343.1 71.2c-.2 0-.3-.1-.3-.3v-5.5c0-.2.1-.3.3-.3s.3.1.3.3v5.5c0 .1-.1.3-.3.3z"/><path d="M347.6 59.2c-4.2 1.7-5.9 2.2-7.9 1.1s-1.7-6.5-4.6-7.4c-2.9-.9-3.6 1.7-6.7 1.3-3.4-.4-4.9 1.1-4.9 1.1s-1.1-5 4.2-7c5.4-1.9 13.1-.2 16.3 3.1 3.1 3.4 3.6 7.8 3.6 7.8z" style="fill:#2eb8d0"/><path class="st18" d="m332.4 64.5-.7 3.6 1.4.4 1.1-.3-.6-3.8z"/><path class="st19" d="M333.4 68.2c-.1-.2.1-.3.2-.3.2-.1.3.1.3.2l-.5.1zM332.6 68.2c.1-.2-.1-.3-.2-.3-.2-.1-.3.1-.3.2l.5.1z"/><defs><path id="SVGID_10_" d="M364.9 143.7h-64.6c-7.6 0-13.7-6.1-13.7-13.7V41.3c0-7.6 6.1-13.7 13.7-13.7h64.6c7.6 0 13.7 6.1 13.7 13.7v88.6c0 7.6-6.1 13.8-13.7 13.8z"/></defs><clipPath id="SVGID_11_"><use xlink:href="#SVGID_10_" style="overflow:visible"/></clipPath><g style="clip-path:url(#SVGID_11_)"><path class="st9" d="M340 84.8c-.9-3.2-.4-21.5-.4-21.5l-14.3.5s-.2 18-.6 20.9c-.4 2.9-5.3 4-11.1 7-.8.4-1.7 1.3-2.5 2 1 2.1 20.2 9.1 21.6 11 1.5 2 15.8-8.6 17.5-13.2-6.7-3.7-9.4-3.6-10.2-6.7z"/><path class="st9" d="M340.3 85.6c-.1-.2-.2-.5-.3-.8-.9-3.2-.4-21.5-.4-21.5l-14.3.5s-.2 18-.6 20.9c-.1.4-.2.9-.5 1.3l16.1-.4z"/><path class="st22" d="m340.5 61-14.9.6s-.1 4.8-.2 10.5c1.1 2.7 3.4 7 7.4 6.9 4.6-.1 6-4.1 7.4-6.4 0-6.1.3-11.6.3-11.6z"/><path class="st9" d="M329.3 61.4c-.2 2.9-2.7 5-5.6 4.9-2.9-.2-5-2.7-4.9-5.6.2-2.9 2.7-5 5.6-4.9 2.9.3 5 2.8 4.9 5.6z"/><path class="st11" d="M326.8 61.3a2.808 2.808 0 0 1-5.6-.4c.1-1.5 1.4-2.7 3-2.6 1.6.2 2.7 1.5 2.6 3z"/><path class="st23" d="M320.8 59.8c-2.4-2.1-3-9.6 1.5-12.6 1.6-1.1 3.7-1.5 4.2-3.1.8-3.1 5.5-5.3 8.9-3.6 4.4 2.2 6.6.5 9.1-2.1 2.7-2.8 4.4-5.7 12-4.4 7.5 1.3 9.8.4 11.2-3.1 1.4-3.6 8.3-6.5 14.7-2.1 6.4 4.5 8.4 8 12.7 6.4s8.7-4.1 12.5-.1c3.8 4 .7 11.8-4.3 11.7-5-.1-2.5 5.9-1.2 9.4 1.3 3.6-2.3 9-8.7 6.8-6.3-2.2-7.7-.4-9.7 2.9-2.1 3.3-7.4 3.1-10.1 1.2s-5.8-3.5-9.5-1.2-5 3.7-9.4 1.9-5.3-1.2-7.8.2c-2.5 1.3-7.5-.6-7.5-.6l-18.6-7.6z"/><path class="st24" d="m333.4 62.1-.3-3.9 14.6 1c5.9-3.4 7.3-3.4 11.9-2.2s4-4.2 8.9-5.9c4.9-1.6 5.8 2.7 10.3 2.6 4.5-.1 3.1-4.6 8.9-4.2 5.4.3 6 4.4 13.6 4.2.3.9.6 1.7 1 2.5 1.3 3.6-2.3 9-8.7 6.8-6.3-2.2-7.7-.4-9.7 2.9-2.1 3.3-7.4 3.1-10.1 1.2-2.6-2-5.8-3.5-9.5-1.2s-5 3.7-9.4 1.9c-4.4-1.8-5.1-1.4-7.6-.1-2.5 1.3-7.4.2-7.4.2l-6.5-5.8z"/><path class="st9" d="M337.2 61.4c.2 2.9 2.7 5 5.6 4.9 2.9-.2 5-2.7 4.9-5.6-.2-2.9-2.7-5-5.6-4.9-2.9.3-5.1 2.8-4.9 5.6z"/><path class="st11" d="M339.7 61.3a2.808 2.808 0 0 0 5.6-.4c-.1-1.5-1.4-2.7-3-2.6-1.6.2-2.7 1.5-2.6 3z"/><path class="st9" d="M323.4 63.3c.5 7.3 3.1 12.6 10.5 12.5 4.7-.1 8.6-5.3 8.6-12.6-.1-7.7-1.7-13.9-10.4-13.9-8.5.1-9.2 6.6-8.7 14z"/><path class="st11" d="M336.3 67.4c.1 1.3 1.2 2.2 2.5 2.1 1.3-.1 2.2-1.2 2.1-2.5s-1.2-2.2-2.5-2.1c-1.2.2-2.2 1.3-2.1 2.5z"/><circle class="st11" cx="327.2" cy="67.2" r="2.3"/><path class="st25" d="M347.5 62.4c-4.2 1.7-6.3.2-8.2-.9-2-1.1-1.7-6.5-4.6-7.4-2.9-.9-3.6 1.4-6.7.6-3.6-1-4.4 1.2-4.4 1.2s-.1-2.7 5.3-4.6c5.4-1.9 11.5-2 14.6 1.3 1.1 1.1 1 2.7 2.2 3.8 2.8 2.7 1.8 6 1.8 6z"/><path class="st26" d="M340.4 61.3c-.2-.1-.5-.1-.7-.2-.2-.1-.4-.1-.7-.1-.4-.1-1-.1-1.4-.1s-.9.1-1.3.2-.9.2-1.3.4c-.1.1-.2 0-.2-.1-.1-.1 0-.2.1-.2.4-.4.8-.7 1.3-.8.5-.2 1-.3 1.6-.3.5 0 1.1.1 1.6.2.2.1.5.2.7.3.2.1.4.2.7.3.1.1.1.2.1.3-.3.1-.4.1-.5.1z"/><path class="st27" d="M336.4 63.2c.3.1.6.1 1 .2.3.1.6.1.9.1s.6-.1.9-.1.6-.2.8-.3c.1-.1.2 0 .2.1v.2c-.5.6-1.2.7-1.9.8-.3 0-.7-.1-1-.2-.2-.1-.3-.1-.5-.2s-.3-.2-.4-.2c-.1-.1-.1-.1-.1-.2 0-.2 0-.2.1-.2zM326.1 63.2c.3.1.6.1 1 .2.3.1.6.1.9.1s.6-.1.9-.1.6-.2.8-.3c.1-.1.2 0 .2.1v.2c-.5.6-1.2.7-1.9.8-.3 0-.7-.1-1-.2-.2-.1-.3-.1-.5-.2s-.3-.2-.4-.2c-.1-.1-.1-.1-.1-.2 0-.2.1-.2.1-.2z"/><path class="st26" d="M330.8 60.8c-.2 0-.4-.1-.7-.1s-.4-.1-.6-.1c-.4-.1-.8-.1-1.2-.1-.4 0-.8 0-1.2.1l-1.2.3h-.1c-.1.1-.2 0-.2-.1s0-.2.1-.2c.3-.4.8-.6 1.2-.7.4-.2 1-.2 1.4-.2.4 0 1 .1 1.4.2.2.1.4.2.7.2l.6.3c.1.1.1.2.1.3-.1 0-.2.1-.3.1z"/><path class="st11" d="M329.6 70.5c0 .3 1.1.6 2.5.6 1.3 0 2.4-.3 2.5-.7 0-.4-1.1.1-2.5.1s-2.5-.5-2.5 0z"/><path class="st28" d="M322.8 70.9c-.2 0-.3-.1-.3-.3v-5.5c0-.2.1-.3.3-.3s.3.1.3.3v5.5c-.1.2-.2.3-.3.3zM343.1 71.2c-.2 0-.3-.1-.3-.3v-5.5c0-.2.1-.3.3-.3s.3.1.3.3v5.5c0 .1-.1.3-.3.3z"/><path class="st23" d="M347.6 59.2c-4.2 1.7-5.9 2.2-7.9 1.1s-1.7-6.5-4.6-7.4c-2.9-.9-3.6 1.7-6.7 1.3-3.4-.4-4.9 1.1-4.9 1.1s-1.1-5 4.2-7c5.4-1.9 13.1-.2 16.3 3.1 3.1 3.4 3.6 7.8 3.6 7.8z"/><path class="st18" d="m332.4 64.5-.7 3.6 1.4.4 1.1-.3-.6-3.8z"/><path class="st19" d="M333.4 68.2c-.1-.2.1-.3.2-.3.2-.1.3.1.3.2l-.5.1zM332.6 68.2c.1-.2-.1-.3-.2-.3-.2-.1-.3.1-.3.2l.5.1z"/><path class="st31" d="M316.5 163.9c-8.7 0-11-9.2-9.1-18.7 2.2-11.1 13.2-16.4 23.5-16.4s21 6.3 23.9 17.2c2.3 8.4-.8 17.8-9.4 17.8l-28.9.1z"/><path d="M344 163.4h-28c-1.9 0-3.5-1.6-3.5-3.5v-8.7c0-1.9 1.6-3.5 3.5-3.5h28c1.9 0 3.5 1.6 3.5 3.5v8.7c0 1.8-1.6 3.5-3.5 3.5z" style="fill:#c6445e"/><path class="st33" d="M321.8 87.6s-8.7 3.2-11.8 6.4c-2.6 2.7-3.6 4.5-3.6 4.5l8.9 29H347l11.1-29s-2.4-4.4-7.8-7.4-6.9-3.2-7.5-3.6c0 0-7.7 9.4-9.7 9.6-2.2 0-11.3-9.5-11.3-9.5z"/><path class="st33" d="M332.9 97.9c2.4.1 9.3-8.7 10.3-10.1-.3-.1-.4-.2-.6-.3 0 0-7.7 9.4-9.7 9.6-2 .1-11.1-9.4-11.1-9.4s-.2.1-.7.2c1 1.1 9.4 10 11.8 10z"/><path class="st9" d="M306.5 98.5c1.3 5.1 6.4 5.7 7.2 12.4-4.4 8-8.8 20.1-8.8 20.1s17 .8 23.8 3l-.2 8h-27.7c-6.1 0-9-4.1-7-13.5 2.4-11.7 9.1-24.9 12.7-30zM357.7 98.5c-.4 5.2-8.6 8.8-7.2 12.4 3.2 8 8.3 20.3 8.3 20.3s-16.8-.4-23.1 1.5v9.3h27.7c6.1 0 9.1-4.6 6.9-13.9-2.2-9.1-6.5-21-12.6-29.6zM313.7 149.1c6.8-1 9.5 5.5 12 15.9s9 38.1 12.2 47.6c3 8.8-.5 6-2 10.8-1.4 4.4-3.6 7.7-7 7.9-2.4.1-.1-7.2 2.6-12.6-.4-5.1-5.8-15.1-14.1-33.3-8.3-17.9-8.4-20.7-8.9-26.7-.5-6.2 2.7-9.3 5.2-9.6z"/><path class="st34" d="M312.3 155c0 1.6 1.3 2.9 2.9 2.9 1.6 0 2.9-1.3 2.9-2.9 0-1.6-1.3-2.9-2.9-2.9-1.6 0-2.9 1.3-2.9 2.9zM295.2 136.2c-.6 0-1.2.2-1.7.5.6 2.6 2.1 4.2 4.2 4.9.5-.6.8-1.3.8-2.1 0-1.9-1.5-3.3-3.3-3.3zM370.5 137c-.6-.4-1.2-.6-1.9-.6-1.8 0-3.3 1.5-3.3 3.3 0 .7.2 1.4.6 2 2.3-.6 3.9-2.2 4.6-4.7z"/><path d="M337.6 148.8c6.4 0 6.3 12.6 5.9 19.4-.4 6.8-4.4 28.1-9.4 42.4-5 14.4-5.8 16.8-5.9 20.9s-4.8 4.9-7.9 4.8c-3.1-.1-3.1-.9.1-9.8s7.4-33.9 8.2-48.7c.7-14.8-2.5-29 9-29z" style="fill:#f5d6c8"/><circle class="st34" cx="336.5" cy="155.2" r="2.9"/><path class="st31" d="M307.4 154c2.7-4.5 32.4-4.5 41.4-.6l-.6-12.7-38.1.7-2.7 12.6z"/><path d="M350.6 141.7h-41.2c-1.5 0-2.6-1.2-2.6-2.6v-25.9c0-1.5 1.2-2.6 2.6-2.6h41.2c1.5 0 2.6 1.2 2.6 2.6v25.9c-.1 1.5-1.2 2.6-2.6 2.6z" style="fill:#748094"/><path d="M353.4 142.3h-46.5v-28.5c0-1.5 1.2-2.6 2.6-2.6h41.2c1.5 0 2.6 1.2 2.6 2.6v28.5h.1z" style="fill:#717171"/><path d="M353.1 142.3h-46.4v.9c0 .3.3.6.6.6h45.3c.3 0 .6-.3.6-.6v-.9h-.1z" style="fill:#464648"/><path class="st20" d="M327.5 125.6c-.7 1.1-.3 2.7.3 3.7.3.5.7 1 1.1 1 .2 0 .4-.1.6-.1s.3-.1.6-.1.4.1.6.2c.2.1.3.2.6.2.5 0 .9-.4 1.2-.8.3-.4.5-.8.6-1 0-.1 0-.1-.1-.1-.1-.1-.9-.4-.9-1.4 0-.8.7-1.2.8-1.3v-.2c-.4-.6-1.1-.8-1.3-.8h-.1c-.3 0-.6.1-.8.2-.2.1-.3.1-.4.1-.1 0-.3-.1-.4-.1-.2-.1-.4-.2-.7-.2-.7-.2-1.3.2-1.7.7zM331.7 123.1c-.4 0-.8.2-1.1.5-.2.3-.5.7-.4 1.1 0 .1 0 .1.1.1h.1c.4 0 .8-.2 1.1-.5.1-.3.3-.8.2-1.2.1 0 .1 0 0 0z"/></g><path d="M251.3 144.3h-64.6c-7.6 0-13.7-6.1-13.7-13.7V41.8c0-7.6 6.1-13.7 13.7-13.7h64.6c7.6 0 13.7 6.1 13.7 13.7v88.8c.1 7.5-6.1 13.7-13.7 13.7z" style="fill:#ffd0a1"/><defs><path id="SVGID_12_" d="M251.3 144.3h-64.6c-7.6 0-13.7-6.1-13.7-13.7V41.8c0-7.6 6.1-13.7 13.7-13.7h64.6c7.6 0 13.7 6.1 13.7 13.7v88.8c.1 7.5-6.1 13.7-13.7 13.7z"/></defs><clipPath id="SVGID_13_"><use xlink:href="#SVGID_12_" style="overflow:visible"/></clipPath><g style="clip-path:url(#SVGID_13_)"><path class="st41" d="m192.3 134.3-1.1 15.5h8.8l.7-16.4z"/><path class="st42" d="m191.9 140.2.4-5.9 8.4-.9-.2 5.6c0 .1-5.2.7-8.6 1.2z"/><path class="st41" d="M266.6 131c2 6.9 4.4 18.9 4.4 18.9h-18.5l-3.7-10.7 17.8-8.2z"/><path class="st42" d="m248.8 139.1 17.8-8.2c.4 1.3.8 2.9 1.2 4.5-5.8 2.9-19 3.7-19 3.7z"/><path class="st43" d="M188.5 134s2 1.1 5.4 1.7c3.4.6 5.5.4 5.5.4l.6 13.6h49.1l-.3-10.7s6.4-1.4 10.9-3.2c4.5-1.8 9.3-5.2 9.3-5.2s-9.1-25.2-16-34.5c-6.7-9-17.3-14.1-21.3-16.9-5.6 2.7-10.2 7.5-11.8 10.2-1.8 2.9-4.6 8.9-4.6 8.9s-3.2-4.6-4.6-10.6c-.5-2.2-.8-4-1-5.4-2.8 3.4-10.1 11.1-13.3 18.6-3.9 9.3-7.9 33.1-7.9 33.1z"/><path d="M210.8 80.6c-.1.3-.4.8-1.2 1.7.2 1.3.5 3.1 1 5.4 1.4 6 4.6 10.6 4.6 10.6s2.7-6 4.6-8.9c1.6-2.6 6.1-7.5 11.8-10.2-.2-.1-.3-.2-.5-.3-3.7-2.7-3.8-11.3-4-16.9l-17.9 3.4c.1 0 1.8 13.8 1.6 15.2z" style="fill:#828282"/><path class="st41" d="M210.8 80.6c-.1.3-.4.8-1.2 1.7.2 1.3.5 3.1 1 5.4 1.4 6 4.6 10.6 4.6 10.6s2.7-6 4.6-8.9c1.6-2.6 6.1-7.5 11.8-10.2-.2-.1-.3-.2-.5-.3-3.7-2.7-3.8-11.3-4-16.9l-17.9 3.4c.1 0 1.8 13.8 1.6 15.2z"/><defs><path id="SVGID_14_" d="M130.3-36.3h.3l-.3.3z"/></defs><clipPath id="SVGID_15_"><use xlink:href="#SVGID_14_" style="overflow:visible"/></clipPath><defs><path id="SVGID_16_" d="M130.3-36.3h.3l-.3.3z"/></defs><defs><path id="SVGID_17_" d="M129.8-36.8h-.3l.3-.3z"/></defs><clipPath id="SVGID_18_"><use xlink:href="#SVGID_16_" style="overflow:visible"/></clipPath><clipPath id="SVGID_19_" style="clip-path:url(#SVGID_18_)"><use xlink:href="#SVGID_17_" style="overflow:visible"/></clipPath><linearGradient id="SVGID_20_" gradientUnits="userSpaceOnUse" x1="219.837" y1="-323.916" x2="215.765" y2="-338.124" gradientTransform="translate(0 402)"><stop offset="0" style="stop-color:#000"/><stop offset="1" style="stop-color:#fff"/></linearGradient><path d="M210.8 80.6c-.1.3-.4.8-1.2 1.7.2 1.3.5 3.1 1 5.4 1.4 6 4.6 10.6 4.6 10.6s2.7-6 4.6-8.9c1.6-2.6 6.1-7.5 11.8-10.2-.2-.1-.3-.2-.5-.3-3.7-2.7-3.8-11.3-4-16.9l-17.9 3.4c.1 0 1.8 13.8 1.6 15.2z" style="clip-path:url(#SVGID_19_);fill:url(#SVGID_20_)"/><path d="M210.8 80.6c-.1.3-.4.8-1.2 1.7.2 1.3.5 3.1 1 5.4 1.4 6 4.6 10.6 4.6 10.6s2.7-6 4.6-8.9c1.6-2.6 6.1-7.5 11.8-10.2-.2-.1-.3-.2-.5-.3-3.7-2.7-3.8-11.3-4-16.9l-17.9 3.4c.1 0 1.8 13.8 1.6 15.2z" style="fill:#a03d30"/><path class="st41" d="M227.5 50.2c2.2-1.1 4.5-.3 5 2.7.4 3-.4 6.1-2.7 7.2-2.3 1-3.2-.1-3.2-.1l.9-9.8z"/><path class="st48" d="m226.8 57.2.4-4.5c.3-.2 1.3-1.1 2.4-.7 1.2.4 1.5 2.9.7 4.2-.6 1.4-1.9 1.7-3.5 1z"/><path class="st41" d="M208.2 50.1c-2.2-1.1-4.5-.3-5 2.7-.4 3 .4 6.1 2.7 7.2 2.3 1 3.2-.1 3.2-.1l-.9-9.8z"/><path class="st48" d="m208.9 57.1-.4-4.5c-.3-.2-1.3-1.1-2.4-.7-1.2.4-1.5 2.9-.7 4.2.6 1.4 1.9 1.6 3.5 1z"/><path class="st49" d="M228.3 54c1-4.2 1.1-8.2 0-10.6-1.1-2.5-3.9-5-5.6-6-2.5-1.5-7.5-1.3-9.2-.5-1.9.9-5.5 3.7-6.1 5.7-.6 2-.9 4.6-.8 6.5.1 1.8.4 3.4.4 3.4l21.3 1.5z"/><path class="st41" d="M222.5 38.6s-2.6 1.3-4.8 1.1c-2.1-.2-3.9-1.5-3.9-1.5s-4 1.5-5.3 4.5c-1.2 3-1.2 4.6-1.1 6.1.1 1.5-.4 3.6-.4 3.6s.1 9.8 1.1 12.2c1 2.3 4.8 6 5.8 6.8s4 .7 5.8.3c1.8-.3 6.7-4.4 7.5-7.2.9-2.8 1.1-10.5 1.1-10.5s-.6-1-.7-3.5c-.1-2.5.3-3.9-.2-5.8-.4-1.9-2.9-5.2-4.9-6.1z"/><defs><path id="SVGID_21_" d="M130.3-36.3h.3l-.3.3z"/></defs><clipPath id="SVGID_22_"><use xlink:href="#SVGID_21_" style="overflow:visible"/></clipPath><defs><path id="SVGID_23_" d="M130.3-36.3h.3l-.3.3z"/></defs><defs><path id="SVGID_24_" d="M129.8-36.8h-.3l.3-.3z"/></defs><clipPath id="SVGID_25_"><use xlink:href="#SVGID_23_" style="overflow:visible"/></clipPath><clipPath id="SVGID_26_" style="clip-path:url(#SVGID_25_)"><use xlink:href="#SVGID_24_" style="overflow:visible"/></clipPath><linearGradient id="SVGID_27_" gradientUnits="userSpaceOnUse" x1="217.5" y1="-344.502" x2="217.5" y2="-351.742" gradientTransform="translate(0 402)"><stop offset="0" style="stop-color:#fff"/><stop offset="1" style="stop-color:#000"/></linearGradient><path style="clip-path:url(#SVGID_26_);fill:url(#SVGID_27_)" d="m218.8 50.2 1.5 6.9-3.1.6-2.5-.5 1.3-7.1z"/><linearGradient id="SVGID_28_" gradientUnits="userSpaceOnUse" x1="217.5" y1="-344.502" x2="217.5" y2="-351.742" gradientTransform="translate(0 402)"><stop offset="0" style="stop-color:#fff"/><stop offset="1" style="stop-color:#fff"/></linearGradient><path style="opacity:.18;fill:url(#SVGID_28_);enable-background:new" d="m218.8 50.2 1.5 6.9-3.1.6-2.5-.5 1.3-7.1z"/><path class="st53" d="M216.5 57.3c.1-.3-.2-.6-.5-.7s-.7.1-.8.4l1.3.3zM218.4 57.3c-.1-.3.2-.6.5-.7.3-.1.7.1.8.4l-1.3.3z"/><path class="st49" d="m215.5 49.2.1 1.3s-2.9-.7-4.8-.4c-1.2.2-2.4.5-2.4.5s.8-1.7 3-2c2.3-.3 4.1.6 4.1.6zM220 49.4l-.1 1.3s2.9-.7 4.8-.4c1.2.2 2.4.5 2.4.5s-.8-1.7-3-2c-2.2-.3-4.1.6-4.1.6z"/><circle class="st54" cx="223.7" cy="52.8" r=".6"/><circle class="st54" cx="212.1" cy="52.5" r=".6"/><path d="M213.3 61.1c.1 1.6.7 4.6 4.6 4.6 4 0 4.6-3.1 4.7-4.6.1-2.2-2.1-1.7-4.6-1.7-2.7.1-4.8-.5-4.7 1.7z" style="opacity:.51;fill:#b073ad;enable-background:new"/><path class="st20" d="M213.3 61.4c.1 1.2 2.1 2.6 4.6 2.6 2.6 0 4.6-1.5 4.6-2.6.1-1.6-2.1-.7-4.6-.7-2.5 0-4.7-.9-4.6.7z"/><defs><path id="SVGID_29_" d="M130.3-36.3h.3l-.3.3z"/></defs><clipPath id="SVGID_30_"><use xlink:href="#SVGID_29_" style="overflow:visible"/></clipPath><defs><path id="SVGID_31_" d="M130.3-36.3h.3l-.3.3z"/></defs><defs><path id="SVGID_32_" d="M129.8-36.8h-.3l.3-.3z"/></defs><clipPath id="SVGID_33_"><use xlink:href="#SVGID_31_" style="overflow:visible"/></clipPath><clipPath id="SVGID_34_" style="clip-path:url(#SVGID_33_)"><use xlink:href="#SVGID_32_" style="overflow:visible"/></clipPath><linearGradient id="SVGID_35_" gradientUnits="userSpaceOnUse" x1="2560.621" y1="-269.226" x2="2541.899" y2="-268.919" gradientTransform="matrix(-1 0 0 1 2793.098 402)"><stop offset="0" style="stop-color:#000"/><stop offset="1" style="stop-color:#fff"/></linearGradient><path d="M219.2 128.8c5.7-11.8 19.2-13.2 19.2-13.2 1.2 4.3 10.5 23.5 10.5 23.5l.3 10.7H216c-.6-4.5-.7-12.9 3.2-21z" style="clip-path:url(#SVGID_34_);fill:url(#SVGID_35_)"/><path class="st43" d="M219.2 128.8c5.7-11.8 19.2-13.2 19.2-13.2 1.2 4.3 10.5 23.5 10.5 23.5l.3 10.7H216c-.6-4.5-.7-12.9 3.2-21z"/><defs><path id="SVGID_36_" d="M130.3-36.3h.3l-.3.3z"/></defs><clipPath id="SVGID_37_"><use xlink:href="#SVGID_36_" style="overflow:visible"/></clipPath><defs><path id="SVGID_38_" d="M130.3-36.3h.3l-.3.3z"/></defs><defs><path id="SVGID_39_" d="M129.8-36.8h-.3l.3-.3z"/></defs><clipPath id="SVGID_40_"><use xlink:href="#SVGID_38_" style="overflow:visible"/></clipPath><clipPath id="SVGID_41_" style="clip-path:url(#SVGID_40_)"><use xlink:href="#SVGID_39_" style="overflow:visible"/></clipPath><linearGradient id="SVGID_42_" gradientUnits="userSpaceOnUse" x1="2600.628" y1="-288.097" x2="2590.653" y2="-286.256" gradientTransform="matrix(-1 0 0 1 2793.098 402)"><stop offset="0" style="stop-color:#000"/><stop offset="1" style="stop-color:#fff"/></linearGradient><path d="M193.9 135.7c-3.4-.6-5.4-1.7-5.4-1.7s4-23.8 8-33.1c1-2.4 2.5-4.8 4-7 .3 5.8-.6 11.6-.6 11.6-1.1 6.8-2.3 9.7-2.5 14s2 16.7 2 16.7-2.2.1-5.5-.5z" style="clip-path:url(#SVGID_41_);fill:url(#SVGID_42_)"/><path d="M193.9 135.7c-3.4-.6-5.4-1.7-5.4-1.7s4-23.8 8-33.1c1-2.4 2.5-4.8 4-7 .3 5.8-.6 11.6-.6 11.6-1.1 6.8-2.3 9.7-2.5 14s2 16.7 2 16.7-2.2.1-5.5-.5z" style="fill:#4c3884"/></g><path class="st1" d="M363.9 334h-64.4c-7.6 0-13.7-6.1-13.7-13.7v-88.5c0-7.6 6.1-13.7 13.7-13.7h64.4c7.6 0 13.7 6.1 13.7 13.7v88.4c.1 7.7-6.1 13.8-13.7 13.8z"/><defs><path id="SVGID_43_" d="M363.9 334h-64.4c-7.6 0-13.7-6.1-13.7-13.7v-88.5c0-7.6 6.1-13.7 13.7-13.7h64.4c7.6 0 13.7 6.1 13.7 13.7v88.4c.1 7.7-6.1 13.8-13.7 13.8z"/></defs><clipPath id="SVGID_44_"><use xlink:href="#SVGID_43_" style="overflow:visible"/></clipPath><g style="clip-path:url(#SVGID_44_)"><path class="st20" d="m321.2 269.4.6-.4 21 1.2 1.2 1.1s2.9 7.1 3 11.7c.2 4.6-5.9 38.1-5.9 38.1l-11.6 7.5-5.7-4.6s-6.8-42.9-6.8-43.3c.1-.5 4.2-11.3 4.2-11.3z"/><linearGradient id="SVGID_45_" gradientUnits="userSpaceOnUse" x1="348.563" y1="-65.829" x2="348.563" y2="-130.765" gradientTransform="translate(0 402)"><stop offset="0" style="stop-color:#dc3e7e"/><stop offset="1" style="stop-color:#f38351"/></linearGradient><path d="M343.9 271.2s12.3 8.9 15.5 11.2c3.2 2.3 5.1 4.7 6.4 9.7 1.2 5 3 23.4 2.9 29.8-.2 6.4-.3 13.5-5.8 14-5.5.4-14.6.4-23.2-2.5-8.7-2.9-11.2-4.1-11.2-4.1l8.9-10.2s1.2-11.1 3.2-18.3c2-7.3 3.3-14.5 3.6-19.2.4-5.1-.3-10.4-.3-10.4z" style="fill:url(#SVGID_45_)"/><defs><path id="SVGID_46_" d="M276.2 136.1h.3l-.3.3z"/></defs><clipPath id="SVGID_47_"><use xlink:href="#SVGID_46_" style="overflow:visible"/></clipPath><defs><path id="SVGID_48_" d="M276.2 136.1h.3l-.3.3z"/></defs><defs><path id="SVGID_49_" d="M275.7 135.6h-.3l.3-.3z"/></defs><clipPath id="SVGID_50_"><use xlink:href="#SVGID_48_" style="overflow:visible"/></clipPath><clipPath id="SVGID_51_" style="clip-path:url(#SVGID_50_)"><use xlink:href="#SVGID_49_" style="overflow:visible"/></clipPath><linearGradient id="SVGID_52_" gradientUnits="userSpaceOnUse" x1="348.274" y1="-98.759" x2="357.366" y2="-94.069" gradientTransform="translate(0 402)"><stop offset="0" style="stop-color:#000"/><stop offset="1" style="stop-color:#fff"/></linearGradient><path d="M343.5 287.3c-.7 4-1.6 8.8-3 13.6-2 7.3-3.2 18.3-3.2 18.3l-.1.1c4.3.4 17.3 1 17.3-.5 0-1.7-1.6-10.8-1.6-13.1-.1-2.3.7-5.8 2.8-8.1 0 0 2.5-6.8-.6-12-1.9-3.4-7.1-1.8-11.6 1.7z" style="clip-path:url(#SVGID_51_);fill:url(#SVGID_52_)"/><linearGradient id="SVGID_53_" gradientUnits="userSpaceOnUse" x1="348.274" y1="-98.759" x2="357.366" y2="-94.069" gradientTransform="translate(0 402)"><stop offset="0" style="stop-color:#fff"/><stop offset="1" style="stop-color:#405ea7"/></linearGradient><path d="M343.5 287.3c-.7 4-1.6 8.8-3 13.6-2 7.3-3.2 18.3-3.2 18.3l-.1.1c4.3.4 17.3 1 17.3-.5 0-1.7-1.6-10.8-1.6-13.1-.1-2.3.7-5.8 2.8-8.1 0 0 2.5-6.8-.6-12-1.9-3.4-7.1-1.8-11.6 1.7z" style="opacity:.31;fill:url(#SVGID_53_);enable-background:new"/><linearGradient id="SVGID_54_" gradientUnits="userSpaceOnUse" x1="347.18" y1="-147.166" x2="337.75" y2="-130.832" gradientTransform="translate(0 402)"><stop offset="0" style="stop-color:#3574b4"/><stop offset=".466" style="stop-color:#533a8b"/></linearGradient><path d="M343.6 252.8c1 2.6 1.6 4.6 1.2 8.2-.4 3.3 2 5.8 4.2 4.5 0 0 .7 2.6-3.6 4.5s-8.1 1-8.1 1l-.6-13.4 6.9-4.8z" style="fill:url(#SVGID_54_)"/><path class="st67" d="M323.4 242.5c-2-1.2-4.2-.7-4.9 2.1-.7 2.7-.2 5.8 1.8 6.9 2.1 1.2 3 .2 3 .2l.1-9.2z"/><path class="st53" d="M323.4 249v-4.2c-.2-.2-1.1-1.1-2.2-.8-1.2.3-1.6 2.5-1.1 3.8.6 1.3 1.8 1.7 3.3 1.2z"/><path class="st67" d="M343.6 245.9c2.2-.4 4.2.8 3.9 3.6-.3 2.8-1.7 5.5-4.1 5.9s-2.9-.8-2.9-.8l3.1-8.7z"/><path class="st53" d="m341.5 252 1.4-4c.3-.1 1.5-.6 2.3-.1 1.1.7.7 2.9-.3 4-.9 1.1-2.2 1.1-3.4.1z"/><linearGradient id="SVGID_55_" gradientUnits="userSpaceOnUse" x1="332.271" y1="-132.713" x2="332.362" y2="-143.005" gradientTransform="translate(0 402)"><stop offset="0" style="stop-color:#ee9978"/><stop offset="1" style="stop-color:#e37070"/></linearGradient><path d="M332 283.2c1.5.2 10.8-13.1 10.8-13.1-.6-.3-3.1-2.3-3.5-4.2-.3-1.9.6-7.9.6-7.9l-16-1.5c0 3.6.7 10.2-2.1 12.5.4.6.8 1.3 1.2 2.1 2.1 4.6 7.4 12 9 12.1z" style="fill:url(#SVGID_55_)"/><path class="st69" d="M322 242.6c-.6 4.2-.6 7.8.2 11.1.7 3.3 3.2 9.8 9 10.2s9.1-5.1 10.1-6.9c1.1-1.9 4.2-10.9 4.2-10.9s2.5-11.1-4.8-13.6c-7.3-2.4-17.3.2-18.7 10.1z"/><circle class="st70" cx="325.3" cy="250.1" r="2.7"/><circle class="st70" cx="339.1" cy="251.8" r="2.7"/><path d="M336.2 254.9c-.2 1.1-2.3 2.5-4.8 2.2-2.5-.3-4.2-2.2-4.1-3.3.1-1.2 2.1-.7 4.5-.4 2.5.3 4.6.2 4.4 1.5z" style="fill:#e45856"/><path class="st20" d="M335.9 254.7c-.2.7-2.1 1.3-4.4 1.1-2.2-.3-4-1.4-4-2.1 0-.7 1.9.3 4.1.6 2.3.3 4.5-.3 4.3.4z"/><linearGradient id="SVGID_56_" gradientUnits="userSpaceOnUse" x1="-5865.565" y1="-7778.036" x2="-5865.565" y2="-7774.547" gradientTransform="rotate(11.719 -87583.034 54086.372) scale(2.1203)"><stop offset="0" style="stop-color:#ee9978"/><stop offset="1" style="stop-color:#e37070"/></linearGradient><path d="m333.3 244.1-3.4 5.9c-.2.4 0 1 .5 1l3.7.6.1-7.3-.9-.2z" style="fill:url(#SVGID_56_)"/><path class="st73" d="M332.6 250.9c.1-.3.3-.5.6-.4s.5.3.4.7l-1-.3z"/><path class="st74" d="M324.7 242.4s1.8-.4 4.1 0c2.2.4 3.5 1.4 3.5 1.4.1 0-.7 3-1.3 3.7-.6.6-1.7.9-3.4.6-1.7-.2-3.3-.7-3.4-2.6 0-1.9.5-3.1.5-3.1zM342.3 244.9s-1.7-.9-3.9-1.2c-2.2-.2-3.8.3-3.8.3-.1 0-.2 3.1.2 3.9.4.8 1.3 1.3 3.1 1.6 1.7.2 3.4.3 4-1.5.5-1.8.4-3.1.4-3.1z"/><path d="M324.9 242.7c-.2 0-.3-.1-.4-.2 0 0-.3-.4-.5-.8-.1-.2-.6-.4-.8-.4-.1 0-.1 0-.1.1-.1.3-.4.4-.7.3s-.4-.4-.3-.7c.2-.4.5-.7.9-.7.7-.1 1.5.4 1.8.8s.6.9.6.9c.2.2.1.6-.2.7h-.3z" style="fill:#544e9a"/><path class="st76" d="M346.9 247.1h-.2c-.3-.1-.4-.4-.3-.6.1-.3 0-.3 0-.4-.3-.4-1.8-.4-2.9-.4h-1.2c-.3 0-.5-.3-.4-.6 0-.3.3-.5.6-.4h1.2c1.5 0 3.1 0 3.7.8.2.2.3.7.2 1.3-.3.1-.5.3-.7.3zM334.6 244.6c-.1 0-.1 0-.2-.1-.6-.2-1.2-.3-2.1-.3-.3 0-.5-.2-.5-.5s.2-.5.5-.5c1 0 1.8.1 2.5.3.3.1.4.4.3.7-.1.3-.3.4-.5.4z"/><circle class="st54" cx="328" cy="244.8" r=".6"/><circle class="st54" cx="338.4" cy="246.5" r=".6"/><linearGradient id="SVGID_57_" gradientUnits="userSpaceOnUse" x1="335.71" y1="-158.696" x2="342.68" y2="-158.696" gradientTransform="translate(0 402)"><stop offset="0" style="stop-color:#3574b4"/><stop offset=".466" style="stop-color:#533a8b"/></linearGradient><path d="M342.7 244.3c-.6-.3-1.1-.5-1.7-.7-.6-.2-1.1-.3-1.7-.3-.6-.1-1.2-.1-1.7-.2-.6-.1-1.2-.1-1.8-.1.6-.3 1.2-.5 1.8-.6.6-.1 1.3-.1 1.9 0 .6.1 1.3.3 1.8.6.6.3 1.1.7 1.4 1.3z" style="fill:url(#SVGID_57_)"/><linearGradient id="SVGID_58_" gradientUnits="userSpaceOnUse" x1="325.122" y1="-160.093" x2="332.093" y2="-160.093" gradientTransform="translate(0 402)"><stop offset="0" style="stop-color:#3574b4"/><stop offset=".466" style="stop-color:#533a8b"/></linearGradient><path d="M332.1 242.9c-.6-.3-1.1-.5-1.7-.7-.6-.2-1.1-.3-1.7-.3-.6-.1-1.2-.1-1.7-.2-.6-.1-1.2-.1-1.8-.1.6-.3 1.2-.5 1.8-.6.6-.1 1.3-.1 1.9 0 .6.1 1.3.3 1.8.6s1 .7 1.4 1.3z" style="fill:url(#SVGID_58_)"/><linearGradient id="SVGID_59_" gradientUnits="userSpaceOnUse" x1="341.018" y1="-173.55" x2="325.697" y2="-147.012" gradientTransform="translate(0 402)"><stop offset="0" style="stop-color:#3574b4"/><stop offset=".466" style="stop-color:#533a8b"/></linearGradient><path d="M325.1 242.1c3-2.1 6.7-.3 11.5-2.9s6.3-4.6 6.3-4.6-.6 2.7.1 4.6c.7 2 2.1 3.8 2.1 5.4s-1 5.3-1 5.3 2.7-3.6 3.2-5.3c.4-1.6.7-5.3-.3-7.9-1-2.6-2.9-3.5-3.2-4.2-.3-.7-1.7-4.8-7.1-5.9-4.3-.9-9.9.7-12.6 4.3-2.3 3.1-2.9 5.5-3.4 8.8-.4 3.2-1.7 5.5-2.9 6.4s-3.5 2.3-3.5 2.3 3.1-.1 5.1-.9c2.1-.7 3.8-4 5.7-5.4z" style="fill:url(#SVGID_59_)"/><path class="st80" d="m336 329.5 3 12.1-29.3-4.6-.2-.5"/><path class="st81" d="m335.3 330 2.8 11.4-28.4-4.3-.2-.6"/><path class="st20" d="M320.3 321.5c-.7.6-1.8.6-2.7.2-.4-.2-.8-.3-.8-.7v-.4c0-.1.1-.3 0-.4s-.1-.3-.2-.4-.2-.2-.2-.4c-.1-.4.2-.7.4-1 .3-.3.6-.4.7-.5h.1c.1.1.4.6 1.1.4.6-.1.8-.6.8-.7h.1c.5.2.7.7.7.8v.1c.1.2 0 .4 0 .6 0 .1-.1.2 0 .3 0 .1.1.2.2.3.1.2.2.3.2.5.1.6-.1 1-.4 1.3z"/><path class="st20" d="M321.6 318.2c.1.3-.1.6-.2.9-.2.2-.4.4-.8.4 0 0-.1 0-.1-.1v-.1c-.1-.3.1-.6.2-.8.3-.1.5-.3.9-.3z"/><linearGradient id="SVGID_60_" gradientUnits="userSpaceOnUse" x1="314.217" y1="-65.478" x2="314.217" y2="-132.553" gradientTransform="translate(0 402)"><stop offset="0" style="stop-color:#dc3e7e"/><stop offset="1" style="stop-color:#f38351"/></linearGradient><linearGradient id="SVGID_61_" gradientUnits="userSpaceOnUse" x1="295.245" y1="-99.276" x2="333.245" y2="-99.276" gradientTransform="translate(0 402)"><stop offset="0" style="stop-color:#ed5970"/><stop offset="1" style="stop-color:#f38351"/></linearGradient><path d="M298.9 288.1c-2.7 6.1-3.2 17.9-3.2 25.1 0 7.2 1.1 20.8 5.3 22.4s13.5.9 18.4.4 13.2-1.7 13.2-1.7l-2-15.6h-1.7s-3.6-13.7-5.5-18.7c-1.6-4.4-3-22.3-2.3-30.6-3.9 2.9-19.5 12.9-22.2 18.7z" style="fill:url(#SVGID_60_);stroke:url(#SVGID_61_);stroke-miterlimit:10"/><defs><path id="SVGID_62_" d="M276.2 136.1h.3l-.3.3z"/></defs><clipPath id="SVGID_63_"><use xlink:href="#SVGID_62_" style="overflow:visible"/></clipPath><defs><path id="SVGID_64_" d="M276.2 136.1h.3l-.3.3z"/></defs><defs><path id="SVGID_65_" d="M275.7 135.6h-.3l.3-.3z"/></defs><clipPath id="SVGID_66_"><use xlink:href="#SVGID_64_" style="overflow:visible"/></clipPath><clipPath id="SVGID_67_" style="clip-path:url(#SVGID_66_)"><use xlink:href="#SVGID_65_" style="overflow:visible"/></clipPath><linearGradient id="SVGID_68_" gradientUnits="userSpaceOnUse" x1="322.295" y1="-104.555" x2="316.216" y2="-89.206" gradientTransform="translate(0 402)"><stop offset="0" style="stop-color:#000"/><stop offset="1" style="stop-color:#fff"/></linearGradient><path d="M329.1 318.6s-3.6-13.7-5.5-18.7c-.8-2.3-1.6-8.6-2.1-15.1-6.8-2-8.6-.4-9.8 1.4-1.3 1.9-2.2 9.3-2.2 9.3 1.5 2.9 2.6 12.6 2.6 14.4.1 1.7.3 10.5.3 10.5s13.8-1.2 14.6-1.3c.8-.1 2.1-.5 2.1-.5z" style="clip-path:url(#SVGID_67_);fill:url(#SVGID_68_)"/><linearGradient id="SVGID_69_" gradientUnits="userSpaceOnUse" x1="322.295" y1="-104.555" x2="316.216" y2="-89.206" gradientTransform="translate(0 402)"><stop offset="0" style="stop-color:#fff"/><stop offset="1" style="stop-color:#405ea7"/></linearGradient><path d="M329.1 318.6s-3.6-13.7-5.5-18.7c-.8-2.3-1.6-8.6-2.1-15.1-6.8-2-8.6-.4-9.8 1.4-1.3 1.9-2.2 9.3-2.2 9.3 1.5 2.9 2.6 12.6 2.6 14.4.1 1.7.3 10.5.3 10.5s13.8-1.2 14.6-1.3c.8-.1 2.1-.5 2.1-.5z" style="opacity:.31;fill:url(#SVGID_69_);enable-background:new"/><defs><path id="SVGID_70_" d="M276.2 136.1h.3l-.3.3z"/></defs><clipPath id="SVGID_71_"><use xlink:href="#SVGID_70_" style="overflow:visible"/></clipPath><defs><path id="SVGID_72_" d="M276.2 136.1h.3l-.3.3z"/></defs><defs><path id="SVGID_73_" d="M275.7 135.6h-.3l.3-.3z"/></defs><clipPath id="SVGID_74_"><use xlink:href="#SVGID_72_" style="overflow:visible"/></clipPath><clipPath id="SVGID_75_" style="clip-path:url(#SVGID_74_)"><use xlink:href="#SVGID_73_" style="overflow:visible"/></clipPath><linearGradient id="SVGID_76_" gradientUnits="userSpaceOnUse" x1="304.905" y1="-90.984" x2="312.742" y2="-86.941" gradientTransform="translate(0 402)"><stop offset="0" style="stop-color:#000"/><stop offset="1" style="stop-color:#fff"/></linearGradient><path d="M312.5 320.5c-2.9.1-7.7.3-10.3 1.5 0 0-8.8-10.7-4.4-18.6 4.5-7.8 13.1-1.7 13.1-1.7l1.6 18.8z" style="clip-path:url(#SVGID_75_);fill:url(#SVGID_76_)"/><linearGradient id="SVGID_77_" gradientUnits="userSpaceOnUse" x1="304.905" y1="-90.984" x2="312.742" y2="-86.941" gradientTransform="translate(0 402)"><stop offset="0" style="stop-color:#fff"/><stop offset="1" style="stop-color:#405ea7"/></linearGradient><path d="M312.5 320.5c-2.9.1-7.7.3-10.3 1.5 0 0-8.8-10.7-4.4-18.6 4.5-7.8 13.1-1.7 13.1-1.7l1.6 18.8z" style="opacity:.31;fill:url(#SVGID_77_);enable-background:new"/><path class="st69" d="M330.7 318.6c3.7-.2 13.2-2.2 14.4-2 1.2.2 9.4 2.2 9.4 2.2l.2 4.1s-3.4.1-6.5 1.3-14.7 6.4-16.2 6.7l-1.3-12.3zM304.6 307.6s.1.6.7.9c.6.3 1.8.5 2.5.8.7.3 2.3 1.3 2.3 1.3l-3-1-3.3-.3s.1.9.7 1.3c.6.3 2.6.7 2.6.7l2.9 1.8-3.3-1.5h-2.4s-.4.4 0 .8c.4.3 2.4.8 2.4.8l1.9 1.3-2.5-1.1-1.3.1s0 .8.9 1.2 2.6 1.1 3.3 1.8 2.5 3.2 3.3 4.1c6.3-.4 14.6-1.3 14.6-1.3l-9.1-3.8s-3.2-4.7-5-5.9c-.2-.1-3-1.4-4.1-1.6-.9-.3-4.1-.4-4.1-.4z"/><defs><path id="SVGID_78_" d="M276.2 136.1h.3l-.3.3z"/></defs><clipPath id="SVGID_79_"><use xlink:href="#SVGID_78_" style="overflow:visible"/></clipPath><defs><path id="SVGID_80_" d="M276.2 136.1h.3l-.3.3z"/></defs><defs><path id="SVGID_81_" d="M275.7 135.6h-.3l.3-.3z"/></defs><clipPath id="SVGID_82_"><use xlink:href="#SVGID_80_" style="overflow:visible"/></clipPath><clipPath id="SVGID_83_" style="clip-path:url(#SVGID_82_)"><use xlink:href="#SVGID_81_" style="overflow:visible"/></clipPath><linearGradient id="SVGID_84_" gradientUnits="userSpaceOnUse" x1="358.183" y1="-85.716" x2="354.266" y2="-79.029" gradientTransform="translate(0 402)"><stop offset="0" style="stop-color:#000"/><stop offset="1" style="stop-color:#fff"/></linearGradient><path d="M354.8 323c2 .2 7.8.3 9.6.8 0 0 1.6-11.9-2.8-15.5-4.4-3.6-8.2-1.9-8.2-1.9s.9 7.8 1.2 9.6c.2 1.8.2 7 .2 7z" style="clip-path:url(#SVGID_83_);fill:url(#SVGID_84_)"/><linearGradient id="SVGID_85_" gradientUnits="userSpaceOnUse" x1="358.183" y1="-85.716" x2="354.266" y2="-79.029" gradientTransform="translate(0 402)"><stop offset="0" style="stop-color:#fff"/><stop offset="1" style="stop-color:#405ea7"/></linearGradient><path d="M354.8 323c2 .2 7.8.3 9.6.8 0 0 1.6-11.9-2.8-15.5-4.4-3.6-8.2-1.9-8.2-1.9s.9 7.8 1.2 9.6c.2 1.8.2 7 .2 7z" style="opacity:.31;fill:url(#SVGID_85_);enable-background:new"/><path class="st73" d="M320.7 304c2.2 3.7 5.9 9.1 7.4 11.1-1.2-4.4-3.3-11.8-4.5-15.2-1.6-4.4-3-22.3-2.3-30.6-1.2.8-3.4 2.3-5.9 4.1-1.3 4-2.2 10.1-2.2 10.1l5 1.8-3.2 4.4c-.1 0 2.9 9.6 5.7 14.3zM344.3 281.6c-.4 4.7-1.7 12-3.6 19.2-1.2 4.4-2.1 10.2-2.6 14.1 1.5-3.3 4.4-10 6.6-14.1 3-5.6 6.1-10.5 6.1-10.5l-3.6-4.1 4.7-1.5c-.8-3.1-2.2-7.5-3.4-10.3-2.5-1.8-4.4-3.2-4.4-3.2s.5 5.3.2 10.4z"/><path class="st80" d="m328.7 298.2 4.4 20.1-27.3 3.3-6-26.2"/><path class="st81" d="m328.3 299.1 4.3 19.4-26.8 3.1-5.8-25"/><path class="st92" d="m315.6 317.5 2.2.1.3 1.8-2.2-.1-.3-1.8zM318.1 317.6l2.2.1.3 1.8-2.2-.1-.3-1.8zM316 319.4l2.2.1.1.7-2.1.2-.2-1zM318.4 319.5l2.2.1.1.3-2.2.2-.1-.6z"/></g><path class="st21" d="M139.8 335.2H75.4c-7.6 0-13.7-6.1-13.7-13.7v-88.4c0-7.6 6.1-13.7 13.7-13.7h64.4c7.6 0 13.7 6.1 13.7 13.7v88.4c0 7.6-6.1 13.7-13.7 13.7z"/><defs><path id="SVGID_86_" d="M139.8 335.2H75.4c-7.6 0-13.7-6.1-13.7-13.7v-88.4c0-7.6 6.1-13.7 13.7-13.7h64.4c7.6 0 13.7 6.1 13.7 13.7v88.4c0 7.6-6.1 13.7-13.7 13.7z"/></defs><clipPath id="SVGID_87_"><use xlink:href="#SVGID_86_" style="overflow:visible"/></clipPath><g style="clip-path:url(#SVGID_87_)"><linearGradient id="SVGID_88_" gradientUnits="userSpaceOnUse" x1="127.16" y1="-48.095" x2="79.589" y2="-130.491" gradientTransform="translate(0 402)"><stop offset="0" style="stop-color:#1e2e59"/><stop offset=".565" style="stop-color:#2573b9"/></linearGradient><path d="M148.9 331c-1 3.9-12.8 18.9-15.4 19.2-2.6.3-4.1-2.3-4.1-2.3H66.8s-4.4-12-5.6-18.4c-1.2-6.4 3.9-34.9 6.7-41.7s7.2-9.3 12.4-12.5c5.1-3.1 14.3-10 15.9-12.4.3-.4.6-1 .7-1.5 1.6 4.9 7.2 10.7 10.3 10.7 3.2 0 7.5-5.9 8.9-11.5.6 1.7 1.6 3.2 3.1 4.5 3.2 2.7 12.6 5.8 17 8.6s6.1 9 8.6 19.3c2.6 10.4 5.1 34 4.1 38z" style="fill:url(#SVGID_88_)"/><path class="st42" d="M135.6 338.2c-1.1-2.8-2.4-2.9-4.2-2.9l-4.1 3.1.8 9.4h1.3s1.5 2.6 4.1 2.3c.4-.1 1-.4 1.7-1 .5-2 1.4-8.3.4-10.9z"/><defs><path id="SVGID_89_" d="M-56.1 149.1h.3l-.3.3z"/></defs><clipPath id="SVGID_90_"><use xlink:href="#SVGID_89_" style="overflow:visible"/></clipPath><defs><path id="SVGID_91_" d="M-56.1 149.1h.3l-.3.3z"/></defs><defs><path id="SVGID_92_" d="M-56.6 148.6h-.3l.3-.3z"/></defs><clipPath id="SVGID_93_"><use xlink:href="#SVGID_91_" style="overflow:visible"/></clipPath><clipPath id="SVGID_94_" style="clip-path:url(#SVGID_93_)"><use xlink:href="#SVGID_92_" style="overflow:visible"/></clipPath><path d="M95.6 339.7c.4-13.7.5-27.6 1.3-41.2-7.3.4-14.1 1.3-14.6 3.2-.9 3.8-4.5 26.7-4.5 26.7C79.2 332 83 348 83 348h12.2c.2-2.9.3-5.6.4-8.3z" style="clip-path:url(#SVGID_94_);fill:none"/><linearGradient id="SVGID_95_" gradientUnits="userSpaceOnUse" x1="96.558" y1="-89.112" x2="78.839" y2="-61.988" gradientTransform="translate(0 402)"><stop offset="0" style="stop-color:#fff"/><stop offset="1" style="stop-color:#405ea7"/></linearGradient><path d="M95.6 339.7c.4-13.7.5-27.6 1.3-41.2-7.3.4-14.1 1.3-14.6 3.2-.9 3.8-4.5 26.7-4.5 26.7C79.2 332 83 348 83 348h12.2c.2-2.9.3-5.6.4-8.3z" style="opacity:.42;fill:url(#SVGID_95_);enable-background:new"/><defs><path id="SVGID_96_" d="M-56.1 149.1h.3l-.3.3z"/></defs><clipPath id="SVGID_97_"><use xlink:href="#SVGID_96_" style="overflow:visible"/></clipPath><defs><path id="SVGID_98_" d="M-56.1 149.1h.3l-.3.3z"/></defs><defs><path id="SVGID_99_" d="M-56.6 148.6h-.3l.3-.3z"/></defs><clipPath id="SVGID_100_"><use xlink:href="#SVGID_98_" style="overflow:visible"/></clipPath><clipPath id="SVGID_101_" style="clip-path:url(#SVGID_100_)"><use xlink:href="#SVGID_99_" style="overflow:visible"/></clipPath><path d="M114.4 298.6c-.3-.1-.9-.2-1.6-.2-.1 1.7-.2 3.5-.3 5.3-.7 14.7-.7 29.5-1.3 44.2h18.2l3.5-19.4s1.3-10.1 1.7-15.1c.4-5 1.7-19.6 1.7-19.6s-18.6 5.6-21.9 4.8z" style="clip-path:url(#SVGID_101_);fill:none"/><linearGradient id="SVGID_102_" gradientUnits="userSpaceOnUse" x1="113.232" y1="-88.872" x2="131.934" y2="-75.309" gradientTransform="translate(0 402)"><stop offset="0" style="stop-color:#fff"/><stop offset="1" style="stop-color:#405ea7"/></linearGradient><path d="M114.4 298.6c-.3-.1-.9-.2-1.6-.2-.1 1.7-.2 3.5-.3 5.3-.7 14.7-.7 29.5-1.3 44.2h18.2l3.5-19.4s1.3-10.1 1.7-15.1c.4-5 1.7-19.6 1.7-19.6s-18.6 5.6-21.9 4.8z" style="opacity:.42;fill:url(#SVGID_102_);enable-background:new"/><linearGradient id="SVGID_103_" gradientUnits="userSpaceOnUse" x1="101.342" y1="-141.272" x2="101.342" y2="-54.141" gradientTransform="translate(0 402)"><stop offset="0" style="stop-color:#d0d1d3"/><stop offset=".223" style="stop-color:#c4c7cd"/><stop offset=".66" style="stop-color:#abb3c5"/><stop offset="1" style="stop-color:#95a4c0"/></linearGradient><path d="M116.3 260.7c-1.4 5.5-5.8 11.5-8.9 11.5-3.1 0-8.7-5.8-10.3-10.7-.2.6-.4 1.1-.7 1.5-.1.1-.1.2-.2.3-1.5 6.7-2.1 14.3-1.7 23.6.4 10.2.2 18.6-2.8 29.8-2.5 9.7-7.3 26.7-8.6 31.2h32.6c0-5.9.1-32.9.3-41.9.3-10 1.3-16.5 3-24 1.3-5.9 0-13.5-.7-17.9-.9-1-1.6-2.1-2-3.4z" style="fill:url(#SVGID_103_)"/><defs><path id="SVGID_104_" d="M-56.1 149.1h.3l-.3.3z"/></defs><clipPath id="SVGID_105_"><use xlink:href="#SVGID_104_" style="overflow:visible"/></clipPath><defs><path id="SVGID_106_" d="M-56.1 149.1h.3l-.3.3z"/></defs><defs><path id="SVGID_107_" d="M-56.6 148.6h-.3l.3-.3z"/></defs><clipPath id="SVGID_108_"><use xlink:href="#SVGID_106_" style="overflow:visible"/></clipPath><clipPath id="SVGID_109_" style="clip-path:url(#SVGID_108_)"><use xlink:href="#SVGID_107_" style="overflow:visible"/></clipPath><path d="M94.5 296c4.1-.1 8.3-.4 12.5-.5 3.2-.1 6.5-.1 9.8-.1.5-4.8 1.3-8.9 2.2-13.4 1.3-5.9 0-13.5-.7-17.9-1-1.1-1.6-2.2-2.1-3.5-1.4 5.5-5.8 11.5-8.9 11.5-3.1 0-8.7-5.8-10.3-10.7-.2.6-.4 1.1-.7 1.5-.1.1-.1.2-.2.3-1.5 6.7-2.1 14.3-1.7 23.6.1 3.2.2 6.2.1 9.2z" style="clip-path:url(#SVGID_109_);fill:none"/><path class="st20" d="M119.1 269.3c-.2-1.9-.5-3.7-.7-5.1-1-1.1-1.6-2.2-2.1-3.5-1.4 5.5-5.8 11.5-8.9 11.5-3.1 0-8.7-5.8-10.3-10.7-.2.6-.4 1.1-.7 1.5-.1.1-.1.2-.2.3-.6 2.6-1 5.3-1.3 8.1l3.9 7.2s4.8-5.1 5.9-4.4c.3.2-.7 1.5-.4 2.2 1 1.8 3.1 4.2 3.1 4.2s2.2-2.5 3.5-4.2c.6-.8-.5-2.5-.3-2.5.7-.2 5.6 3.6 5.6 3.6s1.7-4.2 2.9-8.2z"/><linearGradient id="SVGID_110_" gradientUnits="userSpaceOnUse" x1="106.945" y1="-134.099" x2="106.494" y2="-145.29" gradientTransform="translate(0 402)"><stop offset="0" style="stop-color:#ee9978"/><stop offset="1" style="stop-color:#e37070"/></linearGradient><path d="M116.3 260.7c-1.2 6.4-6.6 10.7-8.9 19.9-1.5-9.3-8.9-12.6-10.3-19.1.8-2.3.7-5.6.7-9.3.1-.2.2-.4.3-.7l17.2 2.7c-.1 2.3.2 4.5 1 6.5z" style="fill:url(#SVGID_110_)"/><path class="st67" d="M98 241.7c-2.2-1.2-4.7-.7-5.5 2.1-.8 2.7-.3 5.8 2.1 6.9 2.3 1.2 3.4.2 3.4.2v-9.2z"/><path class="st53" d="M98 248.3v-4.2c-.2-.2-1.3-1.1-2.5-.8-1.3.3-1.8 2.5-1.2 3.8.6 1.2 2 1.6 3.7 1.2z"/><path class="st67" d="M115.6 241.9c2.2-1.2 4.7-.7 5.5 2.1.8 2.7.3 5.8-2.1 6.9-2.3 1.2-3.4.2-3.4.2v-9.2z"/><path class="st53" d="M115.6 248.4v-4.2c.2-.2 1.3-1.1 2.5-.8 1.3.3 1.8 2.5 1.2 3.8-.7 1.3-2 1.7-3.7 1.2z"/><path d="M97.7 229.8c3.2-3.8 9.3-4.7 13.5-3.2 4.1 1.5 5.1 2.8 6.8 5.3 1.7 2.5 1.6 6.4 1.2 8.4-.4 2.2-1 3.5-1.2 4.2-.3.7-.8.8-.8.8l-19.4.6s-1.3.4-1.4-1.5c-.1-1.8-.6-2.8-1.3-3-.3-.1-1.6-6.8 2.6-11.6z" style="fill:#9696ad"/><path d="M98 251.5c-.1.2-.2.4-.3.7v-.7h.3z" style="fill:#989797"/><path class="st69" d="M99.7 231.2s-2.7 4.4-2.3 7.8c.4 3.4-.1 6.8-.3 9.2-.2 2.5.8 6.4 2.3 9.5 1.5 3.1 4.3 5.9 8.6 5.7 4.2-.2 4.9-2.3 6.8-5.8 1.8-3.5 2.3-6.6 2.5-8.7.2-2-.3-4.8-.3-7.7.1-2.9.1-6.2-1.3-8.2-1.5-2-2.2-2.6-2.2-2.6s-3.9 2.5-7.7 2.5c-3.9.1-6.1-1.7-6.1-1.7z"/><path class="st109" d="M99.1 241.7c3-.6 4.4-.2 6.5-.3-.7-2.3-6-2.7-6.5.3zM115.1 241.4c-3-.6-4.4-.2-6.5-.3.8-2.2 6.1-2.7 6.5.3z"/><circle class="st54" cx="101.9" cy="243.4" r=".6"/><circle class="st54" cx="112.3" cy="243.4" r=".6"/><linearGradient id="SVGID_111_" gradientUnits="userSpaceOnUse" x1="-8579.946" y1="-7379.983" x2="-8579.946" y2="-7376.497" gradientTransform="matrix(-1.8476 .1215 .1423 2.1635 -14694.65 17250.27)"><stop offset="0" style="stop-color:#ee9978"/><stop offset="1" style="stop-color:#e37070"/></linearGradient><path d="m107.6 241.3 2.3 6.4c.2.4-.1 1-.6 1H106l.8-7.4h.8z" style="fill:url(#SVGID_111_)"/><path class="st73" d="M107.4 248.3c0-.3-.2-.6-.5-.6s-.5.3-.4.6h.9z"/><path class="st20" d="M110.7 252.3c0 .9-1.6 2-3.6 2s-3.5-1.2-3.6-2c-.1-1.3 1.6-.5 3.6-.5s3.7-.7 3.6.5z"/><circle class="st70" cx="101.1" cy="248.5" r="2.5"/><circle class="st70" cx="113.4" cy="248.5" r="2.5"/><path style="fill:#202020" d="m124.3 338.2 28.2-45.3-2.8 12.9-21.1 34.3-4.2-.1z"/><path class="st69" d="M126 335.5s-.6-.6-1.2-.2-3 2-3.6 3.2c0 0-1.2-.2-2.1.7-.9.9-1.2 2.1-1.2 2.1s-.8-.2-1.2.9c-.4 1.2-.2 2.6.7 3.5.8 1 2.1 3.1 3 4.4.9 1.3 3.3 1.8 4.8.8s8.9-4.1 9.8-5c.9-.8 1.5-8.3-.5-9.2-2-.9-4.5-.3-5.3-.4-.8-.1-2.1.4-2 1.5.1 1.1 1.9 1.9 1.9 1.9l-1.7.1-2.1-1.3.7-3z"/></g><defs><path id="SVGID_112_" d="M251.9 334.1h-64.6c-7.6 0-13.7-6.1-13.7-13.7v-88.7c0-7.6 6.1-13.7 13.7-13.7h64.6c7.6 0 13.7 6.1 13.7 13.7v88.7c.1 7.6-6.1 13.7-13.7 13.7z"/></defs><clipPath id="SVGID_113_"><use xlink:href="#SVGID_112_" style="overflow:visible"/></clipPath><path d="M251.9 334.4h-64.6c-7.6 0-13.7-6.1-13.7-13.7V232c0-7.6 6.1-13.7 13.7-13.7h64.6c7.6 0 13.7 6.1 13.7 13.7v88.7c.1 7.5-6.1 13.7-13.7 13.7z" style="clip-path:url(#SVGID_113_);fill:#97c1ff"/><defs><path id="SVGID_114_" d="M251.9 334.1h-64.6c-7.6 0-13.7-6.1-13.7-13.7v-88.7c0-7.6 6.1-13.7 13.7-13.7h64.6c7.6 0 13.7 6.1 13.7 13.7v88.7c.1 7.6-6.1 13.7-13.7 13.7z"/></defs><clipPath id="SVGID_115_"><use xlink:href="#SVGID_114_" style="overflow:visible"/></clipPath><path d="M235.8 334.8c2.3 4.4 6.1 18.8 6.1 18.8h-49.4s.3-10.1 7.7-19.3c5.8-7.2 7.6-7.9 7.6-7.9l21.3-1.1c-.1 0 4.4 5.2 6.7 9.5z" style="clip-path:url(#SVGID_115_);fill:#39ba93"/><defs><path id="SVGID_116_" d="M251.9 334.1h-64.6c-7.6 0-13.7-6.1-13.7-13.7v-88.7c0-7.6 6.1-13.7 13.7-13.7h64.6c7.6 0 13.7 6.1 13.7 13.7v88.7c.1 7.6-6.1 13.7-13.7 13.7z"/></defs><clipPath id="SVGID_117_"><use xlink:href="#SVGID_116_" style="overflow:visible"/></clipPath><path d="M199.2 309s9.7-3.2 19.2-3.2 17.2 1.5 17.2 1.5l3.5 12.4c-.3 2.3-3.1 10.2-5.3 12.7l-32.9 1.3-6.4-13.5 4.7-11.2z" style="clip-path:url(#SVGID_117_);fill:#39ba93"/><defs><path id="SVGID_118_" d="M251.9 334.1h-64.6c-7.6 0-13.7-6.1-13.7-13.7v-88.7c0-7.6 6.1-13.7 13.7-13.7h64.6c7.6 0 13.7 6.1 13.7 13.7v88.7c.1 7.6-6.1 13.7-13.7 13.7z"/></defs><clipPath id="SVGID_119_"><use xlink:href="#SVGID_118_" style="overflow:visible"/></clipPath><path d="m196.4 324.6 2.7 6.9c-1.2 1.5-.1 3.4-3 8.8-1.6 3-2.7 5.3-3.5 10.1.7 0 .8.5 1.6.5 10.2 0 20.3-6.9 20.3-6.9 5 1 19.8 6 27.4 7-.1-.4-1.3-4.1-1.5-4.4-1.8-5.6-4.9-11.8-6.8-15.6h.6c2.1-2.5 4.2-8.3 4.6-10.4l-3-10.6s2.6 9.2-1.3 12c-5.3 3.9-3.1 11.7-3.1 11.7l-26.5 3.1-2.2-10.1s-3.9-4-2.2-14.9l-4.1 12.8z" style="opacity:.3;clip-path:url(#SVGID_119_);fill:#405ea7;enable-background:new"/><defs><path id="SVGID_120_" d="M251.9 334.1h-64.6c-7.6 0-13.7-6.1-13.7-13.7v-88.7c0-7.6 6.1-13.7 13.7-13.7h64.6c7.6 0 13.7 6.1 13.7 13.7v88.7c.1 7.6-6.1 13.7-13.7 13.7z"/></defs><clipPath id="SVGID_121_"><use xlink:href="#SVGID_120_" style="overflow:visible"/></clipPath><path d="M255.9 332.6c-4.7-2.9-9.5-4-14.9-3.6l-5.5-21.9-36.3 1.8s-.3 3.2-2 9.8c-1.5 5.9-1.6 11.8-1.6 13-2.2 2.9-5.6 7.6-7.7 12.4l-1.2-.3c-11.3-3.4-1.6-36.5 2.3-46.3 3.9-9.8 15-9.8 23.4-14.3l14.4 2s5 2.2 13 6c7.5 3.7 16.1 41.4 16.1 41.4z" style="clip-path:url(#SVGID_121_);fill:#39ba93"/><defs><path id="SVGID_122_" d="M251.9 334.1h-64.6c-7.6 0-13.7-6.1-13.7-13.7v-88.7c0-7.6 6.1-13.7 13.7-13.7h64.6c7.6 0 13.7 6.1 13.7 13.7v88.7c.1 7.6-6.1 13.7-13.7 13.7z"/></defs><clipPath id="SVGID_123_"><use xlink:href="#SVGID_122_" style="overflow:visible"/></clipPath><path d="M255.9 332.6c1.2 6.9-3.7 10.2-9.9 10.2s-37.2-3-37.2-3l18.1-10.3 14.5-.6s4.1-.7 8.2.7c4.2 1.4 6.3 3 6.3 3z" style="clip-path:url(#SVGID_123_);fill:#f2c9b9"/><defs><path id="SVGID_124_" d="M251.9 334.1h-64.6c-7.6 0-13.7-6.1-13.7-13.7v-88.7c0-7.6 6.1-13.7 13.7-13.7h64.6c7.6 0 13.7 6.1 13.7 13.7v88.7c.1 7.6-6.1 13.7-13.7 13.7z"/></defs><clipPath id="SVGID_125_"><use xlink:href="#SVGID_124_" style="overflow:visible"/></clipPath><linearGradient id="SVGID_126_" gradientUnits="userSpaceOnUse" x1="217.145" y1="-66.971" x2="249.887" y2="-66.077" gradientTransform="translate(0 402)"><stop offset="0" style="stop-color:#ecbba0"/><stop offset="1" style="stop-color:#fff"/></linearGradient><path d="M255.9 332.6c1.2 6.9-3.7 10.2-9.9 10.2s-37.2-3-37.2-3l18.1-10.3 14.5-.6s4.1-.7 8.2.7c4.2 1.4 6.3 3 6.3 3z" style="opacity:.72;clip-path:url(#SVGID_125_);fill:url(#SVGID_126_);enable-background:new"/><defs><path id="SVGID_127_" d="M251.9 334.1h-64.6c-7.6 0-13.7-6.1-13.7-13.7v-88.7c0-7.6 6.1-13.7 13.7-13.7h64.6c7.6 0 13.7 6.1 13.7 13.7v88.7c.1 7.6-6.1 13.7-13.7 13.7z"/></defs><clipPath id="SVGID_128_"><use xlink:href="#SVGID_127_" style="overflow:visible"/></clipPath><path d="M208.7 339.8s4 .4 9.4.9c2.8-3.9 9.8-7.8 13.8-8.9 4.2-1.1 9.4-2.8 9.4-2.8l-14.5.6-18.1 10.2z" style="opacity:.3;clip-path:url(#SVGID_128_);fill:#405ea7;enable-background:new"/><defs><path id="SVGID_129_" d="M251.9 334.1h-64.6c-7.6 0-13.7-6.1-13.7-13.7v-88.7c0-7.6 6.1-13.7 13.7-13.7h64.6c7.6 0 13.7 6.1 13.7 13.7v88.7c.1 7.6-6.1 13.7-13.7 13.7z"/></defs><clipPath id="SVGID_130_"><use xlink:href="#SVGID_129_" style="overflow:visible"/></clipPath><path d="M241.1 329s-8.9-.6-21.7 7.7c-12.2 7.9-20.8 10.3-31.5 7.5 2.2-6.8 4.6-9.6 7.7-12.4v.2s12.7-1.5 26.5-4.5c13.8-2.9 19 1.5 19 1.5z" style="clip-path:url(#SVGID_130_);fill:#f3cebf"/><defs><path id="SVGID_131_" d="M251.9 334.1h-64.6c-7.6 0-13.7-6.1-13.7-13.7v-88.7c0-7.6 6.1-13.7 13.7-13.7h64.6c7.6 0 13.7 6.1 13.7 13.7v88.7c.1 7.6-6.1 13.7-13.7 13.7z"/></defs><clipPath id="SVGID_132_"><use xlink:href="#SVGID_131_" style="overflow:visible"/></clipPath><g style="clip-path:url(#SVGID_132_)"><path d="M240 295.7c-3.2-5.7-7.3-6.8-10.8-11.2-1.3-1.6-1.8-4.8-2.3-6.7-.2-.8-1-1.4-1.8-1.5l-12.6-.5c-.6 0-1.2.3-1.6.8-1.2 1.6-3 5.3-5.7 7.4-3.5 2.8-13.8 6.3-16.9 14.6-.5 1.3-1.1 3-1.6 4.8h55.7c-.7-3.3-1.5-6.2-2.4-7.7z" style="fill:#39ba93"/><path class="st123" d="M223.3 234.7c-.3-2.9-2.6-7.2-6.5-7-3.9.1-5.3 2.2-6.2 3.7-.9 1.5-3.4 3.1-6.6 3.5-3.2.4-4.5 3.6-3.9 6.2.6 2.6-.6 4.8-2.7 6-2.1 1.2-3.9 4.5-2.3 7.3s3 4 1.9 7.5 2.6 6.9 5.6 6c3-1 3.8-1 5.1.1 1.3 1.1 3.5 3.5 6.6 2.1 3.2-1.4 9-35.4 9-35.4z"/><path class="st17" d="M212.2 256.5c-.3 7.3-.4 21.5-.4 21.5s3.4 1.6 7.4 1.6 7.1-.6 7.1-.6l.4-8.6-14.5-13.9z"/><path class="st17" d="M212.2 256.5c-.3 4.6 4 16.5 10.2 17.6 7 1.2 13-6.7 15.7-12.3 2.2-4.6 2.8-10.1 1.1-15.5s-12.7-6.9-18.6-4.5c-5.8 2.5-8 8.3-8.4 14.7z"/><path class="st20" d="M223.9 264.7c-.4 1.2.7 2.6 2.5 3.1 1.8.6 3.5.1 3.9-1.1.4-1.2-1.3-.4-3.1-1-1.8-.5-2.9-2.2-3.3-1z"/><path class="st124" d="m230 258.7-2.2 4.5 2.6 1c.4.1.7-.1.6-.4l-1-5.1z"/><circle class="st125" cx="222.1" cy="256" r=".7"/><circle class="st125" cx="234.8" cy="261.7" r=".7"/><circle class="st124" cx="219.8" cy="260.7" r="2.1"/><path class="st124" d="M234.5 265.3c-1.2 0-2.1 1-2.1 2.1 0 .7.3 1.3.9 1.7 1-1.1 1.8-2.2 2.6-3.4-.4-.2-.9-.4-1.4-.4z"/><path class="st123" d="M222.1 243.2s-4 2.2-6.1 5.1c-2.1 2.9-2.8 6.7-2.8 6.7s-3.2-3.5-2.4-8.7c.5-3.4 3.8-11.1 13.4-11.9 9.6-.9 15 6.4 16.2 9.7 1.2 3.2 1.8 8.7-.6 13.7 0 0 .6-5.1.1-8.8 0 0-2.9.7-8.3-1.1-5.4-1.6-9.5-4.7-9.5-4.7z"/><path class="st124" d="M213.3 249.8s-2.9-1.2-3.7 2.7c-.8 4 3 4 3 4l.7-6.7z"/></g><path d="M388.4 388.4v.7l-.1 4-14.4-.4-.2 5.5c-12-3.2-39.2-10.3-46.9-11.8-.9-.2-1.7-.3-2.6-.4l-50-13.9-8.3-15.4.8-.4c2.1-1.2 2.9-3.8 1.8-5.9l-3.6-6.7c-1.2-2.1-3.8-2.9-5.9-1.8l-.6.3c-.1.1-.2.1-.3.1l-3.6-6.7c24.7-20.3 32-56 15.6-84.7-18.2-32-58.9-43.3-91-25-32 18.2-43.3 58.9-25 91 16.8 29.6 52.9 41.5 83.6 28.8l3.2 5.9-1.5.8c-2.2 1.2-3.1 4-1.8 6.2l3.4 6.3c1.2 2.2 4 3.1 6.2 1.8l1.5-.8 16.9 31.1-16.9 3.9c-3.8.9-6.4 4.2-6.6 7.9v.1c0 .7.1 1.5.2 2.2 1.1 4.6 5.6 7.4 10.2 6.4l20.1-4.6c.5-.1 1-.3 1.4-.4l.1.2-10.3 2.3c-3.9.9-6.5 4.3-6.7 8v.1c0 .7.1 1.5.2 2.2 1.1 4.6 5.6 7.5 10.3 6.4l6-1.3c-2.5 1.3-4.1 3.9-4.2 6.7 0 .5 0 1 .1 1.5.1.2.1.3.1.4 1 4.1 5.1 6.7 9.2 5.8l4.5-1c-2.4 1.3-3.9 4-3.4 6.8l.2 1c0 .2.1.3.1.4.7 3.4 4 5.8 7.5 5.3l6.5-1c.9-.1 2.1-.2 3.5-.3l6.7 12.4c2.6 4.8 8.6 6.5 13.3 4 1.2-.7 2.2-1.5 3-2.5 2.3-3 2.9-7.2 1-10.8l-2.8-5.2h.1l.1.1 1.7-.3c14.3-1.7 31.1-4 43.1-6.8l8.7-1.3-.2 5.8 14.4.4-.2 5.9 80.8 2.9V391.2l-79-2.8zM258 258c14.4 25.3 5.5 57.5-19.8 71.9-14.6 8.3-31.5 8.8-45.9 2.9-10.6-4.3-19.8-12-25.8-22.7-14.3-25.4-5.5-57.6 19.8-71.9 25.2-14.4 57.4-5.5 71.7 19.8z" style="opacity:.3;fill:#405162;enable-background:new"/><path class="st127" d="m257.7 210.3-4.8 6.3c-14.4-11-33.3-14.9-51-10-4.7 1.3-9.3 3.1-13.7 5.6-.4.2-.8.4-1.2.7-1.9 1.1-3.7 2.3-5.4 3.6-1.8 1.3-3.5 2.9-5.1 4.4-19 18.2-23.9 47.6-10.4 71.6 4 7 9.2 12.9 15.2 17.5l-4.8 6.3c-6.8-5.3-12.7-12-17.3-20-15.4-27.1-9.8-60.4 11.6-81 1.6-1.6 3.3-3 5.1-4.4 2.1-1.7 4.4-3.2 6.7-4.6.6-.3 1.1-.6 1.6-1 4.4-2.5 8.8-4.4 13.4-5.8 20.7-6.4 43.2-2.2 60.1 10.8zM266.9 332.9l-1 .5c-1.6.8-3.6.3-4.4-1.3l-4.1-7.4 5.5-2.9c.1 0 .1-.1.2-.1l4.2 7.5c.6 1.3.4 2.7-.4 3.7z"/><path d="M182.1 222.4c28.5-16.2 64.7-6.3 80.9 22.2 5.6 9.8 8 20.6 7.7 31.1 3-13 1.3-27.1-5.8-39.6-3.8-6.7-8.7-12.2-14.4-16.5-17-13-40.8-15.3-60.6-4.1-4.9 2.7-9.2 6.1-12.9 10.1 1.8-1.2 3.4-2.2 5.1-3.2z" style="opacity:.3;fill:#5d5d5d;enable-background:new"/><path class="st129" d="M181.6 216.6c-1.8 1.3-3.5 2.9-5.1 4.4l-2.2-2.2c-1.2-1.2-2.3-2.3-3.5-3.4 1.6-1.6 3.3-3 5.1-4.4.8.8 1.7 1.6 2.5 2.4 1 .9 2 2.1 3.2 3.2zM201.9 206.6c-4.7 1.3-9.3 3.1-13.7 5.6-.4.2-.8.4-1.2.7-1.5-2.2-3-4.4-4.5-6.7.6-.3 1.1-.6 1.6-1 4.4-2.5 8.8-4.4 13.4-5.8 1.6 2.4 3 4.8 4.4 7.2z"/><path d="M404.8 427.8c-.1 1.6 1.2 3 2.9 3 1.6.1 3-1.2 3-2.9.1-1.6-1.2-3-2.9-3-1.6 0-3 1.3-3 2.9z" style="fill:#07113d"/><path class="st131" d="M284.8 373.8c14.5-6.1 30.5-10.6 45.9-7.5 9.9 2 52.6 10.9 52.6 10.9s-1.3 39.5-.4 41.5c4.5 10.2-87.1 17.6-87.1 17.6s-19.4-58.9-11-62.5z"/><path class="st132" d="M327.7 432.8s-15.1-51.1-16.5-51.5c-1.5-.3-32-10.3-32-10.3s32.1 62.7 33.1 62.8c1.2 0 15.4-1 15.4-1z"/><path class="st133" d="m308 448.2-71.7-132.1 6.1-3.3 11.2-6 71.7 132.1c2 3.6 1.5 7.8-1 10.8-.8 1-1.8 1.9-3 2.5-4.7 2.5-10.7.7-13.3-4z"/><path d="m314 444.6-51.3-95 8.9-9.8 53.7 98.9c2 3.6 1.5 7.8-1 10.8-4 .8-8.2-1-10.3-4.9z" style="fill:#b95241"/><path class="st133" d="m281 387.5 13.7-5-5.2-9.8-20.4-10.3-3.2 5.6z"/><path d="m251 346.7 18.4-10c2.2-1.2 3.1-4 1.8-6.2l-3.4-6.3c-1.2-2.2-4-3.1-6.2-1.8l-18.4 10c-2.2 1.2-3.1 4-1.8 6.2l3.4 6.3c1.2 2.2 4 3.1 6.2 1.8z" style="fill:#435568"/><path d="m270.7 336.2-12.5 6.5c-2.1 1.2-4.8.3-5.9-1.7l-3.6-6.7c-1.2-2.1-.3-4.8 1.7-5.9l.7-.3 6.3-3.3 5.5-2.9c.1 0 .1-.1.2-.1 2.1-1 4.6-.2 5.8 1.8l3.6 6.7c1.1 2 .3 4.7-1.8 5.9z" style="fill:#6a8593"/><path d="M275.1 230.3c-4.5-8-10.5-14.8-17.4-20-20.6-15.8-49.5-18.7-73.6-5-32 18.2-43.3 58.9-25 91 4.5 8 10.5 14.7 17.3 20 20.7 15.9 49.7 18.9 73.8 5.2 32-18.4 43.3-59.2 24.9-91.2zm-30.8 81c-19.8 11.2-43.8 8.8-60.8-4.2-5.6-4.3-10.5-9.8-14.2-16.4-14.9-26.5-5.8-60.2 20.7-75.1 19.8-11.2 43.5-8.9 60.6 4.1 5.7 4.4 10.7 9.9 14.4 16.5 15.1 26.3 5.7 60-20.7 75.1z" style="fill:#638896"/><path class="st132" d="M245.9 388.9c0 .8.1 1.5.2 2.2 1.1 4.6 5.6 7.4 10.2 6.4l20.1-4.6c3.9-.9 6.5-4.2 6.6-8 0-.7-.1-1.5-.2-2.2v-.1c-1.1-4.5-5.6-7.4-10.2-6.4l-20.1 4.6c-3.8 1-6.5 4.3-6.6 8.1z"/><path class="st131" d="M245.9 388.9c1.1 4.5 5.6 7.4 10.2 6.3l20.1-4.6c3.8-.8 6.4-4.2 6.6-7.9-1.1-4.5-5.6-7.4-10.2-6.4l-20.1 4.6c-3.8.9-6.5 4.2-6.6 8z"/><path class="st132" d="M260.9 403c0 .7.1 1.5.2 2.2 1.1 4.6 5.6 7.5 10.3 6.4l22.5-5.1c3.9-.9 6.5-4.3 6.7-8.1 0-.7-.1-1.5-.2-2.2-.1-.2-.1-.3-.1-.5-1.2-4.3-5.7-7-10.1-6l-22.5 5.1c-4 1-6.6 4.4-6.8 8.2z"/><path class="st131" d="M260.9 403c1.3 4.3 5.7 6.9 10.1 5.9l22.5-5.1c3.9-.9 6.5-4.2 6.7-8-1.2-4.3-5.7-7-10.1-6l-22.5 5.1c-3.9.9-6.5 4.3-6.7 8.1z"/><path class="st132" d="M273.2 416.9c0 .5 0 1 .1 1.5.1.2.1.3.1.4 1 4.1 5.1 6.7 9.2 5.8l19.2-4.4c3.5-.8 5.9-3.9 6-7.3 0-.6-.1-1.3-.2-2-.1-.4-.3-.9-.4-1.3-1.5-3.3-5.1-5.3-8.8-4.4l-19.2 4.4c-3.5.9-5.9 3.9-6 7.3z"/><path class="st131" d="M273.2 416.9c0 .5 0 1 .1 1.5 1.5 3.4 5.1 5.3 8.8 4.5l19.2-4.4c3.5-.8 5.9-3.9 6-7.3 0-.5 0-1-.1-1.6-1.5-3.3-5.1-5.3-8.8-4.4l-19.2 4.4c-3.5.9-5.9 3.9-6 7.3z"/><path class="st132" d="m283.6 430.4.2 1c0 .2.1.3.1.4.7 3.4 4 5.8 7.5 5.3l19.1-2.7c3.6-.5 6.2-3.9 5.7-7.5l-.2-1c-.1-.9-.4-1.7-.9-2.5-1.3-2.2-3.9-3.6-6.7-3.2l-19.1 2.7c-3.7.5-6.2 3.9-5.7 7.5z"/><path class="st131" d="m283.6 430.4.2 1c0 .2.1.3.1.4 1.3 2.2 3.9 3.6 6.7 3.2l19.1-2.7c3.6-.5 6.2-3.9 5.7-7.5l-.2-1c0-.2-.1-.3-.1-.4-1.3-2.2-3.9-3.6-6.7-3.2l-19.1 2.7c-3.7.5-6.2 3.9-5.7 7.5zM345.7 389.9 299 377.1l-20.6-6.9c-6.9-1.9-10.5-6.3-11-13.4v-.6c0-.8.2-1.7.6-2.3.7-1.5 2.3-1.8 4.1-1.6 1.1.1 2.1.3 3.1.6l7.1 2.4 11.9 4.1 38.8 7.4 12.7 23.1z"/><g class="st138"><path class="st139" d="m269.8 379.9 3.4-.9c.4-.1.8-.2 1.2-.2 2.2 0 4 1.5 4.5 3.6.6 2.5-1 5-3.4 5.5l-3.6.9-2.1-8.9z"/></g><g class="st138"><path class="st139" d="m287.8 393.7 3.3-.9c.4-.1.8-.2 1.2-.2 2.1 0 3.9 1.4 4.4 3.5.6 2.4-1 4.8-3.4 5.4l-3.5.8-2-8.6z"/></g><g class="st138"><path class="st139" d="m296.4 408.9 3.1-.8c.4-.1.7-.2 1.1-.2 2 0 3.7 1.3 4.2 3.1.3 1 .1 2.1-.4 3-.6 1-1.6 1.6-2.7 1.9l-3.4.8-1.9-7.8z"/></g><g class="st138"><path class="st139" d="m305.4 423.4 3-.6c.2-.1.5-.1.7-.1 2 0 3.7 1.5 4 3.4.3 2.2-1.2 4.2-3.4 4.5l-3.2.5-1.1-7.7z"/></g><path d="M282.4 355.3c0 .1 0 .1-.1.2l-1.5 4c-.1.2-.3.4-.6.4-.1 0-.1 0-.2-.1-2-.6-6.7-2.2-7.9-4.9-.4-.8-.4-1.7-.1-2.6 0-.1.1-.1.1-.1.3-.6 2 .1 3.1.6l7.2 2.5z" style="fill:#ffd7c5"/><path class="st132" d="M266.8 356.7v.2c.5 7 3.7 11.2 12.9 14.9l31.4 13c.1 0 7.1-4 7.2-4.1 0-.7-39.5-12.1-45.7-16.4-8.4-5.8-3.5-12.6-3.6-11.6-1.7.6-2 2.9-2.2 4z"/><path class="st132" d="m323.1 391.8-11.5-9.7 11.3 52.7 62.4-8.9-2.1-50.8h-8.4l-2.6 24.5c.1 0-23.8 13-49.1-7.8z"/><path transform="matrix(.03211 -.9995 .9995 .03211 -28.417 774.81)" class="st20" d="M356.5 393h58.6v18.1h-58.6z"/><path style="fill:#2552c1" d="m390 441 76.9 2.8v-68.6l-74.7-2.7z"/><path class="st23" d="m390.3 435.4 76.6 2.8v-62.9l-74.6-2.8z"/></svg>