<?xml version="1.0" encoding="utf-8"?>
<!-- Generator: Adobe Illustrator 23.0.1, SVG Export Plug-In . SVG Version: 6.00 Build 0)  -->
<svg version="1.1" id="Layer_1" xmlns="http://www.w3.org/2000/svg" xmlns:xlink="http://www.w3.org/1999/xlink" x="0px" y="0px"
	 viewBox="0 0 1113.6 844.1" style="enable-background:new 0 0 1113.6 844.1;" xml:space="preserve">
<style type="text/css">
	.st0{opacity:0.1;fill:#3861E5;enable-background:new    ;}
	.st1{opacity:0.5;}
	.st2{fill:none;stroke:#535461;stroke-width:2;stroke-miterlimit:10;}
	.st3{fill:#3861E5;}
	.st4{fill:#43E4AB;}
	.st5{opacity:0.5;fill:#FFFFFF;enable-background:new    ;}
	.st6{fill:#9AB4F7;}
	.st7{fill:#474059;}
	.st8{opacity:0.1;enable-background:new    ;}
	.st9{fill:url(#SVGID_1_);}
	.st10{fill:#FFFFFF;}
	.st11{fill:#C0BCCF;}
	.st12{opacity:0.5;fill:#C0BCCF;enable-background:new    ;}
	.st13{opacity:0.5;fill:#3861E5;enable-background:new    ;}
	.st14{fill:url(#SVGID_2_);}
	.st15{fill:#493545;}
	.st16{fill:#C77485;}
	.st17{fill:#444176;}
	.st18{fill:url(#SVGID_3_);}
	.st19{fill:#F1D2D7;}
	.st20{fill:url(#SVGID_4_);}
	.st21{fill:#53526B;}
	.st22{opacity:5.000000e-02;enable-background:new    ;}
	.st23{fill:#5F5D7E;}
	.st24{opacity:2.000000e-02;enable-background:new    ;}
	.st25{fill:#E82127;}
	.st26{fill:#D6DBE6;}
	.st27{fill:#FDC2CC;}
	.st28{fill:#3348E2;}
	.st29{fill:url(#SVGID_5_);}
	.st30{fill:url(#SVGID_6_);}
	.st31{fill:#865A61;}
	.st32{fill:#555388;}
</style>
<title>people search</title>
<path class="st0" d="M1047,458.2c-39.2,53.7-26.2,130.4-3.6,191.5c7.6,20.5,16.2,42.1,12.3,64.3c-4.8,27.2-27.4,47.6-50.8,58.7
	c-42.8,20.2-93.3,17-131.5-8.5c-33-22-56.2-58.6-89.9-79.5c-56.3-35-129.4-19.4-192,7.4c-44.3,18.9-92.9,43.3-136.1,25.8
	c-30.4-12.3-50.9-43.6-61.6-77.1c-5.2-16.2-8.8-33.7-19.2-46.3c-6.2-7.5-14.3-12.8-22.7-17.1c-76.4-40-174.6-15-248.7-59.6
	c-50-30.1-81.1-88.6-94.1-150.1s-9.7-126.4-4.6-190.2C8.2,132.1,13.9,83.6,41.2,48C70,10.3,118.4-4.7,161.6,1.2
	s81.9,29.9,115.8,58.6c42.4,35.7,81.4,80.6,134.1,94.2c35.9,9.2,74.1,2.7,111.4-0.2c62.4-4.8,124.6,0.7,186.4,7
	c59.2,6,118.7,12.7,174.8,32.4c39.7,13.9,71.1,40.2,108.4,58.2c24.3,11.7,51.1,14.4,74,29.6c28.3,18.6,53.8,51.7,45.5,91.3
	C1104.1,410,1067.8,429.7,1047,458.2z"/>
<g class="st1">
	<path class="st2" d="M855,703.2c0,0,3.3-97.8,56.2-153c22.2-23.2,36.8-52.6,40.6-84.5c1.8-15.1,2.2-30.4,1.2-45.6"/>
	<path class="st3" d="M986.2,385.2c-3.6,10.9-33.9,36-33.9,36s-9.3-38.2-5.7-49.1c3.6-10.9,15.4-16.8,26.3-13.2
		C983.9,362.5,989.8,374.3,986.2,385.2L986.2,385.2L986.2,385.2z"/>
	<path class="st3" d="M998.8,456.5c-9,7.2-48,11.8-48,11.8s13-37.1,22-44.3c8.7-7.5,21.8-6.6,29.4,2c7.5,8.7,6.6,21.8-2,29.4
		C999.7,455.8,999.3,456.2,998.8,456.5z"/>
	<path class="st3" d="M963.1,559.3c-11.4,1.7-47.4-14-47.4-14s29.9-25.5,41.3-27.2c11.4-1.7,22,6.2,23.6,17.6
		S974.5,557.7,963.1,559.3L963.1,559.3L963.1,559.3z"/>
	<path class="st3" d="M918.6,631.1c-10.9,3.6-49.1-5.8-49.1-5.8s25.2-30.2,36.1-33.8c10.9-3.6,22.7,2.4,26.3,13.3
		C935.5,615.7,929.6,627.5,918.6,631.1L918.6,631.1z"/>
	<path class="st3" d="M908.6,456.7c5.3,10.2,39.2,30.2,39.2,30.2s3.1-39.2-2.2-49.4c-5.3-10.2-17.9-14.2-28.1-8.9
		C907.3,433.9,903.3,446.5,908.6,456.7L908.6,456.7z"/>
	<path class="st3" d="M857.6,541.2c8.1,8.2,46.4,17.1,46.4,17.1s-8.8-38.3-16.9-46.5c-8.1-8.1-21.3-8.2-29.4-0.1
		S849.5,533.1,857.6,541.2L857.6,541.2L857.6,541.2z"/>
	<path class="st3" d="M819.3,630.2c6.6,9.4,42.8,24.7,42.8,24.7s-2.2-39.3-8.8-48.7c-6.3-9.6-19.2-12.3-28.8-6
		c-9.6,6.3-12.3,19.2-6,28.8C818.8,629.5,819,629.9,819.3,630.2L819.3,630.2z"/>
	<path class="st2" d="M866.6,662.8c0,0-30-43.6-24.7-84.7c2.3-17.2-1-34.7-9.5-49.9c-4.1-7.2-8.8-13.9-14.1-20.2"/>
	<path class="st4" d="M821.4,482.1c1.9,5.9-3.2,26.6-3.2,26.6S801.9,495,800,489.1c-1.9-5.9,1.3-12.3,7.2-14.2
		C813.1,472.9,819.5,476.2,821.4,482.1L821.4,482.1z"/>
	<path class="st4" d="M849.9,509.1c-1.6,6-17.1,20.6-17.1,20.6s-6.3-20.3-4.7-26.4c1.6-6,7.8-9.6,13.8-8
		C847.9,496.9,851.5,503.1,849.9,509.1L849.9,509.1z"/>
	<path class="st4" d="M867.4,565.3c-4.4,4.4-25.2,9.1-25.2,9.1s4.8-20.7,9.3-25.1c4.4-4.4,11.6-4.4,16,0S871.8,561,867.4,565.3
		L867.4,565.3z"/>
	<path class="st4" d="M871.1,610.9c-3.6,5.1-23.3,13.2-23.3,13.2s1.3-21.3,4.9-26.3c3.6-5.1,10.6-6.3,15.7-2.7
		C873.5,598.8,874.7,605.8,871.1,610.9L871.1,610.9L871.1,610.9z"/>
	<path class="st4" d="M810.6,538.1c5.6,2.7,26.8,0.5,26.8,0.5s-11.3-18.1-16.9-20.8c-5.6-2.7-12.3-0.4-15.1,5.2
		S805,535.4,810.6,538.1z"/>
	<path class="st4" d="M815.6,591.4c6.2,0.9,25.7-7.5,25.7-7.5S825.2,570,819,569.1c-6.2-0.9-11.9,3.3-12.8,9.4
		C805.2,584.7,809.5,590.5,815.6,591.4L815.6,591.4z"/>
	<path class="st4" d="M827.6,642.5c5.9,2,26.6-3,26.6-3s-13.6-16.4-19.5-18.4c-5.9-2-12.3,1.2-14.3,7.1S821.7,640.5,827.6,642.5
		L827.6,642.5z"/>
	<path class="st5" d="M821.4,482.1c1.9,5.9-3.2,26.6-3.2,26.6S801.9,495,800,489.1c-1.9-5.9,1.3-12.3,7.2-14.2
		C813.1,472.9,819.5,476.2,821.4,482.1L821.4,482.1z"/>
	<path class="st6" d="M849.9,509.1c-1.6,6-17.1,20.6-17.1,20.6s-6.3-20.3-4.7-26.4c1.6-6,7.8-9.6,13.8-8
		C847.9,496.9,851.5,503.1,849.9,509.1L849.9,509.1z"/>
	<path class="st6" d="M867.4,565.3c-4.4,4.4-25.2,9.1-25.2,9.1s4.8-20.7,9.3-25.1c4.4-4.4,11.6-4.4,16,0S871.8,561,867.4,565.3
		L867.4,565.3z"/>
	<path class="st6" d="M871.1,610.9c-3.6,5.1-23.3,13.2-23.3,13.2s1.3-21.3,4.9-26.3c3.6-5.1,10.6-6.3,15.7-2.7
		C873.5,598.8,874.7,605.8,871.1,610.9L871.1,610.9L871.1,610.9z"/>
	<path class="st6" d="M810.6,538.1c5.6,2.7,26.8,0.5,26.8,0.5s-11.3-18.1-16.9-20.8c-5.6-2.7-12.3-0.4-15.1,5.2
		S805,535.4,810.6,538.1z"/>
	<path class="st6" d="M815.6,591.4c6.2,0.9,25.7-7.5,25.7-7.5S825.2,570,819,569.1c-6.2-0.9-11.9,3.3-12.8,9.4
		C805.2,584.7,809.5,590.5,815.6,591.4L815.6,591.4z"/>
	<path class="st6" d="M827.6,642.5c5.9,2,26.6-3,26.6-3s-13.6-16.4-19.5-18.4c-5.9-2-12.3,1.2-14.3,7.1S821.7,640.5,827.6,642.5
		L827.6,642.5z"/>
	<polygon class="st7" points="811.1,781.1 896.4,781.1 917.8,651 789.8,651 	"/>
	<polygon class="st8" points="806.1,651 826,772.6 897.8,772.6 896.4,781.1 811.1,781.1 789.8,651 	"/>
</g>
<linearGradient id="SVGID_1_" gradientUnits="userSpaceOnUse" x1="514.28" y1="49.41" x2="514.28" y2="804.71" gradientTransform="matrix(1 0 0 -1 0 844)">
	<stop  offset="0" style="stop-color:#808080;stop-opacity:0.25"/>
	<stop  offset="0.54" style="stop-color:#808080;stop-opacity:0.12"/>
	<stop  offset="1" style="stop-color:#808080;stop-opacity:0.1"/>
</linearGradient>
<rect x="201.3" y="39.3" class="st9" width="626" height="755.3"/>
<rect x="209.3" y="49" class="st10" width="610" height="736"/>
<rect x="446.3" y="131.9" class="st11" width="246" height="12"/>
<rect x="446.3" y="169.9" class="st11" width="246" height="12"/>
<rect x="505.3" y="207.9" class="st3" width="128" height="12"/>
<rect x="446.3" y="373" class="st12" width="246" height="12"/>
<rect x="446.3" y="411" class="st12" width="246" height="12"/>
<rect x="505.3" y="449" class="st13" width="128" height="12"/>
<rect x="446.3" y="614" class="st12" width="246" height="12"/>
<rect x="446.3" y="652" class="st12" width="246" height="12"/>
<rect x="505.3" y="690" class="st13" width="128" height="12"/>
<g class="st1">
	<path class="st11" d="M378.3,416.9c0,16.2-5.8,31.9-16.4,44.3c-0.5,0.6-1.1,1.2-1.6,1.8c-0.3,0.3-0.6,0.6-0.8,0.9
		c-2.3,2.4-4.7,4.6-7.3,6.6l-0.2,0.1c-4,3.1-8.3,5.8-12.9,7.9l0,0c-2.4,1.1-4.8,2.1-7.2,2.9l-0.9,0.3c-0.6,0.2-1.1,0.4-1.7,0.5
		l-0.2,0.1c-12.3,3.5-25.3,3.5-37.5,0h-0.1c-1-0.3-2-0.6-2.9-0.9l-0.9-0.3c-3.2-1.1-6.4-2.5-9.4-4.2l-0.2-0.1
		c-4.8-2.6-9.3-5.8-13.3-9.4l-0.3-0.3c-2.1-1.9-4-3.9-5.8-6c-0.2-0.3-0.5-0.5-0.7-0.8c-0.4-0.5-0.9-1.1-1.3-1.6
		c-23-29.7-17.7-72.4,12-95.4c29.7-23,72.4-17.7,95.4,12C373.2,387.2,378.3,401.8,378.3,416.9z"/>
	
		<linearGradient id="SVGID_2_" gradientUnits="userSpaceOnUse" x1="352.4763" y1="335.18" x2="352.4763" y2="456.2221" gradientTransform="matrix(1 0 0 -1 -43.2 820.14)">
		<stop  offset="0" style="stop-color:#808080;stop-opacity:0.25"/>
		<stop  offset="0.54" style="stop-color:#808080;stop-opacity:0.12"/>
		<stop  offset="1" style="stop-color:#808080;stop-opacity:0.1"/>
	</linearGradient>
	<path class="st14" d="M359.7,439.9l-5.2-2.3c0.1-0.8,0.1-1.6,0.1-2.4c0-0.7,0-1.3,0-2c-0.5-5.3-3.9-9.8-6.2-14.7
		c-2.2-4.4-3.5-9.1-4.1-14c-0.6-6,0-12.2-2.2-17.9c-1.8-4.5-5.3-8.4-9.1-11.7c-4.3-4-9.2-7.1-14.6-9.3c-5.5-2-11.9-2.5-17.5-0.5
		c-5,1.8-8.9,5.5-12.6,9.1c-2.7,2.4-5.1,5.1-7.1,8.1c-2.3,3.7-3.2,8-4,12.2c-1.2,6.8-2,13.6-2.5,20.4c-0.4,5.7-1,12.2-5.9,15.7
		c-2.4,1.7-5.7,2.7-6.8,5.3c-0.3,0.8-0.4,1.6-0.4,2.5c0,0.7,0,1.4,0.1,2.1c0.1,0.4,0.1,0.8,0.3,1.2c-1.4,3.5-2.6,7-3.5,10.7
		c-0.7,2.7-1.4,5.4-2,7.9h1.6h0.9l9.3,0.2h0.1l10,0.2h0l9.3,0.2h0.2l2.7,0.2h0.9l37.3,0.9h0.2l2.5,0.1h0.9l7.5,0.2l0,0l11,0.3h0.1
		l8.3,0.2h0.9h1.7l-0.4-8.7C363.3,440.7,359.7,439.9,359.7,439.9z M317.8,438.8c0,7.4-7.9,16.4-7.9,16.4l-7.9-10.8l0.3-0.4l7.6,10.4
		c0,0,7.9-9,7.9-16.4c0.2-0.4,0.4-0.7,0.6-1.1l0.2,0.6C318.3,437.9,318,438.4,317.8,438.8z M329.9,467.7c0-0.4,0-0.8-0.1-1.1
		s-0.1-0.7-0.1-1.1s-0.1-0.7-0.1-1.1c-0.1-0.4-0.1-0.7-0.2-1.1c-0.1-0.4-0.1-0.7-0.2-1.1c0-0.1,0-0.2-0.1-0.4
		c-0.1-0.5-0.2-0.9-0.4-1.4c-0.1-0.5-0.2-0.8-0.3-1.1c0-0.2-0.1-0.3-0.2-0.5c-0.1-0.2-0.2-0.5-0.3-0.8l-0.2-0.5
		c-0.1-0.2-0.2-0.5-0.3-0.7c-0.1-0.4-0.3-0.8-0.5-1.3c-0.2-0.4-0.3-0.8-0.5-1.2c-0.3-0.8-0.7-1.7-1.1-2.5c-1.5-3.2-3.1-6.4-4.6-9.6
		c-0.8-1.7-1.5-3.3-2.1-5.1l-0.2,0.3c-0.3,0.4-0.6,0.9-0.8,1.3c0,7.4-7.9,16.4-7.9,16.4l-7.9-10.8l-6.9,10c-1,0.5-2,2.2-2.8,4.6
		c-0.2,0.7-0.4,1.4-0.6,2.1c-0.1,0.5-0.3,1-0.4,1.6c-0.1,0.3-0.1,0.5-0.2,0.8l-0.2,0.9v0.1c-0.1,0.6-0.2,1.2-0.4,1.8
		c-0.1,0.6-0.2,1.3-0.4,2c-0.1,0.4-0.1,0.9-0.2,1.3c-0.1,0.8-0.3,1.7-0.4,2.5c-0.1,0.5-0.1,1-0.2,1.5l-0.2,1.9
		c0.5,1.5,1.1,3,1.7,4.5c0.4,0.8,0.6,1.7,0.6,2.6c12.3,3.3,25.2,3.3,37.5,0c0,0,0-0.1,0-0.1c-0.2-0.8-0.3-1.7-0.2-2.5l0,0
		c0.2-2.4,0.5-4.8,1-7.2c0.1-1.2,0.2-2.3,0.2-3.5v-0.4C329.9,468.4,329.9,468,329.9,467.7L329.9,467.7z M329.9,467.7
		c0-0.4,0-0.8-0.1-1.1s-0.1-0.7-0.1-1.1s-0.1-0.7-0.1-1.1c-0.1-0.4-0.1-0.7-0.2-1.1c-0.1-0.4-0.1-0.7-0.2-1.1c0-0.1,0-0.2-0.1-0.4
		c-0.1-0.5-0.2-0.9-0.4-1.4c-0.1-0.5-0.2-0.8-0.3-1.1c0-0.2-0.1-0.3-0.2-0.5c-0.1-0.2-0.2-0.5-0.3-0.8l-0.2-0.5
		c-0.1-0.2-0.2-0.5-0.3-0.7c-0.1-0.4-0.3-0.8-0.5-1.3c-0.2-0.4-0.3-0.8-0.5-1.2c-0.3-0.8-0.7-1.7-1.1-2.5c-1.5-3.2-3.1-6.4-4.6-9.6
		c-0.8-1.7-1.5-3.3-2.1-5.1l-0.2,0.3c-0.3,0.4-0.6,0.9-0.8,1.3c0,7.4-7.9,16.4-7.9,16.4l-7.9-10.8l-6.9,10c-1,0.5-2,2.2-2.8,4.6
		c-0.2,0.7-0.4,1.4-0.6,2.1c-0.1,0.5-0.3,1-0.4,1.6c-0.1,0.3-0.1,0.5-0.2,0.8l-0.2,0.9v0.1c-0.1,0.6-0.2,1.2-0.4,1.8
		c-0.1,0.6-0.2,1.3-0.4,2c-0.1,0.4-0.1,0.9-0.2,1.3c-0.1,0.8-0.3,1.7-0.4,2.5c-0.1,0.5-0.1,1-0.2,1.5l-0.2,1.9
		c0.5,1.5,1.1,3,1.7,4.5c0.4,0.8,0.6,1.7,0.6,2.6c12.3,3.3,25.2,3.3,37.5,0c0,0,0-0.1,0-0.1c-0.2-0.8-0.3-1.7-0.2-2.5l0,0
		c0.2-2.4,0.5-4.8,1-7.2c0.1-1.2,0.2-2.3,0.2-3.5v-0.4C329.9,468.4,329.9,468,329.9,467.7L329.9,467.7z M329.9,467.7
		c0-0.4,0-0.8-0.1-1.1s-0.1-0.7-0.1-1.1s-0.1-0.7-0.1-1.1c-0.1-0.4-0.1-0.7-0.2-1.1c-0.1-0.4-0.1-0.7-0.2-1.1c0-0.1,0-0.2-0.1-0.4
		c-0.1-0.5-0.2-0.9-0.4-1.4c-0.1-0.5-0.2-0.8-0.3-1.1c0-0.2-0.1-0.3-0.2-0.5c-0.1-0.2-0.2-0.5-0.3-0.8l-0.2-0.5
		c-0.1-0.2-0.2-0.5-0.3-0.7c-0.1-0.4-0.3-0.8-0.5-1.3c-0.2-0.4-0.3-0.8-0.5-1.2c-0.3-0.8-0.7-1.7-1.1-2.5c-1.5-3.2-3.1-6.4-4.6-9.6
		c-0.8-1.7-1.5-3.3-2.1-5.1l-0.2,0.3c-0.3,0.4-0.6,0.9-0.8,1.3c0,7.4-7.9,16.4-7.9,16.4l-7.9-10.8l-6.9,10c-1,0.5-2,2.2-2.8,4.6
		c-0.2,0.7-0.4,1.4-0.6,2.1c-0.1,0.5-0.3,1-0.4,1.6c-0.1,0.3-0.1,0.5-0.2,0.8l-0.2,0.9v0.1c-0.1,0.6-0.2,1.2-0.4,1.8
		c-0.1,0.6-0.2,1.3-0.4,2c-0.1,0.4-0.1,0.9-0.2,1.3c-0.1,0.8-0.3,1.7-0.4,2.5c-0.1,0.5-0.1,1-0.2,1.5l-0.2,1.9
		c0.5,1.5,1.1,3,1.7,4.5c0.4,0.8,0.6,1.7,0.6,2.6c12.3,3.3,25.2,3.3,37.5,0c0,0,0-0.1,0-0.1c-0.2-0.8-0.3-1.7-0.2-2.5l0,0
		c0.2-2.4,0.5-4.8,1-7.2c0.1-1.2,0.2-2.3,0.2-3.5v-0.4C329.9,468.4,329.9,468,329.9,467.7L329.9,467.7z M329.9,467.7
		c0-0.4,0-0.8-0.1-1.1s-0.1-0.7-0.1-1.1s-0.1-0.7-0.1-1.1c-0.1-0.4-0.1-0.7-0.2-1.1c-0.1-0.4-0.1-0.7-0.2-1.1c0-0.1,0-0.2-0.1-0.4
		c-0.1-0.5-0.2-0.9-0.4-1.4c-0.1-0.5-0.2-0.8-0.3-1.1c0-0.2-0.1-0.3-0.2-0.5c-0.1-0.2-0.2-0.5-0.3-0.8l-0.2-0.5
		c-0.1-0.2-0.2-0.5-0.3-0.7c-0.1-0.4-0.3-0.8-0.5-1.3c-0.2-0.4-0.3-0.8-0.5-1.2c-0.3-0.8-0.7-1.7-1.1-2.5c-1.5-3.2-3.1-6.4-4.6-9.6
		c-0.8-1.7-1.5-3.3-2.1-5.1l-0.2,0.3c-0.3,0.4-0.6,0.9-0.8,1.3c0,7.4-7.9,16.4-7.9,16.4l-7.9-10.8l-6.9,10c-1,0.5-2,2.2-2.8,4.6
		c-0.2,0.7-0.4,1.4-0.6,2.1c-0.1,0.5-0.3,1-0.4,1.6c-0.1,0.3-0.1,0.5-0.2,0.8l-0.2,0.9v0.1c-0.1,0.6-0.2,1.2-0.4,1.8
		c-0.1,0.6-0.2,1.3-0.4,2c-0.1,0.4-0.1,0.9-0.2,1.3c-0.1,0.8-0.3,1.7-0.4,2.5c-0.1,0.5-0.1,1-0.2,1.5l-0.2,1.9
		c0.5,1.5,1.1,3,1.7,4.5c0.4,0.8,0.6,1.7,0.6,2.6c12.3,3.3,25.2,3.3,37.5,0c0,0,0-0.1,0-0.1c-0.2-0.8-0.3-1.7-0.2-2.5l0,0
		c0.2-2.4,0.5-4.8,1-7.2c0.1-1.2,0.2-2.3,0.2-3.5v-0.4C329.9,468.4,329.9,468,329.9,467.7L329.9,467.7z"/>
	<rect x="284.3" y="398" class="st15" width="46" height="31"/>
	<path class="st16" d="M337.9,432.1l-19.3,27.1l-20.1-1.8c0,0-26.3,1.7-8.8-18.4c8.4-9.7,11.2-17.7,11.8-23.5
		c0.6-6.2-1.3-9.8-1.3-9.8l21.9-2.6c-1,2.9-1.1,6.1-0.4,9.1C324.5,423.8,337.9,432.1,337.9,432.1z"/>
	<path class="st8" d="M321.8,412.4c-5.8,4.4-13.4,5.6-20.3,3.3c0.6-6.2-1.3-9.8-1.3-9.8l21.9-2.6
		C321.2,406.2,321.1,409.4,321.8,412.4z"/>
	<circle class="st16" cx="308.6" cy="394.1" r="21.9"/>
	<path class="st8" d="M337.1,433.3l-0.5-2l-0.4-1.8l-0.6-2.6l-0.1-0.5l-0.1-0.4c0,0,0.5-1.6-2.9-1.1l-0.6,0.1
		c-0.5,0.1-1.2,0.3-1.9,0.5l-0.6,0.2l-0.9,0.3l0,0c-2.7,0.9-5.2,2.4-7.3,4.4c-0.9,0.9-1.7,1.9-2.4,2.9c-0.1,0.1-0.1,0.2-0.2,0.3
		c-0.2,0.4-0.4,0.8-0.6,1.2c0,7.9-7.9,17.5-7.9,17.5l-7.7-11.1l-0.1-0.2l-1.8-2.7l-0.6-0.9l-0.2-0.3l-4-5.4l-1-1.3l-0.3-0.5
		l-0.5-0.6l-1.1-1.5l-4.5,2.6l-6,3.5l-3.5,22.8v0.6l0.1,1.9l0.7,12.4v0.2l-1.3,5.1l0.2,0.1c3,1.6,6.2,3,9.4,4.2l0.9,0.3
		c1,0.3,1.9,0.6,2.9,0.9c0,0.1,0.1,0.3,0.1,0.5c0-0.1,0-0.3,0-0.4c12.3,3.5,25.3,3.5,37.5,0l0.2-0.1c0.6-0.2,1.1-0.3,1.7-0.5
		l0.9-0.3c2.5-0.8,4.9-1.8,7.2-2.9l0.8-17.9l0.6-12.9V447L337.1,433.3z"/>
	<path class="st10" d="M329.9,466.5c0-0.4,0-0.8-0.1-1.2s-0.1-0.8-0.1-1.1s-0.1-0.8-0.1-1.1s-0.1-0.8-0.2-1.1s-0.1-0.8-0.2-1.1
		c0-0.1,0-0.3-0.1-0.4c-0.1-0.5-0.2-1-0.4-1.5s-0.2-0.8-0.3-1.2c0-0.2-0.1-0.4-0.2-0.5c-0.1-0.2-0.2-0.6-0.3-0.9l-0.2-0.6
		c-0.1-0.3-0.2-0.5-0.3-0.8c-0.1-0.5-0.3-0.9-0.5-1.3c-0.2-0.4-0.3-0.9-0.5-1.3c-0.3-0.9-0.7-1.8-1.1-2.7c-1.5-3.5-3.1-6.9-4.6-10.3
		c-0.8-1.8-1.5-3.6-2.1-5.4l-0.2,0.3c-0.3,0.5-0.6,0.9-0.8,1.4c0,7.9-7.9,17.5-7.9,17.5l-7.9-11.5l-6.9,10.7c-1,0.5-2,2.3-2.8,4.9
		c-0.2,0.7-0.4,1.5-0.6,2.3c-0.1,0.5-0.3,1.1-0.4,1.7c-0.1,0.3-0.1,0.6-0.2,0.9l-0.2,0.9v0.1c-0.1,0.6-0.2,1.3-0.4,1.9
		c-0.1,0.7-0.2,1.4-0.4,2.1c-0.1,0.5-0.1,0.9-0.2,1.4c-0.1,0.9-0.3,1.8-0.4,2.7c-0.1,0.5-0.1,1-0.2,1.5l-0.2,2
		c0.5,1.6,1.1,3.3,1.7,4.9c0.4,0.9,0.6,1.8,0.6,2.8c12.3,3.5,25.3,3.5,37.5,0c0,0,0-0.1,0-0.1c-0.2-0.9-0.3-1.8-0.2-2.7l0,0
		c0.2-2.6,0.5-5.1,1-7.7c0.1-1.2,0.2-2.5,0.2-3.8v-0.5C329.9,467.2,329.9,466.9,329.9,466.5z M329.9,466.5c0-0.4,0-0.8-0.1-1.2
		s-0.1-0.8-0.1-1.1s-0.1-0.8-0.1-1.1s-0.1-0.8-0.2-1.1s-0.1-0.8-0.2-1.1c0-0.1,0-0.3-0.1-0.4c-0.1-0.5-0.2-1-0.4-1.5
		s-0.2-0.8-0.3-1.2c0-0.2-0.1-0.4-0.2-0.5c-0.1-0.2-0.2-0.6-0.3-0.9l-0.2-0.6c-0.1-0.3-0.2-0.5-0.3-0.8c-0.1-0.5-0.3-0.9-0.5-1.3
		c-0.2-0.4-0.3-0.9-0.5-1.3c-0.3-0.9-0.7-1.8-1.1-2.7c-1.5-3.5-3.1-6.9-4.6-10.3c-0.8-1.8-1.5-3.6-2.1-5.4l-0.2,0.3
		c-0.3,0.5-0.6,0.9-0.8,1.4c0,7.9-7.9,17.5-7.9,17.5l-7.9-11.5l-6.9,10.7c-1,0.5-2,2.3-2.8,4.9c-0.2,0.7-0.4,1.5-0.6,2.3
		c-0.1,0.5-0.3,1.1-0.4,1.7c-0.1,0.3-0.1,0.6-0.2,0.9l-0.2,0.9v0.1c-0.1,0.6-0.2,1.3-0.4,1.9c-0.1,0.7-0.2,1.4-0.4,2.1
		c-0.1,0.5-0.1,0.9-0.2,1.4c-0.1,0.9-0.3,1.8-0.4,2.7c-0.1,0.5-0.1,1-0.2,1.5l-0.2,2c0.5,1.6,1.1,3.3,1.7,4.9
		c0.4,0.9,0.6,1.8,0.6,2.8c12.3,3.5,25.3,3.5,37.5,0c0,0,0-0.1,0-0.1c-0.2-0.9-0.3-1.8-0.2-2.7l0,0c0.2-2.6,0.5-5.1,1-7.7
		c0.1-1.2,0.2-2.5,0.2-3.8v-0.5C329.9,467.2,329.9,466.9,329.9,466.5z M329.9,466.5c0-0.4,0-0.8-0.1-1.2s-0.1-0.8-0.1-1.1
		s-0.1-0.8-0.1-1.1s-0.1-0.8-0.2-1.1s-0.1-0.8-0.2-1.1c0-0.1,0-0.3-0.1-0.4c-0.1-0.5-0.2-1-0.4-1.5s-0.2-0.8-0.3-1.2
		c0-0.2-0.1-0.4-0.2-0.5c-0.1-0.2-0.2-0.6-0.3-0.9l-0.2-0.6c-0.1-0.3-0.2-0.5-0.3-0.8c-0.1-0.5-0.3-0.9-0.5-1.3
		c-0.2-0.4-0.3-0.9-0.5-1.3c-0.3-0.9-0.7-1.8-1.1-2.7c-1.5-3.5-3.1-6.9-4.6-10.3c-0.8-1.8-1.5-3.6-2.1-5.4l-0.2,0.3
		c-0.3,0.5-0.6,0.9-0.8,1.4c0,7.9-7.9,17.5-7.9,17.5l-7.9-11.5l-6.9,10.7c-1,0.5-2,2.3-2.8,4.9c-0.2,0.7-0.4,1.5-0.6,2.3
		c-0.1,0.5-0.3,1.1-0.4,1.7c-0.1,0.3-0.1,0.6-0.2,0.9l-0.2,0.9v0.1c-0.1,0.6-0.2,1.3-0.4,1.9c-0.1,0.7-0.2,1.4-0.4,2.1
		c-0.1,0.5-0.1,0.9-0.2,1.4c-0.1,0.9-0.3,1.8-0.4,2.7c-0.1,0.5-0.1,1-0.2,1.5l-0.2,2c0.5,1.6,1.1,3.3,1.7,4.9
		c0.4,0.9,0.6,1.8,0.6,2.8c12.3,3.5,25.3,3.5,37.5,0c0,0,0-0.1,0-0.1c-0.2-0.9-0.3-1.8-0.2-2.7l0,0c0.2-2.6,0.5-5.1,1-7.7
		c0.1-1.2,0.2-2.5,0.2-3.8v-0.5C329.9,467.2,329.9,466.9,329.9,466.5z M340.5,447.7l-3.6-14.3l-0.6-2.4l-0.2-0.7l0,0l-0.9-3.5
		c0,0,0-0.1,0-0.1l0,0c0-0.2,0-0.3-0.1-0.5c-0.1-0.3-0.5-0.5-1.2-0.6c-0.3,0-0.6,0-0.9,0l0,0c-0.9,0.1-1.7,0.2-2.6,0.5
		c-0.4,0.1-0.9,0.2-1.3,0.4l-0.9,0.3h-0.1c-2.3,0.8-4.4,1.9-6.3,3.5c-1.2,1-2.3,2.2-3.2,3.5l-0.2,0.3c-0.3,0.5-0.6,0.9-0.8,1.4
		c0,7.9-7.9,17.5-7.9,17.5l-7.9-11.5l-0.5-0.6l-0.1-0.1l-1.1-1.7l-0.9-1.2l-0.2-0.3l-4.1-5.5l0,0l-1.3-1.8v-0.1l-0.5-0.6l-0.9-1.1
		l-3,1.8l-7.5,4.4l-3.5,22.5v0.2l0.1,1.6l0.7,12.5v0.7l-1.1,4.5c3,1.6,6.2,3,9.4,4.2l0.9,0.3c1,0.3,1.9,0.6,2.9,0.9
		c0,0.1,0.1,0.3,0.1,0.5c0-0.1,0-0.3,0-0.4c12.3,3.5,25.3,3.5,37.5,0l0.2-0.1c0.6-0.2,1.1-0.3,1.7-0.5l0.9-0.3
		c2.5-0.8,4.9-1.8,7.2-2.9l0,0l0.8-17.9l0.6-12.8L340.5,447.7z M291.3,482.3c0,0.1,0.1,0.3,0.1,0.5
		C291.4,482.6,291.4,482.4,291.3,482.3L291.3,482.3z M329.9,466.5c0-0.4,0-0.8-0.1-1.2s-0.1-0.8-0.1-1.1s-0.1-0.8-0.1-1.1
		s-0.1-0.8-0.2-1.1s-0.1-0.8-0.2-1.1c0-0.1,0-0.3-0.1-0.4c-0.1-0.5-0.2-1-0.4-1.5s-0.2-0.8-0.3-1.2c0-0.2-0.1-0.4-0.2-0.5
		c-0.1-0.2-0.2-0.6-0.3-0.9l-0.2-0.6c-0.1-0.3-0.2-0.5-0.3-0.8c-0.1-0.5-0.3-0.9-0.5-1.3c-0.2-0.4-0.3-0.9-0.5-1.3
		c-0.3-0.9-0.7-1.8-1.1-2.7c-1.5-3.5-3.1-6.9-4.6-10.3c-0.8-1.8-1.5-3.6-2.1-5.4l-0.2,0.3c-0.3,0.5-0.6,0.9-0.8,1.4
		c0,7.9-7.9,17.5-7.9,17.5l-7.9-11.5l-6.9,10.7c-1,0.5-2,2.3-2.8,4.9c-0.2,0.7-0.4,1.5-0.6,2.3c-0.1,0.5-0.3,1.1-0.4,1.7
		c-0.1,0.3-0.1,0.6-0.2,0.9l-0.2,0.9v0.1c-0.1,0.6-0.2,1.3-0.4,1.9c-0.1,0.7-0.2,1.4-0.4,2.1c-0.1,0.5-0.1,0.9-0.2,1.4
		c-0.1,0.9-0.3,1.8-0.4,2.7c-0.1,0.5-0.1,1-0.2,1.5l-0.2,2c0.5,1.6,1.1,3.3,1.7,4.9c0.4,0.9,0.6,1.8,0.6,2.8
		c12.3,3.5,25.3,3.5,37.5,0c0,0,0-0.1,0-0.1c-0.2-0.9-0.3-1.8-0.2-2.7l0,0c0.2-2.6,0.5-5.1,1-7.7c0.1-1.2,0.2-2.5,0.2-3.8v-0.5
		C329.9,467.2,329.9,466.9,329.9,466.5z M329.9,466.5c0-0.4,0-0.8-0.1-1.2s-0.1-0.8-0.1-1.1s-0.1-0.8-0.1-1.1s-0.1-0.8-0.2-1.1
		s-0.1-0.8-0.2-1.1c0-0.1,0-0.3-0.1-0.4c-0.1-0.5-0.2-1-0.4-1.5s-0.2-0.8-0.3-1.2c0-0.2-0.1-0.4-0.2-0.5c-0.1-0.2-0.2-0.6-0.3-0.9
		l-0.2-0.6c-0.1-0.3-0.2-0.5-0.3-0.8c-0.1-0.5-0.3-0.9-0.5-1.3c-0.2-0.4-0.3-0.9-0.5-1.3c-0.3-0.9-0.7-1.8-1.1-2.7
		c-1.5-3.5-3.1-6.9-4.6-10.3c-0.8-1.8-1.5-3.6-2.1-5.4l-0.2,0.3c-0.3,0.5-0.6,0.9-0.8,1.4c0,7.9-7.9,17.5-7.9,17.5l-7.9-11.5
		l-6.9,10.7c-1,0.5-2,2.3-2.8,4.9c-0.2,0.7-0.4,1.5-0.6,2.3c-0.1,0.5-0.3,1.1-0.4,1.7c-0.1,0.3-0.1,0.6-0.2,0.9l-0.2,0.9v0.1
		c-0.1,0.6-0.2,1.3-0.4,1.9c-0.1,0.7-0.2,1.4-0.4,2.1c-0.1,0.5-0.1,0.9-0.2,1.4c-0.1,0.9-0.3,1.8-0.4,2.7c-0.1,0.5-0.1,1-0.2,1.5
		l-0.2,2c0.5,1.6,1.1,3.3,1.7,4.9c0.4,0.9,0.6,1.8,0.6,2.8c12.3,3.5,25.3,3.5,37.5,0c0,0,0-0.1,0-0.1c-0.2-0.9-0.3-1.8-0.2-2.7l0,0
		c0.2-2.6,0.5-5.1,1-7.7c0.1-1.2,0.2-2.5,0.2-3.8v-0.5C329.9,467.2,329.9,466.9,329.9,466.5z M329.9,466.5c0-0.4,0-0.8-0.1-1.2
		s-0.1-0.8-0.1-1.1s-0.1-0.8-0.1-1.1s-0.1-0.8-0.2-1.1s-0.1-0.8-0.2-1.1c0-0.1,0-0.3-0.1-0.4c-0.1-0.5-0.2-1-0.4-1.5
		s-0.2-0.8-0.3-1.2c0-0.2-0.1-0.4-0.2-0.5c-0.1-0.2-0.2-0.6-0.3-0.9l-0.2-0.6c-0.1-0.3-0.2-0.5-0.3-0.8c-0.1-0.5-0.3-0.9-0.5-1.3
		c-0.2-0.4-0.3-0.9-0.5-1.3c-0.3-0.9-0.7-1.8-1.1-2.7c-1.5-3.5-3.1-6.9-4.6-10.3c-0.8-1.8-1.5-3.6-2.1-5.4l-0.2,0.3
		c-0.3,0.5-0.6,0.9-0.8,1.4c0,7.9-7.9,17.5-7.9,17.5l-7.9-11.5l-6.9,10.7c-1,0.5-2,2.3-2.8,4.9c-0.2,0.7-0.4,1.5-0.6,2.3
		c-0.1,0.5-0.3,1.1-0.4,1.7c-0.1,0.3-0.1,0.6-0.2,0.9l-0.2,0.9v0.1c-0.1,0.6-0.2,1.3-0.4,1.9c-0.1,0.7-0.2,1.4-0.4,2.1
		c-0.1,0.5-0.1,0.9-0.2,1.4c-0.1,0.9-0.3,1.8-0.4,2.7c-0.1,0.5-0.1,1-0.2,1.5l-0.2,2c0.5,1.6,1.1,3.3,1.7,4.9
		c0.4,0.9,0.6,1.8,0.6,2.8c12.3,3.5,25.3,3.5,37.5,0c0,0,0-0.1,0-0.1c-0.2-0.9-0.3-1.8-0.2-2.7l0,0c0.2-2.6,0.5-5.1,1-7.7
		c0.1-1.2,0.2-2.5,0.2-3.8v-0.5C329.9,467.2,329.9,466.9,329.9,466.5z M329.9,466.5c0-0.4,0-0.8-0.1-1.2s-0.1-0.8-0.1-1.1
		s-0.1-0.8-0.1-1.1s-0.1-0.8-0.2-1.1s-0.1-0.8-0.2-1.1c0-0.1,0-0.3-0.1-0.4c-0.1-0.5-0.2-1-0.4-1.5s-0.2-0.8-0.3-1.2
		c0-0.2-0.1-0.4-0.2-0.5c-0.1-0.2-0.2-0.6-0.3-0.9l-0.2-0.6c-0.1-0.3-0.2-0.5-0.3-0.8c-0.1-0.5-0.3-0.9-0.5-1.3
		c-0.2-0.4-0.3-0.9-0.5-1.3c-0.3-0.9-0.7-1.8-1.1-2.7c-1.5-3.5-3.1-6.9-4.6-10.3c-0.8-1.8-1.5-3.6-2.1-5.4l-0.2,0.3
		c-0.3,0.5-0.6,0.9-0.8,1.4c0,7.9-7.9,17.5-7.9,17.5l-7.9-11.5l-6.9,10.7c-1,0.5-2,2.3-2.8,4.9c-0.2,0.7-0.4,1.5-0.6,2.3
		c-0.1,0.5-0.3,1.1-0.4,1.7c-0.1,0.3-0.1,0.6-0.2,0.9l-0.2,0.9v0.1c-0.1,0.6-0.2,1.3-0.4,1.9c-0.1,0.7-0.2,1.4-0.4,2.1
		c-0.1,0.5-0.1,0.9-0.2,1.4c-0.1,0.9-0.3,1.8-0.4,2.7c-0.1,0.5-0.1,1-0.2,1.5l-0.2,2c0.5,1.6,1.1,3.3,1.7,4.9
		c0.4,0.9,0.6,1.8,0.6,2.8c12.3,3.5,25.3,3.5,37.5,0c0,0,0-0.1,0-0.1c-0.2-0.9-0.3-1.8-0.2-2.7l0,0c0.2-2.6,0.5-5.1,1-7.7
		c0.1-1.2,0.2-2.5,0.2-3.8v-0.5C329.9,467.2,329.9,466.9,329.9,466.5z M329.9,466.5c0-0.4,0-0.8-0.1-1.2s-0.1-0.8-0.1-1.1
		s-0.1-0.8-0.1-1.1s-0.1-0.8-0.2-1.1s-0.1-0.8-0.2-1.1c0-0.1,0-0.3-0.1-0.4c-0.1-0.5-0.2-1-0.4-1.5s-0.2-0.8-0.3-1.2
		c0-0.2-0.1-0.4-0.2-0.5c-0.1-0.2-0.2-0.6-0.3-0.9l-0.2-0.6c-0.1-0.3-0.2-0.5-0.3-0.8c-0.1-0.5-0.3-0.9-0.5-1.3
		c-0.2-0.4-0.3-0.9-0.5-1.3c-0.3-0.9-0.7-1.8-1.1-2.7c-1.5-3.5-3.1-6.9-4.6-10.3c-0.8-1.8-1.5-3.6-2.1-5.4l-0.2,0.3
		c-0.3,0.5-0.6,0.9-0.8,1.4c0,7.9-7.9,17.5-7.9,17.5l-7.9-11.5l-6.9,10.7c-1,0.5-2,2.3-2.8,4.9c-0.2,0.7-0.4,1.5-0.6,2.3
		c-0.1,0.5-0.3,1.1-0.4,1.7c-0.1,0.3-0.1,0.6-0.2,0.9l-0.2,0.9v0.1c-0.1,0.6-0.2,1.3-0.4,1.9c-0.1,0.7-0.2,1.4-0.4,2.1
		c-0.1,0.5-0.1,0.9-0.2,1.4c-0.1,0.9-0.3,1.8-0.4,2.7c-0.1,0.5-0.1,1-0.2,1.5l-0.2,2c0.5,1.6,1.1,3.3,1.7,4.9
		c0.4,0.9,0.6,1.8,0.6,2.8c12.3,3.5,25.3,3.5,37.5,0c0,0,0-0.1,0-0.1c-0.2-0.9-0.3-1.8-0.2-2.7l0,0c0.2-2.6,0.5-5.1,1-7.7
		c0.1-1.2,0.2-2.5,0.2-3.8v-0.5C329.9,467.2,329.9,466.9,329.9,466.5z M329.9,466.5c0-0.4,0-0.8-0.1-1.2s-0.1-0.8-0.1-1.1
		s-0.1-0.8-0.1-1.1s-0.1-0.8-0.2-1.1s-0.1-0.8-0.2-1.1c0-0.1,0-0.3-0.1-0.4c-0.1-0.5-0.2-1-0.4-1.5s-0.2-0.8-0.3-1.2
		c0-0.2-0.1-0.4-0.2-0.5c-0.1-0.2-0.2-0.6-0.3-0.9l-0.2-0.6c-0.1-0.3-0.2-0.5-0.3-0.8c-0.1-0.5-0.3-0.9-0.5-1.3
		c-0.2-0.4-0.3-0.9-0.5-1.3c-0.3-0.9-0.7-1.8-1.1-2.7c-1.5-3.5-3.1-6.9-4.6-10.3c-0.8-1.8-1.5-3.6-2.1-5.4l-0.2,0.3
		c-0.3,0.5-0.6,0.9-0.8,1.4c0,7.9-7.9,17.5-7.9,17.5l-7.9-11.5l-6.9,10.7c-1,0.5-2,2.3-2.8,4.9c-0.2,0.7-0.4,1.5-0.6,2.3
		c-0.1,0.5-0.3,1.1-0.4,1.7c-0.1,0.3-0.1,0.6-0.2,0.9l-0.2,0.9v0.1c-0.1,0.6-0.2,1.3-0.4,1.9c-0.1,0.7-0.2,1.4-0.4,2.1
		c-0.1,0.5-0.1,0.9-0.2,1.4c-0.1,0.9-0.3,1.8-0.4,2.7c-0.1,0.5-0.1,1-0.2,1.5l-0.2,2c0.5,1.6,1.1,3.3,1.7,4.9
		c0.4,0.9,0.6,1.8,0.6,2.8c12.3,3.5,25.3,3.5,37.5,0c0,0,0-0.1,0-0.1c-0.2-0.9-0.3-1.8-0.2-2.7l0,0c0.2-2.6,0.5-5.1,1-7.7
		c0.1-1.2,0.2-2.5,0.2-3.8v-0.5C329.9,467.2,329.9,466.9,329.9,466.5z M329.9,466.5c0-0.4,0-0.8-0.1-1.2s-0.1-0.8-0.1-1.1
		s-0.1-0.8-0.1-1.1s-0.1-0.8-0.2-1.1s-0.1-0.8-0.2-1.1c0-0.1,0-0.3-0.1-0.4c-0.1-0.5-0.2-1-0.4-1.5s-0.2-0.8-0.3-1.2
		c0-0.2-0.1-0.4-0.2-0.5c-0.1-0.2-0.2-0.6-0.3-0.9l-0.2-0.6c-0.1-0.3-0.2-0.5-0.3-0.8c-0.1-0.5-0.3-0.9-0.5-1.3
		c-0.2-0.4-0.3-0.9-0.5-1.3c-0.3-0.9-0.7-1.8-1.1-2.7c-1.5-3.5-3.1-6.9-4.6-10.3c-0.8-1.8-1.5-3.6-2.1-5.4l-0.2,0.3
		c-0.3,0.5-0.6,0.9-0.8,1.4c0,7.9-7.9,17.5-7.9,17.5l-7.9-11.5l-6.9,10.7c-1,0.5-2,2.3-2.8,4.9c-0.2,0.7-0.4,1.5-0.6,2.3
		c-0.1,0.5-0.3,1.1-0.4,1.7c-0.1,0.3-0.1,0.6-0.2,0.9l-0.2,0.9v0.1c-0.1,0.6-0.2,1.3-0.4,1.9c-0.1,0.7-0.2,1.4-0.4,2.1
		c-0.1,0.5-0.1,0.9-0.2,1.4c-0.1,0.9-0.3,1.8-0.4,2.7c-0.1,0.5-0.1,1-0.2,1.5l-0.2,2c0.5,1.6,1.1,3.3,1.7,4.9
		c0.4,0.9,0.6,1.8,0.6,2.8c12.3,3.5,25.3,3.5,37.5,0c0,0,0-0.1,0-0.1c-0.2-0.9-0.3-1.8-0.2-2.7l0,0c0.2-2.6,0.5-5.1,1-7.7
		c0.1-1.2,0.2-2.5,0.2-3.8v-0.5C329.9,467.2,329.9,466.9,329.9,466.5z M329.9,466.5c0-0.4,0-0.8-0.1-1.2s-0.1-0.8-0.1-1.1
		s-0.1-0.8-0.1-1.1s-0.1-0.8-0.2-1.1s-0.1-0.8-0.2-1.1c0-0.1,0-0.3-0.1-0.4c-0.1-0.5-0.2-1-0.4-1.5s-0.2-0.8-0.3-1.2
		c0-0.2-0.1-0.4-0.2-0.5c-0.1-0.2-0.2-0.6-0.3-0.9l-0.2-0.6c-0.1-0.3-0.2-0.5-0.3-0.8c-0.1-0.5-0.3-0.9-0.5-1.3
		c-0.2-0.4-0.3-0.9-0.5-1.3c-0.3-0.9-0.7-1.8-1.1-2.7c-1.5-3.5-3.1-6.9-4.6-10.3c-0.8-1.8-1.5-3.6-2.1-5.4l-0.2,0.3
		c-0.3,0.5-0.6,0.9-0.8,1.4c0,7.9-7.9,17.5-7.9,17.5l-7.9-11.5l-6.9,10.7c-1,0.5-2,2.3-2.8,4.9c-0.2,0.7-0.4,1.5-0.6,2.3
		c-0.1,0.5-0.3,1.1-0.4,1.7c-0.1,0.3-0.1,0.6-0.2,0.9l-0.2,0.9v0.1c-0.1,0.6-0.2,1.3-0.4,1.9c-0.1,0.7-0.2,1.4-0.4,2.1
		c-0.1,0.5-0.1,0.9-0.2,1.4c-0.1,0.9-0.3,1.8-0.4,2.7c-0.1,0.5-0.1,1-0.2,1.5l-0.2,2c0.5,1.6,1.1,3.3,1.7,4.9
		c0.4,0.9,0.6,1.8,0.6,2.8c12.3,3.5,25.3,3.5,37.5,0c0,0,0-0.1,0-0.1c-0.2-0.9-0.3-1.8-0.2-2.7l0,0c0.2-2.6,0.5-5.1,1-7.7
		c0.1-1.2,0.2-2.5,0.2-3.8v-0.5C329.9,467.2,329.9,466.9,329.9,466.5z"/>
	<path class="st8" d="M302.1,440.9l-0.7-0.1c-1-0.1-2-0.3-3-0.6l-0.4-0.1c-2.4-0.7-5.1-1.9-5.7-4.1c-0.2-0.7-0.2-1.4,0.1-2.1
		c0.3-1.2,0.8-2.3,1.4-3.4v-0.1c0.1-0.2,0.2-0.3,0.3-0.5c0.8-1.6,2.1-3,3.6-3.9l-1.2,0.2l0,0l-10.2,1.7l-15.8,2.5
		c0,0-2.8-0.6-6.6,9.9c0,0.1-0.1,0.3-0.1,0.4c-0.9,2.6-1.9,5.8-2.9,9.8c-0.7,2.8-1.3,5.5-1.9,8.2c-0.2,0.8-0.3,1.6-0.5,2.4
		c1.8,2.1,3.7,4.1,5.8,6l0.3,0.3c4,3.7,8.5,6.8,13.3,9.4l0.2,0.1c3,1.6,6.2,3,9.4,4.2l0.9,0.3c0.2-1.8,0.4-3.9,0.6-6
		c0-0.2,0-0.4,0.1-0.6l0.2-2c0.1-0.5,0.1-1,0.2-1.5c0.1-0.9,0.2-1.8,0.4-2.7c0.1-0.5,0.1-0.9,0.2-1.4c0.1-0.7,0.2-1.4,0.4-2.1
		c0.1-0.7,0.2-1.3,0.4-1.9v-0.1l0.2-0.9c0.1-0.3,0.1-0.6,0.2-0.9c0.1-0.6,0.3-1.1,0.4-1.7c0.2-0.8,0.4-1.6,0.6-2.3
		c0.8-2.6,1.7-4.4,2.8-4.9l6.9-10.7l0.3-0.5l0.1-0.2L302.1,440.9z"/>
	<path class="st17" d="M301.5,440.9l-7.4,11.3c-1,0.5-1.9,2.3-2.7,4.8c-0.2,0.7-0.5,1.5-0.7,2.4c-1,4.3-1.7,8.7-2.3,13.1
		c0,0.2,0,0.4-0.1,0.6c-0.3,2.8-0.6,5.5-0.9,7.9c-3.2-1.1-6.4-2.5-9.4-4.2l-0.2-0.1c-4.8-2.6-9.3-5.8-13.3-9.4l-0.3-0.3
		c-2.1-1.9-4-3.9-5.8-6c-0.2-0.3-0.5-0.5-0.7-0.8c0.1-0.5,0.2-1,0.3-1.6c0.6-2.6,1.2-5.4,1.9-8.1c0.9-3.8,2-7.5,3.4-11.2
		c0-0.1,0.1-0.2,0.1-0.3c3.5-9.1,6.1-8.6,6.1-8.6l16.6-2.7l10.5-1.7l-0.3,0.2l0,0c-1.2,0.8-2.1,1.9-2.9,3.1l-0.3,0.5
		c-0.1,0.2-0.2,0.4-0.4,0.6c-0.6,1.1-1,2.3-1.4,3.5c-0.3,0.9-0.2,2,0.2,2.9c1,1.9,3.8,3,6.2,3.6l0.4,0.1
		C299.4,440.7,300.5,440.8,301.5,440.9z"/>
	<path class="st8" d="M359.3,461.1l-0.4-8.9c1.8-14-1.8-14.9-1.8-14.9l-4.2-2h-0.1l-16.7-8.1l-0.6-0.3l-0.2-0.1l0,0l-2.2-1.1l0,0
		l-1.4-0.7l-2.6-1.3l-0.9-0.4c0,0,0,0.2,0,0.5s0,1.1,0,2.1c0,0.3,0,0.6,0,0.9c0,1,0.1,2.2,0.2,3.5c0.2,3.4,0.5,8,1.1,13.4
		c0.3,3.1,0.8,6.5,1.3,10.2c0.3,2.2,0.5,4.3,0.7,6.4c0.4,7.1,0.2,14.2-0.7,21.3l0.9-0.3c2.5-0.8,4.9-1.8,7.2-2.9l0,0
		c4.6-2.1,8.9-4.8,12.9-7.9l0.2-0.1c2.6-2,5-4.2,7.3-6.6L359.3,461.1z"/>
	<path class="st17" d="M360.2,461.1l-0.4-8.9c1.8-14-1.8-14.9-1.8-14.9l-5-2.4h-0.1l-16.8-8.1l-0.8-0.4l-0.1-0.1l-1.2-0.6l-1.6-0.8
		l-3.2-1.6v0.4c0,0.2,0,0.6,0,1l0,0c0,0.3,0,0.6,0,0.9s0,0.6,0,0.9c0,1,0.1,2.3,0.2,3.8c0.2,3.2,0.5,7.4,1,12.3
		c0.4,3.4,0.8,7.2,1.4,11.3c0.3,2.2,0.5,4.3,0.7,6.5c0.4,7,0.2,14-0.6,21c2.5-0.8,4.9-1.8,7.2-2.9l0,0c4.6-2.1,8.9-4.8,12.9-7.9
		l0.2-0.1c2.6-2,5-4.2,7.3-6.6c0.3-0.3,0.6-0.6,0.8-0.9L360.2,461.1z"/>
	<path class="st8" d="M289.5,370.1c-1,1.4-0.9,3.3-1.4,5c-1.1,3.9-5.3,6.4-6.3,10.3c-0.6,2.3,0.1,4.7-0.3,7.1
		c-0.7,4.3-4.6,7.2-6.9,11c-2.3,3.9-2.6,8.7-0.9,12.9c0.5,1,0.9,2.1,1.3,3.3c0.3,1.7,0.1,3.4-0.3,5c-0.8,3.6-1.5,7.5,0.2,10.7
		c1.5,2.7,4.5,4.3,7.5,4.8c3.1,0.3,6.2,0.2,9.2-0.4c3.3-0.5,6.7-1.1,9.6-2.8l-10.8-26.1c-1.1-2.6-2.2-5.4-2.2-8.2
		c0.1-2.1,0.5-4.2,1.4-6.1c2.1-5.7,5.1-10.9,9-15.5c1.6,1.8,1.5,4.6,2.8,6.6c1.2,1.5,2.7,2.6,4.5,3.3c5.1,2.5,10.4,4.7,15.8,6.6
		c1.1,0.1,1.9,1.2,1.8,2.3c0,0.3-0.1,0.5-0.3,0.8l-4.1,16.8c-0.9,3.7-1.7,8,0.6,11s7.5,4.4,7.5,8.3c0,0.6,0,1.2,0,1.8
		c0.3,1.8,2.4,2.7,4.3,2.8c6.2,0.1,11.6-4.3,12.7-10.4c1-6.6-3.4-12.7-5.2-19.2c-3.1-10.8,1-23.6-5-33.1
		c-4.9-7.7-13.8-9.8-22.3-10.8C305.6,367,293.7,364.5,289.5,370.1z"/>
	<path class="st15" d="M289.5,369.1c-1,1.4-0.9,3.3-1.4,5c-1.1,3.9-5.3,6.4-6.3,10.3c-0.6,2.3,0.1,4.7-0.3,7.1
		c-0.7,4.3-4.6,7.2-6.9,11c-2.3,3.9-2.6,8.7-0.9,12.9c0.5,1,0.9,2.1,1.3,3.3c0.3,1.7,0.1,3.4-0.3,5c-0.8,3.6-1.5,7.5,0.2,10.7
		c1.5,2.7,4.5,4.3,7.5,4.8c3.1,0.3,6.2,0.2,9.2-0.4c3.3-0.5,6.7-1.1,9.6-2.8l-10.8-26.1c-1.1-2.6-2.2-5.4-2.2-8.2
		c0.1-2.1,0.5-4.2,1.4-6.1c2.1-5.7,5.1-10.9,9-15.5c1.6,1.8,1.5,4.6,2.8,6.6c1.2,1.5,2.7,2.6,4.5,3.3c5.1,2.5,10.4,4.7,15.8,6.6
		c1.1,0.1,1.9,1.2,1.8,2.3c0,0.3-0.1,0.5-0.3,0.8l-4.1,16.8c-0.9,3.7-1.7,8,0.6,11s7.5,4.4,7.5,8.3c0,0.6,0,1.2,0,1.8
		c0.3,1.8,2.4,2.7,4.3,2.8c6.2,0.1,11.6-4.3,12.7-10.4c1-6.6-3.4-12.7-5.2-19.2c-3.1-10.8,1-23.6-5-33.1
		c-4.9-7.7-13.8-9.8-22.3-10.8C305.6,366,293.7,363.5,289.5,369.1z"/>
</g>
<g class="st1">
	<path class="st11" d="M378.3,657.9c0,16.2-5.8,31.9-16.4,44.3c-0.5,0.6-1.1,1.2-1.6,1.8c-0.3,0.3-0.6,0.6-0.8,0.9
		c-2.3,2.4-4.7,4.6-7.3,6.6l-0.2,0.1c-4,3.1-8.3,5.8-12.9,7.9l0,0c-2.4,1.1-4.8,2.1-7.2,2.9l-0.9,0.3c-0.6,0.2-1.1,0.4-1.7,0.5
		l-0.2,0.1c-12.3,3.5-25.3,3.5-37.5,0h-0.1c-1-0.3-2-0.6-2.9-0.9l-0.9-0.3c-3.2-1.1-6.4-2.5-9.4-4.2l-0.2-0.1
		c-4.8-2.6-9.3-5.8-13.3-9.4l-0.3-0.3c-2.1-1.9-4-3.9-5.8-6c-0.2-0.3-0.5-0.5-0.7-0.8c-0.4-0.5-0.9-1.1-1.3-1.6
		c-23-29.7-17.7-72.4,12-95.4c29.7-23,72.4-17.7,95.4,12C373.2,628.2,378.3,642.8,378.3,657.9z"/>
	
		<linearGradient id="SVGID_3_" gradientUnits="userSpaceOnUse" x1="301" y1="155.6732" x2="403.49" y2="155.6732" gradientTransform="matrix(1 0 0 -1 -43.2 820.14)">
		<stop  offset="0" style="stop-color:#808080;stop-opacity:0.25"/>
		<stop  offset="0.54" style="stop-color:#808080;stop-opacity:0.12"/>
		<stop  offset="1" style="stop-color:#808080;stop-opacity:0.1"/>
	</linearGradient>
	<path class="st18" d="M360.2,701.8l-0.4-9c1.8-14.2-1.8-15.1-1.8-15.1l-5-2.5l-0.1,0l-16.8-8.3l-0.8-0.4l-0.1-0.4
		c0,0,0.3-1-1.3-1.2c-0.3-0.8-0.5-1.7-0.4-2.5c0.2-1.9,1.6-3.4,2.8-5c2.9-4.3,4.1-9.5,3.3-14.6c-0.8-5.1-2.7-9.9-5.6-14.1l-0.3-0.5
		c0.4-1.4,0.6-2.9,0.6-4.4c0-11.5-11.6-20.8-26-20.8c-13,0-23.8,7.7-25.7,17.7c-0.3,0.4-0.6,0.8-0.8,1.2c-2.6,4.9,1.4,8.6,1.6,13.6
		c0.1,3.4-2.2,6.3-4,9.2s-3.1,6.7-1.3,9.5c0.6,0.9,1.5,1.7,2.1,2.6c1.9,3.4-1.3,7.3-2.5,11.1c-0.1,0.4-0.2,0.9-0.3,1.3l-7.7,1.3
		c0,0-2.5-0.5-6.1,8.7c0,0.1-0.1,0.2-0.1,0.3c-1.4,3.7-2.5,7.5-3.4,11.4c-0.7,2.8-1.3,5.6-1.9,8.3c-0.1,0.5-0.2,1.1-0.3,1.6
		c0.2,0.3,0.5,0.6,0.7,0.8c1.8,2.2,3.7,4.2,5.8,6.1l0.3,0.3c4,3.7,8.5,6.9,13.3,9.6l0.2,0.1c3,1.7,6.2,3.1,9.4,4.2l0.9,0.3
		c1,0.3,1.9,0.6,2.9,0.9c0,0.2,0.1,0.3,0.1,0.5c0-0.1,0-0.3,0-0.4c12.3,3.6,25.3,3.6,37.5,0l0.2-0.1c0.6-0.2,1.1-0.3,1.7-0.5
		l0.9-0.3c2.5-0.8,4.9-1.8,7.2-3l0,0c4.6-2.2,8.9-4.9,12.9-8l0.2-0.1c2.6-2.1,5-4.3,7.3-6.7c0.3-0.3,0.6-0.6,0.8-0.9L360.2,701.8z"
		/>
	<path class="st17" d="M283.3,636.9c0.1,3.3-2.2,6.2-4,9s-3.1,6.6-1.3,9.4c0.6,0.9,1.5,1.6,2.1,2.6c1.9,3.3-1.3,7.2-2.5,10.9
		c-1.4,4.3,0.2,9,3.1,12.5s6.8,5.8,10.7,7.8c8.3,4.4,17.3,7.6,26.5,9.4c4.8,0.9,10,1.3,14.5-0.7c6.5-3,10.1-10,8.7-17
		c-1.1-5.3-5-9.5-7-14.5c-0.5-1-0.7-2-0.7-3.1c0.2-1.9,1.6-3.4,2.8-4.9c2.8-4.2,4-9.2,3.2-14.2c-0.8-5-2.7-9.7-5.6-13.9
		c-1-1.7-2.4-3.2-4-4.4c-2.2-1.5-4.9-1.9-7.5-2.3c-10.9-1.5-22.1-3.2-33.1-3.7c-3.5-0.2-6,0.5-7.7,3.7
		C279.1,628.5,283.2,632.1,283.3,636.9z"/>
	<path class="st16" d="M339.3,670.9l-20.6,29.3l-20.1-1.8c0,0-0.7,7-8.8-18.4c-4.5-14.2,4.7-9.3,6.5-13.2s5-7.4,5.3-10.3
		c0.6-6.2-1.3-9.8-1.3-9.8l21.9-2.6c-1,2.9-1.1,6.1-0.4,9.1C324.5,664.8,339.3,670.9,339.3,670.9z"/>
	<ellipse class="st17" cx="308.3" cy="625.5" rx="26" ry="20.5"/>
	<path class="st8" d="M321.8,653.4c-5.8,4.4-13.4,5.6-20.3,3.3c0.6-6.2-1.3-9.8-1.3-9.8l21.9-2.6
		C321.2,647.2,321.1,650.4,321.8,653.4z"/>
	<circle class="st16" cx="308.6" cy="635.1" r="21.9"/>
	<path class="st8" d="M337.1,674.3l-0.5-2l-0.4-1.8l-0.6-2.6l-0.1-0.5l-0.1-0.4c0,0,0.5-1.6-2.9-1.1l-0.6,0.1
		c-0.5,0.1-1.2,0.3-1.9,0.5l-0.6,0.2l-0.9,0.3l0,0c-2.7,0.9-5.2,2.4-7.3,4.4c-0.9,0.9-1.7,1.9-2.4,2.9c-0.1,0.1-0.1,0.2-0.2,0.3
		c-0.2,0.4-0.4,0.8-0.6,1.2c0,7.9-7.9,17.5-7.9,17.5l-7.7-11.1l-0.1-0.2l-1.8-2.7l-0.6-0.9l-0.2-0.3l-4-5.4l-1-1.3l-0.3-0.5
		l-0.5-0.7l-1.1-1.5l-4.5,2.6l-6,3.5l-3.5,22.8v0.6l0.1,1.9l0.7,12.4v0.2l-1.3,5.1l0.2,0.1c3,1.6,6.2,3,9.4,4.2l0.9,0.3
		c1,0.3,1.9,0.6,2.9,0.9c0,0.1,0.1,0.3,0.1,0.5c0-0.1,0-0.3,0-0.4c12.3,3.5,25.3,3.5,37.5,0l0.2-0.1c0.6-0.2,1.1-0.3,1.7-0.5
		l0.9-0.3c2.5-0.8,4.9-1.8,7.2-2.9l0.8-17.9l0.6-12.9V688L337.1,674.3z"/>
	<path class="st17" d="M329.9,707.5c0-0.4,0-0.8-0.1-1.2s-0.1-0.8-0.1-1.1s-0.1-0.8-0.1-1.1s-0.1-0.8-0.2-1.1s-0.1-0.8-0.2-1.1
		c0-0.1,0-0.3-0.1-0.4c-0.1-0.5-0.2-1-0.4-1.5s-0.2-0.8-0.3-1.2c0-0.2-0.1-0.4-0.2-0.5s-0.2-0.6-0.3-0.9l-0.2-0.6
		c-0.1-0.3-0.2-0.5-0.3-0.8c-0.1-0.5-0.3-0.9-0.5-1.3s-0.3-0.9-0.5-1.3c-0.3-0.9-0.7-1.8-1.1-2.7c-1.5-3.5-3.1-6.9-4.6-10.3
		c-0.8-1.8-1.5-3.6-2.1-5.4l-0.2,0.3c-0.3,0.5-0.6,0.9-0.8,1.4c0,7.9-7.9,17.5-7.9,17.5l-7.9-11.5l-6.9,10.7c-1,0.5-2,2.3-2.8,4.9
		c-0.2,0.7-0.4,1.5-0.6,2.3c-0.1,0.5-0.3,1.1-0.4,1.7c-0.1,0.3-0.1,0.6-0.2,0.9l-0.2,0.9v0.1c-0.1,0.6-0.2,1.3-0.4,1.9
		s-0.2,1.4-0.4,2.1c-0.1,0.5-0.1,0.9-0.2,1.4c-0.1,0.9-0.3,1.8-0.4,2.7c-0.1,0.5-0.1,1-0.2,1.5l-0.2,2c0.5,1.6,1.1,3.3,1.7,4.8
		c0.4,0.9,0.6,1.8,0.6,2.8c12.3,3.5,25.3,3.5,37.5,0c0,0,0-0.1,0-0.1c-0.2-0.9-0.3-1.8-0.2-2.7l0,0c0.2-2.6,0.5-5.1,1-7.7
		c0.1-1.2,0.2-2.5,0.2-3.8v-0.5C329.9,708.2,329.9,707.9,329.9,707.5z M329.9,707.5c0-0.4,0-0.8-0.1-1.2s-0.1-0.8-0.1-1.1
		s-0.1-0.8-0.1-1.1s-0.1-0.8-0.2-1.1s-0.1-0.8-0.2-1.1c0-0.1,0-0.3-0.1-0.4c-0.1-0.5-0.2-1-0.4-1.5s-0.2-0.8-0.3-1.2
		c0-0.2-0.1-0.4-0.2-0.5s-0.2-0.6-0.3-0.9l-0.2-0.6c-0.1-0.3-0.2-0.5-0.3-0.8c-0.1-0.5-0.3-0.9-0.5-1.3s-0.3-0.9-0.5-1.3
		c-0.3-0.9-0.7-1.8-1.1-2.7c-1.5-3.5-3.1-6.9-4.6-10.3c-0.8-1.8-1.5-3.6-2.1-5.4l-0.2,0.3c-0.3,0.5-0.6,0.9-0.8,1.4
		c0,7.9-7.9,17.5-7.9,17.5l-7.9-11.5l-6.9,10.7c-1,0.5-2,2.3-2.8,4.9c-0.2,0.7-0.4,1.5-0.6,2.3c-0.1,0.5-0.3,1.1-0.4,1.7
		c-0.1,0.3-0.1,0.6-0.2,0.9l-0.2,0.9v0.1c-0.1,0.6-0.2,1.3-0.4,1.9s-0.2,1.4-0.4,2.1c-0.1,0.5-0.1,0.9-0.2,1.4
		c-0.1,0.9-0.3,1.8-0.4,2.7c-0.1,0.5-0.1,1-0.2,1.5l-0.2,2c0.5,1.6,1.1,3.3,1.7,4.8c0.4,0.9,0.6,1.8,0.6,2.8
		c12.3,3.5,25.3,3.5,37.5,0c0,0,0-0.1,0-0.1c-0.2-0.9-0.3-1.8-0.2-2.7l0,0c0.2-2.6,0.5-5.1,1-7.7c0.1-1.2,0.2-2.5,0.2-3.8v-0.5
		C329.9,708.2,329.9,707.9,329.9,707.5z M329.9,707.5c0-0.4,0-0.8-0.1-1.2s-0.1-0.8-0.1-1.1s-0.1-0.8-0.1-1.1s-0.1-0.8-0.2-1.1
		s-0.1-0.8-0.2-1.1c0-0.1,0-0.3-0.1-0.4c-0.1-0.5-0.2-1-0.4-1.5s-0.2-0.8-0.3-1.2c0-0.2-0.1-0.4-0.2-0.5s-0.2-0.6-0.3-0.9l-0.2-0.6
		c-0.1-0.3-0.2-0.5-0.3-0.8c-0.1-0.5-0.3-0.9-0.5-1.3s-0.3-0.9-0.5-1.3c-0.3-0.9-0.7-1.8-1.1-2.7c-1.5-3.5-3.1-6.9-4.6-10.3
		c-0.8-1.8-1.5-3.6-2.1-5.4l-0.2,0.3c-0.3,0.5-0.6,0.9-0.8,1.4c0,7.9-7.9,17.5-7.9,17.5l-7.9-11.5l-6.9,10.7c-1,0.5-2,2.3-2.8,4.9
		c-0.2,0.7-0.4,1.5-0.6,2.3c-0.1,0.5-0.3,1.1-0.4,1.7c-0.1,0.3-0.1,0.6-0.2,0.9l-0.2,0.9v0.1c-0.1,0.6-0.2,1.3-0.4,1.9
		s-0.2,1.4-0.4,2.1c-0.1,0.5-0.1,0.9-0.2,1.4c-0.1,0.9-0.3,1.8-0.4,2.7c-0.1,0.5-0.1,1-0.2,1.5l-0.2,2c0.5,1.6,1.1,3.3,1.7,4.8
		c0.4,0.9,0.6,1.8,0.6,2.8c12.3,3.5,25.3,3.5,37.5,0c0,0,0-0.1,0-0.1c-0.2-0.9-0.3-1.8-0.2-2.7l0,0c0.2-2.6,0.5-5.1,1-7.7
		c0.1-1.2,0.2-2.5,0.2-3.8v-0.5C329.9,708.2,329.9,707.9,329.9,707.5z M340.5,688.7l-3.6-14.3l-0.6-2.4l-0.2-0.7l0,0l-0.9-3.5
		c0,0,0-0.1,0-0.1l0,0c0-0.2,0-0.3-0.1-0.5c-0.1-0.3-0.5-0.5-1.2-0.6c-0.3,0-0.6,0-0.9,0l0,0c-0.9,0.1-1.7,0.2-2.6,0.5
		c-0.4,0.1-0.9,0.2-1.3,0.4l-0.9,0.3h-0.1c-2.3,0.8-4.4,1.9-6.3,3.5c-1.2,1-2.3,2.2-3.2,3.5l-0.2,0.3c-0.3,0.5-0.6,0.9-0.8,1.4
		c0,7.9-7.9,17.5-7.9,17.5l-7.9-11.5l-0.5-0.7l-0.1-0.1l-1.1-1.7l-0.9-1.2l-0.2-0.3l-4.1-5.5l0,0l-1.3-1.8v-0.1l-0.5-0.6l-0.9-1.1
		l-3,1.8l-7.5,4.4l-3.5,22.5v0.2l0.1,1.6l0.7,12.5v0.7l-1.1,4.5c3,1.6,6.2,3,9.4,4.2l0.9,0.3c1,0.3,1.9,0.6,2.9,0.9
		c0,0.1,0.1,0.3,0.1,0.5c0-0.1,0-0.3,0-0.4c12.3,3.5,25.3,3.5,37.5,0l0.2-0.1c0.6-0.2,1.1-0.3,1.7-0.5l0.9-0.3
		c2.5-0.8,4.9-1.8,7.2-2.9l0,0l0.8-17.9l0.6-12.8L340.5,688.7z M291.3,723.3c0,0.1,0.1,0.3,0.1,0.5
		C291.4,723.6,291.4,723.4,291.3,723.3L291.3,723.3z M329.9,707.5c0-0.4,0-0.8-0.1-1.2s-0.1-0.8-0.1-1.1s-0.1-0.8-0.1-1.1
		s-0.1-0.8-0.2-1.1s-0.1-0.8-0.2-1.1c0-0.1,0-0.3-0.1-0.4c-0.1-0.5-0.2-1-0.4-1.5s-0.2-0.8-0.3-1.2c0-0.2-0.1-0.4-0.2-0.5
		s-0.2-0.6-0.3-0.9l-0.2-0.6c-0.1-0.3-0.2-0.5-0.3-0.8c-0.1-0.5-0.3-0.9-0.5-1.3s-0.3-0.9-0.5-1.3c-0.3-0.9-0.7-1.8-1.1-2.7
		c-1.5-3.5-3.1-6.9-4.6-10.3c-0.8-1.8-1.5-3.6-2.1-5.4l-0.2,0.3c-0.3,0.5-0.6,0.9-0.8,1.4c0,7.9-7.9,17.5-7.9,17.5l-7.9-11.5
		l-6.9,10.7c-1,0.5-2,2.3-2.8,4.9c-0.2,0.7-0.4,1.5-0.6,2.3c-0.1,0.5-0.3,1.1-0.4,1.7c-0.1,0.3-0.1,0.6-0.2,0.9l-0.2,0.9v0.1
		c-0.1,0.6-0.2,1.3-0.4,1.9s-0.2,1.4-0.4,2.1c-0.1,0.5-0.1,0.9-0.2,1.4c-0.1,0.9-0.3,1.8-0.4,2.7c-0.1,0.5-0.1,1-0.2,1.5l-0.2,2
		c0.5,1.6,1.1,3.3,1.7,4.8c0.4,0.9,0.6,1.8,0.6,2.8c12.3,3.5,25.3,3.5,37.5,0c0,0,0-0.1,0-0.1c-0.2-0.9-0.3-1.8-0.2-2.7l0,0
		c0.2-2.6,0.5-5.1,1-7.7c0.1-1.2,0.2-2.5,0.2-3.8v-0.5C329.9,708.2,329.9,707.9,329.9,707.5z M329.9,707.5c0-0.4,0-0.8-0.1-1.2
		s-0.1-0.8-0.1-1.1s-0.1-0.8-0.1-1.1s-0.1-0.8-0.2-1.1s-0.1-0.8-0.2-1.1c0-0.1,0-0.3-0.1-0.4c-0.1-0.5-0.2-1-0.4-1.5
		s-0.2-0.8-0.3-1.2c0-0.2-0.1-0.4-0.2-0.5s-0.2-0.6-0.3-0.9l-0.2-0.6c-0.1-0.3-0.2-0.5-0.3-0.8c-0.1-0.5-0.3-0.9-0.5-1.3
		s-0.3-0.9-0.5-1.3c-0.3-0.9-0.7-1.8-1.1-2.7c-1.5-3.5-3.1-6.9-4.6-10.3c-0.8-1.8-1.5-3.6-2.1-5.4l-0.2,0.3
		c-0.3,0.5-0.6,0.9-0.8,1.4c0,7.9-7.9,17.5-7.9,17.5l-7.9-11.5l-6.9,10.7c-1,0.5-2,2.3-2.8,4.9c-0.2,0.7-0.4,1.5-0.6,2.3
		c-0.1,0.5-0.3,1.1-0.4,1.7c-0.1,0.3-0.1,0.6-0.2,0.9l-0.2,0.9v0.1c-0.1,0.6-0.2,1.3-0.4,1.9s-0.2,1.4-0.4,2.1
		c-0.1,0.5-0.1,0.9-0.2,1.4c-0.1,0.9-0.3,1.8-0.4,2.7c-0.1,0.5-0.1,1-0.2,1.5l-0.2,2c0.5,1.6,1.1,3.3,1.7,4.8
		c0.4,0.9,0.6,1.8,0.6,2.8c12.3,3.5,25.3,3.5,37.5,0c0,0,0-0.1,0-0.1c-0.2-0.9-0.3-1.8-0.2-2.7l0,0c0.2-2.6,0.5-5.1,1-7.7
		c0.1-1.2,0.2-2.5,0.2-3.8v-0.5C329.9,708.2,329.9,707.9,329.9,707.5z M329.9,707.5c0-0.4,0-0.8-0.1-1.2s-0.1-0.8-0.1-1.1
		s-0.1-0.8-0.1-1.1s-0.1-0.8-0.2-1.1s-0.1-0.8-0.2-1.1c0-0.1,0-0.3-0.1-0.4c-0.1-0.5-0.2-1-0.4-1.5s-0.2-0.8-0.3-1.2
		c0-0.2-0.1-0.4-0.2-0.5s-0.2-0.6-0.3-0.9l-0.2-0.6c-0.1-0.3-0.2-0.5-0.3-0.8c-0.1-0.5-0.3-0.9-0.5-1.3s-0.3-0.9-0.5-1.3
		c-0.3-0.9-0.7-1.8-1.1-2.7c-1.5-3.5-3.1-6.9-4.6-10.3c-0.8-1.8-1.5-3.6-2.1-5.4l-0.2,0.3c-0.3,0.5-0.6,0.9-0.8,1.4
		c0,7.9-7.9,17.5-7.9,17.5l-7.9-11.5l-6.9,10.7c-1,0.5-2,2.3-2.8,4.9c-0.2,0.7-0.4,1.5-0.6,2.3c-0.1,0.5-0.3,1.1-0.4,1.7
		c-0.1,0.3-0.1,0.6-0.2,0.9l-0.2,0.9v0.1c-0.1,0.6-0.2,1.3-0.4,1.9s-0.2,1.4-0.4,2.1c-0.1,0.5-0.1,0.9-0.2,1.4
		c-0.1,0.9-0.3,1.8-0.4,2.7c-0.1,0.5-0.1,1-0.2,1.5l-0.2,2c0.5,1.6,1.1,3.3,1.7,4.8c0.4,0.9,0.6,1.8,0.6,2.8
		c12.3,3.5,25.3,3.5,37.5,0c0,0,0-0.1,0-0.1c-0.2-0.9-0.3-1.8-0.2-2.7l0,0c0.2-2.6,0.5-5.1,1-7.7c0.1-1.2,0.2-2.5,0.2-3.8v-0.5
		C329.9,708.2,329.9,707.9,329.9,707.5z M329.9,707.5c0-0.4,0-0.8-0.1-1.2s-0.1-0.8-0.1-1.1s-0.1-0.8-0.1-1.1s-0.1-0.8-0.2-1.1
		s-0.1-0.8-0.2-1.1c0-0.1,0-0.3-0.1-0.4c-0.1-0.5-0.2-1-0.4-1.5s-0.2-0.8-0.3-1.2c0-0.2-0.1-0.4-0.2-0.5s-0.2-0.6-0.3-0.9l-0.2-0.6
		c-0.1-0.3-0.2-0.5-0.3-0.8c-0.1-0.5-0.3-0.9-0.5-1.3s-0.3-0.9-0.5-1.3c-0.3-0.9-0.7-1.8-1.1-2.7c-1.5-3.5-3.1-6.9-4.6-10.3
		c-0.8-1.8-1.5-3.6-2.1-5.4l-0.2,0.3c-0.3,0.5-0.6,0.9-0.8,1.4c0,7.9-7.9,17.5-7.9,17.5l-7.9-11.5l-6.9,10.7c-1,0.5-2,2.3-2.8,4.9
		c-0.2,0.7-0.4,1.5-0.6,2.3c-0.1,0.5-0.3,1.1-0.4,1.7c-0.1,0.3-0.1,0.6-0.2,0.9l-0.2,0.9v0.1c-0.1,0.6-0.2,1.3-0.4,1.9
		s-0.2,1.4-0.4,2.1c-0.1,0.5-0.1,0.9-0.2,1.4c-0.1,0.9-0.3,1.8-0.4,2.7c-0.1,0.5-0.1,1-0.2,1.5l-0.2,2c0.5,1.6,1.1,3.3,1.7,4.8
		c0.4,0.9,0.6,1.8,0.6,2.8c12.3,3.5,25.3,3.5,37.5,0c0,0,0-0.1,0-0.1c-0.2-0.9-0.3-1.8-0.2-2.7l0,0c0.2-2.6,0.5-5.1,1-7.7
		c0.1-1.2,0.2-2.5,0.2-3.8v-0.5C329.9,708.2,329.9,707.9,329.9,707.5z M329.9,707.5c0-0.4,0-0.8-0.1-1.2s-0.1-0.8-0.1-1.1
		s-0.1-0.8-0.1-1.1s-0.1-0.8-0.2-1.1s-0.1-0.8-0.2-1.1c0-0.1,0-0.3-0.1-0.4c-0.1-0.5-0.2-1-0.4-1.5s-0.2-0.8-0.3-1.2
		c0-0.2-0.1-0.4-0.2-0.5s-0.2-0.6-0.3-0.9l-0.2-0.6c-0.1-0.3-0.2-0.5-0.3-0.8c-0.1-0.5-0.3-0.9-0.5-1.3s-0.3-0.9-0.5-1.3
		c-0.3-0.9-0.7-1.8-1.1-2.7c-1.5-3.5-3.1-6.9-4.6-10.3c-0.8-1.8-1.5-3.6-2.1-5.4l-0.2,0.3c-0.3,0.5-0.6,0.9-0.8,1.4
		c0,7.9-7.9,17.5-7.9,17.5l-7.9-11.5l-6.9,10.7c-1,0.5-2,2.3-2.8,4.9c-0.2,0.7-0.4,1.5-0.6,2.3c-0.1,0.5-0.3,1.1-0.4,1.7
		c-0.1,0.3-0.1,0.6-0.2,0.9l-0.2,0.9v0.1c-0.1,0.6-0.2,1.3-0.4,1.9s-0.2,1.4-0.4,2.1c-0.1,0.5-0.1,0.9-0.2,1.4
		c-0.1,0.9-0.3,1.8-0.4,2.7c-0.1,0.5-0.1,1-0.2,1.5l-0.2,2c0.5,1.6,1.1,3.3,1.7,4.8c0.4,0.9,0.6,1.8,0.6,2.8
		c12.3,3.5,25.3,3.5,37.5,0c0,0,0-0.1,0-0.1c-0.2-0.9-0.3-1.8-0.2-2.7l0,0c0.2-2.6,0.5-5.1,1-7.7c0.1-1.2,0.2-2.5,0.2-3.8v-0.5
		C329.9,708.2,329.9,707.9,329.9,707.5z M329.9,707.5c0-0.4,0-0.8-0.1-1.2s-0.1-0.8-0.1-1.1s-0.1-0.8-0.1-1.1s-0.1-0.8-0.2-1.1
		s-0.1-0.8-0.2-1.1c0-0.1,0-0.3-0.1-0.4c-0.1-0.5-0.2-1-0.4-1.5s-0.2-0.8-0.3-1.2c0-0.2-0.1-0.4-0.2-0.5s-0.2-0.6-0.3-0.9l-0.2-0.6
		c-0.1-0.3-0.2-0.5-0.3-0.8c-0.1-0.5-0.3-0.9-0.5-1.3s-0.3-0.9-0.5-1.3c-0.3-0.9-0.7-1.8-1.1-2.7c-1.5-3.5-3.1-6.9-4.6-10.3
		c-0.8-1.8-1.5-3.6-2.1-5.4l-0.2,0.3c-0.3,0.5-0.6,0.9-0.8,1.4c0,7.9-7.9,17.5-7.9,17.5l-7.9-11.5l-6.9,10.7c-1,0.5-2,2.3-2.8,4.9
		c-0.2,0.7-0.4,1.5-0.6,2.3c-0.1,0.5-0.3,1.1-0.4,1.7c-0.1,0.3-0.1,0.6-0.2,0.9l-0.2,0.9v0.1c-0.1,0.6-0.2,1.3-0.4,1.9
		s-0.2,1.4-0.4,2.1c-0.1,0.5-0.1,0.9-0.2,1.4c-0.1,0.9-0.3,1.8-0.4,2.7c-0.1,0.5-0.1,1-0.2,1.5l-0.2,2c0.5,1.6,1.1,3.3,1.7,4.8
		c0.4,0.9,0.6,1.8,0.6,2.8c12.3,3.5,25.3,3.5,37.5,0c0,0,0-0.1,0-0.1c-0.2-0.9-0.3-1.8-0.2-2.7l0,0c0.2-2.6,0.5-5.1,1-7.7
		c0.1-1.2,0.2-2.5,0.2-3.8v-0.5C329.9,708.2,329.9,707.9,329.9,707.5z M329.9,707.5c0-0.4,0-0.8-0.1-1.2s-0.1-0.8-0.1-1.1
		s-0.1-0.8-0.1-1.1s-0.1-0.8-0.2-1.1s-0.1-0.8-0.2-1.1c0-0.1,0-0.3-0.1-0.4c-0.1-0.5-0.2-1-0.4-1.5s-0.2-0.8-0.3-1.2
		c0-0.2-0.1-0.4-0.2-0.5s-0.2-0.6-0.3-0.9l-0.2-0.6c-0.1-0.3-0.2-0.5-0.3-0.8c-0.1-0.5-0.3-0.9-0.5-1.3s-0.3-0.9-0.5-1.3
		c-0.3-0.9-0.7-1.8-1.1-2.7c-1.5-3.5-3.1-6.9-4.6-10.3c-0.8-1.8-1.5-3.6-2.1-5.4l-0.2,0.3c-0.3,0.5-0.6,0.9-0.8,1.4
		c0,7.9-7.9,17.5-7.9,17.5l-7.9-11.5l-6.9,10.7c-1,0.5-2,2.3-2.8,4.9c-0.2,0.7-0.4,1.5-0.6,2.3c-0.1,0.5-0.3,1.1-0.4,1.7
		c-0.1,0.3-0.1,0.6-0.2,0.9l-0.2,0.9v0.1c-0.1,0.6-0.2,1.3-0.4,1.9s-0.2,1.4-0.4,2.1c-0.1,0.5-0.1,0.9-0.2,1.4
		c-0.1,0.9-0.3,1.8-0.4,2.7c-0.1,0.5-0.1,1-0.2,1.5l-0.2,2c0.5,1.6,1.1,3.3,1.7,4.8c0.4,0.9,0.6,1.8,0.6,2.8
		c12.3,3.5,25.3,3.5,37.5,0c0,0,0-0.1,0-0.1c-0.2-0.9-0.3-1.8-0.2-2.7l0,0c0.2-2.6,0.5-5.1,1-7.7c0.1-1.2,0.2-2.5,0.2-3.8v-0.5
		C329.9,708.2,329.9,707.9,329.9,707.5z M329.9,707.5c0-0.4,0-0.8-0.1-1.2s-0.1-0.8-0.1-1.1s-0.1-0.8-0.1-1.1s-0.1-0.8-0.2-1.1
		s-0.1-0.8-0.2-1.1c0-0.1,0-0.3-0.1-0.4c-0.1-0.5-0.2-1-0.4-1.5s-0.2-0.8-0.3-1.2c0-0.2-0.1-0.4-0.2-0.5s-0.2-0.6-0.3-0.9l-0.2-0.6
		c-0.1-0.3-0.2-0.5-0.3-0.8c-0.1-0.5-0.3-0.9-0.5-1.3s-0.3-0.9-0.5-1.3c-0.3-0.9-0.7-1.8-1.1-2.7c-1.5-3.5-3.1-6.9-4.6-10.3
		c-0.8-1.8-1.5-3.6-2.1-5.4l-0.2,0.3c-0.3,0.5-0.6,0.9-0.8,1.4c0,7.9-7.9,17.5-7.9,17.5l-7.9-11.5l-6.9,10.7c-1,0.5-2,2.3-2.8,4.9
		c-0.2,0.7-0.4,1.5-0.6,2.3c-0.1,0.5-0.3,1.1-0.4,1.7c-0.1,0.3-0.1,0.6-0.2,0.9l-0.2,0.9v0.1c-0.1,0.6-0.2,1.3-0.4,1.9
		s-0.2,1.4-0.4,2.1c-0.1,0.5-0.1,0.9-0.2,1.4c-0.1,0.9-0.3,1.8-0.4,2.7c-0.1,0.5-0.1,1-0.2,1.5l-0.2,2c0.5,1.6,1.1,3.3,1.7,4.8
		c0.4,0.9,0.6,1.8,0.6,2.8c12.3,3.5,25.3,3.5,37.5,0c0,0,0-0.1,0-0.1c-0.2-0.9-0.3-1.8-0.2-2.7l0,0c0.2-2.6,0.5-5.1,1-7.7
		c0.1-1.2,0.2-2.5,0.2-3.8v-0.5C329.9,708.2,329.9,707.9,329.9,707.5z"/>
	<path class="st8" d="M302.1,681.9l-0.7-0.1c-1-0.1-2-0.3-3-0.6l-0.4-0.1c-2.4-0.7-5.1-1.9-5.7-4.1c-0.2-0.7-0.2-1.4,0.1-2.1
		c0.3-1.2,0.8-2.3,1.4-3.4v-0.1c0.1-0.2,0.2-0.3,0.3-0.5c0.8-1.6,2.1-3,3.6-3.9l-1.2,0.2l0,0l-10.2,1.7l-15.8,2.5
		c0,0-2.8-0.6-6.6,9.9c0,0.1-0.1,0.3-0.1,0.4c-0.9,2.6-1.9,5.8-2.9,9.8c-0.7,2.8-1.3,5.5-1.9,8.2c-0.2,0.8-0.3,1.6-0.5,2.4
		c1.8,2.1,3.7,4.1,5.8,6l0.3,0.3c4,3.7,8.5,6.8,13.3,9.4l0.2,0.1c3,1.6,6.2,3,9.4,4.2l0.9,0.3c0.2-1.8,0.4-3.9,0.6-6
		c0-0.2,0-0.4,0.1-0.6l0.2-2c0.1-0.5,0.1-1,0.2-1.5c0.1-0.9,0.2-1.8,0.4-2.7c0.1-0.5,0.1-0.9,0.2-1.4c0.1-0.7,0.2-1.4,0.4-2.1
		s0.2-1.3,0.4-1.9v-0.1l0.2-0.9c0.1-0.3,0.1-0.6,0.2-0.9c0.1-0.6,0.3-1.1,0.4-1.7c0.2-0.8,0.4-1.6,0.6-2.3c0.8-2.6,1.7-4.4,2.8-4.9
		l6.9-10.7l0.3-0.5l0.1-0.2L302.1,681.9z"/>
	<path class="st19" d="M301.5,681.9l-7.4,11.3c-1,0.5-1.9,2.3-2.7,4.8c-0.2,0.7-0.5,1.5-0.7,2.4c-1,4.3-1.7,8.7-2.3,13.1
		c0,0.2,0,0.4-0.1,0.6c-0.3,2.8-0.6,5.5-0.9,7.9c-3.2-1.1-6.4-2.5-9.4-4.2l-0.2-0.1c-4.8-2.6-9.3-5.8-13.3-9.4l-0.3-0.3
		c-2.1-1.9-4-3.9-5.8-6c-0.2-0.3-0.5-0.5-0.7-0.8c0.1-0.5,0.2-1,0.3-1.6c0.6-2.7,1.2-5.4,1.9-8.1c0.9-3.8,2-7.5,3.4-11.2
		c0-0.1,0.1-0.2,0.1-0.3c3.5-9.1,6.1-8.6,6.1-8.6l16.6-2.7l10.5-1.7l-0.3,0.2l0,0c-1.2,0.8-2.1,1.9-2.9,3.1l-0.3,0.5
		c-0.1,0.2-0.2,0.4-0.4,0.6c-0.6,1.1-1,2.3-1.4,3.5c-0.3,0.9-0.2,2,0.2,2.9c1,1.9,3.8,3,6.2,3.6l0.4,0.1
		C299.4,681.7,300.5,681.8,301.5,681.9z"/>
	<path class="st8" d="M359.3,702.1l-0.4-8.9c1.8-14-1.8-14.9-1.8-14.9l-4.2-2h-0.1l-16.7-8.1l-0.6-0.3l-0.2-0.1l0,0l-2.2-1.1l0,0
		l-1.4-0.7l-2.6-1.3l-0.9-0.4c0,0,0,0.2,0,0.5s0,1.2,0,2.1c0,0.3,0,0.6,0,0.9c0,1,0.1,2.2,0.2,3.5c0.2,3.4,0.5,8,1.1,13.4
		c0.3,3.1,0.8,6.5,1.3,10.2c0.3,2.2,0.5,4.3,0.7,6.4c0.4,7.1,0.2,14.2-0.7,21.3l0.9-0.3c2.5-0.8,4.9-1.8,7.2-2.9l0,0
		c4.6-2.1,8.9-4.8,12.9-7.9l0.2-0.1c2.6-2,5-4.2,7.3-6.6L359.3,702.1z"/>
	<path class="st19" d="M360.2,702.1l-0.4-8.9c1.8-14-1.8-14.9-1.8-14.9l-5-2.4h-0.1l-16.8-8.1l-0.8-0.4l-0.1-0.1l-1.2-0.6l-1.6-0.8
		l-3.2-1.6v0.4c0,0.2,0,0.6,0,1l0,0c0,0.3,0,0.6,0,0.9s0,0.6,0,0.9c0,1,0.1,2.3,0.2,3.8c0.2,3.2,0.5,7.4,1,12.3
		c0.4,3.4,0.8,7.2,1.4,11.3c0.3,2.2,0.5,4.3,0.7,6.5c0.4,7,0.2,14-0.6,21c2.5-0.8,4.9-1.8,7.2-2.9l0,0c4.6-2.1,8.9-4.8,12.9-7.9
		l0.2-0.1c2.6-2,5-4.2,7.3-6.6c0.3-0.3,0.6-0.6,0.8-0.9L360.2,702.1z"/>
	<path class="st8" d="M303.8,628.7c3.1-0.5,6.3-1.7,9.4-1c2.6,0.5,4.8,2.3,7.1,3.5c2.3,1.2,4.8,1.8,7.4,2c0.9,0.1,1.9-0.1,2.7-0.5
		c1.2-0.9,1.4-2.6,1.2-4.1c-0.6-4.3-3.3-7.9-6-11.2c-1.1-1.4-2.4-2.7-3.8-3.8c-3.6-2.7-8.3-3.1-12.8-2.9c-5.1,0.2-10.2,1.2-14.6,3.8
		c-3,1.7-9.9,7.1-7.5,11.1C289.4,629.4,299.9,629.3,303.8,628.7z"/>
	<path class="st17" d="M303.8,627.7c3.1-0.5,6.3-1.7,9.4-1c2.6,0.5,4.8,2.3,7.1,3.5c2.3,1.2,4.8,1.8,7.4,2c0.9,0.1,1.9-0.1,2.7-0.5
		c1.2-0.9,1.4-2.6,1.2-4.1c-0.6-4.3-3.3-7.9-6-11.2c-1.1-1.4-2.4-2.7-3.8-3.8c-3.6-2.7-8.3-3.1-12.8-2.9c-5.1,0.2-10.2,1.2-14.6,3.8
		c-3,1.7-9.9,7.1-7.5,11.1C289.4,628.4,299.9,628.3,303.8,627.7z"/>
</g>
<linearGradient id="SVGID_4_" gradientUnits="userSpaceOnUse" x1="1665.1572" y1="-23.939" x2="1665.1572" y2="519.1017" gradientTransform="matrix(-1 0 0 -1 2324.79 820.14)">
	<stop  offset="0" style="stop-color:#808080;stop-opacity:0.25"/>
	<stop  offset="0.54" style="stop-color:#808080;stop-opacity:0.12"/>
	<stop  offset="1" style="stop-color:#808080;stop-opacity:0.1"/>
</linearGradient>
<path class="st20" d="M578.4,578.7h0.2c0.2,6.7,1.2,12.8,3,14.4c4.4,4,22.4-4,21.2-8.8c-0.3-1-0.7-2.6-1.2-4.7c4.9-0.6,9-2,10.7-4.9
	l3.1,9.7l0.2,0.7h0.1h0.2c2.1,19.6,6.8,60.4,10.5,65.8c5,7.2,10.8,38.6,10.8,38.6l10.8,64.3c0,0,4.1,37,6.6,41
	c0.7,0.8,1.7,1.3,2.7,1.4c-1.5,4.3-3.5,9.4-6,12.2c-5,5.6-11.6,16.9-17.4,16.1s-7.4,11.3,3.3,12.8c6,0.9,15.4-0.2,22.7-1.3
	c0,3.2,2.2,6.9,7.9,7.8c10.8,1.6,33.1-3.2,33.1-3.2s19-8,19.8-13.7c0.6-4.1-2.3-20.6-3.9-29.2c3-4.8-0.2-46.3-0.2-46.3l-5.8-79.5
	c0,0,3.3-44.2,0-52.2c-2.1-5-2.8-28-3.1-44.5l4,0.3c0.2-0.3,0.4-0.6,0.6-0.9l1,0.1c0,0,5-5.6,0.8-14.5c-3.1-6.6-2.5-36.2-2-51l0,0
	l0.6-7c0.2-0.2,0.4-0.5,0.5-0.8c7.8-1,15.3-3.3,22.3-6.8c2.1-0.9,4.1-2.1,5.9-3.6c4.1-4,1.7-28.1-6.6-64.3
	c-8.3-36.1-15.7-32.9-15.7-32.9s-19.8-1.6-29-13.7c-9.1-12.1-15.2-11.9-15.2-11.9l0,0c-0.2-1.6-0.4-3.1-0.5-4.5c0-0.5-0.1-1-0.1-1.5
	c3.1-2.9,5.5-6.5,6.9-10.4c1.9-1,4.2-1.3,5.9-2.6c0.5-0.3,0.9-0.7,1.2-1.1c1.8-1.6,2.9-3.9,3.2-6.3c0.3-2.6,0.2-5.3-0.4-7.9
	c-0.6-3.8-1.6-7.8-3.8-10.8s-5.6-4.8-8.8-6.5c-8.7-4.6-17.5-9.1-26.3-13.6c-1.7-1-3.6-1.7-5.6-2c-3.5-0.2-6.7,2.2-9.5,4.5
	c-1.1,0.9-2.2,1.8-3.3,2.8c-0.9,0.8-1.7,1.6-2.4,2.6c-3.3,4.5-4.7,12.8-3.3,18.4c0.5,1.8,1.5,2.3,2.7,2.3c-1.8,3.6-2.8,7.6-2.8,11.6
	c0,9,4.6,17.3,12.2,22.1c0,0.6,0,1.1,0,1.6c0,2.1,0,4.1-0.2,6.1c0,0-22,11.9-24.5,17.5s-11.6,9.6-11.6,9.6s-17.4,8.8-17.4,40.2
	l-9.1,44.2l-1.7,84.3c0,0,1.1-1,3-2.4c-0.1,0.6-0.1,1.1-0.2,1.7c-0.2,3.2-0.3,6.5-0.3,9.7L578.4,578.7z M689.5,797
	c-0.3,1.3-0.8,3-1.5,5c-0.3-1.7-0.6-3.3-0.8-4.9C687.9,797.1,688.7,797,689.5,797L689.5,797z"/>
<path class="st21" d="M659.5,786.7c0,0-3.2,14.3-8,19.9s-11.1,16.7-16.7,15.9s-7.2,11.2,3.2,12.7s31.8-3.2,31.8-3.2
	s18.3-8,19.1-13.5s-4.8-34.3-4.8-34.3L659.5,786.7z"/>
<path class="st22" d="M659.5,786.7c0,0-3.2,14.3-8,19.9s-11.1,16.7-16.7,15.9s-7.2,11.2,3.2,12.7s31.8-3.2,31.8-3.2
	s18.3-8,19.1-13.5s-4.8-34.3-4.8-34.3L659.5,786.7z"/>
<path class="st21" d="M688.9,793c0,0-3.2,14.3-8,19.9s-11.1,16.7-16.7,15.9s-7.2,11.2,3.2,12.7s31.9-3.2,31.9-3.2s18.3-8,19.1-13.5
	s-4.8-34.3-4.8-34.3L688.9,793z"/>
<path class="st23" d="M616.5,574.8c0,0,6.4,68.5,11.2,75.7s10.3,38.2,10.3,38.2l10.3,63.7c0,0,4,36.6,6.4,40.6s31.9,2.3,31.9,2.3
	l-18.4-210.9L616.5,574.8z"/>
<path class="st22" d="M616.5,574.8c0,0,6.4,68.5,11.2,75.7s10.3,38.2,10.3,38.2l10.3,63.7c0,0,4,36.6,6.4,40.6s31.9,2.3,31.9,2.3
	l-18.4-210.9L616.5,574.8z"/>
<path class="st23" d="M603.7,542.1l2.1,6.6l11.3,35.7l0.2,0.7h0.1c1.5,0.3,33.4,7.7,40.3,9.9c0.4,0.1,0.7,0.3,1.1,0.4
	c3.2,1.6,7.2,58.9,7.2,58.9s2.4,54.2,4,58.1s8,86,12,83.6s32.7,0,32.7,0c3.2-3.2,0-46.2,0-46.2l-5.7-78.8c0,0,3.2-43.8,0-51.8
	s-3.2-61.3-3.2-61.3l-65.2-10.2l-6.3-1L603.7,542.1z"/>
<path class="st24" d="M605.8,548.8l11.3,35.7l0.3,0.7c1.5,0.3,33.4,7.7,40.3,9.9h0.7l-17.8-47.2l-0.5-1.4l-5.8,0.4L605.8,548.8z"/>
<path class="st8" d="M680.2,382.9c0,0-29.5,31.9-47.8,5.6l-17.5,12l3.2,18.3l-10.4,138.6c0,0,27.1-0.8,46.2,5.6
	c10.9,3.9,23,1.1,31.1-7.2l-3.2-121.8l7.2-37.4L680.2,382.9z"/>
<path class="st21" d="M680.2,380.5c0,0-29.5,31.9-47.8,5.6l-17.5,12l3.2,18.3l-10.4,138.6c0,0,27.1-0.8,46.2,5.6
	c10.9,3.9,23,1.1,31.1-7.2l-3.2-121.8L689,394L680.2,380.5z"/>
<g id="b7475575-9269-4b4a-a721-bb0a166a2f3e">
	<g>
		<polyline class="st25" points="621.3,522.4 621.3,527.4 619.8,527.4 619.8,524 613.9,524 613.9,527.4 612.3,527.4 612.3,522.4 
			621.3,522.4 		"/>
		<path id="d39c551f-7962-48ac-bd52-1b7ff04213b0" class="st25" d="M619.9,520.7h-6.2c-0.8-0.2-1.5-0.8-1.7-1.7h9.5
			C621.4,519.9,620.7,520.5,619.9,520.7"/>
	</g>
	<g>
		<path id="a3b10f10-7568-4e16-9739-cab30d2da761" class="st25" d="M675.8,519.1c-0.2,0.8-0.9,1.4-1.7,1.7h-2.6l-0.1,0v6.6h-1.6
			v-6.6l-0.2,0H667c-0.8-0.2-1.4-0.8-1.7-1.7l0,0H675.8L675.8,519.1"/>
	</g>
</g>
<path class="st26" d="M618.8,545.3c0,0,0,20.7-4.8,29.5s-32.7,4-32.7,4l5.6-29.5L618.8,545.3z"/>
<path class="st27" d="M584.5,593.1c4.2,4,21.6-4,20.4-8.8c-0.8-3.4-3.8-15.4-5.5-22.3l-1.2-4.8c0,0-10.2-3.2-13.8,0
	c-1.3,1.2-2.2,5.7-2.7,11.3C581,578.1,581.8,590.6,584.5,593.1z"/>
<path class="st27" d="M622.8,394.8l27.9,21.5c0,0,41.4-2.4,31.1-22.3c-4.5-8.8-7.2-18.3-8-28.1c-0.3-3.6-0.3-7.3,0-10.9
	c0,0-38.2-35-33.5,4.8c0.4,3.1,0.6,6.1,0.7,9.2C641.5,398.8,622.8,394.8,622.8,394.8z"/>
<path class="st8" d="M640.4,359.8c0.4,3.1,0.6,6.1,0.7,9.2c4.3,2.8,9.3,4.4,14.5,4.3c7.1,0,12.4-6.9,17.1-11.5
	c-0.5-6.6,1.2-6.8,1.2-6.8S635.6,320,640.4,359.8z"/>
<circle class="st27" cx="655.5" cy="345.4" r="26.3"/>
<path class="st8" d="M674.2,370.5c0,0,4.4,0.4,13.1,12.3s27.9,13.5,27.9,13.5s7.2-3.2,15.1,32.6c8,35.8,10.3,59.7,6.4,63.7
	s-19.9,9.6-27.9,9.6c0,0-2.4,50.2,1.6,58.9s-0.8,14.3-0.8,14.3l-35-2.4c0,0-12-15.1-14.3-41.4s-10.3-101.2-6.4-109.9
	s21.5-31.1,20.7-33.5S674.2,370.5,674.2,370.5z"/>
<path class="st26" d="M674.3,370.3c0,0,5.9-0.2,14.7,11.8s27.9,13.5,27.9,13.5s7.2-3.2,15.1,32.7c8,35.8,10.3,59.7,6.4,63.7
	s-19.9,9.6-27.9,9.6c0,0-2.4,50.2,1.6,58.9s-0.8,14.3-0.8,14.3l-35-2.4c0,0-12-15.1-14.3-41.4s-10.4-101.1-6.4-109.9
	c4-8.7,21.5-31.1,20.7-33.5S674.3,370.3,674.3,370.3z"/>
<path class="st8" d="M581.8,568.5c3.8-2.9,11-7.4,17.6-6.4l-1.2-4.8c0,0-10.2-3.2-13.8,0C583.1,558.5,582.2,563,581.8,568.5z"/>
<path class="st8" d="M640.8,375.3c0,0-20.3,13.1-22.7,18.7c-2.4,5.6-11.2,9.6-11.2,9.6s-16.7,8.8-16.7,39.8l-8.8,43.8l39.8,55.8
	c0,0,4.8-55.8,7.2-69.3c2.4-13.5,5.6-39,5.6-39s12-15.1,10.3-19.1C642.8,411.6,640.8,375.3,640.8,375.3z"/>
<path class="st26" d="M640.8,375.1c0,0-21.2,11.8-23.6,17.4s-11.2,9.6-11.2,9.6s-16.7,8.8-16.7,39.8l-8.8,43.8l-1.6,83.6
	c0,0,14.3-13.5,24.7-7.2s16.7-20.7,16.7-20.7s4.8-55.8,7.2-69.3c2.4-13.5,5.6-39,5.6-39s12-15.1,10.3-19.1
	C641.9,410,640.8,375.1,640.8,375.1z"/>
<path class="st8" d="M632.4,313.5c1.3-1.7,2.9-3.3,4.6-4.6c2.7-2.3,5.8-4.7,9.2-4.5c1.9,0.3,3.8,0.9,5.4,1.9
	c8.5,4.5,16.9,9,25.3,13.5c3.1,1.7,6.3,3.5,8.5,6.5s3,6.9,3.7,10.7c0.5,2.6,0.6,5.2,0.4,7.8c-0.2,2.6-1.5,4.9-3.5,6.6
	c-2.3,1.7-5.4,1.7-7.3,3.8c-1.1,1.3-1.6,3-2.4,4.5c-0.8,1.5-2.1,3-3.7,2.7c-1.5-0.3-2.5-1.9-2.7-3.5c-0.1-1.7,0-3.4,0.3-5
	c0.3-3-0.1-6.2-1.8-8.4c-1.2-1.5-2.9-2.4-4.1-4c-2.8-3.8-1.5-10-4.6-13.5c-1.8-1.9-4.5-2.6-7-2c-2.5,0.5-4.7,1.9-7,3
	c-3.1,1.5-6.3,2.8-9.6,3.7c-2.8,0.8-6,2.6-7-1.1C627.9,326.2,629.2,317.9,632.4,313.5z"/>
<path class="st28" d="M633.2,312.7c1.3-1.7,2.9-3.3,4.6-4.6c2.7-2.3,5.8-4.7,9.2-4.5c1.9,0.3,3.8,0.9,5.4,1.9
	c8.5,4.5,15.5,0.2,25.3,13.5c2.1,2.8,6.3,3.5,8.5,6.5s3,6.9,3.7,10.7c0.5,2.6,0.6,5.2,0.4,7.8c-0.2,2.6-1.5,4.9-3.5,6.6
	c-2.3,1.7-5.4,1.7-7.3,3.8c-1.1,1.3-1.6,3-2.4,4.5c-0.8,1.5-2.1,3-3.7,2.7c-1.5-0.3-2.5-1.9-2.7-3.5c-0.1-1.7,0-3.4,0.3-5
	c0.3-3-0.1-6.2-1.8-8.4c-1.2-1.5-2.9-2.4-4.1-4c-2.8-3.8-1.5-10-4.6-13.5c-1.8-1.9-4.5-2.6-7-2c-2.5,0.5-4.7,1.9-7,3
	c-3.1,1.5-6.3,2.8-9.6,3.7c-2.8,0.8-6,2.6-7-1.1C628.7,325.4,630,317.1,633.2,312.7z"/>
<path class="st8" d="M705,434.2c0,0,10.6,27.1,2.7,38.2l-17.5-4c0,0,15.9,4.8,13.5-4.8S705,434.2,705,434.2z"/>
<path class="st8" d="M710.8,501.1c0,0-23.1,1.6-29.5-3.2c8.4,6.4,18.3,10.5,28.8,12L710.8,501.1z"/>
<path class="st8" d="M611.3,450.1c0,0-12,36.6-11.2,42.2s2.4,66.9,2.4,66.9l2.4-0.8l-0.8-66.9L611.3,450.1z"/>
<linearGradient id="SVGID_5_" gradientUnits="userSpaceOnUse" x1="478.5986" y1="275.8715" x2="478.5986" y2="789.2758" gradientTransform="matrix(1 0 0 -1 -43.2 820.14)">
	<stop  offset="0" style="stop-color:#808080;stop-opacity:0.25"/>
	<stop  offset="0.54" style="stop-color:#808080;stop-opacity:0.12"/>
	<stop  offset="1" style="stop-color:#808080;stop-opacity:0.1"/>
</linearGradient>
<path class="st29" d="M713.6,494.9l-273-220c-3.2-3.2-7.6-5-12.1-5h-11.6c50.3-64.4,38.8-157.4-25.6-207.7S233.8,23.4,183.6,87.8
	s-38.8,157.4,25.6,207.7c53.5,41.8,128.6,41.8,182.1,0v11.6c0,4.5,1.8,8.9,5,12.1l273,220c6.6,6.7,17.4,6.7,24,0.1
	c0,0,0.1-0.1,0.1-0.1l20.1-20.1C720.2,512.5,720.3,501.6,713.6,494.9z M300.1,269.9c-50.3,0-91.1-40.8-91.1-91.1
	c0-50.3,40.8-91.1,91.1-91.1s91.1,40.8,91.1,91.1c0,0,0,0,0,0c0,50.3-40.7,91.1-91,91.2C300.2,269.9,300.2,269.9,300.1,269.9
	L300.1,269.9z"/>
<path class="st3" d="M715.6,492.9l-273-220c-3.2-3.2-7.6-5-12.1-5h-11.6c50.3-64.4,38.8-157.4-25.6-207.7S235.8,21.4,185.6,85.8
	s-38.8,157.4,25.6,207.7c53.5,41.8,128.6,41.8,182.1,0v11.6c0,4.5,1.8,8.9,5,12.1l273,220c6.6,6.7,17.4,6.7,24,0.1
	c0,0,0.1-0.1,0.1-0.1l20.1-20.1C722.2,510.5,722.3,499.6,715.6,492.9z M302.1,267.9c-50.3,0-91.1-40.8-91.1-91.1
	c0-50.3,40.8-91.1,91.1-91.1s91.1,40.8,91.1,91.1c0,0,0,0,0,0c0,50.3-40.7,91.1-91,91.2C302.2,267.9,302.2,267.9,302.1,267.9
	L302.1,267.9z"/>
<path class="st27" d="M695.3,472.9c0,0-39.8-45.7-34.3-14.3c4,22.3,19.1,34.3,26.3,36.6S695.3,472.9,695.3,472.9z"/>
<path class="st26" d="M704.9,430.7c0,0,0.8,29.5,4.8,33.5c4,4-2.4,8.8-2.4,8.8l-15.9-4c0,0,4,26.3-12.7,23.1c0,0,11.2,10.3,22.3,12
	s10.3-2.4,10.3-2.4l16.7-19.9L704.9,430.7z"/>
<polygon class="st26" points="709.3,502 725.4,498.4 723.3,491 713.3,487 700.3,493 "/>
<path class="st11" d="M237.6,175.9c0,14.7,4.7,29,13.6,40.8c0.9,1.2,1.8,2.3,2.8,3.5c0.5,0.6,1.1,1.2,1.6,1.8
	c0.3,0.3,0.6,0.6,0.8,0.9c2.3,2.4,4.7,4.6,7.3,6.6l0.2,0.1c4,3.1,8.3,5.8,12.9,7.9l0,0c2.4,1.1,4.8,2.1,7.2,2.9l0.9,0.3
	c0.6,0.2,1.1,0.4,1.7,0.5l0.2,0.1c0.3,0.1,0.6,0.2,0.9,0.2c5.8,1.6,11.8,2.4,17.8,2.4c1,0,2,0,3.1-0.1c5.3-0.2,10.6-1.1,15.8-2.6
	h0.1c1-0.3,1.9-0.6,2.8-0.9h0.1l0.9-0.3c3.2-1.1,6.4-2.5,9.4-4.2l0.2-0.1c0.3-0.2,0.7-0.4,1-0.5c4.4-2.5,8.6-5.5,12.3-8.9l0.3-0.3
	c2.1-1.9,4-3.9,5.8-6l0.2-0.3c0.2-0.2,0.3-0.4,0.5-0.6c0.4-0.5,0.9-1.1,1.3-1.6c23-29.7,17.6-72.4-12-95.4s-72.4-17.6-95.4,12
	C242.6,146.2,237.6,160.8,237.6,175.9z"/>
<linearGradient id="SVGID_6_" gradientUnits="userSpaceOnUse" x1="-1788.3351" y1="576.299" x2="-1788.3351" y2="697.0098" gradientTransform="matrix(-1 0 0 -1 -1483.9399 820.14)">
	<stop  offset="0" style="stop-color:#808080;stop-opacity:0.25"/>
	<stop  offset="0.54" style="stop-color:#808080;stop-opacity:0.12"/>
	<stop  offset="1" style="stop-color:#808080;stop-opacity:0.1"/>
</linearGradient>
<path class="st30" d="M261.1,197.8c0,0,14.8-1.3,21.5-10.6c6.6-9.1,11.1-9.2,11.3-9.2l0,0c0.2-1.2,0.3-2.4,0.4-3.5c0,0,0-0.1,0-0.1
	c-0.3,0.2-0.6,0.4-0.9,0.4c-1.3,0.2-2.5-1.1-3.1-2.4c-0.5-1.4-1.2-2.7-2-3.9c-1.6-1.9-4.3-1.9-6.2-3.3c-1.7-1.4-2.8-3.5-3-5.7
	c-0.1-0.8-0.1-1.7-0.1-2.5c0-1.8,0.1-3.6,0.4-5.3c0.5-3.3,1.3-6.7,3.1-9.3s5.5-3.2,7.3-5.6c8.4-11.6,14.4-7.9,21.7-11.8
	c1.4-0.9,3-1.5,4.6-1.7c2.9-0.2,5.5,1.9,7.9,3.9c1.5,1.2,2.8,2.5,4,4c2.1,2.9,3.3,7.8,3.2,12.1c0.1,1.6-0.1,3.2-0.5,4.8
	c-0.6,2.3-2.1,2.1-3.9,1.6c4.4,9.2,1.4,20.3-7.1,26.1c0,0.4,0,0.7,0,1.1c0,0.1,0,0.2,0,0.2c0,1.6,0,3.2,0.2,4.8
	c0.2,0.1,16.3,9.3,18.2,13.6s8.6,7.5,8.6,7.5s7.5,4,11,16.6l-0.2,0.3c-1.8,2.2-3.7,4.2-5.8,6.1l-0.3,0.3c-3.8,3.5-7.9,6.5-12.3,9
	c-0.3,0.2-0.6,0.4-1,0.6l-0.2,0.1c-3,1.7-6.2,3.1-9.4,4.2l-0.9,0.3h-0.1c-0.9,0.3-1.9,0.6-2.8,0.9h-0.1c-5.1,1.5-10.4,2.4-15.8,2.6
	c-1,0-2,0.1-3.1,0.1c-6,0-12-0.7-17.8-2.3c-0.3-0.1-0.6-0.2-0.9-0.2l-0.2-0.1c-0.6-0.2-1.1-0.3-1.7-0.5l-0.9-0.3
	c-2.5-0.8-4.9-1.8-7.3-3l0,0c-4.6-2.2-8.9-4.9-12.9-8.1l-0.2-0.1c-2.6-2.1-5-4.3-7.3-6.7c-0.3-0.3-0.6-0.6-0.8-0.9
	c-0.5-0.6-1.1-1.2-1.6-1.8c-1-1.1-1.9-2.3-2.8-3.5C256.6,195.8,261.1,197.8,261.1,197.8z"/>
<path class="st27" d="M312.1,214.6l21.5-16.6c0,0-14.4,3.1-14-19.9c0-0.1,0-0.2,0-0.2c0-2.1,0.2-4.4,0.5-6.9
	c3.7-30.7-25.8-3.7-25.8-3.7c0.3,2.7,0.3,5.5,0,8.2c0,0.1,0,0.1,0,0.2c-0.6,7.6-2.7,15-6.1,21.7
	C280.2,212.7,312.1,214.6,312.1,214.6z"/>
<path class="st8" d="M297.1,171.1c3.6,3.6,5.9,10,11.4,10c4,0,7.9-1.2,11.2-3.4c0-2.1,0.2-4.4,0.5-6.9c3.7-30.7-25.8-3.7-25.8-3.7
	S297.4,166.1,297.1,171.1z"/>
<circle class="st27" cx="308.4" cy="159.9" r="20.3"/>
<path class="st8" d="M327.9,133.9c-1.2-1.5-2.5-2.8-4-3.9c-2.3-1.9-4.9-4-7.9-3.8c-1.6,0.2-3.2,0.8-4.6,1.7
	c-7.3,3.8-13.3,0.2-21.7,11.6c-1.8,2.4-5.4,3-7.3,5.6s-2.6,5.9-3.1,9.2c-0.4,2.2-0.5,4.5-0.3,6.7c0.2,2.2,1.3,4.2,3,5.6
	c1.9,1.4,4.6,1.4,6.2,3.3c0.8,1.2,1.5,2.5,2,3.9c0.7,1.3,1.8,2.5,3.1,2.3s2.1-1.6,2.3-3c0.1-1.4,0-2.9-0.3-4.3
	c-0.3-2.5,0.1-5.3,1.6-7.2c1-1.3,2.5-2.1,3.5-3.4c2.4-3.2,1.3-8.6,3.9-11.6c1.6-1.6,3.8-2.2,6-1.7c2.1,0.6,4.1,1.5,6,2.6
	c2.6,1.3,5.4,2.4,8.2,3.2c2.4,0.6,5.1,2.2,6-1C331.8,144.8,330.6,137.7,327.9,133.9z"/>
<path class="st31" d="M327.9,132.9c-1.2-1.5-2.5-2.8-4-3.9c-2.3-1.9-4.9-4-7.9-3.8c-1.6,0.2-3.2,0.8-4.6,1.7
	c-7.3,3.8-13.3,0.2-21.7,11.6c-1.8,2.4-5.4,3-7.3,5.6s-2.6,5.9-3.1,9.2c-0.4,2.2-0.5,4.5-0.3,6.7c0.2,2.2,1.3,4.2,3,5.6
	c1.9,1.4,4.6,1.4,6.2,3.3c0.8,1.2,1.5,2.5,2,3.9c0.7,1.3,1.8,2.5,3.1,2.3s2.1-1.6,2.3-3c0.1-1.4,0-2.9-0.3-4.3
	c-0.3-2.5,0.1-5.3,1.6-7.2c1-1.3,2.5-2.1,3.5-3.4c2.4-3.2,1.3-8.6,3.9-11.6c1.6-1.6,3.8-2.2,6-1.7c2.1,0.6,4.1,1.5,6,2.6
	c2.6,1.3,5.4,2.4,8.2,3.2c2.4,0.6,5.1,2.2,6-1C331.8,143.8,330.6,136.7,327.9,132.9z"/>
<path class="st8" d="M288.1,225.2l-0.4,15.3c5.8,1.6,11.8,2.4,17.8,2.4c1,0,2,0,3.1-0.1c5.3-0.2,10.6-1.1,15.8-2.6h0.1
	c1-0.3,1.9-0.6,2.8-0.9h0.1l0.9-0.3c3.2-1.1,6.4-2.5,9.4-4.2l0.2-0.1c0.3-0.2,0.7-0.4,1-0.5l-1.5-20.7l2.5-14.2l-13.5-9.2
	c-0.8,1.1-1.6,2.1-2.5,3.1c-1.3,1.4-2.9,2.6-4.6,3.4c-9.7,4.8-20.7-2.8-26.2-7.5l-1.3-1.1c-1.4-1.3-2.2-2.2-2.2-2.2l-6.8,10.4
	L288.1,225.2z"/>
<path class="st21" d="M288.1,226.2l-0.4,15.3c5.8,1.6,11.8,2.4,17.8,2.4c1,0,2,0,3.1-0.1c5.3-0.2,10.6-1.1,15.8-2.6h0.1
	c1-0.3,1.9-0.6,2.8-0.9h0.1l0.9-0.3c3.2-1.1,6.4-2.5,9.4-4.2l0.2-0.1c0.3-0.2,0.7-0.4,1-0.5l-1.5-20.7l2.5-14.2l-13.5-9.2
	c-0.8,1.1-1.6,2.1-2.5,3.1c-1.3,1.4-2.9,2.6-4.6,3.4c-9.7,4.8-20.7-2.8-26.2-7.5l-1.3-1.1c-1.4-1.3-2.2-2.2-2.2-2.2l-6.8,10.4
	L288.1,226.2z"/>
<path class="st32" d="M251.2,216.7c0.9,1.2,1.8,2.3,2.8,3.5c0.5,0.6,1.1,1.2,1.6,1.8c0.3,0.3,0.6,0.6,0.8,0.9
	c2.3,2.4,4.7,4.6,7.3,6.6l0.2,0.1c4,3.1,8.3,5.8,12.9,7.9l0,0c2.4,1.1,4.8,2.1,7.2,2.9l0.9,0.3c0.6,0.2,1.1,0.4,1.7,0.5l0.2,0.1
	c0.3,0.1,0.6,0.2,0.9,0.2c5.8,1.6,11.8,2.4,17.8,2.4c1,0,2,0,3.1-0.1c0.8-12.8,1-23-0.2-25.6c-0.7-1.5-1.6-3-2.5-4.4
	c-4.9-7.9-14-19.9-13.5-21.4c0.2-0.7,0.3-1.5,0.4-2.3c0.5-3.9,1.1-11.1,1.1-11.1l0,0c-0.2,0-4.7,0.1-11.3,9.1
	c-6.8,9.2-21.5,10.4-21.5,10.4S256.6,196.6,251.2,216.7z"/>
<path class="st32" d="M325.6,227.4c0,0,0.7,5.9,1.7,12.9h0.1l0.9-0.3c3.2-1.1,6.4-2.5,9.4-4.2l0.2-0.1c0.3-0.2,0.7-0.4,1-0.5
	c4.4-2.5,8.6-5.5,12.3-8.9l0.3-0.3c2.1-1.9,4-3.9,5.8-6l0.2-0.3c-3.6-12.4-11-16.3-11-16.3s-6.8-3.1-8.6-7.4s-18.2-13.4-18.2-13.4
	v0.1c0,0.8-0.3,7.8-0.6,14.9c-0.3,4.6-0.6,9.2-0.9,12.2c-0.1,1-0.3,1.9-0.5,2.8C316.4,215.8,325.6,227.4,325.6,227.4z"/>
</svg>
