<svg version="1.1" id="Layer_1" xmlns="http://www.w3.org/2000/svg" x="0" y="0" viewBox="0 0 1113.6 844.1" style="enable-background:new 0 0 1113.6 844.1" xml:space="preserve"><style>.st1{opacity:.5}.st2{fill:none;stroke:#535461;stroke-width:2;stroke-miterlimit:10}.st3{fill:#3861e5}.st4{fill:#43e4ab}.st6{fill:#9ab4f7}.st8{opacity:.1;enable-background:new}.st10{fill:#fff}.st11,.st12,.st13{fill:#c0bccf}.st12,.st13{opacity:.5;enable-background:new}.st13{fill:#3861e5}.st15{fill:#493545}.st16{fill:#c77485}.st17{fill:#444176}.st19{fill:#f1d2d7}.st21{fill:#53526b}.st22{opacity:5.000000e-02;enable-background:new}.st23{fill:#5f5d7e}.st25{fill:#e82127}.st26{fill:#d6dbe6}.st27{fill:#fdc2cc}.st32{fill:#555388}</style><path d="M1047 458.2c-39.2 53.7-26.2 130.4-3.6 191.5 7.6 20.5 16.2 42.1 12.3 64.3-4.8 27.2-27.4 47.6-50.8 58.7-42.8 20.2-93.3 17-131.5-8.5-33-22-56.2-58.6-89.9-79.5-56.3-35-129.4-19.4-192 7.4-44.3 18.9-92.9 43.3-136.1 25.8-30.4-12.3-50.9-43.6-61.6-77.1-5.2-16.2-8.8-33.7-19.2-46.3-6.2-7.5-14.3-12.8-22.7-17.1-76.4-40-174.6-15-248.7-59.6-50-30.1-81.1-88.6-94.1-150.1S-.6 241.3 4.5 177.5C8.2 132.1 13.9 83.6 41.2 48 70 10.3 118.4-4.7 161.6 1.2s81.9 29.9 115.8 58.6c42.4 35.7 81.4 80.6 134.1 94.2 35.9 9.2 74.1 2.7 111.4-.2 62.4-4.8 124.6.7 186.4 7 59.2 6 118.7 12.7 174.8 32.4 39.7 13.9 71.1 40.2 108.4 58.2 24.3 11.7 51.1 14.4 74 29.6 28.3 18.6 53.8 51.7 45.5 91.3-7.9 37.7-44.2 57.4-65 85.9z" style="opacity:.1;fill:#3861e5;enable-background:new"/><g class="st1"><path class="st2" d="M855 703.2s3.3-97.8 56.2-153c22.2-23.2 36.8-52.6 40.6-84.5 1.8-15.1 2.2-30.4 1.2-45.6"/><path class="st3" d="M986.2 385.2c-3.6 10.9-33.9 36-33.9 36s-9.3-38.2-5.7-49.1c3.6-10.9 15.4-16.8 26.3-13.2 11 3.6 16.9 15.4 13.3 26.3zM998.8 456.5c-9 7.2-48 11.8-48 11.8s13-37.1 22-44.3c8.7-7.5 21.8-6.6 29.4 2 7.5 8.7 6.6 21.8-2 29.4-.5.4-.9.8-1.4 1.1zM963.1 559.3c-11.4 1.7-47.4-14-47.4-14s29.9-25.5 41.3-27.2c11.4-1.7 22 6.2 23.6 17.6s-6.1 22-17.5 23.6zM918.6 631.1c-10.9 3.6-49.1-5.8-49.1-5.8s25.2-30.2 36.1-33.8c10.9-3.6 22.7 2.4 26.3 13.3 3.6 10.9-2.3 22.7-13.3 26.3zM908.6 456.7c5.3 10.2 39.2 30.2 39.2 30.2s3.1-39.2-2.2-49.4c-5.3-10.2-17.9-14.2-28.1-8.9-10.2 5.3-14.2 17.9-8.9 28.1zM857.6 541.2c8.1 8.2 46.4 17.1 46.4 17.1s-8.8-38.3-16.9-46.5c-8.1-8.1-21.3-8.2-29.4-.1s-8.2 21.4-.1 29.5zM819.3 630.2c6.6 9.4 42.8 24.7 42.8 24.7s-2.2-39.3-8.8-48.7c-6.3-9.6-19.2-12.3-28.8-6-9.6 6.3-12.3 19.2-6 28.8.3.5.5.9.8 1.2z"/><path class="st2" d="M866.6 662.8s-30-43.6-24.7-84.7c2.3-17.2-1-34.7-9.5-49.9-4.1-7.2-8.8-13.9-14.1-20.2"/><path class="st4" d="M821.4 482.1c1.9 5.9-3.2 26.6-3.2 26.6S801.9 495 800 489.1c-1.9-5.9 1.3-12.3 7.2-14.2 5.9-2 12.3 1.3 14.2 7.2zM849.9 509.1c-1.6 6-17.1 20.6-17.1 20.6s-6.3-20.3-4.7-26.4c1.6-6 7.8-9.6 13.8-8 6 1.6 9.6 7.8 8 13.8zM867.4 565.3c-4.4 4.4-25.2 9.1-25.2 9.1s4.8-20.7 9.3-25.1c4.4-4.4 11.6-4.4 16 0s4.3 11.7-.1 16zM871.1 610.9c-3.6 5.1-23.3 13.2-23.3 13.2s1.3-21.3 4.9-26.3c3.6-5.1 10.6-6.3 15.7-2.7 5.1 3.7 6.3 10.7 2.7 15.8zM810.6 538.1c5.6 2.7 26.8.5 26.8.5s-11.3-18.1-16.9-20.8c-5.6-2.7-12.3-.4-15.1 5.2s-.4 12.4 5.2 15.1zM815.6 591.4c6.2.9 25.7-7.5 25.7-7.5S825.2 570 819 569.1c-6.2-.9-11.9 3.3-12.8 9.4-1 6.2 3.3 12 9.4 12.9zM827.6 642.5c5.9 2 26.6-3 26.6-3s-13.6-16.4-19.5-18.4-12.3 1.2-14.3 7.1 1.3 12.3 7.2 14.3z"/><path d="M821.4 482.1c1.9 5.9-3.2 26.6-3.2 26.6S801.9 495 800 489.1c-1.9-5.9 1.3-12.3 7.2-14.2 5.9-2 12.3 1.3 14.2 7.2z" style="opacity:.5;fill:#fff;enable-background:new"/><path class="st6" d="M849.9 509.1c-1.6 6-17.1 20.6-17.1 20.6s-6.3-20.3-4.7-26.4c1.6-6 7.8-9.6 13.8-8 6 1.6 9.6 7.8 8 13.8zM867.4 565.3c-4.4 4.4-25.2 9.1-25.2 9.1s4.8-20.7 9.3-25.1c4.4-4.4 11.6-4.4 16 0s4.3 11.7-.1 16zM871.1 610.9c-3.6 5.1-23.3 13.2-23.3 13.2s1.3-21.3 4.9-26.3c3.6-5.1 10.6-6.3 15.7-2.7 5.1 3.7 6.3 10.7 2.7 15.8zM810.6 538.1c5.6 2.7 26.8.5 26.8.5s-11.3-18.1-16.9-20.8c-5.6-2.7-12.3-.4-15.1 5.2s-.4 12.4 5.2 15.1zM815.6 591.4c6.2.9 25.7-7.5 25.7-7.5S825.2 570 819 569.1c-6.2-.9-11.9 3.3-12.8 9.4-1 6.2 3.3 12 9.4 12.9zM827.6 642.5c5.9 2 26.6-3 26.6-3s-13.6-16.4-19.5-18.4-12.3 1.2-14.3 7.1 1.3 12.3 7.2 14.3z"/><path style="fill:#474059" d="M811.1 781.1h85.3L917.8 651h-128z"/><path class="st8" d="M806.1 651 826 772.6h71.8l-1.4 8.5h-85.3L789.8 651z"/></g><linearGradient id="SVGID_1_" gradientUnits="userSpaceOnUse" x1="514.28" y1="49.41" x2="514.28" y2="804.71" gradientTransform="matrix(1 0 0 -1 0 844)"><stop offset="0" style="stop-color:gray;stop-opacity:.25"/><stop offset=".54" style="stop-color:gray;stop-opacity:.12"/><stop offset="1" style="stop-color:gray;stop-opacity:.1"/></linearGradient><path style="fill:url(#SVGID_1_)" d="M201.3 39.3h626v755.3h-626z"/><path class="st10" d="M209.3 49h610v736h-610z"/><path class="st11" d="M446.3 131.9h246v12h-246zM446.3 169.9h246v12h-246z"/><path class="st3" d="M505.3 207.9h128v12h-128z"/><path class="st12" d="M446.3 373h246v12h-246zM446.3 411h246v12h-246z"/><path class="st13" d="M505.3 449h128v12h-128z"/><path class="st12" d="M446.3 614h246v12h-246zM446.3 652h246v12h-246z"/><path class="st13" d="M505.3 690h128v12h-128z"/><g class="st1"><path class="st11" d="M378.3 416.9c0 16.2-5.8 31.9-16.4 44.3-.5.6-1.1 1.2-1.6 1.8-.3.3-.6.6-.8.9-2.3 2.4-4.7 4.6-7.3 6.6l-.2.1c-4 3.1-8.3 5.8-12.9 7.9-2.4 1.1-4.8 2.1-7.2 2.9l-.9.3c-.6.2-1.1.4-1.7.5l-.2.1c-12.3 3.5-25.3 3.5-37.5 0h-.1c-1-.3-2-.6-2.9-.9l-.9-.3c-3.2-1.1-6.4-2.5-9.4-4.2l-.2-.1c-4.8-2.6-9.3-5.8-13.3-9.4l-.3-.3c-2.1-1.9-4-3.9-5.8-6-.2-.3-.5-.5-.7-.8-.4-.5-.9-1.1-1.3-1.6-23-29.7-17.7-72.4 12-95.4s72.4-17.7 95.4 12c9.1 11.9 14.2 26.5 14.2 41.6z"/><linearGradient id="SVGID_2_" gradientUnits="userSpaceOnUse" x1="352.476" y1="335.18" x2="352.476" y2="456.222" gradientTransform="matrix(1 0 0 -1 -43.2 820.14)"><stop offset="0" style="stop-color:gray;stop-opacity:.25"/><stop offset=".54" style="stop-color:gray;stop-opacity:.12"/><stop offset="1" style="stop-color:gray;stop-opacity:.1"/></linearGradient><path d="m359.7 439.9-5.2-2.3c.1-.8.1-1.6.1-2.4v-2c-.5-5.3-3.9-9.8-6.2-14.7-2.2-4.4-3.5-9.1-4.1-14-.6-6 0-12.2-2.2-17.9-1.8-4.5-5.3-8.4-9.1-11.7-4.3-4-9.2-7.1-14.6-9.3-5.5-2-11.9-2.5-17.5-.5-5 1.8-8.9 5.5-12.6 9.1-2.7 2.4-5.1 5.1-7.1 8.1-2.3 3.7-3.2 8-4 12.2-1.2 6.8-2 13.6-2.5 20.4-.4 5.7-1 12.2-5.9 15.7-2.4 1.7-5.7 2.7-6.8 5.3-.3.8-.4 1.6-.4 2.5 0 .7 0 1.4.1 2.1.1.4.1.8.3 1.2-1.4 3.5-2.6 7-3.5 10.7-.7 2.7-1.4 5.4-2 7.9h2.5l9.3.2h.1l10 .2 9.3.2h.2l2.7.2h.9l37.3.9h.2l2.5.1h.9l7.5.2 11 .3h.1l8.3.2h2.6l-.4-8.7c1.8-13.4-1.8-14.2-1.8-14.2zm-41.9-1.1c0 7.4-7.9 16.4-7.9 16.4l-7.9-10.8.3-.4 7.6 10.4s7.9-9 7.9-16.4c.2-.4.4-.7.6-1.1l.2.6c-.3.4-.6.9-.8 1.3zm12.1 28.9c0-.4 0-.8-.1-1.1s-.1-.7-.1-1.1-.1-.7-.1-1.1c-.1-.4-.1-.7-.2-1.1-.1-.4-.1-.7-.2-1.1 0-.1 0-.2-.1-.4-.1-.5-.2-.9-.4-1.4-.1-.5-.2-.8-.3-1.1 0-.2-.1-.3-.2-.5s-.2-.5-.3-.8l-.2-.5c-.1-.2-.2-.5-.3-.7-.1-.4-.3-.8-.5-1.3-.2-.4-.3-.8-.5-1.2-.3-.8-.7-1.7-1.1-2.5-1.5-3.2-3.1-6.4-4.6-9.6-.8-1.7-1.5-3.3-2.1-5.1l-.2.3c-.3.4-.6.9-.8 1.3 0 7.4-7.9 16.4-7.9 16.4l-7.9-10.8-6.9 10c-1 .5-2 2.2-2.8 4.6l-.6 2.1c-.1.5-.3 1-.4 1.6-.1.3-.1.5-.2.8l-.2.9v.1c-.1.6-.2 1.2-.4 1.8-.1.6-.2 1.3-.4 2-.1.4-.1.9-.2 1.3-.1.8-.3 1.7-.4 2.5-.1.5-.1 1-.2 1.5l-.2 1.9c.5 1.5 1.1 3 1.7 4.5.4.8.6 1.7.6 2.6 12.3 3.3 25.2 3.3 37.5 0v-.1c-.2-.8-.3-1.7-.2-2.5.2-2.4.5-4.8 1-7.2.1-1.2.2-2.3.2-3.5v-.4c.2-.4.2-.8.2-1.1zm0 0c0-.4 0-.8-.1-1.1s-.1-.7-.1-1.1-.1-.7-.1-1.1c-.1-.4-.1-.7-.2-1.1-.1-.4-.1-.7-.2-1.1 0-.1 0-.2-.1-.4-.1-.5-.2-.9-.4-1.4-.1-.5-.2-.8-.3-1.1 0-.2-.1-.3-.2-.5s-.2-.5-.3-.8l-.2-.5c-.1-.2-.2-.5-.3-.7-.1-.4-.3-.8-.5-1.3-.2-.4-.3-.8-.5-1.2-.3-.8-.7-1.7-1.1-2.5-1.5-3.2-3.1-6.4-4.6-9.6-.8-1.7-1.5-3.3-2.1-5.1l-.2.3c-.3.4-.6.9-.8 1.3 0 7.4-7.9 16.4-7.9 16.4l-7.9-10.8-6.9 10c-1 .5-2 2.2-2.8 4.6l-.6 2.1c-.1.5-.3 1-.4 1.6-.1.3-.1.5-.2.8l-.2.9v.1c-.1.6-.2 1.2-.4 1.8-.1.6-.2 1.3-.4 2-.1.4-.1.9-.2 1.3-.1.8-.3 1.7-.4 2.5-.1.5-.1 1-.2 1.5l-.2 1.9c.5 1.5 1.1 3 1.7 4.5.4.8.6 1.7.6 2.6 12.3 3.3 25.2 3.3 37.5 0v-.1c-.2-.8-.3-1.7-.2-2.5.2-2.4.5-4.8 1-7.2.1-1.2.2-2.3.2-3.5v-.4c.2-.4.2-.8.2-1.1zm0 0c0-.4 0-.8-.1-1.1s-.1-.7-.1-1.1-.1-.7-.1-1.1c-.1-.4-.1-.7-.2-1.1-.1-.4-.1-.7-.2-1.1 0-.1 0-.2-.1-.4-.1-.5-.2-.9-.4-1.4-.1-.5-.2-.8-.3-1.1 0-.2-.1-.3-.2-.5s-.2-.5-.3-.8l-.2-.5c-.1-.2-.2-.5-.3-.7-.1-.4-.3-.8-.5-1.3-.2-.4-.3-.8-.5-1.2-.3-.8-.7-1.7-1.1-2.5-1.5-3.2-3.1-6.4-4.6-9.6-.8-1.7-1.5-3.3-2.1-5.1l-.2.3c-.3.4-.6.9-.8 1.3 0 7.4-7.9 16.4-7.9 16.4l-7.9-10.8-6.9 10c-1 .5-2 2.2-2.8 4.6l-.6 2.1c-.1.5-.3 1-.4 1.6-.1.3-.1.5-.2.8l-.2.9v.1c-.1.6-.2 1.2-.4 1.8-.1.6-.2 1.3-.4 2-.1.4-.1.9-.2 1.3-.1.8-.3 1.7-.4 2.5-.1.5-.1 1-.2 1.5l-.2 1.9c.5 1.5 1.1 3 1.7 4.5.4.8.6 1.7.6 2.6 12.3 3.3 25.2 3.3 37.5 0v-.1c-.2-.8-.3-1.7-.2-2.5.2-2.4.5-4.8 1-7.2.1-1.2.2-2.3.2-3.5v-.4c.2-.4.2-.8.2-1.1zm0 0c0-.4 0-.8-.1-1.1s-.1-.7-.1-1.1-.1-.7-.1-1.1c-.1-.4-.1-.7-.2-1.1-.1-.4-.1-.7-.2-1.1 0-.1 0-.2-.1-.4-.1-.5-.2-.9-.4-1.4-.1-.5-.2-.8-.3-1.1 0-.2-.1-.3-.2-.5s-.2-.5-.3-.8l-.2-.5c-.1-.2-.2-.5-.3-.7-.1-.4-.3-.8-.5-1.3-.2-.4-.3-.8-.5-1.2-.3-.8-.7-1.7-1.1-2.5-1.5-3.2-3.1-6.4-4.6-9.6-.8-1.7-1.5-3.3-2.1-5.1l-.2.3c-.3.4-.6.9-.8 1.3 0 7.4-7.9 16.4-7.9 16.4l-7.9-10.8-6.9 10c-1 .5-2 2.2-2.8 4.6l-.6 2.1c-.1.5-.3 1-.4 1.6-.1.3-.1.5-.2.8l-.2.9v.1c-.1.6-.2 1.2-.4 1.8-.1.6-.2 1.3-.4 2-.1.4-.1.9-.2 1.3-.1.8-.3 1.7-.4 2.5-.1.5-.1 1-.2 1.5l-.2 1.9c.5 1.5 1.1 3 1.7 4.5.4.8.6 1.7.6 2.6 12.3 3.3 25.2 3.3 37.5 0v-.1c-.2-.8-.3-1.7-.2-2.5.2-2.4.5-4.8 1-7.2.1-1.2.2-2.3.2-3.5v-.4c.2-.4.2-.8.2-1.1z" style="fill:url(#SVGID_2_)"/><path class="st15" d="M284.3 398h46v31h-46z"/><path class="st16" d="m337.9 432.1-19.3 27.1-20.1-1.8s-26.3 1.7-8.8-18.4c8.4-9.7 11.2-17.7 11.8-23.5.6-6.2-1.3-9.8-1.3-9.8l21.9-2.6c-1 2.9-1.1 6.1-.4 9.1 2.8 11.6 16.2 19.9 16.2 19.9z"/><path class="st8" d="M321.8 412.4c-5.8 4.4-13.4 5.6-20.3 3.3.6-6.2-1.3-9.8-1.3-9.8l21.9-2.6c-.9 2.9-1 6.1-.3 9.1z"/><circle class="st16" cx="308.6" cy="394.1" r="21.9"/><path class="st8" d="m337.1 433.3-.5-2-.4-1.8-.6-2.6-.1-.5-.1-.4s.5-1.6-2.9-1.1l-.6.1c-.5.1-1.2.3-1.9.5l-.6.2-.9.3c-2.7.9-5.2 2.4-7.3 4.4-.9.9-1.7 1.9-2.4 2.9-.1.1-.1.2-.2.3l-.6 1.2c0 7.9-7.9 17.5-7.9 17.5l-7.7-11.1-.1-.2-1.8-2.7-.6-.9-.2-.3-4-5.4-1-1.3-.3-.5-.5-.6-1.1-1.5-4.5 2.6-6 3.5-3.5 22.8v.6l.1 1.9.7 12.4v.2l-1.3 5.1.2.1c3 1.6 6.2 3 9.4 4.2l.9.3c1 .3 1.9.6 2.9.9 0 .1.1.3.1.5v-.4c12.3 3.5 25.3 3.5 37.5 0l.2-.1c.6-.2 1.1-.3 1.7-.5l.9-.3c2.5-.8 4.9-1.8 7.2-2.9l.8-17.9.6-12.9v-.9l-3.6-13.7z"/><path class="st10" d="M329.9 466.5c0-.4 0-.8-.1-1.2s-.1-.8-.1-1.1-.1-.8-.1-1.1-.1-.8-.2-1.1-.1-.8-.2-1.1c0-.1 0-.3-.1-.4-.1-.5-.2-1-.4-1.5s-.2-.8-.3-1.2c0-.2-.1-.4-.2-.5-.1-.2-.2-.6-.3-.9l-.2-.6c-.1-.3-.2-.5-.3-.8-.1-.5-.3-.9-.5-1.3s-.3-.9-.5-1.3c-.3-.9-.7-1.8-1.1-2.7-1.5-3.5-3.1-6.9-4.6-10.3-.8-1.8-1.5-3.6-2.1-5.4l-.2.3c-.3.5-.6.9-.8 1.4 0 7.9-7.9 17.5-7.9 17.5l-7.9-11.5-6.9 10.7c-1 .5-2 2.3-2.8 4.9-.2.7-.4 1.5-.6 2.3-.1.5-.3 1.1-.4 1.7-.1.3-.1.6-.2.9l-.2.9v.1c-.1.6-.2 1.3-.4 1.9-.1.7-.2 1.4-.4 2.1-.1.5-.1.9-.2 1.4-.1.9-.3 1.8-.4 2.7-.1.5-.1 1-.2 1.5l-.2 2c.5 1.6 1.1 3.3 1.7 4.9.4.9.6 1.8.6 2.8 12.3 3.5 25.3 3.5 37.5 0v-.1c-.2-.9-.3-1.8-.2-2.7.2-2.6.5-5.1 1-7.7.1-1.2.2-2.5.2-3.8v-.5c.2-.5.2-.8.2-1.2zm0 0c0-.4 0-.8-.1-1.2s-.1-.8-.1-1.1-.1-.8-.1-1.1-.1-.8-.2-1.1-.1-.8-.2-1.1c0-.1 0-.3-.1-.4-.1-.5-.2-1-.4-1.5s-.2-.8-.3-1.2c0-.2-.1-.4-.2-.5-.1-.2-.2-.6-.3-.9l-.2-.6c-.1-.3-.2-.5-.3-.8-.1-.5-.3-.9-.5-1.3s-.3-.9-.5-1.3c-.3-.9-.7-1.8-1.1-2.7-1.5-3.5-3.1-6.9-4.6-10.3-.8-1.8-1.5-3.6-2.1-5.4l-.2.3c-.3.5-.6.9-.8 1.4 0 7.9-7.9 17.5-7.9 17.5l-7.9-11.5-6.9 10.7c-1 .5-2 2.3-2.8 4.9-.2.7-.4 1.5-.6 2.3-.1.5-.3 1.1-.4 1.7-.1.3-.1.6-.2.9l-.2.9v.1c-.1.6-.2 1.3-.4 1.9-.1.7-.2 1.4-.4 2.1-.1.5-.1.9-.2 1.4-.1.9-.3 1.8-.4 2.7-.1.5-.1 1-.2 1.5l-.2 2c.5 1.6 1.1 3.3 1.7 4.9.4.9.6 1.8.6 2.8 12.3 3.5 25.3 3.5 37.5 0v-.1c-.2-.9-.3-1.8-.2-2.7.2-2.6.5-5.1 1-7.7.1-1.2.2-2.5.2-3.8v-.5c.2-.5.2-.8.2-1.2zm0 0c0-.4 0-.8-.1-1.2s-.1-.8-.1-1.1-.1-.8-.1-1.1-.1-.8-.2-1.1-.1-.8-.2-1.1c0-.1 0-.3-.1-.4-.1-.5-.2-1-.4-1.5s-.2-.8-.3-1.2c0-.2-.1-.4-.2-.5-.1-.2-.2-.6-.3-.9l-.2-.6c-.1-.3-.2-.5-.3-.8-.1-.5-.3-.9-.5-1.3s-.3-.9-.5-1.3c-.3-.9-.7-1.8-1.1-2.7-1.5-3.5-3.1-6.9-4.6-10.3-.8-1.8-1.5-3.6-2.1-5.4l-.2.3c-.3.5-.6.9-.8 1.4 0 7.9-7.9 17.5-7.9 17.5l-7.9-11.5-6.9 10.7c-1 .5-2 2.3-2.8 4.9-.2.7-.4 1.5-.6 2.3-.1.5-.3 1.1-.4 1.7-.1.3-.1.6-.2.9l-.2.9v.1c-.1.6-.2 1.3-.4 1.9-.1.7-.2 1.4-.4 2.1-.1.5-.1.9-.2 1.4-.1.9-.3 1.8-.4 2.7-.1.5-.1 1-.2 1.5l-.2 2c.5 1.6 1.1 3.3 1.7 4.9.4.9.6 1.8.6 2.8 12.3 3.5 25.3 3.5 37.5 0v-.1c-.2-.9-.3-1.8-.2-2.7.2-2.6.5-5.1 1-7.7.1-1.2.2-2.5.2-3.8v-.5c.2-.5.2-.8.2-1.2zm10.6-18.8-3.6-14.3-.6-2.4-.2-.7-.9-3.5v-.1c0-.2 0-.3-.1-.5-.1-.3-.5-.5-1.2-.6h-.9c-.9.1-1.7.2-2.6.5-.4.1-.9.2-1.3.4l-.9.3h-.1c-2.3.8-4.4 1.9-6.3 3.5-1.2 1-2.3 2.2-3.2 3.5l-.2.3c-.3.5-.6.9-.8 1.4 0 7.9-7.9 17.5-7.9 17.5l-7.9-11.5-.5-.6-.1-.1-1.1-1.7-.9-1.2-.2-.3-4.1-5.5-1.3-1.8v-.1l-.5-.6-.9-1.1-3 1.8-7.5 4.4-3.5 22.5v.2l.1 1.6.7 12.5v.7l-1.1 4.5c3 1.6 6.2 3 9.4 4.2l.9.3c1 .3 1.9.6 2.9.9 0 .1.1.3.1.5v-.4c12.3 3.5 25.3 3.5 37.5 0l.2-.1c.6-.2 1.1-.3 1.7-.5l.9-.3c2.5-.8 4.9-1.8 7.2-2.9l.8-17.9.6-12.8h.4zm-49.2 34.6c0 .1.1.3.1.5 0-.2 0-.4-.1-.5zm38.6-15.8c0-.4 0-.8-.1-1.2s-.1-.8-.1-1.1-.1-.8-.1-1.1-.1-.8-.2-1.1-.1-.8-.2-1.1c0-.1 0-.3-.1-.4-.1-.5-.2-1-.4-1.5s-.2-.8-.3-1.2c0-.2-.1-.4-.2-.5-.1-.2-.2-.6-.3-.9l-.2-.6c-.1-.3-.2-.5-.3-.8-.1-.5-.3-.9-.5-1.3s-.3-.9-.5-1.3c-.3-.9-.7-1.8-1.1-2.7-1.5-3.5-3.1-6.9-4.6-10.3-.8-1.8-1.5-3.6-2.1-5.4l-.2.3c-.3.5-.6.9-.8 1.4 0 7.9-7.9 17.5-7.9 17.5l-7.9-11.5-6.9 10.7c-1 .5-2 2.3-2.8 4.9-.2.7-.4 1.5-.6 2.3-.1.5-.3 1.1-.4 1.7-.1.3-.1.6-.2.9l-.2.9v.1c-.1.6-.2 1.3-.4 1.9-.1.7-.2 1.4-.4 2.1-.1.5-.1.9-.2 1.4-.1.9-.3 1.8-.4 2.7-.1.5-.1 1-.2 1.5l-.2 2c.5 1.6 1.1 3.3 1.7 4.9.4.9.6 1.8.6 2.8 12.3 3.5 25.3 3.5 37.5 0v-.1c-.2-.9-.3-1.8-.2-2.7.2-2.6.5-5.1 1-7.7.1-1.2.2-2.5.2-3.8v-.5c.2-.5.2-.8.2-1.2zm0 0c0-.4 0-.8-.1-1.2s-.1-.8-.1-1.1-.1-.8-.1-1.1-.1-.8-.2-1.1-.1-.8-.2-1.1c0-.1 0-.3-.1-.4-.1-.5-.2-1-.4-1.5s-.2-.8-.3-1.2c0-.2-.1-.4-.2-.5-.1-.2-.2-.6-.3-.9l-.2-.6c-.1-.3-.2-.5-.3-.8-.1-.5-.3-.9-.5-1.3s-.3-.9-.5-1.3c-.3-.9-.7-1.8-1.1-2.7-1.5-3.5-3.1-6.9-4.6-10.3-.8-1.8-1.5-3.6-2.1-5.4l-.2.3c-.3.5-.6.9-.8 1.4 0 7.9-7.9 17.5-7.9 17.5l-7.9-11.5-6.9 10.7c-1 .5-2 2.3-2.8 4.9-.2.7-.4 1.5-.6 2.3-.1.5-.3 1.1-.4 1.7-.1.3-.1.6-.2.9l-.2.9v.1c-.1.6-.2 1.3-.4 1.9-.1.7-.2 1.4-.4 2.1-.1.5-.1.9-.2 1.4-.1.9-.3 1.8-.4 2.7-.1.5-.1 1-.2 1.5l-.2 2c.5 1.6 1.1 3.3 1.7 4.9.4.9.6 1.8.6 2.8 12.3 3.5 25.3 3.5 37.5 0v-.1c-.2-.9-.3-1.8-.2-2.7.2-2.6.5-5.1 1-7.7.1-1.2.2-2.5.2-3.8v-.5c.2-.5.2-.8.2-1.2zm0 0c0-.4 0-.8-.1-1.2s-.1-.8-.1-1.1-.1-.8-.1-1.1-.1-.8-.2-1.1-.1-.8-.2-1.1c0-.1 0-.3-.1-.4-.1-.5-.2-1-.4-1.5s-.2-.8-.3-1.2c0-.2-.1-.4-.2-.5-.1-.2-.2-.6-.3-.9l-.2-.6c-.1-.3-.2-.5-.3-.8-.1-.5-.3-.9-.5-1.3s-.3-.9-.5-1.3c-.3-.9-.7-1.8-1.1-2.7-1.5-3.5-3.1-6.9-4.6-10.3-.8-1.8-1.5-3.6-2.1-5.4l-.2.3c-.3.5-.6.9-.8 1.4 0 7.9-7.9 17.5-7.9 17.5l-7.9-11.5-6.9 10.7c-1 .5-2 2.3-2.8 4.9-.2.7-.4 1.5-.6 2.3-.1.5-.3 1.1-.4 1.7-.1.3-.1.6-.2.9l-.2.9v.1c-.1.6-.2 1.3-.4 1.9-.1.7-.2 1.4-.4 2.1-.1.5-.1.9-.2 1.4-.1.9-.3 1.8-.4 2.7-.1.5-.1 1-.2 1.5l-.2 2c.5 1.6 1.1 3.3 1.7 4.9.4.9.6 1.8.6 2.8 12.3 3.5 25.3 3.5 37.5 0v-.1c-.2-.9-.3-1.8-.2-2.7.2-2.6.5-5.1 1-7.7.1-1.2.2-2.5.2-3.8v-.5c.2-.5.2-.8.2-1.2zm0 0c0-.4 0-.8-.1-1.2s-.1-.8-.1-1.1-.1-.8-.1-1.1-.1-.8-.2-1.1-.1-.8-.2-1.1c0-.1 0-.3-.1-.4-.1-.5-.2-1-.4-1.5s-.2-.8-.3-1.2c0-.2-.1-.4-.2-.5-.1-.2-.2-.6-.3-.9l-.2-.6c-.1-.3-.2-.5-.3-.8-.1-.5-.3-.9-.5-1.3s-.3-.9-.5-1.3c-.3-.9-.7-1.8-1.1-2.7-1.5-3.5-3.1-6.9-4.6-10.3-.8-1.8-1.5-3.6-2.1-5.4l-.2.3c-.3.5-.6.9-.8 1.4 0 7.9-7.9 17.5-7.9 17.5l-7.9-11.5-6.9 10.7c-1 .5-2 2.3-2.8 4.9-.2.7-.4 1.5-.6 2.3-.1.5-.3 1.1-.4 1.7-.1.3-.1.6-.2.9l-.2.9v.1c-.1.6-.2 1.3-.4 1.9-.1.7-.2 1.4-.4 2.1-.1.5-.1.9-.2 1.4-.1.9-.3 1.8-.4 2.7-.1.5-.1 1-.2 1.5l-.2 2c.5 1.6 1.1 3.3 1.7 4.9.4.9.6 1.8.6 2.8 12.3 3.5 25.3 3.5 37.5 0v-.1c-.2-.9-.3-1.8-.2-2.7.2-2.6.5-5.1 1-7.7.1-1.2.2-2.5.2-3.8v-.5c.2-.5.2-.8.2-1.2zm0 0c0-.4 0-.8-.1-1.2s-.1-.8-.1-1.1-.1-.8-.1-1.1-.1-.8-.2-1.1-.1-.8-.2-1.1c0-.1 0-.3-.1-.4-.1-.5-.2-1-.4-1.5s-.2-.8-.3-1.2c0-.2-.1-.4-.2-.5-.1-.2-.2-.6-.3-.9l-.2-.6c-.1-.3-.2-.5-.3-.8-.1-.5-.3-.9-.5-1.3s-.3-.9-.5-1.3c-.3-.9-.7-1.8-1.1-2.7-1.5-3.5-3.1-6.9-4.6-10.3-.8-1.8-1.5-3.6-2.1-5.4l-.2.3c-.3.5-.6.9-.8 1.4 0 7.9-7.9 17.5-7.9 17.5l-7.9-11.5-6.9 10.7c-1 .5-2 2.3-2.8 4.9-.2.7-.4 1.5-.6 2.3-.1.5-.3 1.1-.4 1.7-.1.3-.1.6-.2.9l-.2.9v.1c-.1.6-.2 1.3-.4 1.9-.1.7-.2 1.4-.4 2.1-.1.5-.1.9-.2 1.4-.1.9-.3 1.8-.4 2.7-.1.5-.1 1-.2 1.5l-.2 2c.5 1.6 1.1 3.3 1.7 4.9.4.9.6 1.8.6 2.8 12.3 3.5 25.3 3.5 37.5 0v-.1c-.2-.9-.3-1.8-.2-2.7.2-2.6.5-5.1 1-7.7.1-1.2.2-2.5.2-3.8v-.5c.2-.5.2-.8.2-1.2zm0 0c0-.4 0-.8-.1-1.2s-.1-.8-.1-1.1-.1-.8-.1-1.1-.1-.8-.2-1.1-.1-.8-.2-1.1c0-.1 0-.3-.1-.4-.1-.5-.2-1-.4-1.5s-.2-.8-.3-1.2c0-.2-.1-.4-.2-.5-.1-.2-.2-.6-.3-.9l-.2-.6c-.1-.3-.2-.5-.3-.8-.1-.5-.3-.9-.5-1.3s-.3-.9-.5-1.3c-.3-.9-.7-1.8-1.1-2.7-1.5-3.5-3.1-6.9-4.6-10.3-.8-1.8-1.5-3.6-2.1-5.4l-.2.3c-.3.5-.6.9-.8 1.4 0 7.9-7.9 17.5-7.9 17.5l-7.9-11.5-6.9 10.7c-1 .5-2 2.3-2.8 4.9-.2.7-.4 1.5-.6 2.3-.1.5-.3 1.1-.4 1.7-.1.3-.1.6-.2.9l-.2.9v.1c-.1.6-.2 1.3-.4 1.9-.1.7-.2 1.4-.4 2.1-.1.5-.1.9-.2 1.4-.1.9-.3 1.8-.4 2.7-.1.5-.1 1-.2 1.5l-.2 2c.5 1.6 1.1 3.3 1.7 4.9.4.9.6 1.8.6 2.8 12.3 3.5 25.3 3.5 37.5 0v-.1c-.2-.9-.3-1.8-.2-2.7.2-2.6.5-5.1 1-7.7.1-1.2.2-2.5.2-3.8v-.5c.2-.5.2-.8.2-1.2zm0 0c0-.4 0-.8-.1-1.2s-.1-.8-.1-1.1-.1-.8-.1-1.1-.1-.8-.2-1.1-.1-.8-.2-1.1c0-.1 0-.3-.1-.4-.1-.5-.2-1-.4-1.5s-.2-.8-.3-1.2c0-.2-.1-.4-.2-.5-.1-.2-.2-.6-.3-.9l-.2-.6c-.1-.3-.2-.5-.3-.8-.1-.5-.3-.9-.5-1.3s-.3-.9-.5-1.3c-.3-.9-.7-1.8-1.1-2.7-1.5-3.5-3.1-6.9-4.6-10.3-.8-1.8-1.5-3.6-2.1-5.4l-.2.3c-.3.5-.6.9-.8 1.4 0 7.9-7.9 17.5-7.9 17.5l-7.9-11.5-6.9 10.7c-1 .5-2 2.3-2.8 4.9-.2.7-.4 1.5-.6 2.3-.1.5-.3 1.1-.4 1.7-.1.3-.1.6-.2.9l-.2.9v.1c-.1.6-.2 1.3-.4 1.9-.1.7-.2 1.4-.4 2.1-.1.5-.1.9-.2 1.4-.1.9-.3 1.8-.4 2.7-.1.5-.1 1-.2 1.5l-.2 2c.5 1.6 1.1 3.3 1.7 4.9.4.9.6 1.8.6 2.8 12.3 3.5 25.3 3.5 37.5 0v-.1c-.2-.9-.3-1.8-.2-2.7.2-2.6.5-5.1 1-7.7.1-1.2.2-2.5.2-3.8v-.5c.2-.5.2-.8.2-1.2zm0 0c0-.4 0-.8-.1-1.2s-.1-.8-.1-1.1-.1-.8-.1-1.1-.1-.8-.2-1.1-.1-.8-.2-1.1c0-.1 0-.3-.1-.4-.1-.5-.2-1-.4-1.5s-.2-.8-.3-1.2c0-.2-.1-.4-.2-.5-.1-.2-.2-.6-.3-.9l-.2-.6c-.1-.3-.2-.5-.3-.8-.1-.5-.3-.9-.5-1.3s-.3-.9-.5-1.3c-.3-.9-.7-1.8-1.1-2.7-1.5-3.5-3.1-6.9-4.6-10.3-.8-1.8-1.5-3.6-2.1-5.4l-.2.3c-.3.5-.6.9-.8 1.4 0 7.9-7.9 17.5-7.9 17.5l-7.9-11.5-6.9 10.7c-1 .5-2 2.3-2.8 4.9-.2.7-.4 1.5-.6 2.3-.1.5-.3 1.1-.4 1.7-.1.3-.1.6-.2.9l-.2.9v.1c-.1.6-.2 1.3-.4 1.9-.1.7-.2 1.4-.4 2.1-.1.5-.1.9-.2 1.4-.1.9-.3 1.8-.4 2.7-.1.5-.1 1-.2 1.5l-.2 2c.5 1.6 1.1 3.3 1.7 4.9.4.9.6 1.8.6 2.8 12.3 3.5 25.3 3.5 37.5 0v-.1c-.2-.9-.3-1.8-.2-2.7.2-2.6.5-5.1 1-7.7.1-1.2.2-2.5.2-3.8v-.5c.2-.5.2-.8.2-1.2z"/><path class="st8" d="m302.1 440.9-.7-.1c-1-.1-2-.3-3-.6l-.4-.1c-2.4-.7-5.1-1.9-5.7-4.1-.2-.7-.2-1.4.1-2.1.3-1.2.8-2.3 1.4-3.4v-.1c.1-.2.2-.3.3-.5.8-1.6 2.1-3 3.6-3.9l-1.2.2-10.2 1.7-15.8 2.5s-2.8-.6-6.6 9.9c0 .1-.1.3-.1.4-.9 2.6-1.9 5.8-2.9 9.8-.7 2.8-1.3 5.5-1.9 8.2-.2.8-.3 1.6-.5 2.4 1.8 2.1 3.7 4.1 5.8 6l.3.3c4 3.7 8.5 6.8 13.3 9.4l.2.1c3 1.6 6.2 3 9.4 4.2l.9.3c.2-1.8.4-3.9.6-6 0-.2 0-.4.1-.6l.2-2c.1-.5.1-1 .2-1.5.1-.9.2-1.8.4-2.7.1-.5.1-.9.2-1.4.1-.7.2-1.4.4-2.1.1-.7.2-1.3.4-1.9v-.1l.2-.9c.1-.3.1-.6.2-.9.1-.6.3-1.1.4-1.7.2-.8.4-1.6.6-2.3.8-2.6 1.7-4.4 2.8-4.9l6.9-10.7.3-.5.1-.2-.3-.1z"/><path class="st17" d="m301.5 440.9-7.4 11.3c-1 .5-1.9 2.3-2.7 4.8-.2.7-.5 1.5-.7 2.4-1 4.3-1.7 8.7-2.3 13.1 0 .2 0 .4-.1.6-.3 2.8-.6 5.5-.9 7.9-3.2-1.1-6.4-2.5-9.4-4.2l-.2-.1c-4.8-2.6-9.3-5.8-13.3-9.4l-.3-.3c-2.1-1.9-4-3.9-5.8-6-.2-.3-.5-.5-.7-.8.1-.5.2-1 .3-1.6.6-2.6 1.2-5.4 1.9-8.1.9-3.8 2-7.5 3.4-11.2 0-.1.1-.2.1-.3 3.5-9.1 6.1-8.6 6.1-8.6l16.6-2.7 10.5-1.7-.3.2c-1.2.8-2.1 1.9-2.9 3.1l-.3.5c-.1.2-.2.4-.4.6-.6 1.1-1 2.3-1.4 3.5-.3.9-.2 2 .2 2.9 1 1.9 3.8 3 6.2 3.6l.4.1c1.3.2 2.4.3 3.4.4z"/><path class="st8" d="m359.3 461.1-.4-8.9c1.8-14-1.8-14.9-1.8-14.9l-4.2-2h-.1l-16.7-8.1-.6-.3-.2-.1-2.2-1.1-1.4-.7-2.6-1.3-.9-.4v3.5c0 1 .1 2.2.2 3.5.2 3.4.5 8 1.1 13.4.3 3.1.8 6.5 1.3 10.2.3 2.2.5 4.3.7 6.4.4 7.1.2 14.2-.7 21.3l.9-.3c2.5-.8 4.9-1.8 7.2-2.9 4.6-2.1 8.9-4.8 12.9-7.9l.2-.1c2.6-2 5-4.2 7.3-6.6v-2.7z"/><path class="st17" d="m360.2 461.1-.4-8.9c1.8-14-1.8-14.9-1.8-14.9l-5-2.4h-.1l-16.8-8.1-.8-.4-.1-.1-1.2-.6-1.6-.8-3.2-1.6V426.5c0 1 .1 2.3.2 3.8.2 3.2.5 7.4 1 12.3.4 3.4.8 7.2 1.4 11.3.3 2.2.5 4.3.7 6.5.4 7 .2 14-.6 21 2.5-.8 4.9-1.8 7.2-2.9 4.6-2.1 8.9-4.8 12.9-7.9l.2-.1c2.6-2 5-4.2 7.3-6.6.3-.3.6-.6.8-.9l-.1-1.9z"/><path class="st8" d="M289.5 370.1c-1 1.4-.9 3.3-1.4 5-1.1 3.9-5.3 6.4-6.3 10.3-.6 2.3.1 4.7-.3 7.1-.7 4.3-4.6 7.2-6.9 11-2.3 3.9-2.6 8.7-.9 12.9.5 1 .9 2.1 1.3 3.3.3 1.7.1 3.4-.3 5-.8 3.6-1.5 7.5.2 10.7 1.5 2.7 4.5 4.3 7.5 4.8 3.1.3 6.2.2 9.2-.4 3.3-.5 6.7-1.1 9.6-2.8l-10.8-26.1c-1.1-2.6-2.2-5.4-2.2-8.2.1-2.1.5-4.2 1.4-6.1 2.1-5.7 5.1-10.9 9-15.5 1.6 1.8 1.5 4.6 2.8 6.6 1.2 1.5 2.7 2.6 4.5 3.3 5.1 2.5 10.4 4.7 15.8 6.6 1.1.1 1.9 1.2 1.8 2.3 0 .3-.1.5-.3.8l-4.1 16.8c-.9 3.7-1.7 8 .6 11s7.5 4.4 7.5 8.3v1.8c.3 1.8 2.4 2.7 4.3 2.8 6.2.1 11.6-4.3 12.7-10.4 1-6.6-3.4-12.7-5.2-19.2-3.1-10.8 1-23.6-5-33.1-4.9-7.7-13.8-9.8-22.3-10.8-6.1-.9-18-3.4-22.2 2.2z"/><path class="st15" d="M289.5 369.1c-1 1.4-.9 3.3-1.4 5-1.1 3.9-5.3 6.4-6.3 10.3-.6 2.3.1 4.7-.3 7.1-.7 4.3-4.6 7.2-6.9 11-2.3 3.9-2.6 8.7-.9 12.9.5 1 .9 2.1 1.3 3.3.3 1.7.1 3.4-.3 5-.8 3.6-1.5 7.5.2 10.7 1.5 2.7 4.5 4.3 7.5 4.8 3.1.3 6.2.2 9.2-.4 3.3-.5 6.7-1.1 9.6-2.8l-10.8-26.1c-1.1-2.6-2.2-5.4-2.2-8.2.1-2.1.5-4.2 1.4-6.1 2.1-5.7 5.1-10.9 9-15.5 1.6 1.8 1.5 4.6 2.8 6.6 1.2 1.5 2.7 2.6 4.5 3.3 5.1 2.5 10.4 4.7 15.8 6.6 1.1.1 1.9 1.2 1.8 2.3 0 .3-.1.5-.3.8l-4.1 16.8c-.9 3.7-1.7 8 .6 11s7.5 4.4 7.5 8.3v1.8c.3 1.8 2.4 2.7 4.3 2.8 6.2.1 11.6-4.3 12.7-10.4 1-6.6-3.4-12.7-5.2-19.2-3.1-10.8 1-23.6-5-33.1-4.9-7.7-13.8-9.8-22.3-10.8-6.1-.9-18-3.4-22.2 2.2z"/></g><g class="st1"><path class="st11" d="M378.3 657.9c0 16.2-5.8 31.9-16.4 44.3-.5.6-1.1 1.2-1.6 1.8-.3.3-.6.6-.8.9-2.3 2.4-4.7 4.6-7.3 6.6l-.2.1c-4 3.1-8.3 5.8-12.9 7.9-2.4 1.1-4.8 2.1-7.2 2.9l-.9.3c-.6.2-1.1.4-1.7.5l-.2.1c-12.3 3.5-25.3 3.5-37.5 0h-.1c-1-.3-2-.6-2.9-.9l-.9-.3c-3.2-1.1-6.4-2.5-9.4-4.2l-.2-.1c-4.8-2.6-9.3-5.8-13.3-9.4l-.3-.3c-2.1-1.9-4-3.9-5.8-6-.2-.3-.5-.5-.7-.8-.4-.5-.9-1.1-1.3-1.6-23-29.7-17.7-72.4 12-95.4s72.4-17.7 95.4 12c9.1 11.9 14.2 26.5 14.2 41.6z"/><linearGradient id="SVGID_3_" gradientUnits="userSpaceOnUse" x1="301" y1="155.673" x2="403.49" y2="155.673" gradientTransform="matrix(1 0 0 -1 -43.2 820.14)"><stop offset="0" style="stop-color:gray;stop-opacity:.25"/><stop offset=".54" style="stop-color:gray;stop-opacity:.12"/><stop offset="1" style="stop-color:gray;stop-opacity:.1"/></linearGradient><path d="m360.2 701.8-.4-9c1.8-14.2-1.8-15.1-1.8-15.1l-5-2.5h-.1l-16.8-8.3-.8-.4-.1-.4s.3-1-1.3-1.2c-.3-.8-.5-1.7-.4-2.5.2-1.9 1.6-3.4 2.8-5 2.9-4.3 4.1-9.5 3.3-14.6-.8-5.1-2.7-9.9-5.6-14.1l-.3-.5c.4-1.4.6-2.9.6-4.4 0-11.5-11.6-20.8-26-20.8-13 0-23.8 7.7-25.7 17.7-.3.4-.6.8-.8 1.2-2.6 4.9 1.4 8.6 1.6 13.6.1 3.4-2.2 6.3-4 9.2s-3.1 6.7-1.3 9.5c.6.9 1.5 1.7 2.1 2.6 1.9 3.4-1.3 7.3-2.5 11.1-.1.4-.2.9-.3 1.3l-7.7 1.3s-2.5-.5-6.1 8.7c0 .1-.1.2-.1.3-1.4 3.7-2.5 7.5-3.4 11.4-.7 2.8-1.3 5.6-1.9 8.3-.1.5-.2 1.1-.3 1.6.2.3.5.6.7.8 1.8 2.2 3.7 4.2 5.8 6.1l.3.3c4 3.7 8.5 6.9 13.3 9.6l.2.1c3 1.7 6.2 3.1 9.4 4.2l.9.3c1 .3 1.9.6 2.9.9 0 .2.1.3.1.5v-.4c12.3 3.6 25.3 3.6 37.5 0l.2-.1c.6-.2 1.1-.3 1.7-.5l.9-.3c2.5-.8 4.9-1.8 7.2-3 4.6-2.2 8.9-4.9 12.9-8l.2-.1c2.6-2.1 5-4.3 7.3-6.7.3-.3.6-.6.8-.9v-1.8z" style="fill:url(#SVGID_3_)"/><path class="st17" d="M283.3 636.9c.1 3.3-2.2 6.2-4 9s-3.1 6.6-1.3 9.4c.6.9 1.5 1.6 2.1 2.6 1.9 3.3-1.3 7.2-2.5 10.9-1.4 4.3.2 9 3.1 12.5s6.8 5.8 10.7 7.8c8.3 4.4 17.3 7.6 26.5 9.4 4.8.9 10 1.3 14.5-.7 6.5-3 10.1-10 8.7-17-1.1-5.3-5-9.5-7-14.5-.5-1-.7-2-.7-3.1.2-1.9 1.6-3.4 2.8-4.9 2.8-4.2 4-9.2 3.2-14.2-.8-5-2.7-9.7-5.6-13.9-1-1.7-2.4-3.2-4-4.4-2.2-1.5-4.9-1.9-7.5-2.3-10.9-1.5-22.1-3.2-33.1-3.7-3.5-.2-6 .5-7.7 3.7-2.4 5 1.7 8.6 1.8 13.4z"/><path class="st16" d="m339.3 670.9-20.6 29.3-20.1-1.8s-.7 7-8.8-18.4c-4.5-14.2 4.7-9.3 6.5-13.2s5-7.4 5.3-10.3c.6-6.2-1.3-9.8-1.3-9.8l21.9-2.6c-1 2.9-1.1 6.1-.4 9.1 2.7 11.6 17.5 17.7 17.5 17.7z"/><ellipse class="st17" cx="308.3" cy="625.5" rx="26" ry="20.5"/><path class="st8" d="M321.8 653.4c-5.8 4.4-13.4 5.6-20.3 3.3.6-6.2-1.3-9.8-1.3-9.8l21.9-2.6c-.9 2.9-1 6.1-.3 9.1z"/><circle class="st16" cx="308.6" cy="635.1" r="21.9"/><path class="st8" d="m337.1 674.3-.5-2-.4-1.8-.6-2.6-.1-.5-.1-.4s.5-1.6-2.9-1.1l-.6.1c-.5.1-1.2.3-1.9.5l-.6.2-.9.3c-2.7.9-5.2 2.4-7.3 4.4-.9.9-1.7 1.9-2.4 2.9-.1.1-.1.2-.2.3l-.6 1.2c0 7.9-7.9 17.5-7.9 17.5l-7.7-11.1-.1-.2-1.8-2.7-.6-.9-.2-.3-4-5.4-1-1.3-.3-.5-.5-.7-1.1-1.5-4.5 2.6-6 3.5-3.5 22.8v.6l.1 1.9.7 12.4v.2l-1.3 5.1.2.1c3 1.6 6.2 3 9.4 4.2l.9.3c1 .3 1.9.6 2.9.9 0 .1.1.3.1.5v-.4c12.3 3.5 25.3 3.5 37.5 0l.2-.1c.6-.2 1.1-.3 1.7-.5l.9-.3c2.5-.8 4.9-1.8 7.2-2.9l.8-17.9.6-12.9v-.8l-3.6-13.7z"/><path class="st17" d="M329.9 707.5c0-.4 0-.8-.1-1.2s-.1-.8-.1-1.1-.1-.8-.1-1.1-.1-.8-.2-1.1-.1-.8-.2-1.1c0-.1 0-.3-.1-.4-.1-.5-.2-1-.4-1.5s-.2-.8-.3-1.2c0-.2-.1-.4-.2-.5s-.2-.6-.3-.9l-.2-.6c-.1-.3-.2-.5-.3-.8-.1-.5-.3-.9-.5-1.3s-.3-.9-.5-1.3c-.3-.9-.7-1.8-1.1-2.7-1.5-3.5-3.1-6.9-4.6-10.3-.8-1.8-1.5-3.6-2.1-5.4l-.2.3c-.3.5-.6.9-.8 1.4 0 7.9-7.9 17.5-7.9 17.5l-7.9-11.5-6.9 10.7c-1 .5-2 2.3-2.8 4.9-.2.7-.4 1.5-.6 2.3-.1.5-.3 1.1-.4 1.7-.1.3-.1.6-.2.9l-.2.9v.1c-.1.6-.2 1.3-.4 1.9s-.2 1.4-.4 2.1c-.1.5-.1.9-.2 1.4-.1.9-.3 1.8-.4 2.7-.1.5-.1 1-.2 1.5l-.2 2c.5 1.6 1.1 3.3 1.7 4.8.4.9.6 1.8.6 2.8 12.3 3.5 25.3 3.5 37.5 0v-.1c-.2-.9-.3-1.8-.2-2.7.2-2.6.5-5.1 1-7.7.1-1.2.2-2.5.2-3.8v-.5c.2-.4.2-.7.2-1.1zm0 0c0-.4 0-.8-.1-1.2s-.1-.8-.1-1.1-.1-.8-.1-1.1-.1-.8-.2-1.1-.1-.8-.2-1.1c0-.1 0-.3-.1-.4-.1-.5-.2-1-.4-1.5s-.2-.8-.3-1.2c0-.2-.1-.4-.2-.5s-.2-.6-.3-.9l-.2-.6c-.1-.3-.2-.5-.3-.8-.1-.5-.3-.9-.5-1.3s-.3-.9-.5-1.3c-.3-.9-.7-1.8-1.1-2.7-1.5-3.5-3.1-6.9-4.6-10.3-.8-1.8-1.5-3.6-2.1-5.4l-.2.3c-.3.5-.6.9-.8 1.4 0 7.9-7.9 17.5-7.9 17.5l-7.9-11.5-6.9 10.7c-1 .5-2 2.3-2.8 4.9-.2.7-.4 1.5-.6 2.3-.1.5-.3 1.1-.4 1.7-.1.3-.1.6-.2.9l-.2.9v.1c-.1.6-.2 1.3-.4 1.9s-.2 1.4-.4 2.1c-.1.5-.1.9-.2 1.4-.1.9-.3 1.8-.4 2.7-.1.5-.1 1-.2 1.5l-.2 2c.5 1.6 1.1 3.3 1.7 4.8.4.9.6 1.8.6 2.8 12.3 3.5 25.3 3.5 37.5 0v-.1c-.2-.9-.3-1.8-.2-2.7.2-2.6.5-5.1 1-7.7.1-1.2.2-2.5.2-3.8v-.5c.2-.4.2-.7.2-1.1zm0 0c0-.4 0-.8-.1-1.2s-.1-.8-.1-1.1-.1-.8-.1-1.1-.1-.8-.2-1.1-.1-.8-.2-1.1c0-.1 0-.3-.1-.4-.1-.5-.2-1-.4-1.5s-.2-.8-.3-1.2c0-.2-.1-.4-.2-.5s-.2-.6-.3-.9l-.2-.6c-.1-.3-.2-.5-.3-.8-.1-.5-.3-.9-.5-1.3s-.3-.9-.5-1.3c-.3-.9-.7-1.8-1.1-2.7-1.5-3.5-3.1-6.9-4.6-10.3-.8-1.8-1.5-3.6-2.1-5.4l-.2.3c-.3.5-.6.9-.8 1.4 0 7.9-7.9 17.5-7.9 17.5l-7.9-11.5-6.9 10.7c-1 .5-2 2.3-2.8 4.9-.2.7-.4 1.5-.6 2.3-.1.5-.3 1.1-.4 1.7-.1.3-.1.6-.2.9l-.2.9v.1c-.1.6-.2 1.3-.4 1.9s-.2 1.4-.4 2.1c-.1.5-.1.9-.2 1.4-.1.9-.3 1.8-.4 2.7-.1.5-.1 1-.2 1.5l-.2 2c.5 1.6 1.1 3.3 1.7 4.8.4.9.6 1.8.6 2.8 12.3 3.5 25.3 3.5 37.5 0v-.1c-.2-.9-.3-1.8-.2-2.7.2-2.6.5-5.1 1-7.7.1-1.2.2-2.5.2-3.8v-.5c.2-.4.2-.7.2-1.1zm10.6-18.8-3.6-14.3-.6-2.4-.2-.7-.9-3.5v-.1c0-.2 0-.3-.1-.5-.1-.3-.5-.5-1.2-.6h-.9c-.9.1-1.7.2-2.6.5-.4.1-.9.2-1.3.4l-.9.3h-.1c-2.3.8-4.4 1.9-6.3 3.5-1.2 1-2.3 2.2-3.2 3.5l-.2.3c-.3.5-.6.9-.8 1.4 0 7.9-7.9 17.5-7.9 17.5l-7.9-11.5-.5-.7-.1-.1-1.1-1.7-.9-1.2-.2-.3-4.1-5.5-1.3-1.8v-.1l-.5-.6-.9-1.1-3 1.8-7.5 4.4-3.5 22.5v.2l.1 1.6.7 12.5v.7l-1.1 4.5c3 1.6 6.2 3 9.4 4.2l.9.3c1 .3 1.9.6 2.9.9 0 .1.1.3.1.5v-.4c12.3 3.5 25.3 3.5 37.5 0l.2-.1c.6-.2 1.1-.3 1.7-.5l.9-.3c2.5-.8 4.9-1.8 7.2-2.9l.8-17.9.6-12.8.4.1zm-49.2 34.6c0 .1.1.3.1.5 0-.2 0-.4-.1-.5zm38.6-15.8c0-.4 0-.8-.1-1.2s-.1-.8-.1-1.1-.1-.8-.1-1.1-.1-.8-.2-1.1-.1-.8-.2-1.1c0-.1 0-.3-.1-.4-.1-.5-.2-1-.4-1.5s-.2-.8-.3-1.2c0-.2-.1-.4-.2-.5s-.2-.6-.3-.9l-.2-.6c-.1-.3-.2-.5-.3-.8-.1-.5-.3-.9-.5-1.3s-.3-.9-.5-1.3c-.3-.9-.7-1.8-1.1-2.7-1.5-3.5-3.1-6.9-4.6-10.3-.8-1.8-1.5-3.6-2.1-5.4l-.2.3c-.3.5-.6.9-.8 1.4 0 7.9-7.9 17.5-7.9 17.5l-7.9-11.5-6.9 10.7c-1 .5-2 2.3-2.8 4.9-.2.7-.4 1.5-.6 2.3-.1.5-.3 1.1-.4 1.7-.1.3-.1.6-.2.9l-.2.9v.1c-.1.6-.2 1.3-.4 1.9s-.2 1.4-.4 2.1c-.1.5-.1.9-.2 1.4-.1.9-.3 1.8-.4 2.7-.1.5-.1 1-.2 1.5l-.2 2c.5 1.6 1.1 3.3 1.7 4.8.4.9.6 1.8.6 2.8 12.3 3.5 25.3 3.5 37.5 0v-.1c-.2-.9-.3-1.8-.2-2.7.2-2.6.5-5.1 1-7.7.1-1.2.2-2.5.2-3.8v-.5c.2-.4.2-.7.2-1.1zm0 0c0-.4 0-.8-.1-1.2s-.1-.8-.1-1.1-.1-.8-.1-1.1-.1-.8-.2-1.1-.1-.8-.2-1.1c0-.1 0-.3-.1-.4-.1-.5-.2-1-.4-1.5s-.2-.8-.3-1.2c0-.2-.1-.4-.2-.5s-.2-.6-.3-.9l-.2-.6c-.1-.3-.2-.5-.3-.8-.1-.5-.3-.9-.5-1.3s-.3-.9-.5-1.3c-.3-.9-.7-1.8-1.1-2.7-1.5-3.5-3.1-6.9-4.6-10.3-.8-1.8-1.5-3.6-2.1-5.4l-.2.3c-.3.5-.6.9-.8 1.4 0 7.9-7.9 17.5-7.9 17.5l-7.9-11.5-6.9 10.7c-1 .5-2 2.3-2.8 4.9-.2.7-.4 1.5-.6 2.3-.1.5-.3 1.1-.4 1.7-.1.3-.1.6-.2.9l-.2.9v.1c-.1.6-.2 1.3-.4 1.9s-.2 1.4-.4 2.1c-.1.5-.1.9-.2 1.4-.1.9-.3 1.8-.4 2.7-.1.5-.1 1-.2 1.5l-.2 2c.5 1.6 1.1 3.3 1.7 4.8.4.9.6 1.8.6 2.8 12.3 3.5 25.3 3.5 37.5 0v-.1c-.2-.9-.3-1.8-.2-2.7.2-2.6.5-5.1 1-7.7.1-1.2.2-2.5.2-3.8v-.5c.2-.4.2-.7.2-1.1zm0 0c0-.4 0-.8-.1-1.2s-.1-.8-.1-1.1-.1-.8-.1-1.1-.1-.8-.2-1.1-.1-.8-.2-1.1c0-.1 0-.3-.1-.4-.1-.5-.2-1-.4-1.5s-.2-.8-.3-1.2c0-.2-.1-.4-.2-.5s-.2-.6-.3-.9l-.2-.6c-.1-.3-.2-.5-.3-.8-.1-.5-.3-.9-.5-1.3s-.3-.9-.5-1.3c-.3-.9-.7-1.8-1.1-2.7-1.5-3.5-3.1-6.9-4.6-10.3-.8-1.8-1.5-3.6-2.1-5.4l-.2.3c-.3.5-.6.9-.8 1.4 0 7.9-7.9 17.5-7.9 17.5l-7.9-11.5-6.9 10.7c-1 .5-2 2.3-2.8 4.9-.2.7-.4 1.5-.6 2.3-.1.5-.3 1.1-.4 1.7-.1.3-.1.6-.2.9l-.2.9v.1c-.1.6-.2 1.3-.4 1.9s-.2 1.4-.4 2.1c-.1.5-.1.9-.2 1.4-.1.9-.3 1.8-.4 2.7-.1.5-.1 1-.2 1.5l-.2 2c.5 1.6 1.1 3.3 1.7 4.8.4.9.6 1.8.6 2.8 12.3 3.5 25.3 3.5 37.5 0v-.1c-.2-.9-.3-1.8-.2-2.7.2-2.6.5-5.1 1-7.7.1-1.2.2-2.5.2-3.8v-.5c.2-.4.2-.7.2-1.1zm0 0c0-.4 0-.8-.1-1.2s-.1-.8-.1-1.1-.1-.8-.1-1.1-.1-.8-.2-1.1-.1-.8-.2-1.1c0-.1 0-.3-.1-.4-.1-.5-.2-1-.4-1.5s-.2-.8-.3-1.2c0-.2-.1-.4-.2-.5s-.2-.6-.3-.9l-.2-.6c-.1-.3-.2-.5-.3-.8-.1-.5-.3-.9-.5-1.3s-.3-.9-.5-1.3c-.3-.9-.7-1.8-1.1-2.7-1.5-3.5-3.1-6.9-4.6-10.3-.8-1.8-1.5-3.6-2.1-5.4l-.2.3c-.3.5-.6.9-.8 1.4 0 7.9-7.9 17.5-7.9 17.5l-7.9-11.5-6.9 10.7c-1 .5-2 2.3-2.8 4.9-.2.7-.4 1.5-.6 2.3-.1.5-.3 1.1-.4 1.7-.1.3-.1.6-.2.9l-.2.9v.1c-.1.6-.2 1.3-.4 1.9s-.2 1.4-.4 2.1c-.1.5-.1.9-.2 1.4-.1.9-.3 1.8-.4 2.7-.1.5-.1 1-.2 1.5l-.2 2c.5 1.6 1.1 3.3 1.7 4.8.4.9.6 1.8.6 2.8 12.3 3.5 25.3 3.5 37.5 0v-.1c-.2-.9-.3-1.8-.2-2.7.2-2.6.5-5.1 1-7.7.1-1.2.2-2.5.2-3.8v-.5c.2-.4.2-.7.2-1.1zm0 0c0-.4 0-.8-.1-1.2s-.1-.8-.1-1.1-.1-.8-.1-1.1-.1-.8-.2-1.1-.1-.8-.2-1.1c0-.1 0-.3-.1-.4-.1-.5-.2-1-.4-1.5s-.2-.8-.3-1.2c0-.2-.1-.4-.2-.5s-.2-.6-.3-.9l-.2-.6c-.1-.3-.2-.5-.3-.8-.1-.5-.3-.9-.5-1.3s-.3-.9-.5-1.3c-.3-.9-.7-1.8-1.1-2.7-1.5-3.5-3.1-6.9-4.6-10.3-.8-1.8-1.5-3.6-2.1-5.4l-.2.3c-.3.5-.6.9-.8 1.4 0 7.9-7.9 17.5-7.9 17.5l-7.9-11.5-6.9 10.7c-1 .5-2 2.3-2.8 4.9-.2.7-.4 1.5-.6 2.3-.1.5-.3 1.1-.4 1.7-.1.3-.1.6-.2.9l-.2.9v.1c-.1.6-.2 1.3-.4 1.9s-.2 1.4-.4 2.1c-.1.5-.1.9-.2 1.4-.1.9-.3 1.8-.4 2.7-.1.5-.1 1-.2 1.5l-.2 2c.5 1.6 1.1 3.3 1.7 4.8.4.9.6 1.8.6 2.8 12.3 3.5 25.3 3.5 37.5 0v-.1c-.2-.9-.3-1.8-.2-2.7.2-2.6.5-5.1 1-7.7.1-1.2.2-2.5.2-3.8v-.5c.2-.4.2-.7.2-1.1zm0 0c0-.4 0-.8-.1-1.2s-.1-.8-.1-1.1-.1-.8-.1-1.1-.1-.8-.2-1.1-.1-.8-.2-1.1c0-.1 0-.3-.1-.4-.1-.5-.2-1-.4-1.5s-.2-.8-.3-1.2c0-.2-.1-.4-.2-.5s-.2-.6-.3-.9l-.2-.6c-.1-.3-.2-.5-.3-.8-.1-.5-.3-.9-.5-1.3s-.3-.9-.5-1.3c-.3-.9-.7-1.8-1.1-2.7-1.5-3.5-3.1-6.9-4.6-10.3-.8-1.8-1.5-3.6-2.1-5.4l-.2.3c-.3.5-.6.9-.8 1.4 0 7.9-7.9 17.5-7.9 17.5l-7.9-11.5-6.9 10.7c-1 .5-2 2.3-2.8 4.9-.2.7-.4 1.5-.6 2.3-.1.5-.3 1.1-.4 1.7-.1.3-.1.6-.2.9l-.2.9v.1c-.1.6-.2 1.3-.4 1.9s-.2 1.4-.4 2.1c-.1.5-.1.9-.2 1.4-.1.9-.3 1.8-.4 2.7-.1.5-.1 1-.2 1.5l-.2 2c.5 1.6 1.1 3.3 1.7 4.8.4.9.6 1.8.6 2.8 12.3 3.5 25.3 3.5 37.5 0v-.1c-.2-.9-.3-1.8-.2-2.7.2-2.6.5-5.1 1-7.7.1-1.2.2-2.5.2-3.8v-.5c.2-.4.2-.7.2-1.1zm0 0c0-.4 0-.8-.1-1.2s-.1-.8-.1-1.1-.1-.8-.1-1.1-.1-.8-.2-1.1-.1-.8-.2-1.1c0-.1 0-.3-.1-.4-.1-.5-.2-1-.4-1.5s-.2-.8-.3-1.2c0-.2-.1-.4-.2-.5s-.2-.6-.3-.9l-.2-.6c-.1-.3-.2-.5-.3-.8-.1-.5-.3-.9-.5-1.3s-.3-.9-.5-1.3c-.3-.9-.7-1.8-1.1-2.7-1.5-3.5-3.1-6.9-4.6-10.3-.8-1.8-1.5-3.6-2.1-5.4l-.2.3c-.3.5-.6.9-.8 1.4 0 7.9-7.9 17.5-7.9 17.5l-7.9-11.5-6.9 10.7c-1 .5-2 2.3-2.8 4.9-.2.7-.4 1.5-.6 2.3-.1.5-.3 1.1-.4 1.7-.1.3-.1.6-.2.9l-.2.9v.1c-.1.6-.2 1.3-.4 1.9s-.2 1.4-.4 2.1c-.1.5-.1.9-.2 1.4-.1.9-.3 1.8-.4 2.7-.1.5-.1 1-.2 1.5l-.2 2c.5 1.6 1.1 3.3 1.7 4.8.4.9.6 1.8.6 2.8 12.3 3.5 25.3 3.5 37.5 0v-.1c-.2-.9-.3-1.8-.2-2.7.2-2.6.5-5.1 1-7.7.1-1.2.2-2.5.2-3.8v-.5c.2-.4.2-.7.2-1.1zm0 0c0-.4 0-.8-.1-1.2s-.1-.8-.1-1.1-.1-.8-.1-1.1-.1-.8-.2-1.1-.1-.8-.2-1.1c0-.1 0-.3-.1-.4-.1-.5-.2-1-.4-1.5s-.2-.8-.3-1.2c0-.2-.1-.4-.2-.5s-.2-.6-.3-.9l-.2-.6c-.1-.3-.2-.5-.3-.8-.1-.5-.3-.9-.5-1.3s-.3-.9-.5-1.3c-.3-.9-.7-1.8-1.1-2.7-1.5-3.5-3.1-6.9-4.6-10.3-.8-1.8-1.5-3.6-2.1-5.4l-.2.3c-.3.5-.6.9-.8 1.4 0 7.9-7.9 17.5-7.9 17.5l-7.9-11.5-6.9 10.7c-1 .5-2 2.3-2.8 4.9-.2.7-.4 1.5-.6 2.3-.1.5-.3 1.1-.4 1.7-.1.3-.1.6-.2.9l-.2.9v.1c-.1.6-.2 1.3-.4 1.9s-.2 1.4-.4 2.1c-.1.5-.1.9-.2 1.4-.1.9-.3 1.8-.4 2.7-.1.5-.1 1-.2 1.5l-.2 2c.5 1.6 1.1 3.3 1.7 4.8.4.9.6 1.8.6 2.8 12.3 3.5 25.3 3.5 37.5 0v-.1c-.2-.9-.3-1.8-.2-2.7.2-2.6.5-5.1 1-7.7.1-1.2.2-2.5.2-3.8v-.5c.2-.4.2-.7.2-1.1z"/><path class="st8" d="m302.1 681.9-.7-.1c-1-.1-2-.3-3-.6l-.4-.1c-2.4-.7-5.1-1.9-5.7-4.1-.2-.7-.2-1.4.1-2.1.3-1.2.8-2.3 1.4-3.4v-.1c.1-.2.2-.3.3-.5.8-1.6 2.1-3 3.6-3.9l-1.2.2-10.2 1.7-15.8 2.5s-2.8-.6-6.6 9.9c0 .1-.1.3-.1.4-.9 2.6-1.9 5.8-2.9 9.8-.7 2.8-1.3 5.5-1.9 8.2-.2.8-.3 1.6-.5 2.4 1.8 2.1 3.7 4.1 5.8 6l.3.3c4 3.7 8.5 6.8 13.3 9.4l.2.1c3 1.6 6.2 3 9.4 4.2l.9.3c.2-1.8.4-3.9.6-6 0-.2 0-.4.1-.6l.2-2c.1-.5.1-1 .2-1.5.1-.9.2-1.8.4-2.7.1-.5.1-.9.2-1.4.1-.7.2-1.4.4-2.1s.2-1.3.4-1.9v-.1l.2-.9c.1-.3.1-.6.2-.9.1-.6.3-1.1.4-1.7.2-.8.4-1.6.6-2.3.8-2.6 1.7-4.4 2.8-4.9l6.9-10.7.3-.5.1-.2-.3-.1z"/><path class="st19" d="m301.5 681.9-7.4 11.3c-1 .5-1.9 2.3-2.7 4.8-.2.7-.5 1.5-.7 2.4-1 4.3-1.7 8.7-2.3 13.1 0 .2 0 .4-.1.6-.3 2.8-.6 5.5-.9 7.9-3.2-1.1-6.4-2.5-9.4-4.2l-.2-.1c-4.8-2.6-9.3-5.8-13.3-9.4l-.3-.3c-2.1-1.9-4-3.9-5.8-6-.2-.3-.5-.5-.7-.8.1-.5.2-1 .3-1.6.6-2.7 1.2-5.4 1.9-8.1.9-3.8 2-7.5 3.4-11.2 0-.1.1-.2.1-.3 3.5-9.1 6.1-8.6 6.1-8.6l16.6-2.7 10.5-1.7-.3.2c-1.2.8-2.1 1.9-2.9 3.1l-.3.5c-.1.2-.2.4-.4.6-.6 1.1-1 2.3-1.4 3.5-.3.9-.2 2 .2 2.9 1 1.9 3.8 3 6.2 3.6l.4.1c1.3.2 2.4.3 3.4.4z"/><path class="st8" d="m359.3 702.1-.4-8.9c1.8-14-1.8-14.9-1.8-14.9l-4.2-2h-.1l-16.7-8.1-.6-.3-.2-.1-2.2-1.1-1.4-.7-2.6-1.3-.9-.4v3.5c0 1 .1 2.2.2 3.5.2 3.4.5 8 1.1 13.4.3 3.1.8 6.5 1.3 10.2.3 2.2.5 4.3.7 6.4.4 7.1.2 14.2-.7 21.3l.9-.3c2.5-.8 4.9-1.8 7.2-2.9 4.6-2.1 8.9-4.8 12.9-7.9l.2-.1c2.6-2 5-4.2 7.3-6.6v-2.7z"/><path class="st19" d="m360.2 702.1-.4-8.9c1.8-14-1.8-14.9-1.8-14.9l-5-2.4h-.1l-16.8-8.1-.8-.4-.1-.1-1.2-.6-1.6-.8-3.2-1.6V667.5c0 1 .1 2.3.2 3.8.2 3.2.5 7.4 1 12.3.4 3.4.8 7.2 1.4 11.3.3 2.2.5 4.3.7 6.5.4 7 .2 14-.6 21 2.5-.8 4.9-1.8 7.2-2.9 4.6-2.1 8.9-4.8 12.9-7.9l.2-.1c2.6-2 5-4.2 7.3-6.6.3-.3.6-.6.8-.9l-.1-1.9z"/><path class="st8" d="M303.8 628.7c3.1-.5 6.3-1.7 9.4-1 2.6.5 4.8 2.3 7.1 3.5 2.3 1.2 4.8 1.8 7.4 2 .9.1 1.9-.1 2.7-.5 1.2-.9 1.4-2.6 1.2-4.1-.6-4.3-3.3-7.9-6-11.2-1.1-1.4-2.4-2.7-3.8-3.8-3.6-2.7-8.3-3.1-12.8-2.9-5.1.2-10.2 1.2-14.6 3.8-3 1.7-9.9 7.1-7.5 11.1 2.5 3.8 13 3.7 16.9 3.1z"/><path class="st17" d="M303.8 627.7c3.1-.5 6.3-1.7 9.4-1 2.6.5 4.8 2.3 7.1 3.5 2.3 1.2 4.8 1.8 7.4 2 .9.1 1.9-.1 2.7-.5 1.2-.9 1.4-2.6 1.2-4.1-.6-4.3-3.3-7.9-6-11.2-1.1-1.4-2.4-2.7-3.8-3.8-3.6-2.7-8.3-3.1-12.8-2.9-5.1.2-10.2 1.2-14.6 3.8-3 1.7-9.9 7.1-7.5 11.1 2.5 3.8 13 3.7 16.9 3.1z"/></g><linearGradient id="SVGID_4_" gradientUnits="userSpaceOnUse" x1="1665.157" y1="-23.939" x2="1665.157" y2="519.102" gradientTransform="rotate(180 1162.395 410.07)"><stop offset="0" style="stop-color:gray;stop-opacity:.25"/><stop offset=".54" style="stop-color:gray;stop-opacity:.12"/><stop offset="1" style="stop-color:gray;stop-opacity:.1"/></linearGradient><path d="M578.4 578.7h.2c.2 6.7 1.2 12.8 3 14.4 4.4 4 22.4-4 21.2-8.8-.3-1-.7-2.6-1.2-4.7 4.9-.6 9-2 10.7-4.9l3.1 9.7.2.7H615.9c2.1 19.6 6.8 60.4 10.5 65.8 5 7.2 10.8 38.6 10.8 38.6l10.8 64.3s4.1 37 6.6 41c.7.8 1.7 1.3 2.7 1.4-1.5 4.3-3.5 9.4-6 12.2-5 5.6-11.6 16.9-17.4 16.1s-7.4 11.3 3.3 12.8c6 .9 15.4-.2 22.7-1.3 0 3.2 2.2 6.9 7.9 7.8 10.8 1.6 33.1-3.2 33.1-3.2s19-8 19.8-13.7c.6-4.1-2.3-20.6-3.9-29.2 3-4.8-.2-46.3-.2-46.3l-5.8-79.5s3.3-44.2 0-52.2c-2.1-5-2.8-28-3.1-44.5l4 .3.6-.9 1 .1s5-5.6.8-14.5c-3.1-6.6-2.5-36.2-2-51l.6-7c.2-.2.4-.5.5-.8 7.8-1 15.3-3.3 22.3-6.8 2.1-.9 4.1-2.1 5.9-3.6 4.1-4 1.7-28.1-6.6-64.3-8.3-36.1-15.7-32.9-15.7-32.9s-19.8-1.6-29-13.7c-9.1-12.1-15.2-11.9-15.2-11.9-.2-1.6-.4-3.1-.5-4.5 0-.5-.1-1-.1-1.5 3.1-2.9 5.5-6.5 6.9-10.4 1.9-1 4.2-1.3 5.9-2.6.5-.3.9-.7 1.2-1.1 1.8-1.6 2.9-3.9 3.2-6.3.3-2.6.2-5.3-.4-7.9-.6-3.8-1.6-7.8-3.8-10.8s-5.6-4.8-8.8-6.5c-8.7-4.6-17.5-9.1-26.3-13.6-1.7-1-3.6-1.7-5.6-2-3.5-.2-6.7 2.2-9.5 4.5-1.1.9-2.2 1.8-3.3 2.8-.9.8-1.7 1.6-2.4 2.6-3.3 4.5-4.7 12.8-3.3 18.4.5 1.8 1.5 2.3 2.7 2.3-1.8 3.6-2.8 7.6-2.8 11.6 0 9 4.6 17.3 12.2 22.1v1.6c0 2.1 0 4.1-.2 6.1 0 0-22 11.9-24.5 17.5s-11.6 9.6-11.6 9.6-17.4 8.8-17.4 40.2l-9.1 44.2-1.7 84.3s1.1-1 3-2.4c-.1.6-.1 1.1-.2 1.7-.2 3.2-.3 6.5-.3 9.7l.2.9zM689.5 797c-.3 1.3-.8 3-1.5 5-.3-1.7-.6-3.3-.8-4.9.7 0 1.5-.1 2.3-.1z" style="fill:url(#SVGID_4_)"/><path class="st21" d="M659.5 786.7s-3.2 14.3-8 19.9-11.1 16.7-16.7 15.9-7.2 11.2 3.2 12.7 31.8-3.2 31.8-3.2 18.3-8 19.1-13.5-4.8-34.3-4.8-34.3l-24.6 2.5z"/><path class="st22" d="M659.5 786.7s-3.2 14.3-8 19.9-11.1 16.7-16.7 15.9-7.2 11.2 3.2 12.7 31.8-3.2 31.8-3.2 18.3-8 19.1-13.5-4.8-34.3-4.8-34.3l-24.6 2.5z"/><path class="st21" d="M688.9 793s-3.2 14.3-8 19.9-11.1 16.7-16.7 15.9-7.2 11.2 3.2 12.7 31.9-3.2 31.9-3.2 18.3-8 19.1-13.5-4.8-34.3-4.8-34.3l-24.7 2.5z"/><path class="st23" d="M616.5 574.8s6.4 68.5 11.2 75.7 10.3 38.2 10.3 38.2l10.3 63.7s4 36.6 6.4 40.6 31.9 2.3 31.9 2.3l-18.4-210.9-51.7-9.6z"/><path class="st22" d="M616.5 574.8s6.4 68.5 11.2 75.7 10.3 38.2 10.3 38.2l10.3 63.7s4 36.6 6.4 40.6 31.9 2.3 31.9 2.3l-18.4-210.9-51.7-9.6z"/><path class="st23" d="m603.7 542.1 2.1 6.6 11.3 35.7.2.7h.1c1.5.3 33.4 7.7 40.3 9.9.4.1.7.3 1.1.4 3.2 1.6 7.2 58.9 7.2 58.9s2.4 54.2 4 58.1 8 86 12 83.6 32.7 0 32.7 0c3.2-3.2 0-46.2 0-46.2L709 671s3.2-43.8 0-51.8-3.2-61.3-3.2-61.3l-65.2-10.2-6.3-1-30.6-4.6z"/><path d="m605.8 548.8 11.3 35.7.3.7c1.5.3 33.4 7.7 40.3 9.9h.7l-17.8-47.2-.5-1.4-5.8.4-28.5 1.9z" style="opacity:2.000000e-02;enable-background:new"/><path class="st8" d="M680.2 382.9s-29.5 31.9-47.8 5.6l-17.5 12 3.2 18.3-10.4 138.6s27.1-.8 46.2 5.6c10.9 3.9 23 1.1 31.1-7.2L681.8 434l7.2-37.4-8.8-13.7z"/><path class="st21" d="M680.2 380.5s-29.5 31.9-47.8 5.6l-17.5 12 3.2 18.3L607.7 555s27.1-.8 46.2 5.6c10.9 3.9 23 1.1 31.1-7.2l-3.2-121.8L689 394l-8.8-13.5z"/><g id="b7475575-9269-4b4a-a721-bb0a166a2f3e"><path class="st25" d="M621.3 522.4v5h-1.5V524h-5.9v3.4h-1.6v-5h9"/><path id="d39c551f-7962-48ac-bd52-1b7ff04213b0" class="st25" d="M619.9 520.7h-6.2c-.8-.2-1.5-.8-1.7-1.7h9.5c-.1.9-.8 1.5-1.6 1.7"/><path id="a3b10f10-7568-4e16-9739-cab30d2da761" class="st25" d="M675.8 519.1c-.2.8-.9 1.4-1.7 1.7h-2.7v6.6h-1.6v-6.6H667c-.8-.2-1.4-.8-1.7-1.7h10.5"/></g><path class="st26" d="M618.8 545.3s0 20.7-4.8 29.5-32.7 4-32.7 4l5.6-29.5 31.9-4z"/><path class="st27" d="M584.5 593.1c4.2 4 21.6-4 20.4-8.8-.8-3.4-3.8-15.4-5.5-22.3l-1.2-4.8s-10.2-3.2-13.8 0c-1.3 1.2-2.2 5.7-2.7 11.3-.7 9.6.1 22.1 2.8 24.6zM622.8 394.8l27.9 21.5s41.4-2.4 31.1-22.3c-4.5-8.8-7.2-18.3-8-28.1-.3-3.6-.3-7.3 0-10.9 0 0-38.2-35-33.5 4.8.4 3.1.6 6.1.7 9.2.5 29.8-18.2 25.8-18.2 25.8z"/><path class="st8" d="M640.4 359.8c.4 3.1.6 6.1.7 9.2 4.3 2.8 9.3 4.4 14.5 4.3 7.1 0 12.4-6.9 17.1-11.5-.5-6.6 1.2-6.8 1.2-6.8s-38.3-35-33.5 4.8z"/><circle class="st27" cx="655.5" cy="345.4" r="26.3"/><path class="st8" d="M674.2 370.5s4.4.4 13.1 12.3 27.9 13.5 27.9 13.5 7.2-3.2 15.1 32.6c8 35.8 10.3 59.7 6.4 63.7s-19.9 9.6-27.9 9.6c0 0-2.4 50.2 1.6 58.9s-.8 14.3-.8 14.3l-35-2.4s-12-15.1-14.3-41.4-10.3-101.2-6.4-109.9 21.5-31.1 20.7-33.5-.4-17.7-.4-17.7z"/><path class="st26" d="M674.3 370.3s5.9-.2 14.7 11.8 27.9 13.5 27.9 13.5 7.2-3.2 15.1 32.7c8 35.8 10.3 59.7 6.4 63.7s-19.9 9.6-27.9 9.6c0 0-2.4 50.2 1.6 58.9s-.8 14.3-.8 14.3l-35-2.4s-12-15.1-14.3-41.4-10.4-101.1-6.4-109.9c4-8.7 21.5-31.1 20.7-33.5s-2-17.3-2-17.3z"/><path class="st8" d="M581.8 568.5c3.8-2.9 11-7.4 17.6-6.4l-1.2-4.8s-10.2-3.2-13.8 0c-1.3 1.2-2.2 5.7-2.6 11.2zM640.8 375.3s-20.3 13.1-22.7 18.7c-2.4 5.6-11.2 9.6-11.2 9.6s-16.7 8.8-16.7 39.8l-8.8 43.8 39.8 55.8s4.8-55.8 7.2-69.3c2.4-13.5 5.6-39 5.6-39s12-15.1 10.3-19.1c-1.5-4-3.5-40.3-3.5-40.3z"/><path class="st26" d="M640.8 375.1s-21.2 11.8-23.6 17.4-11.2 9.6-11.2 9.6-16.7 8.8-16.7 39.8l-8.8 43.8-1.6 83.6s14.3-13.5 24.7-7.2 16.7-20.7 16.7-20.7 4.8-55.8 7.2-69.3c2.4-13.5 5.6-39 5.6-39s12-15.1 10.3-19.1c-1.5-4-2.6-38.9-2.6-38.9z"/><path class="st8" d="M632.4 313.5c1.3-1.7 2.9-3.3 4.6-4.6 2.7-2.3 5.8-4.7 9.2-4.5 1.9.3 3.8.9 5.4 1.9 8.5 4.5 16.9 9 25.3 13.5 3.1 1.7 6.3 3.5 8.5 6.5s3 6.9 3.7 10.7c.5 2.6.6 5.2.4 7.8-.2 2.6-1.5 4.9-3.5 6.6-2.3 1.7-5.4 1.7-7.3 3.8-1.1 1.3-1.6 3-2.4 4.5-.8 1.5-2.1 3-3.7 2.7-1.5-.3-2.5-1.9-2.7-3.5-.1-1.7 0-3.4.3-5 .3-3-.1-6.2-1.8-8.4-1.2-1.5-2.9-2.4-4.1-4-2.8-3.8-1.5-10-4.6-13.5-1.8-1.9-4.5-2.6-7-2-2.5.5-4.7 1.9-7 3-3.1 1.5-6.3 2.8-9.6 3.7-2.8.8-6 2.6-7-1.1-1.2-5.4.1-13.7 3.3-18.1z"/><path d="M633.2 312.7c1.3-1.7 2.9-3.3 4.6-4.6 2.7-2.3 5.8-4.7 9.2-4.5 1.9.3 3.8.9 5.4 1.9 8.5 4.5 15.5.2 25.3 13.5 2.1 2.8 6.3 3.5 8.5 6.5s3 6.9 3.7 10.7c.5 2.6.6 5.2.4 7.8-.2 2.6-1.5 4.9-3.5 6.6-2.3 1.7-5.4 1.7-7.3 3.8-1.1 1.3-1.6 3-2.4 4.5-.8 1.5-2.1 3-3.7 2.7-1.5-.3-2.5-1.9-2.7-3.5-.1-1.7 0-3.4.3-5 .3-3-.1-6.2-1.8-8.4-1.2-1.5-2.9-2.4-4.1-4-2.8-3.8-1.5-10-4.6-13.5-1.8-1.9-4.5-2.6-7-2-2.5.5-4.7 1.9-7 3-3.1 1.5-6.3 2.8-9.6 3.7-2.8.8-6 2.6-7-1.1-1.2-5.4.1-13.7 3.3-18.1z" style="fill:#3348e2"/><path class="st8" d="M705 434.2s10.6 27.1 2.7 38.2l-17.5-4s15.9 4.8 13.5-4.8 1.3-29.4 1.3-29.4zM710.8 501.1s-23.1 1.6-29.5-3.2c8.4 6.4 18.3 10.5 28.8 12l.7-8.8zM611.3 450.1s-12 36.6-11.2 42.2 2.4 66.9 2.4 66.9l2.4-.8-.8-66.9 7.2-41.4z"/><linearGradient id="SVGID_5_" gradientUnits="userSpaceOnUse" x1="478.599" y1="275.872" x2="478.599" y2="789.276" gradientTransform="matrix(1 0 0 -1 -43.2 820.14)"><stop offset="0" style="stop-color:gray;stop-opacity:.25"/><stop offset=".54" style="stop-color:gray;stop-opacity:.12"/><stop offset="1" style="stop-color:gray;stop-opacity:.1"/></linearGradient><path d="m713.6 494.9-273-220c-3.2-3.2-7.6-5-12.1-5h-11.6c50.3-64.4 38.8-157.4-25.6-207.7S233.8 23.4 183.6 87.8s-38.8 157.4 25.6 207.7c53.5 41.8 128.6 41.8 182.1 0v11.6c0 4.5 1.8 8.9 5 12.1l273 220c6.6 6.7 17.4 6.7 24 .1l.1-.1 20.1-20.1c6.7-6.6 6.8-17.5.1-24.2zm-413.5-225c-50.3 0-91.1-40.8-91.1-91.1s40.8-91.1 91.1-91.1 91.1 40.8 91.1 91.1-40.7 91.1-91 91.2c0-.1 0-.1-.1-.1z" style="fill:url(#SVGID_5_)"/><path class="st3" d="m715.6 492.9-273-220c-3.2-3.2-7.6-5-12.1-5h-11.6c50.3-64.4 38.8-157.4-25.6-207.7S235.8 21.4 185.6 85.8s-38.8 157.4 25.6 207.7c53.5 41.8 128.6 41.8 182.1 0v11.6c0 4.5 1.8 8.9 5 12.1l273 220c6.6 6.7 17.4 6.7 24 .1l.1-.1 20.1-20.1c6.7-6.6 6.8-17.5.1-24.2zm-413.5-225c-50.3 0-91.1-40.8-91.1-91.1s40.8-91.1 91.1-91.1 91.1 40.8 91.1 91.1-40.7 91.1-91 91.2c0-.1 0-.1-.1-.1z"/><path class="st27" d="M695.3 472.9s-39.8-45.7-34.3-14.3c4 22.3 19.1 34.3 26.3 36.6s8-22.3 8-22.3z"/><path class="st26" d="M704.9 430.7s.8 29.5 4.8 33.5-2.4 8.8-2.4 8.8l-15.9-4s4 26.3-12.7 23.1c0 0 11.2 10.3 22.3 12s10.3-2.4 10.3-2.4l16.7-19.9-23.1-51.1z"/><path class="st26" d="m709.3 502 16.1-3.6-2.1-7.4-10-4-13 6z"/><path class="st11" d="M237.6 175.9c0 14.7 4.7 29 13.6 40.8.9 1.2 1.8 2.3 2.8 3.5.5.6 1.1 1.2 1.6 1.8.3.3.6.6.8.9 2.3 2.4 4.7 4.6 7.3 6.6l.2.1c4 3.1 8.3 5.8 12.9 7.9 2.4 1.1 4.8 2.1 7.2 2.9l.9.3c.6.2 1.1.4 1.7.5l.2.1c.3.1.6.2.9.2 5.8 1.6 11.8 2.4 17.8 2.4 1 0 2 0 3.1-.1 5.3-.2 10.6-1.1 15.8-2.6h.1c1-.3 1.9-.6 2.8-.9h.1l.9-.3c3.2-1.1 6.4-2.5 9.4-4.2l.2-.1c.3-.2.7-.4 1-.5 4.4-2.5 8.6-5.5 12.3-8.9l.3-.3c2.1-1.9 4-3.9 5.8-6l.2-.3c.2-.2.3-.4.5-.6.4-.5.9-1.1 1.3-1.6 23-29.7 17.6-72.4-12-95.4s-72.4-17.6-95.4 12c-9.3 12.1-14.3 26.7-14.3 41.8z"/><linearGradient id="SVGID_6_" gradientUnits="userSpaceOnUse" x1="-1788.335" y1="576.299" x2="-1788.335" y2="697.01" gradientTransform="rotate(180 -741.97 410.07)"><stop offset="0" style="stop-color:gray;stop-opacity:.25"/><stop offset=".54" style="stop-color:gray;stop-opacity:.12"/><stop offset="1" style="stop-color:gray;stop-opacity:.1"/></linearGradient><path d="M261.1 197.8s14.8-1.3 21.5-10.6c6.6-9.1 11.1-9.2 11.3-9.2.2-1.2.3-2.4.4-3.5v-.1c-.3.2-.6.4-.9.4-1.3.2-2.5-1.1-3.1-2.4-.5-1.4-1.2-2.7-2-3.9-1.6-1.9-4.3-1.9-6.2-3.3-1.7-1.4-2.8-3.5-3-5.7-.1-.8-.1-1.7-.1-2.5 0-1.8.1-3.6.4-5.3.5-3.3 1.3-6.7 3.1-9.3s5.5-3.2 7.3-5.6c8.4-11.6 14.4-7.9 21.7-11.8 1.4-.9 3-1.5 4.6-1.7 2.9-.2 5.5 1.9 7.9 3.9 1.5 1.2 2.8 2.5 4 4 2.1 2.9 3.3 7.8 3.2 12.1.1 1.6-.1 3.2-.5 4.8-.6 2.3-2.1 2.1-3.9 1.6 4.4 9.2 1.4 20.3-7.1 26.1v1.3c0 1.6 0 3.2.2 4.8.2.1 16.3 9.3 18.2 13.6s8.6 7.5 8.6 7.5 7.5 4 11 16.6l-.2.3c-1.8 2.2-3.7 4.2-5.8 6.1l-.3.3c-3.8 3.5-7.9 6.5-12.3 9-.3.2-.6.4-1 .6l-.2.1c-3 1.7-6.2 3.1-9.4 4.2l-.9.3h-.1c-.9.3-1.9.6-2.8.9h-.1c-5.1 1.5-10.4 2.4-15.8 2.6-1 0-2 .1-3.1.1-6 0-12-.7-17.8-2.3-.3-.1-.6-.2-.9-.2l-.2-.1c-.6-.2-1.1-.3-1.7-.5l-.9-.3c-2.5-.8-4.9-1.8-7.3-3-4.6-2.2-8.9-4.9-12.9-8.1l-.2-.1c-2.6-2.1-5-4.3-7.3-6.7-.3-.3-.6-.6-.8-.9-.5-.6-1.1-1.2-1.6-1.8-1-1.1-1.9-2.3-2.8-3.5 5.3-20.8 9.8-18.8 9.8-18.8z" style="fill:url(#SVGID_6_)"/><path class="st27" d="m312.1 214.6 21.5-16.6s-14.4 3.1-14-19.9v-.2c0-2.1.2-4.4.5-6.9 3.7-30.7-25.8-3.7-25.8-3.7.3 2.7.3 5.5 0 8.2v.2c-.6 7.6-2.7 15-6.1 21.7-8 15.3 23.9 17.2 23.9 17.2z"/><path class="st8" d="M297.1 171.1c3.6 3.6 5.9 10 11.4 10 4 0 7.9-1.2 11.2-3.4 0-2.1.2-4.4.5-6.9 3.7-30.7-25.8-3.7-25.8-3.7s3-1 2.7 4z"/><circle class="st27" cx="308.4" cy="159.9" r="20.3"/><path class="st8" d="M327.9 133.9c-1.2-1.5-2.5-2.8-4-3.9-2.3-1.9-4.9-4-7.9-3.8-1.6.2-3.2.8-4.6 1.7-7.3 3.8-13.3.2-21.7 11.6-1.8 2.4-5.4 3-7.3 5.6s-2.6 5.9-3.1 9.2c-.4 2.2-.5 4.5-.3 6.7s1.3 4.2 3 5.6c1.9 1.4 4.6 1.4 6.2 3.3.8 1.2 1.5 2.5 2 3.9.7 1.3 1.8 2.5 3.1 2.3s2.1-1.6 2.3-3c.1-1.4 0-2.9-.3-4.3-.3-2.5.1-5.3 1.6-7.2 1-1.3 2.5-2.1 3.5-3.4 2.4-3.2 1.3-8.6 3.9-11.6 1.6-1.6 3.8-2.2 6-1.7 2.1.6 4.1 1.5 6 2.6 2.6 1.3 5.4 2.4 8.2 3.2 2.4.6 5.1 2.2 6-1 1.3-4.9.1-12-2.6-15.8z"/><path d="M327.9 132.9c-1.2-1.5-2.5-2.8-4-3.9-2.3-1.9-4.9-4-7.9-3.8-1.6.2-3.2.8-4.6 1.7-7.3 3.8-13.3.2-21.7 11.6-1.8 2.4-5.4 3-7.3 5.6s-2.6 5.9-3.1 9.2c-.4 2.2-.5 4.5-.3 6.7s1.3 4.2 3 5.6c1.9 1.4 4.6 1.4 6.2 3.3.8 1.2 1.5 2.5 2 3.9.7 1.3 1.8 2.5 3.1 2.3s2.1-1.6 2.3-3c.1-1.4 0-2.9-.3-4.3-.3-2.5.1-5.3 1.6-7.2 1-1.3 2.5-2.1 3.5-3.4 2.4-3.2 1.3-8.6 3.9-11.6 1.6-1.6 3.8-2.2 6-1.7 2.1.6 4.1 1.5 6 2.6 2.6 1.3 5.4 2.4 8.2 3.2 2.4.6 5.1 2.2 6-1 1.3-4.9.1-12-2.6-15.8z" style="fill:#865a61"/><path class="st8" d="m288.1 225.2-.4 15.3c5.8 1.6 11.8 2.4 17.8 2.4 1 0 2 0 3.1-.1 5.3-.2 10.6-1.1 15.8-2.6h.1c1-.3 1.9-.6 2.8-.9h.1l.9-.3c3.2-1.1 6.4-2.5 9.4-4.2l.2-.1c.3-.2.7-.4 1-.5l-1.5-20.7 2.5-14.2-13.5-9.2c-.8 1.1-1.6 2.1-2.5 3.1-1.3 1.4-2.9 2.6-4.6 3.4-9.7 4.8-20.7-2.8-26.2-7.5l-1.3-1.1c-1.4-1.3-2.2-2.2-2.2-2.2l-6.8 10.4 5.3 29z"/><path class="st21" d="m288.1 226.2-.4 15.3c5.8 1.6 11.8 2.4 17.8 2.4 1 0 2 0 3.1-.1 5.3-.2 10.6-1.1 15.8-2.6h.1c1-.3 1.9-.6 2.8-.9h.1l.9-.3c3.2-1.1 6.4-2.5 9.4-4.2l.2-.1c.3-.2.7-.4 1-.5l-1.5-20.7 2.5-14.2-13.5-9.2c-.8 1.1-1.6 2.1-2.5 3.1-1.3 1.4-2.9 2.6-4.6 3.4-9.7 4.8-20.7-2.8-26.2-7.5l-1.3-1.1c-1.4-1.3-2.2-2.2-2.2-2.2l-6.8 10.4 5.3 29z"/><path class="st32" d="M251.2 216.7c.9 1.2 1.8 2.3 2.8 3.5.5.6 1.1 1.2 1.6 1.8.3.3.6.6.8.9 2.3 2.4 4.7 4.6 7.3 6.6l.2.1c4 3.1 8.3 5.8 12.9 7.9 2.4 1.1 4.8 2.1 7.2 2.9l.9.3c.6.2 1.1.4 1.7.5l.2.1c.3.1.6.2.9.2 5.8 1.6 11.8 2.4 17.8 2.4 1 0 2 0 3.1-.1.8-12.8 1-23-.2-25.6-.7-1.5-1.6-3-2.5-4.4-4.9-7.9-14-19.9-13.5-21.4.2-.7.3-1.5.4-2.3.5-3.9 1.1-11.1 1.1-11.1-.2 0-4.7.1-11.3 9.1-6.8 9.2-21.5 10.4-21.5 10.4s-4.5-1.9-9.9 18.2zM325.6 227.4s.7 5.9 1.7 12.9h.1l.9-.3c3.2-1.1 6.4-2.5 9.4-4.2l.2-.1c.3-.2.7-.4 1-.5 4.4-2.5 8.6-5.5 12.3-8.9l.3-.3c2.1-1.9 4-3.9 5.8-6l.2-.3c-3.6-12.4-11-16.3-11-16.3s-6.8-3.1-8.6-7.4-18.2-13.4-18.2-13.4v.1c0 .8-.3 7.8-.6 14.9-.3 4.6-.6 9.2-.9 12.2-.1 1-.3 1.9-.5 2.8-1.3 3.2 7.9 14.8 7.9 14.8z"/></svg>