<svg version="1.1" id="Calque_1" xmlns="http://www.w3.org/2000/svg" x="0" y="0" viewBox="0 0 480 480" style="enable-background:new 0 0 480 480" xml:space="preserve"><style>.st0{fill:#fff}.st1{fill:#8bc037}.st3{fill:#0081c6}</style><path class="st0" d="m240 240.1-64-65.3-2.3-2.4c-36.7-37.5-96.4-37.5-132.9-.1C4 209.6 4 270.4 40.8 307.8c36.5 37.5 96.1 37.5 132.8 0-.1 0 66.4-67.7 66.4-67.7z"/><path class="st0" d="M240 240v92.2l.1 3.4c0 52.9-42.1 96-94.1 96-51.9 0-94.1-42.9-94.1-95.8C52 283 94.3 240 146.1 240H240z"/><path class="st0" d="M240 240v92.2l.1 3.4c0 52.9-42.1 96-94.1 96-51.9 0-94.1-42.9-94.1-95.8C52 283 94.3 240 146.1 240H240z"/><path class="st0" d="M240 240v92.2l.1 3.4c0 52.9-42.1 96-94.1 96-51.9 0-94.1-42.9-94.1-95.8 0-5.9.6-11.6 1.6-17.1 36.7 26 87.3 22.3 119.9-11.1L240 240z"/><path class="st1" d="M146.1 252.1c-45.2 0-82 37.5-82 83.8 0 46.1 36.8 83.6 82 83.6 45.4 0 82.1-37.4 82.1-83.6v-83.8h-82.1z"/><path class="st0" d="m240 240 63.9 65.2 2.6 2.4c36.5 37.5 36.7 98.3 0 135.7-36.8 37.4-96.2 37.4-133 0-36.7-37.4-36.7-98.1 0-135.6L240 240z"/><path class="st1" d="M182.1 316.3c-32.1 32.7-32.1 85.8 0 118.3 32 32.7 83.9 32.7 116.1 0 32-32.6 32-85.7 0-118.3l-2.7-2.5-55.5-56.6-57.9 59v.1z"/><path class="st0" d="M240 240h90.6l3.3-.2c51.9 0 94.1 42.9 94.1 95.9 0 53-42 95.7-93.9 95.7-51.9 0-94-42.8-94-95.8L240 240z"/><path class="st1" d="M252 335.8c0 46.2 36.6 83.7 82.1 83.7 45.2 0 81.9-37.5 81.9-83.7 0-46.3-36.6-83.6-81.9-83.6H252v83.6z"/><path class="st0" d="m240 240 63.9-65.3 2.5-2.5c36.7-37.4 96.2-37.5 132.9-.2 36.7 37.5 36.7 98.1 0 135.6-35.7 36.7-94.3 37.6-131 1.9l-1.9-1.9L240 240z"/><path class="st1" d="M315 299c31.8 32.8 83.8 32.8 115.9 0 32.1-32.6 32.1-85.6 0-118.3s-84.1-32.7-115.9 0l-2.6 2.6L257 240l57.7 58.9.3.1z"/><path class="st0" d="M240 240v-95.8c0-52.9 41.9-95.9 94-95.9 51.8 0 93.7 42.8 93.7 95.7 0 53-42 95.9-93.8 95.9l-93.9.1z"/><path d="M334.1 227.9c45.2 0 81.9-37.5 81.9-83.7 0-46.1-36.6-83.6-81.9-83.6-45.4 0-82.2 37.6-82.2 83.6l.2 3.6v80.1h82z" style="fill:#f99f38"/><path class="st0" d="m240 240-64-65.3-2.5-2.3c-36.7-37.5-36.7-98.3 0-135.7C210-.7 269.6-.7 306.4 36.7c36.7 37.4 36.7 98.1 0 135.5L240 240z"/><path class="st3" d="M298 164.5c32-32.7 32-85.7 0-118.4-32.1-32.7-83.9-32.7-116 0-32.1 32.6-32.1 85.7 0 118.4l2.3 2.5 55.7 56.6 57.8-58.9.2-.2z"/><path class="st0" d="M240 240.8h-90.5l-3.4.1c-51.8 0-94.1-43-94.1-95.9 0-52.9 42.1-95.8 93.9-95.8 51.9 0 94.1 42.9 94.1 95.9v95.7z"/><path class="st3" d="M228.1 145c0-46.2-36.7-83.7-82.2-83.7-45.2 0-82 37.4-82 83.6 0 46.2 36.8 83.7 82 83.7l3.6-.1h78.6V145z"/><path class="st0" d="m240 240.8-226.8.1c0-24.5 9-49.1 27.6-67.8 36.5-37.4 96.1-37.4 132.8 0l66.4 67.7z"/><path class="st3" d="m165.1 181.7 58 59.1H146c-41.6 0-77.1 27.7-89.4 66.1-2.5-2.2-5.2-4.5-7.5-7-32.1-32.7-32.1-85.5 0-118.3 31.9-32.6 84.1-32.6 116 .1"/><path d="m165.3 181.7 45.9 46.8-65.3.2c-37.6 0-69.3-25.8-78.9-60.9 31.2-17.8 72-13.5 98.2 13.8l.1.1zm62.9-36.5-.1 66.3-46.1-47c-26.6-27.1-31.2-68.2-13.7-100 34.5 9.8 59.9 42.1 59.9 80.5v.2zm23.4 66.4v-66.5c0-38.3 25.4-70.7 59.9-80.6 17.5 31.9 14.2 71.9-13.2 99.5l-46.7 47.6z" style="fill:#005ea5"/><path d="m268.8 227.9 46.1-47.1c25.7-26.4 66-32.1 98-13.9-9.9 35.1-39.9 60.4-76.9 61h-67.2z" style="fill:#ffdf4f"/><path d="M268.8 252.1H334c37.6 0 69.3 25.6 79 60.8-31.4 17.9-71.6 13.2-98.3-13.9l-45.9-46.9zM252 335.3v-66.2l46.2 46.9c26.6 27.2 31 68.4 13.6 100.2-34.5-9.9-59.8-42.3-59.8-80.7v-.2zm-69.8-19.2 45.9-46.8.1 66.5c0 38.3-25.2 70.5-59.7 80.5-17.5-31.9-12.8-73 13.7-100.1v-.1zm-35.7-64h64.9l-46 47c-26.5 27.1-67.1 31.7-98.3 13.9 9.8-35.2 41.5-60.9 79.1-60.9h.3z" style="fill:#48a64a"/></svg>