<?xml version="1.0" encoding="utf-8"?>
<!-- Generator: Adobe Illustrator 23.0.1, SVG Export Plug-In . SVG Version: 6.00 Build 0)  -->
<svg version="1.1" id="Calque_1" xmlns="http://www.w3.org/2000/svg" xmlns:xlink="http://www.w3.org/1999/xlink" x="0px" y="0px"
	 viewBox="0 0 480 480" style="enable-background:new 0 0 480 480;" xml:space="preserve">
<style type="text/css">
	.st0{fill:#FFFFFF;}
	.st1{fill:#8BC037;}
	.st2{fill:#F99F38;}
	.st3{fill:#0081C6;}
	.st4{fill:#005EA5;}
	.st5{fill:#FFDF4F;}
	.st6{fill:#48A64A;}
</style>
<g>
	<path class="st0" d="M240,240.1l-64-65.3l-2.3-2.4c-36.7-37.5-96.4-37.5-132.9-0.1C4,209.6,4,270.4,40.8,307.8
		c36.5,37.5,96.1,37.5,132.8,0C173.5,307.8,240,240.1,240,240.1z"/>
	<path class="st0" d="M240,240v92.2l0.1,3.4c0,52.9-42.1,96-94.1,96c-51.9,0-94.1-42.9-94.1-95.8C52,283,94.3,240,146.1,240L240,240
		L240,240z"/>
	<path class="st0" d="M240,240v92.2l0.1,3.4c0,52.9-42.1,96-94.1,96c-51.9,0-94.1-42.9-94.1-95.8C52,283,94.3,240,146.1,240L240,240
		L240,240z"/>
	<path class="st0" d="M240,240v92.2l0.1,3.4c0,52.9-42.1,96-94.1,96c-51.9,0-94.1-42.9-94.1-95.8c0-5.9,0.6-11.6,1.6-17.1
		c36.7,26,87.3,22.3,119.9-11.1L240,240L240,240L240,240z"/>
	<path class="st1" d="M146.1,252.1c-45.2,0-82,37.5-82,83.8c0,46.1,36.8,83.6,82,83.6c45.4,0,82.1-37.4,82.1-83.6v-83.8H146.1
		L146.1,252.1z"/>
	<path class="st0" d="M240,240l63.9,65.2l2.6,2.4c36.5,37.5,36.7,98.3,0,135.7c-36.8,37.4-96.2,37.4-133,0
		c-36.7-37.4-36.7-98.1,0-135.6L240,240L240,240z"/>
	<path class="st1" d="M182.1,316.3c-32.1,32.7-32.1,85.8,0,118.3c32,32.7,83.9,32.7,116.1,0c32-32.6,32-85.7,0-118.3l-2.7-2.5
		L240,257.2l-57.9,59V316.3L182.1,316.3z"/>
	<path class="st0" d="M240,240h90.6l3.3-0.2c51.9,0,94.1,42.9,94.1,95.9c0,53-42,95.7-93.9,95.7c-51.9,0-94-42.8-94-95.8L240,240
		L240,240z"/>
	<path class="st1" d="M252,335.8c0,46.2,36.6,83.7,82.1,83.7c45.2,0,81.9-37.5,81.9-83.7c0-46.3-36.6-83.6-81.9-83.6H252V335.8z"/>
	<path class="st0" d="M240,240l63.9-65.3l2.5-2.5c36.7-37.4,96.2-37.5,132.9-0.2c36.7,37.5,36.7,98.1,0,135.6
		c-35.7,36.7-94.3,37.6-131,1.9c-0.6-0.6-1.3-1.3-1.9-1.9L240,240z"/>
	<path class="st1" d="M315,299c31.8,32.8,83.8,32.8,115.9,0c32.1-32.6,32.1-85.6,0-118.3c-32.1-32.7-84.1-32.7-115.9,0l-2.6,2.6
		L257,240l57.7,58.9L315,299L315,299z"/>
	<path class="st0" d="M240,240v-95.8c0-52.9,41.9-95.9,94-95.9c51.8,0,93.7,42.8,93.7,95.7c0,53-42,95.9-93.8,95.9L240,240L240,240z
		"/>
	<path class="st2" d="M334.1,227.9c45.2,0,81.9-37.5,81.9-83.7c0-46.1-36.6-83.6-81.9-83.6c-45.4,0-82.2,37.6-82.2,83.6l0.2,3.6
		v80.1L334.1,227.9L334.1,227.9z"/>
	<path class="st0" d="M240,240l-64-65.3l-2.5-2.3c-36.7-37.5-36.7-98.3,0-135.7c36.5-37.4,96.1-37.4,132.9,0
		c36.7,37.4,36.7,98.1,0,135.5L240,240z"/>
	<path class="st3" d="M298,164.5c32-32.7,32-85.7,0-118.4c-32.1-32.7-83.9-32.7-116,0c-32.1,32.6-32.1,85.7,0,118.4l2.3,2.5
		l55.7,56.6l57.8-58.9L298,164.5L298,164.5z"/>
	<path class="st0" d="M240,240.8h-90.5l-3.4,0.1c-51.8,0-94.1-43-94.1-95.9c0-52.9,42.1-95.8,93.9-95.8c51.9,0,94.1,42.9,94.1,95.9
		V240.8L240,240.8z"/>
	<path class="st3" d="M228.1,145c0-46.2-36.7-83.7-82.2-83.7c-45.2,0-82,37.4-82,83.6c0,46.2,36.8,83.7,82,83.7l3.6-0.1h78.6
		C228.1,228.6,228.1,145,228.1,145z"/>
	<path class="st0" d="M240,240.8l-226.8,0.1c0-24.5,9-49.1,27.6-67.8c36.5-37.4,96.1-37.4,132.8,0L240,240.8L240,240.8z"/>
	<path class="st3" d="M165.1,181.7l58,59.1h-77.1c-41.6,0-77.1,27.7-89.4,66.1c-2.5-2.2-5.2-4.5-7.5-7c-32.1-32.7-32.1-85.5,0-118.3
		C81,149,133.2,149,165.1,181.7"/>
	<path class="st4" d="M165.3,181.7l45.9,46.8l-65.3,0.2c-37.6,0-69.3-25.8-78.9-60.9c31.2-17.8,72-13.5,98.2,13.8L165.3,181.7z
		 M228.2,145.2l-0.1,66.3l-46.1-47c-26.6-27.1-31.2-68.2-13.7-100c34.5,9.8,59.9,42.1,59.9,80.5L228.2,145.2L228.2,145.2
		L228.2,145.2z M251.6,211.6v-66.5c0-38.3,25.4-70.7,59.9-80.6c17.5,31.9,14.2,71.9-13.2,99.5L251.6,211.6z"/>
	<path class="st5" d="M268.8,227.9l46.1-47.1c25.7-26.4,66-32.1,98-13.9c-9.9,35.1-39.9,60.4-76.9,61L268.8,227.9L268.8,227.9z"/>
	<path class="st6" d="M268.8,252.1H334c37.6,0,69.3,25.6,79,60.8c-31.4,17.9-71.6,13.2-98.3-13.9L268.8,252.1z M252,335.3v-66.2
		l46.2,46.9c26.6,27.2,31,68.4,13.6,100.2c-34.5-9.9-59.8-42.3-59.8-80.7L252,335.3L252,335.3z M182.2,316.1l45.9-46.8l0.1,66.5
		c0,38.3-25.2,70.5-59.7,80.5c-17.5-31.9-12.8-73,13.7-100.1C182.2,316.3,182.2,316.1,182.2,316.1z M146.5,252.1h64.9l-46,47
		c-26.5,27.1-67.1,31.7-98.3,13.9c9.8-35.2,41.5-60.9,79.1-60.9L146.5,252.1L146.5,252.1z"/>
</g>
</svg>
