<?xml version="1.0" encoding="utf-8"?>
<!-- Generator: Adobe Illustrator 23.0.1, SVG Export Plug-In . SVG Version: 6.00 Build 0)  -->
<svg version="1.1" id="Calque_1" xmlns="http://www.w3.org/2000/svg" xmlns:xlink="http://www.w3.org/1999/xlink" x="0px" y="0px"
	 viewBox="0 0 250 250" style="enable-background:new 0 0 250 250;" xml:space="preserve">
<style type="text/css">
	.st0{fill-rule:evenodd;clip-rule:evenodd;fill:#6E2FD1;}
	.st1{enable-background:new    ;}
	.st2{fill:#FFFFFF;}
</style>
<circle class="st0" cx="125" cy="125" r="125"/>
<g class="st1">
	<path class="st2" d="M37.6,153.3c-1.4-1.4-2.1-3.2-2.1-5.3c0-2.1,0.7-3.9,2.1-5.3c1.4-1.4,3.1-2.1,5.3-2.1c2.1,0,3.9,0.7,5.3,2.1
		c1.4,1.4,2.1,3.2,2.1,5.3c0,2.1-0.7,3.9-2.1,5.3c-1.4,1.4-3.1,2.1-5.3,2.1C40.8,155.4,39,154.7,37.6,153.3z"/>
	<path class="st2" d="M105.3,86c1.2,1.1,1.8,2.4,1.8,4.2v59.3c0,1.8-0.6,3.2-1.7,4.3c-1.1,1.1-2.6,1.6-4.5,1.6
		c-1.9,0-3.3-0.5-4.5-1.6c-1.1-1.1-1.7-2.5-1.7-4.3V147c-1.5,2.7-3.6,4.8-6.3,6.3c-2.7,1.5-5.9,2.3-9.4,2.3c-4.2,0-7.9-1.1-11.1-3.2
		c-3.3-2.1-5.8-5.1-7.6-9c-1.8-3.9-2.7-8.3-2.7-13.3c0-5,0.9-9.4,2.7-13.2c1.8-3.8,4.3-6.7,7.6-8.7c3.2-2,7-3.1,11.2-3.1
		c3.5,0,6.6,0.7,9.3,2.2c2.7,1.5,4.8,3.5,6.2,6.1V90c0-1.7,0.5-3,1.6-4c1.1-1,2.6-1.5,4.4-1.5C102.6,84.4,104.1,85,105.3,86z
		 M91.6,141.9c2.1-2.7,3.2-6.6,3.2-11.6c0-5-1.1-8.9-3.2-11.5c-2.1-2.7-5.2-4-9.1-4c-4,0-7,1.3-9.2,4c-2.2,2.6-3.3,6.4-3.3,11.4
		c0,5,1.1,8.9,3.3,11.7c2.2,2.8,5.2,4.2,9.1,4.2C86.4,146,89.5,144.6,91.6,141.9z"/>
	<path class="st2" d="M129,152.5c-3.7-2-6.6-5-8.7-8.8c-2-3.8-3.1-8.3-3.1-13.4c0-5.1,1-9.5,3.1-13.3c2-3.8,4.9-6.7,8.7-8.8
		c3.7-2,8.1-3.1,13-3.1c5,0,9.3,1,13,3.1c3.7,2,6.6,5,8.6,8.8c2,3.8,3,8.2,3,13.3c0,5.1-1,9.5-3,13.4c-2,3.8-4.9,6.8-8.6,8.8
		c-3.7,2-8.1,3.1-13,3.1C137,155.6,132.7,154.6,129,152.5z M151.1,142c2.1-2.6,3.2-6.5,3.2-11.7c0-5.1-1.1-9-3.2-11.6
		c-2.1-2.7-5.2-4-9.1-4c-4,0-7,1.3-9.2,4c-2.1,2.7-3.2,6.6-3.2,11.6c0,5.2,1.1,9.1,3.2,11.7c2.1,2.6,5.2,4,9.1,4
		C145.9,146,149,144.7,151.1,142z"/>
	<path class="st2" d="M185.6,152.5c-3.7-2-6.5-5-8.5-8.7c-2-3.8-3-8.2-3-13.2c0-5,1-9.5,3.1-13.3c2.1-3.9,5-6.9,8.8-9
		c3.8-2.1,8.1-3.2,13-3.2c2.6,0,5.2,0.4,7.8,1.1c2.6,0.7,4.9,1.7,6.9,3c2.1,1.4,3.2,3.1,3.2,5.3c0,1.5-0.3,2.6-1,3.5
		c-0.7,0.9-1.6,1.3-2.7,1.3c-0.7,0-1.5-0.2-2.3-0.5c-0.8-0.3-1.6-0.7-2.4-1.2c-1.5-0.9-2.8-1.5-4.2-2c-1.3-0.5-2.8-0.7-4.6-0.7
		c-4.1,0-7.3,1.3-9.5,4c-2.2,2.7-3.3,6.5-3.3,11.5c0,5,1.1,8.8,3.3,11.4c2.2,2.7,5.4,4,9.5,4c1.7,0,3.1-0.2,4.4-0.7
		c1.3-0.5,2.7-1.2,4.3-2c1-0.6,1.8-1,2.6-1.3c0.7-0.3,1.5-0.4,2.2-0.4c1.1,0,1.9,0.5,2.7,1.4c0.7,0.9,1.1,2.1,1.1,3.5
		c0,1.1-0.2,2.1-0.7,2.9c-0.5,0.8-1.3,1.6-2.4,2.2c-2,1.3-4.4,2.4-7.1,3.1c-2.7,0.8-5.5,1.1-8.3,1.1
		C193.5,155.6,189.3,154.6,185.6,152.5z"/>
</g>
</svg>
