<?xml version="1.0" encoding="utf-8"?>
<!-- Generator: Adobe Illustrator 23.0.1, SVG Export Plug-In . SVG Version: 6.00 Build 0)  -->
<svg version="1.1" id="Layer_1" xmlns="http://www.w3.org/2000/svg" xmlns:xlink="http://www.w3.org/1999/xlink" x="0px" y="0px"
	 viewBox="0 0 100 100" style="enable-background:new 0 0 100 100;" xml:space="preserve">
<style type="text/css">
	.st0{fill:#6A8A22;}
	.st1{fill:#86C61F;}
</style>
<g>
	<path class="st0" d="M20.4,63.1c0,0-5.5,3.3-15.7,18.1C3.1,83.6,2,83.4,2,83.4s0.5,3.6,5.7,2.5c0,0,7.4-17.5,15.1-21L20.4,63.1z"/>
	<path class="st1" d="M13.1,72.2c0,0,3.4-48,42.3-46.7C87.6,26.5,98,14,98,14S98.3,82.1,13.1,72.2z"/>
	<path class="st0" d="M17.8,67.5c0,0,16.1-24.3,35.1-26.2C72.2,39.4,84,29.9,84,29.9S72.2,44.2,51.7,46.3
		C34,48.1,17.8,67.5,17.8,67.5z"/>
</g>
</svg>
