<svg xmlns="http://www.w3.org/2000/svg" viewBox="0 0 250 250" style="enable-background:new 0 0 250 250" xml:space="preserve"><path d="M125 1.8C55.8 1.8 0 57.6 0 126.8c0 58.9 40.3 107.4 94.5 121.4-.5-1.5-1-3.6-1-5.7v-21.2H78c-8.3 0-16-3.6-19.6-10.8-4.1-7.7-4.6-19.1-15-26.3-3.1-2.6-.5-5.2 2.6-4.6 6.7 1.5 11.9 5.7 17 12.4 5.2 6.7 7.2 8.3 16.5 8.3 4.1 0 11.4-.5 17.6-1 3.6-8.8 9.3-16.5 16.5-20.1-41.8-5.2-62-25.8-62-53.7 0-12.4 5.2-23.8 13.9-33.6-2.6-9.8-6.7-30 1-37.7 18.6 0 30 12.4 33.1 15.5 9.3-3.1 19.6-5.2 30.5-5.2 10.8 0 21.2 2.1 30.5 5.2 2.6-3.1 13.9-15.5 33.1-15.5 7.7 7.7 4.1 27.9 1 37.7 8.8 9.8 13.9 21.7 13.9 33.6 0 27.9-19.6 48.6-61.5 53.2 11.4 5.7 19.6 22.7 19.6 35.1V242c0 1-.5 2.1-.5 2.6 48.6-17 83.7-63 83.7-117.8.1-69.2-55.7-125-124.9-125z"/></svg>