<?xml version="1.0" encoding="utf-8"?>
<!-- Generator: Adobe Illustrator 23.0.1, SVG Export Plug-In . SVG Version: 6.00 Build 0)  -->
<svg version="1.1" id="Calque_1" xmlns="http://www.w3.org/2000/svg" xmlns:xlink="http://www.w3.org/1999/xlink" x="0px" y="0px"
	 viewBox="0 0 250 250" style="enable-background:new 0 0 250 250;" xml:space="preserve">
<path d="M125,1.8C55.8,1.8,0,57.6,0,126.8c0,58.9,40.3,107.4,94.5,121.4c-0.5-1.5-1-3.6-1-5.7v-21.2H78c-8.3,0-16-3.6-19.6-10.8
	c-4.1-7.7-4.6-19.1-15-26.3c-3.1-2.6-0.5-5.2,2.6-4.6c6.7,1.5,11.9,5.7,17,12.4c5.2,6.7,7.2,8.3,16.5,8.3c4.1,0,11.4-0.5,17.6-1
	c3.6-8.8,9.3-16.5,16.5-20.1c-41.8-5.2-62-25.8-62-53.7c0-12.4,5.2-23.8,13.9-33.6c-2.6-9.8-6.7-30,1-37.7c18.6,0,30,12.4,33.1,15.5
	c9.3-3.1,19.6-5.2,30.5-5.2c10.8,0,21.2,2.1,30.5,5.2c2.6-3.1,13.9-15.5,33.1-15.5c7.7,7.7,4.1,27.9,1,37.7
	c8.8,9.8,13.9,21.7,13.9,33.6c0,27.9-19.6,48.6-61.5,53.2c11.4,5.7,19.6,22.7,19.6,35.1V242c0,1-0.5,2.1-0.5,2.6
	c48.6-17,83.7-63,83.7-117.8C250,57.6,194.2,1.8,125,1.8L125,1.8z"/>
</svg>
