<svg version="1.1" id="Calque_1" xmlns="http://www.w3.org/2000/svg" x="0" y="0" viewBox="0 0 250 250" style="enable-background:new 0 0 250 250" xml:space="preserve"><style>.st0{fill:#e24329}.st1{fill:#fc6d26}.st2{fill:#fca326}</style><path class="st0" d="m125 239 45.7-140.5H79.3L125 239z"/><path class="st1" d="M125 239 79.3 98.5H15.7L125 239z"/><path class="st2" d="M15.7 98.5 2 141.4c-1.4 3.8 0 8 3.3 10.4L125 239 15.7 98.5z"/><path class="st0" d="M15.7 98.5h64.1L52.4 14.2c-1.4-4.2-7.5-4.2-9 0L15.7 98.5z"/><path class="st1" d="m125 239 45.7-140.5h64.1L125 239z"/><path class="st2" d="m234.3 98.5 13.7 42.9c1.4 3.8 0 8-3.3 10.4L125 239 234.3 98.5z"/><path class="st0" d="M234.3 98.5h-63.6L198 14.1c1.4-4.2 7.5-4.2 9 0l27.3 84.4z"/></svg>