<?xml version="1.0" encoding="utf-8"?>
<!-- Generator: Adobe Illustrator 23.0.1, SVG Export Plug-In . SVG Version: 6.00 Build 0)  -->
<svg version="1.1" id="Calque_1" xmlns="http://www.w3.org/2000/svg" xmlns:xlink="http://www.w3.org/1999/xlink" x="0px" y="0px"
	 viewBox="0 0 250 250" style="enable-background:new 0 0 250 250;" xml:space="preserve">
<style type="text/css">
	.st0{fill:#E24329;}
	.st1{fill:#FC6D26;}
	.st2{fill:#FCA326;}
</style>
<g>
	<path class="st0" d="M125,239l45.7-140.5H79.3L125,239L125,239z"/>
	<path class="st1" d="M125,239L79.3,98.5H15.7L125,239z"/>
	<path class="st2" d="M15.7,98.5L2,141.4c-1.4,3.8,0,8,3.3,10.4L125,239L15.7,98.5L15.7,98.5z"/>
	<path class="st0" d="M15.7,98.5h64.1L52.4,14.2c-1.4-4.2-7.5-4.2-9,0L15.7,98.5L15.7,98.5z"/>
	<path class="st1" d="M125,239l45.7-140.5h64.1L125,239L125,239z"/>
	<path class="st2" d="M234.3,98.5l13.7,42.9c1.4,3.8,0,8-3.3,10.4L125,239L234.3,98.5L234.3,98.5z"/>
	<path class="st0" d="M234.3,98.5h-63.6l27.3-84.4c1.4-4.2,7.5-4.2,9,0L234.3,98.5L234.3,98.5z"/>
</g>
</svg>
