<svg version="1.1" id="Calque_1" xmlns="http://www.w3.org/2000/svg" x="0" y="0" viewBox="-172 295.9 250 250" style="enable-background:new -172 295.9 250 250" xml:space="preserve"><style>.st0{fill:#ff7c00}</style><circle class="st0" cx="-46.5" cy="421.3" r="125.4"/><circle cx="-46.5" cy="421.3" r="112.9" style="fill:#261300"/><path class="st0" d="m-84.3 435.8-7.8 29.6c-.2.8-.5 1-1.5 1h-14.5c-1 0-1.2-.3-1-1.5l28.1-98.2c.5-1.8.8-3.4 1-8.2 0-.7.3-1 .8-1h20.8c.7 0 1 .2 1.2 1l31.4 106.6c.2.8 0 1.3-.8 1.3H-43c-.8 0-1.3-.2-1.5-.9l-8.2-29.7h-31.6zm27.4-16c-2.8-11-9.3-34.9-11.8-46.4h-.2c-2.1 11.6-7.3 31.1-11.5 46.4h23.5zm44.5-54.9c0-6.3 4.4-10.1 10.1-10.1 6 0 10.1 4.1 10.1 10.1 0 6.5-4.2 10.1-10.3 10.1-5.8-.1-9.9-3.6-9.9-10.1zm1.2 22.4c0-.8.3-1.2 1.2-1.2H5.5c.8 0 1.2.3 1.2 1.2v78c0 .8-.2 1.2-1.2 1.2H-9.8c-1 0-1.3-.5-1.3-1.3l-.1-77.9z"/></svg>