<?xml version="1.0" encoding="utf-8"?>
<!-- Generator: Adobe Illustrator 19.0.0, SVG Export Plug-In . SVG Version: 6.00 Build 0)  -->
<svg version="1.1" id="Calque_1" xmlns="http://www.w3.org/2000/svg" xmlns:xlink="http://www.w3.org/1999/xlink" x="0px" y="0px"
	 viewBox="-172 295.9 250 250" style="enable-background:new -172 295.9 250 250;" xml:space="preserve">
<style type="text/css">
	.st0{fill:#00C8FF;}
	.st1{fill:#261300;}
</style>
<circle class="st0" cx="-46.5" cy="421.3" r="125.4"/>
<circle class="st1" cx="-46.5" cy="421.3" r="112.9"/>
<g>
	<path class="st0" d="M-1.1,416.6c-10.6-5.5-12.4-8-12.4-11.6c0-3.3,2.7-7.3,10.6-7.3c6.5,0,13,1.7,17.4,4.5c1,0.3,1.5-0.2,1.5-1
		v-13.7c0-0.7-0.2-1.5-1-2c-3.3-1.5-9.3-2.8-17.9-2.8c-17.5,0-27.6,10.7-27.6,23.6c0,11.5,5.9,18.4,20.1,25.2
		c10.1,5.2,12.4,8.4,12.4,12c0,4.5-3.3,7.8-11.2,7.8c-6.6,0-13.8-1.8-20.1-5.9c-0.7-0.5-1.2-0.2-1.2,0.8v14.7c0,0.8,0.1,1.3,0.8,1.6
		c4.3,2.5,11.8,4.3,20.5,4.3c16.5,0,28.7-8.6,28.7-24.6C19.5,431.5,14.6,424.2-1.1,416.6z"/>
	<path class="st0" d="M-90.2,465.2c0.9,0,1.2-0.4,1.2-1.2v-38.4c2.7,0,4,0.2,7.8,0.2c22.6,0,41-10.9,41-36.3
		c0-19.5-10.8-34.7-38.5-34.7c-9.9,0-19.4,0.2-25.8,0.5c-0.8,0-2.2,0.5-2.2,1.2V464c0,0.9,0.4,1.2,1.2,1.2H-90.2z M-88.9,371
		c1.8-0.1,5.6-0.3,9.6-0.3c13.3,0,21.2,6.4,21.2,19.1c0,15.9-11,20-22.7,20c-4,0-5.8,0-8.1-0.2V371z"/>
</g>
</svg>
