<?xml version="1.0" encoding="utf-8"?>
<!-- Generator: Adobe Illustrator 23.0.1, SVG Export Plug-In . SVG Version: 6.00 Build 0)  -->
<svg version="1.1" id="Calque_1" xmlns="http://www.w3.org/2000/svg" xmlns:xlink="http://www.w3.org/1999/xlink" x="0px" y="0px"
	 viewBox="0 0 250 250" style="enable-background:new 0 0 250 250;" xml:space="preserve">
<style type="text/css">
	.st0{fill-rule:evenodd;clip-rule:evenodd;fill:#EF295D;}
	.st1{fill:#FFFFFF;}
</style>
<circle class="st0" cx="125" cy="125" r="125"/>
<g>
	<path class="st1" d="M34.8,151.7c-1.4-1.5-2.2-3.3-2.2-5.5c0-2.2,0.7-4,2.2-5.5c1.4-1.5,3.2-2.2,5.4-2.2c2.2,0,4,0.7,5.4,2.2
		c1.4,1.5,2.2,3.3,2.2,5.5c0,2.2-0.7,4-2.2,5.5c-1.4,1.5-3.2,2.2-5.4,2.2C38,153.9,36.2,153.1,34.8,151.7z"/>
	<path class="st1" d="M100,105.1c3.4,2.2,6,5.3,7.9,9.3c1.9,4,2.8,8.6,2.8,13.8c0,5.2-0.9,9.7-2.8,13.6c-1.9,3.9-4.5,6.9-7.8,9
		c-3.4,2.1-7.2,3.2-11.6,3.2c-3.6,0-6.7-0.8-9.5-2.3c-2.8-1.5-5-3.6-6.5-6.3v20.9c0,1.8-0.6,3.2-1.7,4.2c-1.2,1-2.7,1.5-4.6,1.5
		c-1.9,0-3.5-0.5-4.7-1.6c-1.2-1.1-1.8-2.5-1.8-4.3v-58.2c0-1.8,0.6-3.3,1.7-4.4c1.1-1.1,2.7-1.6,4.6-1.6c1.9,0,3.5,0.5,4.6,1.6
		c1.2,1.1,1.7,2.6,1.7,4.4v2.6c1.5-2.8,3.7-5,6.5-6.5c2.8-1.5,6.1-2.3,9.7-2.3C92.7,101.8,96.6,102.9,100,105.1z M94.5,140
		c2.3-2.8,3.4-6.7,3.4-11.7c0-5.2-1.1-9.2-3.4-12.1c-2.3-2.9-5.4-4.3-9.4-4.3c-4.1,0-7.3,1.4-9.5,4.2c-2.2,2.8-3.3,6.8-3.3,12
		c0,5.1,1.1,9.1,3.3,11.9c2.2,2.8,5.4,4.2,9.5,4.2C89.1,144.1,92.2,142.7,94.5,140z"/>
	<path class="st1" d="M161.6,105.1c3.4,2.2,6,5.3,7.9,9.3c1.9,4,2.8,8.6,2.8,13.8c0,5.2-0.9,9.7-2.8,13.6c-1.9,3.9-4.5,6.9-7.8,9
		c-3.4,2.1-7.2,3.2-11.6,3.2c-3.6,0-6.7-0.8-9.5-2.3c-2.8-1.5-5-3.6-6.5-6.3v20.9c0,1.8-0.6,3.2-1.7,4.2c-1.2,1-2.7,1.5-4.6,1.5
		c-1.9,0-3.5-0.5-4.7-1.6c-1.2-1.1-1.8-2.5-1.8-4.3v-58.2c0-1.8,0.6-3.3,1.7-4.4c1.1-1.1,2.7-1.6,4.6-1.6c1.9,0,3.5,0.5,4.6,1.6
		c1.2,1.1,1.7,2.6,1.7,4.4v2.6c1.5-2.8,3.7-5,6.5-6.5c2.8-1.5,6.1-2.3,9.7-2.3C154.4,101.8,158.3,102.9,161.6,105.1z M156.2,140
		c2.3-2.8,3.4-6.7,3.4-11.7c0-5.2-1.1-9.2-3.4-12.1c-2.3-2.9-5.4-4.3-9.4-4.3c-4.1,0-7.3,1.4-9.5,4.2c-2.2,2.8-3.3,6.8-3.3,12
		c0,5.1,1.1,9.1,3.3,11.9c2.2,2.8,5.4,4.2,9.5,4.2C150.8,144.1,153.9,142.7,156.2,140z"/>
	<path class="st1" d="M213.8,148.9c0,1.6-0.7,2.9-2,3.7c-1.3,0.9-3.2,1.2-5.7,1.1l-2.8-0.2c-11.5-0.8-17.2-7-17.2-18.5v-22.4H181
		c-1.8,0-3.3-0.4-4.3-1.2c-1-0.8-1.5-2-1.5-3.6c0-1.6,0.5-2.8,1.5-3.6c1-0.8,2.4-1.2,4.3-1.2h5.1v-9.4c0-1.8,0.6-3.3,1.7-4.4
		c1.2-1.1,2.7-1.6,4.7-1.6c1.9,0,3.5,0.5,4.6,1.6c1.2,1.1,1.7,2.6,1.7,4.4v9.4h8.7c1.8,0,3.3,0.4,4.3,1.2c1,0.8,1.5,2,1.5,3.6
		c0,1.6-0.5,2.8-1.5,3.6c-1,0.8-2.4,1.2-4.3,1.2h-8.7V136c0,5.1,2.3,7.8,7,8.1l2.8,0.2C212.1,144.5,213.8,146.1,213.8,148.9z"/>
</g>
</svg>
