<svg xmlns="http://www.w3.org/2000/svg" viewBox="0 0 250 250" style="enable-background:new 0 0 250 250" xml:space="preserve"><path d="M91.7 0C77.9 0 66.6 11.3 66.6 25.1s11.3 25.1 25.1 25.1h25.1V25.1C116.8 11.3 105.5 0 91.7 0m0 66.6H25.1C11.3 66.6 0 77.9 0 91.7s11.3 25.1 25.1 25.1h66.6c13.8 0 25.1-11.3 25.1-25.1s-11.3-25.1-25.1-25.1z" style="fill-rule:evenodd;clip-rule:evenodd;fill:#36c5f0"/><path d="M250 91.7c0-13.8-11.3-25.1-25.1-25.1s-25.1 11.3-25.1 25.1v25.1h25.1c13.8 0 25.1-11.3 25.1-25.1zm-66.6 0V25.1c0-13.8-11.3-25.1-25.1-25.1s-25.1 11.3-25.1 25.1v66.6c0 13.8 11.3 25.1 25.1 25.1s25.1-11.3 25.1-25.1z" style="fill-rule:evenodd;clip-rule:evenodd;fill:#2eb67d"/><path d="M158.3 250c13.8 0 25.1-11.3 25.1-25.1s-11.3-25.1-25.1-25.1h-25.1v25.1c0 13.8 11.3 25.1 25.1 25.1zm0-66.6h66.6c13.8 0 25.1-11.3 25.1-25.1s-11.3-25.1-25.1-25.1h-66.6c-13.8 0-25.1 11.3-25.1 25.1s11.3 25.1 25.1 25.1z" style="fill-rule:evenodd;clip-rule:evenodd;fill:#ecb22e"/><path d="M0 158.3c0 13.8 11.3 25.1 25.1 25.1s25.1-11.3 25.1-25.1v-25.1H25.1C11.3 133.2 0 144.5 0 158.3zm66.6 0v66.6c0 13.8 11.3 25.1 25.1 25.1s25.1-11.3 25.1-25.1v-66.6c0-13.8-11.3-25.1-25.1-25.1s-25.1 11.3-25.1 25.1" style="fill-rule:evenodd;clip-rule:evenodd;fill:#e01e5a"/></svg>