<svg version="1.1" id="Calque_1" xmlns="http://www.w3.org/2000/svg" x="0" y="0" viewBox="0 0 250 250" style="enable-background:new 0 0 250 250" xml:space="preserve"><style>.st2{fill:#fff}</style><circle cx="125" cy="125" r="125" style="fill-rule:evenodd;clip-rule:evenodd;fill:#30c49a"/><g style="enable-background:new"><path class="st2" d="M45.9 156.5c-1.5-1.6-2.3-3.5-2.3-5.8s.8-4.3 2.3-5.8c1.5-1.6 3.4-2.3 5.8-2.3 2.3 0 4.2.8 5.8 2.3 1.5 1.6 2.3 3.5 2.3 5.8s-.8 4.3-2.3 5.8c-1.5 1.6-3.4 2.3-5.8 2.3-2.3 0-4.2-.8-5.8-2.3zM122.1 152.6c0 1.6-.6 3-1.8 4.3-1.2 1.3-2.7 1.9-4.3 1.9-1.8 0-3.4-.8-4.7-2.3l-15.3-17-15.3 17c-1.4 1.5-2.9 2.2-4.7 2.2-1.6 0-3-.6-4.2-1.8-1.2-1.2-1.8-2.6-1.8-4.2 0-1.7.7-3.2 2-4.5l15.9-17.3-15-16.3c-1.3-1.3-2-2.8-2-4.5 0-1.7.6-3.1 1.8-4.3 1.2-1.2 2.6-1.8 4.2-1.8 1.7 0 3.3.7 4.7 2.2l14.5 15.9 14.5-15.9c1.4-1.4 2.9-2.2 4.7-2.2 1.7 0 3.1.6 4.3 1.8 1.2 1.2 1.8 2.6 1.8 4.3 0 1.7-.7 3.2-2 4.5l-15 16.3 16 17.3c1.1 1.3 1.7 2.8 1.7 4.4zM133.8 157.1c-1.3-1.1-1.9-2.7-1.9-4.8V87.4c0-2.1.6-3.7 1.9-4.8 1.3-1.1 2.9-1.6 4.8-1.6 2 0 3.6.5 4.9 1.6 1.3 1.1 2 2.7 2 4.8v64.9c0 2.1-.7 3.7-2 4.8-1.3 1.1-2.9 1.7-4.9 1.7-1.9 0-3.5-.5-4.8-1.7zM159.6 154.4c-2.3-1.4-3.5-3.3-3.5-5.9 0-1.4.4-2.6 1.2-3.5.8-.9 1.8-1.4 2.9-1.4 1.2 0 2.9.6 5.1 1.7 2.3 1.1 4.4 1.9 6.4 2.5 1.9.6 4.4.9 7.3.9 3 0 5.4-.5 7.1-1.5 1.7-1 2.6-2.4 2.6-4.2 0-1.2-.3-2.2-1-2.9-.7-.7-1.9-1.4-3.7-2-1.8-.6-4.5-1.3-8.1-2.1-6.4-1.3-11.1-3.2-13.9-5.5-2.8-2.4-4.2-5.7-4.2-9.9 0-3.2.9-6.1 2.8-8.6 1.9-2.6 4.5-4.6 7.8-6 3.3-1.4 7-2.1 11.2-2.1 3 0 6 .4 8.8 1.1 2.8.8 5.4 1.9 7.6 3.3 2.3 1.5 3.5 3.4 3.5 5.8 0 1.5-.4 2.7-1.2 3.6-.8 1-1.8 1.5-2.9 1.5-.8 0-1.6-.2-2.3-.5-.8-.3-1.7-.8-2.9-1.5-2.1-1.1-3.9-1.9-5.4-2.4-1.5-.5-3.4-.8-5.7-.8-2.7 0-4.8.5-6.4 1.6-1.6 1.1-2.3 2.6-2.3 4.5 0 1.8.8 3.2 2.4 4.1 1.6.9 4.7 1.9 9.2 2.8 4.9 1 8.7 2.2 11.4 3.5 2.8 1.3 4.7 2.9 5.9 4.9 1.2 2 1.8 4.5 1.8 7.5 0 4.9-2 8.9-6.1 11.8-4.1 3-9.5 4.5-16.4 4.5-7.7-.2-14.1-1.7-19-4.8z"/></g></svg>