<?xml version="1.0" encoding="utf-8"?>
<!-- Generator: Adobe Illustrator 19.0.0, SVG Export Plug-In . SVG Version: 6.00 Build 0)  -->
<svg version="1.1" id="Calque_1" xmlns="http://www.w3.org/2000/svg" xmlns:xlink="http://www.w3.org/1999/xlink" x="0px" y="0px"
	 viewBox="-172 295.9 250 250" style="enable-background:new -172 295.9 250 250;" xml:space="preserve">
<style type="text/css">
	.st0{fill:#FF7C00;}
	.st1{fill:#261300;}
</style>
<circle class="st0" cx="-46.5" cy="421.3" r="125.4"/>
<circle class="st1" cx="-46.5" cy="421.3" r="112.9"/>
<path class="st0" d="M-84.3,435.8l-7.8,29.6c-0.2,0.8-0.5,1-1.5,1h-14.5c-1,0-1.2-0.3-1-1.5l28.1-98.2c0.5-1.8,0.8-3.4,1-8.2
	c0-0.7,0.3-1,0.8-1h20.8c0.7,0,1,0.2,1.2,1l31.4,106.6c0.2,0.8,0,1.3-0.8,1.3h-16.4c-0.8,0-1.3-0.2-1.5-0.9l-8.2-29.7H-84.3
	L-84.3,435.8z M-56.9,419.8c-2.8-11-9.3-34.9-11.8-46.4h-0.2c-2.1,11.6-7.3,31.1-11.5,46.4H-56.9z M-12.4,364.9
	c0-6.3,4.4-10.1,10.1-10.1c6,0,10.1,4.1,10.1,10.1c0,6.5-4.2,10.1-10.3,10.1C-8.3,374.9-12.4,371.4-12.4,364.9L-12.4,364.9z
	 M-11.2,387.3c0-0.8,0.3-1.2,1.2-1.2H5.5c0.8,0,1.2,0.3,1.2,1.2v78c0,0.8-0.2,1.2-1.2,1.2H-9.8c-1,0-1.3-0.5-1.3-1.3L-11.2,387.3
	L-11.2,387.3z"/>
</svg>
