<?xml version="1.0" encoding="utf-8"?>
<!-- Generator: Adobe Illustrator 23.0.1, SVG Export Plug-In . SVG Version: 6.00 Build 0)  -->
<svg version="1.1" id="Calque_1" xmlns="http://www.w3.org/2000/svg" xmlns:xlink="http://www.w3.org/1999/xlink" x="0px" y="0px"
	 viewBox="0 0 480 480" style="enable-background:new 0 0 480 480;" xml:space="preserve">
<style type="text/css">
	.st0{fill:#F62B54;}
	.st1{fill:#FFCC00;}
	.st2{fill:#00CA72;}
</style>
<g id="g853" transform="matrix(3.6956523,0,0,3.6956523,-3.7266276e-4,-19.226192)">
	<g id="g847" transform="translate(0,5.552)">
		<path id="path841" class="st0" d="M20.4,100c-5.3,0-10.3-2.9-12.9-7.5C4.8,87.9,5,82.2,7.9,77.7L34.5,36c2.8-4.6,7.8-7.3,13.1-7.1
			c5.3,0.1,10.2,3.1,12.7,7.8c2.5,4.7,2.2,10.3-0.8,14.7L32.9,93.2C30.2,97.4,25.4,100,20.4,100z"/>
		<path id="path843" class="st1" d="M66,100c-5.4,0-10.3-2.9-12.9-7.5c-2.6-4.6-2.4-10.3,0.4-14.7L80,36.1c2.7-4.6,7.8-7.4,13.1-7.3
			c5.4,0.1,10.3,3.1,12.8,7.9c2.5,4.7,2.1,10.4-1,14.8L78.5,93.2C75.7,97.4,71,100,66,100z"/>
		<ellipse id="ellipse845" class="st2" cx="110.6" cy="86.9" rx="13.7" ry="13.4"/>
	</g>
</g>
</svg>
