<?xml version="1.0" encoding="utf-8"?>
<!-- Generator: Adobe Illustrator 23.0.1, SVG Export Plug-In . SVG Version: 6.00 Build 0)  -->
<svg version="1.1" id="Layer_1" xmlns="http://www.w3.org/2000/svg" xmlns:xlink="http://www.w3.org/1999/xlink" x="0px" y="0px"
	 viewBox="0 0 100 100" style="enable-background:new 0 0 100 100;" xml:space="preserve">
<style type="text/css">
	.st0{fill:#2CA01C;}
	.st1{fill:#FFFFFF;}
</style>
<circle class="st0" cx="50" cy="50" r="50"/>
<path class="st1" d="M12.1,49.9c0,11.3,9.1,20.5,20.4,20.6h2.9V63h-2.9c-7,1.9-14.2-2.2-16.1-9.2c0-0.1,0-0.1,0-0.2
	c-2-7.1,2.1-14.5,9.2-16.5H27c1.8-0.4,3.7-0.4,5.5,0h7v40.1c0,4.2,3.4,7.7,7.6,7.8V29.1H32.5C21.1,29.2,12,38.5,12.1,49.9L12.1,49.9
	L12.1,49.9z M67.6,29.2h-2.9v8h2.9c7-1.9,14.2,2.2,16.1,9.2c0,0.1,0,0.1,0,0.2c2,7.1-2.1,14.4-9.2,16.4h-1.4c-1.8,0.4-3.7,0.4-5.5,0
	h-7V22.8c0-4.2-3.4-7.7-7.6-7.8v55.9h14.6C79,70.8,88.2,61.3,88,49.8c-0.2-11.2-9.2-20.3-20.5-20.5L67.6,29.2z"/>
</svg>
