<?xml version="1.0" encoding="utf-8"?>
<!-- Generator: Adobe Illustrator 23.0.1, SVG Export Plug-In . SVG Version: 6.00 Build 0)  -->
<svg version="1.1" id="Calque_1" xmlns="http://www.w3.org/2000/svg" xmlns:xlink="http://www.w3.org/1999/xlink" x="0px" y="0px"
	 viewBox="0 0 250 250" style="enable-background:new 0 0 250 250;" xml:space="preserve">
<style type="text/css">
	.st0{fill-rule:evenodd;clip-rule:evenodd;fill:#36C5F0;}
	.st1{fill-rule:evenodd;clip-rule:evenodd;fill:#2EB67D;}
	.st2{fill-rule:evenodd;clip-rule:evenodd;fill:#ECB22E;}
	.st3{fill-rule:evenodd;clip-rule:evenodd;fill:#E01E5A;}
</style>
<g>
	<path class="st0" d="M91.7,0C77.9,0,66.6,11.3,66.6,25.1s11.3,25.1,25.1,25.1h25.1V25.1C116.8,11.3,105.5,0,91.7,0L91.7,0
		 M91.7,66.6H25.1C11.3,66.6,0,77.9,0,91.7s11.3,25.1,25.1,25.1h66.6c13.8,0,25.1-11.3,25.1-25.1S105.5,66.6,91.7,66.6L91.7,66.6z"
		/>
	<path class="st1" d="M250,91.7c0-13.8-11.3-25.1-25.1-25.1c-13.8,0-25.1,11.3-25.1,25.1v25.1h25.1C238.7,116.8,250,105.5,250,91.7z
		 M183.4,91.7V25.1c0-13.8-11.3-25.1-25.1-25.1s-25.1,11.3-25.1,25.1v66.6c0,13.8,11.3,25.1,25.1,25.1S183.4,105.5,183.4,91.7z"/>
	<path class="st2" d="M158.3,250c13.8,0,25.1-11.3,25.1-25.1c0-13.8-11.3-25.1-25.1-25.1h-25.1v25.1
		C133.2,238.7,144.5,250,158.3,250z M158.3,183.4h66.6c13.8,0,25.1-11.3,25.1-25.1s-11.3-25.1-25.1-25.1h-66.6
		c-13.8,0-25.1,11.3-25.1,25.1S144.5,183.4,158.3,183.4L158.3,183.4z"/>
	<path class="st3" d="M0,158.3c0,13.8,11.3,25.1,25.1,25.1s25.1-11.3,25.1-25.1v-25.1H25.1C11.3,133.2,0,144.5,0,158.3z M66.6,158.3
		v66.6c0,13.8,11.3,25.1,25.1,25.1s25.1-11.3,25.1-25.1v-66.6c0-13.8-11.3-25.1-25.1-25.1S66.6,144.5,66.6,158.3L66.6,158.3"/>
</g>
</svg>
