<?xml version="1.0" encoding="utf-8"?>
<!-- Generator: Adobe Illustrator 23.0.1, SVG Export Plug-In . SVG Version: 6.00 Build 0)  -->
<svg version="1.1" id="Calque_1" xmlns="http://www.w3.org/2000/svg" xmlns:xlink="http://www.w3.org/1999/xlink" x="0px" y="0px"
	 viewBox="0 0 250 250" style="enable-background:new 0 0 250 250;" xml:space="preserve">
<style type="text/css">
	.st0{fill-rule:evenodd;clip-rule:evenodd;fill:#30C49A;}
	.st1{enable-background:new    ;}
	.st2{fill:#FFFFFF;}
</style>
<circle class="st0" cx="125" cy="125" r="125"/>
<g class="st1">
	<path class="st2" d="M45.9,156.5c-1.5-1.6-2.3-3.5-2.3-5.8c0-2.3,0.8-4.3,2.3-5.8c1.5-1.6,3.4-2.3,5.8-2.3c2.3,0,4.2,0.8,5.8,2.3
		c1.5,1.6,2.3,3.5,2.3,5.8c0,2.3-0.8,4.3-2.3,5.8c-1.5,1.6-3.4,2.3-5.8,2.3C49.4,158.8,47.5,158,45.9,156.5z"/>
	<path class="st2" d="M122.1,152.6c0,1.6-0.6,3-1.8,4.3c-1.2,1.3-2.7,1.9-4.3,1.9c-1.8,0-3.4-0.8-4.7-2.3l-15.3-17l-15.3,17
		c-1.4,1.5-2.9,2.2-4.7,2.2c-1.6,0-3-0.6-4.2-1.8c-1.2-1.2-1.8-2.6-1.8-4.2c0-1.7,0.7-3.2,2-4.5l15.9-17.3l-15-16.3
		c-1.3-1.3-2-2.8-2-4.5c0-1.7,0.6-3.1,1.8-4.3c1.2-1.2,2.6-1.8,4.2-1.8c1.7,0,3.3,0.7,4.7,2.2l14.5,15.9l14.5-15.9
		c1.4-1.4,2.9-2.2,4.7-2.2c1.7,0,3.1,0.6,4.3,1.8c1.2,1.2,1.8,2.6,1.8,4.3c0,1.7-0.7,3.2-2,4.5l-15,16.3l16,17.3
		C121.5,149.5,122.1,151,122.1,152.6z"/>
	<path class="st2" d="M133.8,157.1c-1.3-1.1-1.9-2.7-1.9-4.8V87.4c0-2.1,0.6-3.7,1.9-4.8c1.3-1.1,2.9-1.6,4.8-1.6
		c2,0,3.6,0.5,4.9,1.6c1.3,1.1,2,2.7,2,4.8v64.9c0,2.1-0.7,3.7-2,4.8c-1.3,1.1-2.9,1.7-4.9,1.7C136.7,158.8,135.1,158.3,133.8,157.1
		z"/>
	<path class="st2" d="M159.6,154.4c-2.3-1.4-3.5-3.3-3.5-5.9c0-1.4,0.4-2.6,1.2-3.5c0.8-0.9,1.8-1.4,2.9-1.4c1.2,0,2.9,0.6,5.1,1.7
		c2.3,1.1,4.4,1.9,6.4,2.5c1.9,0.6,4.4,0.9,7.3,0.9c3,0,5.4-0.5,7.1-1.5c1.7-1,2.6-2.4,2.6-4.2c0-1.2-0.3-2.2-1-2.9
		c-0.7-0.7-1.9-1.4-3.7-2c-1.8-0.6-4.5-1.3-8.1-2.1c-6.4-1.3-11.1-3.2-13.9-5.5c-2.8-2.4-4.2-5.7-4.2-9.9c0-3.2,0.9-6.1,2.8-8.6
		c1.9-2.6,4.5-4.6,7.8-6c3.3-1.4,7-2.1,11.2-2.1c3,0,6,0.4,8.8,1.1c2.8,0.8,5.4,1.9,7.6,3.3c2.3,1.5,3.5,3.4,3.5,5.8
		c0,1.5-0.4,2.7-1.2,3.6c-0.8,1-1.8,1.5-2.9,1.5c-0.8,0-1.6-0.2-2.3-0.5c-0.8-0.3-1.7-0.8-2.9-1.5c-2.1-1.1-3.9-1.9-5.4-2.4
		c-1.5-0.5-3.4-0.8-5.7-0.8c-2.7,0-4.8,0.5-6.4,1.6c-1.6,1.1-2.3,2.6-2.3,4.5c0,1.8,0.8,3.2,2.4,4.1c1.6,0.9,4.7,1.9,9.2,2.8
		c4.9,1,8.7,2.2,11.4,3.5c2.8,1.3,4.7,2.9,5.9,4.9c1.2,2,1.8,4.5,1.8,7.5c0,4.9-2,8.9-6.1,11.8c-4.1,3-9.5,4.5-16.4,4.5
		C170.9,159,164.5,157.5,159.6,154.4z"/>
</g>
</svg>
