<?xml version="1.0" encoding="utf-8"?>
<!-- Generator: Adobe Illustrator 19.0.0, SVG Export Plug-In . SVG Version: 6.00 Build 0)  -->
<svg version="1.1" id="Calque_1" xmlns="http://www.w3.org/2000/svg" xmlns:xlink="http://www.w3.org/1999/xlink" x="0px" y="0px"
	 viewBox="274 -102 798 454" style="enable-background:new 274 -102 798 454;" xml:space="preserve">
<style type="text/css">
	.st0{fill:#023966;}
</style>
<g>
	<path class="st0" d="M703.2,181.2c0,4.8,1.4,8.6,4.4,11.4c2.9,2.8,6.9,4.2,11.8,4.2c6.9,0,12.1-2.9,15.6-8.8h0.2v7.6h14.4v-31.4
		c0-14.5-7.3-21.8-21.8-21.8c-2.8,0-6.2,0.4-10.1,1.2c-3.9,0.8-7.1,1.9-9.4,3.2h0.1v11.6c5.5-3.7,11.3-5.6,17.5-5.6
		c6.3,0,9.4,3.1,9.4,9.1l-14.3,1.9C709.1,165.4,703.2,171.2,703.2,181.2z M735.5,170.8v3.7c0,3.3-1,6-3,8.2s-4.6,3.3-7.7,3.3
		c-2.3,0-4.1-0.6-5.4-1.8s-2-2.8-2-4.7c0-4.2,2.7-6.7,8.2-7.4L735.5,170.8z"/>
	<path class="st0" d="M610.7,143.6v52h15.2v-25c0-4.7,1-8.3,3-10.9s4.8-3.9,8.2-3.9c2.6,0,4.9,0.5,6.7,1.6h0.2v-14.1
		c-1-0.4-2.3-0.6-4.1-0.6c-6.6,0-11.2,3.6-13.7,10.7H626v-9.8H610.7z"/>
	<path class="st0" d="M697.3,167.5c0-7.8-2-13.9-6.2-18.4s-9.9-6.7-17.3-6.7s-13.5,2.6-18.4,7.8c-4.9,5.2-7.3,11.9-7.3,20.2
		c0,8.3,2.3,14.8,6.9,19.5c4.6,4.7,11,7,19.3,7c7.7,0,13.9-1.3,18.6-4v-11.1c-4.4,2.8-9.5,4.2-15.2,4.2c-9.2,0-14.1-4-14.6-12.1
		h34.3C697.3,173.9,697.3,167.5,697.3,167.5z M662.9,164.4c0.5-3.5,1.8-6.4,3.8-8.5c2-2.1,4.3-3.2,6.9-3.2c6.3,0,9.4,3.9,9.4,11.7
		H662.9z"/>
	<path class="st0" d="M546.6,118.6v76.9h15.2v-6.2h0.2c3.3,5,8.1,7.5,14.6,7.5c7.1,0,12.7-2.6,17-7.9c4.3-5.2,6.4-12.2,6.4-20.8
		c0-8-1.9-14.3-5.6-18.9s-8.9-6.9-15.4-6.9c-7.4,0-13,3.1-17,9.2h-0.2v-32.9H546.6z M565,157.8c2.2-2.5,5-3.8,8.4-3.8
		c3.5,0,6.3,1.3,8.4,3.8c1.9,2.5,2.9,6,2.9,10.5c0,5.4-1.1,9.6-3.2,12.5c-2.2,2.9-5.1,4.4-8.9,4.4c-3.2,0-5.8-1.2-7.8-3.5
		c-2.1-2.3-3.1-5.2-3.1-8.6h0v-5.5C561.7,163.6,562.8,160.3,565,157.8z"/>
	<path class="st0" d="M391.6,110.5c5-5.6,7.5-12.1,7.5-19.5c0-9.9-4.1-17.8-12.1-23.4c-8.1-5.7-19.5-8.5-34.4-8.5h-48.5v136.5
		l51.1,0.1c15.2,0,27.3-3.7,36.1-11c8.8-7.4,13.2-17.2,13.2-29.6c0-8.9-3-16.2-8.8-22.1s-13.5-9.4-23-10.6V122
		C380.3,119.9,386.6,116.1,391.6,110.5z M333.3,80.8l12.2-0.1c15.3,0,22.9,5.2,22.9,15.7c0,5.7-1.9,10.1-5.7,13.3
		c-3.8,3.2-9.1,4.8-15.7,4.8h-13.7V80.8z M374,154.6c0,6.1-2.1,10.8-6.2,14.2c-4.1,3.4-9.9,5.1-17.2,5.1h-17.3v-37.4l17-0.1
		c7.5,0,13.4,1.6,17.5,4.8C371.9,144.4,374,148.8,374,154.6z"/>
	<path class="st0" d="M485,76.8v21.4h-16v21.2h16v46c0,21.7,10.3,32.6,31,32.6c8.7,0,15.2-1.2,19.5-3.5v-21.2
		c-3.4,1.9-6.7,2.8-9.9,2.8c-8.2,0-12.3-5.2-12.3-15.6v-41.1h22.2V98.2h-22.2V68.7L485,76.8z"/>
	<path class="st0" d="M450.7,56.2c-3.1-2.8-7.1-4.2-12-4.2c-4.8,0-8.7,1.4-11.8,4.1c-3.1,2.7-4.6,6.3-4.6,10.6
		c0,4.2,1.5,7.8,4.6,10.7c3.1,2.9,7,4.3,11.8,4.3c4.8,0,8.8-1.5,11.9-4.3c3.1-2.8,4.7-6.4,4.7-10.7C455.3,62.5,453.8,59,450.7,56.2z
		"/>
	<rect x="424.3" y="98.2" class="st0" width="28.4" height="97.4"/>
	<rect x="926.3" y="80" class="st0" width="42" height="42"/>
	<path class="st0" d="M874.6,143.6v52h15.2v-25c0-4.7,1-8.3,3-10.9s4.8-3.9,8.2-3.9c2.6,0,4.9,0.5,6.7,1.6l0.1-14.1
		c-1-0.4-2.3-0.6-4.1-0.6c-6.6,0-11.2,3.6-13.7,10.7h-0.2v-9.8H874.6z"/>
	<rect x="917.3" y="130" class="st0" width="15" height="15"/>
	<rect x="949.9" y="134" class="st0" width="30" height="30"/>
	<polygon class="st0" points="762.6,118.7 762.6,195.6 777.8,195.6 777.8,169.9 778,169.9 795.4,195.6 813.8,195.6 793,168.2 
		812.3,143.7 794.3,143.7 778,167.7 777.8,167.7 777.8,118.7 	"/>
	<path class="st0" d="M864.7,167.5c0-7.8-2-13.9-6.2-18.4s-9.9-6.7-17.3-6.7s-13.5,2.6-18.4,7.8s-7.3,11.9-7.3,20.2
		c0,8.3,2.3,14.8,6.9,19.5c4.6,4.7,11,7,19.3,7c7.7,0,13.9-1.3,18.6-4v-11.1c-4.4,2.8-9.5,4.2-15.2,4.2c-9.2,0-14-4-14.5-12.1h34.1
		V167.5z M830.5,164.4c0.5-3.5,1.8-6.4,3.8-8.5c2-2.1,4.3-3.2,6.9-3.2c6.3,0,9.4,3.9,9.4,11.7H830.5z"/>
	<rect x="979.9" y="60" class="st0" width="62" height="62"/>
</g>
</svg>
