<svg version="1.1" id="Calque_1" xmlns="http://www.w3.org/2000/svg" x="0" y="0" viewBox="349 -177 798 454" style="enable-background:new 349 -177 798 454" xml:space="preserve"><style>.st0,.st1{opacity:.2}.st1{enable-background:new}</style><g class="st0"><path d="M379.1 120.6V-15.9h48.5c14.9 0 26.3 2.8 34.4 8.5 8 5.6 12.1 13.5 12.1 23.4 0 7.4-2.5 13.9-7.5 19.5s-11.3 9.4-18.9 11.5v.4c9.5 1.2 17.2 4.7 23 10.6 5.8 5.9 8.8 13.2 8.8 22.1 0 12.4-4.4 22.2-13.2 29.6-8.8 7.3-20.9 11-36.1 11l-51.1-.1zM408.3 5.8v33.7H422c6.6 0 11.9-1.6 15.7-4.8s5.7-7.6 5.7-13.3c0-10.5-7.6-15.7-22.9-15.7l-12.2.1zm0 55.7v37.4h17.3c7.3 0 13.1-1.7 17.2-5.1 4.1-3.4 6.2-8.1 6.2-14.2 0-5.8-2.1-10.2-6.2-13.4-4.1-3.2-10-4.8-17.5-4.8l-17 .1zM497.2-8.3c0-4.3 1.5-7.9 4.6-10.6 3.1-2.7 7-4.1 11.8-4.1 4.9 0 8.9 1.4 12 4.2 3.1 2.8 4.6 6.3 4.6 10.5 0 4.3-1.6 7.9-4.7 10.7-3.1 2.8-7.1 4.3-11.9 4.3-4.8 0-8.7-1.4-11.8-4.3-3.1-2.9-4.6-6.5-4.6-10.7zm2.1 128.9V23.2h28.4v97.4h-28.4zM610.5 119.5c-4.3 2.3-10.8 3.5-19.5 3.5-20.7 0-31-10.9-31-32.6v-46h-16V23.2h16V1.8l28.3-8.1v29.5h22.2v21.2h-22.2v41.1c0 10.4 4.1 15.6 12.3 15.6 3.2 0 6.5-.9 9.9-2.8v21.2z"/></g><g class="st0"><path d="M636.8 114.3v6.2h-15.2V43.6h15.2v32.9h.2c4-6.1 9.6-9.2 17-9.2 6.5 0 11.7 2.3 15.4 6.9 3.7 4.6 5.6 10.9 5.6 18.9 0 8.6-2.1 15.6-6.4 20.8-4.3 5.3-9.9 7.9-17 7.9-6.5 0-11.3-2.5-14.6-7.5h-.2zm-.1-16.2c0 3.4 1 6.3 3.1 8.6 2 2.3 4.6 3.5 7.8 3.5 3.8 0 6.7-1.5 8.9-4.4 2.1-2.9 3.2-7.1 3.2-12.5 0-4.5-1-8-2.9-10.5-2.1-2.5-4.9-3.8-8.4-3.8-3.4 0-6.2 1.3-8.4 3.8s-3.3 5.8-3.3 9.8v5.5zM718.8 82.4c-1.8-1.1-4.1-1.6-6.7-1.6-3.4 0-6.2 1.3-8.2 3.9-2 2.6-3 6.2-3 10.9v25h-15.2v-52H701v9.8h.2c2.5-7.1 7.1-10.7 13.7-10.7 1.8 0 3.1.2 4.1.6v14.1h-.2zM772.3 98.9H738c.5 8.1 5.4 12.1 14.6 12.1 5.7 0 10.8-1.4 15.2-4.2v11.1c-4.7 2.7-10.9 4-18.6 4-8.3 0-14.7-2.3-19.3-7-4.6-4.7-6.9-11.2-6.9-19.5s2.4-15 7.3-20.2c4.9-5.2 11-7.8 18.4-7.8s13.1 2.2 17.3 6.7 6.2 10.6 6.2 18.4c.1 0 .1 6.4.1 6.4zM758 89.4c0-7.8-3.1-11.7-9.4-11.7-2.6 0-4.9 1.1-6.9 3.2s-3.3 5-3.8 8.5H758zM783.3 71.8c2.3-1.3 5.5-2.4 9.4-3.2s7.3-1.2 10.1-1.2c14.5 0 21.8 7.3 21.8 21.8v31.4h-14.4V113h-.2c-3.5 5.9-8.7 8.8-15.6 8.8-4.9 0-8.9-1.4-11.8-4.2-3-2.8-4.4-6.6-4.4-11.4 0-10 5.9-15.8 17.8-17.4l14.3-1.9c0-6-3.1-9.1-9.4-9.1-6.2 0-12 1.9-17.5 5.6V71.8h-.1zm17.2 25.3c-5.5.7-8.2 3.2-8.2 7.4 0 1.9.7 3.5 2 4.7 1.3 1.2 3.1 1.8 5.4 1.8 3.1 0 5.7-1.1 7.7-3.3s3-4.9 3-8.2v-3.7l-9.9 1.3zM888.8 120.6h-18.4L853 94.9h-.2v25.7h-15.2V43.7h15.2v49h.2l16.2-24h18.1L868 93.2l20.8 27.4zM939.7 98.9h-34.2c.5 8.1 5.3 12.1 14.5 12.1 5.7 0 10.8-1.4 15.2-4.2v11.1c-4.7 2.7-10.9 4-18.6 4-8.3 0-14.7-2.3-19.3-7-4.6-4.7-6.9-11.2-6.9-19.5s2.4-15 7.3-20.2 11-7.8 18.4-7.8c7.4 0 13.1 2.2 17.3 6.7 4.2 4.5 6.2 10.6 6.2 18.4v6.4zm-14.1-9.5c0-7.8-3.1-11.7-9.4-11.7-2.6 0-4.9 1.1-6.9 3.2s-3.3 5-3.8 8.5h20.1zM982.7 82.4c-1.8-1.1-4.1-1.6-6.7-1.6-3.4 0-6.2 1.3-8.2 3.9-2 2.6-3 6.2-3 10.9v25h-15.2v-52h15.2v9.8h.2c2.5-7.1 7.1-10.7 13.7-10.7 1.8 0 3.1.2 4.1.6l-.1 14.1z"/></g><path class="st1" d="M1001.3 5h42v42h-42zM1054.8-15h62v62h-62zM1024.8 59h30v30h-30zM992.2 55h15v15h-15z"/></svg>