<?xml version="1.0" encoding="utf-8"?>
<!-- Generator: Adobe Illustrator 23.0.1, SVG Export Plug-In . SVG Version: 6.00 Build 0)  -->
<svg version="1.1" id="Calque_1" xmlns="http://www.w3.org/2000/svg" xmlns:xlink="http://www.w3.org/1999/xlink" x="0px" y="0px"
	 viewBox="0 0 798 454" style="enable-background:new 0 0 798 454;" xml:space="preserve">
<style type="text/css">
	.st0{opacity:0.2;}
	.st1{fill:#FFFFFF;}
	.st2{opacity:0.2;fill:#FFFFFF;enable-background:new    ;}
</style>
<g>
	<g class="st0">
		<path class="st1" d="M30.1,297.6V161.1h48.5c14.9,0,26.3,2.8,34.4,8.5c8,5.6,12.1,13.5,12.1,23.4c0,7.4-2.5,13.9-7.5,19.5
			s-11.3,9.4-18.9,11.5v0.4c9.5,1.2,17.2,4.7,23,10.6s8.8,13.2,8.8,22.1c0,12.4-4.4,22.2-13.2,29.6c-8.8,7.3-20.9,11-36.1,11
			L30.1,297.6L30.1,297.6z M59.3,182.8v33.7H73c6.6,0,11.9-1.6,15.7-4.8s5.7-7.6,5.7-13.3c0-10.5-7.6-15.7-22.9-15.7L59.3,182.8
			L59.3,182.8z M59.3,238.5v37.4h17.3c7.3,0,13.1-1.7,17.2-5.1c4.1-3.4,6.2-8.1,6.2-14.2c0-5.8-2.1-10.2-6.2-13.4
			c-4.1-3.2-10-4.8-17.5-4.8L59.3,238.5L59.3,238.5z"/>
		<path class="st1" d="M148.2,168.7c0-4.3,1.5-7.9,4.6-10.6c3.1-2.7,7-4.1,11.8-4.1c4.9,0,8.9,1.4,12,4.2s4.6,6.3,4.6,10.5
			c0,4.3-1.6,7.9-4.7,10.7c-3.1,2.8-7.1,4.3-11.9,4.3c-4.8,0-8.7-1.4-11.8-4.3C149.7,176.5,148.2,172.9,148.2,168.7z M150.3,297.6
			v-97.4h28.4v97.4C178.7,297.6,150.3,297.6,150.3,297.6z"/>
		<path class="st1" d="M261.5,296.5c-4.3,2.3-10.8,3.5-19.5,3.5c-20.7,0-31-10.9-31-32.6v-46h-16v-21.2h16v-21.4l28.3-8.1v29.5h22.2
			v21.2h-22.2v41.1c0,10.4,4.1,15.6,12.3,15.6c3.2,0,6.5-0.9,9.9-2.8V296.5z"/>
	</g>
	<g class="st0">
		<path class="st1" d="M287.8,291.3v6.2h-15.2v-76.9h15.2v32.9h0.2c4-6.1,9.6-9.2,17-9.2c6.5,0,11.7,2.3,15.4,6.9
			c3.7,4.6,5.6,10.9,5.6,18.9c0,8.6-2.1,15.6-6.4,20.8c-4.3,5.3-9.9,7.9-17,7.9c-6.5,0-11.3-2.5-14.6-7.5L287.8,291.3L287.8,291.3z
			 M287.7,275.1c0,3.4,1,6.3,3.1,8.6c2,2.3,4.6,3.5,7.8,3.5c3.8,0,6.7-1.5,8.9-4.4c2.1-2.9,3.2-7.1,3.2-12.5c0-4.5-1-8-2.9-10.5
			c-2.1-2.5-4.9-3.8-8.4-3.8c-3.4,0-6.2,1.3-8.4,3.8s-3.3,5.8-3.3,9.8L287.7,275.1L287.7,275.1z"/>
		<path class="st1" d="M369.8,259.4c-1.8-1.1-4.1-1.6-6.7-1.6c-3.4,0-6.2,1.3-8.2,3.9c-2,2.6-3,6.2-3,10.9v25h-15.2v-52H352v9.8h0.2
			c2.5-7.1,7.1-10.7,13.7-10.7c1.8,0,3.1,0.2,4.1,0.6v14.1C370,259.4,369.8,259.4,369.8,259.4z"/>
		<path class="st1" d="M423.3,275.9H389c0.5,8.1,5.4,12.1,14.6,12.1c5.7,0,10.8-1.4,15.2-4.2v11.1c-4.7,2.7-10.9,4-18.6,4
			c-8.3,0-14.7-2.3-19.3-7c-4.6-4.7-6.9-11.2-6.9-19.5c0-8.3,2.4-15,7.3-20.2c4.9-5.2,11-7.8,18.4-7.8s13.1,2.2,17.3,6.7
			s6.2,10.6,6.2,18.4C423.3,269.5,423.3,275.9,423.3,275.9z M409,266.4c0-7.8-3.1-11.7-9.4-11.7c-2.6,0-4.9,1.1-6.9,3.2
			c-2,2.1-3.3,5-3.8,8.5H409z"/>
		<path class="st1" d="M434.3,248.8c2.3-1.3,5.5-2.4,9.4-3.2s7.3-1.2,10.1-1.2c14.5,0,21.8,7.3,21.8,21.8v31.4h-14.4V290H461
			c-3.5,5.9-8.7,8.8-15.6,8.8c-4.9,0-8.9-1.4-11.8-4.2c-3-2.8-4.4-6.6-4.4-11.4c0-10,5.9-15.8,17.8-17.4l14.3-1.9
			c0-6-3.1-9.1-9.4-9.1c-6.2,0-12,1.9-17.5,5.6L434.3,248.8L434.3,248.8z M451.5,274.1c-5.5,0.7-8.2,3.2-8.2,7.4
			c0,1.9,0.7,3.5,2,4.7c1.3,1.2,3.1,1.8,5.4,1.8c3.1,0,5.7-1.1,7.7-3.3c2-2.2,3-4.9,3-8.2v-3.7L451.5,274.1z"/>
		<path class="st1" d="M539.8,297.6h-18.4L504,271.9h-0.2v25.7h-15.2v-76.9h15.2v49h0.2l16.2-24h18.1L519,270.2L539.8,297.6z"/>
		<path class="st1" d="M590.7,275.9h-34.2C557,284,561.8,288,571,288c5.7,0,10.8-1.4,15.2-4.2v11.1c-4.7,2.7-10.9,4-18.6,4
			c-8.3,0-14.7-2.3-19.3-7c-4.6-4.7-6.9-11.2-6.9-19.5c0-8.3,2.4-15,7.3-20.2s11-7.8,18.4-7.8s13.1,2.2,17.3,6.7s6.2,10.6,6.2,18.4
			L590.7,275.9L590.7,275.9z M576.6,266.4c0-7.8-3.1-11.7-9.4-11.7c-2.6,0-4.9,1.1-6.9,3.2c-2,2.1-3.3,5-3.8,8.5H576.6z"/>
		<path class="st1" d="M633.7,259.4c-1.8-1.1-4.1-1.6-6.7-1.6c-3.4,0-6.2,1.3-8.2,3.9c-2,2.6-3,6.2-3,10.9v25h-15.2v-52h15.2v9.8
			h0.2c2.5-7.1,7.1-10.7,13.7-10.7c1.8,0,3.1,0.2,4.1,0.6L633.7,259.4L633.7,259.4z"/>
	</g>
	<rect x="652.3" y="182" class="st2" width="42" height="42"/>
	<rect x="705.8" y="162" class="st2" width="62" height="62"/>
	<rect x="675.8" y="236" class="st2" width="30" height="30"/>
	<rect x="643.2" y="232" class="st2" width="15" height="15"/>
</g>
</svg>
