<svg xmlns="http://www.w3.org/2000/svg" viewBox="349 -177 798 454" style="enable-background:new 349 -177 798 454" xml:space="preserve"><path d="m430.6 42.1 14.5-25.5s-27.5-20-58.5-5.5-31.5 45.5-31.5 45.5 2.5 28 16.5 38 20 16.5 51.5 14.5 43.5-38.5 43.5-38.5l13-24s11.5-20.5 38-8c0 0 18 15.5 6 32.5s-33 8.5-33 8.5l-15.5-9.5-13 23s20 19.2 42 16.4c22-2.8 32.5-10.9 32.5-10.9s34-24 17.5-61-57-31.8-57-31.8-23.5 3.8-32 12.8c0 0-5.5 4.5-10.5 12.5s-23.5 42.5-23.5 42.5-8.5 11-26.5 7.5-17-27-17-27-1.5-15.5 17-18.5 26 6.5 26 6.5z" style="opacity:.2;enable-background:new"/><g style="opacity:.2"><path d="m652.3 15.7-33.7 91h-30.9l-33.7-91h30.2l18.9 57.7L622 15.7h30.3zM704.9 84.9c7.5 0 13.8-2.9 17.5-6.9l21.8 12.6c-8.9 12.4-22.4 18.8-39.7 18.8-31.1 0-50.4-20.9-50.4-48.1s19.7-48.1 48.4-48.1c26.6 0 46.2 20.6 46.2 48.1 0 3.8-.4 7.5-1.1 10.9H683c3.5 9.4 11.9 12.7 21.9 12.7zm16.8-33.1c-2.9-10.6-11.1-14.4-19.3-14.4-10.4 0-17.3 5.1-19.8 14.4h39.1zM851.7 50.8v55.9h-27.3V54.8c0-11.3-7.1-16.6-15.8-16.6-10 0-16.9 5.8-16.9 18.8v49.7h-27.3v-91h27.3v8.6c4.9-6.7 14-11.1 26-11.1 18.3 0 34 13.1 34 37.6zM963.8 15.7v91h-27.3v-8.6c-6 6.9-14.9 11.1-27.1 11.1-23.8 0-43.5-20.9-43.5-48.1S885.6 13 909.4 13c12.2 0 21.1 4.2 27.1 11.1v-8.6h27.3v.2zm-27.3 45.5c0-13.7-9.1-22.2-21.7-22.2s-21.7 8.6-21.7 22.2c0 13.7 9.1 22.2 21.7 22.2s21.7-8.5 21.7-22.2zM1071.2 50.8v55.9h-27.3V54.8c0-11.3-7.1-16.6-15.8-16.6-10 0-16.9 5.8-16.9 18.8v49.7h-27.3v-91h27.3v8.6c4.9-6.7 14-11.1 26-11.1 18.4 0 34 13.1 34 37.6zM1124.6 41.9v32.2c0 7.8 6.7 8.6 18.8 7.8v24.8c-35.7 3.6-46.1-7.1-46.1-32.6V41.9h-14.6V15.7h14.6V-1.6l27.3-8.2v25.5h18.8v26.2h-18.8z"/></g></svg>