<svg version="1.1" id="Calque_1" xmlns="http://www.w3.org/2000/svg" x="0" y="0" viewBox="274 -102 798 454" style="enable-background:new 274 -102 798 454" xml:space="preserve"><style>.st0{fill:#023966}</style><path class="st0" d="M994.9 181.7v-55.9c0-24.5-15.6-37.6-34-37.6-12 0-21.1 4.4-26 11.1v-8.6h-27.3v91h27.3V132c0-13 6.9-18.8 16.9-18.8 8.7 0 15.8 5.3 15.8 16.6v51.9h27.3zM1067.2 116.9V90.7h-18.8V65.2l-27.3 8.2v17.3h-14.6v26.2h14.6v32.2c0 25.5 10.4 36.2 46.1 32.6v-24.8c-12.1.8-18.8 0-18.8-7.8v-32.2h18.8zM775.4 181.7v-55.9c0-24.5-15.7-37.6-34-37.6-12 0-21.1 4.4-26 11.1v-8.6h-27.3v91h27.3V132c0-13 6.9-18.8 16.9-18.8 8.7 0 15.8 5.3 15.8 16.6v51.9h27.3zM887.5 181.7V90.5h-27.3v8.6c-6-6.9-14.9-11.1-27.1-11.1-23.8 0-43.5 20.9-43.5 48.1 0 27.2 19.7 48.1 43.5 48.1 12.2 0 21.1-4.2 27.1-11.1v8.6h27.3zm-49-23.3c-12.6 0-21.7-8.5-21.7-22.2 0-13.6 9.1-22.2 21.7-22.2s21.7 8.5 21.7 22.2-9.1 22.2-21.7 22.2zM542.3 181.7l33.7-91h-30.3l-18.9 57.7-18.9-57.7h-30.2l33.7 91zM414.3 154.6l-15.5-9.5-13 23s20 19.2 42 16.4c22-2.8 32.5-10.9 32.5-10.9s34-24 17.5-61-57-31.8-57-31.8-23.5 3.8-32 12.8c0 0-5.5 4.5-10.5 12.5s-23.5 42.5-23.5 42.5-8.5 11-26.5 7.5-17-27-17-27-1.5-15.5 17-18.5 26 6.5 26 6.5l14.5-25.5s-27.5-20-58.5-5.5-31.5 45.5-31.5 45.5 2.5 28 16.5 38 20 16.5 51.5 14.5 43.5-38.5 43.5-38.5l13-24s11.5-20.5 38-8c0 0 18 15.5 6 32.5s-33 8.5-33 8.5zM672.4 136.3c0-27.5-19.6-48.1-46.2-48.1-28.7 0-48.4 20.9-48.4 48.1 0 27.2 19.3 48.1 50.4 48.1 17.3 0 30.8-6.4 39.7-18.8L646.1 153c-3.7 4-10 6.9-17.5 6.9-10 0-18.4-3.3-21.9-12.7h64.6c.7-3.4 1.1-7.1 1.1-10.9zm-66.1-9.5c2.5-9.3 9.4-14.4 19.8-14.4 8.2 0 16.4 3.8 19.3 14.4h-39.1z"/></svg>