<?xml version="1.0" encoding="utf-8"?>
<!-- Generator: Adobe Illustrator 19.0.0, SVG Export Plug-In . SVG Version: 6.00 Build 0)  -->
<svg version="1.1" id="Calque_1" xmlns="http://www.w3.org/2000/svg" xmlns:xlink="http://www.w3.org/1999/xlink" x="0px" y="0px"
	 viewBox="274 -102 798 454" style="enable-background:new 274 -102 798 454;" xml:space="preserve">
<style type="text/css">
	.st0{fill:#023966;}
</style>
<g>
	<path class="st0" d="M994.9,181.7v-55.9c0-24.5-15.6-37.6-34-37.6c-12,0-21.1,4.4-26,11.1v-8.6h-27.3v91h27.3V132
		c0-13,6.9-18.8,16.9-18.8c8.7,0,15.8,5.3,15.8,16.6v51.9H994.9z"/>
	<path class="st0" d="M1067.2,116.9V90.7h-18.8V65.2l-27.3,8.2v17.3h-14.6v26.2h14.6v32.2c0,25.5,10.4,36.2,46.1,32.6v-24.8
		c-12.1,0.8-18.8,0-18.8-7.8v-32.2H1067.2z"/>
	<path class="st0" d="M775.4,181.7v-55.9c0-24.5-15.7-37.6-34-37.6c-12,0-21.1,4.4-26,11.1v-8.6h-27.3v91h27.3V132
		c0-13,6.9-18.8,16.9-18.8c8.7,0,15.8,5.3,15.8,16.6v51.9H775.4z"/>
	<path class="st0" d="M887.5,181.7v-91v-0.2h-27.3v8.6c-6-6.9-14.9-11.1-27.1-11.1c-23.8,0-43.5,20.9-43.5,48.1
		c0,27.2,19.7,48.1,43.5,48.1c12.2,0,21.1-4.2,27.1-11.1v8.6H887.5z M838.5,158.4c-12.6,0-21.7-8.5-21.7-22.2
		c0-13.6,9.1-22.2,21.7-22.2s21.7,8.5,21.7,22.2S851.1,158.4,838.5,158.4z"/>
	<polygon class="st0" points="542.3,181.7 576,90.7 545.7,90.7 526.8,148.4 507.9,90.7 477.7,90.7 511.4,181.7 	"/>
	<path class="st0" d="M414.3,154.6l-15.5-9.5l-13,23c0,0,20,19.2,42,16.4c22-2.8,32.5-10.9,32.5-10.9s34-24,17.5-61
		s-57-31.8-57-31.8s-23.5,3.8-32,12.8c0,0-5.5,4.5-10.5,12.5s-23.5,42.5-23.5,42.5s-8.5,11-26.5,7.5s-17-27-17-27s-1.5-15.5,17-18.5
		s26,6.5,26,6.5l14.5-25.5c0,0-27.5-20-58.5-5.5s-31.5,45.5-31.5,45.5s2.5,28,16.5,38s20,16.5,51.5,14.5c31.5-2,43.5-38.5,43.5-38.5
		l13-24c0,0,11.5-20.5,38-8c0,0,18,15.5,6,32.5S414.3,154.6,414.3,154.6z"/>
	<path class="st0" d="M672.4,136.3c0-27.5-19.6-48.1-46.2-48.1c-28.7,0-48.4,20.9-48.4,48.1c0,27.2,19.3,48.1,50.4,48.1
		c17.3,0,30.8-6.4,39.7-18.8L646.1,153c-3.7,4-10,6.9-17.5,6.9c-10,0-18.4-3.3-21.9-12.7h64.6C672,143.8,672.4,140.1,672.4,136.3z
		 M606.3,126.8c2.5-9.3,9.4-14.4,19.8-14.4c8.2,0,16.4,3.8,19.3,14.4C645.4,126.8,606.3,126.8,606.3,126.8z"/>
</g>
</svg>
