<svg version="1.1" id="Calque_1" xmlns="http://www.w3.org/2000/svg" x="0" y="0" viewBox="349 -177 798 454" style="enable-background:new 349 -177 798 454" xml:space="preserve"><style>.st2{fill:#fff}</style><g style="opacity:.2"><path d="M500.8 84.9c1.3-13.7 2.3-25.1 2.9-34.3.6-9.2 1.2-21.5 1.8-36.7.6-15.3.9-25.4.9-30.4l-.1-7c12.5.1 27.6.2 45.3.2 16.4 0 30.8-.1 43.3-.2l-.2 2.6c-.1.6-.2 2.9-.4 6.9l-.5 8.6c-.1 1.8-.2 3.7-.2 5.6-10.2-.4-18.8-.6-25.7-.6h-15.4c-2.7 0-6.8.1-12.5.4l-1 18.3c6.2.2 13.5.2 21.8.2 3 0 10.9-.2 23.7-.6-.5 6.8-1 14.9-1.5 24.2-9.2-.1-16.2-.2-21.1-.2-7.3 0-15.5.2-24.5.6l-.9 19.4h9.1c2.7 0 8.3-.1 16.7-.2l16.4-.4c2.4-.1 6.5-.3 12.2-.6-.6 7.8-1.2 15.9-1.6 24.3-12.9-.1-27.1-.2-42.5-.2l-34.9.1h-11.1zM628.9 84.9l-8.4-26-19-55c6 .1 11.7.2 16.9.2 5.4 0 10.5-.1 15.3-.2.9 3.7 2.7 10 5.3 19.2 2.6 9.1 5.6 20 8.7 32.6l2.1-6.6c.3-.8 1.6-4.2 3.7-10.2l12.6-35c5.7.1 11.1.2 16.2.2 5.2 0 10.7-.1 16.3-.2l-11 23.6-20.4 46.9-4.4 10.6c-6.2-.1-11.8-.2-16.5-.2-5.1-.1-10.9 0-17.4.1zM781.6 60.9c-.7 3.2-2 10.9-4 23-6.1 1.2-11.3 2-15.5 2.4-4.2.4-8.4.6-12.7.6-6.3 0-12.1-.4-17.4-1.3-5.3-.9-9.9-2.4-13.7-4.6s-7.1-5-9.6-8.3c-2.6-3.3-4.6-7.2-5.9-11.8-1.4-4.5-2-9.2-2-14 0-6.8 1.4-13.4 4.1-19.9 2.7-6.5 6.2-11.5 10.4-15.2 4.3-3.6 9.2-6.2 14.7-7.8 5.6-1.5 11.2-2.3 17.1-2.3 6 0 11.8.7 17.3 2.1s10.1 3.9 13.9 7.3c3.8 3.5 6.5 7.4 8.1 11.8s2.4 9.1 2.4 14.2c0 3-.3 6.4-1 10.1l-55.7.1c-.1.8-.1 1.6-.1 2.3 0 5.7 2 9.9 6.1 12.6s9.1 4 14.9 4c3.5 0 7.5-.4 12-1.2 4.5-.7 10-2.1 16.6-4.1zm-48.9-25.6h26.2c.1-.9.1-1.7.1-2.3 0-2.8-.5-5.1-1.5-7.1s-2.4-3.4-4.2-4.3-3.9-1.4-6.2-1.4c-1.6 0-3.1.3-4.6.8s-2.8 1.2-4 2.2-2.2 2.1-3 3.4c-.8 1.3-1.4 2.5-1.7 3.7s-.7 2.8-1.1 5zM798.4 84.9c1.5-12 2.7-25.3 3.5-39.8s1.3-28.3 1.5-41.3c6.4.1 11.8.2 16.5.2 5.4 0 10.5-.1 15.4-.2l-.8 10.8c1.7-2 3.3-3.5 4.5-4.6s2.8-2.3 4.7-3.3c1.9-1.1 3.9-2 6-2.7s4.4-1.2 6.9-1.6 5.1-.6 7.9-.6c3.8 0 7.5.4 11.2 1.2 3.6.8 6.7 2 9.1 3.5 2.4 1.5 4.5 3.4 6.1 5.6 1.6 2.3 2.7 4.7 3.3 7.3.5 2.6.8 5.3.8 8 0 2-.2 6.4-.6 13L893 69.1c-.3 5.7-.4 10.9-.4 15.7-5.3-.1-10.3-.2-15-.2-6.3 0-12 .1-17.2.2.5-4.8 1-12 1.5-21.5s.8-16.2.8-20.1c0-6-1.2-10.2-3.5-12.5-2.3-2.4-5.2-3.5-8.7-3.5-3.1 0-6 1-8.7 3s-4.8 4.9-6.3 8.8c-1.5 3.8-2.5 10.2-3.1 18.9-.6 8.8-1 17.7-1.2 26.8-5.3-.1-10.5-.2-15.5-.2-5.4.2-11.1.3-17.3.4zM968.8 61.5c-1 4.4-1.8 8.8-2.5 13l-1.7 9.7c-5.2 1.2-9.3 1.9-12.3 2.2-2.9.3-5.8.5-8.5.5-4.5 0-8.5-.4-12-1.2s-6.4-2.2-8.7-4.2-3.9-4.4-4.8-7c-.8-2.6-1.3-5.5-1.3-8.4 0-.5 0-1.5.1-2.8.1-1.4.2-4.4.6-9l1.7-27.5H907c.3-3.7.5-8.5.7-14.5l.2-7.4h13.2c.3-2.4.7-7.8 1.2-16l13.6-2.8c2.5-.5 7.8-1.7 15.9-3.7-.4 6.9-.6 14.4-.8 22.4h18.1c-.4 11-.6 18.3-.6 21.8h-18.3l-1 19.9c-.1 3-.2 4.9-.2 5.7 0 2.5.3 4.7.8 6.4.6 1.7 1.5 2.9 2.9 3.7 1.4.7 3 1.1 4.6 1.1 1.3 0 2.6-.1 4-.3 1.6 0 4-.6 7.5-1.6zM978.8 84.9l1.4-17.1 3.1-59.4.9-31.9c7.4.1 12.9.2 16.6.2 4.8 0 10.2-.1 16-.2L1015 .9l-2.9 60-.6 24c-5.7-.1-10.8-.1-15.3-.1l-17.4.1zM1022.7 121.2c-1.6-12.7-2.8-20.5-3.3-23.6 3.3 1.6 6.3 2.7 8.9 3.3 2.6.6 4.8.9 6.6.9 2 0 3.8-.3 5.5-.8s3.1-1.2 4.1-1.9c1-.8 2.1-1.9 3.3-3.5 1.2-1.6 2.1-3 2.7-4.1.6-1.1 1.2-2.8 1.7-4.9l-14.9-45.2-12.8-37.6c7.9.1 13.4.2 16.6.2 3.7 0 8.8-.1 15.2-.2 1 4.1 2.9 11.1 5.6 21.1s4.7 17.8 5.9 23.5c.7 3.1 1.4 7.1 2 11.9l1.7-6.4c.5-1.7 1.1-3.6 1.8-5.8.7-2.2 1.6-4.8 2.6-7.8l5.2-14.5 8.6-22.2c6.6.1 11.6.2 15 .2 3 0 8.3-.1 15.9-.2l-15.3 34.6-27.8 64.5c-1.8 3.6-3.5 6.5-5.2 8.6-1.5 1.9-3.2 3.6-5 5-1.7 1.3-3.5 2.4-5.5 3.3-2.6 1.2-5.6 2.2-8.7 2.9-3.5.7-7 1.1-10.6 1.1-1.6 0-3.8-.1-6.5-.4-2.7-.2-4.9-.5-6.6-.7-1.7-.2-3.9-.7-6.7-1.3z"/></g><path d="M476.2 84.9h-93c-4.2 0-7.7-3.4-7.7-7.7v-93.1c0-4.2 3.4-7.7 7.7-7.7h93.1c4.2 0 7.7 3.4 7.7 7.7v93.1c-.1 4.3-3.5 7.7-7.8 7.7z" style="opacity:.2;enable-background:new"/><path class="st2" d="M395.2-5.1h14.5V9.4h-14.5zM413.4-5.1h14.5V9.4h-14.5zM431.5-5.1H446V9.4h-14.5zM449.7-5.1h14.5V9.4h-14.5zM395.2 13.9h14.5v14.5h-14.5zM413.4 13.9h14.5v14.5h-14.5zM431.5 13.9H446v14.5h-14.5zM449.7 13.9h14.5v14.5h-14.5zM395.2 32.9h14.5v14.5h-14.5zM395.2 51.9h14.5v14.5h-14.5zM413.4 51.9h14.5v14.5h-14.5zM431.5 51.9H446v14.5h-14.5zM449.7 51.9h14.5v14.5h-14.5z"/></svg>