<svg version="1.1" id="Calque_1" xmlns="http://www.w3.org/2000/svg" x="0" y="0" viewBox="0 0 798 454" style="enable-background:new 0 0 798 454" xml:space="preserve"><style>.st0{fill:#fff}</style><path class="st0" d="M169.4 193.3v99.9h25.5v-68.5c2.6-3.6 5.3-6.2 8.1-7.8 2.8-1.5 6-2.4 9.7-2.5 3.1 0 6 .5 8.9 1.5v-23.4c-1.2-.3-2.5-.4-3.8-.4-4.3 0-8.2 1.3-11.9 3.9-3.7 2.5-7.3 6.8-10.9 12.7v-15.4h-25.6zM149 199.4v-6.8c0-13.7-3.3-24-9.8-30.8s-17.3-10.2-32.3-10.2c-8.3 0-15.2 1.1-20.9 3.3-5.7 2.2-10.2 5.5-13.4 9.9-3.2 4.4-5.5 9.5-6.9 15.3-1.4 5.8-2.1 12.8-2.1 20.8v45.6c0 15.8 3.2 27.8 9.5 36.1s16.7 12.4 31 12.4c12.6 0 21.1-5.3 25.9-15.9l2 14.2h17.9v-71.1h-41.3v16.5H125v11.5c0 4.2-.3 7.9-.8 10.9-.6 3-1.5 5.7-2.7 8-1.2 2.3-3 4-5.2 5.2-2.2 1.1-5 1.7-8.3 1.7-6.3 0-10.6-2-12.9-5.9-2.3-3.9-3.4-10.1-3.4-18.5v-56.5c0-2.4 0-4.2.1-5.7 0-1.5.2-3.2.4-5.1.2-1.9.5-3.5.9-4.7.4-1.3.9-2.5 1.7-3.8.8-1.3 1.7-2.3 2.8-3 1.1-.7 2.5-1.3 4.1-1.8s3.4-.7 5.5-.7c2.8 0 5.1.3 7 1s3.4 1.5 4.5 2.6 1.9 2.6 2.5 4.6.9 4 1.1 6c.1 2 .2 4.5.2 7.6v7.3H149zM486.3 193.2v132.9H512v-40.3c6.7 6 13.5 9 20.2 9 4.5 0 8.5-1 11.9-2.9 3.4-1.9 6-4.6 8-8.1s3.4-7.4 4.3-11.6c.9-4.3 1.4-8.9 1.4-14v-32.7c0-2.8-.1-5.6-.5-8.3-.4-2.8-1.1-5.7-2.2-8.9-1-3.2-2.4-6-4.1-8.3-1.7-2.4-4-4.3-7-5.9-3-1.5-6.4-2.3-10.2-2.4-7.9-.1-15.2 3-21.9 9.2v-7.7h-25.6zm25.7 18.9c3.7-2.6 7.2-3.9 10.6-4 1.9-.1 3.6.3 4.9 1.2 1.3.9 2.3 2.1 3 3.8.7 1.6 1.1 3.4 1.4 5.2.3 1.8.4 3.9.4 6.2V259c0 2.8-.1 5.2-.3 7.2-.2 2-.6 3.9-1.2 5.8s-1.5 3.3-2.8 4.3c-1.3 1-2.9 1.5-4.8 1.5-3.8 0-7.6-1-11.2-3.1v-62.6zM233.3 193.3v79.8c0 6.1 1.5 11.2 4.3 15.4 2.8 4.1 7.3 6.2 13.5 6.2 8.8 0 17.5-3.6 26.1-10.9v9.4h25.5v-99.9h-25.5v79.9c-4.4 2.8-8 4.2-11 4.2-2.8.1-4.8-.7-5.8-2.2-1.1-1.5-1.6-3.8-1.6-6.9v-75h-25.5zM700.6 275.7c-3.5 0-5.9-.8-7.5-2.2-1.5-1.4-2.3-3.7-2.3-7v-57.7h16.5v-15.6h-16.5v-29.4h-25.7v29.4h-10.7v15.6h10.7v56.1c0 4.5.4 8.4 1.2 11.8.8 3.4 2.1 6.5 4 9.2 1.9 2.7 4.6 4.8 8 6.3 3.5 1.5 7.7 2.2 12.6 2.3 4.4.1 10.2-.3 17.5-1.2v-18.1c-2.8.4-5.4.6-7.8.5zM322.8 153.2v140h25.6v-7.3c6.7 5.9 13.4 8.9 20.2 8.9 4.6 0 8.6-1 12-2.9 3.4-1.9 6-4.6 8-8.1s3.4-7.4 4.3-11.6c.9-4.3 1.4-8.9 1.4-14v-32.7c0-2.8-.1-5.6-.5-8.3-.4-2.8-1.1-5.7-2.2-8.9-1-3.2-2.4-6-4.1-8.3-1.7-2.4-4-4.3-7-5.9-3-1.5-6.4-2.3-10.2-2.4-8-.1-15.2 3-21.9 9.1v-47.6h-25.6zm36.1 54.9c1.9-.1 3.5.3 4.8 1.2 1.3.9 2.3 2.1 3 3.8s1.2 3.4 1.4 5.2c.3 1.8.4 3.8.4 6.2V259c0 2.9-.1 5.3-.3 7.3-.1 1.9-.5 3.9-1.1 5.8-.5 1.9-1.5 3.3-2.7 4.3-1.2.9-2.8 1.4-4.7 1.4-4.1 0-7.8-1-11.5-3.1V212c3.7-2.5 7.2-3.8 10.7-3.9z"/><path class="st0" d="M665.9 326.2c0-10.6-8.6-19.3-19.2-19.3-.5 0-.9 0-1.4.1l-11.8-20.4.9-.9c5.8-6 8.6-14.7 8.6-26v-33c0-11.3-2.9-19.9-8.6-26-3.3-3.5-7.6-6-12.9-7.4v-48c6.9-2.9 11.7-9.7 11.7-17.6 0-10.6-8.6-19.2-19.2-19.2s-19.2 8.6-19.2 19.2c0 7.9 4.8 14.7 11.7 17.6v46.4c-6.7.2-12.3 1.4-16.9 3.7l-54.4-59.7c3.1-6.8 2.1-15-3.2-20.9-7.1-7.8-19.2-8.4-27.1-1.3-7.8 7.1-8.4 19.2-1.3 27.1 5.3 5.9 13.5 7.6 20.5 5.2l54.5 59.8c-3.3 5.5-5 12.6-5 21.2v33c0 11.3 2.9 19.9 8.6 26 5.7 6 14.4 9.1 26 9.1 4.4 0 8.4-.4 11.9-1.3l11.8 20.4c-2.8 3.3-4.4 7.6-4.4 12.2 0 10.6 8.6 19.2 19.2 19.2s19.2-8.6 19.2-19.2zm-48.3-64.9c0 2.6-.1 4.8-.3 6.5s-.6 3.4-1.1 5.1c-.5 1.8-1.5 3.1-2.8 4-1.3.8-3 1.3-5.1 1.3-1.7 0-3.1-.3-4.3-1-1.2-.6-2.1-1.4-2.7-2.4-.7-.9-1.2-2.2-1.5-3.8-.3-1.6-.5-3.1-.6-4.5-.1-1.4-.1-3.1-.1-5.2v-36.2c0-2.6.1-4.8.3-6.5.2-1.7.6-3.4 1.1-5.1.6-1.8 1.5-3.1 2.8-4 1.3-.9 3-1.3 5.1-1.3 1.7 0 3.1.3 4.3 1 1.2.6 2.1 1.4 2.7 2.4.7.9 1.2 2.2 1.5 3.8.3 1.6.5 3.1.6 4.5.1 1.4.1 3.1.1 5.2v36.2zM440.5 270.1c-3.7.2-6.8-1.8-9.2-6-2.5-4.2-4.4-10.4-5.7-18.5l-19.4 9.6c2.1 12.8 6.1 22.6 11.8 29.4 5.8 6.8 13.1 10.2 22.1 10.2 9.4 0 17.2-3.5 23.1-10.1 6.1-6.9 9.1-16.5 9.1-29 0-4.5-.4-8.7-1.3-12.6-.9-3.9-2.2-7.6-4-11-1.8-3.4-3.6-6.3-5.2-8.7-1.6-2.3-3.7-5-6.2-8l-14.8-18.3c-6.1-7.2-9.2-13.1-9.1-17.6 0-3.3.8-6.1 2.4-8.4 1.7-2.4 3.8-3.5 6.5-3.4 6.3.1 10.7 7.8 13 23.1l16.8-9.6c-1.5-11.8-5-21.1-10.3-28.1-5.3-7-12.2-10.5-20.7-10.5-8.8 0-16.1 3.5-21.8 10.5-5.7 7-8.6 16.4-8.8 28.2-.2 13.4 4.9 26.2 15.4 38.5l14.6 17c6.9 8.1 10.5 14.8 10.7 20.1.1 3.7-.7 6.8-2.4 9.3s-3.9 3.8-6.6 3.9z"/></svg>