<?xml version="1.0" encoding="utf-8"?>
<!-- Generator: Adobe Illustrator 23.0.1, SVG Export Plug-In . SVG Version: 6.00 Build 0)  -->
<svg version="1.1" id="Calque_1" xmlns="http://www.w3.org/2000/svg" xmlns:xlink="http://www.w3.org/1999/xlink" x="0px" y="0px"
	 viewBox="0 0 798 454" style="enable-background:new 0 0 798 454;" xml:space="preserve">
<style type="text/css">
	.st0{opacity:0.2;enable-background:new    ;}
	.st1{fill:none;}
</style>
<g>
	<path class="st0" d="M77.4,307.5c-7.4,0-13.7-1.2-18.9-3.7c-5.2-2.5-9.4-6.1-12.4-10.8s-5.3-10.2-6.6-16.4
		c-1.4-6.2-2.1-13.3-2.1-21.5V205c0-6.7,0.5-12.6,1.4-17.9c0.9-5.3,2.4-10.1,4.5-14.6c2.1-4.4,4.8-8.1,8.1-11
		c3.3-2.9,7.5-5.2,12.5-6.8c5-1.6,10.8-2.4,17.3-2.4c6.3,0,11.9,0.7,16.8,2.1c4.9,1.4,8.9,3.3,12.2,5.8s5.9,5.6,8,9.3
		s3.5,7.8,4.4,12.2c0.9,4.4,1.3,9.3,1.3,14.8v9.6H92.4v-12c0-2.3,0-4.2-0.1-5.6s-0.3-3.1-0.7-4.8c-0.4-1.8-0.9-3.1-1.7-4.1
		c-0.7-1-1.8-1.8-3.2-2.5c-1.4-0.7-3.1-1-5.1-1c-2.1,0-3.8,0.4-5.2,1.2c-1.4,0.8-2.5,1.7-3.3,2.9c-0.8,1.1-1.4,2.6-1.8,4.5
		c-0.4,1.9-0.7,3.6-0.8,5.1c-0.1,1.5-0.1,3.4-0.1,5.7v69.1c0,6,0.9,10.8,2.6,14.2c1.7,3.5,4.9,5.2,9.4,5.2c8.4,0,12.7-6.7,12.7-20.1
		V247H81.8v-19.9h42.3v78.4h-21.4l-1.8-12.6C96.6,302.5,88.7,307.5,77.4,307.5z"/>
	<line class="st1" x1="160.5" y1="307.1" x2="102.7" y2="307.1"/>
	<path class="st0" d="M281.8,281.4c-0.6,0.1-1.2,0.2-1.8,0.3c-0.6,0.1-1.4,0.2-2.4,0.2c-1,0.1-1.8,0.1-2.6,0
		c-6.3-0.2-9.4-3.1-9.4-8.7v-55.7h14.9v-19.8h-14.9V165H236v32.7h-9.9h-11.5h-3h-26.5v79c-7.5,4.4-11.9,3.8-14.3,1.9v-80.9h-29.4
		v84.5c0,7.3,1.6,13.3,4.9,18c3.3,4.7,8,7,14.2,7c3,0,5.9-0.5,8.8-1.5l0,0c0,0,6.5,0.2,15.8-5.5v5.2h29.4v-77.6h21.4v40
		c0,3.2,0.1,6,0.3,8.5s0.5,5.1,1,7.9c0.5,2.7,1.1,5.1,1.9,7.2s1.9,4.1,3.2,6s2.9,3.5,4.7,4.8c1.8,1.3,4,2.3,6.6,3.1
		c2.6,0.8,5.5,1.3,8.7,1.4c1,0.1,2,0.1,3,0.1c5.3,0,11.1-0.5,17.4-1.6v-24C282.7,281.2,282.4,281.3,281.8,281.4z"/>
	<polygon class="st0" points="293.1,196.2 316.6,196.2 337.1,273.2 356.6,196.2 380.6,196.2 399.6,273.2 421.1,196.2 445.1,196.2 
		413.6,307.1 388.6,307.1 369.1,233.3 349.6,307.1 324.6,307.1 	"/>
	<path class="st0" d="M503.6,194.4c-32.3,0-58.5,25.9-58.5,57.9s26.2,57.9,58.5,57.9s58.5-25.9,58.5-57.9S535.9,194.4,503.6,194.4z
		 M503.6,283.4c-17.4,0-31.5-13.9-31.5-31.1c0-17.2,14.1-31.1,31.5-31.1s31.5,13.9,31.5,31.1C535.1,269.5,521,283.4,503.6,283.4z"/>
	<path class="st0" d="M578.3,196.2H603v16.7c0,0,9.7-17,39.7-16.7v25c0,0-33.3-5-39.3,26.7v59.3h-25v-111
		C578.4,196.2,578.3,196.2,578.3,196.2z"/>
	<path class="st0" d="M659.6,143.8h25v85.3c0,0,30.3,6.3,37.7-33h24.3c0,0,1,32.7-29.3,51.3l43.3,59.7h-30l-33.3-46
		c0,0-3.3-6.3-12.7-6v52h-25V143.8z"/>
</g>
</svg>
