<svg version="1.1" id="Calque_1" xmlns="http://www.w3.org/2000/svg" x="0" y="0" viewBox="0 0 798 454" style="enable-background:new 0 0 798 454" xml:space="preserve"><style>.st0{opacity:.2;enable-background:new}</style><path class="st0" d="M77.4 307.5c-7.4 0-13.7-1.2-18.9-3.7-5.2-2.5-9.4-6.1-12.4-10.8s-5.3-10.2-6.6-16.4c-1.4-6.2-2.1-13.3-2.1-21.5V205c0-6.7.5-12.6 1.4-17.9.9-5.3 2.4-10.1 4.5-14.6 2.1-4.4 4.8-8.1 8.1-11 3.3-2.9 7.5-5.2 12.5-6.8 5-1.6 10.8-2.4 17.3-2.4 6.3 0 11.9.7 16.8 2.1 4.9 1.4 8.9 3.3 12.2 5.8s5.9 5.6 8 9.3 3.5 7.8 4.4 12.2c.9 4.4 1.3 9.3 1.3 14.8v9.6H92.4v-12c0-2.3 0-4.2-.1-5.6s-.3-3.1-.7-4.8c-.4-1.8-.9-3.1-1.7-4.1-.7-1-1.8-1.8-3.2-2.5-1.4-.7-3.1-1-5.1-1-2.1 0-3.8.4-5.2 1.2-1.4.8-2.5 1.7-3.3 2.9-.8 1.1-1.4 2.6-1.8 4.5-.4 1.9-.7 3.6-.8 5.1-.1 1.5-.1 3.4-.1 5.7v69.1c0 6 .9 10.8 2.6 14.2 1.7 3.5 4.9 5.2 9.4 5.2 8.4 0 12.7-6.7 12.7-20.1V247H81.8v-19.9h42.3v78.4h-21.4l-1.8-12.6c-4.3 9.6-12.2 14.6-23.5 14.6z"/><path style="fill:none" d="M160.5 307.1h-57.8"/><path class="st0" d="m281.8 281.4-1.8.3c-.6.1-1.4.2-2.4.2-1 .1-1.8.1-2.6 0-6.3-.2-9.4-3.1-9.4-8.7v-55.7h14.9v-19.8h-14.9V165H236v32.7h-50.9v79c-7.5 4.4-11.9 3.8-14.3 1.9v-80.9h-29.4v84.5c0 7.3 1.6 13.3 4.9 18 3.3 4.7 8 7 14.2 7 3 0 5.9-.5 8.8-1.5 0 0 6.5.2 15.8-5.5v5.2h29.4v-77.6h21.4v40c0 3.2.1 6 .3 8.5s.5 5.1 1 7.9c.5 2.7 1.1 5.1 1.9 7.2s1.9 4.1 3.2 6 2.9 3.5 4.7 4.8c1.8 1.3 4 2.3 6.6 3.1 2.6.8 5.5 1.3 8.7 1.4 1 .1 2 .1 3 .1 5.3 0 11.1-.5 17.4-1.6v-24s-.3.1-.9.2zM293.1 196.2h23.5l20.5 77 19.5-77h24l19 77 21.5-77h24l-31.5 110.9h-25l-19.5-73.8-19.5 73.8h-25zM503.6 194.4c-32.3 0-58.5 25.9-58.5 57.9s26.2 57.9 58.5 57.9 58.5-25.9 58.5-57.9-26.2-57.9-58.5-57.9zm0 89c-17.4 0-31.5-13.9-31.5-31.1 0-17.2 14.1-31.1 31.5-31.1s31.5 13.9 31.5 31.1c0 17.2-14.1 31.1-31.5 31.1zM578.3 196.2H603v16.7s9.7-17 39.7-16.7v25s-33.3-5-39.3 26.7v59.3h-25v-111h-.1zM659.6 143.8h25v85.3s30.3 6.3 37.7-33h24.3s1 32.7-29.3 51.3l43.3 59.7h-30l-33.3-46s-3.3-6.3-12.7-6v52h-25V143.8z"/></svg>