<svg version="1.1" id="Calque_1" xmlns="http://www.w3.org/2000/svg" x="0" y="0" viewBox="0 0 798 454" style="enable-background:new 0 0 798 454" xml:space="preserve"><style>.st0{fill:#fff}</style><path class="st0" d="M141.4 197.7v84.5c0 7.3 1.6 13.3 4.9 18s8 7 14.2 7c3 0 5.9-.5 8.8-1.5 0 0 6.5.2 15.8-5.5v5.2h29.4v-77.6h21.4v40c0 3.2.1 6 .3 8.5.2 2.5.5 5.1 1 7.9.5 2.7 1.1 5.1 1.9 7.2.8 2.1 1.9 4.1 3.2 6 1.3 1.9 2.9 3.5 4.7 4.8s4 2.3 6.6 3.1 5.5 1.3 8.7 1.4c1 .1 2 .1 3 .1 5.3 0 11.1-.5 17.4-1.6v-24s-.3.1-.9.2l-1.8.3c-.6.1-1.4.2-2.4.2-1 .1-1.8.1-2.6 0-6.3-.2-9.4-3.1-9.4-8.7v-55.7h14.9v-19.8h-14.9V165H236v32.7h-50.9v79c-7.5 4.4-11.9 3.8-14.3 1.9v-80.9h-29.4zM123.9 206.1v-9.6c0-5.5-.4-10.4-1.3-14.8s-2.3-8.5-4.4-12.2c-2.1-3.7-4.7-6.8-8-9.3s-7.3-4.4-12.2-5.8c-4.9-1.4-10.5-2.1-16.8-2.1-6.5 0-12.3.8-17.3 2.4-5 1.6-9.2 3.9-12.5 6.8-3.3 2.9-6 6.6-8.1 11-2.1 4.5-3.6 9.3-4.5 14.6-.9 5.3-1.4 11.2-1.4 17.9v50.1c0 8.2.7 15.3 2.1 21.5 1.3 6.2 3.6 11.7 6.6 16.4 3 4.7 7.2 8.3 12.4 10.8s11.5 3.7 18.9 3.7c11.3 0 19.2-5 23.5-14.6l1.8 12.6h21.4v-78.4H81.8V247h13.3v16.9c0 13.4-4.3 20.1-12.7 20.1-4.5 0-7.7-1.7-9.4-5.2-1.7-3.4-2.6-8.2-2.6-14.2v-69.1c0-2.3 0-4.2.1-5.7s.4-3.2.8-5.1c.4-1.9 1-3.4 1.8-4.5.8-1.2 1.9-2.1 3.3-2.9 1.4-.8 3.1-1.2 5.2-1.2 2 0 3.7.3 5.1 1 1.4.7 2.5 1.5 3.2 2.5.8 1 1.3 2.3 1.7 4.1.4 1.7.6 3.4.7 4.8.1 1.4.1 3.3.1 5.6v12h31.5zM399.6 273.2l-19-77h-24l-19.5 77-20.5-77h-23.5l31.5 110.9h25l19.5-73.8 19.5 73.8h25l31.5-110.9h-24zM746.6 196.1h-24.3c-7.4 39.3-37.7 33-37.7 33v-85.3h-25v163.3h25v-52c9.4-.3 12.7 6 12.7 6l33.3 46h30l-43.3-59.7c30.3-18.6 29.3-51.3 29.3-51.3zM603.4 307.2v-59.3c6-31.7 39.3-26.7 39.3-26.7v-25c-30-.3-39.7 16.7-39.7 16.7v-16.7h-24.6v111h25zM578.4 196.2zM503.6 310.2c32.3 0 58.5-25.9 58.5-57.9s-26.2-57.9-58.5-57.9-58.5 25.9-58.5 57.9 26.2 57.9 58.5 57.9zm0-89c17.4 0 31.5 13.9 31.5 31.1s-14.1 31.1-31.5 31.1-31.5-13.9-31.5-31.1 14.1-31.1 31.5-31.1z"/></svg>