<?xml version="1.0" encoding="utf-8"?>
<!-- Generator: Adobe Illustrator 23.0.1, SVG Export Plug-In . SVG Version: 6.00 Build 0)  -->
<svg version="1.1" id="Calque_1" xmlns="http://www.w3.org/2000/svg" xmlns:xlink="http://www.w3.org/1999/xlink" x="0px" y="0px"
	 viewBox="0 0 798 454" style="enable-background:new 0 0 798 454;" xml:space="preserve">
<style type="text/css">
	.st0{fill:#FFFFFF;}
</style>
<g>
	<path class="st0" d="M608.1,138.7h11.3c0.5,0,0.9-0.4,0.9-0.9v-12.2c0-0.4-0.3-0.8-0.8-0.8h-25.2c-0.5,0-0.8,0.5-0.8,1l-0.1,50.7
		c0,0.5,0.4,0.9,0.8,0.9h12.2c0.5,0,0.9-0.4,0.9-1v-17c0-0.4,0.4-0.9,0.7-0.9h5.3c0.5,0,0.8-0.4,0.8-0.8V145c0-0.4-0.5-0.7-0.8-0.7
		H608c-0.5,0-0.7-0.2-0.7-0.6v-4.2C607.3,139,607.7,138.7,608.1,138.7z"/>
	<path class="st0" d="M673.5,124.8c-0.3,0-0.6,0.4-0.6,0.7v50.8c0,0.5,0.4,1,0.9,1h11.7c0.4,0,0.8-0.5,0.8-0.9v-50.9
		c0-0.4-0.3-0.7-0.8-0.7H673.5z"/>
	<path class="st0" d="M658.6,124.8c-0.5,0-0.8,0.4-0.8,0.9v15.6c0,0.6-0.2,0.9-0.4,0.9c-0.2,0-0.4-0.2-0.5-0.8l-4.2-15.8
		c-0.2-0.5-0.5-0.8-1-0.8h-11.8c-0.4,0-0.8,0.4-0.8,0.9l-0.1,50.6c0,0.6,0.3,1,0.7,1h10.6c0.5,0,0.9-0.4,0.9-0.9V164
		c0-0.7,0.2-1,0.4-1s0.5,0.3,0.6,1l3.1,12.6c0.1,0.4,0.5,0.7,0.8,0.7h13.1c0.5,0,0.8-0.4,0.8-0.9v-50.6c0-0.5-0.3-1-0.9-1H658.6z"/>
	<path class="st0" d="M736.7,138.9h11.7c0.5,0,0.8-0.3,0.8-0.7v-12.6c0-0.4-0.3-0.8-0.7-0.8h-24.9c-0.5,0-0.9,0.5-0.9,0.9l-0.2,0
		v50.7c0,0.5,0.4,0.9,0.8,0.9h25.1c0.4,0,0.8-0.4,0.8-0.8v-13c0-0.4-0.3-0.7-0.8-0.7h-12.1c-0.2,0-0.4-0.2-0.4-0.5v-4.1
		c0-0.4,0.2-0.6,0.5-0.6h5.7c0.3,0,0.6-0.3,0.6-0.6v-12.7c0-0.3-0.2-0.5-0.5-0.5h-5.5c-0.2,0-0.5-0.2-0.5-0.5v-3.9
		C736.2,139.1,736.4,138.9,736.7,138.9z"/>
	<path class="st0" d="M698.5,177.3h11.9c0.6,0,1-0.4,1-0.9v-36.5c0-0.6,0.3-1,0.8-1h7c0.6,0,1-0.4,1-1v-12.3c0-0.5-0.4-0.8-0.9-0.8
		h-30c-0.4,0-0.6,0.3-0.6,0.7V138c0,0.4,0.5,1,0.9,1h7c0.5,0,0.9,0.3,0.9,0.8v36.5C697.5,176.9,698,177.3,698.5,177.3z"/>
	<path class="st0" d="M623.5,124.8c-0.3,0-0.6,0.4-0.6,0.7v50.8c0,0.5,0.4,1,0.9,1h11.7c0.5,0,0.8-0.5,0.8-0.9v-50.9
		c0-0.4-0.3-0.7-0.8-0.7H623.5z"/>
	<path class="st0" d="M590.6,176.4v-50.6c0-0.5-0.3-1-0.9-1h-10.5c-0.5,0-0.8,0.4-0.8,0.9v15.6c0,0.6-0.2,0.9-0.4,0.9
		s-0.4-0.2-0.5-0.8l-4.2-15.8c-0.2-0.5-0.5-0.8-1-0.8h-11.8c-0.4,0-0.8,0.4-0.8,0.9l-0.1,50.6c0,0.6,0.3,1,0.7,1h10.6
		c0.5,0,0.9-0.4,0.9-0.9V164c0-0.7,0.2-1,0.4-1s0.5,0.3,0.6,1l3.1,12.6c0.1,0.4,0.5,0.7,0.8,0.7h13.1
		C590.3,177.3,590.6,176.9,590.6,176.4z"/>
	<path class="st0" d="M556.1,177.3c0.5,0,0.8-0.5,0.8-0.9v-50.9c0-0.4-0.3-0.7-0.8-0.7h-12c-0.3,0-0.6,0.4-0.6,0.7v50.8
		c0,0.5,0.4,1,0.9,1H556.1z"/>
	<path class="st0" d="M577.4,206.8c0,0-42.7-3.2-55.7-39.2c-13-36,4-48.7,2-50S489.4,89.8,433,92.5c-56.2,2.8-111.6,58.5-112.6,64.3
		l49.5,62c0,0,43.5-53.5,74-51s38.5,16.5,38.5,16.5s16.5,16.2,17.5,41.4c1,25.2-21.9,47.7-39,55.1c0,0,36.9,7.7,70.5-6.5
		C565,260.1,578.4,222.3,577.4,206.8z"/>
	<path class="st0" d="M351.9,321.3c31,30,63.5,34.5,63.5,34.5s35.5,9.5,76.5-5.5s55.5-39,55.5-39s29-34,30-74.5
		c0,0-9.3,28.8-31.5,40.3c-22.2,11.5-36.8,21.3-90,14.5c0,0-19.8-4.3-33.8-12.8s-33.3-27.3-33.3-27.3s-19.3-18.8-37-40.8
		s-45.3-56.8-45.3-56.8S254.3,99.6,200,93.4s-90,18.8-90,18.8s-51.6,32.4-58.1,85.6c0,0,5.5-37,53.5-56s95,17.5,95,17.5l30.8,29
		C231.2,188.3,320.9,291.3,351.9,321.3z"/>
	<path class="st0" d="M149.8,179.8c15.5-16,43-12,43-12c-16-9.8-20.8-11-20.8-11c-33.3-12.3-63.3-4-63.3-4s-33.9,5.5-50.6,46.2
		c0,0-13.8,34.7-7.7,53.8c9.2,32,16.7,41.7,20,47.7c3.3,6,23.8,26.1,23.8,26.1s51.3,43.8,103.3,31.5s67.8-30.3,67.8-30.3
		c9-4.8,41.5-39.5,41.5-39.5l-49.2-56c0,0-37,43.3-60.8,48.8s-38-5-38-5s-22.3-8.3-29-34.8s3.5-41.8,3.5-41.8
		S134.3,195.8,149.8,179.8z"/>
</g>
</svg>
