<svg version="1.1" id="Calque_1" xmlns="http://www.w3.org/2000/svg" x="0" y="0" viewBox="0 0 798 454" style="enable-background:new 0 0 798 454" xml:space="preserve"><style>.st0{fill:#fff}</style><path class="st0" d="M608.1 138.7h11.3c.5 0 .9-.4.9-.9v-12.2c0-.4-.3-.8-.8-.8h-25.2c-.5 0-.8.5-.8 1l-.1 50.7c0 .5.4.9.8.9h12.2c.5 0 .9-.4.9-1v-17c0-.4.4-.9.7-.9h5.3c.5 0 .8-.4.8-.8V145c0-.4-.5-.7-.8-.7H608c-.5 0-.7-.2-.7-.6v-4.2c0-.5.4-.8.8-.8zM673.5 124.8c-.3 0-.6.4-.6.7v50.8c0 .5.4 1 .9 1h11.7c.4 0 .8-.5.8-.9v-50.9c0-.4-.3-.7-.8-.7h-12zM658.6 124.8c-.5 0-.8.4-.8.9v15.6c0 .6-.2.9-.4.9s-.4-.2-.5-.8l-4.2-15.8c-.2-.5-.5-.8-1-.8h-11.8c-.4 0-.8.4-.8.9l-.1 50.6c0 .6.3 1 .7 1h10.6c.5 0 .9-.4.9-.9V164c0-.7.2-1 .4-1s.5.3.6 1l3.1 12.6c.1.4.5.7.8.7h13.1c.5 0 .8-.4.8-.9v-50.6c0-.5-.3-1-.9-1h-10.5zM736.7 138.9h11.7c.5 0 .8-.3.8-.7v-12.6c0-.4-.3-.8-.7-.8h-24.9c-.5 0-.9.5-.9.9h-.2v50.7c0 .5.4.9.8.9h25.1c.4 0 .8-.4.8-.8v-13c0-.4-.3-.7-.8-.7h-12.1c-.2 0-.4-.2-.4-.5v-4.1c0-.4.2-.6.5-.6h5.7c.3 0 .6-.3.6-.6v-12.7c0-.3-.2-.5-.5-.5h-5.5c-.2 0-.5-.2-.5-.5v-3.9c0-.3.2-.5.5-.5zM698.5 177.3h11.9c.6 0 1-.4 1-.9v-36.5c0-.6.3-1 .8-1h7c.6 0 1-.4 1-1v-12.3c0-.5-.4-.8-.9-.8h-30c-.4 0-.6.3-.6.7V138c0 .4.5 1 .9 1h7c.5 0 .9.3.9.8v36.5c0 .6.5 1 1 1zM623.5 124.8c-.3 0-.6.4-.6.7v50.8c0 .5.4 1 .9 1h11.7c.5 0 .8-.5.8-.9v-50.9c0-.4-.3-.7-.8-.7h-12zM590.6 176.4v-50.6c0-.5-.3-1-.9-1h-10.5c-.5 0-.8.4-.8.9v15.6c0 .6-.2.9-.4.9s-.4-.2-.5-.8l-4.2-15.8c-.2-.5-.5-.8-1-.8h-11.8c-.4 0-.8.4-.8.9l-.1 50.6c0 .6.3 1 .7 1h10.6c.5 0 .9-.4.9-.9V164c0-.7.2-1 .4-1s.5.3.6 1l3.1 12.6c.1.4.5.7.8.7h13.1c.5 0 .8-.4.8-.9zM556.1 177.3c.5 0 .8-.5.8-.9v-50.9c0-.4-.3-.7-.8-.7h-12c-.3 0-.6.4-.6.7v50.8c0 .5.4 1 .9 1h11.7z"/><path class="st0" d="M577.4 206.8s-42.7-3.2-55.7-39.2 4-48.7 2-50-34.3-27.8-90.7-25.1c-56.2 2.8-111.6 58.5-112.6 64.3l49.5 62s43.5-53.5 74-51 38.5 16.5 38.5 16.5 16.5 16.2 17.5 41.4-21.9 47.7-39 55.1c0 0 36.9 7.7 70.5-6.5s47-52 46-67.5z"/><path class="st0" d="M351.9 321.3c31 30 63.5 34.5 63.5 34.5s35.5 9.5 76.5-5.5 55.5-39 55.5-39 29-34 30-74.5c0 0-9.3 28.8-31.5 40.3-22.2 11.5-36.8 21.3-90 14.5 0 0-19.8-4.3-33.8-12.8s-33.3-27.3-33.3-27.3-19.3-18.8-37-40.8-45.3-56.8-45.3-56.8S254.3 99.6 200 93.4s-90 18.8-90 18.8-51.6 32.4-58.1 85.6c0 0 5.5-37 53.5-56s95 17.5 95 17.5l30.8 29s89.7 103 120.7 133z"/><path class="st0" d="M149.8 179.8c15.5-16 43-12 43-12-16-9.8-20.8-11-20.8-11-33.3-12.3-63.3-4-63.3-4s-33.9 5.5-50.6 46.2c0 0-13.8 34.7-7.7 53.8 9.2 32 16.7 41.7 20 47.7 3.3 6 23.8 26.1 23.8 26.1s51.3 43.8 103.3 31.5 67.8-30.3 67.8-30.3c9-4.8 41.5-39.5 41.5-39.5l-49.2-56s-37 43.3-60.8 48.8-38-5-38-5-22.3-8.3-29-34.8 3.5-41.8 3.5-41.8 1-3.7 16.5-19.7z"/></svg>