<?xml version="1.0" encoding="utf-8"?>
<!-- Generator: Adobe Illustrator 19.0.0, SVG Export Plug-In . SVG Version: 6.00 Build 0)  -->
<svg version="1.1" id="Calque_1" xmlns="http://www.w3.org/2000/svg" xmlns:xlink="http://www.w3.org/1999/xlink" x="0px" y="0px"
	 viewBox="274 -102 798 454" style="enable-background:new 274 -102 798 454;" xml:space="preserve">
<style type="text/css">
	.st0{fill:#023966;}
</style>
<g>
	<path class="st0" d="M420.9,55.6c0-13.5-5.2-24.7-15.5-33.7S382.3,8.4,366.9,8.4c-20.6,0-38.6,7.6-53.9,23
		c-15.3,15.4-23,33.3-23,53.8c0,13.8,4.3,25.7,12.6,35.6c8.4,9.9,18.4,14.9,30.1,14.9c6,0,11.1-1.7,15.2-5.1c4.1-3.4,6.1-7.8,6.1-13
		c0-6.3-3.6-10.7-10.7-13.2c-11.7-4.2-17.6-11.7-17.6-22.6c0-9.9,3.9-18.9,11.5-26.9s16.2-12,25.8-12c5.4,0,10,1.7,14,5
		c4,3.4,6,7.3,6,11.9c0,5.3-2.8,14.7-8.3,28.4l-36.5,89.9l-1.7,4.1c-1.6,4-2.4,7.6-2.4,10.7c0,3.9,1.5,7.2,4.6,10
		c3.1,2.8,6.8,4.2,11.1,4.2c10.4,0,18.4-7,24-21.1l29-71.5l37.3,100.6c4.1,10.8,8.7,18,13.8,21.4c5,3.4,13.7,5.1,26.1,5.1h46.7
		c8.3,0,14.8-1.8,19.5-5.4c4.7-3.6,7-8.6,7-15c0-9.3-6.6-13.9-19.8-13.9h-45.5c-8.7,0-14.3-3.5-16.9-10.4l-29.7-80.7l67.3-70.3
		C516.3,38,520,31.2,520,25.7c0-4.5-1.5-8.2-4.5-11.2c-3-2.9-6.7-4.4-11.2-4.4c-6.6,0-13.8,4.2-21.8,12.5l-73.8,77.2l4.9-11.9
		C418.5,75.9,420.9,65.2,420.9,55.6z"/>
	<path class="st0" d="M666.2,203.3c9.4,0,16.7-0.7,21.9-2.2c5.2-1.4,10.2-4.1,15.1-7.9c7.3-5.9,13.2-13.8,17.8-23.7
		c4.6-9.9,6.9-19.9,6.9-29.9c0-13.3-4.3-24.3-13.1-32.9c-8.7-8.6-19.9-12.9-33.5-12.9c-17.5,0-32.6,6.5-45.5,19.6
		c-12.9,13-19.3,28.4-19.3,46.2c0,16.8,6.2,29.6,18.8,38.2C640.6,201.5,650.9,203.3,666.2,203.3z M659,134
		c5.7-6.9,12.1-10.3,19-10.3c5,0,9,1.6,12.1,5c3.1,3.3,4.6,7.6,4.6,12.9c0,9.2-3.2,17.5-9.6,24.7c-3.8,4.4-9.3,6.6-16.4,6.6
		c-12.2,0-18.3-5.4-18.3-16.3C650.4,148.4,653.3,140.8,659,134z"/>
	<path class="st0" d="M584,127.9l1.6-1.6c15.5,0,23.3-5.9,23.3-17.8c0-8.6-6.1-12.9-18.4-12.9h-32.9c-4.4,0-7.2-0.2-8.3-0.8
		c-1.1-0.5-1.9-2-2.5-4.2l-1.1-4.4c-1.6-6.5-5.9-9.8-12.8-9.8c-7,0-12.5,4.7-16.3,14.2l-15.9,39.2c-2.1,5.2-3.1,8.8-3.1,11
		c0,3.7,1.4,6.9,4.2,9.4s6.3,3.8,10.5,3.8c7,0,12.6-5.2,16.9-15.7l4.8-11.8h14.6c-8.1,9-13.7,16.6-16.9,22.8
		c-3.2,6.2-4.8,12.5-4.8,19.1c0,10.4,2.9,18.7,8.9,25.2s13.6,9.7,23,9.7h27.5c7.5,0,13.3-1.6,17.5-4.8c4.2-3.2,6.3-7.7,6.3-13.5
		c0-8.3-5.9-12.4-17.8-12.4h-17.7c-8.6,0-12.9-3.9-12.9-11.7C561.8,153.1,569.1,142.1,584,127.9z"/>
	<path class="st0" d="M922.8,120.6c0-7.6-3.1-14-9.1-19.2c-6.1-5.2-13.6-7.8-22.6-7.8c-13.1,0-24.9,5.4-35.4,16.4
		c-6.2-10.9-15.6-16.4-28.2-16.4c-5.8,0-10.7,0.9-14.7,2.7c-4,1.8-9.1,5.4-15.5,10.8c-2-7.7-7-11.5-15.2-11.5
		c-7.9,0-13.8,4.9-17.7,14.5l-28,68.9l-1.5,3.8c-1.4,3.6-2.1,6.8-2.1,9.6c0,3.6,1.3,6.6,4.1,9.1s6.1,3.7,9.9,3.7
		c9.7,0,17.1-6.4,22.3-19l16.5-40.3c5.9-14.6,13.9-21.9,24-21.9c2.5,0,4.7,0.8,6.6,2.3s2.8,3.3,2.8,5.4c0,2-0.7,4.7-2.1,8.2
		l-15.9,39.2l-1.5,3.8c-1.4,3.7-2.1,6.9-2.1,9.6c0,3.5,1.4,6.5,4.1,9c2.7,2.5,6,3.8,9.8,3.8c9.9,0,17.3-6.2,22.5-18.8l15.7-38.8
		c2.8-7.1,6.5-12.8,11.2-17.1c4.7-4.3,9.4-6.5,14.2-6.5c6.2,0,9.3,3,9.3,9.1c0,1.6-0.4,3.3-1.1,5.2l-13.3,32.2
		c-2.5,6.3-3.8,11.2-3.8,14.9c0,5.3,2,9.6,5.8,12.9c3.8,3.3,8.8,4.9,15,4.9h28.5c7.4,0,13.2-1.6,17.4-4.8c4.2-3.2,6.3-7.7,6.3-13.4
		c0-8.3-5.9-12.5-17.7-12.5h-16.7l15.1-37.2C921.8,130.3,922.8,125.4,922.8,120.6z"/>
	<path class="st0" d="M1009.3,93.8c-17.5,0-32.6,6.5-45.5,19.6c-12.9,13-19.3,28.4-19.3,46.2c0,16.8,6.2,29.6,18.8,38.2
		c5.3,3.7,15.6,5.5,30.9,5.5c9.4,0,16.7-0.7,21.9-2.2c5.2-1.4,10.2-4.1,15.1-7.9c7.3-5.9,13.2-13.8,17.8-23.7
		c4.6-9.9,6.9-19.9,6.9-29.9c0-13.3-4.3-24.3-13.1-32.9C1034.2,98.1,1022.9,93.8,1009.3,93.8z M1013.2,166.3
		c-3.8,4.4-9.3,6.6-16.4,6.6c-12.2,0-18.3-5.4-18.3-16.3c0-8.2,2.9-15.8,8.6-22.6c5.7-6.9,12.1-10.3,19-10.3c4.9,0,9,1.6,12.1,5
		c3.1,3.3,4.6,7.6,4.6,12.9C1022.8,150.8,1019.6,159.1,1013.2,166.3z"/>
</g>
</svg>
