<?xml version="1.0" encoding="utf-8"?>
<!-- Generator: Adobe Illustrator 19.0.0, SVG Export Plug-In . SVG Version: 6.00 Build 0)  -->
<svg version="1.1" id="Calque_1" xmlns="http://www.w3.org/2000/svg" xmlns:xlink="http://www.w3.org/1999/xlink" x="0px" y="0px"
	 viewBox="274 -102 798 454" style="enable-background:new 274 -102 798 454;" xml:space="preserve">
<style type="text/css">
	.st0{fill:#023966;}
</style>
<g>
	<polygon class="st0" points="807.2,183.4 807.2,109.6 825,109.6 825,91.9 769.2,91.9 769.2,109.8 787.4,109.8 787.4,183.4 	"/>
	<polygon class="st0" points="726.8,100.7 726.8,90.1 693.6,90.1 693.6,183.4 727.4,183.4 727.4,173.1 706.1,173.1 706.1,140.9 
		725.3,140.9 725.3,130.3 706.1,130.3 706.1,100.7 	"/>
	<path class="st0" d="M827.5,183.4h19.3l3.3-14.3h24.1l3.1,14.3h19.3l-22.9-91.5h-20.1L827.5,183.4z M863.1,114.3h0.3l8.1,40h-17.7
		L863.1,114.3z"/>
	<polygon class="st0" points="645,90.1 632.8,90.1 651.7,183.4 661.7,183.4 681.3,90.1 669.3,90.1 656.7,160.6 	"/>
	<polygon class="st0" points="908.2,91.9 908.2,183.4 951,183.4 951,165.4 927.8,165.4 927.8,91.9 	"/>
	<polygon class="st0" points="963.2,91.9 963.2,183.4 983.2,183.4 983.2,137.2 983.5,137.2 1001.8,183.4 1022.7,183.4 1001.9,135.4 
		1021.3,91.9 1001,91.9 983.5,133.7 983.2,133.7 983.2,91.9 	"/>
	<rect x="606.3" y="90.1" class="st0" width="12.6" height="93.3"/>
	<path class="st0" d="M376.9,211.1c12.8,6.3,27.2,9.9,42.4,9.9c53,0,96-43,96-96s-42.9-96-96-96c-53,0-96,43-96,96
		c0,23,8.1,44.1,21.6,60.6l-7.6,35.4L376.9,211.1z M392.1,98.2l4.2,4.2c-6,6-9.3,14.1-9.3,22.7c0,17.8,14.5,32.3,32.3,32.3
		c17.8,0,32.2-14.5,32.2-32.3c0-17.8-14.4-32.3-32.2-32.3c-3.7,0-7.3,0.6-10.8,1.8l-2-5.7c4.1-1.4,8.4-2.2,12.8-2.2
		c21.1,0,38.2,17.2,38.2,38.3c0,21.1-17.1,38.3-38.2,38.3c-21.1,0-38.3-17.2-38.3-38.3C381,114.9,384.9,105.3,392.1,98.2z
		 M431.9,135c1.2,1.1,1.3,3,0.1,4.2c-0.6,0.6-1.4,0.9-2.2,0.9c-0.7,0-1.5-0.3-2.1-0.8l-11.4-10.8v-22.4c0-1.7,1.3-3,3-3s3,1.3,3,3
		V126L431.9,135z"/>
	<polygon class="st0" points="555.7,90.1 555.7,183.4 589.5,183.4 589.5,172.9 568.3,172.9 568.3,90.1 	"/>
</g>
</svg>
