<svg version="1.1" id="Calque_1" xmlns="http://www.w3.org/2000/svg" x="0" y="0" viewBox="274 -102 798 454" style="enable-background:new 274 -102 798 454" xml:space="preserve"><style>.st0{fill:#023966}</style><path class="st0" d="M807.2 183.4v-73.8H825V91.9h-55.8v17.9h18.2v73.6zM726.8 100.7V90.1h-33.2v93.3h33.8v-10.3h-21.3v-32.2h19.2v-10.6h-19.2v-29.6zM827.5 183.4h19.3l3.3-14.3h24.1l3.1 14.3h19.3l-22.9-91.5h-20.1l-26.1 91.5zm35.6-69.1h.3l8.1 40h-17.7l9.3-40zM645 90.1h-12.2l18.9 93.3h10l19.6-93.3h-12l-12.6 70.5zM908.2 91.9v91.5H951v-18h-23.2V91.9zM963.2 91.9v91.5h20v-46.2h.3l18.3 46.2h20.9l-20.8-48 19.4-43.5H1001l-17.5 41.8h-.3V91.9zM606.3 90.1h12.6v93.3h-12.6zM376.9 211.1c12.8 6.3 27.2 9.9 42.4 9.9 53 0 96-43 96-96s-42.9-96-96-96c-53 0-96 43-96 96 0 23 8.1 44.1 21.6 60.6l-7.6 35.4 39.6-9.9zm15.2-112.9 4.2 4.2c-6 6-9.3 14.1-9.3 22.7 0 17.8 14.5 32.3 32.3 32.3 17.8 0 32.2-14.5 32.2-32.3 0-17.8-14.4-32.3-32.2-32.3-3.7 0-7.3.6-10.8 1.8l-2-5.7c4.1-1.4 8.4-2.2 12.8-2.2 21.1 0 38.2 17.2 38.2 38.3 0 21.1-17.1 38.3-38.2 38.3S381 146.1 381 125c0-10.1 3.9-19.7 11.1-26.8zm39.8 36.8c1.2 1.1 1.3 3 .1 4.2-.6.6-1.4.9-2.2.9-.7 0-1.5-.3-2.1-.8l-11.4-10.8v-22.4c0-1.7 1.3-3 3-3s3 1.3 3 3V126l9.6 9zM555.7 90.1v93.3h33.8v-10.5h-21.2V90.1z"/></svg>