<?xml version="1.0" encoding="utf-8"?>
<!-- Generator: Adobe Illustrator 23.0.1, SVG Export Plug-In . SVG Version: 6.00 Build 0)  -->
<svg version="1.1" id="Calque_1" xmlns="http://www.w3.org/2000/svg" xmlns:xlink="http://www.w3.org/1999/xlink" x="0px" y="0px"
	 viewBox="0 0 798 454" style="enable-background:new 0 0 798 454;" xml:space="preserve">
<style type="text/css">
	.st0{fill:#FFFFFF;enable-background:new    ;}
	.st1{opacity:0.2;enable-background:new    ;}
	.st2{fill:#FFFFFF;}
</style>
<g>
	<path class="st0" d="M145.3,131c-53,0-96,43-96,96c0,23,8.1,44.1,21.6,60.6l0,0L63.3,323l39.6-9.9l0,0c12.8,6.3,27.2,9.9,42.4,9.9
		c53,0,96-43,96-96S198.4,131,145.3,131z"/>
	<g class="st1">
		<path class="st2" d="M315.5,285.4h-33.8v-93.3h12.6v82.8h21.2V285.4z"/>
		<path class="st2" d="M332.3,192.1h12.6v93.3h-12.6V192.1z"/>
		<path class="st2" d="M358.8,192.1H371l11.7,70.5l12.6-70.5h12l-19.6,93.3h-10L358.8,192.1z"/>
		<path class="st2" d="M453.4,285.4h-33.8v-93.3h33.2v10.6h-20.7v29.6h19.2v10.6h-19.2v32.2h21.3
			C453.4,275.1,453.4,285.4,453.4,285.4z"/>
	</g>
	<g class="st1">
		<path class="st2" d="M551,211.6h-17.8v73.8h-19.8v-73.6h-18.2v-17.9H551V211.6z"/>
		<path class="st2" d="M622.6,285.4h-19.3l-3.1-14.3h-24.1l-3.3,14.3h-19.3l26.1-91.5h20.1L622.6,285.4z M597.5,256.3l-8.1-40h-0.3
			l-9.3,40H597.5z"/>
		<path class="st2" d="M677,285.4h-42.8v-91.5h19.6v73.5H677V285.4z"/>
		<path class="st2" d="M748.7,285.4h-20.9l-18.3-46.2h-0.3v46.2h-20v-91.5h20v41.8h0.3l17.5-41.8h20.3l-19.4,43.5L748.7,285.4z"/>
	</g>
</g>
</svg>
