<?xml version="1.0" encoding="utf-8"?>
<!-- Generator: Adobe Illustrator 23.0.1, SVG Export Plug-In . SVG Version: 6.00 Build 0)  -->
<svg version="1.1" id="Calque_1" xmlns="http://www.w3.org/2000/svg" xmlns:xlink="http://www.w3.org/1999/xlink" x="0px" y="0px"
	 viewBox="0 0 798 454" style="enable-background:new 0 0 798 454;" xml:space="preserve">
<style type="text/css">
	.st0{fill:#FFFFFF;}
</style>
<g>
	<path class="st0" d="M508.1,209.3c8.4,0,14.4,1,23.8,4.5v-11.7c-6.4-2.9-14.4-4.3-24-4.3c-13.1,0-23.2,6.4-23.2,18.4v2.1
		c0,25.6,39.5,15.3,39.5,27v2.6c0,3-0.6,7-13.9,7c-8.5,0-17-1.3-25.3-4.2v11.9c7.3,2.4,15,3.7,25.4,3.7c18.1,0,26.1-7.9,26.2-18.4
		v-3c0-23.9-39.5-12.5-39.5-25.8v-2.9C497.1,212,499.5,209.3,508.1,209.3z"/>
	<path class="st0" d="M281.8,198.7v99.7h12.3v-35.2c4.6,2.3,9.4,3.7,15.5,3.7c16.2,0,27.7-8.6,27.7-27.1v-17
		c0-16-11.5-24.6-25.4-24.6c-6.6,0-12.4,1.3-17.8,4v-3.5H281.8z M312,210.1c7.7,0,13,3.7,13,12.8v17c0,11.5-5.3,15.2-15.5,15.2
		c-4.7,0-11.2-1.9-15.4-3.7v-37.8C300.3,211.1,305.3,210.1,312,210.1z"/>
	<path class="st0" d="M440,223.2c-13.4,0-23.5,7.5-23.5,18.9v2.1c0,13.6,12.5,21.9,26.1,21.9c6,0,12.6-1.6,18.2-4.5v3.8H473v-45.9
		c0-13.4-9.2-21.4-25.4-21.4c-8.9,0-18.5,1.6-24.3,4v12c7.7-2.9,16.3-4.5,24.5-4.5c10.3,0,13,3.3,13,9.9v3.7H440z M460.8,234.6v16.2
		c-6.1,2.6-12.3,4-18.4,4c-9.3,0-13.6-4.2-13.6-10.6v-2.1c0-4.1,3.1-7.5,11.4-7.5H460.8z"/>
	<path class="st0" d="M135.3,209.5v-7.8c0-10.3-3.2-14-18.9-14H85.7v38.4h27.7C129.5,226.1,135.3,222,135.3,209.5z"/>
	<path class="st0" d="M230.7,313.9c10.1,0,18.3-8.1,18.2-18.2V158.4c0-10.1-8.2-18.3-18.3-18.3H49.3c-10.1,0-18.3,8.2-18.3,18.3
		v137.2c0,10.1,8.2,18.3,18.3,18.3H230.7z M199,173.3h25.7l-43.4,52.8l46.4,53.8h-25.4L157,226.1L199,173.3z M69.8,173.3h46.6
		c23.1,0,34.8,9.5,34.8,28.4v7.8c0,21.7-14.9,30.9-37.8,30.9H85.7v39.5H69.8V173.3z"/>
	<path class="st0" d="M351.5,168.9v96.5h12.3v-52c6.4-2.4,11.7-3.4,17.9-3.4c9.8,0,13,3.4,13,12.8v42.6c0,0,12.3,0,12.3,0v-42.6
		c0-15.6-8.8-24.6-25.4-24.6c-6.3,0-11.6,1.1-17.8,4v-33.3H351.5z"/>
	<rect x="683" y="180.5" class="st0" width="12.3" height="11"/>
	<polygon class="st0" points="615.7,168.9 615.7,265.4 628,265.4 628,234.7 632,231.2 655.8,265.4 655.8,265.3 671.5,265.3 
		641.6,223.9 671.5,198.6 652.8,198.6 628,219.9 628,168.9 	"/>
	<path class="st0" d="M731.4,246.4v-36.6h17v-11.2h-17v-19.7h-12.2v19.7h-9.6v11.2h9.6v37.4c0,12.5,7.3,18.9,20.3,18.9
		c5.9,0,11.2-0.7,16.1-1.6v-12c-5.6,1.3-9.9,1.9-16,1.9S731.4,252.3,731.4,246.4z"/>
	<rect x="683" y="198.7" class="st0" width="12.3" height="66.7"/>
	<path class="st0" d="M601.4,236.7v-19c0-10.8-8.9-19-20.6-19h-9.6c-16.3,0-25.3,8.2-25.3,23.4v20c0,15.7,11.8,24,27.8,24
		c8.8,0,16.7-1.6,22.9-4.2v-11.5c-9.1,3-14.4,4.3-23,4.3c-10.4,0-15.4-4.1-15.4-12.6v-5.3L601.4,236.7z M558.2,222.1
		c0-8.9,3-11.8,13.1-11.8h9.8c5.2,0,8.2,2.9,8.2,7.5l-0.1,8h-31V222.1z"/>
</g>
</svg>
