<?xml version="1.0" encoding="utf-8"?>
<!-- Generator: Adobe Illustrator 19.0.0, SVG Export Plug-In . SVG Version: 6.00 Build 0)  -->
<svg version="1.1" id="Calque_1" xmlns="http://www.w3.org/2000/svg" xmlns:xlink="http://www.w3.org/1999/xlink" x="0px" y="0px"
	 viewBox="274 -102 798 454" style="enable-background:new 274 -102 798 454;" xml:space="preserve">
<style type="text/css">
	.st0{fill:#023966;}
</style>
<rect x="1366.3" y="-188.9" class="st0" width="798" height="454"/>
<g>
	<path class="st0" d="M631.2,66.9v96.5h12.3v-52c6.4-2.4,11.7-3.4,17.9-3.4c9.8,0,13,3.4,13,12.8v42.6h12.3v-42.6
		c0-15.6-8.8-24.6-25.4-24.6c-6.3,0-11.6,1.1-17.8,4V66.9H631.2z"/>
	<path class="st0" d="M719.7,121.2c-13.4,0-23.5,7.5-23.5,18.9v2.1c0,13.6,12.5,21.9,26.1,21.9c6,0,12.6-1.6,18.2-4.5v3.8h12.2
		v-45.9c0-13.4-9.2-21.4-25.4-21.4c-8.9,0-18.5,1.6-24.3,4v12c7.7-2.9,16.3-4.5,24.5-4.5c10.3,0,13,3.3,13,9.9v3.7H719.7z
		 M740.5,148.8c-6.1,2.6-12.3,4-18.4,4c-9.3,0-13.6-4.2-13.6-10.6v-2.1c0-4.1,3.1-7.5,11.4-7.5h20.6V148.8z"/>
	<path class="st0" d="M415,107.5v-7.8c0-10.3-3.2-14-18.9-14h-30.7v38.4h27.7C409.2,124.1,415,120,415,107.5z"/>
	<path class="st0" d="M510.4,211.9c10.1,0,18.3-8.1,18.2-18.2V56.4c0-10.1-8.2-18.3-18.3-18.3H329c-10.1,0-18.3,8.2-18.3,18.3v137.2
		c0,10.1,8.2,18.3,18.3,18.3H510.4z M478.7,71.3h25.7L461,124.1l46.4,53.8H482l-45.3-53.8L478.7,71.3z M349.5,71.3h46.6
		c23.1,0,34.8,9.5,34.8,28.4v7.8c0,21.7-14.9,30.9-37.8,30.9h-27.7v39.5h-15.9V71.3z"/>
	<path class="st0" d="M787.8,107.3c8.4,0,14.4,1,23.8,4.5v-11.7c-6.4-2.9-14.4-4.3-24-4.3c-13.1,0-23.2,6.4-23.2,18.4v2.1
		c0,25.6,39.5,15.3,39.5,27v2.6c0,3-0.6,7-13.9,7c-8.5,0-17-1.3-25.3-4.2v11.9c7.3,2.4,15,3.7,25.4,3.7c18.1,0,26.1-7.9,26.2-18.4
		v-3c0-23.9-39.5-12.5-39.5-25.8v-2.9C776.8,110,779.2,107.3,787.8,107.3z"/>
	<path class="st0" d="M561.5,96.7v99.7h12.3v-35.2c4.6,2.3,9.4,3.7,15.5,3.7c16.2,0,27.7-8.6,27.7-27.1v-17
		c0-16-11.5-24.6-25.4-24.6c-6.6,0-12.4,1.3-17.8,4v-3.5H561.5z M591.7,108.1c7.7,0,13,3.7,13,12.8v17c0,11.5-5.3,15.2-15.5,15.2
		c-4.7,0-11.2-1.9-15.4-3.7v-37.8C580,109.1,585,108.1,591.7,108.1z"/>
	<rect x="962.7" y="96.7" class="st0" width="12.3" height="66.7"/>
	<rect x="962.7" y="78.5" class="st0" width="12.3" height="11"/>
	<path class="st0" d="M998.9,76.9v19.7h-9.6v11.2h9.6v37.4c0,12.5,7.3,18.9,20.3,18.9c5.9,0,11.2-0.7,16.1-1.6v-12
		c-5.6,1.3-9.9,1.9-16,1.9s-8.2-2.1-8.2-8v-36.6h17V96.6h-17V76.9H998.9z"/>
	<path class="st0" d="M881.1,134.7v-19c0-10.8-8.9-19-20.6-19h-9.6c-16.3,0-25.3,8.2-25.3,23.4v20c0,15.7,11.8,24,27.8,24
		c8.8,0,16.7-1.6,22.9-4.2v-11.5c-9.1,3-14.4,4.3-23,4.3c-10.4,0-15.4-4.1-15.4-12.6v-5.3L881.1,134.7z M837.9,120.1
		c0-8.9,3-11.8,13.1-11.8h9.8c5.2,0,8.2,2.9,8.2,7.5l-0.1,8h-31V120.1z"/>
	<polygon class="st0" points="895.4,66.9 895.4,163.4 907.7,163.4 907.7,132.7 911.7,129.2 935.5,163.4 935.5,163.3 951.2,163.3 
		921.3,121.9 951.2,96.6 932.5,96.6 907.7,117.9 907.7,66.9 	"/>
</g>
</svg>
