<svg version="1.1" id="Calque_1" xmlns="http://www.w3.org/2000/svg" x="0" y="0" viewBox="274 -102 798 454" style="enable-background:new 274 -102 798 454" xml:space="preserve"><style>.st0{fill:#023966}</style><path class="st0" d="M1366.3-188.9h798v454h-798zM631.2 66.9v96.5h12.3v-52c6.4-2.4 11.7-3.4 17.9-3.4 9.8 0 13 3.4 13 12.8v42.6h12.3v-42.6c0-15.6-8.8-24.6-25.4-24.6-6.3 0-11.6 1.1-17.8 4V66.9h-12.3zM719.7 121.2c-13.4 0-23.5 7.5-23.5 18.9v2.1c0 13.6 12.5 21.9 26.1 21.9 6 0 12.6-1.6 18.2-4.5v3.8h12.2v-45.9c0-13.4-9.2-21.4-25.4-21.4-8.9 0-18.5 1.6-24.3 4v12c7.7-2.9 16.3-4.5 24.5-4.5 10.3 0 13 3.3 13 9.9v3.7h-20.8zm20.8 27.6c-6.1 2.6-12.3 4-18.4 4-9.3 0-13.6-4.2-13.6-10.6v-2.1c0-4.1 3.1-7.5 11.4-7.5h20.6v16.2zM415 107.5v-7.8c0-10.3-3.2-14-18.9-14h-30.7v38.4h27.7c16.1 0 21.9-4.1 21.9-16.6z"/><path class="st0" d="M510.4 211.9c10.1 0 18.3-8.1 18.2-18.2V56.4c0-10.1-8.2-18.3-18.3-18.3H329c-10.1 0-18.3 8.2-18.3 18.3v137.2c0 10.1 8.2 18.3 18.3 18.3h181.4zM478.7 71.3h25.7L461 124.1l46.4 53.8H482l-45.3-53.8 42-52.8zm-129.2 0h46.6c23.1 0 34.8 9.5 34.8 28.4v7.8c0 21.7-14.9 30.9-37.8 30.9h-27.7v39.5h-15.9V71.3zM787.8 107.3c8.4 0 14.4 1 23.8 4.5v-11.7c-6.4-2.9-14.4-4.3-24-4.3-13.1 0-23.2 6.4-23.2 18.4v2.1c0 25.6 39.5 15.3 39.5 27v2.6c0 3-.6 7-13.9 7-8.5 0-17-1.3-25.3-4.2v11.9c7.3 2.4 15 3.7 25.4 3.7 18.1 0 26.1-7.9 26.2-18.4v-3c0-23.9-39.5-12.5-39.5-25.8v-2.9c0-4.2 2.4-6.9 11-6.9zM561.5 96.7v99.7h12.3v-35.2c4.6 2.3 9.4 3.7 15.5 3.7 16.2 0 27.7-8.6 27.7-27.1v-17c0-16-11.5-24.6-25.4-24.6-6.6 0-12.4 1.3-17.8 4v-3.5h-12.3zm30.2 11.4c7.7 0 13 3.7 13 12.8v17c0 11.5-5.3 15.2-15.5 15.2-4.7 0-11.2-1.9-15.4-3.7v-37.8c6.2-2.5 11.2-3.5 17.9-3.5zM962.7 96.7H975v66.7h-12.3zM962.7 78.5H975v11h-12.3zM998.9 76.9v19.7h-9.6v11.2h9.6v37.4c0 12.5 7.3 18.9 20.3 18.9 5.9 0 11.2-.7 16.1-1.6v-12c-5.6 1.3-9.9 1.9-16 1.9s-8.2-2.1-8.2-8v-36.6h17V96.6h-17V76.9h-12.2zM881.1 134.7v-19c0-10.8-8.9-19-20.6-19h-9.6c-16.3 0-25.3 8.2-25.3 23.4v20c0 15.7 11.8 24 27.8 24 8.8 0 16.7-1.6 22.9-4.2v-11.5c-9.1 3-14.4 4.3-23 4.3-10.4 0-15.4-4.1-15.4-12.6v-5.3l43.2-.1zm-43.2-14.6c0-8.9 3-11.8 13.1-11.8h9.8c5.2 0 8.2 2.9 8.2 7.5l-.1 8h-31v-3.7zM895.4 66.9v96.5h12.3v-30.7l4-3.5 23.8 34.2v-.1h15.7l-29.9-41.4 29.9-25.3h-18.7l-24.8 21.3v-51z"/></svg>