<?xml version="1.0" encoding="utf-8"?>
<!-- Generator: Adobe Illustrator 19.0.0, SVG Export Plug-In . SVG Version: 6.00 Build 0)  -->
<svg version="1.1" id="Calque_1" xmlns="http://www.w3.org/2000/svg" xmlns:xlink="http://www.w3.org/1999/xlink" x="0px" y="0px"
	 viewBox="349 -177 798 454" style="enable-background:new 349 -177 798 454;" xml:space="preserve">
<style type="text/css">
	.st0{opacity:0.2;enable-background:new    ;}
	.st1{fill:#FFFFFF;}
	.st2{opacity:0.2;}
</style>
<g>
	<circle class="st0" cx="453.8" cy="50" r="82.8"/>
	<path class="st1" d="M372.8,65.5c0,0,2.1,12,5.4,17.8l78.2-26.8l-4.3,26.8l84.5-29.8c0,0-0.3-18.2-1.3-18.2s-59.7,17.8-59.7,17.8
		l4.5-26.2L372.8,65.5z"/>
	<g class="st2">
		<path d="M597.2,58.7v24.5h-5.8v-63h16.3c3.3,0,6.2,0.4,8.8,1.2s4.7,2,6.5,3.6c1.8,1.6,3.1,3.5,4,5.7c0.9,2.3,1.4,4.8,1.4,7.7
			c0,2.9-0.5,5.6-1.5,8.1s-2.5,4.6-4.4,6.4c-1.9,1.8-4.3,3.2-7,4.2c-2.8,1-5.9,1.5-9.4,1.5L597.2,58.7L597.2,58.7z M597.2,25.5v27.8
			h8.3c5.4,0,9.5-1.3,12.3-3.8s4.2-6.1,4.2-10.7c0-8.9-5.2-13.3-15.6-13.3H597.2z"/>
		<path d="M666.7,84.3c-4.5,0-8.6-0.8-12.3-2.5c-3.6-1.7-6.7-3.9-9.3-6.8c-2.5-2.9-4.5-6.2-5.8-10.1s-2-8-2-12.5
			c0-4.9,0.7-9.4,2-13.5c1.4-4.1,3.3-7.6,6-10.5c2.6-2.9,5.8-5.2,9.6-6.8c3.8-1.6,8.1-2.4,12.9-2.4c4.5,0,8.5,0.8,12,2.4
			s6.6,3.8,9.1,6.6c2.5,2.8,4.4,6.2,5.7,10c1.3,3.9,2,8.1,2,12.6c0,4.8-0.7,9.2-2,13.3c-1.3,4.1-3.2,7.6-5.8,10.6
			c-2.5,3-5.7,5.3-9.4,7C675.8,83.4,671.5,84.3,666.7,84.3z M667.1,24.4c-3.8,0-7.2,0.7-10.1,2.2s-5.4,3.4-7.4,5.9s-3.6,5.4-4.6,8.7
			c-1,3.3-1.6,6.9-1.6,10.6c0,3.6,0.4,7,1.4,10.3s2.4,6.2,4.3,8.7s4.3,4.5,7.3,6c2.9,1.5,6.4,2.2,10.3,2.2s7.4-0.7,10.3-2
			c3-1.4,5.5-3.3,7.4-5.7c2-2.4,3.5-5.3,4.5-8.6s1.5-7,1.5-10.9c0-3.7-0.4-7.2-1.3-10.5c-0.9-3.3-2.3-6.2-4.2-8.7
			c-1.9-2.5-4.3-4.4-7.2-5.9C674.8,25.2,671.2,24.4,667.1,24.4z"/>
		<path d="M763.5,83.2h-6.1l-13.5-46.7c-0.3-1.1-0.6-2.2-0.8-3.2c-0.2-1-0.3-2-0.3-3h-0.2c-0.1,1.7-0.5,3.7-1.3,6.1l-14,46.8h-6.1
			l-18.6-63h6.5L723,69.6c0.3,1.1,0.6,2.1,0.8,3.1s0.3,1.9,0.5,2.8h0.2c0.2-1.3,0.7-3.3,1.5-5.9l14.8-49.4h4.6l13.8,49.6
			c0.3,1,0.5,2,0.7,2.9c0.2,0.9,0.4,1.9,0.5,2.8h0.2c0.1-0.6,0.2-1.2,0.4-2s0.4-1.6,0.6-2.5l13.8-50.9h6.4L763.5,83.2z"/>
		<path d="M791.5,83.2v-63h30.7v5.4h-24.9v23.1h23V54h-23v24h26.3v5.3L791.5,83.2L791.5,83.2z"/>
		<path d="M871.1,83.2l-9.5-18.1c-0.9-1.8-1.8-3.3-2.7-4.5s-1.8-2.2-2.7-2.9s-1.9-1.2-3-1.5s-2.3-0.5-3.6-0.5h-6.9v27.4h-5.8v-63
			H855c2.4,0,4.7,0.4,6.9,1.1s4.2,1.7,5.9,3.1s3.1,3.1,4.2,5.2s1.6,4.5,1.6,7.3c0,2.2-0.3,4.3-1,6.2s-1.6,3.5-2.9,5
			c-1.2,1.4-2.8,2.7-4.5,3.7c-1.8,1-3.8,1.8-6,2.3v0.2c0.8,0.4,1.6,0.8,2.3,1.4s1.4,1.2,2,2c0.7,0.8,1.3,1.7,2,2.7s1.3,2.2,2,3.5
			l10.6,19.5h-7V83.2z M842.6,25.5v24.9H853c2.1,0,4-0.3,5.8-0.9s3.3-1.5,4.5-2.6s2.2-2.5,2.9-4.1s1-3.4,1-5.4
			c0-3.7-1.2-6.5-3.5-8.6s-5.8-3.1-10.2-3.1h-10.9V25.5z"/>
		<path d="M887.7,83.2v-63h22.9c7,0,12.4,1.3,16.2,3.9s5.7,6.2,5.7,10.9c0,3.4-1.2,6.4-3.4,8.9c-2.3,2.5-5.2,4.3-8.8,5.3v0.2
			c4.5,0.6,8.1,2.2,10.7,5c2.7,2.8,4,6.1,4,10.1c0,5.8-2.1,10.3-6.2,13.7c-4.1,3.4-9.8,5.1-16.9,5.1h-24.2V83.2z M901.9,30.6v14.9
			h6.2c2.9,0,5.2-0.7,6.9-2.1s2.5-3.4,2.5-5.9c0-4.6-3.5-6.9-10.4-6.9H901.9z M901.9,56.1v16.6h7.7c3.3,0,5.9-0.8,7.7-2.3
			c1.9-1.5,2.8-3.6,2.8-6.2c0-2.5-0.9-4.5-2.7-5.9s-4.4-2.2-7.7-2.2H901.9z"/>
		<path d="M1000.8,83.2h-15.5l-4.5-14h-22.4l-4.4,14h-15.4l22.9-63h16.8L1000.8,83.2z M977.6,58.3l-6.8-21.2
			c-0.5-1.6-0.8-3.5-1.1-5.7h-0.4c-0.1,1.8-0.5,3.7-1.1,5.5l-6.9,21.4L977.6,58.3L977.6,58.3z"/>
		<path d="M1046.2,83.2h-37.5v-63h14.2v51.5h23.3V83.2z"/>
		<path d="M1092.2,83.2h-37.5v-63h14.2v51.5h23.3V83.2z"/>
	</g>
</g>
</svg>
