<?xml version="1.0" encoding="utf-8"?>
<!-- Generator: Adobe Illustrator 23.0.1, SVG Export Plug-In . SVG Version: 6.00 Build 0)  -->
<svg version="1.1" id="Calque_1" xmlns="http://www.w3.org/2000/svg" xmlns:xlink="http://www.w3.org/1999/xlink" x="0px" y="0px"
	 viewBox="0 0 798 454" style="enable-background:new 0 0 798 454;" xml:space="preserve">
<style type="text/css">
	.st0{fill:#FFFFFF;enable-background:new    ;}
</style>
<path class="st0" d="M215.3,80.4c0,0-34.8-1.7-64.5,4.5c-29.7,6.2-37.5,36.5-37.5,36.5L63,369.2c0,0,524.3,6.1,552.8,4.4
	c28.5-1.7,33.5-4.5,33.5-4.5c30.2-10,34.4-33.3,34.4-33.3L735,80.2L215.3,80.4z M592.9,214.3h11.5v11h-11.5V214.3z M422.8,176.2
	c4.1,0.2,7.6,1,10.5,2.5c2.8,1.5,5.2,3.5,6.9,6c1.8,2.5,3,5.5,3.8,8.9c0.8,3.4,1.1,7.1,1.1,11.1v6.6H430v-7.4c0-1.7-0.1-3.5-0.2-5.2
	c-0.2-1.8-0.5-3.4-1-4.8c-0.5-1.4-1.2-2.7-2.2-3.7c-0.9-1-2.2-1.6-3.8-1.8V176.2z M222.5,213.8c-1,3.1-2.6,5.8-4.6,7.7
	c-2,2-4.5,3.4-7.5,4.3c-3,0.9-6.5,1.4-10.4,1.4h-0.6v-11h1.3c2,0,3.5-0.3,4.7-0.9c1.1-0.6,2-1.4,2.6-2.6s1-2.7,1.1-4.4
	c0.2-1.8,0.2-3.9,0.2-6.3c0-2-0.1-3.8-0.3-5.4c-0.2-1.6-0.7-3-1.6-4.1c-0.9-1.1-2.1-2-3.7-2.6c-1.6-0.6-3.8-0.9-6.6-0.9v75.9h-15.4
	v-87h15.4V189h2.2v-11.1h0.2h3.2c3.9,0,7.2,0.6,9.9,1.7c2.7,1.2,4.9,2.8,6.6,4.9c1.7,2.1,2.9,4.7,3.7,7.7s1.1,6.3,1.1,10
	C224,206.8,223.5,210.7,222.5,213.8z M246.8,264.9h-15.4v-87h15.4V264.9z M262.9,264.9l-10.1-40.6h-3.5l-0.1-9.8h4.8
	c1.7,0,3-0.5,4-1.4c1-0.9,1.8-2.1,2.3-3.4c0.6-1.3,0.9-2.7,1.1-4.2c0.2-1.5,0.3-2.7,0.3-3.8c0-1.1-0.1-2.4-0.2-3.8
	c-0.2-1.4-0.5-2.8-1-4.1s-1.2-2.4-2.1-3.2c-0.9-0.8-2.1-1.3-3.6-1.3h-5.5v-11.4h2.1c4.1,0,7.8,0.4,11,1.3c3.2,0.9,5.9,2.3,8.1,4.1
	s3.9,4.2,5,7.1c1.1,2.9,1.7,6.3,1.7,10.3c0,2-0.1,4-0.2,6.1c-0.2,2.1-0.6,4-1.3,5.9c-0.7,1.9-1.8,3.7-3.2,5.3
	c-1.5,1.6-3.5,3.1-6.2,4.2l12.4,42.7H262.9z M300.5,245.1c0.2,1.6,0.6,3,1.2,4.3c0.6,1.3,1.4,2.4,2.5,3.3c1.1,0.9,2.4,1.4,4.1,1.6
	v12c-4.5-0.1-8.2-1-11.2-2.6c-3-1.6-5.4-3.7-7.2-6.4s-3.1-5.7-3.9-9.3c-0.8-3.6-1.2-7.3-1.2-11.3v-30.5c0-4.1,0.4-7.9,1.1-11.5
	c0.8-3.6,2.1-6.7,3.9-9.4s4.2-4.8,7.3-6.4c3-1.6,6.7-2.5,11.2-2.6c0,0,0,12,0,12c-1.7,0.2-3,0.7-4.1,1.6c-1,0.9-1.9,2-2.5,3.3
	s-1,2.8-1.2,4.4c-0.2,1.6-0.3,3.1-0.3,4.7v38.1C300.2,242,300.3,243.5,300.5,245.1z M334.4,236.6c0,4-0.4,7.8-1.2,11.3
	s-2.1,6.7-3.9,9.4s-4.2,4.9-7.3,6.5c-3,1.6-6.8,2.5-11.3,2.7v-12c1.7-0.2,3.1-0.7,4.1-1.6c1.1-0.9,1.9-2,2.5-3.3
	c0.6-1.3,1-2.8,1.2-4.4c0.2-1.6,0.3-3.2,0.3-4.7v-38.1c0-1.6-0.1-3.1-0.3-4.7c-0.2-1.6-0.6-3.1-1.2-4.4c-0.6-1.3-1.4-2.4-2.5-3.3
	s-2.4-1.4-4.1-1.6l0.1-12.2c4.5,0.2,8.2,1,11.2,2.6c3,1.6,5.4,3.7,7.3,6.4c1.8,2.7,3.1,5.8,3.9,9.4c0.8,3.6,1.2,7.4,1.2,11.5V236.6z
	 M340.1,264.8l18.5-87h11.8l-5.8,31.6l-9.7,55.4H340.1z M376,264.9l-3.8-19.5H361l1.3-9h8.9l-4.2-25.9l5.9-32.6l18.5,87H376z
	 M420.4,188.3c-1.7,0.2-3,0.7-4,1.6c-1,0.9-1.8,2-2.4,3.3s-1,2.8-1.2,4.4c-0.2,1.6-0.3,3.1-0.3,4.7v38c0,1.6,0.1,3.1,0.3,4.7
	s0.6,3,1.2,4.4c0.6,1.3,1.4,2.5,2.4,3.3c1,0.9,2.4,1.4,4,1.6v12c-4.5-0.1-8.2-1-11.2-2.7c-3-1.7-5.4-3.8-7.2-6.5
	c-1.8-2.7-3.1-5.8-3.8-9.4c-0.7-3.5-1.1-7.3-1.1-11.3v-30.2c0-4.1,0.4-7.9,1.1-11.5c0.7-3.6,2-6.7,3.8-9.4s4.2-4.8,7.2-6.4
	c3-1.6,6.7-2.5,11.2-2.6V188.3z M445.2,237.1c-0.1,3.8-0.4,7.4-1.1,10.9c-0.7,3.5-1.9,6.5-3.6,9.2c-1.7,2.7-4,4.9-6.8,6.5
	c-2.8,1.6-6.4,2.6-10.8,2.7v-12c0,0-0.1,0-0.1,0c1.6-0.2,2.8-0.8,3.8-1.8c0.9-1,1.7-2.2,2.2-3.7s0.8-3.1,1-4.9s0.3-3.6,0.3-5.3v-8.3
	h15.1V237.1z M478.2,264.8h-15.5v-72.9h15.5V264.8z M491.7,189.5H449v-11.6h42.7V189.5z M513.1,264.9h-15.5v-87h15.5V264.9z
	 M520,177.9h14.8l8.2,50.5l-6.3,36.5L520,177.9z M551.4,264.9h-12.3l15-87h14.7L551.4,264.9z M590.5,264.9h-15.4v-87h15.4V264.9z
	 M610,264.9h-17.1v-10.8H610V264.9z M610,188.7h-17.1v-10.8H610V188.7z"/>
</svg>
