<svg version="1.1" id="Calque_1" xmlns="http://www.w3.org/2000/svg" x="0" y="0" viewBox="349 -177 798 454" style="enable-background:new 349 -177 798 454" xml:space="preserve"><style>.st0{opacity:.2}</style><g class="st0"><path d="M391.8 28.8c-8.6 0-15.5-6.9-15.5-15.5v-36.5c0-8.6 6.9-15.5 15.5-15.5s15.5 6.9 15.5 15.5v36.5c0 8.6-7 15.5-15.5 15.5zM480.8 28.8c-8.6 0-15.5-6.9-15.5-15.5v-79c0-8.6 6.9-15.5 15.5-15.5s15.5 6.9 15.5 15.5v79c0 8.6-7 15.5-15.5 15.5zM658.8 28.8c-8.6 0-15.5-6.9-15.5-15.5v-79c0-8.6 6.9-15.5 15.5-15.5s15.5 6.9 15.5 15.5v79c0 8.6-7 15.5-15.5 15.5zM569.8 61.8c-8.6 0-15.5-6.9-15.5-15.5v-173c0-8.6 6.9-15.5 15.5-15.5s15.5 6.9 15.5 15.5v173c0 8.6-7 15.5-15.5 15.5zM747.2 28.8c-8.6 0-15.5-6.9-15.5-15.5v-36.5c0-8.6 6.9-15.5 15.5-15.5s15.5 6.9 15.5 15.5v36.5c0 8.6-6.9 15.5-15.5 15.5zM1104.2 28.8c-8.6 0-15.5-6.9-15.5-15.5v-36.5c0-8.6 6.9-15.5 15.5-15.5s15.5 6.9 15.5 15.5v36.5c0 8.6-6.9 15.5-15.5 15.5zM836.2 28.8c-8.6 0-15.5-6.9-15.5-15.5v-79c0-8.6 6.9-15.5 15.5-15.5s15.5 6.9 15.5 15.5v79c0 8.6-6.9 15.5-15.5 15.5zM1014.2 28.8c-8.6 0-15.5-6.9-15.5-15.5v-79c0-8.6 6.9-15.5 15.5-15.5s15.5 6.9 15.5 15.5v79c0 8.6-6.9 15.5-15.5 15.5zM925.2 61.8c-8.6 0-15.5-6.9-15.5-15.5v-173c0-8.6 6.9-15.5 15.5-15.5s15.5 6.9 15.5 15.5v173c0 8.6-6.9 15.5-15.5 15.5z"/></g><g class="st0"><path d="M515.8 242.3c-12 0-20.9-3-26.6-9.1-5.7-6.1-8.7-16.2-9-30.3l25.2-3.3c0 4 .2 7.4.7 10.1.4 2.7 1.1 4.8 1.9 6.3.8 1.4 1.7 2.5 2.7 3s2.1.9 3.3.9c3.3 0 5-2.4 5-7.2 0-4.7-1.1-8.7-3.2-12.1s-5.5-7.1-10.2-11.1l-7.7-6.5c-2.8-2.4-5.1-4.5-6.8-6.4-1.8-1.9-3.6-4.1-5.4-6.8-1.8-2.7-3.2-5.7-4.1-9-.9-3.3-1.3-6.9-1.3-10.9 0-10.5 3.2-18.6 9.5-24.3 6.3-5.7 15.1-8.6 26.2-8.6 19.9 0 30 11.8 30.1 35.4l-25.8 2.6c0-3.2 0-5.6-.1-7.1-.1-1.6-.3-3.2-.6-4.9-.3-1.7-.9-2.9-1.6-3.5-.8-.7-1.8-1-3-1-1.8 0-3.2 1-4.1 2.9s-1.4 3.7-1.4 5.6c0 1 .1 2 .3 3 .2 1 .3 1.8.5 2.6.1.8.5 1.6 1 2.5s.9 1.6 1.1 2.2c.2.5.7 1.2 1.5 2.1s1.2 1.5 1.5 1.8c.2.3.8 1 1.8 1.8.9.9 1.5 1.4 1.7 1.6s.8.7 1.9 1.7c1.1 1 1.7 1.5 1.8 1.6l7 6.2c3 2.7 5.5 5.2 7.6 7.5 2.1 2.3 4.1 5 6 8.1 1.9 3.1 3.3 6.4 4.3 10s1.4 7.5 1.4 11.6c0 8.7-3 16.1-9 22-6.4 6-14.3 9-24.1 9zM590.8 240.4v-51.6L568.6 119h28.1l9.6 32.5 8-32.5h26.9l-21.8 69.8v51.6h-28.6zM699.3 242.3c-12 0-20.9-3-26.6-9.1s-8.7-16.2-9-30.3l25.2-3.3c0 4 .2 7.4.7 10.1.4 2.7 1.1 4.8 1.9 6.3.8 1.4 1.7 2.5 2.7 3s2.1.9 3.3.9c3.3 0 5-2.4 5-7.2 0-4.7-1.1-8.7-3.2-12.1-2.1-3.4-5.5-7.1-10.2-11.1l-7.7-6.5c-2.8-2.4-5.1-4.5-6.8-6.4-1.8-1.9-3.6-4.1-5.4-6.8-1.8-2.7-3.2-5.7-4.1-9-.9-3.3-1.3-6.9-1.3-10.9 0-10.5 3.2-18.6 9.5-24.3 6.3-5.7 15.1-8.6 26.2-8.6 19.9 0 30 11.8 30.1 35.4l-25.8 2.6c0-3.2 0-5.6-.1-7.1-.1-1.6-.3-3.2-.6-4.9-.3-1.7-.9-2.9-1.6-3.5-.8-.7-1.8-1-3-1-1.8 0-3.2 1-4.1 2.9-.9 1.9-1.4 3.7-1.4 5.6 0 1 .1 2 .3 3s.3 1.8.5 2.6c.1.8.5 1.6 1 2.5s.9 1.6 1.1 2.2c.2.5.7 1.2 1.5 2.1s1.2 1.5 1.5 1.8c.2.3.8 1 1.8 1.8.9.9 1.5 1.4 1.7 1.6s.8.7 1.9 1.7c1.1 1 1.7 1.5 1.8 1.6l7 6.2c3 2.7 5.5 5.2 7.6 7.5 2.1 2.3 4.1 5 6 8.1 1.9 3.1 3.3 6.4 4.3 10s1.4 7.5 1.4 11.6c0 8.7-3 16.1-9 22-6.5 6-14.4 9-24.1 9zM770.7 240.4v-99.5H753v-22h65.1v22h-17.7v99.5h-29.7zM843.9 240.4V118.9h56.8v19.9h-27.1v27.1h20.2v20.7h-20.2v33.9H901v19.8h-57.1v.1zM927.8 240.4V118.9h29.7v47.3l18.4-47.3h29.2l-22 55.2 22.3 66.3h-30.5l-15.8-52.6-1.5 1.9v50.7h-29.8z"/></g></svg>