<svg version="1.1" id="Calque_1" xmlns="http://www.w3.org/2000/svg" x="0" y="0" viewBox="349 -177 798 454" style="enable-background:new 349 -177 798 454" xml:space="preserve"><style>.st1{opacity:.2;enable-background:new}</style><path d="M438.4-5.1v-45s30-46.3 68.8 0v45s-32.9-14.4-68.8 0z" style="opacity:.2;fill:none;stroke:#000;stroke-width:10;stroke-miterlimit:10;enable-background:new"/><circle class="st1" cx="472.8" cy="54.7" r="56"/><circle class="st1" cx="460.8" cy="-31.9" r="6.1"/><circle class="st1" cx="484.7" cy="-31.9" r="6.1"/><path class="st1" d="M481.9 112.2s10 1 25-7.9v43.5s17.9 8.1 17.3 21h-48.3s0-11.3 5-12.5l1-44.1zM438 104.4s15.3 9.5 26.3 8.6v44s6.3 5.4 5 10.6h-47.2s2.3-15.4 13.8-19.4l2.1-43.8z"/><g style="opacity:.2"><path d="M632.4 169c-1 .4-2.5.8-4.5 1.1-2 .4-4.4.5-7.1.6-3.6 0-6.9-.5-9.5-1.4-2.6-.9-4.9-2.3-6.8-3.9-1.8-1.6-3.1-3.8-4-6.1-.9-2.4-1.4-5-1.4-8v-42.4h-13.4v-9.8h13.4v-19h11.4v19h20.8v9.8h-20.8v40.7c0 1.6.3 3.1.8 4.5s1.3 2.5 2.3 3.5c1 1 2.3 1.8 3.9 2.4 1.5.5 3.5.9 5.6.9 1.5 0 3.1-.1 4.8-.4 1.6-.3 3.3-.5 4.6-1l-.1 9.5zM688.6 161.1h-.3c-.9 1.1-2.1 2.4-3.5 3.5s-3 2.1-4.9 3.1c-1.9.9-3.9 1.6-6.1 2.1-2.3.5-4.5.8-7 .8-3.4 0-6.5-.5-9.3-1.5-2.8-1-5.3-2.5-7.3-4.4-2-1.9-3.6-4.3-4.8-7.1-1.1-2.8-1.6-5.9-1.6-9.5 0-3.5.6-6.6 1.9-9.3 1.3-2.8 3-5 5.3-7 2.3-1.9 5-3.4 8.1-4.4 3.1-1 6.6-1.5 10.4-1.5 3.6 0 7 .4 10 1s5.8 1.4 8.3 2.3h.3v-4.9c0-1.9-.1-3.6-.4-5-.3-1.5-.6-2.8-1.3-3.9-1.3-2.4-3.3-4.3-6.1-5.9s-6.5-2.3-11.3-2.3c-3.5 0-6.9.4-9.9 1-3.1.6-6.3 1.6-9.3 2.8v-9.5c1.1-.6 2.5-1.1 4.1-1.6 1.6-.5 3.3-1 5-1.4 1.8-.4 3.6-.6 5.6-.9s3.9-.3 5.9-.3c7 0 12.8 1.3 17.3 3.8s7.6 5.8 9.6 9.9c.8 1.6 1.3 3.3 1.6 5.1.4 1.9.5 4 .5 6.3v46.4h-9.8l-1-7.7zm-.5-22.9c-2.1-.6-4.6-1.1-7.5-1.6-2.9-.5-6-.9-9.5-.9-4.9 0-8.6 1-11.3 3.1-2.8 2-4.1 5.3-4.1 9.5 0 2.1.4 4 1 5.6.6 1.6 1.6 3 2.8 4 1.3 1 2.6 1.9 4.3 2.4 1.6.5 3.4.8 5.3.8 2.4 0 4.8-.4 6.8-1 2.1-.8 4-1.5 5.6-2.5 1.6-1 3-2 4.1-2.9 1.1-1 2-1.8 2.5-2.3v-14.3zM729.5 117.7c0 1.9.4 3.5 1.3 4.8.8 1.3 1.9 2.3 3.3 3s2.9 1.4 4.8 1.9c1.8.5 3.6.9 5.5 1.4 2.6.6 5.1 1.3 7.5 2 2.4.8 4.5 1.8 6.5 3.1s3.6 3.4 4.8 5.8c1.3 2.4 1.9 5.5 1.9 9.4 0 3.5-.6 6.6-2 9.4-1.4 2.8-3.3 5-5.8 6.8-2.5 1.8-5.5 3.3-8.9 4.1-3.5 1-7.3 1.4-11.4 1.4-2.5 0-4.9-.1-6.9-.4-2.1-.3-3.9-.6-5.5-1s-3-.9-4.1-1.3c-1.1-.5-2-.9-2.8-1.3v-9.5c2.9 1.1 5.8 2.1 8.5 2.8 2.9.6 6 1 9.4 1 2.6 0 5.1-.3 7.3-.8s4-1.3 5.6-2.1c1.6-.9 2.8-2.1 3.6-3.6.9-1.5 1.3-3.1 1.3-5 0-2-.4-3.6-1.1-4.9-.8-1.3-1.8-2.4-3.1-3.1-1.3-.9-2.8-1.5-4.5-2s-3.5-1-5.4-1.5c-2.5-.5-4.9-1.1-7.5-1.9-2.6-.8-4.8-1.8-6.9-3.1s-3.8-3.1-5-5.4c-1.3-2.3-1.9-5.3-1.9-8.8 0-3.6.6-6.9 2-9.5 1.4-2.6 3.1-4.9 5.4-6.6 2.3-1.8 4.9-3.1 7.9-4 3-.9 6.1-1.4 9.5-1.4 3.9 0 7.4.4 10.8 1.1s6.3 1.6 9 2.8v9.6c-2.9-1.1-5.8-2-8.6-2.8s-6-1.1-9-1.1c-2.6 0-4.9.3-6.8.8-1.9.5-3.4 1.3-4.6 2.3-1.3 1-2 2.1-2.6 3.4-1.3 1.3-1.5 2.7-1.5 4.2zM827.2 99.2H842l-34 32 33.9 37.6h-14.1l-33.4-37h-.1v37h-11.4v-106h11.4v67.5h.1l32.8-31.1zM901.5 169.6c-8.4 0-17.9-2.1-26.6-6.4v5.8h-18.3V25.5h18.3v49.7c9-4.8 16.6-6.1 26.4-6.1 21.1 0 37.8 13.3 37.8 39.9v24c-.1 23.7-17.2 36.6-37.6 36.6zm19.1-60.7c0-17.4-8.4-22.5-19.3-22.5-8.5 0-16.9 1.6-26.6 5.3v55.4c9.5 3.6 19 5.3 26.4 5.3 11.6 0 19.5-5.8 19.5-19.3v-24.2zM1007.4 168.9h-17.9c-20.9 0-34.3-13.1-34.3-32.5v-34c0-19.5 13.3-32.5 34-32.5h17.9c20.9 0 34.3 13 34.3 32.5v34c0 19.3-13.3 32.5-34 32.5zm15.7-66.6c0-10.3-4.5-15.4-15.6-15.4h-17.9c-11.4 0-15.9 5.3-15.9 15.4v34c0 10.3 4.5 15.5 15.6 15.5h17.9c11.4 0 15.9-5.3 15.9-15.5v-34zM1102.2 169.7c-19.3 0-30.1-9.5-30.1-28V86.2h-14.3V69.5h14.3V40.3h18v29.3h25.1v16.6h-25.1v54.4c0 8.8 3.1 11.9 12.1 11.9s15.5-1 23.8-2.9v17.9c-7.1 1.4-15 2.2-23.8 2.2z"/></g><circle class="st1" cx="383.4" cy="49.5" r="13.4"/><circle class="st1" cx="554.1" cy="49.5" r="13.4"/><circle class="st1" cx="604.2" cy="49.5" r="13.4"/><circle class="st1" cx="660.2" cy="49.5" r="13.4"/><circle class="st1" cx="716.1" cy="49.5" r="13.4"/></svg>