<svg version="1.1" id="Calque_1" xmlns="http://www.w3.org/2000/svg" x="0" y="0" viewBox="274 -102 798 454" style="enable-background:new 274 -102 798 454" xml:space="preserve"><style>.st0{fill:#023966}</style><path class="st0" d="m635.8 5-48.7 10.6v39.7l48.7-10.7zM538.4 244V125.8s18-20 36-8.5V70.5s-9.8-5.3-27.3.7c0 0-11 6-13.4 13.5l-2.4-14.6-41.9.2V244h49zM388.4 39.3s-2.7 134.3 0 159.2c2.7 24.9 22 39.3 22 39.3 42 14 63 0 63 0v-38.5c-37.5 11-37-15-37-15v-72.5h37v-42h-36v-41l-49 10.5zM587.1 71h48.7v173.1h-48.7zM697 4.9l-44.6 10.4V244h51.3v-11c19.5 13.3 40.3 12 40.3 12 33.8-7 41.8-24.3 41.8-24.3s11.8-11 18-50-12.9-70.6-12.9-70.6-13.3-25.8-44.8-31.8-46.3 14.5-46.3 14.5l-2.8 1.5V4.9zm6.1 115.7s6-10.3 25.6-9.7c19.6.6 27.1 32.3 27.1 32.3s4.3 43.7-16.7 54.7-36-5-36-5v-72.3zM913.5 71s-47-15.4-78 19-20.7 87.7-20.7 87.7 4.7 44.3 46 61c41.4 16.7 87.7-7 87.7-7l-.3-38.3c-28 11-40 11.3-62.7 8.5-22.7-2.8-22.7-27.9-22.7-27.9h95c3-29-2.4-44.7-2.3-44.7-6-43.3-42-58.3-42-58.3zm-51.6 66.8v-1s-1.2-27.7 24-29.7 26 30.7 26 30.7h-50z"/></svg>