<?xml version="1.0" encoding="utf-8"?>
<!-- Generator: Adobe Illustrator 19.0.0, SVG Export Plug-In . SVG Version: 6.00 Build 0)  -->
<svg version="1.1" id="Calque_1" xmlns="http://www.w3.org/2000/svg" xmlns:xlink="http://www.w3.org/1999/xlink" x="0px" y="0px"
	 viewBox="274 -102 798 454" style="enable-background:new 274 -102 798 454;" xml:space="preserve">
<style type="text/css">
	.st0{fill:#023966;}
</style>
<g>
	<polygon class="st0" points="635.8,5 587.1,15.6 587.1,55.3 635.8,44.6 	"/>
	<path class="st0" d="M538.4,244V125.8c0,0,18-20,36-8.5V70.5c0,0-9.8-5.3-27.3,0.7c0,0-11,6-13.4,13.5l-2.4-14.6l-41.9,0.2v1h0V244
		H538.4z"/>
	<path class="st0" d="M388.4,39.3c0,0-2.7,134.3,0,159.2c2.7,24.9,22,39.3,22,39.3c42,14,63,0,63,0v-38.5c-37.5,11-37-15-37-15
		v-72.5h37v-42h-36v-41L388.4,39.3z"/>
	<rect x="587.1" y="71" class="st0" width="48.7" height="173.1"/>
	<path class="st0" d="M697,4.9l-44.6,10.4V244h1.5h49.8v-11c19.5,13.3,40.3,12,40.3,12c33.8-7,41.8-24.3,41.8-24.3s11.8-11,18-50
		s-12.9-70.6-12.9-70.6s-13.3-25.8-44.8-31.8s-46.3,14.5-46.3,14.5l-2.8,1.5V30.1V4.9z M703.1,120.6c0,0,6-10.3,25.6-9.7
		c19.6,0.6,27.1,32.3,27.1,32.3s4.3,43.7-16.7,54.7c-21,11-36-5-36-5V120.6z"/>
	<path class="st0" d="M913.5,71c0,0-47-15.4-78,19s-20.7,87.7-20.7,87.7s4.7,44.3,46,61c41.4,16.7,87.7-7,87.7-7l-0.3-38.3
		c-28,11-40,11.3-62.7,8.5c-22.7-2.8-22.7-27.9-22.7-27.9h95c3-29-2.4-44.7-2.3-44.7C949.5,86,913.5,71,913.5,71z M861.9,137.8v-1
		c0,0-1.2-27.7,24-29.7s26,30.7,26,30.7H861.9z"/>
</g>
</svg>
