<svg version="1.1" id="Calque_1" xmlns="http://www.w3.org/2000/svg" x="0" y="0" viewBox="349 -177 798 454" style="enable-background:new 349 -177 798 454" xml:space="preserve"><style>.st0{opacity:.2;enable-background:new}.st1{fill:#fff}</style><path class="st0" d="m463.4-35.7 49-10.5v41h36v42h-37v72.5s-.5 26 37 15v38.5s-21 14-63 0c0 0-19.3-14.4-22-39.3s0-159.2 0-159.2zM564.4-3.7V169h49V50.8s18-20 36-8.5V-4.5s-9.8-5.3-27.3.7c0 0-11 6-13.4 13.5l-2.4-14.6-41.9.2v1zM662.1-4h48.7v173.1h-48.7zM662.1-19.7l48.7-10.7V-70l-48.7 10.6zM865.9 25.1S852.6-.7 821.1-6.7 774.8 7.8 774.8 7.8L772 9.3v-79.4l-44.6 10.4V169h51.3v-11c19.5 13.3 40.3 12 40.3 12 33.8-7 41.8-24.3 41.8-24.3s11.8-11 18-50-12.9-70.6-12.9-70.6z"/><path class="st1" d="M778.1 45.6v72.3s15 16 36 5 16.7-54.7 16.7-54.7-7.5-31.7-27.1-32.3c-19.6-.6-25.6 9.7-25.6 9.7z"/><path class="st0" d="M1032.8 99h-95s0 25.1 22.7 27.9 34.7 2.5 62.7-8.5l.3 38.3s-46.3 23.7-87.7 7c-41.3-16.7-46-61-46-61S879.5 49.4 910.5 15s78-19 78-19 36 15 42 58.3c-.1 0 5.3 15.7 2.3 44.7z"/><path class="st1" d="M936.9 61.8s-1.2-27.7 24-29.7 26 30.7 26 30.7h-50v-1z"/></svg>