<?xml version="1.0" encoding="utf-8"?>
<!-- Generator: Adobe Illustrator 19.0.0, SVG Export Plug-In . SVG Version: 6.00 Build 0)  -->
<svg version="1.1" id="Calque_1" xmlns="http://www.w3.org/2000/svg" xmlns:xlink="http://www.w3.org/1999/xlink" x="0px" y="0px"
	 viewBox="349 -177 798 454" style="enable-background:new 349 -177 798 454;" xml:space="preserve">
<style type="text/css">
	.st0{opacity:0.2;enable-background:new    ;}
	.st1{fill:#FFFFFF;}
</style>
<g>
	<path class="st0" d="M463.4-35.7l49-10.5v41h36v42h-37v72.5c0,0-0.5,26,37,15v38.5c0,0-21,14-63,0c0,0-19.3-14.4-22-39.3
		S463.4-35.7,463.4-35.7z"/>
	<path class="st0" d="M564.4-3.7V169h49V50.8c0,0,18-20,36-8.5V-4.5c0,0-9.8-5.3-27.3,0.7c0,0-11,6-13.4,13.5l-2.4-14.6l-41.9,0.2
		V-3.7z"/>
	<rect x="662.1" y="-4" class="st0" width="48.7" height="173.1"/>
	<polygon class="st0" points="662.1,-19.7 710.8,-30.4 710.8,-70 662.1,-59.4 	"/>
	<path class="st0" d="M865.9,25.1c0,0-13.3-25.8-44.8-31.8S774.8,7.8,774.8,7.8L772,9.3v-54.2v-25.2l-44.6,10.4V169h1.5h49.8v-11
		c19.5,13.3,40.3,12,40.3,12c33.8-7,41.8-24.3,41.8-24.3s11.8-11,18-50S865.9,25.1,865.9,25.1z"/>
	<path class="st1" d="M778.1,45.6v72.3c0,0,15,16,36,5s16.7-54.7,16.7-54.7s-7.5-31.7-27.1-32.3C784.1,35.3,778.1,45.6,778.1,45.6z"
		/>
	<path class="st0" d="M1032.8,99h-95c0,0,0,25.1,22.7,27.9s34.7,2.5,62.7-8.5l0.3,38.3c0,0-46.3,23.7-87.7,7c-41.3-16.7-46-61-46-61
		S879.5,49.4,910.5,15s78-19,78-19s36,15,42,58.3C1030.4,54.3,1035.8,70,1032.8,99z"/>
	<path class="st1" d="M936.9,61.8c0,0-1.2-27.7,24-29.7s26,30.7,26,30.7h-50V61.8z"/>
</g>
</svg>
