<?xml version="1.0" encoding="utf-8"?>
<!-- Generator: Adobe Illustrator 23.0.1, SVG Export Plug-In . SVG Version: 6.00 Build 0)  -->
<svg version="1.1" id="Layer_1" xmlns="http://www.w3.org/2000/svg" xmlns:xlink="http://www.w3.org/1999/xlink" x="0px" y="0px"
	 viewBox="0 0 538.7 538.7" style="enable-background:new 0 0 538.7 538.7;" xml:space="preserve">
<style type="text/css">
	.st0{fill:none;stroke:#2E3192;stroke-width:8.3174;stroke-miterlimit:2.6131;}
	.st1{fill-rule:evenodd;clip-rule:evenodd;fill:#FFFFFF;}
	.st2{fill-rule:evenodd;clip-rule:evenodd;fill:#2E3192;}
</style>
<g>
	<path class="st0" d="M364.8,365.9c-11.2,8.7-35.2,8.6-44.8,0c-11.3,8.7-35.3,8.6-45,0c-11.3,8.7-35.3,8.6-44.9,0
		c-11.4,8.7-40.4,11.7-50,2.9 M363,159.2c-11.2,8.7-32.7,12.2-44.8,0c-11.3,11.1-35.3,9.8-45,0c-12.4,10.5-34.6,11-44.8,0
		c-13.2,13.5-33,14.7-45,0 M218.3,307.8c-10.7,1.3-22.3-0.8-28.3-6.1c-11.4,8.8-40.8,12.9-50.2,3.9 M216.4,271.4
		c-10.7,1.3-23.5-0.8-29.5-6.1c-11.4,8.8-41.4,16.6-50.8,7.5 M215.2,237.5c-10.7,1.3-22.3-3.2-28.3-8.5
		c-11.4,8.8-40.8,12.3-50.2,3.3 M408.9,306.6c-11.2,8.5-31.5,3-41-5.7c-9.1,7-32.6,5.7-44.1,5.1 M409.3,269.7
		c-11,8.5-30.1,1.8-39.6-6.9c-9.1,7-31.4,8.7-44.1,5.1 M405.2,235.1c-13,9.1-30.2,1.8-39.8-6.9c-9.8,9.4-31.4,8.7-44.1,5.1
		 M283.5,331.9c-11.3,8.8-35.3,8.8-44.9,0c-11.4,8.8-35.4,8.8-45,0c-11.4,8.8-35.4,8.8-44.8-0.3 M269.6,209.4
		c-11.3,8.8-29.9-2.1-39.5-10.9c-11.4,8.8-35.4,8.8-45,0c-11.4,8.8-30,11.2-39.5,2.1 M403.5,332.1c-11.2,8.6-35.2,8.5-44.7-0.2
		c-11.2,8.8-35.2,8.8-44.8,0c-11.3,8.8-35.3,8.8-45,0 M379.3,189.6c-13,10.4-39.3,17.6-50.1,2.2c-11.2,8.8-44.8,11.8-55.7,9.1"/>
	<path class="st1" d="M269.6,142.4c-70,0-127,57.1-127,127.1c0,70,57,127.1,127,127.1c70.1,0,127.2-57.1,127.2-127.1
		C396.8,199.5,339.7,142.4,269.6,142.4L269.6,142.4z M269.6,122.3c-81.1,0-147.1,66.2-147.1,147.2c0,81.1,66,147.1,147.1,147.1
		c81.1,0,147.2-66,147.2-147.1C416.9,188.4,350.7,122.3,269.6,122.3L269.6,122.3z"/>
	<path class="st2" d="M269.3,0c148.4,0,269.4,120.9,269.4,269.3c0,148.4-121,269.4-269.4,269.4C121,538.7,0,417.7,0,269.3
		C0,120.9,121,0,269.3,0L269.3,0z M269.3,29.1c132.4,0,240.3,107.9,240.3,240.2c0,132.4-107.9,240.3-240.3,240.3
		C137,509.6,29.1,401.7,29.1,269.3C29.1,137,137,29.1,269.3,29.1L269.3,29.1z M269.3,46.1c123,0,223.3,100.2,223.3,223.1
		c0,122.8-100.3,223.1-223.3,223.1c-122.8,0-223.1-100.3-223.1-223.1C46.2,146.3,146.4,46.1,269.3,46.1L269.3,46.1z M269.3,138.7
		c72,0,130.6,58.7,130.6,130.6s-58.6,130.5-130.6,130.5c-71.8,0-130.5-58.6-130.5-130.5S197.5,138.7,269.3,138.7L269.3,138.7z"/>
	<path class="st1" d="M269.6,190.8c-43.5,0-78.8,35.3-78.8,78.8c0,43.5,35.3,78.8,78.8,78.8c43.5,0,78.8-35.3,78.8-78.8
		C348.4,226,313.1,190.8,269.6,190.8L269.6,190.8z"/>
	<path class="st2" d="M312.4,255.6c-5.7-18.3-22.9-31.2-42.9-31.2c-19.7,0-36.8,13-42.5,31.2H312.4L312.4,255.6z M338,302l-38.6,0.2
		c-7.9,7.2-18.6,11.6-30,11.6c-21.2,0-41.2-16.1-45.1-36.5l121.2,0.5c0.3-2.6-0.2-5.7-0.2-8.5c0-41.9-34.1-75.9-75.9-75.9
		c-41.8,0-75.9,34-75.9,75.9c0,41.7,34.1,75.8,75.9,75.8C299.6,345.1,325.7,327.4,338,302L338,302z"/>
	<path class="st1" d="M399,424.5l-9.9,7.3l-3.7-4.7l9.9-8.1L399,424.5L399,424.5z M355.5,389l11-8.1l7.3,9.9l17.2,22.7l-11,8.3
		l-7.3-10.2L355.5,389L355.5,389z M185.4,81l12-4.4l1.8,5.5l-12,5.5L185.4,81L185.4,81z M218.3,126.3l-11.7,5.5l-4.7-11.7l-11-26.3
		l12-5.5l4.4,11.7L218.3,126.3L218.3,126.3z M462.7,207.2l2.6,12.8l-5.5,1l-3.4-12L462.7,207.2L462.7,207.2z M412.6,233.6L410,221
		l11.7-2.9l28.2-7.3l2.9,12.8l-12,2.9L412.6,233.6L412.6,233.6z M127.5,383.6l2.6,2.9l20.1,19.8l5.5-5.5l-1.8-0.8l-20.1-20.1
		l5.5-5.5l0.8,1l20.9,20.1l4.7-5.5l-2.9-2.9l-19.8-19.8l6.3-6.5l11.7,11l20.1,20.1l-8.1,8.9l-20.1,21.1l-11.7-11L121,390.9
		L127.5,383.6L127.5,383.6z M103.7,330.9L103.7,330.9c-1,1-1.8,1.8-2.6,1.8c0,1,0,1.8,0,2.9c0,0,0,0.8,0,2.6c0,1,0.8,1.8,1.6,3.7
		l2.9,6.3c0.8,2.9,1.8,3.7,2.6,4.7c1,1.8,1.8,1.8,2.9,2.6c0,0,1.8,1,2.6,0c1,0,1.8,0,3.7-0.8l5.5-2.9c1.8-0.8,2.9-1.8,3.7-2.6
		c1-1,1-2.9,1-3.7c0-1.8-1-3.7-1.8-6.3l-3.7-6.5c-1-1.8-1.8-3.7-1.8-4.4c-1-1-1.8-1.8-2.9-2.9c-0.8,0-1.8,0-2.6,1c-1,0-1,0-1,0
		l6.5,13.6l-8.3,3.7l-11.7-25.6l12.8-5.2c1.8-1,3.7-1,4.4-1c1.8,0,3.7,0,4.7,1.8c1.8,0.8,2.6,2.6,4.4,4.4c1,1.8,2.9,4.7,3.7,7.3
		l6.3,12.8c1.8,3.7,2.9,6.3,2.9,8.1c0.8,2.9,0.8,4.7,0,6.5c0,2.6-1,3.7-2.9,5.5c-0.8,1.8-2.6,2.6-5.5,3.7l-9.9,5.5
		c-2.6,0.8-5.5,1.6-7.3,1.6c-2.6,0-4.4,0-6.3-0.8c-1.8-0.8-2.9-1.8-4.7-4.4c-1.6-1.8-2.6-4.7-4.4-7.3l-5.5-12.8
		c-1.8-3.7-3.7-7.3-3.7-9.1c-0.8-2.6-0.8-4.4-0.8-6.3c0.8-1,0.8-1.8,1.8-2.9c0-0.8,0.8-1.8,1.8-2.6c1.8-1,2.6-1,4.4-1.8
		c1-1,1-1,1.8-1L103.7,330.9L103.7,330.9z M85.5,258.3v3.4l1.8,29.2l7.3-1v-1.8l-1.8-28.2l8.3-0.8v1.8l1.6,28.2h7.3l-0.8-3.7
		l-1.8-29l9.9-1l1,16.4l1.8,29l-12,1l-29,1.8l-1-16.4l-1.8-28.2L85.5,258.3L85.5,258.3z M87.3,202l5.5-11l21.9,11.7
		c1.8,0,3.7,1,4.4,1c1,0,1.8-1,3.7-1.8c0-1,1.8-2.9,2.9-5.5l2.6-6.5c1.8-1.8,1.8-3.7,2.6-4.4c0-1,0-2.9-0.8-3.7
		c-0.8-1-1.8-1.8-3.7-2.9l-21.9-10.7l5.5-11l25.6,12.8c2.6,0.8,4.4,2.6,5.5,3.7c0.8,1.8,1.8,2.6,1.8,4.4c0.8,1.8,0.8,3.7,0,5.5
		c-1,2.6-1.8,4.4-2.9,7.3l-6.3,12.8c-1.8,3.4-3.7,6.3-5.5,8.1c-0.8,1.8-2.6,3.7-4.4,4.4c-1,1-2.9,1-4.7,1c-1.8,0-4.4-1-6.3-1.8
		L87.3,202L87.3,202z M90.2,187.4l-6.5-2.9l4.7-8.1l6.3,3.7L90.2,187.4L90.2,187.4z M96.4,175.6l-6.3-2.9l3.7-8.1l6.3,3.7
		L96.4,175.6L96.4,175.6z M197.4,135.5l-14.6,10.2h-1.8l-36.3-8.3h0.8l17.2,23.7l-9.9,7.3l-7.3-10.2l-17.2-22.7l14.6-11h1.8
		l35.5,9.1v-0.8l-18.3-22.7l9.9-8.3l7.3,10.2L197.4,135.5L197.4,135.5z M249,108.3L249,108.3l12-31l13.6-1.8l-5.5,12.8l-11.7,31
		l-14.6,1.8l-8.1-12l-18.3-26.3L230,81l0,0L249,108.3L249,108.3z M335.4,99.2l-3.7-1l-27.1-7l-1.8,6.3h1.8l27.1,8.1l-1.8,7.3h-1.8
		l-28.2-7.3l-1.8,6.5l4.7,0.8l27.1,8.3l-2.6,8.9l-15.4-4.4l-27.4-7.3l2.9-11.7l7-28.2l15.7,4.4l28.2,7.3L335.4,99.2L335.4,99.2z
		 M385.5,119.3c2.6,1.8,4.4,3.4,6.3,4.4c1.8,1.8,2.9,3.7,2.9,4.4c0.8,1.8,0.8,3.7,0,5.5c-1,1.8-1.8,3.7-3.7,6.5
		c-1,1.8-1.8,2.6-3.7,3.7c-1,0.8-2.9,1.8-3.7,1.8c-1.8,0-2.9,0-4.7-1c2.9,3.7,2.9,7.3,1,9.9l-5.5,7.3l-9.9-7.3l3.7-5.2
		c0.8-1,0.8-1.8,0.8-1.8c0-1,0-1.8,0-2.9c-0.8,0-1.8-0.8-2.6-1.8l-15.7-11l-5.2,8.3l-10.2-7.3l6.5-10.2l17.2-22.7l3.7,1.8
		L385.5,119.3L385.5,119.3z M378.9,127.4l-16.2-11.7l-5.5,8.1l16.4,11.7c0.8,0,1.8,1,1.8,1c0.8,0,1.6,0,2.6-1c0,0,0.8-0.8,1.8-1.8
		c0.8-1.8,1.8-2.6,0.8-3.7C380.8,129.2,380.8,128.2,378.9,127.4L378.9,127.4z M391.7,160l6.5,11l0,0c-1,1-1.8,1.8-1.8,1.8
		c-1,1-1,1.8,0,2.9c0,0,0,1.6,0.8,2.6l9.1,13.6c0,1,0.8,1.8,1.8,1.8c0.8,1,1.8,0,2.6,0c1-0.8,1.8-0.8,1.8-1.8c0-0.8,0-1.8,0-1.8
		c0-0.8-0.8-1.8-1.8-3.7l-9.9-17.2c-0.8-1.8-1.8-3.7-2.6-5.5c0-1.8,0-2.6,0-4.4c0-1,0.8-1.8,1.8-3.7c0.8-1,2.6-1.8,4.4-3.7
		c2.6-1,4.4-1.8,5.5-1.8c1.8-0.8,3.7-0.8,4.4-0.8c1.8,0.8,3.7,1.6,4.7,3.4c1.8,1,3.7,3.7,5.5,7.3l9.9,16.4c1.8,1.8,2.6,3.7,3.7,5.5
		c0,0.8,0,2.6,0,4.4c0,1-1,2.9-1.8,3.7c-1,1-1.8,1.8-3.7,2.9c0,0.8-1,0.8-1.8,1.8l-6.3-11l0,0c2.6-1,2.6-2.9,1.8-5.5l-8.3-11.7
		c-0.8-1.8-1.8-2.9-1.8-2.9c-0.8-0.8-0.8-1.8-1.8-1.8c-0.8,0-1.8,0-1.8,1c-1.8,0.8-1.8,1.8-1.8,2.6c0,1,0,1.8,1,3.7l11,17.2
		c0.8,1.8,1.8,3.7,1.8,5.5c0.8,1.8,0.8,3.7,0.8,4.7c-0.8,1.8-1.8,2.6-2.6,4.4c-1,1-2.9,1.8-4.7,3.7c-1.8,0.8-2.6,1.8-4.4,1.8
		c-1,0-1.8,0.8-3.7,0.8c-1,0-1.8-0.8-3.7-0.8c0-1-1.8-1.8-1.8-1.8c-1.8-1.8-1.8-2.6-3.7-3.7c-0.8-0.8-1.8-2.6-2.6-4.4l-9.1-14.6
		c-1.8-2.9-2.9-5.5-3.7-7.3c-1-1.8-1.8-3.7-1.8-5.5c0-0.8,0.8-2.6,1.8-3.7c0.8-0.8,1.8-2.6,3.7-3.7C389.9,161.8,390.9,161,391.7,160
		L391.7,160z M417.3,266.4l-1-12.8h1.8l30-1.8l-1.8-17.2l10.2-1l0.8,18.3L459,281h-9.1l-1.8-17.5l-1.8,1L417.3,266.4L417.3,266.4z
		 M435.3,340l1-2.6l7.3-28.2l-6.5-1.8v1.8l-8.1,27.1l-7.3-1.8v-1.8l7.3-27.1l-6.3-1.8l-1,3.7l-8.1,27.1l-9.1-1.8l4.4-16.4l7.3-27.1
		l12,3.7l28.2,7.3l-4.7,15.4l-7.3,27.1L435.3,340L435.3,340z M411.8,346.3l-7.3,10.2h-0.8c-1-1-1.8-1.8-2.9-1.8c0,0-0.8,0.8-1.8,0.8
		c0,1-0.8,1.8-1.8,2.9l-9.9,12.5c-1,1-1,1.8-1,2.9c0,0.8,0,1.8,1,2.6c0.8,1,1.8,1,2.6,1c1,0,1-1,1.8-1c1-0.8,1.8-1.8,2.9-2.6
		l11.7-15.4c1.8-1.8,2.6-3.7,4.4-4.7c1-0.8,2.9-1.8,3.7-1.8c1.8,0,2.9,0,4.7,1c1.8,0,2.6,1.8,5.5,2.6c1.8,1.8,2.6,2.9,3.7,4.7
		c0.8,0.8,1.8,2.6,1.8,3.7c0,1.8,0,3.7-1,5.2c-0.8,2.9-2.6,4.7-4.4,8.3l-12,15.4c-1.8,1.8-2.6,2.9-4.4,3.7c-1,1.8-1.8,1.8-3.7,2.6
		c-1.8,0-2.6,0-4.4,0c-1-0.8-2.9-1.8-4.7-2.6c0,0-0.8-0.8-0.8-1.8l6.3-9.1h1c1.8,1.8,3.4,1,5.2-0.8l9.1-12c0-0.8,1-1.8,1.8-2.6
		c0-1,0-1,0-1.8c0-0.8-0.8-0.8-0.8-1.8c-1-0.8-2.9-0.8-2.9-0.8c-0.8,0-1.8,0.8-3.7,2.6l-12.5,16.4c-1,1.8-2.9,2.6-3.7,3.7
		c-1.8,1.8-3.7,1.8-4.7,1.8c-1.8,0.8-2.6,0-4.4,0c-1.8-1-3.7-1.8-5.5-3.7c-1-1-2.9-1.8-3.7-2.9c-0.8-0.8-0.8-1.8-1.8-3.7
		c0-0.8,0-1.8,0-3.7c0-0.8,0-1.8,1-2.6c0-1,0.8-2.9,1.6-3.7c1-1.8,1.8-2.6,3.7-4.4l10.2-13.8c1.8-2.6,3.7-4.4,5.5-6.3
		c0.8-1,2.6-2.9,3.7-2.9c1.8-0.8,2.6-0.8,4.4-0.8c1.8,0.8,3.7,0.8,4.4,2.6C410,344.4,410.8,345.5,411.8,346.3L411.8,346.3z
		 M208.3,451.6l-7-2.9l0.3-1.3l6.8-17.2l-10.2,2.6l-2.1-6.5l13.3-2.6l8.3,3.4l-2.6,7L208.3,451.6L208.3,451.6z M262.3,442.8l-1,10.2
		c0,1.6-0.3,3.1-0.8,4.2c-0.3,1-1.3,1.6-2.3,2.3c-1,0.5-2.3,0.8-4.2,1c-1.6,0-3.7,0-6-0.3l-7.3-0.5c-2.3,0-4.2-0.3-5.5-1
		c-1.3-0.5-2.3-1.3-2.9-2.3c-0.8-1-0.8-2.3-0.8-3.7c0-0.5,0-1,0.3-1.6l7,0.5c0,0.8,0.3,1.3,0.8,2.1c0.5,0.3,1.3,0.5,2.6,0.8l7.3,0.3
		c1.6,0.3,2.6-0.3,3.4-0.5c0.5-0.5,1-1.3,1-2.6l0.3-2.9c-0.5,0.3-1,0.8-1.6,0.8c-0.5,0.5-1.3,0.8-2.1,0.5c-0.8,0.3-1.6,0.3-2.9,0
		l-5.7-0.5c-1.6,0-3.1,0-4.2-0.3c-1.3-0.3-2.3-0.8-3.1-1.3c-0.8-0.5-1.3-1.3-1.8-1.8c-0.3-0.8-0.3-1.8-0.3-2.9l0.3-5.2
		c0.3-1.8,1-3.4,2.1-3.9c1.8-1,3.7-1.3,6.3-1l11.7,0.8c1.8,0,3.1,0.3,4.2,0.5c1.3,0.8,2.3,1,3.1,1.8c0.8,1,1,1.8,1.6,2.9
		C262.3,440.2,262.3,441.5,262.3,442.8L262.3,442.8z M251.4,439.4l-7.3-0.5c-1.3-0.3-2.1,0-2.9,0.5c-0.8,0.5-1,1-1,2.1
		c0,0.5,0.3,1,0.3,1.6c0.3,0.5,0.5,0.5,1,0.8c0.5,0,1.3,0.5,2.1,0.5l7.6,0.3c1,0.3,2.1,0,2.6-0.3c0.5-0.5,0.8-1,1-1.8
		c0-1-0.3-1.8-0.8-2.3C253.5,439.6,252.7,439.4,251.4,439.4L251.4,439.4z M276.7,453.5l7.3-1v0.3c0.3,0.5,0.5,1,0.5,1
		c0.5,0.5,1,0.5,1.6,0.8c0.5,0,1.6,0,2.3,0l8.1-1c1-0.3,1.8-0.5,2.3-0.8c0.3-0.8,0.8-1.3,0.5-2.3l-0.3-1.8c0-0.8-0.3-1-1-1.3
		c-0.8-0.5-1.8-0.5-3.1-0.3l-8.3,1c-1,0-1.3,0.3-1.8,0.5c-0.3,0.3-0.5,0.5-0.5,1l-6.8,1l-2.1-15.9l9.9-1.3l18.3-2.1l0.8,5.5
		l-3.1,0.5l-18.5,2.1l0.8,5c0.5-0.8,1.3-1,2.3-1.6c0.8-0.3,2.1-0.5,3.9-0.8l7-1c2.1-0.3,3.9-0.3,5.2,0c1.3,0.5,2.3,1,2.9,1.8
		c1,0.8,1.3,2.1,1.6,3.7l0.5,4.2c0.3,1.3,0,2.3,0,3.4c-0.5,0.8-1,1.8-1.8,2.3c-0.5,0.5-1.6,1.3-2.9,1.6c-1.3,0.5-2.9,0.8-4.4,0.8
		l-9.1,1.3c-2.1,0.3-3.9,0.3-5,0.3c-1.6,0-2.6-0.3-3.7-0.5c-0.8-0.5-1.6-1-2.1-2.1c-0.5-0.8-0.8-2.1-1-3.1
		C276.9,454,276.9,453.7,276.7,453.5L276.7,453.5z M320.5,446.4l6.8-2.3v0.3c0.3,0.5,0.8,0.8,1,1c0.3,0,1,0,1.6,0
		c0.5,0,1.6-0.3,2.1-0.5l7.6-2.9c1-0.5,1.8-0.8,2.1-1.6c0.3-0.5,0.5-1,0-2.1l-0.5-1.6c-0.3-0.8-0.8-1.3-1.6-1.3
		c-0.8-0.3-1.8,0-2.9,0.5l-8.3,3.1c-0.5,0.3-1,0.5-1,1c-0.5,0.3-0.5,0.5-0.5,1.3l-6.5,2.3l-5.7-14.9l9.4-3.7l17.2-6.5l2.1,5.2
		l-2.9,1l-17.2,6.5l1.6,4.7c0.5-0.8,1-1.3,1.8-2.1c1-0.5,2.1-1,3.7-1.8l6.8-2.3c1.8-0.8,3.7-1.3,5-1.3c1.6-0.3,2.6,0.5,3.4,0.8
		c1.3,0.8,1.8,1.8,2.3,3.1l1.6,4.2c0.5,1,0.5,2.1,0.5,3.4c0,0.8-0.3,1.8-1,2.3c-0.5,1-1.3,1.8-2.3,2.3c-1,0.5-2.6,1.6-4.2,2.1
		l-8.6,3.4c-2.1,0.8-3.7,1.3-5,1.3c-1.3,0.5-2.3,0.5-3.4,0.3c-1,0-1.8-0.5-2.6-1.3c-0.5-0.5-1.3-1.6-1.6-2.9
		C320.8,447.2,320.5,446.7,320.5,446.4L320.5,446.4z"/>
</g>
</svg>
