<?xml version="1.0" encoding="utf-8"?>
<!-- Generator: Adobe Illustrator 23.0.1, SVG Export Plug-In . SVG Version: 6.00 Build 0)  -->
<svg version="1.1" id="Layer_1" xmlns="http://www.w3.org/2000/svg" xmlns:xlink="http://www.w3.org/1999/xlink" x="0px" y="0px"
	 viewBox="0 0 179.5 178.8" style="enable-background:new 0 0 179.5 178.8;" xml:space="preserve">
<style type="text/css">
	.st0{fill:#3B348C;}
</style>
<path class="st0" d="M173,55.6c-9.1,11.7-18.1,23.4-27.1,35.1c-10.7,12.7-17.9,27.7-31.2,38.4c-3.2,1.3-6.1,3.9-9.4,4.1
	c7.8-11.1,16.2-21.3,24.5-32.2v-3.8c13.1-16.9,26-33.9,38.6-50.9c-2.1-3.7-4.3-7.6-7.2-10.8c-10.6,13.9-21.1,28.1-32.6,41.5
	c-1.5-2.9-2.9-5.8-4.3-8.6c9.6-13.7,21-26.7,31.2-40.1c-3-3-5.9-6-9.2-8.2c-10.1,13-20.2,26.2-30.4,38.9l-6.8-5.5l30.3-38.7
	c-3.3-2.5-7.1-4-10.6-6L97.4,48.9c-3.3-0.7-6.9-0.6-10.3-0.9l32.8-42.8c-3.9-1.4-8.1-2.9-12.2-3.3c-13.2,16.9-27,33.9-39.4,51.3
	l-3.8,1.2C57,63.5,50.3,73.2,42.7,82c0.8-15.7,14.2-26.8,22.5-39.8L98.1,0.4c-20.3-1.9-39,3-55.2,12.5c-31,19.4-46.5,52.4-42.2,88.6
	C3.8,133,29.9,164.7,60.4,174c35.5,11.7,74.2,1.5,98.4-27.4C179.4,122.8,185.5,85.1,173,55.6z M41.5,89.7
	c9.1-11,16.7-22.6,25.9-33.6c4.5-2.2,9-4.5,14.4-4.5C69.2,68.4,56.2,85,43.4,101.7C40.9,98.7,41.1,93.9,41.5,89.7z M54.4,122.4
	c-2.6-1.3-4.7-4-6-6.5l18.5-25l30-38.9c3.2,0.3,6.3,1,8.6,3.4l-0.7,1.4L54.4,122.4z M64.5,131c6-9.7,13.3-18.8,20.4-28.1
	c9.8-13.8,20.6-27.2,31-40.8c2.2,2.3,3.6,5.4,5.7,7.9c-6.4,9.1-13.4,18-20.1,26.9c-10.3,12.3-18.9,25.3-28.8,37.7
	C69.5,134.4,67.2,132.2,64.5,131z M85.1,137l33.4-43.9l8.4-10.1l0.5,0.7c0.3,4.2,0.5,9-0.3,13L96.2,137
	C92.5,137,88.7,138.1,85.1,137z"/>
</svg>
