<?xml version="1.0" encoding="utf-8"?>
<!-- Generator: Adobe Illustrator 23.0.1, SVG Export Plug-In . SVG Version: 6.00 Build 0)  -->
<svg version="1.1" id="layer" xmlns="http://www.w3.org/2000/svg" xmlns:xlink="http://www.w3.org/1999/xlink" x="0px" y="0px"
	 viewBox="0 0 652 652" style="enable-background:new 0 0 652 652;" xml:space="preserve">
<style type="text/css">
	.st0{fill:#B5A169;}
	.st1{fill:#FFFFFF;}
	.st2{fill-rule:evenodd;clip-rule:evenodd;fill:#B5A169;}
	.st3{fill:#001F5B;}
	.st4{fill-rule:evenodd;clip-rule:evenodd;fill:#001F5B;}
	.st5{fill:none;stroke:#FFFFFF;stroke-width:1.7364;}
</style>
<g>
	<path class="st0" d="M326,9.9C151.8,9.9,9.9,151.6,9.9,326c0,174.2,141.8,316.1,316.1,316.1c174.2,0,316.1-141.8,316.1-316.1
		S500.4,9.9,326,9.9"/>
	<path class="st1" d="M327.5,482.1l3.2-1.2c3.9-1.3,16.4-5.9,32.2-15.2c38.6-22.5,96.7-78.3,96.7-174.4l0.5-83.8h-65l-0.1-3.1
		l-0.6-16.3c-0.4-4.5-3.1-6.7-4.1-8c-1-1.3-2.8-3.5-2.8-5.1l-1-10.1c0,0,0.9-4.6,3-6.2c2.1-1.5,4.8-6.5,4-9.5v-6.4l-43.4,0.3v-12.7
		h-44l-0.3,11.9l-43.4,0.5v6.4c-0.6,2.8,1.9,6.2,4,7.7c2.1,1.5,3,7.8,3,7.8l-1,10.1c0,1.5-1.8,3.9-2.8,5.1c-1,1.3-3.9,3.5-4.2,8
		l-0.6,16.3l0.5,3.1h-65.5l-0.5,83.8c0,95,57.5,150.9,96.2,173.7c16.4,9.6,29.4,14.5,33.4,15.8L327.5,482.1z"/>
	<path class="st2" d="M221.4,369.9c-12.5-29-14.9-46-15.3-74.9h242.2c0,23.1-3.7,46.4-15.4,74.9H221.4z"/>
	<path class="st1" d="M504,404.8c-3.7-2.2-2.6-1.5-9.2-5.5c10-18,18.1-51,19.3-64.3c-6.3,6.7-16.1,13.2-25.3,22.7
		c-1.4-4.8-3.6-21.4-9.9-31.7c-4.9,28.8-29.3,71.3-33.6,79.9c-2.2,4.4-2.2,4.4,3,7.7l3.6,5.8c-31.3,32.9-61.1,49.9-91.8,53
		c-16.2,9.2-25.8,10.1-29.7,11.4L327,485l-3.2-1.2c-4-1.4-13.1-1.8-29.8-11.6c-33.1-3.1-65-23.4-91.5-54.4l8.3-7.6
		c3.6-2.3,0.8-1.5,0-2.8c-5.1-8.1-30-49.3-34.8-78.1c-6.3,10.3-9,23.5-10.5,28.2c-9.2-9.5-16.8-17.1-23.1-23.8
		c1.2,13.2,7.7,47.3,17.7,65.4c-6.7,4.1-5.5,3.3-9.2,5.5s-5.1,4.8-0.8,12.6c30.6,53.3,76.5,82.3,139.2,99.1c0,4.1-3.5,7.3,4.8,8.9
		c8.1,1.5,18.1,2.2,33.3,2.2s25.2-0.8,33.4-2.2c8.1-1.4,4.8-4.8,4.8-8.9c62.8-16.8,108.6-45.8,139.3-99.1
		C509.2,409.6,507.7,407,504,404.8"/>
	<path class="st3" d="M326,13.2c172.7,0,312.7,140,312.7,312.7S498.7,638.5,326,638.5S13.3,498.6,13.3,325.9
		C13.3,153.3,153.4,13.2,326,13.2 M326,5C149.1,5,5,149.1,5,326s144.1,321,321,321s321-144.1,321-321C647,148.9,503.1,5,326,5"/>
	<path class="st3" d="M240,360.4h-17.3v-17.3H240V360.4z M240,322.1h-17.3v-17.3H240V322.1z M259.1,341.3h-17.3v-17.3h17.3V341.3z
		 M278.2,360.4h-17.3v-17.3h17.3V360.4z M278.2,322.1h-17.3v-17.3h17.3V322.1z M297.4,341.3H280v-17.3h17.3V341.3z M316.5,360.4
		h-17.3v-17.3h17.3V360.4z M316.5,322.1h-17.3v-17.3h17.3V322.1z M335.6,341.3h-17.3v-17.3h17.3V341.3z M354.8,360.4h-17.3v-17.3
		h17.3V360.4z M354.8,322.1h-17.3v-17.3h17.3V322.1z M373.9,341.3h-17.3v-17.3h17.3V341.3z M393,360.4h-17.3v-17.3H393V360.4z
		 M393,322.1h-17.3v-17.3H393V322.1z M412.2,341.3h-17.3v-17.3h17.3V341.3z M431.3,360.4H414v-17.3h17.3V360.4z M431.3,322.1H414
		v-17.3h17.3V322.1z"/>
	<rect x="337.4" y="304.8" class="st3" width="17.3" height="17.3"/>
	<rect x="337.4" y="343.1" class="st3" width="17.3" height="17.3"/>
	<rect x="356.6" y="323.9" class="st3" width="17.3" height="17.3"/>
	<rect x="375.7" y="304.8" class="st3" width="17.3" height="17.3"/>
	<rect x="375.7" y="343.1" class="st3" width="17.3" height="17.3"/>
	<rect x="394.8" y="323.9" class="st3" width="17.3" height="17.3"/>
	<rect x="414" y="304.8" class="st3" width="17.3" height="17.3"/>
	<rect x="414" y="343.1" class="st3" width="17.3" height="17.3"/>
	<rect x="222.6" y="304.8" class="st3" width="17.3" height="17.3"/>
	<rect x="222.6" y="343.1" class="st3" width="17.3" height="17.3"/>
	<rect x="280" y="323.9" class="st3" width="17.3" height="17.3"/>
	<rect x="260.9" y="304.8" class="st3" width="17.3" height="17.3"/>
	<rect x="260.9" y="343.1" class="st3" width="17.3" height="17.3"/>
	<rect x="299.2" y="304.8" class="st3" width="17.3" height="17.3"/>
	<rect x="299.2" y="343.1" class="st3" width="17.3" height="17.3"/>
	<rect x="318.3" y="323.9" class="st3" width="17.3" height="17.3"/>
	<rect x="241.8" y="323.9" class="st3" width="17.3" height="17.3"/>
	<path class="st3" d="M405.2,295.3h5.3v-16.9c-1.7,1-3.5,1.9-5.3,2.6V295.3z"/>
	<path class="st3" d="M244.9,295.3h5.3v-13.6c-1.8-0.5-3.6-1.3-5.3-2.2V295.3z"/>
	<path class="st3" d="M329.9,386.1v-16.2h-5.9v16.2c1-0.1,1.9-0.3,3-0.3C327.9,385.8,328.8,386,329.9,386.1"/>
	<path class="st3" d="M450.7,216.5H203.9v78.8c0,128.8,109.9,170.6,122.5,175l1,0.4l1-0.4c12.5-4.4,122-46,122.5-174.2v-77.9
		L450.7,216.5z M445.2,295.3c0,10.1-0.9,19.6-2.3,28.8H433v17.3h6.5c-6,24.5-16.7,44.6-29.1,61V370h-5v38.6
		c-11.2,13.5-23.4,24.1-35.1,32.5l0.1-71h-5.3l-0.1,74.7c-15,10-28.1,15.9-35.3,18.9v-29.1c-1,0.1-1.9,0.3-3,0.3s-1.9-0.1-3-0.3
		v28.8c-7.3-3-19.8-8.7-33.8-18.1v-75.1h-5.3v71.5c-11.6-8.2-23.8-18.7-35.1-32.1l0.1-39.3h-5l-0.1,33
		c-12.6-16.6-23.5-36.7-29.7-61.6h6.4v-17.3h-9.6c-1.3-9.1-2.3-18.5-2.3-28.8v-73.1h35.2v14.8c1.7-0.9,3.5-1.7,5.3-2.2v-12.6h34.9
		v73.1h5.3v-73.1h34l-0.1,73.1h5.3l0.1-73.1h35.7v73.1h5.3v-73.1h34.9v13.1c1.8,0.6,3.6,1.5,5.3,2.6v-15.7h34.5L445.2,295.3
		L445.2,295.3z"/>
	<path class="st3" d="M507.7,403.3c-3.9-2.3-2.7-1.5-9.5-5.8c10.3-18.6,16.9-55.6,18.1-69.3c-6.4,6.9-16.9,15.3-26.5,25.2
		c-1.5-4.9-5.3-22.5-11.7-33.1c-4.9,29.7-28,73.4-33.3,81.9c-5.3,8.3-3.3,10.3,1.9,13.7l2.7,1.9c-32,33.9-55.7,46.7-85.5,51.2
		c-16.4,9.6-29.5,14.4-33.5,15.8l-3.3,1.2l-3.2-1.2c-4.1-1.4-17.7-6.4-34.8-16.6c-30.2-5.4-54.8-19.4-82-51.4l6-3.5
		c3.7-2.4,0-8.6-0.8-9.9c-5.3-8.3-30.6-51.4-35.6-81.1c-6.4,10.7-10.1,25.9-11.7,30.8c-9.5-9.9-20-18.2-26.5-25.2
		c1.2,13.7,8,50.6,18.1,69.3c-6.8,4.2-5.6,3.5-9.5,5.8c-3.7,2.3-5.3,5-0.8,13c31.2,55,76,84.6,140.1,102.1c0,4.2-1.5,8,6.8,9.5
		c8.3,1.5,18.5,2.3,34,2.3c15.5,0,25.8-0.8,34-2.3c8.3-1.5,6.8-5.3,6.8-9.5c64.1-17.3,108.9-47,140.1-102.1
		C513,408.3,511.4,405.6,507.7,403.3 M479.7,337.8c4.1,8,6.4,19.8,8,25.2c6.8-5.3,16.9-14.5,20.8-18.2c-2.7,11.8-6,35.4-14.3,48.3
		c-8-4.9-10.5-7.2-14.4-9.9c-3.7-2.7-6.4-1.8-11.8,5c-5.3,6.8-10.5,11-16.2,15.3C460.8,386.9,477.4,351.9,479.7,337.8 M146.5,344.6
		c3.7,3.9,14,13,20.8,18.2c1.5-5.3,3.7-14.9,8-22.9c2.3,14.1,21.2,48.4,30.2,64.7c-5.6-4.2-12.3-11.9-17.6-18.7
		c-5.3-6.8-9-5.6-12.7-3s-6.4,5-14.4,9.9C152.5,380.1,149.2,356.4,146.5,344.6 M283.6,482.1c0.9,6.8,2.4,19.6,3,29
		c-62.7-13.1-110.6-54.4-132.1-93.1c-4.1-7.4-7.6-8.5-2.6-11.4c2.7-1.5,21.4-14.1,23.8-16.4c0.4-0.4,1.3-4.4,6.4,1.9
		c27.1,32.5,48.9,72.2,112,82.4C287.6,476.4,283.2,478.8,283.6,482.1 M364.9,493.6c-0.8,7.3-1.5,18.4-1.5,23.2c0,5-2.7,5.8-6.4,6.2
		c-3.7,0.4-19.3,1.9-29.5,1.9c-10.1,0-25.7-1.5-29.4-1.9s-6.4-1.2-6.4-6.2c0-4.9-0.8-15.9-1.5-23.2c-0.9-9-1.8-9.2,4.9-8.2
		c4.9,0.8,32.5,1.5,32.5,1.5s27.6-0.8,32.5-1.5C366.7,484.3,365.8,484.6,364.9,493.6 M500.4,418.2c-21.6,38.6-69.3,80-132,93.1
		c0.5-9.4,2.1-22.3,3-29c0.4-3.3-4.1-5.6-10.4-7.3c53.4-8.3,83.3-37.7,113.1-81.8c4.5-6.7,6-2.3,6.4-1.9
		c2.3,2.3,19.4,14.1,22.1,15.7C507.3,409.6,504.6,410.7,500.4,418.2"/>
	<path class="st3" d="M327,486l3.3-1.2c4-1.4,17.1-6.2,33.5-15.8c40.2-23.4,100.9-75.4,100.9-175.3v-90.1h-67.7l0.4-0.3l-0.8-16.9
		c-0.4-4.6-3.2-6.9-4.4-8.3c-1-1.3-2.8-3.6-2.8-5.3l-1-10.7c0,0,2.8-4,5-5.6c2.2-1.7,3-7.7,2.2-10.7v-6.7h-43.7v-13h-49.2v13h-43.7
		v6.7c-0.8,3,0,9,2.2,10.7c2.2,1.7,5,5.6,5,5.6l-1,10.7c0,1.7-1.8,4-2.8,5.3c-1.2,1.3-4,3.7-4.4,8.3l-0.6,16.9l0.1,0.3h-68.2v90.1
		c0,99,59.6,150.9,99.8,174.6c17.1,10,30.7,15,34.8,16.6L327,486z M389.6,203.5h-36.7l0.4-10.5h36L389.6,203.5z M388.9,186.7v1.4
		h-35.6v-1.4c0.3-4.1,2.8-6.2,3.9-7.3c0.4-0.5,1-1.3,1.5-2.1h24.7c0.5,0.8,1,1.5,1.5,2.1C386.1,180.4,388.5,182.4,388.9,186.7
		 M358.6,165.6h23.2l0.5,6.7h-22.7L358.6,165.6z M351.7,147.5v-2.7h6v3.9h8.6v-3.9h6.7v3.9h8.6v-3.9h6.3v2.7c0.6,2.7,0,8-1.9,9.4
		c-1.2,0.9-2.6,2.6-3.5,3.7h-25.4c-0.9-1.2-2.3-2.8-3.5-3.7C351.7,155.5,351,150.2,351.7,147.5 M308.4,135.7v-2.3h7.7v4.4h7.2v-4.4
		h7.8v4.4h7.2v-4.4h7.7v2.3c0.6,2.7-3,8-4.9,9.4c-0.8,0.6-1.5,1.7-2.1,2.6h-23.8c-0.5-0.9-1.2-1.9-2.1-2.6
		C311.4,143.7,307.8,138.3,308.4,135.7 M339.2,164.6h-23.9l0.8-12.1h22.3L339.2,164.6z M310.3,172.6v-4.5h6v4.5h6.7v-4.5h8.6v4.5
		h6.7v-4.5h6v4.5h6.3v-4.5h4.2l0.9,5.4c0,1.5-1.7,3.9-2.7,5c-1,1.3-3.9,3.5-4.1,8l-0.6,17.1h-11.6v-14.1c0-5.1-4.1-9.2-9.2-9.2
		c-5.1,0-9.2,4.1-9.2,9.2v14.1h-11.6l-0.6-17.1c-0.4-4.4-3.1-6.7-4.1-8c-1-1.3-2.7-3.5-2.7-5l0.9-5.4h4.2v4.5H310.3z M266.8,147.5
		v-2.7h6.4v3.9h8.6v-3.9h6.7v3.9h8.6v-3.9h6v2.7c0.6,2.7,0,8-1.9,9.4c-1.2,0.9-2.6,2.6-3.5,3.7h-25.4c-0.9-1.2-2.3-2.8-3.5-3.7
		C266.8,155.5,266.2,150.2,266.8,147.5 M296.1,165.6l-1,7.3h-22.7l0.5-7.3H296.1z M265.9,186.7c0.3-4.1,2.8-6.2,3.9-7.3
		c0.4-0.4,0.8-0.9,1.2-1.4h25.6c0.4,0.5,0.8,1,1.2,1.4c0.9,1.2,3.5,3.2,3.9,7.3v1.4h-35.6L265.9,186.7z M265.7,193h36l0.4,10.5
		h-36.7L265.7,193z M197.5,293.8V212h258.9v81.8c0,112.1-79.5,161.1-114.3,177.2c-7.2,3.3-12.5,5.3-14.8,6l-0.4,0.1l-0.6-0.3
		c-2.3-0.8-7.6-2.7-14.8-6C276.8,454.7,197.5,405.6,197.5,293.8"/>
	<path class="st4" d="M272.7,258.5c0,9-7.2,16.2-16.2,16.2c-9,0-16.2-7.2-16.2-16.2c0-9,7.3-16.2,16.2-16.2
		C265.5,242.3,272.7,249.5,272.7,258.5"/>
	<path class="st4" d="M413.2,258.5c0,9-7.2,16.2-16.2,16.2s-16.2-7.2-16.2-16.2c0-9,7.2-16.2,16.2-16.2S413.2,249.5,413.2,258.5"/>
	<path class="st4" d="M342.9,410.2c0,9-7.3,16.2-16.2,16.2c-9,0-16.2-7.2-16.2-16.2c0-9,7.3-16.2,16.2-16.2S342.9,401.2,342.9,410.2
		"/>
	<polygon class="st3" points="184.1,411.8 186.6,415.8 164.5,421 162.2,417.3 176.5,399.6 179.1,403.7 167.7,416.4 	"/>
	<polygon class="st3" points="195.5,432.3 188.1,423.7 184.8,426.7 191.6,434.6 188.7,437.1 181.9,429.2 177.7,432.8 185.5,441.8 
		182.6,444.4 171.9,432.1 188.1,417.8 198.5,429.9 	"/>
	<path class="st4" d="M202.9,440l-4.1,4.1l3.6,3.6c0.6,0.6,1.3,1.2,1.8,1.4c0.9,0.4,1.8,0.1,2.7-0.8c0.9-0.9,1.3-1.8,0.9-2.8
		c-0.1-0.5-0.6-1.2-1.3-1.8L202.9,440z M211.9,444.5c0.4,0.9,0.5,1.7,0.4,2.6c0,0.8-0.3,1.4-0.5,2.1c-0.3,0.6-0.8,1.3-1.3,1.9
		c-0.8,0.8-1.7,1.3-2.7,1.5c-1,0.4-2.2,0.3-3.2-0.4c0.4,0.9,0.5,1.9,0.3,2.7c-0.3,0.8-0.9,1.8-1.9,2.8l-1,1
		c-0.6,0.8-1.2,1.2-1.3,1.5c-0.3,0.5-0.4,1-0.3,1.4l-0.4,0.4l-3.5-3.5c0.3-0.4,0.4-0.8,0.6-1c0.4-0.5,0.8-1,1.2-1.4l1.4-1.4
		c0.9-1,1.4-1.8,1.4-2.4s-0.5-1.4-1.4-2.4l-3.3-3.3l-5.9,6l-3.1-3.1l15.2-15.3l7.4,7.4C211,442.7,211.6,443.7,211.9,444.5"/>
	<polygon class="st3" points="209.5,469.4 205.9,466.7 218.5,449.3 222.1,451.8 	"/>
	<polygon class="st3" points="240.1,464.2 238.2,467.4 232.7,463.9 223.3,479.1 219.4,476.6 228.8,461.5 223.4,458.1 225.5,454.8 	
		"/>
	<path class="st4" d="M240.9,479.8l4.9,2.6l1.4-8.9L240.9,479.8z M247.3,468l4.5,2.3l-3,22.7l-4.4-2.2l0.8-4.6l-7.1-3.6l-3.3,3.2
		l-4.2-2.2L247.3,468z"/>
	<path class="st3" d="M259.4,490.2c-0.1,1-0.1,1.8,0.1,2.3c0.4,1.2,1.4,1.9,3.1,2.4c1,0.4,1.9,0.5,2.6,0.5c1.3,0,2.2-0.6,2.6-1.8
		c0.3-0.6,0.1-1.3-0.4-1.9c-0.5-0.5-1.3-1.2-2.4-1.9l-2.1-1.2c-1.9-1.2-3.3-2.2-3.9-3c-1-1.4-1.3-3.1-0.6-5.1c0.5-1.8,1.7-3.2,3.5-4
		c1.7-0.8,3.9-0.8,6.4,0.1c2.2,0.6,3.9,1.8,5,3.6c1.2,1.7,1.4,3.6,0.8,5.8l-4.1-1.3c0.4-1.3,0.1-2.3-0.8-3.2c-0.5-0.5-1.3-1-2.3-1.3
		c-1.2-0.4-2.1-0.4-2.8-0.1c-0.8,0.3-1.3,0.8-1.5,1.5c-0.3,0.8-0.1,1.4,0.5,1.9c0.4,0.4,1.2,0.9,2.4,1.8l3.2,2.1
		c1.4,0.9,2.4,1.8,3.1,2.6c0.9,1.4,1,3,0.5,4.8c-0.6,1.9-1.8,3.2-3.7,4c-1.8,0.8-4,0.8-6.7-0.1s-4.6-2.2-5.6-3.9
		c-1.2-1.8-1.3-3.7-0.6-5.8L259.4,490.2z"/>
	<polygon class="st3" points="394.7,473.9 399.1,472.2 399.8,495.1 395.8,496.6 381.5,479.1 386,477.4 396.1,491 	"/>
	<polygon class="st3" points="418.1,486.8 414,488.7 404.6,469.2 408.6,467.2 	"/>
	<path class="st4" d="M421.3,464.4l3.1,4.9l4.4-2.7c0.9-0.5,1.4-1,1.7-1.5c0.5-0.8,0.5-1.8-0.1-2.8c-0.6-1.2-1.5-1.7-2.4-1.5
		c-0.5,0-1.3,0.4-2.1,0.9L421.3,464.4z M427.8,456.6c0.9-0.1,1.7-0.1,2.6,0.3c0.6,0.3,1.3,0.5,1.9,0.9c0.6,0.4,1.2,1,1.5,1.7
		c0.5,0.9,0.9,1.9,0.9,3c0.1,1.2-0.3,2.2-1,3.2c1-0.3,1.9-0.1,2.7,0.4c0.8,0.4,1.5,1.3,2.3,2.6l0.8,1.3c0.5,0.8,0.9,1.4,1.2,1.7
		c0.4,0.4,0.9,0.6,1.3,0.6l0.3,0.4l-4.2,2.7c-0.4-0.4-0.6-0.6-0.9-0.8c-0.4-0.4-0.8-0.9-1.2-1.5l-1-1.7c-0.8-1.2-1.4-1.8-2.1-1.9
		c-0.6-0.1-1.5,0.1-2.6,0.8l-4,2.4l4.5,7.2l-3.7,2.3l-11.4-18.4l8.9-5.6C425.8,457.1,426.9,456.7,427.8,456.6"/>
	<polygon class="st3" points="447.1,439.6 449.6,442.5 444.8,446.7 456.3,460.2 453,463.1 441.3,449.6 436.4,454 434,451.1 	"/>
	<path class="st3" d="M451.7,434.8l3.2-3.2l9.5,9.2c1,1,1.9,1.7,2.7,1.9c1.3,0.5,2.4,0,3.7-1.3c1.3-1.3,1.7-2.6,1.2-3.9
		c-0.3-0.6-0.9-1.7-1.9-2.7l-9.5-9.2l3.2-3.3l9.5,9.2c1.7,1.5,2.7,3.1,3.1,4.5c0.8,2.6-0.1,5.3-2.7,8c-2.6,2.7-5.1,3.7-7.8,3.1
		c-1.4-0.4-3-1.3-4.6-3L451.7,434.8z"/>
	<path class="st3" d="M481.5,422.4c0.9,0.5,1.7,0.6,2.2,0.6c1.2,0,2.2-0.9,3.2-2.3c0.6-0.9,1-1.7,1.2-2.3c0.4-1.3,0-2.3-1-3
		c-0.6-0.4-1.3-0.5-1.9-0.1c-0.6,0.3-1.5,0.9-2.4,1.8l-1.7,1.5c-1.7,1.5-3.1,2.6-4,3c-1.7,0.6-3.3,0.4-5-0.9c-1.5-1-2.4-2.6-2.7-4.5
		c-0.3-1.9,0.4-4,1.9-6.2c1.3-1.8,3-3.1,4.8-3.7c1.9-0.6,3.9-0.3,5.8,0.9l-2.4,3.6c-1.2-0.6-2.2-0.8-3.2-0.1
		c-0.6,0.4-1.4,0.9-1.9,1.8c-0.6,0.9-1,1.8-1,2.7c0,0.9,0.3,1.5,1,1.9c0.6,0.4,1.3,0.5,2.1,0.1c0.5-0.3,1.3-0.8,2.3-1.8l2.8-2.6
		c1.3-1.2,2.4-1.8,3.3-2.2c1.5-0.5,3.1-0.1,4.8,0.9c1.5,1.2,2.4,2.7,2.7,4.8c0.1,2.1-0.5,4.1-2.1,6.4c-1.7,2.3-3.3,3.7-5.4,4.4
		c-1.9,0.6-3.9,0.3-5.6-1L481.5,422.4z"/>
	<path class="st3" d="M294.3,499.9l0.3-2.8c1.3,0,2.2,0,2.8,0c0.9-0.1,1.5-0.4,2.2-0.9c0.4-0.4,0.8-0.8,0.9-1.4
		c0.1-0.4,0.3-0.6,0.3-0.9l3.5,0.4l-1.8,21.3l-4.2-0.4l1.3-14.8L294.3,499.9z"/>
	<path class="st3" d="M324.3,499.1c-0.6,0.6-1.5,1.7-2.7,3.2c-1.2,1.5-2.2,3.1-3.1,4.8c-0.6,1.3-1.3,2.8-1.8,4.8
		c-0.6,1.9-0.9,3.5-0.9,4.6l-4.4-0.3c0.4-3.9,1.8-7.7,4.4-11.8c1.7-2.4,3-4.2,4.1-5.1l-10.5-0.6l0.3-3.7l15,0.8L324.3,499.1z"/>
	<path class="st4" d="M332.7,512.8c0.6,0.5,1.4,0.8,2.3,0.8c1,0,1.7-0.4,2.2-1c0.5-0.6,0.8-1.4,0.6-2.4c0-1-0.4-1.9-0.9-2.4
		c-0.6-0.5-1.3-0.8-2.3-0.8c-0.9,0-1.7,0.4-2.2,1s-0.8,1.4-0.6,2.6C331.8,511.5,332.2,512.3,332.7,512.8 M328.1,507.7
		c0.5-1,1.3-1.8,2.3-2.3c-1-0.6-1.8-1.3-2.2-2.1c-0.4-0.8-0.5-1.5-0.5-2.3c-0.1-1.5,0.4-3,1.5-4.1c1.2-1.2,2.7-1.8,4.9-1.9
		c2.1-0.1,3.7,0.4,5,1.4c1.2,1,1.9,2.3,1.9,3.9c0,0.6-0.1,1.5-0.4,2.3c-0.3,0.8-0.9,1.5-1.9,2.2c1,0.5,1.9,1.3,2.4,2.2
		s0.9,2.1,0.9,3.2c0.1,1.8-0.5,3.3-1.7,4.8c-1.3,1.3-3.1,2.1-5.4,2.2c-2.3,0.1-4.2-0.4-5.5-1.5c-1.3-1.3-1.9-2.7-2.1-4.5
		C327.4,509.7,327.5,508.7,328.1,507.7 M332.4,503.1c0.5,0.5,1.2,0.6,2.1,0.6c0.8,0,1.5-0.4,1.9-0.8c0.4-0.5,0.6-1.2,0.6-1.9
		c0-0.9-0.3-1.4-0.8-1.9c-0.5-0.4-1.2-0.6-2.1-0.6c-0.9,0.1-1.5,0.4-1.9,0.8c-0.5,0.5-0.6,1.2-0.6,2.1
		C331.8,502,332,502.7,332.4,503.1"/>
	<path class="st4" d="M359.9,496.9c-0.5,0.6-1.3,1.8-2.3,3.6c-1,1.7-1.8,3.3-2.3,5.1c-0.5,1.4-0.9,3.1-1.2,5
		c-0.3,1.9-0.4,3.5-0.3,4.8l-4.4,0.4c-0.3-3.9,0.6-8,2.7-12.2c1.3-2.7,2.4-4.6,3.3-5.6l-10.5,0.9l-0.3-3.7l15-1.3L359.9,496.9z"/>
	<path class="st3" d="M328.2,22.6C160.9,22.6,24.8,158.7,24.8,326s136.1,303.4,303.4,303.4S631.6,493.3,631.6,326
		S495.5,22.6,328.2,22.6 M601.7,267.7c7.7,13.9-0.8,29-6.9,33.8C587.4,284.5,595.1,273.1,601.7,267.7 M565.2,387.4
		c-0.6-8.3,2.4-22,19.8-28.2C585.4,363.1,578.3,383.9,565.2,387.4 M569.8,418.2c-3.1-7.8-4.2-21.6,10.4-32.9
		C583.3,392.5,583.4,409.8,569.8,418.2 M571,358.5c-0.6-8.3,2.3-22,19.6-28.4C590.9,334.1,584,355,571,358.5 M568.9,275
		c13.2,2.7,21.2,23.2,21.1,27.3C572.4,296.7,568.7,283.4,568.9,275 M584.5,316.4c-0.1-4.6,3.6-8.5,8.2-8.6c4.6-0.1,8.5,3.6,8.6,8.2
		s-3.6,8.5-8.2,8.6C588.3,324.7,584.6,321,584.5,316.4 M591.1,238c9.5,12.7,3.1,28.8-2.3,34.4C579.3,256.5,585.5,244.1,591.1,238
		 M562.3,246.3c13.2,2.7,21.4,23.1,21.2,27.1C565.7,268.1,562,254.7,562.3,246.3 M577.8,247.4c-15.3-10.4-14.8-24.3-12.1-32.2
		C579.6,222.8,580.5,240,577.8,247.4 M544.8,326c0,119.4-97.2,216.5-216.6,216.5S111.6,445.3,111.6,326
		c0-119.4,97.2-216.6,216.6-216.6C447.6,109.4,544.8,206.6,544.8,326 M91,215.1c2.7,8,3.1,21.8-12.1,32.2
		C76.3,240,77.2,222.8,91,215.1 M94.6,246.3c0.1,8.3-3.6,21.7-21.2,27.1C73.2,269.4,81.4,249,94.6,246.3 M71.8,359.1
		c17.3,6.3,20.4,19.9,19.8,28.2C78.6,383.9,71.4,363.1,71.8,359.1 M86.9,418.2c-13.5-8.3-13.5-25.7-10.4-32.9
		C91.2,396.6,90,410.4,86.9,418.2 M72.3,316.4c-0.1,4.6-3.9,8.3-8.6,8.2c-4.6-0.1-8.3-4-8.2-8.6c0.1-4.6,3.9-8.3,8.6-8.2
		C68.7,307.9,72.4,311.7,72.3,316.4 M66.8,302.4c-0.3-4.1,7.8-24.5,21.1-27.3C88.1,283.4,84.4,296.7,66.8,302.4 M85.8,358.5
		c-13.1-3.5-20-24.3-19.5-28.4C83.6,336.5,86.5,350,85.8,358.5 M65.6,238c5.8,6.2,11.9,18.6,2.3,34.4
		C62.5,266.8,56.1,250.8,65.6,238 M55.2,267.7c6.5,5.3,14.3,16.8,6.9,33.8C56,296.7,47.5,281.7,55.2,267.7 M52.9,364
		c-6.9-14.3,2.3-28.9,8.7-33.4C67.9,348,59.6,359,52.9,364 M66.4,359.9c8.6,16.3,1.9,28.4-4.1,34.2
		C53.4,380.8,60.6,365.2,66.4,359.9 M594.6,394.1c-6-5.8-12.8-17.8-4.2-34.2C596.2,365.2,603.3,380.8,594.6,394.1 M595.3,330.6
		c6.4,4.5,15.7,19.1,8.7,33.4C597.2,359,588.8,348,595.3,330.6"/>
	<path class="st1" d="M106.6,436.7c7.2-4.2,8-4.9,6.4-8.3l-1.2-2.6c0-0.9,1.5-1.8,2.6-1.3c3.3,4.9,7.2,10.7,11.2,17.5
		c3.9,6.5,5.6,11.3,6.4,15.2c1.2,5.6,0.1,12.6-6.8,16.7c-11.8,6.9-20.9-4.8-23.4-8.9c-0.5-0.9-0.9-1.7-1.4-2.6c0-0.8,1-1.7,1.8-1.4
		c5.6,5.3,10.7,4.1,15.9,1c5.3-3.1,9.2-9.4,5.3-16.3c-1.7-2.8-2.6-2.6-5.4-0.9l-30.3,17.8c-6.7,4-6.9,4.6-5.4,8.5l1.2,2.7
		c0.1,1-1.5,2.1-2.4,1.4c-2.4-4.4-4.6-8.2-6.8-11.9s-4.5-7.3-7.1-11.4c-0.1-1.2,1.5-2.2,2.3-1.5l1.7,1.9c2.6,3.1,3.3,3.3,10-0.6
		L106.6,436.7z"/>
	<path class="st5" d="M106.6,436.7c7.2-4.2,8-4.9,6.4-8.3l-1.2-2.6c0-0.9,1.5-1.8,2.6-1.3c3.3,4.9,7.2,10.7,11.2,17.5
		c3.9,6.5,5.6,11.3,6.4,15.2c1.2,5.6,0.1,12.6-6.8,16.7c-11.8,6.9-20.9-4.8-23.4-8.9c-0.5-0.9-0.9-1.7-1.4-2.6c0-0.8,1-1.7,1.8-1.4
		c5.6,5.3,10.7,4.1,15.9,1c5.3-3.1,9.2-9.4,5.3-16.3c-1.7-2.8-2.6-2.6-5.4-0.9l-30.3,17.8c-6.7,4-6.9,4.6-5.4,8.5l1.2,2.7
		c0.1,1-1.5,2.1-2.4,1.4c-2.4-4.4-4.6-8.2-6.8-11.9s-4.5-7.3-7.1-11.4c-0.1-1.2,1.5-2.2,2.3-1.5l1.7,1.9c2.6,3.1,3.3,3.3,10-0.6
		L106.6,436.7z"/>
	<path class="st1" d="M121.7,509.7c-5.9,5-6,5.9-3.9,9.4l1.3,2.2c0.1,0.9-1.4,2.1-2.3,1.8c-3-3.7-5.8-7.2-8.5-10.4
		c-2.8-3.2-5.8-6.7-9-10.1c-0.1-0.9,1.4-2.1,2.2-1.9l1.9,1.7c3.2,2.7,4,2.7,9.9-2.3l23.4-19.9c5.9-5,6-5.9,3.9-9.4l-1.3-2.2
		c-0.1-0.9,1.4-2.1,2.2-1.9c3,3.7,5.8,7.2,8.6,10.5c2.7,3.2,5.6,6.5,9,10.1c0.1,0.9-1.4,2.1-2.2,1.9l-1.9-1.7
		c-3.2-2.7-4-2.7-9.9,2.3L121.7,509.7z"/>
	<path class="st5" d="M121.7,509.7c-5.9,5-6,5.9-3.9,9.4l1.3,2.2c0.1,0.9-1.4,2.1-2.3,1.8c-3-3.7-5.8-7.2-8.5-10.4
		c-2.8-3.2-5.8-6.7-9-10.1c-0.1-0.9,1.4-2.1,2.2-1.9l1.9,1.7c3.2,2.7,4,2.7,9.9-2.3l23.4-19.9c5.9-5,6-5.9,3.9-9.4l-1.3-2.2
		c-0.1-0.9,1.4-2.1,2.2-1.9c3,3.7,5.8,7.2,8.6,10.5c2.7,3.2,5.6,6.5,9,10.1c0.1,0.9-1.4,2.1-2.2,1.9l-1.9-1.7
		c-3.2-2.7-4-2.7-9.9,2.3L121.7,509.7z"/>
	<path class="st1" d="M173.2,509c1.3-1.5,1.5-1.9-0.1-3.2l-4.4-3.5c-5.1-4.1-8.6-2.7-14.5,0.4c-1.2-0.3-2.3-1.5-2.1-2.7
		c5-3.3,8.6-7.1,11.2-9.1c0.4,0,0.9,0.1,1.3,0.5c0.4,0.3,0.6,0.6,0.8,1c-0.5,1.4-0.5,1.8,4.8,6l25.9,20.9c4.6,3.7,5.6,4.5,7.4,3.6
		c0.4,0.1,0.6,0.3,1,0.5c0.4,0.4,0.6,1,0.6,1.3c-2.4,1.7-7.2,6.5-10,10.3c-0.8,0.3-2.8-1-2.7-1.9c2.2-5.1,3.6-9-1.5-13.1l-4.2-3.3
		c-1.7-1.3-2.1-1.3-3.3,0.4l-23,28.5c-4.9,6-4.8,6.8-2.1,9.8l2.6,2.6c0.1,0.8-1,2.3-1.8,2.3c-4.4-3.7-7.8-6.7-11-9.1
		c-3.3-2.7-7.1-5.5-11.9-9.4c-0.3-0.9,0.9-2.3,1.8-2.3l3.3,2.2c3.5,2.1,4.2,1.9,9.1-4.1L173.2,509z"/>
	<path class="st5" d="M173.2,509c1.3-1.5,1.5-1.9-0.1-3.2l-4.4-3.5c-5.1-4.1-8.6-2.7-14.5,0.4c-1.2-0.3-2.3-1.5-2.1-2.7
		c5-3.3,8.6-7.1,11.2-9.1c0.4,0,0.9,0.1,1.3,0.5c0.4,0.3,0.6,0.6,0.8,1c-0.5,1.4-0.5,1.8,4.8,6l25.9,20.9c4.6,3.7,5.6,4.5,7.4,3.6
		c0.4,0.1,0.6,0.3,1,0.5c0.4,0.4,0.6,1,0.6,1.3c-2.4,1.7-7.2,6.5-10,10.3c-0.8,0.3-2.8-1-2.7-1.9c2.2-5.1,3.6-9-1.5-13.1l-4.2-3.3
		c-1.7-1.3-2.1-1.3-3.3,0.4l-23,28.5c-4.9,6-4.8,6.8-2.1,9.8l2.6,2.6c0.1,0.8-1,2.3-1.8,2.3c-4.4-3.7-7.8-6.7-11-9.1
		c-3.3-2.7-7.1-5.5-11.9-9.4c-0.3-0.9,0.9-2.3,1.8-2.3l3.3,2.2c3.5,2.1,4.2,1.9,9.1-4.1L173.2,509z"/>
	<path class="st1" d="M222,541.2c0.9-1.8,1-2.2-0.9-3.1l-5-2.3c-5.9-2.7-9-0.5-14,3.9c-1.2,0-2.7-0.9-2.7-2.1
		c4.1-4.4,6.7-8.9,8.6-11.6c0.4-0.1,0.9,0,1.3,0.1c0.4,0.1,0.8,0.5,1,0.8c-0.1,1.4-0.1,1.9,6,4.8l30.2,14c5.4,2.4,6.5,3,8.1,1.7
		c0.4,0,0.6,0,1.2,0.3c0.5,0.3,0.9,0.8,1,1.2c-2.1,2.2-5.4,8.1-7.2,12.5c-0.8,0.5-3-0.4-3.1-1.2c0.9-5.5,1.4-9.5-4.8-12.3l-4.9-2.3
		c-1.9-0.9-2.3-0.8-3.2,1.2l-15.4,33.3c-3.2,7.1-3.1,7.8,0.4,10l3.1,1.9c0.4,0.8-0.4,2.4-1.3,2.7c-5.3-2.6-9.2-4.6-12.8-6.3
		c-3.9-1.8-8.1-3.7-13.9-6.2c-0.4-0.8,0.4-2.4,1.3-2.7l3.9,1.3c3.9,1.2,4.6,0.9,7.8-6.2L222,541.2z"/>
	<path class="st5" d="M222,541.2c0.9-1.8,1-2.2-0.9-3.1l-5-2.3c-5.9-2.7-9-0.5-14,3.9c-1.2,0-2.7-0.9-2.7-2.1
		c4.1-4.4,6.7-8.9,8.6-11.6c0.4-0.1,0.9,0,1.3,0.1c0.4,0.1,0.8,0.5,1,0.8c-0.1,1.4-0.1,1.9,6,4.8l30.2,14c5.4,2.4,6.5,3,8.1,1.7
		c0.4,0,0.6,0,1.2,0.3c0.5,0.3,0.9,0.8,1,1.2c-2.1,2.2-5.4,8.1-7.2,12.5c-0.8,0.5-3-0.4-3.1-1.2c0.9-5.5,1.4-9.5-4.8-12.3l-4.9-2.3
		c-1.9-0.9-2.3-0.8-3.2,1.2l-15.4,33.3c-3.2,7.1-3.1,7.8,0.4,10l3.1,1.9c0.4,0.8-0.4,2.4-1.3,2.7c-5.3-2.6-9.2-4.6-12.8-6.3
		c-3.9-1.8-8.1-3.7-13.9-6.2c-0.4-0.8,0.4-2.4,1.3-2.7l3.9,1.3c3.9,1.2,4.6,0.9,7.8-6.2L222,541.2z"/>
	<path class="st1" d="M262.2,608.4c-8.1-1.8-12.6-5-14.1-6.4c-1.3-2.2-1-8.2,0.1-13.7c0.9-0.9,2.8-0.5,3.3,0.5
		c0.5,5.6,4.8,14.5,12.2,16c6.4,1.4,10.4-2.1,11.3-6c1.5-6.5-4.2-11.9-9-15.5c-5.6-4.4-11.3-10.8-9.6-18.7
		c2.1-9.1,11-13.9,23.8-10.9c2.8,0.6,6.4,1.8,9.6,3.5c1,0.6,1.8,0.9,2.8,1.3c0.3,1.9,0.1,6.5-1,11.9c-0.6,0.9-2.8,0.5-3.5-0.5
		c-0.5-4.5-3-11.3-9.2-12.7c-5.8-1.3-9.6,1.5-10.7,5.5c-0.9,3.7,1.9,8,5.9,11l5.1,4.1c4.9,3.9,10.7,10.1,8.6,19.1
		C285.7,606.8,275.4,611.3,262.2,608.4"/>
	<path class="st5" d="M262.2,608.4c-8.1-1.8-12.6-5-14.1-6.4c-1.3-2.2-1-8.2,0.1-13.7c0.9-0.9,2.8-0.5,3.3,0.5
		c0.5,5.6,4.8,14.5,12.2,16c6.4,1.4,10.4-2.1,11.3-6c1.5-6.5-4.2-11.9-9-15.5c-5.6-4.4-11.3-10.8-9.6-18.7
		c2.1-9.1,11-13.9,23.8-10.9c2.8,0.6,6.4,1.8,9.6,3.5c1,0.6,1.8,0.9,2.8,1.3c0.3,1.9,0.1,6.5-1,11.9c-0.6,0.9-2.8,0.5-3.5-0.5
		c-0.5-4.5-3-11.3-9.2-12.7c-5.8-1.3-9.6,1.5-10.7,5.5c-0.9,3.7,1.9,8,5.9,11l5.1,4.1c4.9,3.9,10.7,10.1,8.6,19.1
		C285.7,606.8,275.4,611.3,262.2,608.4z"/>
	<path class="st1" d="M307.4,572.9c0.1-8.3,0-9.4-3.7-9.8l-2.4-0.4c-0.8-0.4-0.9-3,0.4-3c6.8-0.3,13.4-0.5,22.3-0.4
		c8.6,0.1,14.3,1.2,18.2,3.3c3.9,2.2,6,5.8,6,10.7c-0.1,6.9-6.5,9.6-9.2,10.3c-0.9,0.1-1.8,0.5-1.8,0.9c0,0.3,0.4,0.5,1.3,0.6
		c7.1,1.5,13,5.9,13,14c0,7.7-5,12.1-10.7,13.9c-5.6,1.8-12.3,1.9-17.8,1.8c-3.2,0-6.7-0.4-9.2-0.5c-4.4-0.1-8.7,0-13.9,0
		c-0.8-0.5-0.6-2.7,0-3l2.6-0.5c4-0.6,4.6-1.3,4.8-8.7L307.4,572.9z M319.3,600.4c-0.1,6.5,0.8,10.5,7.7,10.7
		c6.7,0.1,10.1-4.6,10.3-11.3c0.1-7.2-4.2-12.3-12.8-12.6c-4.9-0.1-4.9,0-5,3.3L319.3,600.4z M319.6,581.3c0,2.2,0,2.3,4.8,2.4
		c7.7,0.1,10.7-4.4,10.7-9.4c0.1-7.2-4.6-10.9-10.8-11c-4.2-0.1-4.4,0.6-4.4,4.2L319.6,581.3z"/>
	<path class="st5" d="M307.4,572.9c0.1-8.3,0-9.4-3.7-9.8l-2.4-0.4c-0.8-0.4-0.9-3,0.4-3c6.8-0.3,13.4-0.5,22.3-0.4
		c8.6,0.1,14.3,1.2,18.2,3.3c3.9,2.2,6,5.8,6,10.7c-0.1,6.9-6.5,9.6-9.2,10.3c-0.9,0.1-1.8,0.5-1.8,0.9c0,0.3,0.4,0.5,1.3,0.6
		c7.1,1.5,13,5.9,13,14c0,7.7-5,12.1-10.7,13.9c-5.6,1.8-12.3,1.9-17.8,1.8c-3.2,0-6.7-0.4-9.2-0.5c-4.4-0.1-8.7,0-13.9,0
		c-0.8-0.5-0.6-2.7,0-3l2.6-0.5c4-0.6,4.6-1.3,4.8-8.7L307.4,572.9z M319.3,600.4c-0.1,6.5,0.8,10.5,7.7,10.7
		c6.7,0.1,10.1-4.6,10.3-11.3c0.1-7.2-4.2-12.3-12.8-12.6c-4.9-0.1-4.9,0-5,3.3L319.3,600.4z M319.6,581.3c0,2.2,0,2.3,4.8,2.4
		c7.7,0.1,10.7-4.4,10.7-9.4c0.1-7.2-4.6-10.9-10.8-11c-4.2-0.1-4.4,0.6-4.4,4.2L319.6,581.3z"/>
	<path class="st1" d="M362.3,570.5c-1.8-7.6-2.4-8-6.5-7.7l-2.3,0.1c-0.8-0.4-1.3-2.1-0.5-2.8c4.2-0.8,8.6-1.8,12.7-2.8
		c4.2-1,8.5-2.1,12.6-3.2c0.8,0.3,1.3,2.1,0.6,2.7l-2.1,0.8c-3.7,1.7-4.1,2.3-2.3,9.9l4.5,18.7c2.3,9.5,5.9,19.6,19.1,16.6
		c11.2-2.7,12.3-12.6,9.8-23.6l-2.3-9.8c-1.5-6.5-3.3-12.6-4.9-14.5c-1.2-1.5-3.2-1.5-5.6-1.4l-2.4,0.1c-0.9-0.5-1-2.2-0.6-2.7
		c4.8-0.9,8.1-1.7,11.7-2.6c3.2-0.8,6.4-1.7,9.6-2.6c0.6,0.4,1.2,1.9,0.6,2.7l-1.5,0.6c-2.2,1-3.7,1.9-4.1,3.9
		c-0.5,2.3,0.6,8.6,2.2,15.2l2.2,9.1c1.8,7.6,2.7,14.8-0.9,20.8c-3,4.8-8.9,8.2-15.8,9.9c-6.5,1.5-12.7,2.1-18.4-0.4
		c-5.4-2.4-8.7-8-10.8-16.8L362.3,570.5z"/>
	<path class="st5" d="M362.3,570.5c-1.8-7.6-2.4-8-6.5-7.7l-2.3,0.1c-0.8-0.4-1.3-2.1-0.5-2.8c4.2-0.8,8.6-1.8,12.7-2.8
		c4.2-1,8.5-2.1,12.6-3.2c0.8,0.3,1.3,2.1,0.6,2.7l-2.1,0.8c-3.7,1.7-4.1,2.3-2.3,9.9l4.5,18.7c2.3,9.5,5.9,19.6,19.1,16.6
		c11.2-2.7,12.3-12.6,9.8-23.6l-2.3-9.8c-1.5-6.5-3.3-12.6-4.9-14.5c-1.2-1.5-3.2-1.5-5.6-1.4l-2.4,0.1c-0.9-0.5-1-2.2-0.6-2.7
		c4.8-0.9,8.1-1.7,11.7-2.6c3.2-0.8,6.4-1.7,9.6-2.6c0.6,0.4,1.2,1.9,0.6,2.7l-1.5,0.6c-2.2,1-3.7,1.9-4.1,3.9
		c-0.5,2.3,0.6,8.6,2.2,15.2l2.2,9.1c1.8,7.6,2.7,14.8-0.9,20.8c-3,4.8-8.9,8.2-15.8,9.9c-6.5,1.5-12.7,2.1-18.4-0.4
		c-5.4-2.4-8.7-8-10.8-16.8L362.3,570.5z"/>
	<path class="st1" d="M431.7,551.2c-4.1-7.3-4.6-8-8.2-6.5l-2.3,0.9c-1,0.1-2.1-1.8-1.3-2.6c5.6-3.6,11.6-7.3,19-11.6
		c6.7-3.7,12.8-6,16.7-5.9c5.9-0.1,10.3,2.2,12.8,6.9c3.6,6.4,0.5,11.8-2.2,15.5c-0.5,0.8-0.4,1.3,0.5,1.8
		c10.7,6.8,16.8,10.5,22.2,11.3c2.8,0.4,5.1-0.3,6.4-0.9c0.9,0,1.5,1,1.4,1.7c-0.9,1.2-3.3,2.7-5.8,4.1c-7.2,4-13.1,4.1-19.4,0.9
		c-4.6-2.4-8.5-5-12.5-7.8c-2.1-1.4-3.6-1.3-5.5-0.3c-2.7,1.5-2.8,1.8-2.1,3.2l5,9c3.7,6.7,4.5,6.9,8.3,5.5l2.3-0.8
		c0.8,0,1.7,1.8,1.4,2.6c-4.2,2.2-7.8,4.1-11.6,6.2c-3.9,2.2-7.3,4.2-11.3,6.5c-0.9-0.1-1.8-1.8-1.4-2.6l1.9-1.5
		c3.2-2.6,3.3-3.3-0.4-10L431.7,551.2z M447.6,554.4c1.4,2.6,1.8,2.6,6.4,0c2.8-1.5,4.1-3.1,4.8-5.4c0.6-1.9,0.8-5.1-1.5-9.4
		c-3.7-6.5-10.1-8.5-16.3-5c-3.2,1.8-3.1,2.1-1.3,5.5L447.6,554.4z"/>
	<path class="st5" d="M431.7,551.2c-4.1-7.3-4.6-8-8.2-6.5l-2.3,0.9c-1,0.1-2.1-1.8-1.3-2.6c5.6-3.6,11.6-7.3,19-11.6
		c6.7-3.7,12.8-6,16.7-5.9c5.9-0.1,10.3,2.2,12.8,6.9c3.6,6.4,0.5,11.8-2.2,15.5c-0.5,0.8-0.4,1.3,0.5,1.8
		c10.7,6.8,16.8,10.5,22.2,11.3c2.8,0.4,5.1-0.3,6.4-0.9c0.9,0,1.5,1,1.4,1.7c-0.9,1.2-3.3,2.7-5.8,4.1c-7.2,4-13.1,4.1-19.4,0.9
		c-4.6-2.4-8.5-5-12.5-7.8c-2.1-1.4-3.6-1.3-5.5-0.3c-2.7,1.5-2.8,1.8-2.1,3.2l5,9c3.7,6.7,4.5,6.9,8.3,5.5l2.3-0.8
		c0.8,0,1.7,1.8,1.4,2.6c-4.2,2.2-7.8,4.1-11.6,6.2c-3.9,2.2-7.3,4.2-11.3,6.5c-0.9-0.1-1.8-1.8-1.4-2.6l1.9-1.5
		c3.2-2.6,3.3-3.3-0.4-10L431.7,551.2z M447.6,554.4c1.4,2.6,1.8,2.6,6.4,0c2.8-1.5,4.1-3.1,4.8-5.4c0.6-1.9,0.8-5.1-1.5-9.4
		c-3.7-6.5-10.1-8.5-16.3-5c-3.2,1.8-3.1,2.1-1.3,5.5L447.6,554.4z"/>
	<path class="st1" d="M536.3,513.8c2.3,2.6,3.6,3.7,5.1,2.8c0.5,0,1.4,1.2,1.2,1.7c-0.9,1.2-2.4,3-3.7,5.1
		c-1.7,2.8-6.7,8.7-10.3,12.2c-4.5,4.1-8.7,7.2-14.9,9.8c-10.4,4.2-21.8,2.2-29.9-6.5c-7.1-7.7-9.5-17.8-5.4-29.1
		c2.4-6.4,6.8-12.2,12.5-17.3c7.3-6.7,12.3-8.6,14.4-10.5c1.9,1.7,5.9,5.9,10,9c0.4,0.9-1.4,2.6-2.4,2.4c-7.4-3.9-14.3-3-20.3,2.7
		c-10.5,9.6-8.1,22.3,0.8,32.1c8.1,8.7,16,11,22.9,9.8c5-0.9,8.7-3.7,11.2-5.9c3.7-3.5,4-4.9,0.3-8.9l-3.6-3.9
		c-3.1-3.3-3.7-3.3-7.3-0.9l-3.2,2.3c-1,0.3-2.3-1.2-1.9-2.2c4.8-4.1,8.1-7.1,11.3-10c3.2-3,6.3-5.9,8.5-8.1
		c0.9-0.1,2.2,1.3,1.9,2.2l-1.3,1.7c-1.7,2.2-1.5,3.1,1.5,6.4L536.3,513.8z"/>
	<path class="st5" d="M536.3,513.8c2.3,2.6,3.6,3.7,5.1,2.8c0.5,0,1.4,1.2,1.2,1.7c-0.9,1.2-2.4,3-3.7,5.1
		c-1.7,2.8-6.7,8.7-10.3,12.2c-4.5,4.1-8.7,7.2-14.9,9.8c-10.4,4.2-21.8,2.2-29.9-6.5c-7.1-7.7-9.5-17.8-5.4-29.1
		c2.4-6.4,6.8-12.2,12.5-17.3c7.3-6.7,12.3-8.6,14.4-10.5c1.9,1.7,5.9,5.9,10,9c0.4,0.9-1.4,2.6-2.4,2.4c-7.4-3.9-14.3-3-20.3,2.7
		c-10.5,9.6-8.1,22.3,0.8,32.1c8.1,8.7,16,11,22.9,9.8c5-0.9,8.7-3.7,11.2-5.9c3.7-3.5,4-4.9,0.3-8.9l-3.6-3.9
		c-3.1-3.3-3.7-3.3-7.3-0.9l-3.2,2.3c-1,0.3-2.3-1.2-1.9-2.2c4.8-4.1,8.1-7.1,11.3-10c3.2-3,6.3-5.9,8.5-8.1
		c0.9-0.1,2.2,1.3,1.9,2.2l-1.3,1.7c-1.7,2.2-1.5,3.1,1.5,6.4L536.3,513.8z"/>
	<path class="st1" d="M546.7,471.2c-1.9,3.1-1.9,3.2,0.1,4.5L557,482c6.5,4.1,7.3,3.9,10,0.8l1.8-2.3c0.8-0.4,2.4,0.6,2.4,1.5
		c-2.8,4.2-5.3,8-7.3,11.4c-2.3,3.7-4.5,7.4-6.8,11.4c-0.8,0.4-2.4-0.6-2.4-1.5l0.9-1.9c1.5-3.9,1.3-4.6-5.3-8.6L524,476.5
		c-6.5-4.1-7.3-3.9-10.1-0.9l-1.3,1.7c-0.8,0.4-2.4-0.6-2.4-1.5c2.4-3.6,5-7.6,7.2-11.2c2.1-3.5,4.4-7.3,6.3-10.7
		c0.8-0.4,2.4,0.6,2.4,1.5l-0.8,1.7c-1.4,3.7-1.2,4.4,5.4,8.5l8.2,5c2.1,1.3,2.2,1.3,4.1-1.9l9.8-15.8c1.9-3.2,1.9-3.2-0.1-4.5
		l-8.2-5c-6.5-4.1-7.3-4-10-0.8l-1.5,1.9c-0.8,0.4-2.4-0.6-2.4-1.5c2.7-4.1,5.1-7.8,7.3-11.4c2.3-3.7,4.4-7.3,6.4-10.9
		c0.8-0.4,2.4,0.6,2.4,1.5l-0.8,1.7c-1.5,3.9-1.3,4.6,5.3,8.7l26.3,16.3c6.5,4.1,7.3,3.9,10.1,0.8l1.4-1.7c0.8-0.4,2.4,0.6,2.4,1.5
		c-2.4,3.7-4.9,7.4-7.1,10.9c-2.3,3.9-4.6,7.6-6.7,11.3c-0.8,0.4-2.4-0.6-2.4-1.5l0.8-1.8c1.5-3.9,1.3-4.6-5.3-8.6l-10.1-6.3
		c-1.9-1.3-2.1-1.3-4,1.9L546.7,471.2z"/>
	<path class="st5" d="M546.7,471.2c-1.9,3.1-1.9,3.2,0.1,4.5L557,482c6.5,4.1,7.3,3.9,10,0.8l1.8-2.3c0.8-0.4,2.4,0.6,2.4,1.5
		c-2.8,4.2-5.3,8-7.3,11.4c-2.3,3.7-4.5,7.4-6.8,11.4c-0.8,0.4-2.4-0.6-2.4-1.5l0.9-1.9c1.5-3.9,1.3-4.6-5.3-8.6L524,476.5
		c-6.5-4.1-7.3-3.9-10.1-0.9l-1.3,1.7c-0.8,0.4-2.4-0.6-2.4-1.5c2.4-3.6,5-7.6,7.2-11.2c2.1-3.5,4.4-7.3,6.3-10.7
		c0.8-0.4,2.4,0.6,2.4,1.5l-0.8,1.7c-1.4,3.7-1.2,4.4,5.4,8.5l8.2,5c2.1,1.3,2.2,1.3,4.1-1.9l9.8-15.8c1.9-3.2,1.9-3.2-0.1-4.5
		l-8.2-5c-6.5-4.1-7.3-4-10-0.8l-1.5,1.9c-0.8,0.4-2.4-0.6-2.4-1.5c2.7-4.1,5.1-7.8,7.3-11.4c2.3-3.7,4.4-7.3,6.4-10.9
		c0.8-0.4,2.4,0.6,2.4,1.5l-0.8,1.7c-1.5,3.9-1.3,4.6,5.3,8.7l26.3,16.3c6.5,4.1,7.3,3.9,10.1,0.8l1.4-1.7c0.8-0.4,2.4,0.6,2.4,1.5
		c-2.4,3.7-4.9,7.4-7.1,10.9c-2.3,3.9-4.6,7.6-6.7,11.3c-0.8,0.4-2.4-0.6-2.4-1.5l0.8-1.8c1.5-3.9,1.3-4.6-5.3-8.6l-10.1-6.3
		c-1.9-1.3-2.1-1.3-4,1.9L546.7,471.2z"/>
	<path class="st1" d="M94.2,183.2c-4.5-3.1-5.1-3.1-7.1-1.2l-1.2,1c-0.5,0.1-1.7-0.5-1.5-1.3c1.7-2.3,3.5-4.6,5.1-7.1
		s3.2-4.9,4.8-7.2c0.5-0.1,1.7,0.5,1.7,1.2l-0.6,1.3c-1,2.4-0.9,3.1,3.6,6.2l11.3,7.8c5.8,4,12.5,7.7,17.6,0.3
		c4.4-6.3,0.1-11.9-6.5-16.6l-5.9-4.1c-4-2.7-7.8-5.1-9.5-5.5c-1.3-0.3-2.3,0.6-3.5,1.8l-1.2,1.2c-0.6,0.1-1.5-0.6-1.7-1.2
		c1.9-2.6,3.3-4.5,4.6-6.4c1.3-1.8,2.4-3.6,3.6-5.5c0.5-0.1,1.5,0.5,1.7,1.2l-0.4,1c-0.6,1.5-0.9,2.6-0.3,3.7
		c0.9,1.4,4.5,4.2,8.5,6.9l5.5,3.9c4.6,3.2,8.5,6.5,9.6,11.3c0.8,3.7-0.4,8.1-3.2,12.1c-2.6,3.7-5.5,6.7-9.5,7.8
		c-3.9,1-8.2-0.4-13.5-4L94.2,183.2z"/>
	<path class="st5" d="M94.2,183.2c-4.5-3.1-5.1-3.1-7.1-1.2l-1.2,1c-0.5,0.1-1.7-0.5-1.5-1.3c1.7-2.3,3.5-4.6,5.1-7.1
		s3.2-4.9,4.8-7.2c0.5-0.1,1.7,0.5,1.7,1.2l-0.6,1.3c-1,2.4-0.9,3.1,3.6,6.2l11.3,7.8c5.8,4,12.5,7.7,17.6,0.3
		c4.4-6.3,0.1-11.9-6.5-16.6l-5.9-4.1c-4-2.7-7.8-5.1-9.5-5.5c-1.3-0.3-2.3,0.6-3.5,1.8l-1.2,1.2c-0.6,0.1-1.5-0.6-1.7-1.2
		c1.9-2.6,3.3-4.5,4.6-6.4c1.3-1.8,2.4-3.6,3.6-5.5c0.5-0.1,1.5,0.5,1.7,1.2l-0.4,1c-0.6,1.5-0.9,2.6-0.3,3.7
		c0.9,1.4,4.5,4.2,8.5,6.9l5.5,3.9c4.6,3.2,8.5,6.5,9.6,11.3c0.8,3.7-0.4,8.1-3.2,12.1c-2.6,3.7-5.5,6.7-9.5,7.8
		c-3.9,1-8.2-0.4-13.5-4L94.2,183.2z"/>
	<path class="st1" d="M166.5,130.7c2.7,2.8,5.3,5.5,6.7,6.9c0.1,0.8-0.5,2.4-1.7,3.3c0,0-3.6-0.8-8-1.4l-21.7-3
		c-5.4-0.8-8.6-1.2-9.9-1c0.3,0.6,0.9,1.4,2.4,3l8,8.3c3.3,3.5,6.5,6.5,8.1,7.3c1.3,0.5,2.4-0.1,3.9-1l1.4-1c0.6,0,1.4,1,1.4,1.5
		c-2.4,2.2-4.2,3.7-5.9,5.4c-1.5,1.5-3.2,3.1-4.8,4.8c-0.5,0-1.4-0.9-1.4-1.5l0.6-0.8c0.9-1.4,1.5-2.4,1-3.7c-0.6-1.5-3.6-5-6.8-8.5
		l-10.4-10.9c-2.2-2.4-3-3.1-3.7-3.3c-1-0.4-2.1-0.3-3.9,0.9l-1.4,1c-0.6,0-1.5-1.2-1.3-1.7c2.1-1.8,4.4-3.9,6-5.5
		c1.4-1.4,2.7-2.6,3.5-3.6c2.3,1.5,8.2,2.2,16.4,3.1l7.7,0.9c4.1,0.4,6.7,0.8,8.6,0.9c-0.3-0.6-0.9-1.3-1.7-2.1l-5.6-5.9
		c-3.3-3.5-6.5-6.5-8.1-7.3c-1.3-0.5-2.4,0.1-3.9,1l-1.3,0.9c-0.6,0-1.4-1-1.4-1.5c2.4-2.2,4.1-3.7,5.9-5.4c1.5-1.5,3.1-3.1,4.8-4.8
		c0.5,0,1.4,0.9,1.4,1.5l-0.6,0.9c-0.9,1.3-1.4,2.3-1,3.6c0.6,1.7,3.5,5,6.8,8.5L166.5,130.7z"/>
	<path class="st5" d="M166.5,130.7c2.7,2.8,5.3,5.5,6.7,6.9c0.1,0.8-0.5,2.4-1.7,3.3c0,0-3.6-0.8-8-1.4l-21.7-3
		c-5.4-0.8-8.6-1.2-9.9-1c0.3,0.6,0.9,1.4,2.4,3l8,8.3c3.3,3.5,6.5,6.5,8.1,7.3c1.3,0.5,2.4-0.1,3.9-1l1.4-1c0.6,0,1.4,1,1.4,1.5
		c-2.4,2.2-4.2,3.7-5.9,5.4c-1.5,1.5-3.2,3.1-4.8,4.8c-0.5,0-1.4-0.9-1.4-1.5l0.6-0.8c0.9-1.4,1.5-2.4,1-3.7c-0.6-1.5-3.6-5-6.8-8.5
		l-10.4-10.9c-2.2-2.4-3-3.1-3.7-3.3c-1-0.4-2.1-0.3-3.9,0.9l-1.4,1c-0.6,0-1.5-1.2-1.3-1.7c2.1-1.8,4.4-3.9,6-5.5
		c1.4-1.4,2.7-2.6,3.5-3.6c2.3,1.5,8.2,2.2,16.4,3.1l7.7,0.9c4.1,0.4,6.7,0.8,8.6,0.9c-0.3-0.6-0.9-1.3-1.7-2.1l-5.6-5.9
		c-3.3-3.5-6.5-6.5-8.1-7.3c-1.3-0.5-2.4,0.1-3.9,1l-1.3,0.9c-0.6,0-1.4-1-1.4-1.5c2.4-2.2,4.1-3.7,5.9-5.4c1.5-1.5,3.1-3.1,4.8-4.8
		c0.5,0,1.4,0.9,1.4,1.5l-0.6,0.9c-0.9,1.3-1.4,2.3-1,3.6c0.6,1.7,3.5,5,6.8,8.5L166.5,130.7z"/>
	<path class="st1" d="M191.3,114.8c3.1,4.6,3.6,4.8,6.2,3.6l1.5-0.6c0.6,0,1.3,1.2,1.2,1.8c-2.7,1.7-5.1,3.3-7.4,4.9
		s-4.8,3.3-7.4,5.3c-0.6,0-1.4-1.2-1.2-1.7l1.2-1.2c2.1-1.9,2.1-2.4-1-7.1L172,101.7c-3.1-4.6-3.6-4.8-6.2-3.6l-1.5,0.6
		c-0.6,0-1.4-1.2-1.2-1.8c2.7-1.7,5.3-3.3,7.6-4.9c2.3-1.5,4.8-3.2,7.3-5.1c0.6,0,1.4,1.2,1.2,1.7l-1.2,1.2c-2.1,1.9-2.1,2.4,1,7.1
		L191.3,114.8z"/>
	<path class="st5" d="M191.3,114.8c3.1,4.6,3.6,4.8,6.2,3.6l1.5-0.6c0.6,0,1.3,1.2,1.2,1.8c-2.7,1.7-5.1,3.3-7.4,4.9
		s-4.8,3.3-7.4,5.3c-0.6,0-1.4-1.2-1.2-1.7l1.2-1.2c2.1-1.9,2.1-2.4-1-7.1L172,101.7c-3.1-4.6-3.6-4.8-6.2-3.6l-1.5,0.6
		c-0.6,0-1.4-1.2-1.2-1.8c2.7-1.7,5.3-3.3,7.6-4.9c2.3-1.5,4.8-3.2,7.3-5.1c0.6,0,1.4,1.2,1.2,1.7l-1.2,1.2c-2.1,1.9-2.1,2.4,1,7.1
		L191.3,114.8z"/>
	<path class="st1" d="M226.6,89c0.3,7.8,0.8,12.7,1,16.3c-0.3,0.5-0.9,0.9-1.7,1.3c-0.6,0.3-1.2,0.4-1.7,0.3
		c-1.3-1.2-3.5-3.6-5.1-5.1l-19-17.8c-4.8-4.4-4.5-4.2-7.4-3.7l-1.7,0.4c-0.8-0.4-1-1.4-0.6-1.9c2.8-1.3,4.6-1.9,7.4-3.2
		c2.4-1.2,4.8-2.3,8-4c0.6,0.1,1,1.2,0.9,1.8l-1.4,1c-0.9,0.6-1.2,1.2-0.9,1.7c0.3,0.4,2.2,2.3,4.9,4.9l10.4,9.9
		c1.7,1.7,2.8,2.6,3.6,3.3c0-1.2,0-2.8-0.1-4.8l-0.4-6c-0.1-4.1-0.8-11.2-1-13.2c-0.1-1.2-0.3-1.9-0.4-2.2c-0.1-0.4-0.5-0.5-1.9-0.3
		l-1.8,0.4c-0.6-0.3-1.2-1.4-0.6-1.9c2.6-1,4.6-1.9,6.7-3c1.8-0.9,3.5-1.7,4.9-2.4c0.5,0,1.2,1.3,0.9,1.8l-1.3,0.9
		c-1.4,1-1.9,1.8-2.1,3.2c-0.4,2.3-0.4,5.9-0.3,11.2L226.6,89z"/>
	<path class="st5" d="M226.6,89c0.3,7.8,0.8,12.7,1,16.3c-0.3,0.5-0.9,0.9-1.7,1.3c-0.6,0.3-1.2,0.4-1.7,0.3
		c-1.3-1.2-3.5-3.6-5.1-5.1l-19-17.8c-4.8-4.4-4.5-4.2-7.4-3.7l-1.7,0.4c-0.8-0.4-1-1.4-0.6-1.9c2.8-1.3,4.6-1.9,7.4-3.2
		c2.4-1.2,4.8-2.3,8-4c0.6,0.1,1,1.2,0.9,1.8l-1.4,1c-0.9,0.6-1.2,1.2-0.9,1.7c0.3,0.4,2.2,2.3,4.9,4.9l10.4,9.9
		c1.7,1.7,2.8,2.6,3.6,3.3c0-1.2,0-2.8-0.1-4.8l-0.4-6c-0.1-4.1-0.8-11.2-1-13.2c-0.1-1.2-0.3-1.9-0.4-2.2c-0.1-0.4-0.5-0.5-1.9-0.3
		l-1.8,0.4c-0.6-0.3-1.2-1.4-0.6-1.9c2.6-1,4.6-1.9,6.7-3c1.8-0.9,3.5-1.7,4.9-2.4c0.5,0,1.2,1.3,0.9,1.8l-1.3,0.9
		c-1.4,1-1.9,1.8-2.1,3.2c-0.4,2.3-0.4,5.9-0.3,11.2L226.6,89z"/>
	<path class="st1" d="M257.9,68.6c0.4,1.7,0.5,1.7,2.1,1.3l4-1c3-0.8,3.5-1.4,3.5-4.2l-0.1-1.5c0.3-0.5,1.7-0.9,2.2-0.5
		c0.4,1.9,0.9,4,1.4,6.2c0.5,2.2,1.2,4.2,1.8,6c-0.1,0.6-1.5,1-2.1,0.6L270,74c-1.4-2.6-2.1-2.8-5.1-2.1l-4,1
		c-1.5,0.4-1.5,0.5-1.2,2.2l1.8,6.8c0.6,2.7,1.4,4.4,2.3,5.3c1,0.9,2.2,1,6.4-0.1c5-1.3,6.9-2.1,8.3-9.4c0.3-0.8,1.8-0.9,2.2-0.3
		c0.5,3.1,0.4,8.1,0,9.9c-3.1,0.6-8.6,2.1-13.4,3.3l-7.4,1.9c-2.7,0.8-5.5,1.5-9.9,2.8c-0.5-0.3-0.9-1.5-0.5-2.1l2.6-1.2
		c2.4-1,2.7-1.5,1.3-6.8l-5.6-21.4c-1.4-5.3-1.8-5.5-4.5-5.3l-1.5,0.1c-0.6-0.3-0.9-1.5-0.4-2.1c2.7-0.6,5.5-1.3,8.3-2.1l12.2-3.2
		c3.7-1,6.9-1.9,7.7-2.2c0.3,0.9,1.8,4.9,3.1,8.7c0,0.6-1.4,1.2-2.1,0.8c-1.2-1.8-2.4-3.3-3.3-4c-1.4-0.8-3.3-1-6.2-0.3l-4.6,1.2
		c-1.9,0.5-1.9,0.6-1.3,2.7L257.9,68.6z"/>
	<path class="st5" d="M257.9,68.6c0.4,1.7,0.5,1.7,2.1,1.3l4-1c3-0.8,3.5-1.4,3.5-4.2l-0.1-1.5c0.3-0.5,1.7-0.9,2.2-0.5
		c0.4,1.9,0.9,4,1.4,6.2c0.5,2.2,1.2,4.2,1.8,6c-0.1,0.6-1.5,1-2.1,0.6L270,74c-1.4-2.6-2.1-2.8-5.1-2.1l-4,1
		c-1.5,0.4-1.5,0.5-1.2,2.2l1.8,6.8c0.6,2.7,1.4,4.4,2.3,5.3c1,0.9,2.2,1,6.4-0.1c5-1.3,6.9-2.1,8.3-9.4c0.3-0.8,1.8-0.9,2.2-0.3
		c0.5,3.1,0.4,8.1,0,9.9c-3.1,0.6-8.6,2.1-13.4,3.3l-7.4,1.9c-2.7,0.8-5.5,1.5-9.9,2.8c-0.5-0.3-0.9-1.5-0.5-2.1l2.6-1.2
		c2.4-1,2.7-1.5,1.3-6.8l-5.6-21.4c-1.4-5.3-1.8-5.5-4.5-5.3l-1.5,0.1c-0.6-0.3-0.9-1.5-0.4-2.1c2.7-0.6,5.5-1.3,8.3-2.1l12.2-3.2
		c3.7-1,6.9-1.9,7.7-2.2c0.3,0.9,1.8,4.9,3.1,8.7c0,0.6-1.4,1.2-2.1,0.8c-1.2-1.8-2.4-3.3-3.3-4c-1.4-0.8-3.3-1-6.2-0.3l-4.6,1.2
		c-1.9,0.5-1.9,0.6-1.3,2.7L257.9,68.6z"/>
	<path class="st1" d="M293.9,55.2c-0.5-5.9-0.6-6.5-3.2-6.7l-1.7-0.1c-0.6-0.3-0.8-1.7,0-2.1c4.4-0.6,9-1.3,14.6-1.7
		c5-0.4,9.4,0,11.8,1.3c3.6,1.8,5.6,4.6,5.9,8.3c0.4,5.3-3,7.8-5.6,9.4c-0.5,0.4-0.5,0.6-0.3,1.3c4.5,7.7,7.3,11.9,10.4,14.1
		c1.7,1.2,3.2,1.4,4.1,1.4c0.5,0.3,0.6,1.2,0.4,1.5c-0.9,0.5-2.8,0.8-4.6,0.9c-5.4,0.4-9-1.3-11.9-5.3c-2.2-3-3.7-5.8-5.4-8.9
		c-0.9-1.5-1.8-1.9-3.3-1.8c-2.1,0.1-2.2,0.3-2.1,1.4l0.5,7.3c0.4,5.4,0.8,5.8,3.5,6.2l1.7,0.1c0.4,0.3,0.5,1.7,0.1,2.1
		c-3.2,0.1-5.9,0.3-8.7,0.5c-3,0.3-5.5,0.5-8.6,0.9c-0.5-0.3-0.6-1.8-0.1-2.1l1.5-0.4c2.6-0.6,3-1.2,2.6-6.5L293.9,55.2z M302.6,62
		c0.1,2.1,0.4,2.2,3.9,1.9c2.2-0.1,3.3-0.8,4.4-2.1c0.9-1,1.9-3.1,1.7-6.5c-0.4-5.4-3.9-8.5-8.5-8.2c-2.4,0.1-2.4,0.4-2.3,3.2
		L302.6,62z"/>
	<path class="st5" d="M293.9,55.2c-0.5-5.9-0.6-6.5-3.2-6.7l-1.7-0.1c-0.6-0.3-0.8-1.7,0-2.1c4.4-0.6,9-1.3,14.6-1.7
		c5-0.4,9.4,0,11.8,1.3c3.6,1.8,5.6,4.6,5.9,8.3c0.4,5.3-3,7.8-5.6,9.4c-0.5,0.4-0.5,0.6-0.3,1.3c4.5,7.7,7.3,11.9,10.4,14.1
		c1.7,1.2,3.2,1.4,4.1,1.4c0.5,0.3,0.6,1.2,0.4,1.5c-0.9,0.5-2.8,0.8-4.6,0.9c-5.4,0.4-9-1.3-11.9-5.3c-2.2-3-3.7-5.8-5.4-8.9
		c-0.9-1.5-1.8-1.9-3.3-1.8c-2.1,0.1-2.2,0.3-2.1,1.4l0.5,7.3c0.4,5.4,0.8,5.8,3.5,6.2l1.7,0.1c0.4,0.3,0.5,1.7,0.1,2.1
		c-3.2,0.1-5.9,0.3-8.7,0.5c-3,0.3-5.5,0.5-8.6,0.9c-0.5-0.3-0.6-1.8-0.1-2.1l1.5-0.4c2.6-0.6,3-1.2,2.6-6.5L293.9,55.2z M302.6,62
		c0.1,2.1,0.4,2.2,3.9,1.9c2.2-0.1,3.3-0.8,4.4-2.1c0.9-1,1.9-3.1,1.7-6.5c-0.4-5.4-3.9-8.5-8.5-8.2c-2.4,0.1-2.4,0.4-2.3,3.2
		L302.6,62z"/>
	<path class="st1" d="M348,84.7c-5.4-0.5-8.7-2.3-9.9-3.1c-1-1.4-1.4-5.8-1-9.8c0.5-0.8,1.8-0.6,2.3,0c0.9,4,4.4,9.8,9.4,10.1
		c4.4,0.4,6.7-2.4,6.9-5.4c0.4-4.8-3.9-8.1-7.2-10.1c-4.1-2.6-8.3-6.4-8-12.3c0.6-6.7,6.2-10.9,14.8-10.1c1.9,0.1,4.4,0.6,6.7,1.5
		c0.8,0.3,1.3,0.5,1.9,0.6c0.4,1.3,0.6,4.6,0.3,8.6c-0.4,0.6-1.8,0.6-2.3,0c-0.8-3.1-3-7.7-7.2-8.1c-3.9-0.4-6.3,2.1-6.5,5
		c-0.3,2.7,1.9,5.4,4.8,7.2l3.7,2.4c3.5,2.3,7.8,6.2,7.3,12.6C363.2,81.3,356.9,85.5,348,84.7"/>
	<path class="st5" d="M348,84.7c-5.4-0.5-8.7-2.3-9.9-3.1c-1-1.4-1.4-5.8-1-9.8c0.5-0.8,1.8-0.6,2.3,0c0.9,4,4.4,9.8,9.4,10.1
		c4.4,0.4,6.7-2.4,6.9-5.4c0.4-4.8-3.9-8.1-7.2-10.1c-4.1-2.6-8.3-6.4-8-12.3c0.6-6.7,6.2-10.9,14.8-10.1c1.9,0.1,4.4,0.6,6.7,1.5
		c0.8,0.3,1.3,0.5,1.9,0.6c0.4,1.3,0.6,4.6,0.3,8.6c-0.4,0.6-1.8,0.6-2.3,0c-0.8-3.1-3-7.7-7.2-8.1c-3.9-0.4-6.3,2.1-6.5,5
		c-0.3,2.7,1.9,5.4,4.8,7.2l3.7,2.4c3.5,2.3,7.8,6.2,7.3,12.6C363.2,81.3,356.9,85.5,348,84.7z"/>
	<path class="st1" d="M388.1,81.4c-1.3,5.4-1,5.9,1.5,7.1l1.5,0.6c0.4,0.5,0,1.8-0.5,2.1c-3.1-0.8-5.9-1.5-8.6-2.2
		c-2.8-0.6-5.6-1.3-8.9-1.8c-0.4-0.5-0.1-1.8,0.5-2.1l1.7,0.1c2.8,0.1,3.2-0.1,4.5-5.6l4.9-21.3c1.3-5.4,1-5.9-1.5-7.1l-1.5-0.6
		c-0.4-0.5-0.1-1.8,0.5-2.1c3.1,0.8,6,1.5,8.7,2.2c2.7,0.6,5.6,1.3,8.7,1.8c0.4,0.5,0.1,1.8-0.5,2.1l-1.7-0.1
		c-2.8-0.1-3.2,0.1-4.5,5.6L388.1,81.4z"/>
	<path class="st5" d="M388.1,81.4c-1.3,5.4-1,5.9,1.5,7.1l1.5,0.6c0.4,0.5,0,1.8-0.5,2.1c-3.1-0.8-5.9-1.5-8.6-2.2
		c-2.8-0.6-5.6-1.3-8.9-1.8c-0.4-0.5-0.1-1.8,0.5-2.1l1.7,0.1c2.8,0.1,3.2-0.1,4.5-5.6l4.9-21.3c1.3-5.4,1-5.9-1.5-7.1l-1.5-0.6
		c-0.4-0.5-0.1-1.8,0.5-2.1c3.1,0.8,6,1.5,8.7,2.2c2.7,0.6,5.6,1.3,8.7,1.8c0.4,0.5,0.1,1.8-0.5,2.1l-1.7-0.1
		c-2.8-0.1-3.2,0.1-4.5,5.6L388.1,81.4z"/>
	<path class="st1" d="M425.5,65.7c0.5-1.3,0.6-1.7-0.6-2.2l-3.5-1.3c-4-1.5-6,0.1-9.4,3.6c-0.8,0.1-1.8-0.5-1.8-1.3
		c2.7-3.3,4.2-6.7,5.5-8.7c0.3-0.1,0.6-0.1,0.9,0c0.3,0.1,0.5,0.3,0.6,0.5c-0.1,1,0,1.3,4.2,3l20.5,8.1c3.7,1.4,4.5,1.7,5.5,0.8
		c0.3,0,0.5,0,0.8,0.1c0.4,0.1,0.6,0.5,0.6,0.8c-1.3,1.7-3.5,6-4.5,9.2c-0.5,0.4-2.1-0.1-2.1-0.6c0.4-3.9,0.6-6.8-3.5-8.5l-3.3-1.3
		c-1.3-0.5-1.5-0.4-2.2,1L424,93.3c-2.1,5.1-1.8,5.6,0.5,7.1l2.1,1.2c0.3,0.5-0.3,1.8-0.8,1.9c-3.6-1.5-6.3-2.7-8.7-3.6
		c-2.7-1-5.5-2.1-9.5-3.5c-0.3-0.5,0.1-1.8,0.8-1.9l2.6,0.6c2.7,0.6,3.1,0.4,5.1-4.9L425.5,65.7z"/>
	<path class="st5" d="M425.5,65.7c0.5-1.3,0.6-1.7-0.6-2.2l-3.5-1.3c-4-1.5-6,0.1-9.4,3.6c-0.8,0.1-1.8-0.5-1.8-1.3
		c2.7-3.3,4.2-6.7,5.5-8.7c0.3-0.1,0.6-0.1,0.9,0c0.3,0.1,0.5,0.3,0.6,0.5c-0.1,1,0,1.3,4.2,3l20.5,8.1c3.7,1.4,4.5,1.7,5.5,0.8
		c0.3,0,0.5,0,0.8,0.1c0.4,0.1,0.6,0.5,0.6,0.8c-1.3,1.7-3.5,6-4.5,9.2c-0.5,0.4-2.1-0.1-2.1-0.6c0.4-3.9,0.6-6.8-3.5-8.5l-3.3-1.3
		c-1.3-0.5-1.5-0.4-2.2,1L424,93.3c-2.1,5.1-1.8,5.6,0.5,7.1l2.1,1.2c0.3,0.5-0.3,1.8-0.8,1.9c-3.6-1.5-6.3-2.7-8.7-3.6
		c-2.7-1-5.5-2.1-9.5-3.5c-0.3-0.5,0.1-1.8,0.8-1.9l2.6,0.6c2.7,0.6,3.1,0.4,5.1-4.9L425.5,65.7z"/>
	<path class="st1" d="M463.3,113.8c-3,4.8-2.8,5.3-0.8,7.1l1.9,1.5c0.1,0.5-0.5,1.7-1,1.8c-3.2-2.2-5.6-3.7-8.1-5.1
		c-2.4-1.5-5-3-8.1-4.8c-0.3-0.5,0.5-1.7,1-1.8l1.9,0.8c2.4,1,3.1,0.9,5.9-3.9l1.5-2.6c1.5-2.6,2.1-3.3,2.3-6.9l1.7-16.2
		c0.3-2.7,0.3-3.7-1.3-5.1l-1.5-1.4c-0.3-0.6,0.6-1.9,1.3-1.7c2.2,1.5,4.1,2.7,7.1,4.5c3.1,1.9,5.6,3.5,7.4,4.4
		c0.4,0.5-0.3,1.7-1,1.8l-1.9-0.6c-1-0.4-1.4-0.4-1.5-0.3c-0.3,0.4-0.5,1.3-0.9,4.4l-0.9,6.9c-0.3,2.2-0.5,4.8-0.8,6.4
		c3-1.5,6.2-3.6,9.1-5.4c4.1-2.4,5.9-3.7,6.3-4.2c0.1-0.3-0.1-0.8-1.3-1.8l-1-0.9c-0.3-0.5,0.5-1.8,1.2-1.8c1.9,1.3,3.7,2.6,5.5,3.6
		c1.9,1.2,3.5,2.1,5,2.8c0.5,0.5-0.3,1.8-0.9,1.9l-1.4-0.5c-1-0.4-2.2-0.6-3.2-0.3c-1.4,0.5-3.7,1.5-8.9,4.5l-6.8,3.9
		c-2.8,1.5-4.1,2.6-5.8,5.4L463.3,113.8z"/>
	<path class="st5" d="M463.3,113.8c-3,4.8-2.8,5.3-0.8,7.1l1.9,1.5c0.1,0.5-0.5,1.7-1,1.8c-3.2-2.2-5.6-3.7-8.1-5.1
		c-2.4-1.5-5-3-8.1-4.8c-0.3-0.5,0.5-1.7,1-1.8l1.9,0.8c2.4,1,3.1,0.9,5.9-3.9l1.5-2.6c1.5-2.6,2.1-3.3,2.3-6.9l1.7-16.2
		c0.3-2.7,0.3-3.7-1.3-5.1l-1.5-1.4c-0.3-0.6,0.6-1.9,1.3-1.7c2.2,1.5,4.1,2.7,7.1,4.5c3.1,1.9,5.6,3.5,7.4,4.4
		c0.4,0.5-0.3,1.7-1,1.8l-1.9-0.6c-1-0.4-1.4-0.4-1.5-0.3c-0.3,0.4-0.5,1.3-0.9,4.4l-0.9,6.9c-0.3,2.2-0.5,4.8-0.8,6.4
		c3-1.5,6.2-3.6,9.1-5.4c4.1-2.4,5.9-3.7,6.3-4.2c0.1-0.3-0.1-0.8-1.3-1.8l-1-0.9c-0.3-0.5,0.5-1.8,1.2-1.8c1.9,1.3,3.7,2.6,5.5,3.6
		c1.9,1.2,3.5,2.1,5,2.8c0.5,0.5-0.3,1.8-0.9,1.9l-1.4-0.5c-1-0.4-2.2-0.6-3.2-0.3c-1.4,0.5-3.7,1.5-8.9,4.5l-6.8,3.9
		c-2.8,1.5-4.1,2.6-5.8,5.4L463.3,113.8z"/>
	<path class="st1" d="M533.6,160.7c-9.4,8.9-21.1,8-29.8-1.3c-8.2-8.7-8.5-20.4,0.5-28.9c8.6-8.1,21.2-8,29.8,1
		C542.6,140.6,542.4,152.5,533.6,160.7 M531.7,133.1c-5-5.3-12.7-3.5-19.9,3.3c-5.3,5-11.9,14.9-5.3,21.8c5.4,5.6,13,2.6,19.9-4
		C533.9,147.4,536.8,138.5,531.7,133.1"/>
	<path class="st5" d="M533.6,160.7c-9.4,8.9-21.1,8-29.8-1.3c-8.2-8.7-8.5-20.4,0.5-28.9c8.6-8.1,21.2-8,29.8,1
		C542.6,140.6,542.4,152.5,533.6,160.7z M531.7,133.1c-5-5.3-12.7-3.5-19.9,3.3c-5.3,5-11.9,14.9-5.3,21.8c5.4,5.6,13,2.6,19.9-4
		C533.9,147.4,536.8,138.5,531.7,133.1z"/>
	<path class="st1" d="M550.7,179.8c-1.3,0.9-1.4,1-0.6,2.3l2.4,3.9c1.7,2.7,2.4,3,5.1,1.8l1.4-0.5c0.6,0,1.4,1.3,1.2,1.9
		c-1.7,0.9-3.5,2.1-5.4,3.3c-1.8,1.2-3.6,2.4-5.1,3.6c-0.6,0-1.5-1.2-1.3-1.8l1-1c2.1-2.1,2.1-2.8,0.4-5.5l-2.4-3.9
		c-0.9-1.3-1-1.3-2.4-0.4l-6.7,4.4c-4.6,3.1-4.8,3.6-3.7,6l0.9,2.1c-0.1,0.5-1.2,1.3-1.8,1.2c-1.9-3.2-3.5-5.6-5-8
		c-1.5-2.3-3.2-4.8-5.3-7.7c0-0.6,1.2-1.3,1.8-1.2l1.3,1.5c1.8,2.1,2.3,2.1,6.9-0.9l18.5-12.1c4.6-3.1,4.8-3.6,3.7-6l-0.5-1.2
		c0-0.6,1.3-1.4,1.8-1c1.3,2.2,2.8,4.8,4.5,7.1l6.8,10.4c2.1,3.2,4,6,4.5,6.7c-0.9,0.5-4.4,3-7.7,5.1c-0.6,0.1-1.4-0.9-1.4-1.8
		c1.7-1.9,2.6-3.1,3-4c0.5-1.5,0.1-3.5-1.5-5.9l-2.6-3.9c-1-1.7-1.2-1.5-3.1-0.3L550.7,179.8z"/>
	<path class="st5" d="M550.7,179.8c-1.3,0.9-1.4,1-0.6,2.3l2.4,3.9c1.7,2.7,2.4,3,5.1,1.8l1.4-0.5c0.6,0,1.4,1.3,1.2,1.9
		c-1.7,0.9-3.5,2.1-5.4,3.3c-1.8,1.2-3.6,2.4-5.1,3.6c-0.6,0-1.5-1.2-1.3-1.8l1-1c2.1-2.1,2.1-2.8,0.4-5.5l-2.4-3.9
		c-0.9-1.3-1-1.3-2.4-0.4l-6.7,4.4c-4.6,3.1-4.8,3.6-3.7,6l0.9,2.1c-0.1,0.5-1.2,1.3-1.8,1.2c-1.9-3.2-3.5-5.6-5-8
		c-1.5-2.3-3.2-4.8-5.3-7.7c0-0.6,1.2-1.3,1.8-1.2l1.3,1.5c1.8,2.1,2.3,2.1,6.9-0.9l18.5-12.1c4.6-3.1,4.8-3.6,3.7-6l-0.5-1.2
		c0-0.6,1.3-1.4,1.8-1c1.3,2.2,2.8,4.8,4.5,7.1l6.8,10.4c2.1,3.2,4,6,4.5,6.7c-0.9,0.5-4.4,3-7.7,5.1c-0.6,0.1-1.4-0.9-1.4-1.8
		c1.7-1.9,2.6-3.1,3-4c0.5-1.5,0.1-3.5-1.5-5.9l-2.6-3.9c-1-1.7-1.2-1.5-3.1-0.3L550.7,179.8z"/>
</g>
</svg>
