<?xml version="1.0" encoding="utf-8"?>
<!-- Generator: Adobe Illustrator 19.0.0, SVG Export Plug-In . SVG Version: 6.00 Build 0)  -->
<svg version="1.1" id="Calque_1" xmlns="http://www.w3.org/2000/svg" xmlns:xlink="http://www.w3.org/1999/xlink" x="0px" y="0px"
	 viewBox="349 -177 798 454" style="enable-background:new 349 -177 798 454;" xml:space="preserve">
<style type="text/css">
	.st0{opacity:0.2;enable-background:new    ;}
	.st1{opacity:0.2;}
</style>
<g>
	<path class="st0" d="M430.6,42.1l14.5-25.5c0,0-27.5-20-58.5-5.5s-31.5,45.5-31.5,45.5s2.5,28,16.5,38s20,16.5,51.5,14.5
		s43.5-38.5,43.5-38.5l13-24c0,0,11.5-20.5,38-8c0,0,18,15.5,6,32.5c-12,17-33,8.5-33,8.5l-15.5-9.5l-13,23c0,0,20,19.2,42,16.4
		c22-2.8,32.5-10.9,32.5-10.9s34-24,17.5-61s-57-31.8-57-31.8s-23.5,3.8-32,12.8c0,0-5.5,4.5-10.5,12.5s-23.5,42.5-23.5,42.5
		s-8.5,11-26.5,7.5s-17-27-17-27s-1.5-15.5,17-18.5S430.6,42.1,430.6,42.1z"/>
	<g class="st1">
		<path d="M652.3,15.7l-33.7,91h-30.9l-33.7-91h30.2l18.9,57.7L622,15.7L652.3,15.7L652.3,15.7z"/>
		<path d="M704.9,84.9c7.5,0,13.8-2.9,17.5-6.9l21.8,12.6c-8.9,12.4-22.4,18.8-39.7,18.8c-31.1,0-50.4-20.9-50.4-48.1
			s19.7-48.1,48.4-48.1c26.6,0,46.2,20.6,46.2,48.1c0,3.8-0.4,7.5-1.1,10.9H683C686.5,81.6,694.9,84.9,704.9,84.9z M721.7,51.8
			c-2.9-10.6-11.1-14.4-19.3-14.4c-10.4,0-17.3,5.1-19.8,14.4H721.7z"/>
		<path d="M851.7,50.8v55.9h-27.3V54.8c0-11.3-7.1-16.6-15.8-16.6c-10,0-16.9,5.8-16.9,18.8v49.7h-27.3v-91h27.3v8.6
			c4.9-6.7,14-11.1,26-11.1C836,13.2,851.7,26.3,851.7,50.8z"/>
		<path d="M963.8,15.7v91h-27.3v-8.6c-6,6.9-14.9,11.1-27.1,11.1c-23.8,0-43.5-20.9-43.5-48.1S885.6,13,909.4,13
			c12.2,0,21.1,4.2,27.1,11.1v-8.6h27.3V15.7z M936.5,61.2c0-13.7-9.1-22.2-21.7-22.2c-12.6,0-21.7,8.6-21.7,22.2
			c0,13.7,9.1,22.2,21.7,22.2C927.4,83.4,936.5,74.9,936.5,61.2z"/>
		<path d="M1071.2,50.8v55.9h-27.3V54.8c0-11.3-7.1-16.6-15.8-16.6c-10,0-16.9,5.8-16.9,18.8v49.7h-27.3v-91h27.3v8.6
			c4.9-6.7,14-11.1,26-11.1C1055.6,13.2,1071.2,26.3,1071.2,50.8z"/>
		<path d="M1124.6,41.9v32.2c0,7.8,6.7,8.6,18.8,7.8v24.8c-35.7,3.6-46.1-7.1-46.1-32.6V41.9h-14.6V15.7h14.6V-1.6l27.3-8.2v25.5
			h18.8v26.2L1124.6,41.9L1124.6,41.9z"/>
	</g>
</g>
</svg>
