<?xml version="1.0" encoding="utf-8"?>
<!-- Generator: Adobe Illustrator 19.0.0, SVG Export Plug-In . SVG Version: 6.00 Build 0)  -->
<svg version="1.1" id="Calque_1" xmlns="http://www.w3.org/2000/svg" xmlns:xlink="http://www.w3.org/1999/xlink" x="0px" y="0px"
	 viewBox="349 -177 798 454" style="enable-background:new 349 -177 798 454;" xml:space="preserve">
<style type="text/css">
	.st0{opacity:0.2;}
	.st1{opacity:0.2;enable-background:new    ;}
	.st2{fill:#FFFFFF;}
</style>
<g>
	<g class="st0">
		<path d="M500.8,84.9c1.3-13.7,2.3-25.1,2.9-34.3c0.6-9.2,1.2-21.5,1.8-36.7c0.6-15.3,0.9-25.4,0.9-30.4l-0.1-7
			c12.5,0.1,27.6,0.2,45.3,0.2c16.4,0,30.8-0.1,43.3-0.2l-0.2,2.6c-0.1,0.6-0.2,2.9-0.4,6.9l-0.5,8.6c-0.1,1.8-0.2,3.7-0.2,5.6
			c-10.2-0.4-18.8-0.6-25.7-0.6c-7.6,0-12.8,0-15.4,0c-2.7,0-6.8,0.1-12.5,0.4l-1,18.3c6.2,0.2,13.5,0.2,21.8,0.2
			c3,0,10.9-0.2,23.7-0.6c-0.5,6.8-1,14.9-1.5,24.2c-9.2-0.1-16.2-0.2-21.1-0.2c-7.3,0-15.5,0.2-24.5,0.6l-0.9,19.4h9.1
			c2.7,0,8.3-0.1,16.7-0.2l16.4-0.4c2.4-0.1,6.5-0.3,12.2-0.6c-0.6,7.8-1.2,15.9-1.6,24.3c-12.9-0.1-27.1-0.2-42.5-0.2l-34.9,0.1
			L500.8,84.9z"/>
		<path d="M628.9,84.9l-8.4-26l-19-55c6,0.1,11.7,0.2,16.9,0.2c5.4,0,10.5-0.1,15.3-0.2c0.9,3.7,2.7,10,5.3,19.2
			c2.6,9.1,5.6,20,8.7,32.6l2.1-6.6c0.3-0.8,1.6-4.2,3.7-10.2l12.6-35c5.7,0.1,11.1,0.2,16.2,0.2c5.2,0,10.7-0.1,16.3-0.2l-11,23.6
			l-20.4,46.9L662.8,85c-6.2-0.1-11.8-0.2-16.5-0.2C641.2,84.7,635.4,84.8,628.9,84.9z"/>
		<path d="M781.6,60.9c-0.7,3.2-2,10.9-4,23c-6.1,1.2-11.3,2-15.5,2.4c-4.2,0.4-8.4,0.6-12.7,0.6c-6.3,0-12.1-0.4-17.4-1.3
			c-5.3-0.9-9.9-2.4-13.7-4.6s-7.1-5-9.6-8.3c-2.6-3.3-4.6-7.2-5.9-11.8c-1.4-4.5-2-9.2-2-14c0-6.8,1.4-13.4,4.1-19.9
			c2.7-6.5,6.2-11.5,10.4-15.2c4.3-3.6,9.2-6.2,14.7-7.8c5.6-1.5,11.2-2.3,17.1-2.3c6,0,11.8,0.7,17.3,2.1s10.1,3.9,13.9,7.3
			c3.8,3.5,6.5,7.4,8.1,11.8s2.4,9.1,2.4,14.2c0,3-0.3,6.4-1,10.1l-55.7,0.1c-0.1,0.8-0.1,1.6-0.1,2.3c0,5.7,2,9.9,6.1,12.6
			s9.1,4,14.9,4c3.5,0,7.5-0.4,12-1.2C769.5,64.3,775,62.9,781.6,60.9z M732.7,35.3h26.2c0.1-0.9,0.1-1.7,0.1-2.3
			c0-2.8-0.5-5.1-1.5-7.1s-2.4-3.4-4.2-4.3s-3.9-1.4-6.2-1.4c-1.6,0-3.1,0.3-4.6,0.8s-2.8,1.2-4,2.2s-2.2,2.1-3,3.4
			c-0.8,1.3-1.4,2.5-1.7,3.7S733.1,33.1,732.7,35.3z"/>
		<path d="M798.4,84.9c1.5-12,2.7-25.3,3.5-39.8s1.3-28.3,1.5-41.3c6.4,0.1,11.8,0.2,16.5,0.2c5.4,0,10.5-0.1,15.4-0.2l-0.8,10.8
			c1.7-2,3.3-3.5,4.5-4.6s2.8-2.3,4.7-3.3c1.9-1.1,3.9-2,6-2.7s4.4-1.2,6.9-1.6s5.1-0.6,7.9-0.6c3.8,0,7.5,0.4,11.2,1.2
			c3.6,0.8,6.7,2,9.1,3.5c2.4,1.5,4.5,3.4,6.1,5.6c1.6,2.3,2.7,4.7,3.3,7.3c0.5,2.6,0.8,5.3,0.8,8c0,2-0.2,6.4-0.6,13L893,69.1
			c-0.3,5.7-0.4,10.9-0.4,15.7c-5.3-0.1-10.3-0.2-15-0.2c-6.3,0-12,0.1-17.2,0.2c0.5-4.8,1-12,1.5-21.5s0.8-16.2,0.8-20.1
			c0-6-1.2-10.2-3.5-12.5c-2.3-2.4-5.2-3.5-8.7-3.5c-3.1,0-6,1-8.7,3s-4.8,4.9-6.3,8.8c-1.5,3.8-2.5,10.2-3.1,18.9
			c-0.6,8.8-1,17.7-1.2,26.8c-5.3-0.1-10.5-0.2-15.5-0.2C810.3,84.7,804.6,84.8,798.4,84.9z"/>
		<path d="M968.8,61.5c-1,4.4-1.8,8.8-2.5,13l-1.7,9.7c-5.2,1.2-9.3,1.9-12.3,2.2c-2.9,0.3-5.8,0.5-8.5,0.5c-4.5,0-8.5-0.4-12-1.2
			s-6.4-2.2-8.7-4.2s-3.9-4.4-4.8-7c-0.8-2.6-1.3-5.5-1.3-8.4c0-0.5,0-1.5,0.1-2.8c0.1-1.4,0.2-4.4,0.6-9l1.7-27.5H907
			c0.3-3.7,0.5-8.5,0.7-14.5l0.2-7.4h13.2c0.3-2.4,0.7-7.8,1.2-16l13.6-2.8c2.5-0.5,7.8-1.7,15.9-3.7c-0.4,6.9-0.6,14.4-0.8,22.4
			h18.1c-0.4,11-0.6,18.3-0.6,21.8h-18.3l-1,19.9c-0.1,3-0.2,4.9-0.2,5.7c0,2.5,0.3,4.7,0.8,6.4c0.6,1.7,1.5,2.9,2.9,3.7
			c1.4,0.7,3,1.1,4.6,1.1c1.3,0,2.6-0.1,4-0.3C962.9,63.1,965.3,62.5,968.8,61.5z"/>
		<path d="M978.8,84.9l1.4-17.1l3.1-59.4l0.9-31.9c7.4,0.1,12.9,0.2,16.6,0.2c4.8,0,10.2-0.1,16-0.2L1015,0.9l-2.9,60l-0.6,24
			c-5.7-0.1-10.8-0.1-15.3-0.1L978.8,84.9z"/>
		<path d="M1022.7,121.2c-1.6-12.7-2.8-20.5-3.3-23.6c3.3,1.6,6.3,2.7,8.9,3.3c2.6,0.6,4.8,0.9,6.6,0.9c2,0,3.8-0.3,5.5-0.8
			s3.1-1.2,4.1-1.9c1-0.8,2.1-1.9,3.3-3.5c1.2-1.6,2.1-3,2.7-4.1c0.6-1.1,1.2-2.8,1.7-4.9l-14.9-45.2l-12.8-37.6
			c7.9,0.1,13.4,0.2,16.6,0.2c3.7,0,8.8-0.1,15.2-0.2c1,4.1,2.9,11.1,5.6,21.1s4.7,17.8,5.9,23.5c0.7,3.1,1.4,7.1,2,11.9l1.7-6.4
			c0.5-1.7,1.1-3.6,1.8-5.8c0.7-2.2,1.6-4.8,2.6-7.8l5.2-14.5l8.6-22.2c6.6,0.1,11.6,0.2,15,0.2c3,0,8.3-0.1,15.9-0.2l-15.3,34.6
			l-27.8,64.5c-1.8,3.6-3.5,6.5-5.2,8.6c-1.5,1.9-3.2,3.6-5,5c-1.7,1.3-3.5,2.4-5.5,3.3c-2.6,1.2-5.6,2.2-8.7,2.9
			c-3.5,0.7-7,1.1-10.6,1.1c-1.6,0-3.8-0.1-6.5-0.4c-2.7-0.2-4.9-0.5-6.6-0.7C1027.7,122.3,1025.5,121.8,1022.7,121.2z"/>
	</g>
	<path class="st1" d="M476.2,84.9h-93c-4.2,0-7.7-3.4-7.7-7.7v-93.1c0-4.2,3.4-7.7,7.7-7.7h93.1c4.2,0,7.7,3.4,7.7,7.7v93.1
		C483.9,81.5,480.5,84.9,476.2,84.9z"/>
	<rect x="395.2" y="-5.1" class="st2" width="14.5" height="14.5"/>
	<rect x="413.4" y="-5.1" class="st2" width="14.5" height="14.5"/>
	<rect x="431.5" y="-5.1" class="st2" width="14.5" height="14.5"/>
	<rect x="449.7" y="-5.1" class="st2" width="14.5" height="14.5"/>
	<rect x="395.2" y="13.9" class="st2" width="14.5" height="14.5"/>
	<rect x="413.4" y="13.9" class="st2" width="14.5" height="14.5"/>
	<rect x="431.5" y="13.9" class="st2" width="14.5" height="14.5"/>
	<rect x="449.7" y="13.9" class="st2" width="14.5" height="14.5"/>
	<rect x="395.2" y="32.9" class="st2" width="14.5" height="14.5"/>
	<rect x="395.2" y="51.9" class="st2" width="14.5" height="14.5"/>
	<rect x="413.4" y="51.9" class="st2" width="14.5" height="14.5"/>
	<rect x="431.5" y="51.9" class="st2" width="14.5" height="14.5"/>
	<rect x="449.7" y="51.9" class="st2" width="14.5" height="14.5"/>
</g>
</svg>
