<?xml version="1.0" encoding="utf-8"?>
<!-- Generator: Adobe Illustrator 19.0.0, SVG Export Plug-In . SVG Version: 6.00 Build 0)  -->
<svg version="1.1" id="Calque_1" xmlns="http://www.w3.org/2000/svg" xmlns:xlink="http://www.w3.org/1999/xlink" x="0px" y="0px"
	 viewBox="274 -102 798 454" style="enable-background:new 274 -102 798 454;" xml:space="preserve">
<style type="text/css">
	.st0{fill:#023966;}
</style>
<g>
	<path class="st0" d="M609.8,51.3v140h25.6V184c6.7,5.9,13.4,8.9,20.2,8.9c4.6,0,8.6-1,12-2.9c3.4-1.9,6-4.6,8-8.1s3.4-7.4,4.3-11.6
		c0.9-4.3,1.4-8.9,1.4-14v-32.7c0-2.8-0.1-5.6-0.5-8.3c-0.4-2.8-1.1-5.7-2.2-8.9c-1-3.2-2.4-6-4.1-8.3c-1.7-2.4-4-4.3-7-5.9
		c-3-1.5-6.4-2.3-10.2-2.4c-8-0.1-15.2,3-21.9,9.1V51.3H609.8z M645.9,106.2c1.9-0.1,3.5,0.3,4.8,1.2c1.3,0.9,2.3,2.1,3,3.8
		c0.7,1.7,1.2,3.4,1.4,5.2c0.3,1.8,0.4,3.8,0.4,6.2V157c0,2.9-0.1,5.3-0.3,7.3c-0.1,1.9-0.5,3.9-1.1,5.8c-0.5,1.9-1.5,3.3-2.7,4.3
		c-1.2,0.9-2.8,1.4-4.7,1.4c-4.1,0-7.8-1-11.5-3.1V110C638.9,107.5,642.4,106.3,645.9,106.2z"/>
	<path class="st0" d="M957.3,184c1.9,2.7,4.6,4.8,8,6.3c3.5,1.5,7.7,2.2,12.6,2.3c4.4,0.1,10.2-0.3,17.5-1.2v-18.1
		c-2.8,0.4-5.4,0.6-7.8,0.5c-3.5,0-5.9-0.8-7.5-2.2c-1.5-1.4-2.3-3.7-2.3-7v-57.7h16.5V91.3h-16.5V61.8h-25.7v29.4h-10.7v15.6h10.7
		V163c0,4.5,0.4,8.4,1.2,11.8C954.1,178.1,955.4,181.3,957.3,184z"/>
	<path class="st0" d="M727.5,168.2c-3.7,0.2-6.8-1.8-9.2-6c-2.5-4.2-4.4-10.4-5.7-18.5l-19.4,9.6c2.1,12.8,6.1,22.6,11.8,29.4
		c5.8,6.8,13.1,10.2,22.1,10.2c9.4,0,17.2-3.5,23.1-10.1c6.1-6.9,9.1-16.5,9.1-29c0-4.5-0.4-8.7-1.3-12.6c-0.9-3.9-2.2-7.6-4-11
		c-1.8-3.4-3.6-6.3-5.2-8.7c-1.6-2.3-3.7-5-6.2-8l-14.8-18.3c-6.1-7.2-9.2-13.1-9.1-17.6c0-3.3,0.8-6.1,2.4-8.4
		c1.7-2.4,3.8-3.5,6.5-3.4c6.3,0.1,10.7,7.8,13,23.1l16.8-9.6c-1.5-11.8-5-21.1-10.3-28.1s-12.2-10.5-20.7-10.5
		c-8.8,0-16.1,3.5-21.8,10.5s-8.6,16.4-8.8,28.2c-0.2,13.4,4.9,26.2,15.4,38.5l14.6,17c6.9,8.1,10.5,14.8,10.7,20.1
		c0.1,3.7-0.7,6.8-2.4,9.3S730.2,168,727.5,168.2z"/>
	<path class="st0" d="M933.7,243.5c10.6,0,19.2-8.6,19.2-19.2s-8.6-19.3-19.2-19.3c-0.5,0-0.9,0-1.4,0.1l-11.8-20.4
		c0.3-0.3,0.6-0.6,0.9-0.9c5.8-6,8.6-14.7,8.6-26v-33c0-11.3-2.9-19.9-8.6-26c-3.3-3.5-7.6-6-12.9-7.4v-48
		c6.9-2.9,11.7-9.7,11.7-17.6c0-10.6-8.6-19.2-19.2-19.2s-19.2,8.6-19.2,19.2c0,7.9,4.8,14.7,11.7,17.6v46.4
		c-6.7,0.2-12.3,1.4-16.9,3.7l-54.4-59.7c3.1-6.8,2.1-15-3.2-20.9c-7.1-7.8-19.2-8.4-27.1-1.3c-7.8,7.1-8.4,19.2-1.3,27.1
		c5.3,5.9,13.5,7.6,20.5,5.2l54.5,59.8c-3.3,5.5-5,12.6-5,21.2v33c0,11.3,2.9,19.9,8.6,26c5.7,6,14.4,9.1,26,9.1
		c4.4,0,8.4-0.4,11.9-1.3l11.8,20.4c-2.8,3.3-4.4,7.6-4.4,12.2C914.5,234.8,923.1,243.5,933.7,243.5z M904.6,159.3
		c0,2.6-0.1,4.8-0.3,6.5c-0.2,1.7-0.6,3.4-1.1,5.1c-0.5,1.8-1.5,3.1-2.8,4c-1.3,0.8-3,1.3-5.1,1.3c-1.7,0-3.1-0.3-4.3-1
		c-1.2-0.6-2.1-1.4-2.7-2.4c-0.7-0.9-1.2-2.2-1.5-3.8c-0.3-1.6-0.5-3.1-0.6-4.5c-0.1-1.4-0.1-3.1-0.1-5.2v-36.2
		c0-2.6,0.1-4.8,0.3-6.5c0.2-1.7,0.6-3.4,1.1-5.1c0.6-1.8,1.5-3.1,2.8-4c1.3-0.9,3-1.3,5.1-1.3c1.7,0,3.1,0.3,4.3,1
		c1.2,0.6,2.1,1.4,2.7,2.4c0.7,0.9,1.2,2.2,1.5,3.8c0.3,1.6,0.5,3.1,0.6,4.5c0.1,1.4,0.1,3.1,0.1,5.2V159.3z"/>
	<path class="st0" d="M773.3,91.3v132.9H799v-40.3c6.7,6,13.5,9,20.2,9c4.5,0,8.5-1,11.9-2.9c3.4-1.9,6-4.6,8-8.1s3.4-7.4,4.3-11.6
		c0.9-4.3,1.4-8.9,1.4-14v-32.7c0-2.8-0.1-5.6-0.5-8.3c-0.4-2.8-1.1-5.7-2.2-8.9c-1-3.2-2.4-6-4.1-8.3c-1.7-2.4-4-4.3-7-5.9
		c-3-1.5-6.4-2.3-10.2-2.4c-7.9-0.1-15.2,3-21.9,9.2v-7.7H773.3z M799,110.2c3.7-2.6,7.2-3.9,10.6-4c1.9-0.1,3.6,0.3,4.9,1.2
		c1.3,0.9,2.3,2.1,3,3.8c0.7,1.6,1.1,3.4,1.4,5.2c0.3,1.8,0.4,3.9,0.4,6.2V157c0,2.8-0.1,5.2-0.3,7.2s-0.6,3.9-1.2,5.8
		c-0.6,1.9-1.5,3.3-2.8,4.3s-2.9,1.5-4.8,1.5c-3.8,0-7.6-1-11.2-3.1V110.2z"/>
	<path class="st0" d="M456.4,91.3v99.9h25.5v-68.5c2.6-3.6,5.3-6.2,8.1-7.8c2.8-1.5,6-2.4,9.7-2.5c3.1,0,6,0.5,8.9,1.5V90.5
		c-1.2-0.3-2.5-0.4-3.8-0.4c-4.3,0-8.2,1.3-11.9,3.9c-3.7,2.5-7.3,6.8-10.9,12.7V91.3H456.4z"/>
	<path class="st0" d="M436,97.5v-6.8c0-13.7-3.3-24-9.8-30.8c-6.5-6.8-17.3-10.2-32.3-10.2c-8.3,0-15.2,1.1-20.9,3.3
		c-5.7,2.2-10.2,5.5-13.4,9.9c-3.2,4.4-5.5,9.5-6.9,15.3c-1.4,5.8-2.1,12.8-2.1,20.8v45.6c0,15.8,3.2,27.8,9.5,36.1
		c6.3,8.3,16.7,12.4,31,12.4c12.6,0,21.1-5.3,25.9-15.9l2,14.2h17.9v-71.1h-41.3v16.5H412v11.5c0,4.2-0.3,7.9-0.8,10.9
		c-0.6,3-1.5,5.7-2.7,8c-1.2,2.3-3,4-5.2,5.2c-2.2,1.1-5,1.7-8.3,1.7c-6.3,0-10.6-2-12.9-5.9c-2.3-3.9-3.4-10.1-3.4-18.5V93.2
		c0-2.4,0-4.2,0.1-5.7c0-1.5,0.2-3.2,0.4-5.1c0.2-1.9,0.5-3.5,0.9-4.7c0.4-1.3,0.9-2.5,1.7-3.8c0.8-1.3,1.7-2.3,2.8-3
		c1.1-0.7,2.5-1.3,4.1-1.8c1.6-0.5,3.4-0.7,5.5-0.7c2.8,0,5.1,0.3,7,1c1.9,0.7,3.4,1.5,4.5,2.6c1.1,1.1,1.9,2.6,2.5,4.6
		c0.6,2,0.9,4,1.1,6c0.1,2,0.2,4.5,0.2,7.6v7.3H436z"/>
	<path class="st0" d="M589.7,191.3V91.3h-25.5v79.9c-4.4,2.8-8,4.2-11,4.2c-2.8,0.1-4.8-0.7-5.8-2.2c-1.1-1.5-1.6-3.8-1.6-6.9v-75
		h-25.5v79.8c0,6.1,1.5,11.2,4.3,15.4c2.8,4.1,7.3,6.2,13.5,6.2c8.8,0,17.5-3.6,26.1-10.9v9.4H589.7z"/>
</g>
</svg>
