<?xml version="1.0" encoding="utf-8"?>
<!-- Generator: Adobe Illustrator 23.0.1, SVG Export Plug-In . SVG Version: 6.00 Build 0)  -->
<svg version="1.1" id="Calque_1" xmlns="http://www.w3.org/2000/svg" xmlns:xlink="http://www.w3.org/1999/xlink" x="0px" y="0px"
	 viewBox="0 0 798 454" style="enable-background:new 0 0 798 454;" xml:space="preserve">
<style type="text/css">
	.st0{fill:#FFFFFF;}
</style>
<g>
	<path class="st0" d="M141.4,197.7v84.5c0,7.3,1.6,13.3,4.9,18s8,7,14.2,7c3,0,5.9-0.5,8.8-1.5c0,0,6.5,0.2,15.8-5.5v5.2h29.4v-77.6
		h21.4v40c0,3.2,0.1,6,0.3,8.5c0.2,2.5,0.5,5.1,1,7.9c0.5,2.7,1.1,5.1,1.9,7.2c0.8,2.1,1.9,4.1,3.2,6c1.3,1.9,2.9,3.5,4.7,4.8
		s4,2.3,6.6,3.1s5.5,1.3,8.7,1.4c1,0.1,2,0.1,3,0.1c5.3,0,11.1-0.5,17.4-1.6v-24c0,0-0.3,0.1-0.9,0.2c-0.6,0.1-1.2,0.2-1.8,0.3
		c-0.6,0.1-1.4,0.2-2.4,0.2c-1,0.1-1.8,0.1-2.6,0c-6.3-0.2-9.4-3.1-9.4-8.7v-55.7h14.9v-19.8h-14.9V165H236v32.7h-9.9h-11.5h-3
		h-26.5v79c-7.5,4.4-11.9,3.8-14.3,1.9v-80.9H141.4z"/>
	<path class="st0" d="M123.9,206.1v-9.6c0-5.5-0.4-10.4-1.3-14.8c-0.9-4.4-2.3-8.5-4.4-12.2c-2.1-3.7-4.7-6.8-8-9.3
		s-7.3-4.4-12.2-5.8c-4.9-1.4-10.5-2.1-16.8-2.1c-6.5,0-12.3,0.8-17.3,2.4c-5,1.6-9.2,3.9-12.5,6.8c-3.3,2.9-6,6.6-8.1,11
		c-2.1,4.5-3.6,9.3-4.5,14.6c-0.9,5.3-1.4,11.2-1.4,17.9v50.1c0,8.2,0.7,15.3,2.1,21.5c1.3,6.2,3.6,11.7,6.6,16.4
		c3,4.7,7.2,8.3,12.4,10.8s11.5,3.7,18.9,3.7c11.3,0,19.2-5,23.5-14.6l1.8,12.6h21.4v-78.4H81.8V247h13.3v16.9
		c0,13.4-4.3,20.1-12.7,20.1c-4.5,0-7.7-1.7-9.4-5.2c-1.7-3.4-2.6-8.2-2.6-14.2v-69.1c0-2.3,0-4.2,0.1-5.7c0.1-1.5,0.4-3.2,0.8-5.1
		c0.4-1.9,1-3.4,1.8-4.5c0.8-1.2,1.9-2.1,3.3-2.9c1.4-0.8,3.1-1.2,5.2-1.2c2,0,3.7,0.3,5.1,1c1.4,0.7,2.5,1.5,3.2,2.5
		c0.8,1,1.3,2.3,1.7,4.1c0.4,1.7,0.6,3.4,0.7,4.8c0.1,1.4,0.1,3.3,0.1,5.6v12H123.9z"/>
	<polygon class="st0" points="399.6,273.2 380.6,196.2 356.6,196.2 337.1,273.2 316.6,196.2 293.1,196.2 324.6,307.1 349.6,307.1 
		369.1,233.3 388.6,307.1 413.6,307.1 445.1,196.2 421.1,196.2 	"/>
	<path class="st0" d="M746.6,196.1h-24.3c-7.4,39.3-37.7,33-37.7,33v-85.3h-25v163.3h25v-52c9.4-0.3,12.7,6,12.7,6l33.3,46h30
		l-43.3-59.7C747.6,228.8,746.6,196.1,746.6,196.1z"/>
	<path class="st0" d="M603.4,307.2v-59.3c6-31.7,39.3-26.7,39.3-26.7v-25c-30-0.3-39.7,16.7-39.7,16.7v-16.7h-24.6v111H603.4z"/>
	<path class="st0" d="M578.4,196.2L578.4,196.2L578.4,196.2C578.4,196.2,578.4,196.2,578.4,196.2z"/>
	<path class="st0" d="M503.6,310.2c32.3,0,58.5-25.9,58.5-57.9s-26.2-57.9-58.5-57.9c-32.3,0-58.5,25.9-58.5,57.9
		S471.3,310.2,503.6,310.2z M503.6,221.2c17.4,0,31.5,13.9,31.5,31.1s-14.1,31.1-31.5,31.1c-17.4,0-31.5-13.9-31.5-31.1
		S486.2,221.2,503.6,221.2z"/>
</g>
</svg>
