<?xml version="1.0" encoding="utf-8"?>
<!-- Generator: Adobe Illustrator 19.0.0, SVG Export Plug-In . SVG Version: 6.00 Build 0)  -->
<svg version="1.1" id="Calque_1" xmlns="http://www.w3.org/2000/svg" xmlns:xlink="http://www.w3.org/1999/xlink" x="0px" y="0px"
	 viewBox="274 -102 798 454" style="enable-background:new 274 -102 798 454;" xml:space="preserve">
<style type="text/css">
	.st0{fill:#023966;}
</style>
<g>
	<path class="st0" d="M474-7.9c-54.3-6.2-90,18.8-90,18.8s-51.6,32.4-58.1,85.6c0,0,5.5-37,53.5-56s95,17.5,95,17.5l30.8,29
		c0,0,89.7,103,120.7,133s63.5,34.5,63.5,34.5s35.5,9.5,76.5-5.5s55.5-39,55.5-39s29-34,30-74.5c0,0-9.3,28.8-31.5,40.3
		s-36.8,21.3-90,14.5c0,0-19.8-4.3-33.8-12.8s-33.3-27.3-33.3-27.3s-19.3-18.8-37-40.8s-45.3-56.8-45.3-56.8S528.3-1.7,474-7.9z"/>
	<path class="st0" d="M324.4,151.5c9.2,32,16.7,41.7,20,47.7s23.8,26.1,23.8,26.1s51.3,43.8,103.3,31.5s67.8-30.3,67.8-30.3
		c9-4.8,41.5-39.5,41.5-39.5l-49.2-56c0,0-37,43.3-60.8,48.8s-38-5-38-5s-22.3-8.3-29-34.8c-6.7-26.5,3.5-41.8,3.5-41.8
		s1-3.7,16.5-19.7s43-12,43-12c-16-9.8-20.8-11-20.8-11c-33.3-12.3-63.3-4-63.3-4s-33.9,5.5-50.6,46.2
		C332.1,97.7,318.3,132.4,324.4,151.5z"/>
	<path class="st0" d="M882.1,37.4h11.3c0.5,0,0.9-0.4,0.9-0.9V24.3c0-0.4-0.3-0.8-0.8-0.8h-25.2c-0.5,0-0.8,0.5-0.8,1l-0.1,50.7
		c0,0.5,0.4,0.9,0.8,0.9h12.2c0.5,0,0.9-0.4,0.9-1v-17c0-0.4,0.4-0.9,0.7-0.9h5.3c0.5,0,0.8-0.4,0.8-0.8V43.7c0-0.4-0.5-0.7-0.8-0.7
		H882c-0.5,0-0.7-0.2-0.7-0.6v-4.2C881.3,37.7,881.7,37.4,882.1,37.4z"/>
	<path class="st0" d="M797.7,16.3c-2-1.3-34.3-27.8-90.7-25.1C650.8-6,595.4,49.7,594.4,55.5l49.5,62c0,0,43.5-53.5,74-51
		C748.4,69,756.4,83,756.4,83s16.5,16.2,17.5,41.4c1,25.2-21.9,47.7-39,55.1c0,0,36.9,7.7,70.5-6.5s47-52,46-67.5
		c0,0-42.7-3.2-55.7-39.2S799.7,17.6,797.7,16.3z"/>
	<path class="st0" d="M830.1,76c0.5,0,0.8-0.5,0.8-0.9V24.2c0-0.4-0.3-0.7-0.8-0.7h-12c-0.3,0-0.6,0.4-0.6,0.7V75c0,0.5,0.4,1,0.9,1
		H830.1z"/>
	<path class="st0" d="M833.6,24.4V75c0,0.6,0.3,1,0.7,1h10.6c0.5,0,0.9-0.4,0.9-0.9V62.7c0-0.7,0.2-1,0.4-1s0.5,0.3,0.6,1l3.1,12.6
		c0.1,0.4,0.5,0.7,0.8,0.7h13.1c0.5,0,0.8-0.4,0.8-0.9V24.5c0-0.5-0.3-1-0.9-1h-10.5c-0.5,0-0.8,0.4-0.8,0.9V40
		c0,0.6-0.2,0.9-0.4,0.9s-0.4-0.2-0.5-0.8l-4.2-15.8c-0.2-0.5-0.5-0.8-1-0.8h-11.8C834.1,23.5,833.7,23.9,833.6,24.4L833.6,24.4
		L833.6,24.4z"/>
	<path class="st0" d="M972.5,76h11.9c0.6,0,1-0.4,1-0.9V38.6c0-0.6,0.3-1,0.8-1h7c0.6,0,1-0.4,1-1V24.3c0-0.5-0.4-0.8-0.9-0.8h-30
		c-0.4,0-0.6,0.3-0.6,0.7v12.5c0,0.4,0.5,1,0.9,1h7c0.5,0,0.9,0.3,0.9,0.8V75C971.5,75.6,972,76,972.5,76z"/>
	<path class="st0" d="M1022.5,23.5h-24.9c-0.5,0-0.9,0.5-0.9,0.9h-0.2v50.7c0,0.5,0.4,0.9,0.8,0.9h25.1c0.4,0,0.8-0.4,0.8-0.8v-13
		c0-0.4-0.3-0.7-0.8-0.7h-12.1c-0.2,0-0.4-0.2-0.4-0.5v-4.1c0-0.4,0.2-0.6,0.5-0.6h5.7c0.3,0,0.6-0.3,0.6-0.6V43
		c0-0.3-0.2-0.5-0.5-0.5h-5.5c-0.2,0-0.5-0.2-0.5-0.5v-3.9c0-0.3,0.2-0.5,0.5-0.5h11.7c0.5,0,0.8-0.3,0.8-0.7V24.3
		C1023.2,23.9,1022.9,23.5,1022.5,23.5z"/>
	<path class="st0" d="M913,24.4V75c0,0.6,0.3,1,0.7,1h10.6c0.5,0,0.9-0.4,0.9-0.9V62.7c0-0.7,0.2-1,0.4-1s0.5,0.3,0.6,1l3.1,12.6
		c0.1,0.4,0.5,0.7,0.8,0.7h13.1c0.5,0,0.8-0.4,0.8-0.9V24.5c0-0.5-0.3-1-0.9-1h-10.5c-0.5,0-0.8,0.4-0.8,0.9V40
		c0,0.6-0.2,0.9-0.4,0.9s-0.4-0.2-0.5-0.8l-4.2-15.8c-0.2-0.5-0.5-0.8-1-0.8h-11.8C913.5,23.5,913.1,23.9,913,24.4L913,24.4
		L913,24.4z"/>
	<path class="st0" d="M909.5,76c0.5,0,0.8-0.5,0.8-0.9V24.2c0-0.4-0.3-0.7-0.8-0.7h-12c-0.3,0-0.6,0.4-0.6,0.7V75c0,0.5,0.4,1,0.9,1
		H909.5z"/>
	<path class="st0" d="M959.5,76c0.4,0,0.8-0.5,0.8-0.9V24.2c0-0.4-0.3-0.7-0.8-0.7h-12c-0.3,0-0.6,0.4-0.6,0.7V75c0,0.5,0.4,1,0.9,1
		H959.5z"/>
</g>
</svg>
