<?xml version="1.0" encoding="utf-8"?>
<!-- Generator: Adobe Illustrator 23.0.1, SVG Export Plug-In . SVG Version: 6.00 Build 0)  -->
<svg version="1.1" id="Calque_1" xmlns="http://www.w3.org/2000/svg" xmlns:xlink="http://www.w3.org/1999/xlink" x="0px" y="0px"
	 viewBox="0 0 798 454" style="enable-background:new 0 0 798 454;" xml:space="preserve">
<style type="text/css">
	.st0{fill:#FFFFFF;}
</style>
<g>
	<path class="st0" d="M167.3,218.2l29.7,80.7c2.6,6.9,8.2,10.4,16.9,10.4h45.5c13.2,0,19.8,4.6,19.8,13.9c0,6.4-2.3,11.4-7,15
		s-11.2,5.4-19.5,5.4H206c-12.4,0-21.1-1.7-26.1-5.1c-5.1-3.4-9.7-10.6-13.8-21.4l-37.3-100.6l-29,71.5c-5.6,14.1-13.6,21.1-24,21.1
		c-4.3,0-8-1.4-11.1-4.2c-3.1-2.8-4.6-6.1-4.6-10c0-3.1,0.8-6.7,2.4-10.7l1.7-4.1l36.5-89.9c5.5-13.7,8.3-23.1,8.3-28.4
		c0-4.6-2-8.5-6-11.9c-4-3.3-8.6-5-14-5c-9.6,0-18.2,4-25.8,12s-11.5,17-11.5,26.9c0,10.9,5.9,18.4,17.6,22.6
		c7.1,2.5,10.7,6.9,10.7,13.2c0,5.2-2,9.6-6.1,13c-4.1,3.4-9.2,5.1-15.2,5.1c-11.7,0-21.7-5-30.1-14.9C20.3,212.9,16,201,16,187.2
		c0-20.5,7.7-38.4,23-53.8s33.3-23,53.9-23c15.4,0,28.2,4.5,38.5,13.5s15.5,20.2,15.5,33.7c0,9.6-2.4,20.3-7.3,32.3l-4.9,11.9
		l73.8-77.2c8-8.3,15.2-12.5,21.8-12.5c4.5,0,8.2,1.5,11.2,4.4c3,3,4.5,6.7,4.5,11.2c0,5.5-3.8,12.3-11.4,20.2L167.3,218.2z"/>
	<path class="st0" d="M260,228.5l-4.8,11.8c-4.3,10.5-9.9,15.7-16.9,15.7c-4.2,0-7.7-1.3-10.5-3.8s-4.2-5.7-4.2-9.4
		c0-2.2,1-5.8,3.1-11l15.9-39.2c3.8-9.5,9.3-14.2,16.3-14.2c6.9,0,11.2,3.3,12.8,9.8l1.1,4.4c0.6,2.2,1.4,3.7,2.5,4.2
		c1.1,0.6,3.9,0.8,8.3,0.8h32.9c12.3,0,18.4,4.3,18.4,12.9c0,11.9-7.8,17.8-23.3,17.8l-1.6,1.6c-14.9,14.2-22.3,25.2-22.3,33
		c0,7.8,4.3,11.7,12.9,11.7h17.7c11.9,0,17.8,4.1,17.8,12.4c0,5.8-2.1,10.3-6.3,13.5c-4.2,3.2-10,4.8-17.5,4.8h-27.5
		c-9.4,0-17-3.2-23-9.7s-8.9-14.8-8.9-25.2c0-6.6,1.6-12.9,4.8-19.1c3.2-6.2,8.8-13.8,16.9-22.8H260L260,228.5z"/>
	<path class="st0" d="M407.3,195.8c13.6,0,24.8,4.3,33.5,12.9c8.8,8.6,13.1,19.6,13.1,32.9c0,10-2.3,20-6.9,29.9
		c-4.6,9.9-10.5,17.8-17.8,23.7c-4.9,3.8-9.9,6.5-15.1,7.9c-5.2,1.5-12.5,2.2-21.9,2.2c-15.3,0-25.6-1.8-30.9-5.5
		c-12.6-8.6-18.8-21.4-18.8-38.2c0-17.8,6.4-33.2,19.3-46.2C374.7,202.3,389.8,195.8,407.3,195.8z M404,225.7
		c-6.9,0-13.3,3.4-19,10.3c-5.7,6.8-8.6,14.4-8.6,22.6c0,10.9,6.1,16.3,18.3,16.3c7.1,0,12.6-2.2,16.4-6.6
		c6.4-7.2,9.6-15.5,9.6-24.7c0-5.3-1.5-9.6-4.6-12.9C413,227.3,409,225.7,404,225.7z"/>
	<path class="st0" d="M630.5,274.6h16.7c11.8,0,17.7,4.2,17.7,12.5c0,5.7-2.1,10.2-6.3,13.4s-10,4.8-17.4,4.8h-28.5
		c-6.2,0-11.2-1.6-15-4.9c-3.8-3.3-5.8-7.6-5.8-12.9c0-3.7,1.3-8.6,3.8-14.9l13.3-32.2c0.7-1.9,1.1-3.6,1.1-5.2
		c0-6.1-3.1-9.1-9.3-9.1c-4.8,0-9.5,2.2-14.2,6.5c-4.7,4.3-8.4,10-11.2,17.1l-15.7,38.8c-5.2,12.6-12.6,18.8-22.5,18.8
		c-3.8,0-7.1-1.3-9.8-3.8s-4.1-5.5-4.1-9c0-2.7,0.7-5.9,2.1-9.6l1.5-3.8l15.9-39.2c1.4-3.5,2.1-6.2,2.1-8.2c0-2.1-0.9-3.9-2.8-5.4
		c-1.9-1.5-4.1-2.3-6.6-2.3c-10.1,0-18.1,7.3-24,21.9L495,288.2c-5.2,12.6-12.6,19-22.3,19c-3.8,0-7.1-1.2-9.9-3.7
		c-2.8-2.5-4.1-5.5-4.1-9.1c0-2.8,0.7-6,2.1-9.6l1.5-3.8l28-68.9c3.9-9.6,9.8-14.5,17.7-14.5c8.2,0,13.2,3.8,15.2,11.5
		c6.4-5.4,11.5-9,15.5-10.8s8.9-2.7,14.7-2.7c12.6,0,22,5.5,28.2,16.4c10.5-11,22.3-16.4,35.4-16.4c9,0,16.5,2.6,22.6,7.8
		c6,5.2,9.1,11.6,9.1,19.2c0,4.8-1,9.7-3.1,14.8L630.5,274.6z"/>
	<path class="st0" d="M735.3,195.8c13.6,0,24.8,4.3,33.5,12.9c8.8,8.6,13.1,19.6,13.1,32.9c0,10-2.3,20-6.9,29.9
		s-10.5,17.8-17.8,23.7c-4.9,3.8-9.9,6.5-15.1,7.9c-5.2,1.5-12.5,2.2-21.9,2.2c-15.3,0-25.6-1.8-30.9-5.5
		c-12.6-8.6-18.8-21.4-18.8-38.2c0-17.8,6.4-33.2,19.3-46.2C702.7,202.3,717.8,195.8,735.3,195.8z M732,225.7
		c-6.9,0-13.3,3.4-19,10.3c-5.7,6.8-8.6,14.4-8.6,22.6c0,10.9,6.1,16.3,18.3,16.3c7.1,0,12.6-2.2,16.4-6.6
		c6.4-7.2,9.6-15.5,9.6-24.7c0-5.3-1.5-9.6-4.6-12.9C741,227.3,736.9,225.7,732,225.7z"/>
</g>
</svg>
