<?xml version="1.0" encoding="utf-8"?>
<!-- Generator: Adobe Illustrator 23.0.1, SVG Export Plug-In . SVG Version: 6.00 Build 0)  -->
<svg version="1.1" id="Calque_1" xmlns="http://www.w3.org/2000/svg" xmlns:xlink="http://www.w3.org/1999/xlink" x="0px" y="0px"
	 viewBox="0 0 798 454" style="enable-background:new 0 0 798 454;" xml:space="preserve">
<style type="text/css">
	.st0{opacity:0.2;}
	.st1{opacity:0.2;enable-background:new    ;}
</style>
<g>
	<g class="st0">
		<path d="M309.6,266.9c-6.1,0-10.9-1.4-15.5-3.7v35.2h-12.3v-99.7h12.3v3.5c5.4-2.7,11.2-4,17.8-4c13.9,0,25.4,8.6,25.4,24.6v17
			C337.3,258.3,325.8,266.9,309.6,266.9z M325,222.9c0-9.1-5.3-12.8-13-12.8c-6.7,0-11.7,1-17.9,3.5v37.8c4.2,1.8,10.7,3.7,15.4,3.7
			c10.2,0,15.5-3.7,15.5-15.2V222.9z"/>
		<path d="M394.7,265.4v-42.6c0-9.4-3.2-12.8-13-12.8c-6.2,0-11.5,1-17.9,3.4v52h-12.3v-96.5h12.3v33.3c6.2-2.9,11.5-4,17.8-4
			c16.6,0,25.4,9,25.4,24.6v42.6C407,265.4,394.7,265.4,394.7,265.4z"/>
		<path d="M460.8,265.4v-3.8c-5.6,2.9-12.2,4.5-18.2,4.5c-13.6,0-26.1-8.3-26.1-21.9v-2.1c0-11.4,10.1-18.9,23.5-18.9h20.8v-3.7
			c0-6.6-2.7-9.9-13-9.9c-8.2,0-16.8,1.6-24.5,4.5v-12c5.8-2.4,15.4-4,24.3-4c16.2,0,25.4,8,25.4,21.4v45.9H460.8L460.8,265.4z
			 M460.8,234.6h-20.6c-8.3,0-11.4,3.4-11.4,7.5v2.1c0,6.4,4.3,10.6,13.6,10.6c6.1,0,12.3-1.4,18.4-4V234.6z"/>
		<path d="M510.4,266.3c-10.4,0-18.1-1.3-25.4-3.7v-11.9c8.3,2.9,16.8,4.2,25.3,4.2c13.3,0,13.9-4,13.9-7v-2.6
			c0-11.7-39.5-1.4-39.5-27v-2.1c0-12,10.1-18.4,23.2-18.4c9.6,0,17.6,1.4,24,4.3v11.7c-9.4-3.5-15.4-4.5-23.8-4.5
			c-8.6,0-11,2.7-11,6.9v2.9c0,13.3,39.5,1.9,39.5,25.8v3C536.5,258.4,528.5,266.3,510.4,266.3z"/>
		<path d="M558.2,236.8v5.3c0,8.5,5,12.6,15.4,12.6c8.6,0,13.9-1.3,23-4.3v11.5c-6.2,2.6-14.1,4.2-22.9,4.2c-16,0-27.8-8.3-27.8-24
			v-20c0-15.2,9-23.4,25.3-23.4h9.6c11.7,0,20.6,8.2,20.6,19v19L558.2,236.8L558.2,236.8z M589.3,217.8c0-4.6-3-7.5-8.2-7.5h-9.8
			c-10.1,0-13.1,2.9-13.1,11.8v3.7h31L589.3,217.8L589.3,217.8z"/>
		<path d="M655.8,265.4L632,231.2l-4,3.5v30.7h-12.3v-96.5H628v51l24.8-21.3h18.7l-29.9,25.3l29.9,41.4h-15.7V265.4z"/>
		<path d="M683,191.5v-11h12.3v11H683z M683,265.4v-66.7h12.3v66.7H683L683,265.4z"/>
		<path d="M739.5,266.1c-13,0-20.3-6.4-20.3-18.9v-37.4h-9.6v-11.2h9.6v-19.7h12.2v19.7h17v11.2h-17v36.6c0,5.9,2.1,8,8.2,8
			s10.4-0.6,16-1.9v12C750.7,265.4,745.4,266.1,739.5,266.1z"/>
	</g>
	<g>
		<path class="st1" d="M116.4,187.7H85.7v38.4h27.7c16.1,0,21.9-4.1,21.9-16.6v-7.8C135.3,191.4,132.1,187.7,116.4,187.7z"/>
		<path class="st1" d="M230.6,140.1H49.3c-10.1,0-18.3,8.2-18.3,18.3v137.2c0,10.1,8.2,18.3,18.3,18.3h181.4
			c10.1,0,18.3-8.1,18.2-18.2V158.4C248.9,148.3,240.7,140.1,230.6,140.1z M151.2,209.5c0,21.7-14.9,30.9-37.8,30.9H85.7v39.5H69.8
			V173.3h46.6c23.1,0,34.8,9.5,34.8,28.4V209.5z M202.3,279.9L157,226.1l42-52.8h25.7l-43.4,52.8l46.4,53.8H202.3z"/>
	</g>
</g>
</svg>
