<?xml version="1.0" encoding="utf-8"?>
<!-- Generator: Adobe Illustrator 19.0.0, SVG Export Plug-In . SVG Version: 6.00 Build 0)  -->
<svg version="1.1" id="Calque_1" xmlns="http://www.w3.org/2000/svg" xmlns:xlink="http://www.w3.org/1999/xlink" x="0px" y="0px"
	 viewBox="274 -102 798 454" style="enable-background:new 274 -102 798 454;" xml:space="preserve">
<style type="text/css">
	.st0{fill:#023966;}
</style>
<path class="st0" d="M424.8-17.1c-29.7,6.2-37.5,36.5-37.5,36.5L337,267.2c0,0,524.3,6.1,552.8,4.4c28.5-1.7,33.5-4.5,33.5-4.5
	c30.2-10,34.4-33.3,34.4-33.3L1009-21.8l-519.7,0.2C489.3-21.6,454.5-23.3,424.8-17.1z M752.2,162.8h-15.5V89.9h15.5V162.8z
	 M866.9,75.9H884v10.8h-17.1V75.9z M866.9,112.3h11.5v11h-11.5V112.3z M866.9,152.1H884v10.8h-17.1V152.1z M849.1,75.9h15.4v87
	h-15.4V75.9z M842.8,75.9l-17.4,87h-12.3l15-87H842.8z M808.8,75.9l8.2,50.5l-6.3,36.5l-16.7-87H808.8z M771.6,75.9h15.5v87h-15.5
	V75.9z M723,75.9h42.7v11.6H723V75.9z M696.8,74.2c4.1,0.2,7.6,1,10.5,2.5c2.8,1.5,5.2,3.5,6.9,6c1.8,2.5,3,5.5,3.8,8.9
	c0.8,3.4,1.1,7.1,1.1,11.1v6.6H704v-7.4c0-1.7-0.1-3.5-0.2-5.2c-0.2-1.8-0.5-3.4-1-4.8c-0.5-1.4-1.2-2.7-2.2-3.7
	c-0.9-1-2.2-1.6-3.8-1.8V74.2z M700.6,150.6c0.9-1,1.7-2.2,2.2-3.7s0.8-3.1,1-4.9s0.3-3.6,0.3-5.3v-8.3h15.1v6.7
	c-0.1,3.8-0.4,7.4-1.1,10.9c-0.7,3.5-1.9,6.5-3.6,9.2s-4,4.9-6.8,6.5s-6.4,2.6-10.8,2.7v-12h-0.1
	C698.4,152.2,699.6,151.6,700.6,150.6z M671.1,104.2c0-4.1,0.4-7.9,1.1-11.5s2-6.7,3.8-9.4c1.8-2.7,4.2-4.8,7.2-6.4
	c3-1.6,6.7-2.5,11.2-2.6v12c-1.7,0.2-3,0.7-4,1.6c-1,0.9-1.8,2-2.4,3.3s-1,2.8-1.2,4.4c-0.2,1.6-0.3,3.1-0.3,4.7v38
	c0,1.6,0.1,3.1,0.3,4.7c0.2,1.6,0.6,3,1.2,4.4c0.6,1.3,1.4,2.5,2.4,3.3c1,0.9,2.4,1.4,4,1.6v12c-4.5-0.1-8.2-1-11.2-2.7
	c-3-1.7-5.4-3.8-7.2-6.5c-1.8-2.7-3.1-5.8-3.8-9.4c-0.7-3.5-1.1-7.3-1.1-11.3V104.2z M665.4,162.9H650l-3.8-19.5H635l1.3-9h8.9
	l-4.2-25.9l5.9-32.6L665.4,162.9z M632.6,75.8h11.8l-5.8,31.6l-9.7,55.4h-14.8L632.6,75.8z M584.7,152.5c1.7-0.2,3.1-0.7,4.1-1.6
	c1.1-0.9,1.9-2,2.5-3.3c0.6-1.3,1-2.8,1.2-4.4s0.3-3.2,0.3-4.7v-38.1c0-1.6-0.1-3.1-0.3-4.7s-0.6-3.1-1.2-4.4
	c-0.6-1.3-1.4-2.4-2.5-3.3c-1.1-0.9-2.4-1.4-4.1-1.6l0.1-12.2c4.5,0.2,8.2,1,11.2,2.6c3,1.6,5.4,3.7,7.3,6.4
	c1.8,2.7,3.1,5.8,3.9,9.4c0.8,3.6,1.2,7.4,1.2,11.5v30.5c0,4-0.4,7.8-1.2,11.3s-2.1,6.7-3.9,9.4c-1.8,2.7-4.2,4.9-7.3,6.5
	c-3,1.6-6.8,2.5-11.3,2.7V152.5z M558.8,104.2c0-4.1,0.4-7.9,1.1-11.5c0.8-3.6,2.1-6.7,3.9-9.4c1.8-2.7,4.2-4.8,7.3-6.4
	c3-1.6,6.7-2.5,11.2-2.6c0,0,0,12,0,12c-1.7,0.2-3,0.7-4.1,1.6c-1,0.9-1.9,2-2.5,3.3s-1,2.8-1.2,4.4c-0.2,1.6-0.3,3.1-0.3,4.7v38.1
	c0,1.6,0.1,3.1,0.3,4.7c0.2,1.6,0.6,3,1.2,4.3c0.6,1.3,1.4,2.4,2.5,3.3s2.4,1.4,4.1,1.6v12c-4.5-0.1-8.2-1-11.2-2.6
	s-5.4-3.7-7.2-6.4c-1.8-2.7-3.1-5.7-3.9-9.3c-0.8-3.6-1.2-7.3-1.2-11.3V104.2z M535.5,95.9c-0.2-1.4-0.5-2.8-1-4.1
	c-0.5-1.3-1.2-2.4-2.1-3.2c-0.9-0.8-2.1-1.3-3.6-1.3h-5.5V75.9h2.1c4.1,0,7.8,0.4,11,1.3s5.9,2.3,8.1,4.1c2.2,1.8,3.9,4.2,5,7.1
	c1.1,2.9,1.7,6.3,1.7,10.3c0,2-0.1,4-0.2,6.1c-0.2,2.1-0.6,4-1.3,5.9s-1.8,3.7-3.2,5.3c-1.5,1.6-3.5,3.1-6.2,4.2l12.4,42.7h-15.8
	l-10.1-40.6h-3.5l-0.1-9.8h4.8c1.7,0,3-0.5,4-1.4c1-0.9,1.8-2.1,2.3-3.4c0.6-1.3,0.9-2.7,1.1-4.2c0.2-1.5,0.3-2.7,0.3-3.8
	S535.6,97.3,535.5,95.9z M505.4,75.9h15.4v87h-15.4V75.9z M493.2,82.5c1.7,2.1,2.9,4.7,3.7,7.7s1.1,6.3,1.1,10
	c0,4.6-0.5,8.5-1.5,11.6c-1,3.1-2.6,5.8-4.6,7.7c-2,2-4.5,3.4-7.5,4.3c-3,0.9-6.5,1.4-10.4,1.4h-0.6v-11h1.3c2,0,3.5-0.3,4.7-0.9
	c1.1-0.6,2-1.4,2.6-2.6s1-2.7,1.1-4.4c0.2-1.8,0.2-3.9,0.2-6.3c0-2-0.1-3.8-0.3-5.4c-0.2-1.6-0.7-3-1.6-4.1c-0.9-1.1-2.1-2-3.7-2.6
	c-1.6-0.6-3.8-0.9-6.6-0.9v75.9h-15.4v-87h15.4V87h2.2V75.9h0.2h3.2c3.9,0,7.2,0.6,9.9,1.7C489.3,78.8,491.5,80.4,493.2,82.5z"/>
</svg>
