<?xml version="1.0" encoding="utf-8"?>
<!-- Generator: Adobe Illustrator 19.0.0, SVG Export Plug-In . SVG Version: 6.00 Build 0)  -->
<svg version="1.1" id="Calque_1" xmlns="http://www.w3.org/2000/svg" xmlns:xlink="http://www.w3.org/1999/xlink" x="0px" y="0px"
	 viewBox="349 -177 798 454" style="enable-background:new 349 -177 798 454;" xml:space="preserve">
<style type="text/css">
	.st0{opacity:0.2;enable-background:new    ;}
	.st1{enable-background:new    ;}
	.st2{fill:#FFFFFF;}
</style>
<g>
	<path class="st0" d="M412,192.2l50.3-247.8c0,0,7.8-30.3,37.5-36.5c29.7-6.2,64.5-4.5,64.5-4.5l519.7-0.2l-51.3,255.6
		c0,0-4.2,23.3-34.4,33.3c0,0-5,2.8-33.5,4.5C936.3,198.3,412,192.2,412,192.2z"/>
	<g class="st1">
		<path class="st2" d="M546.1,87.9h-15.4v-87h15.4V87.9z M548.5,0.9h3.2c3.9,0,7.2,0.6,9.9,1.7c2.7,1.2,4.9,2.8,6.6,4.9
			c1.7,2.1,2.9,4.7,3.7,7.7c0.8,3,1.1,6.3,1.1,10c0,4.6-0.5,8.5-1.5,11.6s-2.6,5.8-4.6,7.7c-2,2-4.5,3.4-7.5,4.3
			c-3,0.9-6.5,1.4-10.4,1.4h-0.6v-11h1.3c2,0,3.5-0.3,4.7-0.9c1.1-0.6,2-1.4,2.6-2.6s1-2.7,1.1-4.4c0.2-1.8,0.2-3.9,0.2-6.3
			c0-2-0.1-3.8-0.3-5.4c-0.2-1.6-0.7-3-1.6-4.1c-0.9-1.1-2.1-2-3.7-2.6c-1.6-0.6-3.9-0.9-6.8-0.9h2.4V0.9H548.5z"/>
		<path class="st2" d="M580.4,87.9v-87h15.4v87H580.4z M598.2,37.5h4.8c1.7,0,3-0.5,4-1.4s1.8-2.1,2.3-3.4c0.6-1.3,0.9-2.7,1.1-4.2
			c0.2-1.5,0.3-2.7,0.3-3.8s-0.1-2.4-0.2-3.8c-0.2-1.4-0.5-2.8-1-4.1s-1.2-2.4-2.1-3.2c-0.9-0.8-2.1-1.3-3.6-1.3h-5.5V0.9h2.1
			c4.1,0,7.8,0.4,11,1.3c3.2,0.9,5.9,2.3,8.1,4.1s3.9,4.2,5,7.1c1.1,2.9,1.7,6.3,1.7,10.3c0,2-0.1,4-0.2,6.1c-0.2,2.1-0.6,4-1.3,5.9
			s-1.8,3.7-3.2,5.3c-1.5,1.6-3.5,3.1-6.2,4.2l12.4,42.7h-15.8l-10.1-40.6h-3.5L598.2,37.5L598.2,37.5z"/>
		<path class="st2" d="M657.3,11.3c-1.7,0.2-3,0.7-4.1,1.6c-1,0.9-1.9,2-2.5,3.3c-0.6,1.3-1,2.8-1.2,4.4c-0.2,1.6-0.3,3.1-0.3,4.7
			v38.1c0,1.6,0.1,3.1,0.3,4.7c0.2,1.6,0.6,3,1.2,4.3c0.6,1.3,1.4,2.4,2.5,3.3c1.1,0.9,2.4,1.4,4.1,1.6v12c-4.5-0.1-8.2-1-11.2-2.6
			s-5.4-3.7-7.2-6.4c-1.8-2.7-3.1-5.7-3.9-9.3s-1.2-7.3-1.2-11.3V29.2c0-4.1,0.4-7.9,1.1-11.5c0.8-3.6,2.1-6.7,3.9-9.4
			s4.2-4.8,7.3-6.4c3-1.6,6.7-2.5,11.2-2.6C657.3-0.7,657.3,11.3,657.3,11.3z M659.8-0.8c4.5,0.2,8.2,1,11.2,2.6s5.4,3.7,7.3,6.4
			c1.8,2.7,3.1,5.8,3.9,9.4s1.2,7.4,1.2,11.5v30.5c0,4-0.4,7.8-1.2,11.3s-2.1,6.7-3.9,9.4s-4.2,4.9-7.3,6.5c-3,1.6-6.8,2.5-11.3,2.7
			v-12c1.7-0.2,3.1-0.7,4.1-1.6c1.1-0.9,1.9-2,2.5-3.3c0.6-1.3,1-2.8,1.2-4.4c0.2-1.6,0.3-3.2,0.3-4.7V25.4c0-1.6-0.1-3.1-0.3-4.7
			c-0.2-1.6-0.6-3.1-1.2-4.4c-0.6-1.3-1.4-2.4-2.5-3.3c-1.1-0.9-2.4-1.4-4.1-1.6L659.8-0.8L659.8-0.8z"/>
		<path class="st2" d="M713.6,32.4l-9.7,55.4h-14.8l18.5-87h11.8L713.6,32.4z M721.9,0.9l18.5,87H725l-3.8-19.5H710l1.3-9h8.9
			L716,33.5L721.9,0.9z"/>
		<path class="st2" d="M769.4,11.3c-1.7,0.2-3,0.7-4,1.6c-1,0.9-1.8,2-2.4,3.3s-1,2.8-1.2,4.4c-0.2,1.6-0.3,3.1-0.3,4.7v38
			c0,1.6,0.1,3.1,0.3,4.7c0.2,1.6,0.6,3,1.2,4.4c0.6,1.3,1.4,2.5,2.4,3.3c1,0.9,2.4,1.4,4,1.6v12c-4.5-0.1-8.2-1-11.2-2.7
			s-5.4-3.8-7.2-6.5s-3.1-5.8-3.8-9.4c-0.7-3.5-1.1-7.3-1.1-11.3V29.2c0-4.1,0.4-7.9,1.1-11.5s2-6.7,3.8-9.4s4.2-4.8,7.2-6.4
			c3-1.6,6.7-2.5,11.2-2.6V11.3z M771.8-0.8c4.1,0.2,7.6,1,10.5,2.5c2.8,1.5,5.2,3.5,6.9,6c1.8,2.5,3,5.5,3.8,8.9s1.1,7.1,1.1,11.1
			v6.6H779v-7.4c0-1.7-0.1-3.5-0.2-5.2c-0.2-1.8-0.5-3.4-1-4.8s-1.2-2.7-2.2-3.7c-0.9-1-2.2-1.6-3.8-1.8V-0.8z M771.8,77.4
			c1.6-0.2,2.8-0.8,3.8-1.8c0.9-1,1.7-2.2,2.2-3.7s0.8-3.1,1-4.9c0.2-1.8,0.3-3.6,0.3-5.3v-8.3h15.1v6.7c-0.1,3.8-0.4,7.4-1.1,10.9
			c-0.7,3.5-1.9,6.5-3.6,9.2s-4,4.9-6.8,6.5s-6.4,2.6-10.8,2.7v-12H771.8z"/>
		<path class="st2" d="M798,0.9h42.7v11.6H798V0.9z M827.2,14.9v72.9h-15.5V14.9H827.2z"/>
		<path class="st2" d="M846.6,0.9h15.5v87h-15.5V0.9z"/>
		<path class="st2" d="M885.7,87.9L869,0.9h14.8l8.2,50.5L885.7,87.9z M903.1,0.9h14.7l-17.4,87h-12.3L903.1,0.9z"/>
		<path class="st2" d="M924.1,87.9v-87h15.4v87H924.1z M941.9,0.9H959v10.8h-17.1V0.9z M941.9,37.3h11.5v11h-11.5V37.3z M941.9,77.1
			H959v10.8h-17.1V77.1z"/>
	</g>
</g>
</svg>
