<?xml version="1.0" encoding="utf-8"?>
<!-- Generator: Adobe Illustrator 19.0.0, SVG Export Plug-In . SVG Version: 6.00 Build 0)  -->
<svg version="1.1" id="Calque_1" xmlns="http://www.w3.org/2000/svg" xmlns:xlink="http://www.w3.org/1999/xlink" x="0px" y="0px"
	 viewBox="349 -177 798 454" style="enable-background:new 349 -177 798 454;" xml:space="preserve">
<style type="text/css">
	.st0{opacity:0.2;}
</style>
<g>
	<g class="st0">
		<path d="M391.8,28.8L391.8,28.8c-8.6,0-15.5-6.9-15.5-15.5v-36.5c0-8.6,6.9-15.5,15.5-15.5l0,0c8.6,0,15.5,6.9,15.5,15.5v36.5
			C407.3,21.9,400.3,28.8,391.8,28.8z"/>
		<path d="M480.8,28.8L480.8,28.8c-8.6,0-15.5-6.9-15.5-15.5v-79c0-8.6,6.9-15.5,15.5-15.5l0,0c8.6,0,15.5,6.9,15.5,15.5v79
			C496.3,21.9,489.3,28.8,480.8,28.8z"/>
		<path d="M658.8,28.8L658.8,28.8c-8.6,0-15.5-6.9-15.5-15.5v-79c0-8.6,6.9-15.5,15.5-15.5l0,0c8.6,0,15.5,6.9,15.5,15.5v79
			C674.3,21.9,667.3,28.8,658.8,28.8z"/>
		<path d="M569.8,61.8L569.8,61.8c-8.6,0-15.5-6.9-15.5-15.5v-173c0-8.6,6.9-15.5,15.5-15.5l0,0c8.6,0,15.5,6.9,15.5,15.5v173
			C585.3,54.9,578.3,61.8,569.8,61.8z"/>
		<path d="M747.2,28.8L747.2,28.8c-8.6,0-15.5-6.9-15.5-15.5v-36.5c0-8.6,6.9-15.5,15.5-15.5l0,0c8.6,0,15.5,6.9,15.5,15.5v36.5
			C762.7,21.9,755.8,28.8,747.2,28.8z"/>
		<path d="M1104.2,28.8L1104.2,28.8c-8.6,0-15.5-6.9-15.5-15.5v-36.5c0-8.6,6.9-15.5,15.5-15.5l0,0c8.6,0,15.5,6.9,15.5,15.5v36.5
			C1119.7,21.9,1112.8,28.8,1104.2,28.8z"/>
		<path d="M836.2,28.8L836.2,28.8c-8.6,0-15.5-6.9-15.5-15.5v-79c0-8.6,6.9-15.5,15.5-15.5l0,0c8.6,0,15.5,6.9,15.5,15.5v79
			C851.7,21.9,844.8,28.8,836.2,28.8z"/>
		<path d="M1014.2,28.8L1014.2,28.8c-8.6,0-15.5-6.9-15.5-15.5v-79c0-8.6,6.9-15.5,15.5-15.5l0,0c8.6,0,15.5,6.9,15.5,15.5v79
			C1029.7,21.9,1022.8,28.8,1014.2,28.8z"/>
		<path d="M925.2,61.8L925.2,61.8c-8.6,0-15.5-6.9-15.5-15.5v-173c0-8.6,6.9-15.5,15.5-15.5l0,0c8.6,0,15.5,6.9,15.5,15.5v173
			C940.7,54.9,933.8,61.8,925.2,61.8z"/>
	</g>
	<g class="st0">
		<path d="M515.8,242.3c-12,0-20.9-3-26.6-9.1c-5.7-6.1-8.7-16.2-9-30.3l25.2-3.3c0,4,0.2,7.4,0.7,10.1c0.4,2.7,1.1,4.8,1.9,6.3
			c0.8,1.4,1.7,2.5,2.7,3s2.1,0.9,3.3,0.9c3.3,0,5-2.4,5-7.2c0-4.7-1.1-8.7-3.2-12.1s-5.5-7.1-10.2-11.1l-7.7-6.5
			c-2.8-2.4-5.1-4.5-6.8-6.4c-1.8-1.9-3.6-4.1-5.4-6.8c-1.8-2.7-3.2-5.7-4.1-9c-0.9-3.3-1.3-6.9-1.3-10.9c0-10.5,3.2-18.6,9.5-24.3
			c6.3-5.7,15.1-8.6,26.2-8.6c19.9,0,30,11.8,30.1,35.4l-25.8,2.6c0-3.2,0-5.6-0.1-7.1c-0.1-1.6-0.3-3.2-0.6-4.9
			c-0.3-1.7-0.9-2.9-1.6-3.5c-0.8-0.7-1.8-1-3-1c-1.8,0-3.2,1-4.1,2.9s-1.4,3.7-1.4,5.6c0,1,0.1,2,0.3,3c0.2,1,0.3,1.8,0.5,2.6
			c0.1,0.8,0.5,1.6,1,2.5s0.9,1.6,1.1,2.2c0.2,0.5,0.7,1.2,1.5,2.1s1.2,1.5,1.5,1.8c0.2,0.3,0.8,1,1.8,1.8c0.9,0.9,1.5,1.4,1.7,1.6
			s0.8,0.7,1.9,1.7c1.1,1,1.7,1.5,1.8,1.6l7,6.2c3,2.7,5.5,5.2,7.6,7.5c2.1,2.3,4.1,5,6,8.1c1.9,3.1,3.3,6.4,4.3,10
			s1.4,7.5,1.4,11.6c0,8.7-3,16.1-9,22C533.5,239.3,525.6,242.3,515.8,242.3z"/>
		<path d="M590.8,240.4v-51.6L568.6,119h28.1l9.6,32.5l8-32.5h26.9l-21.8,69.8v51.6H590.8z"/>
		<path d="M699.3,242.3c-12,0-20.9-3-26.6-9.1s-8.7-16.2-9-30.3l25.2-3.3c0,4,0.2,7.4,0.7,10.1c0.4,2.7,1.1,4.8,1.9,6.3
			c0.8,1.4,1.7,2.5,2.7,3s2.1,0.9,3.3,0.9c3.3,0,5-2.4,5-7.2c0-4.7-1.1-8.7-3.2-12.1c-2.1-3.4-5.5-7.1-10.2-11.1l-7.7-6.5
			c-2.8-2.4-5.1-4.5-6.8-6.4c-1.8-1.9-3.6-4.1-5.4-6.8c-1.8-2.7-3.2-5.7-4.1-9c-0.9-3.3-1.3-6.9-1.3-10.9c0-10.5,3.2-18.6,9.5-24.3
			c6.3-5.7,15.1-8.6,26.2-8.6c19.9,0,30,11.8,30.1,35.4l-25.8,2.6c0-3.2,0-5.6-0.1-7.1c-0.1-1.6-0.3-3.2-0.6-4.9
			c-0.3-1.7-0.9-2.9-1.6-3.5c-0.8-0.7-1.8-1-3-1c-1.8,0-3.2,1-4.1,2.9c-0.9,1.9-1.4,3.7-1.4,5.6c0,1,0.1,2,0.3,3s0.3,1.8,0.5,2.6
			c0.1,0.8,0.5,1.6,1,2.5s0.9,1.6,1.1,2.2c0.2,0.5,0.7,1.2,1.5,2.1s1.2,1.5,1.5,1.8c0.2,0.3,0.8,1,1.8,1.8c0.9,0.9,1.5,1.4,1.7,1.6
			s0.8,0.7,1.9,1.7c1.1,1,1.7,1.5,1.8,1.6l7,6.2c3,2.7,5.5,5.2,7.6,7.5c2.1,2.3,4.1,5,6,8.1c1.9,3.1,3.3,6.4,4.3,10
			s1.4,7.5,1.4,11.6c0,8.7-3,16.1-9,22C716.9,239.3,709,242.3,699.3,242.3z"/>
		<path d="M770.7,240.4v-99.5H753v-22h65.1v22h-17.7v99.5H770.7z"/>
		<path d="M843.9,240.4V118.9h56.8v19.9h-27.1v27.1h20.2v20.7h-20.2v33.9H901v19.8h-57.1V240.4z"/>
		<path d="M927.8,240.4V118.9h29.7v47.3l18.4-47.3h29.2l-22,55.2l22.3,66.3h-30.5l-15.8-52.6l-1.5,1.9v50.7H927.8z"/>
	</g>
</g>
</svg>
