<?xml version="1.0" encoding="utf-8"?>
<!-- Generator: Adobe Illustrator 19.0.0, SVG Export Plug-In . SVG Version: 6.00 Build 0)  -->
<svg version="1.1" id="Calque_1" xmlns="http://www.w3.org/2000/svg" xmlns:xlink="http://www.w3.org/1999/xlink" x="0px" y="0px"
	 viewBox="349 -177 798 454" style="enable-background:new 349 -177 798 454;" xml:space="preserve">
<style type="text/css">
	.st0{opacity:0.2;fill:none;stroke:#000000;stroke-width:10;stroke-miterlimit:10;enable-background:new    ;}
	.st1{opacity:0.2;enable-background:new    ;}
	.st2{opacity:0.2;}
</style>
<g>
	<path class="st0" d="M438.4-5.1v-45c0,0,30-46.3,68.8,0v45C507.2-5.1,474.3-19.5,438.4-5.1z"/>
	<circle class="st1" cx="472.8" cy="54.7" r="56"/>
	<circle class="st1" cx="460.8" cy="-31.9" r="6.1"/>
	<circle class="st1" cx="484.7" cy="-31.9" r="6.1"/>
	<path class="st1" d="M481.9,112.2c0,0,10,1,25-7.9v43.5c0,0,17.9,8.1,17.3,21h-48.3c0,0,0-11.3,5-12.5L481.9,112.2z"/>
	<path class="st1" d="M438,104.4c0,0,15.3,9.5,26.3,8.6v44c0,0,6.3,5.4,5,10.6h-47.2c0,0,2.3-15.4,13.8-19.4L438,104.4z"/>
	<g class="st2">
		<path d="M632.4,169c-1,0.4-2.5,0.8-4.5,1.1c-2,0.4-4.4,0.5-7.1,0.6c-3.6,0-6.9-0.5-9.5-1.4c-2.6-0.9-4.9-2.3-6.8-3.9
			c-1.8-1.6-3.1-3.8-4-6.1c-0.9-2.4-1.4-5-1.4-8v-42.4h-13.4v-9.8h13.4v-19h11.4v19h20.8v9.8h-20.8v40.7c0,1.6,0.3,3.1,0.8,4.5
			c0.5,1.4,1.3,2.5,2.3,3.5c1,1,2.3,1.8,3.9,2.4c1.5,0.5,3.5,0.9,5.6,0.9c1.5,0,3.1-0.1,4.8-0.4c1.6-0.3,3.3-0.5,4.6-1L632.4,169
			L632.4,169z"/>
		<path d="M688.6,161.1h-0.3c-0.9,1.1-2.1,2.4-3.5,3.5s-3,2.1-4.9,3.1c-1.9,0.9-3.9,1.6-6.1,2.1c-2.3,0.5-4.5,0.8-7,0.8
			c-3.4,0-6.5-0.5-9.3-1.5c-2.8-1-5.3-2.5-7.3-4.4c-2-1.9-3.6-4.3-4.8-7.1c-1.1-2.8-1.6-5.9-1.6-9.5c0-3.5,0.6-6.6,1.9-9.3
			c1.3-2.8,3-5,5.3-7c2.3-1.9,5-3.4,8.1-4.4c3.1-1,6.6-1.5,10.4-1.5c3.6,0,7,0.4,10,1c3,0.6,5.8,1.4,8.3,2.3h0.3v-4.9
			c0-1.9-0.1-3.6-0.4-5c-0.3-1.5-0.6-2.8-1.3-3.9c-1.3-2.4-3.3-4.3-6.1-5.9s-6.5-2.3-11.3-2.3c-3.5,0-6.9,0.4-9.9,1
			c-3.1,0.6-6.3,1.6-9.3,2.8v-9.5c1.1-0.6,2.5-1.1,4.1-1.6c1.6-0.5,3.3-1,5-1.4c1.8-0.4,3.6-0.6,5.6-0.9s3.9-0.3,5.9-0.3
			c7,0,12.8,1.3,17.3,3.8c4.5,2.5,7.6,5.8,9.6,9.9c0.8,1.6,1.3,3.3,1.6,5.1c0.4,1.9,0.5,4,0.5,6.3v46.4h-9.8L688.6,161.1z
			 M688.1,138.2c-2.1-0.6-4.6-1.1-7.5-1.6c-2.9-0.5-6-0.9-9.5-0.9c-4.9,0-8.6,1-11.3,3.1c-2.8,2-4.1,5.3-4.1,9.5c0,2.1,0.4,4,1,5.6
			c0.6,1.6,1.6,3,2.8,4c1.3,1,2.6,1.9,4.3,2.4c1.6,0.5,3.4,0.8,5.3,0.8c2.4,0,4.8-0.4,6.8-1c2.1-0.8,4-1.5,5.6-2.5
			c1.6-1,3-2,4.1-2.9c1.1-1,2-1.8,2.5-2.3v-14.3H688.1z"/>
		<path d="M729.5,117.7c0,1.9,0.4,3.5,1.3,4.8c0.8,1.3,1.9,2.3,3.3,3s2.9,1.4,4.8,1.9c1.8,0.5,3.6,0.9,5.5,1.4
			c2.6,0.6,5.1,1.3,7.5,2c2.4,0.8,4.5,1.8,6.5,3.1s3.6,3.4,4.8,5.8c1.3,2.4,1.9,5.5,1.9,9.4c0,3.5-0.6,6.6-2,9.4
			c-1.4,2.8-3.3,5-5.8,6.8c-2.5,1.8-5.5,3.3-8.9,4.1c-3.5,1-7.3,1.4-11.4,1.4c-2.5,0-4.9-0.1-6.9-0.4c-2.1-0.3-3.9-0.6-5.5-1
			c-1.6-0.4-3-0.9-4.1-1.3c-1.1-0.5-2-0.9-2.8-1.3v-9.5c2.9,1.1,5.8,2.1,8.5,2.8c2.9,0.6,6,1,9.4,1c2.6,0,5.1-0.3,7.3-0.8
			s4-1.3,5.6-2.1c1.6-0.9,2.8-2.1,3.6-3.6c0.9-1.5,1.3-3.1,1.3-5c0-2-0.4-3.6-1.1-4.9c-0.8-1.3-1.8-2.4-3.1-3.1
			c-1.3-0.9-2.8-1.5-4.5-2s-3.5-1-5.4-1.5c-2.5-0.5-4.9-1.1-7.5-1.9c-2.6-0.8-4.8-1.8-6.9-3.1s-3.8-3.1-5-5.4
			c-1.3-2.3-1.9-5.3-1.9-8.8c0-3.6,0.6-6.9,2-9.5c1.4-2.6,3.1-4.9,5.4-6.6c2.3-1.8,4.9-3.1,7.9-4c3-0.9,6.1-1.4,9.5-1.4
			c3.9,0,7.4,0.4,10.8,1.1s6.3,1.6,9,2.8v9.6c-2.9-1.1-5.8-2-8.6-2.8s-6-1.1-9-1.1c-2.6,0-4.9,0.3-6.8,0.8c-1.9,0.5-3.4,1.3-4.6,2.3
			c-1.3,1-2,2.1-2.6,3.4C729.7,114.8,729.5,116.2,729.5,117.7z"/>
		<path d="M827.2,99.2h14.8l-34,32l33.9,37.6h-14.1l-33.4-37h-0.1v37h-11.4V62.8h11.4v67.5h0.1L827.2,99.2z"/>
		<path d="M901.5,169.6c-8.4,0-17.9-2.1-26.6-6.4v5.8h-18.3V25.5h18.3v49.7c9-4.8,16.6-6.1,26.4-6.1c21.1,0,37.8,13.3,37.8,39.9v24
			C939,156.7,921.9,169.6,901.5,169.6z M920.6,108.9c0-17.4-8.4-22.5-19.3-22.5c-8.5,0-16.9,1.6-26.6,5.3v55.4
			c9.5,3.6,19,5.3,26.4,5.3c11.6,0,19.5-5.8,19.5-19.3V108.9z"/>
		<path d="M1007.4,168.9h-17.9c-20.9,0-34.3-13.1-34.3-32.5v-34c0-19.5,13.3-32.5,34-32.5h17.9c20.9,0,34.3,13,34.3,32.5v34
			C1041.4,155.7,1028.1,168.9,1007.4,168.9z M1023.1,102.3c0-10.3-4.5-15.4-15.6-15.4h-17.9c-11.4,0-15.9,5.3-15.9,15.4v34
			c0,10.3,4.5,15.5,15.6,15.5h17.9c11.4,0,15.9-5.3,15.9-15.5V102.3z"/>
		<path d="M1102.2,169.7c-19.3,0-30.1-9.5-30.1-28V86.2h-14.3V69.5h14.3V40.3h18v29.3h25.1v16.6h-25.1v54.4
			c0,8.8,3.1,11.9,12.1,11.9s15.5-1,23.8-2.9v17.9C1118.9,168.9,1111,169.7,1102.2,169.7z"/>
	</g>
	<circle class="st1" cx="383.4" cy="49.5" r="13.4"/>
	<circle class="st1" cx="554.1" cy="49.5" r="13.4"/>
	<circle class="st1" cx="604.2" cy="49.5" r="13.4"/>
	<circle class="st1" cx="660.2" cy="49.5" r="13.4"/>
	<circle class="st1" cx="716.1" cy="49.5" r="13.4"/>
</g>
</svg>
