<?xml version="1.0" encoding="utf-8"?>
<!-- Generator: Adobe Illustrator 19.0.0, SVG Export Plug-In . SVG Version: 6.00 Build 0)  -->
<svg version="1.1" id="Calque_1" xmlns="http://www.w3.org/2000/svg" xmlns:xlink="http://www.w3.org/1999/xlink" x="0px" y="0px"
	 viewBox="349 -177 798 454" style="enable-background:new 349 -177 798 454;" xml:space="preserve">
<style type="text/css">
	.st0{opacity:0.2;}
	.st1{fill:#FFFFFF;}
	.st2{opacity:0.2;enable-background:new    ;}
</style>
<g>
	<g class="st0">
		<path d="M405.2,19.5v67.6h-10.9V19.5H368V8.9h63.6v10.6H405.2z"/>
		<path d="M488.1,87.1l-10.3-30.8h-25.3v30.8h-10.9v-78h34.1c16.1,0,23.9,7.2,23.9,22.7v3.8c0,8.4-4.8,16.7-11.6,19l11.8,32.6H488.1
			z M488.7,31.6c0-9.7-2.4-12.1-13-12.1h-23.2v26.2h27.3c5.8,0,8.9-3.7,8.9-10.2V31.6z"/>
		<path d="M562.1,87.1l-8.6-24H526l-8.8,24H505l30-78h9.2l30.1,78L562.1,87.1L562.1,87.1z M539.7,26.7l-9.6,25.7h19.1L539.7,26.7z"
			/>
		<path d="M634.8,87.1L593,29.7v57.3h-11v-78h9.2L633,66.5V9.1h11v78L634.8,87.1L634.8,87.1z"/>
		<path d="M682.6,88.1c-7.2,0-21.6-2.4-25.7-3.7V73.7c5.3,1.7,18.1,4.1,25.7,4.1c14.8,0,18.2-3.8,18.2-12.8
			c0-19.2-45.7-4.7-45.7-35.3c0-11.9,8.2-21.7,28.1-21.7c8.8,0,18.1,1.8,22.9,3.2v10.7c-4.9-1.6-16.3-3.4-22.9-3.4
			c-14.2,0-17.2,4.2-17.2,11.2c0,20,45.7,3.8,45.7,35.3C711.8,80.8,702.8,88.1,682.6,88.1z"/>
		<path d="M733,19.5v22.3h34.6v10.3H733v34.8h-10.9v-78h51.6v10.6L733,19.5L733,19.5z"/>
		<path d="M817.6,87.1h-10.2c-16.1,0-25.9-9.4-25.9-24.8V9.1h10.9v53.1c0,9.7,4.6,14.3,15,14.3h10.2c10.6,0,15-4.7,15-14.3V8.9h10.9
			v53.2C843.6,77.6,833.7,87.1,817.6,87.1z"/>
		<path d="M879.8,88.1c-7.2,0-21.6-2.4-25.7-3.7V73.7c5.3,1.7,18.1,4.1,25.7,4.1c14.8,0,18.3-3.8,18.3-12.8
			c0-19.2-45.7-4.7-45.7-35.3c0-11.9,8.2-21.7,28.1-21.7c8.8,0,18.1,1.8,22.9,3.2v10.7c-4.9-1.6-16.3-3.4-22.9-3.4
			c-14.2,0-17.2,4.2-17.2,11.2c0,20,45.7,3.8,45.7,35.3C909,80.8,900,88.1,879.8,88.1z"/>
		<path d="M919.4,87.1v-78h53.4v10.6h-42.6v22.3h36.4v10.3h-36.4v24.3h42.6v10.6h-53.4V87.1z"/>
	</g>
	<rect x="919.4" y="19.5" class="st1" width="10.9" height="22.3"/>
	<rect x="722.1" y="19.5" class="st1" width="10.9" height="22.3"/>
	<rect x="919.4" y="52.3" class="st1" width="10.9" height="24.3"/>
	<polygon class="st1" points="526,63.1 530.1,52.4 549.2,52.4 553.6,63.1 	"/>
	<rect x="1043.9" y="8.9" class="st2" width="13" height="83"/>
	<rect x="1066.9" y="8.9" class="st2" width="61.1" height="83"/>
	<rect x="1077.9" y="20.2" class="st1" width="39.2" height="60.8"/>
	<rect x="1017.3" y="75.3" class="st2" width="16.7" height="16.7"/>
</g>
</svg>
