<?xml version="1.0" encoding="utf-8"?>
<!-- Generator: Adobe Illustrator 23.0.1, SVG Export Plug-In . SVG Version: 6.00 Build 0)  -->
<svg version="1.1" id="Calque_1" xmlns="http://www.w3.org/2000/svg" xmlns:xlink="http://www.w3.org/1999/xlink" x="0px" y="0px"
	 viewBox="0 0 798 454" style="enable-background:new 0 0 798 454;" xml:space="preserve">
<style type="text/css">
	.st0{opacity:0.2;fill:#FFFFFF;enable-background:new    ;}
	.st1{fill:#FFFFFF;}
</style>
<g>
	<path class="st0" d="M114.4,141.3l49-10.5v41h36v42h-37v72.5c0,0-0.5,26,37,15v38.5c0,0-21,14-63,0c0,0-19.3-14.4-22-39.3
		S114.4,141.3,114.4,141.3z"/>
	<path class="st0" d="M215.4,173.3V346h49V227.8c0,0,18-20,36-8.5v-46.8c0,0-9.8-5.3-27.3,0.7c0,0-11,6-13.4,13.5l-2.4-14.6
		l-41.9,0.2L215.4,173.3L215.4,173.3z"/>
	<rect x="313.1" y="173" class="st0" width="48.7" height="173.1"/>
	<polygon class="st0" points="313.1,157.3 361.8,146.6 361.8,107 313.1,117.6 	"/>
	<path class="st0" d="M516.9,202.1c0,0-13.3-25.8-44.8-31.8s-46.3,14.5-46.3,14.5l-2.8,1.5v-54.2v-25.2l-44.6,10.4V346h1.5h49.8v-11
		c19.5,13.3,40.3,12,40.3,12c33.8-7,41.8-24.3,41.8-24.3s11.8-11,18-50S516.9,202.1,516.9,202.1z"/>
	<path class="st1" d="M429.1,222.6v72.3c0,0,15,16,36,5c21-11,16.7-54.7,16.7-54.7s-7.5-31.7-27.1-32.3
		C435.1,212.3,429.1,222.6,429.1,222.6z"/>
	<path class="st0" d="M683.8,276h-95c0,0,0,25.1,22.7,27.9c22.7,2.8,34.7,2.5,62.7-8.5l0.3,38.3c0,0-46.3,23.7-87.7,7
		c-41.3-16.7-46-61-46-61s-10.3-53.3,20.7-87.7s78-19,78-19s36,15,42,58.3C681.4,231.3,686.8,247,683.8,276z"/>
	<path class="st1" d="M587.9,238.8c0,0-1.2-27.7,24-29.7s26,30.7,26,30.7h-50V238.8z"/>
</g>
</svg>
