<svg version="1.1" id="Calque_1" xmlns="http://www.w3.org/2000/svg" x="0" y="0" viewBox="274 -102 798 454" style="enable-background:new 274 -102 798 454" xml:space="preserve"><style>.st0{fill:#023966}</style><path class="st0" d="M703.2 181.2c0 4.8 1.4 8.6 4.4 11.4 2.9 2.8 6.9 4.2 11.8 4.2 6.9 0 12.1-2.9 15.6-8.8h.2v7.6h14.4v-31.4c0-14.5-7.3-21.8-21.8-21.8-2.8 0-6.2.4-10.1 1.2-3.9.8-7.1 1.9-9.4 3.2h.1v11.6c5.5-3.7 11.3-5.6 17.5-5.6 6.3 0 9.4 3.1 9.4 9.1l-14.3 1.9c-11.9 1.6-17.8 7.4-17.8 17.4zm32.3-10.4v3.7c0 3.3-1 6-3 8.2s-4.6 3.3-7.7 3.3c-2.3 0-4.1-.6-5.4-1.8s-2-2.8-2-4.7c0-4.2 2.7-6.7 8.2-7.4l9.9-1.3zM610.7 143.6v52h15.2v-25c0-4.7 1-8.3 3-10.9s4.8-3.9 8.2-3.9c2.6 0 4.9.5 6.7 1.6h.2v-14.1c-1-.4-2.3-.6-4.1-.6-6.6 0-11.2 3.6-13.7 10.7h-.2v-9.8h-15.3zM697.3 167.5c0-7.8-2-13.9-6.2-18.4s-9.9-6.7-17.3-6.7-13.5 2.6-18.4 7.8c-4.9 5.2-7.3 11.9-7.3 20.2 0 8.3 2.3 14.8 6.9 19.5 4.6 4.7 11 7 19.3 7 7.7 0 13.9-1.3 18.6-4v-11.1c-4.4 2.8-9.5 4.2-15.2 4.2-9.2 0-14.1-4-14.6-12.1h34.3c-.1 0-.1-6.4-.1-6.4zm-34.4-3.1c.5-3.5 1.8-6.4 3.8-8.5 2-2.1 4.3-3.2 6.9-3.2 6.3 0 9.4 3.9 9.4 11.7h-20.1zM546.6 118.6v76.9h15.2v-6.2h.2c3.3 5 8.1 7.5 14.6 7.5 7.1 0 12.7-2.6 17-7.9 4.3-5.2 6.4-12.2 6.4-20.8 0-8-1.9-14.3-5.6-18.9s-8.9-6.9-15.4-6.9c-7.4 0-13 3.1-17 9.2h-.2v-32.9h-15.2zm18.4 39.2c2.2-2.5 5-3.8 8.4-3.8 3.5 0 6.3 1.3 8.4 3.8 1.9 2.5 2.9 6 2.9 10.5 0 5.4-1.1 9.6-3.2 12.5-2.2 2.9-5.1 4.4-8.9 4.4-3.2 0-5.8-1.2-7.8-3.5-2.1-2.3-3.1-5.2-3.1-8.6v-5.5c0-4 1.1-7.3 3.3-9.8zM391.6 110.5c5-5.6 7.5-12.1 7.5-19.5 0-9.9-4.1-17.8-12.1-23.4-8.1-5.7-19.5-8.5-34.4-8.5h-48.5v136.5l51.1.1c15.2 0 27.3-3.7 36.1-11 8.8-7.4 13.2-17.2 13.2-29.6 0-8.9-3-16.2-8.8-22.1s-13.5-9.4-23-10.6v-.4c7.6-2.1 13.9-5.9 18.9-11.5zm-58.3-29.7 12.2-.1c15.3 0 22.9 5.2 22.9 15.7 0 5.7-1.9 10.1-5.7 13.3-3.8 3.2-9.1 4.8-15.7 4.8h-13.7V80.8zm40.7 73.8c0 6.1-2.1 10.8-6.2 14.2-4.1 3.4-9.9 5.1-17.2 5.1h-17.3v-37.4l17-.1c7.5 0 13.4 1.6 17.5 4.8 4.1 3.2 6.2 7.6 6.2 13.4zM485 76.8v21.4h-16v21.2h16v46c0 21.7 10.3 32.6 31 32.6 8.7 0 15.2-1.2 19.5-3.5v-21.2c-3.4 1.9-6.7 2.8-9.9 2.8-8.2 0-12.3-5.2-12.3-15.6v-41.1h22.2V98.2h-22.2V68.7L485 76.8zM450.7 56.2c-3.1-2.8-7.1-4.2-12-4.2-4.8 0-8.7 1.4-11.8 4.1-3.1 2.7-4.6 6.3-4.6 10.6 0 4.2 1.5 7.8 4.6 10.7 3.1 2.9 7 4.3 11.8 4.3 4.8 0 8.8-1.5 11.9-4.3 3.1-2.8 4.7-6.4 4.7-10.7 0-4.2-1.5-7.7-4.6-10.5zM424.3 98.2h28.4v97.4h-28.4zM926.3 80h42v42h-42zM874.6 143.6v52h15.2v-25c0-4.7 1-8.3 3-10.9s4.8-3.9 8.2-3.9c2.6 0 4.9.5 6.7 1.6l.1-14.1c-1-.4-2.3-.6-4.1-.6-6.6 0-11.2 3.6-13.7 10.7h-.2v-9.8h-15.2zM917.3 130h15v15h-15zM949.9 134h30v30h-30zM762.6 118.7v76.9h15.2v-25.7h.2l17.4 25.7h18.4L793 168.2l19.3-24.5h-18l-16.3 24h-.2v-49zM864.7 167.5c0-7.8-2-13.9-6.2-18.4s-9.9-6.7-17.3-6.7-13.5 2.6-18.4 7.8-7.3 11.9-7.3 20.2c0 8.3 2.3 14.8 6.9 19.5 4.6 4.7 11 7 19.3 7 7.7 0 13.9-1.3 18.6-4v-11.1c-4.4 2.8-9.5 4.2-15.2 4.2-9.2 0-14-4-14.5-12.1h34.1v-6.4zm-34.2-3.1c.5-3.5 1.8-6.4 3.8-8.5 2-2.1 4.3-3.2 6.9-3.2 6.3 0 9.4 3.9 9.4 11.7h-20.1zM979.9 60h62v62h-62z"/></svg>