<svg xmlns="http://www.w3.org/2000/svg" viewBox="349 -177 798 454" style="enable-background:new 349 -177 798 454" xml:space="preserve"><g style="opacity:.2"><path d="M453.1 118c-14.3 0-24.7-4.1-31-12.4-6.3-8.3-9.5-20.3-9.5-36.1V23.9c0-8 .7-15 2.1-20.8 1.4-5.8 3.7-10.9 6.9-15.3s7.7-7.7 13.4-9.9 12.6-3.3 20.9-3.3c15 0 25.8 3.4 32.3 10.2S498 1.9 498 15.6v6.8h-26.5v-7.3c0-3.1-.1-5.6-.2-7.6-.2-2-.5-4-1.1-6-.6-2-1.4-3.5-2.5-4.6-1.1-1.1-2.6-1.9-4.5-2.6-1.9-.7-4.2-1-7-1-2.1 0-3.9.2-5.5.7-1.6.5-3 1.1-4.1 1.8s-2 1.7-2.8 3c-.8 1.3-1.3 2.5-1.7 3.8-.4 1.2-.7 2.8-.9 4.7s-.4 3.6-.4 5.1c-.1 1.5-.1 3.3-.1 5.7v56.5c0 8.4 1.1 14.6 3.4 18.5S450.7 99 457 99c3.3 0 6.1-.6 8.3-1.7 2.2-1.2 4-2.9 5.2-5.2 1.2-2.3 2.1-5 2.7-8 .5-3 .8-6.7.8-10.9V61.7h-16.4V45.2h41.3v71.1H481l-2-14.2c-4.8 10.6-13.3 15.9-25.9 15.9zM518.4 116.2V16.3H544v15.4c3.6-5.9 7.2-10.2 10.9-12.7 3.7-2.6 7.6-3.9 11.9-3.9 1.3 0 2.6.1 3.8.4v23.4c-2.9-1-5.8-1.5-8.9-1.5-3.7.1-6.9 1-9.7 2.5-2.8 1.6-5.5 4.2-8.1 7.8v68.5h-25.5zM600.1 117.7c-6.2 0-10.7-2.1-13.5-6.2-2.8-4.2-4.3-9.3-4.3-15.4V16.3h25.5v75c0 3.1.5 5.4 1.6 6.9 1 1.5 3 2.3 5.8 2.2 3 0 6.6-1.4 11-4.2V16.3h25.5v99.9h-25.5v-9.4c-8.6 7.3-17.3 10.9-26.1 10.9zM717.6 117.8c-6.8 0-13.5-3-20.2-8.9v7.3h-25.6v-140h25.6v47.6c6.7-6.1 13.9-9.2 21.9-9.1 3.8.1 7.2.9 10.2 2.4 3 1.6 5.3 3.5 7 5.9 1.7 2.3 3.1 5.1 4.1 8.3 1.1 3.2 1.8 6.1 2.2 8.9.4 2.7.5 5.5.5 8.3v32.7c0 5.1-.5 9.7-1.4 14-.9 4.2-2.3 8.1-4.3 11.6s-4.6 6.2-8 8.1c-3.4 1.9-7.4 2.9-12 2.9zm-8.9-17c1.9 0 3.5-.5 4.7-1.4 1.2-1 2.2-2.4 2.7-4.3.6-1.9 1-3.9 1.1-5.8.2-2 .3-4.4.3-7.3V47.5c0-2.4-.1-4.4-.4-6.2-.2-1.8-.7-3.5-1.4-5.2-.7-1.7-1.7-2.9-3-3.8-1.3-.9-2.9-1.3-4.8-1.2-3.5.1-7 1.4-10.7 3.9v62.7c3.7 2.1 7.4 3.1 11.5 3.1zM789.1 117.8c-9 0-16.3-3.4-22.1-10.2-5.7-6.8-9.7-16.6-11.8-29.4l19.4-9.6c1.3 8.1 3.2 14.3 5.7 18.5 2.4 4.2 5.5 6.2 9.2 6 2.7-.1 4.9-1.4 6.6-3.9s2.5-5.6 2.4-9.3c-.2-5.3-3.8-12-10.7-20.1l-14.6-17c-10.5-12.3-15.6-25.1-15.4-38.5.2-11.8 3.1-21.2 8.8-28.2 5.7-7 13-10.5 21.8-10.5 8.5 0 15.4 3.5 20.7 10.5 5.3 7 8.8 16.3 10.3 28.1l-16.8 9.6c-2.3-15.3-6.7-23-13-23.1-2.7-.1-4.8 1-6.5 3.4-1.6 2.3-2.4 5.1-2.4 8.4-.1 4.5 3 10.4 9.1 17.6l14.8 18.3c2.5 3 4.6 5.7 6.2 8 1.6 2.4 3.4 5.3 5.2 8.7 1.8 3.4 3.1 7.1 4 11 .9 3.9 1.3 8.1 1.3 12.6 0 12.5-3 22.1-9.1 29-5.9 6.6-13.7 10.1-23.1 10.1zM835.3 149.1V16.2h25.6v7.7c6.7-6.2 14-9.3 21.9-9.2 3.8.1 7.2.9 10.2 2.4 3 1.6 5.3 3.5 7 5.9 1.7 2.3 3.1 5.1 4.1 8.3 1.1 3.2 1.8 6.1 2.2 8.9.4 2.7.5 5.5.5 8.3v32.7c0 5.1-.5 9.7-1.4 14-.9 4.2-2.3 8.1-4.3 11.6s-4.6 6.2-8 8.1-7.4 2.9-11.9 2.9c-6.7 0-13.5-3-20.2-9v40.3h-25.7zm36.9-48.3c1.9 0 3.5-.5 4.8-1.5s2.2-2.4 2.8-4.3 1-3.8 1.2-5.8.3-4.4.3-7.2V47.5c0-2.3-.1-4.4-.4-6.2-.3-1.8-.7-3.6-1.4-5.2-.7-1.7-1.7-2.9-3-3.8-1.3-.9-3-1.3-4.9-1.2-3.4.1-6.9 1.4-10.6 4v62.6c3.6 2.1 7.4 3.1 11.2 3.1zM1039.9 117.5c-4.9-.1-9.1-.8-12.6-2.3-3.4-1.5-6.1-3.6-8-6.3-1.9-2.7-3.2-5.8-4-9.2-.8-3.4-1.2-7.3-1.2-11.8V31.8h-10.7V16.2h10.7v-29.4h25.7v29.4h16.5v15.6h-16.5v57.7c0 3.3.8 5.6 2.3 7 1.6 1.4 4 2.2 7.5 2.2 2.4.1 5-.1 7.8-.5v18.1c-7.3.9-13.1 1.3-17.5 1.2z"/></g><path d="M995.7 129.9c-.5 0-.9 0-1.4.1l-11.8-20.4.9-.9c5.8-6 8.6-14.7 8.6-26v-33c0-11.3-2.9-19.9-8.6-26-3.3-3.5-7.6-6-12.9-7.4v-48c6.9-2.9 11.7-9.7 11.7-17.6 0-10.6-8.6-19.2-19.2-19.2s-19.2 8.6-19.2 19.2c0 7.9 4.8 14.7 11.7 17.6v46.4c-6.7.2-12.3 1.4-16.9 3.7l-54.4-59.7c3.1-6.8 2.1-15-3.2-20.9-7.1-7.8-19.2-8.4-27.1-1.3-7.8 7.1-8.4 19.2-1.3 27.1 5.3 5.9 13.5 7.6 20.5 5.2l54.5 59.8c-3.3 5.5-5 12.6-5 21.2v33c0 11.3 2.9 19.9 8.6 26 5.7 6 14.4 9.1 26 9.1 4.4 0 8.4-.4 11.9-1.3l11.8 20.4c-2.8 3.3-4.4 7.6-4.4 12.2 0 10.6 8.6 19.2 19.2 19.2s19.2-8.6 19.2-19.2-8.6-19.3-19.2-19.3zm-33.3-30c-1.3.8-3 1.3-5.1 1.3-1.7 0-3.1-.3-4.3-1-1.2-.6-2.1-1.4-2.7-2.4-.7-.9-1.2-2.2-1.5-3.8-.3-1.6-.5-3.1-.6-4.5s-.1-3.1-.1-5.2V48.1c0-2.6.1-4.8.3-6.5s.6-3.4 1.1-5.1c.6-1.8 1.5-3.1 2.8-4s3-1.3 5.1-1.3c1.7 0 3.1.3 4.3 1 1.2.6 2.1 1.4 2.7 2.4.7.9 1.2 2.2 1.5 3.8s.5 3.1.6 4.5.1 3.1.1 5.2v36.2c0 2.6-.1 4.8-.3 6.5s-.6 3.4-1.1 5.1c-.5 1.8-1.5 3.1-2.8 4z" style="opacity:.2;enable-background:new"/></svg>