<svg version="1.1" id="Calque_1" xmlns="http://www.w3.org/2000/svg" x="0" y="0" viewBox="274 -102 798 454" style="enable-background:new 274 -102 798 454" xml:space="preserve"><style>.st0{fill:#023966}</style><path class="st0" d="M474-7.9c-54.3-6.2-90 18.8-90 18.8s-51.6 32.4-58.1 85.6c0 0 5.5-37 53.5-56s95 17.5 95 17.5l30.8 29s89.7 103 120.7 133 63.5 34.5 63.5 34.5 35.5 9.5 76.5-5.5 55.5-39 55.5-39 29-34 30-74.5c0 0-9.3 28.8-31.5 40.3s-36.8 21.3-90 14.5c0 0-19.8-4.3-33.8-12.8s-33.3-27.3-33.3-27.3-19.3-18.8-37-40.8-45.3-56.8-45.3-56.8S528.3-1.7 474-7.9z"/><path class="st0" d="M324.4 151.5c9.2 32 16.7 41.7 20 47.7s23.8 26.1 23.8 26.1 51.3 43.8 103.3 31.5 67.8-30.3 67.8-30.3c9-4.8 41.5-39.5 41.5-39.5l-49.2-56s-37 43.3-60.8 48.8-38-5-38-5-22.3-8.3-29-34.8c-6.7-26.5 3.5-41.8 3.5-41.8s1-3.7 16.5-19.7 43-12 43-12c-16-9.8-20.8-11-20.8-11-33.3-12.3-63.3-4-63.3-4s-33.9 5.5-50.6 46.2c0 0-13.8 34.7-7.7 53.8zM882.1 37.4h11.3c.5 0 .9-.4.9-.9V24.3c0-.4-.3-.8-.8-.8h-25.2c-.5 0-.8.5-.8 1l-.1 50.7c0 .5.4.9.8.9h12.2c.5 0 .9-.4.9-1v-17c0-.4.4-.9.7-.9h5.3c.5 0 .8-.4.8-.8V43.7c0-.4-.5-.7-.8-.7H882c-.5 0-.7-.2-.7-.6v-4.2c0-.5.4-.8.8-.8zM797.7 16.3c-2-1.3-34.3-27.8-90.7-25.1C650.8-6 595.4 49.7 594.4 55.5l49.5 62s43.5-53.5 74-51S756.4 83 756.4 83s16.5 16.2 17.5 41.4-21.9 47.7-39 55.1c0 0 36.9 7.7 70.5-6.5s47-52 46-67.5c0 0-42.7-3.2-55.7-39.2s4-48.7 2-50z"/><path class="st0" d="M830.1 76c.5 0 .8-.5.8-.9V24.2c0-.4-.3-.7-.8-.7h-12c-.3 0-.6.4-.6.7V75c0 .5.4 1 .9 1h11.7zM833.6 24.4V75c0 .6.3 1 .7 1h10.6c.5 0 .9-.4.9-.9V62.7c0-.7.2-1 .4-1s.5.3.6 1l3.1 12.6c.1.4.5.7.8.7h13.1c.5 0 .8-.4.8-.9V24.5c0-.5-.3-1-.9-1h-10.5c-.5 0-.8.4-.8.9V40c0 .6-.2.9-.4.9s-.4-.2-.5-.8l-4.2-15.8c-.2-.5-.5-.8-1-.8h-11.8c-.4 0-.8.4-.9.9zM972.5 76h11.9c.6 0 1-.4 1-.9V38.6c0-.6.3-1 .8-1h7c.6 0 1-.4 1-1V24.3c0-.5-.4-.8-.9-.8h-30c-.4 0-.6.3-.6.7v12.5c0 .4.5 1 .9 1h7c.5 0 .9.3.9.8V75c0 .6.5 1 1 1zM1022.5 23.5h-24.9c-.5 0-.9.5-.9.9h-.2v50.7c0 .5.4.9.8.9h25.1c.4 0 .8-.4.8-.8v-13c0-.4-.3-.7-.8-.7h-12.1c-.2 0-.4-.2-.4-.5v-4.1c0-.4.2-.6.5-.6h5.7c.3 0 .6-.3.6-.6V43c0-.3-.2-.5-.5-.5h-5.5c-.2 0-.5-.2-.5-.5v-3.9c0-.3.2-.5.5-.5h11.7c.5 0 .8-.3.8-.7V24.3c0-.4-.3-.8-.7-.8zM913 24.4V75c0 .6.3 1 .7 1h10.6c.5 0 .9-.4.9-.9V62.7c0-.7.2-1 .4-1s.5.3.6 1l3.1 12.6c.1.4.5.7.8.7h13.1c.5 0 .8-.4.8-.9V24.5c0-.5-.3-1-.9-1h-10.5c-.5 0-.8.4-.8.9V40c0 .6-.2.9-.4.9s-.4-.2-.5-.8l-4.2-15.8c-.2-.5-.5-.8-1-.8h-11.8c-.4 0-.8.4-.9.9zM909.5 76c.5 0 .8-.5.8-.9V24.2c0-.4-.3-.7-.8-.7h-12c-.3 0-.6.4-.6.7V75c0 .5.4 1 .9 1h11.7zM959.5 76c.4 0 .8-.5.8-.9V24.2c0-.4-.3-.7-.8-.7h-12c-.3 0-.6.4-.6.7V75c0 .5.4 1 .9 1h11.7z"/></svg>