<svg version="1.1" id="Calque_1" xmlns="http://www.w3.org/2000/svg" x="0" y="0" viewBox="274 -102 798 454" style="enable-background:new 274 -102 798 454" xml:space="preserve"><style>.st0{fill:#023966}</style><path class="st0" d="M420.9 55.6c0-13.5-5.2-24.7-15.5-33.7S382.3 8.4 366.9 8.4c-20.6 0-38.6 7.6-53.9 23-15.3 15.4-23 33.3-23 53.8 0 13.8 4.3 25.7 12.6 35.6 8.4 9.9 18.4 14.9 30.1 14.9 6 0 11.1-1.7 15.2-5.1 4.1-3.4 6.1-7.8 6.1-13 0-6.3-3.6-10.7-10.7-13.2-11.7-4.2-17.6-11.7-17.6-22.6 0-9.9 3.9-18.9 11.5-26.9s16.2-12 25.8-12c5.4 0 10 1.7 14 5 4 3.4 6 7.3 6 11.9 0 5.3-2.8 14.7-8.3 28.4l-36.5 89.9-1.7 4.1c-1.6 4-2.4 7.6-2.4 10.7 0 3.9 1.5 7.2 4.6 10 3.1 2.8 6.8 4.2 11.1 4.2 10.4 0 18.4-7 24-21.1l29-71.5 37.3 100.6c4.1 10.8 8.7 18 13.8 21.4 5 3.4 13.7 5.1 26.1 5.1h46.7c8.3 0 14.8-1.8 19.5-5.4 4.7-3.6 7-8.6 7-15 0-9.3-6.6-13.9-19.8-13.9h-45.5c-8.7 0-14.3-3.5-16.9-10.4l-29.7-80.7 67.3-70.3C516.3 38 520 31.2 520 25.7c0-4.5-1.5-8.2-4.5-11.2-3-2.9-6.7-4.4-11.2-4.4-6.6 0-13.8 4.2-21.8 12.5l-73.8 77.2 4.9-11.9c4.9-12 7.3-22.7 7.3-32.3zM666.2 203.3c9.4 0 16.7-.7 21.9-2.2 5.2-1.4 10.2-4.1 15.1-7.9 7.3-5.9 13.2-13.8 17.8-23.7 4.6-9.9 6.9-19.9 6.9-29.9 0-13.3-4.3-24.3-13.1-32.9-8.7-8.6-19.9-12.9-33.5-12.9-17.5 0-32.6 6.5-45.5 19.6-12.9 13-19.3 28.4-19.3 46.2 0 16.8 6.2 29.6 18.8 38.2 5.3 3.7 15.6 5.5 30.9 5.5zM659 134c5.7-6.9 12.1-10.3 19-10.3 5 0 9 1.6 12.1 5 3.1 3.3 4.6 7.6 4.6 12.9 0 9.2-3.2 17.5-9.6 24.7-3.8 4.4-9.3 6.6-16.4 6.6-12.2 0-18.3-5.4-18.3-16.3 0-8.2 2.9-15.8 8.6-22.6z"/><path class="st0" d="m584 127.9 1.6-1.6c15.5 0 23.3-5.9 23.3-17.8 0-8.6-6.1-12.9-18.4-12.9h-32.9c-4.4 0-7.2-.2-8.3-.8-1.1-.5-1.9-2-2.5-4.2l-1.1-4.4c-1.6-6.5-5.9-9.8-12.8-9.8-7 0-12.5 4.7-16.3 14.2l-15.9 39.2c-2.1 5.2-3.1 8.8-3.1 11 0 3.7 1.4 6.9 4.2 9.4s6.3 3.8 10.5 3.8c7 0 12.6-5.2 16.9-15.7l4.8-11.8h14.6c-8.1 9-13.7 16.6-16.9 22.8-3.2 6.2-4.8 12.5-4.8 19.1 0 10.4 2.9 18.7 8.9 25.2s13.6 9.7 23 9.7h27.5c7.5 0 13.3-1.6 17.5-4.8 4.2-3.2 6.3-7.7 6.3-13.5 0-8.3-5.9-12.4-17.8-12.4h-17.7c-8.6 0-12.9-3.9-12.9-11.7.1-7.8 7.4-18.8 22.3-33zM922.8 120.6c0-7.6-3.1-14-9.1-19.2-6.1-5.2-13.6-7.8-22.6-7.8-13.1 0-24.9 5.4-35.4 16.4-6.2-10.9-15.6-16.4-28.2-16.4-5.8 0-10.7.9-14.7 2.7-4 1.8-9.1 5.4-15.5 10.8-2-7.7-7-11.5-15.2-11.5-7.9 0-13.8 4.9-17.7 14.5l-28 68.9-1.5 3.8c-1.4 3.6-2.1 6.8-2.1 9.6 0 3.6 1.3 6.6 4.1 9.1s6.1 3.7 9.9 3.7c9.7 0 17.1-6.4 22.3-19l16.5-40.3c5.9-14.6 13.9-21.9 24-21.9 2.5 0 4.7.8 6.6 2.3s2.8 3.3 2.8 5.4c0 2-.7 4.7-2.1 8.2L801 179.1l-1.5 3.8c-1.4 3.7-2.1 6.9-2.1 9.6 0 3.5 1.4 6.5 4.1 9 2.7 2.5 6 3.8 9.8 3.8 9.9 0 17.3-6.2 22.5-18.8l15.7-38.8c2.8-7.1 6.5-12.8 11.2-17.1 4.7-4.3 9.4-6.5 14.2-6.5 6.2 0 9.3 3 9.3 9.1 0 1.6-.4 3.3-1.1 5.2l-13.3 32.2c-2.5 6.3-3.8 11.2-3.8 14.9 0 5.3 2 9.6 5.8 12.9 3.8 3.3 8.8 4.9 15 4.9h28.5c7.4 0 13.2-1.6 17.4-4.8 4.2-3.2 6.3-7.7 6.3-13.4 0-8.3-5.9-12.5-17.7-12.5h-16.7l15.1-37.2c2.1-5.1 3.1-10 3.1-14.8zM1009.3 93.8c-17.5 0-32.6 6.5-45.5 19.6-12.9 13-19.3 28.4-19.3 46.2 0 16.8 6.2 29.6 18.8 38.2 5.3 3.7 15.6 5.5 30.9 5.5 9.4 0 16.7-.7 21.9-2.2 5.2-1.4 10.2-4.1 15.1-7.9 7.3-5.9 13.2-13.8 17.8-23.7 4.6-9.9 6.9-19.9 6.9-29.9 0-13.3-4.3-24.3-13.1-32.9-8.6-8.6-19.9-12.9-33.5-12.9zm3.9 72.5c-3.8 4.4-9.3 6.6-16.4 6.6-12.2 0-18.3-5.4-18.3-16.3 0-8.2 2.9-15.8 8.6-22.6 5.7-6.9 12.1-10.3 19-10.3 4.9 0 9 1.6 12.1 5 3.1 3.3 4.6 7.6 4.6 12.9 0 9.2-3.2 17.5-9.6 24.7z"/></svg>