<svg version="1.1" id="Calque_1" xmlns="http://www.w3.org/2000/svg" x="0" y="0" viewBox="0 0 798 454" style="enable-background:new 0 0 798 454" xml:space="preserve"><style>.st1{opacity:.2;enable-background:new}.st2{fill:#fff}</style><path d="M145.3 131c-53 0-96 43-96 96 0 23 8.1 44.1 21.6 60.6L63.3 323l39.6-9.9c12.8 6.3 27.2 9.9 42.4 9.9 53 0 96-43 96-96s-42.9-96-96-96z" style="fill:#fff;enable-background:new"/><g class="st1"><path class="st2" d="M315.5 285.4h-33.8v-93.3h12.6v82.8h21.2v10.5zM332.3 192.1h12.6v93.3h-12.6v-93.3zM358.8 192.1H371l11.7 70.5 12.6-70.5h12l-19.6 93.3h-10l-18.9-93.3zM453.4 285.4h-33.8v-93.3h33.2v10.6h-20.7v29.6h19.2v10.6h-19.2v32.2h21.3v10.3z"/></g><g class="st1"><path class="st2" d="M551 211.6h-17.8v73.8h-19.8v-73.6h-18.2v-17.9H551v17.7zM622.6 285.4h-19.3l-3.1-14.3h-24.1l-3.3 14.3h-19.3l26.1-91.5h20.1l22.9 91.5zm-25.1-29.1-8.1-40h-.3l-9.3 40h17.7zM677 285.4h-42.8v-91.5h19.6v73.5H677v18zM748.7 285.4h-20.9l-18.3-46.2h-.3v46.2h-20v-91.5h20v41.8h.3l17.5-41.8h20.3l-19.4 43.5 20.8 48z"/></g></svg>