<svg version="1.1" id="Calque_1" xmlns="http://www.w3.org/2000/svg" x="0" y="0" viewBox="349 -177 798 454" style="enable-background:new 349 -177 798 454" xml:space="preserve"><style>.st0{opacity:.2;enable-background:new}</style><path class="st0" d="M494.3-46c-53 0-96 43-96 96 0 23 8.1 44.1 21.6 60.6l-7.6 35.4 39.6-9.9c12.8 6.3 27.2 9.9 42.4 9.9 53 0 96-43 96-96s-42.9-96-96-96z"/><path d="M482.5 16.8c3.7-1.3 7.7-2 11.8-2 19.5 0 35.2 15.8 35.2 35.3s-15.8 35.3-35.2 35.3c-19.4 0-35.3-15.8-35.3-35.3 0-9.7 3.9-18.5 10.2-24.8" style="fill:none;stroke:#fff;stroke-width:6;stroke-miterlimit:10"/><path style="fill:none;stroke:#fff;stroke-width:6;stroke-linecap:round;stroke-miterlimit:10" d="M494.3 31.2v21.1l10.5 9.9"/><g class="st0"><path d="M664.5 108.4h-33.8V15.1h12.6v82.8h21.2v10.5zM681.3 15.1h12.6v93.3h-12.6V15.1zM707.8 15.1H720l11.7 70.5 12.6-70.5h12l-19.6 93.3h-10l-18.9-93.3zM802.4 108.4h-33.8V15.1h33.2v10.6h-20.7v29.6h19.2v10.6h-19.2v32.2h21.3v10.3z"/></g><g class="st0"><path d="M900 34.6h-17.8v73.8h-19.8V34.8h-18.2V16.9H900v17.7zM971.6 108.4h-19.3l-3.1-14.3h-24.1l-3.3 14.3h-19.3l26.1-91.5h20.1l22.9 91.5zm-25.1-29.1-8.1-40h-.3l-9.3 40h17.7zM1026 108.4h-42.8V16.9h19.6v73.5h23.2v18zM1097.7 108.4h-20.9l-18.3-46.2h-.3v46.2h-20V16.9h20v41.8h.3l17.5-41.8h20.3l-19.4 43.5 20.8 48z"/></g></svg>