<svg xmlns="http://www.w3.org/2000/svg" viewBox="349 -177 798 454" style="enable-background:new 349 -177 798 454" xml:space="preserve"><circle cx="453.8" cy="50" r="82.8" style="opacity:.2;enable-background:new"/><path d="M372.8 65.5s2.1 12 5.4 17.8l78.2-26.8-4.3 26.8 84.5-29.8s-.3-18.2-1.3-18.2-59.7 17.8-59.7 17.8l4.5-26.2-107.3 38.6z" style="fill:#fff"/><g style="opacity:.2"><path d="M597.2 58.7v24.5h-5.8v-63h16.3c3.3 0 6.2.4 8.8 1.2s4.7 2 6.5 3.6c1.8 1.6 3.1 3.5 4 5.7.9 2.3 1.4 4.8 1.4 7.7 0 2.9-.5 5.6-1.5 8.1s-2.5 4.6-4.4 6.4c-1.9 1.8-4.3 3.2-7 4.2-2.8 1-5.9 1.5-9.4 1.5l-8.9.1zm0-33.2v27.8h8.3c5.4 0 9.5-1.3 12.3-3.8s4.2-6.1 4.2-10.7c0-8.9-5.2-13.3-15.6-13.3h-9.2zM666.7 84.3c-4.5 0-8.6-.8-12.3-2.5-3.6-1.7-6.7-3.9-9.3-6.8-2.5-2.9-4.5-6.2-5.8-10.1s-2-8-2-12.5c0-4.9.7-9.4 2-13.5 1.4-4.1 3.3-7.6 6-10.5 2.6-2.9 5.8-5.2 9.6-6.8 3.8-1.6 8.1-2.4 12.9-2.4 4.5 0 8.5.8 12 2.4s6.6 3.8 9.1 6.6 4.4 6.2 5.7 10c1.3 3.9 2 8.1 2 12.6 0 4.8-.7 9.2-2 13.3-1.3 4.1-3.2 7.6-5.8 10.6-2.5 3-5.7 5.3-9.4 7-3.6 1.7-7.9 2.6-12.7 2.6zm.4-59.9c-3.8 0-7.2.7-10.1 2.2s-5.4 3.4-7.4 5.9-3.6 5.4-4.6 8.7c-1 3.3-1.6 6.9-1.6 10.6 0 3.6.4 7 1.4 10.3s2.4 6.2 4.3 8.7 4.3 4.5 7.3 6c2.9 1.5 6.4 2.2 10.3 2.2s7.4-.7 10.3-2c3-1.4 5.5-3.3 7.4-5.7 2-2.4 3.5-5.3 4.5-8.6s1.5-7 1.5-10.9c0-3.7-.4-7.2-1.3-10.5s-2.3-6.2-4.2-8.7c-1.9-2.5-4.3-4.4-7.2-5.9-2.9-1.5-6.5-2.3-10.6-2.3zM763.5 83.2h-6.1l-13.5-46.7c-.3-1.1-.6-2.2-.8-3.2-.2-1-.3-2-.3-3h-.2c-.1 1.7-.5 3.7-1.3 6.1l-14 46.8h-6.1l-18.6-63h6.5L723 69.6c.3 1.1.6 2.1.8 3.1s.3 1.9.5 2.8h.2c.2-1.3.7-3.3 1.5-5.9l14.8-49.4h4.6l13.8 49.6c.3 1 .5 2 .7 2.9.2.9.4 1.9.5 2.8h.2c.1-.6.2-1.2.4-2s.4-1.6.6-2.5l13.8-50.9h6.4l-18.3 63.1zM791.5 83.2v-63h30.7v5.4h-24.9v23.1h23V54h-23v24h26.3v5.3l-32.1-.1zM871.1 83.2l-9.5-18.1c-.9-1.8-1.8-3.3-2.7-4.5s-1.8-2.2-2.7-2.9-1.9-1.2-3-1.5-2.3-.5-3.6-.5h-6.9v27.4h-5.8v-63H855c2.4 0 4.7.4 6.9 1.1s4.2 1.7 5.9 3.1 3.1 3.1 4.2 5.2 1.6 4.5 1.6 7.3c0 2.2-.3 4.3-1 6.2s-1.6 3.5-2.9 5c-1.2 1.4-2.8 2.7-4.5 3.7-1.8 1-3.8 1.8-6 2.3v.2c.8.4 1.6.8 2.3 1.4s1.4 1.2 2 2c.7.8 1.3 1.7 2 2.7s1.3 2.2 2 3.5l10.6 19.5h-7v-.1zm-28.5-57.7v24.9H853c2.1 0 4-.3 5.8-.9s3.3-1.5 4.5-2.6 2.2-2.5 2.9-4.1 1-3.4 1-5.4c0-3.7-1.2-6.5-3.5-8.6s-5.8-3.1-10.2-3.1h-10.9v-.2zM887.7 83.2v-63h22.9c7 0 12.4 1.3 16.2 3.9s5.7 6.2 5.7 10.9c0 3.4-1.2 6.4-3.4 8.9-2.3 2.5-5.2 4.3-8.8 5.3v.2c4.5.6 8.1 2.2 10.7 5 2.7 2.8 4 6.1 4 10.1 0 5.8-2.1 10.3-6.2 13.7-4.1 3.4-9.8 5.1-16.9 5.1h-24.2v-.1zm14.2-52.6v14.9h6.2c2.9 0 5.2-.7 6.9-2.1s2.5-3.4 2.5-5.9c0-4.6-3.5-6.9-10.4-6.9h-5.2zm0 25.5v16.6h7.7c3.3 0 5.9-.8 7.7-2.3 1.9-1.5 2.8-3.6 2.8-6.2 0-2.5-.9-4.5-2.7-5.9s-4.4-2.2-7.7-2.2h-7.8zM1000.8 83.2h-15.5l-4.5-14h-22.4l-4.4 14h-15.4l22.9-63h16.8l22.5 63zm-23.2-24.9-6.8-21.2c-.5-1.6-.8-3.5-1.1-5.7h-.4c-.1 1.8-.5 3.7-1.1 5.5l-6.9 21.4h16.3zM1046.2 83.2h-37.5v-63h14.2v51.5h23.3v11.5zM1092.2 83.2h-37.5v-63h14.2v51.5h23.3v11.5z"/></g></svg>