<svg xmlns="http://www.w3.org/2000/svg" viewBox="274 -102 798 454" style="enable-background:new 274 -102 798 454" xml:space="preserve"><path d="M424.8-17.1c-29.7 6.2-37.5 36.5-37.5 36.5L337 267.2s524.3 6.1 552.8 4.4c28.5-1.7 33.5-4.5 33.5-4.5 30.2-10 34.4-33.3 34.4-33.3L1009-21.8l-519.7.2s-34.8-1.7-64.5 4.5zm327.4 179.9h-15.5V89.9h15.5v72.9zm114.7-86.9H884v10.8h-17.1V75.9zm0 36.4h11.5v11h-11.5v-11zm0 39.8H884v10.8h-17.1v-10.8zm-17.8-76.2h15.4v87h-15.4v-87zm-6.3 0-17.4 87h-12.3l15-87h14.7zm-34 0 8.2 50.5-6.3 36.5-16.7-87h14.8zm-37.2 0h15.5v87h-15.5v-87zm-48.6 0h42.7v11.6H723V75.9zm-26.2-1.7c4.1.2 7.6 1 10.5 2.5 2.8 1.5 5.2 3.5 6.9 6 1.8 2.5 3 5.5 3.8 8.9.8 3.4 1.1 7.1 1.1 11.1v6.6H704v-7.4c0-1.7-.1-3.5-.2-5.2-.2-1.8-.5-3.4-1-4.8s-1.2-2.7-2.2-3.7c-.9-1-2.2-1.6-3.8-1.8V74.2zm3.8 76.4c.9-1 1.7-2.2 2.2-3.7s.8-3.1 1-4.9.3-3.6.3-5.3v-8.3h15.1v6.7c-.1 3.8-.4 7.4-1.1 10.9-.7 3.5-1.9 6.5-3.6 9.2s-4 4.9-6.8 6.5-6.4 2.6-10.8 2.7v-12h-.1c1.6-.2 2.8-.8 3.8-1.8zm-29.5-46.4c0-4.1.4-7.9 1.1-11.5s2-6.7 3.8-9.4c1.8-2.7 4.2-4.8 7.2-6.4 3-1.6 6.7-2.5 11.2-2.6v12c-1.7.2-3 .7-4 1.6-1 .9-1.8 2-2.4 3.3s-1 2.8-1.2 4.4c-.2 1.6-.3 3.1-.3 4.7v38c0 1.6.1 3.1.3 4.7.2 1.6.6 3 1.2 4.4.6 1.3 1.4 2.5 2.4 3.3 1 .9 2.4 1.4 4 1.6v12c-4.5-.1-8.2-1-11.2-2.7-3-1.7-5.4-3.8-7.2-6.5-1.8-2.7-3.1-5.8-3.8-9.4-.7-3.5-1.1-7.3-1.1-11.3v-30.2zm-5.7 58.7H650l-3.8-19.5H635l1.3-9h8.9l-4.2-25.9 5.9-32.6 18.5 87zm-32.8-87.1h11.8l-5.8 31.6-9.7 55.4h-14.8l18.5-87zm-47.9 76.7c1.7-.2 3.1-.7 4.1-1.6 1.1-.9 1.9-2 2.5-3.3.6-1.3 1-2.8 1.2-4.4s.3-3.2.3-4.7v-38.1c0-1.6-.1-3.1-.3-4.7s-.6-3.1-1.2-4.4c-.6-1.3-1.4-2.4-2.5-3.3-1.1-.9-2.4-1.4-4.1-1.6l.1-12.2c4.5.2 8.2 1 11.2 2.6s5.4 3.7 7.3 6.4c1.8 2.7 3.1 5.8 3.9 9.4.8 3.6 1.2 7.4 1.2 11.5v30.5c0 4-.4 7.8-1.2 11.3s-2.1 6.7-3.9 9.4c-1.8 2.7-4.2 4.9-7.3 6.5-3 1.6-6.8 2.5-11.3 2.7v-12zm-25.9-48.3c0-4.1.4-7.9 1.1-11.5.8-3.6 2.1-6.7 3.9-9.4 1.8-2.7 4.2-4.8 7.3-6.4 3-1.6 6.7-2.5 11.2-2.6v12c-1.7.2-3 .7-4.1 1.6-1 .9-1.9 2-2.5 3.3s-1 2.8-1.2 4.4c-.2 1.6-.3 3.1-.3 4.7v38.1c0 1.6.1 3.1.3 4.7.2 1.6.6 3 1.2 4.3.6 1.3 1.4 2.4 2.5 3.3s2.4 1.4 4.1 1.6v12c-4.5-.1-8.2-1-11.2-2.6s-5.4-3.7-7.2-6.4c-1.8-2.7-3.1-5.7-3.9-9.3-.8-3.6-1.2-7.3-1.2-11.3v-30.5zm-23.3-8.3c-.2-1.4-.5-2.8-1-4.1-.5-1.3-1.2-2.4-2.1-3.2-.9-.8-2.1-1.3-3.6-1.3h-5.5V75.9h2.1c4.1 0 7.8.4 11 1.3s5.9 2.3 8.1 4.1c2.2 1.8 3.9 4.2 5 7.1 1.1 2.9 1.7 6.3 1.7 10.3 0 2-.1 4-.2 6.1-.2 2.1-.6 4-1.3 5.9s-1.8 3.7-3.2 5.3c-1.5 1.6-3.5 3.1-6.2 4.2l12.4 42.7h-15.8l-10.1-40.6h-3.5l-.1-9.8h4.8c1.7 0 3-.5 4-1.4 1-.9 1.8-2.1 2.3-3.4.6-1.3.9-2.7 1.1-4.2.2-1.5.3-2.7.3-3.8s-.1-2.4-.2-3.8zm-30.1-20h15.4v87h-15.4v-87zm-12.2 6.6c1.7 2.1 2.9 4.7 3.7 7.7s1.1 6.3 1.1 10c0 4.6-.5 8.5-1.5 11.6-1 3.1-2.6 5.8-4.6 7.7-2 2-4.5 3.4-7.5 4.3-3 .9-6.5 1.4-10.4 1.4h-.6v-11h1.3c2 0 3.5-.3 4.7-.9 1.1-.6 2-1.4 2.6-2.6s1-2.7 1.1-4.4c.2-1.8.2-3.9.2-6.3 0-2-.1-3.8-.3-5.4-.2-1.6-.7-3-1.6-4.1-.9-1.1-2.1-2-3.7-2.6-1.6-.6-3.8-.9-6.6-.9v75.9h-15.4v-87h15.4V87h2.2V75.9H476.7c3.9 0 7.2.6 9.9 1.7 2.7 1.2 4.9 2.8 6.6 4.9z" style="fill:#023966"/></svg>