<svg version="1.1" id="Calque_1" xmlns="http://www.w3.org/2000/svg" x="0" y="0" viewBox="349 -177 798 454" style="enable-background:new 349 -177 798 454" xml:space="preserve"><style>.st2{fill:#fff}</style><path d="m412 192.2 50.3-247.8s7.8-30.3 37.5-36.5c29.7-6.2 64.5-4.5 64.5-4.5l519.7-.2-51.3 255.6s-4.2 23.3-34.4 33.3c0 0-5 2.8-33.5 4.5-28.5 1.7-552.8-4.4-552.8-4.4z" style="opacity:.2;enable-background:new"/><g style="enable-background:new"><path class="st2" d="M546.1 87.9h-15.4V.9h15.4v87zm2.4-87h3.2c3.9 0 7.2.6 9.9 1.7 2.7 1.2 4.9 2.8 6.6 4.9 1.7 2.1 2.9 4.7 3.7 7.7.8 3 1.1 6.3 1.1 10 0 4.6-.5 8.5-1.5 11.6s-2.6 5.8-4.6 7.7c-2 2-4.5 3.4-7.5 4.3-3 .9-6.5 1.4-10.4 1.4h-.6v-11h1.3c2 0 3.5-.3 4.7-.9 1.1-.6 2-1.4 2.6-2.6s1-2.7 1.1-4.4c.2-1.8.2-3.9.2-6.3 0-2-.1-3.8-.3-5.4-.2-1.6-.7-3-1.6-4.1-.9-1.1-2.1-2-3.7-2.6-1.6-.6-3.9-.9-6.8-.9h2.4V.9h.2zM580.4 87.9V.9h15.4v87h-15.4zm17.8-50.4h4.8c1.7 0 3-.5 4-1.4s1.8-2.1 2.3-3.4c.6-1.3.9-2.7 1.1-4.2.2-1.5.3-2.7.3-3.8s-.1-2.4-.2-3.8c-.2-1.4-.5-2.8-1-4.1s-1.2-2.4-2.1-3.2c-.9-.8-2.1-1.3-3.6-1.3h-5.5V.9h2.1c4.1 0 7.8.4 11 1.3s5.9 2.3 8.1 4.1 3.9 4.2 5 7.1c1.1 2.9 1.7 6.3 1.7 10.3 0 2-.1 4-.2 6.1-.2 2.1-.6 4-1.3 5.9s-1.8 3.7-3.2 5.3c-1.5 1.6-3.5 3.1-6.2 4.2l12.4 42.7h-15.8l-10.1-40.6h-3.5l-.1-9.8zM657.3 11.3c-1.7.2-3 .7-4.1 1.6-1 .9-1.9 2-2.5 3.3-.6 1.3-1 2.8-1.2 4.4-.2 1.6-.3 3.1-.3 4.7v38.1c0 1.6.1 3.1.3 4.7.2 1.6.6 3 1.2 4.3.6 1.3 1.4 2.4 2.5 3.3 1.1.9 2.4 1.4 4.1 1.6v12c-4.5-.1-8.2-1-11.2-2.6s-5.4-3.7-7.2-6.4c-1.8-2.7-3.1-5.7-3.9-9.3s-1.2-7.3-1.2-11.3V29.2c0-4.1.4-7.9 1.1-11.5.8-3.6 2.1-6.7 3.9-9.4s4.2-4.8 7.3-6.4c3-1.6 6.7-2.5 11.2-2.6v12zm2.5-12.1c4.5.2 8.2 1 11.2 2.6s5.4 3.7 7.3 6.4c1.8 2.7 3.1 5.8 3.9 9.4s1.2 7.4 1.2 11.5v30.5c0 4-.4 7.8-1.2 11.3s-2.1 6.7-3.9 9.4-4.2 4.9-7.3 6.5c-3 1.6-6.8 2.5-11.3 2.7v-12c1.7-.2 3.1-.7 4.1-1.6 1.1-.9 1.9-2 2.5-3.3.6-1.3 1-2.8 1.2-4.4.2-1.6.3-3.2.3-4.7V25.4c0-1.6-.1-3.1-.3-4.7-.2-1.6-.6-3.1-1.2-4.4-.6-1.3-1.4-2.4-2.5-3.3-1.1-.9-2.4-1.4-4.1-1.6l.1-12.2zM713.6 32.4l-9.7 55.4h-14.8l18.5-87h11.8l-5.8 31.6zM721.9.9l18.5 87H725l-3.8-19.5H710l1.3-9h8.9L716 33.5 721.9.9zM769.4 11.3c-1.7.2-3 .7-4 1.6-1 .9-1.8 2-2.4 3.3s-1 2.8-1.2 4.4c-.2 1.6-.3 3.1-.3 4.7v38c0 1.6.1 3.1.3 4.7.2 1.6.6 3 1.2 4.4.6 1.3 1.4 2.5 2.4 3.3 1 .9 2.4 1.4 4 1.6v12c-4.5-.1-8.2-1-11.2-2.7s-5.4-3.8-7.2-6.5-3.1-5.8-3.8-9.4c-.7-3.5-1.1-7.3-1.1-11.3V29.2c0-4.1.4-7.9 1.1-11.5s2-6.7 3.8-9.4 4.2-4.8 7.2-6.4c3-1.6 6.7-2.5 11.2-2.6v12zm2.4-12.1c4.1.2 7.6 1 10.5 2.5 2.8 1.5 5.2 3.5 6.9 6 1.8 2.5 3 5.5 3.8 8.9s1.1 7.1 1.1 11.1v6.6H779v-7.4c0-1.7-.1-3.5-.2-5.2-.2-1.8-.5-3.4-1-4.8s-1.2-2.7-2.2-3.7c-.9-1-2.2-1.6-3.8-1.8V-.8zm0 78.2c1.6-.2 2.8-.8 3.8-1.8.9-1 1.7-2.2 2.2-3.7s.8-3.1 1-4.9c.2-1.8.3-3.6.3-5.3v-8.3h15.1v6.7c-.1 3.8-.4 7.4-1.1 10.9-.7 3.5-1.9 6.5-3.6 9.2s-4 4.9-6.8 6.5-6.4 2.6-10.8 2.7v-12h-.1zM798 .9h42.7v11.6H798V.9zm29.2 14v72.9h-15.5V14.9h15.5zM846.6.9h15.5v87h-15.5V.9zM885.7 87.9 869 .9h14.8l8.2 50.5-6.3 36.5zm17.4-87h14.7l-17.4 87h-12.3l15-87zM924.1 87.9V.9h15.4v87h-15.4zm17.8-87H959v10.8h-17.1V.9zm0 36.4h11.5v11h-11.5v-11zm0 39.8H959v10.8h-17.1V77.1z"/></g></svg>