<svg version="1.1" id="Calque_1" xmlns="http://www.w3.org/2000/svg" x="0" y="0" viewBox="349 -177 798 454" style="enable-background:new 349 -177 798 454" xml:space="preserve"><style>.st1{fill:#fff}.st2{opacity:.2;enable-background:new}</style><g style="opacity:.2"><path d="M405.2 19.5v67.6h-10.9V19.5H368V8.9h63.6v10.6h-26.4zM488.1 87.1l-10.3-30.8h-25.3v30.8h-10.9v-78h34.1c16.1 0 23.9 7.2 23.9 22.7v3.8c0 8.4-4.8 16.7-11.6 19l11.8 32.6h-11.7zm.6-55.5c0-9.7-2.4-12.1-13-12.1h-23.2v26.2h27.3c5.8 0 8.9-3.7 8.9-10.2v-3.9zM562.1 87.1l-8.6-24H526l-8.8 24H505l30-78h9.2l30.1 78h-12.2zm-22.4-60.4-9.6 25.7h19.1l-9.5-25.7zM634.8 87.1 593 29.7V87h-11V9h9.2L633 66.5V9.1h11v78h-9.2zM682.6 88.1c-7.2 0-21.6-2.4-25.7-3.7V73.7c5.3 1.7 18.1 4.1 25.7 4.1 14.8 0 18.2-3.8 18.2-12.8 0-19.2-45.7-4.7-45.7-35.3 0-11.9 8.2-21.7 28.1-21.7 8.8 0 18.1 1.8 22.9 3.2v10.7c-4.9-1.6-16.3-3.4-22.9-3.4-14.2 0-17.2 4.2-17.2 11.2 0 20 45.7 3.8 45.7 35.3.1 15.8-8.9 23.1-29.1 23.1zM733 19.5v22.3h34.6v10.3H733v34.8h-10.9v-78h51.6v10.6H733zM817.6 87.1h-10.2c-16.1 0-25.9-9.4-25.9-24.8V9.1h10.9v53.1c0 9.7 4.6 14.3 15 14.3h10.2c10.6 0 15-4.7 15-14.3V8.9h10.9v53.2c.1 15.5-9.8 25-25.9 25zM879.8 88.1c-7.2 0-21.6-2.4-25.7-3.7V73.7c5.3 1.7 18.1 4.1 25.7 4.1 14.8 0 18.3-3.8 18.3-12.8 0-19.2-45.7-4.7-45.7-35.3 0-11.9 8.2-21.7 28.1-21.7 8.8 0 18.1 1.8 22.9 3.2v10.7c-4.9-1.6-16.3-3.4-22.9-3.4-14.2 0-17.2 4.2-17.2 11.2 0 20 45.7 3.8 45.7 35.3 0 15.8-9 23.1-29.2 23.1zM919.4 87.1v-78h53.4v10.6h-42.6V42h36.4v10.3h-36.4v24.3h42.6v10.6h-53.4v-.1z"/></g><path class="st1" d="M919.4 19.5h10.9v22.3h-10.9zM722.1 19.5H733v22.3h-10.9zM919.4 52.3h10.9v24.3h-10.9zM526 63.1l4.1-10.7h19.1l4.4 10.7z"/><path class="st2" d="M1043.9 8.9h13v83h-13zM1066.9 8.9h61.1v83h-61.1z"/><path class="st1" d="M1077.9 20.2h39.2V81h-39.2z"/><path class="st2" d="M1017.3 75.3h16.7V92h-16.7z"/></svg>