<svg xmlns="http://www.w3.org/2000/svg" viewBox="0 0 100 100" style="enable-background:new 0 0 100 100" xml:space="preserve"><linearGradient id="a" gradientUnits="userSpaceOnUse" x1="-254.04" y1="244.983" x2="-255.682" y2="242.14" gradientTransform="matrix(10.9488 0 0 -10.9488 2826.557 2734.828)"><stop offset="0" style="stop-color:#0052cc"/><stop offset=".92" style="stop-color:#2684ff"/></linearGradient><path d="M35.8 47.4c-.7-.9-1.9-1-2.7-.4-.3.1-.4.4-.6.7l-17.1 34c-.4 1-.1 2.3.9 2.7.3.1.6.3.9.3h23.7c.7 0 1.4-.4 1.9-1.1 5.2-10.7 2-26.7-7-36.2z" style="fill:url(#a)"/><path d="M48.4 16.4c-8.6 13.3-9.6 30.1-2.6 44.3l11.5 22.8c.3.7 1 1.1 1.9 1.1h23.7c1.1 0 2-.9 2-2 0-.3-.1-.6-.1-.9L51.9 16.4c-.4-1-1.6-1.4-2.6-.9-.5.2-.7.5-.9.9z" style="fill:#2684ff"/></svg>