<svg version="1.1" id="Layer_1" xmlns="http://www.w3.org/2000/svg" x="0" y="0" viewBox="0 0 100 100" style="enable-background:new 0 0 100 100" xml:space="preserve"><style>.st0{fill:#e24329}.st1{fill:#fc6d26}.st2{fill:#fca326}</style><path class="st0" d="m50 94.8 18-55.2H32l18 55.2z"/><path class="st1" d="M50 94.8 32 39.6H7l43 55.2z"/><path class="st2" d="M7 39.6 1.6 56.5c-.6 1.5 0 3.1 1.3 4.1L50 94.8 7 39.6z"/><path class="st0" d="M7 39.6h25.2L21.5 6.5c-.6-1.7-3-1.7-3.5 0L7 39.6z"/><path class="st1" d="m50 94.8 18-55.2h25.2L50 94.8z"/><path class="st2" d="m93 39.6 5.4 16.9c.6 1.5 0 3.1-1.3 4.1L50 94.8l43-55.2z"/><path class="st0" d="M93 39.6H68L78.7 6.5c.6-1.7 3-1.7 3.5 0L93 39.6z"/></svg>