<svg xmlns="http://www.w3.org/2000/svg" viewBox="0 0 100 100" style="enable-background:new 0 0 100 100" xml:space="preserve"><path d="M60.8 41.7v-5.8c1.6-.7 2.6-2.3 2.6-4v-.1c0-2.5-2-4.5-4.5-4.5h-.1c-2.5 0-4.5 2-4.5 4.5v.1c0 1.7 1 3.3 2.6 4v5.8c-2.2.3-4.3 1.3-6 2.7L34.9 32c.1-.4.2-.8.2-1.3 0-2.8-2.2-5.1-5-5.1s-5.1 2.2-5.1 5 2.2 5.1 5 5.1c.9 0 1.7-.2 2.5-.7l15.7 12.2c-2.9 4.4-2.8 10 .2 14.3l-4.8 4.8c-.4-.1-.8-.2-1.2-.2-2.3 0-4.1 1.9-4.1 4.1 0 2.3 1.9 4.1 4.1 4.1 2.3 0 4.1-1.9 4.1-4.1 0-.4-.1-.8-.2-1.2l4.7-4.7c5.6 4.3 13.6 3.3 17.9-2.3 4.3-5.6 3.3-13.6-2.3-17.9-1.7-1.3-3.7-2.1-5.8-2.4m-2 19.1c-3.6.1-6.6-2.7-6.7-6.4-.1-3.6 2.7-6.6 6.4-6.7h.4c3.6.1 6.4 3.2 6.3 6.8-.2 3.4-2.9 6.2-6.4 6.3" style="fill:#ff7a59"/></svg>