<svg xmlns="http://www.w3.org/2000/svg" viewBox="0 0 100 100" style="enable-background:new 0 0 100 100" xml:space="preserve"><path d="M37.1 1.5c-5.4 0-9.7 4.4-9.7 9.7s4.4 9.7 9.7 9.7h9.7v-9.7c0-5.3-4.4-9.7-9.7-9.7m0 25.8H11.3c-5.4 0-9.7 4.4-9.7 9.7s4.4 9.7 9.7 9.7h25.8c5.4 0 9.7-4.4 9.7-9.7s-4.4-9.7-9.7-9.7z" style="fill-rule:evenodd;clip-rule:evenodd;fill:#36c5f0"/><path d="M98.5 37.1c0-5.4-4.4-9.7-9.7-9.7-5.4 0-9.7 4.4-9.7 9.7v9.7h9.7c5.3 0 9.7-4.4 9.7-9.7zm-25.8 0V11.3c0-5.4-4.4-9.7-9.7-9.7s-9.7 4.4-9.7 9.7v25.8c0 5.4 4.4 9.7 9.7 9.7s9.7-4.4 9.7-9.7z" style="fill-rule:evenodd;clip-rule:evenodd;fill:#2eb67d"/><path d="M62.9 98.5c5.4 0 9.7-4.4 9.7-9.7 0-5.4-4.4-9.7-9.7-9.7h-9.7v9.7c0 5.3 4.4 9.7 9.7 9.7zm0-25.8h25.8c5.4 0 9.7-4.4 9.7-9.7s-4.4-9.7-9.7-9.7H62.9c-5.4 0-9.7 4.4-9.7 9.7s4.4 9.7 9.7 9.7z" style="fill-rule:evenodd;clip-rule:evenodd;fill:#ecb22e"/><path d="M1.5 62.9c0 5.4 4.4 9.7 9.7 9.7s9.7-4.4 9.7-9.7v-9.7h-9.7c-5.3 0-9.7 4.4-9.7 9.7zm25.8 0v25.8c0 5.4 4.4 9.7 9.7 9.7s9.7-4.4 9.7-9.7V62.9c0-5.4-4.4-9.7-9.7-9.7s-9.7 4.4-9.7 9.7" style="fill-rule:evenodd;clip-rule:evenodd;fill:#e01e5a"/></svg>