<svg version="1.1" id="Calque_1" xmlns="http://www.w3.org/2000/svg" x="0" y="0" viewBox="-172 295.9 250 250" style="enable-background:new -172 295.9 250 250" xml:space="preserve"><style>.st1{fill:#fff}</style><path d="M-172 295.9H78v250h-250v-250z" style="fill:#a4c639"/><path class="st1" d="M-103.6 393.4c-5.4 0-9.7 4.3-9.7 9.7v40.4c0 5.4 4.3 9.7 9.7 9.7s9.7-4.3 9.7-9.7v-40.4c0-5.4-4.3-9.7-9.7-9.7zm113.2 0c-5.4 0-9.7 4.3-9.7 9.7v40.4c0 5.4 4.3 9.7 9.7 9.7 5.4 0 9.7-4.3 9.7-9.7v-40.4c0-5.4-4.3-9.7-9.7-9.7zM-63.2 439.5c-5.4 0-9.7 4.3-9.7 9.7v40.4c0 5.4 4.3 9.7 9.7 9.7s9.7-4.3 9.7-9.7v-40.4c0-5.4-4.3-9.7-9.7-9.7zm32.4 0c-5.4 0-9.7 4.3-9.7 9.7v40.4c0 5.4 4.3 9.7 9.7 9.7 5.4 0 9.7-4.3 9.7-9.7v-40.4c0-5.4-4.3-9.7-9.7-9.7zM-25.8 356.8l6.8-12.4c.4-.7.2-1.5-.5-1.9-.2-.1-.4-.2-.7-.2-.5 0-1 .2-1.2.7l-6.9 12.5c-5.7-2.5-12-3.9-18.7-3.9-6.7 0-13.1 1.4-18.7 3.9l-6.9-12.5c-.3-.5-.7-.7-1.2-.7-.2 0-.4.1-.7.2-.7.4-.9 1.2-.5 1.9l6.8 12.4c-13.2 6.8-22 19.9-22.1 34.8h86.6c0-14.9-8.9-27.9-22.1-34.8zm-41.2 19c-2 0-3.6-1.6-3.6-3.6s1.6-3.6 3.6-3.6 3.6 1.6 3.6 3.6c0 1.9-1.6 3.6-3.6 3.6zm40 0c-2 0-3.6-1.6-3.6-3.6s1.6-3.6 3.6-3.6 3.6 1.6 3.6 3.6c0 1.9-1.6 3.6-3.6 3.6z"/><path class="st1" d="M-90.3 457.8c0 5.8 4.7 10.5 10.5 10.5h65.7c5.8 0 10.5-4.7 10.5-10.5V395h-86.6v62.8z"/></svg>