<?xml version="1.0" encoding="utf-8"?>
<!-- Generator: Adobe Illustrator 19.0.0, SVG Export Plug-In . SVG Version: 6.00 Build 0)  -->
<svg version="1.1" id="Calque_1" xmlns="http://www.w3.org/2000/svg" xmlns:xlink="http://www.w3.org/1999/xlink" x="0px" y="0px"
	 viewBox="-180 272 250 250" style="enable-background:new -180 272 250 250;" xml:space="preserve">
<style type="text/css">
	.st0{fill:#264DE4;}
	.st1{fill:#EBEBEB;}
	.st2{fill:#FFFFFF;}
</style>
<rect x="-180" y="272" class="st0" width="250" height="250"/>
<g>
	<polygon id="polygon2993" class="st1" points="-117.4,375.3 -115,402.2 -54.9,402.2 -54.9,375.3 	"/>
	<polygon id="polygon2995" class="st1" points="-54.9,321 -55,321 -122.2,321 -119.8,347.8 -54.9,347.8 	"/>
	<polygon id="polygon2997" class="st1" points="-54.9,473 -54.9,445 -55,445.1 -84.9,437 -86.8,415.6 -101.4,415.6 -113.8,415.6 
		-110,457.7 -55,473 	"/>
	<polygon id="polygon3005" class="st2" points="-22,402.2 -25.1,437 -55,445.1 -55,473 0,457.7 0.4,453.2 6.7,382.5 7.4,375.3 
		12.2,321 -55,321 -55,347.8 -17.2,347.8 -19.6,375.3 -55,375.3 -55,402.2 	"/>
</g>
</svg>
