<?xml version="1.0" encoding="utf-8"?>
<!-- Generator: Adobe Illustrator 19.0.0, SVG Export Plug-In . SVG Version: 6.00 Build 0)  -->
<svg version="1.1" id="Calque_1" xmlns="http://www.w3.org/2000/svg" xmlns:xlink="http://www.w3.org/1999/xlink" x="0px" y="0px"
	 viewBox="-668 325.5 250 250" style="enable-background:new -668 325.5 250 250;" xml:space="preserve">
<style type="text/css">
	.st0{fill:#F7DF1E;}
</style>
<path class="st0" d="M-668,325.5h250v250h-250V325.5z"/>
<path d="M-612.3,524.4l19.1-11.6c3.7,6.5,7,12.1,15.1,12.1c7.7,0,12.6-3,12.6-14.8v-79.9h23.5v80.2c0,24.3-14.3,35.4-35.1,35.4
	C-595.8,545.9-606.7,536.2-612.3,524.4"/>
<path d="M-529.2,521.9l19.1-11.1c5,8.2,11.6,14.3,23.2,14.3c9.7,0,15.9-4.9,15.9-11.6c0-8.1-6.4-10.9-17.1-15.6l-5.9-2.5
	c-17-7.2-28.2-16.3-28.2-35.4c0-17.6,13.4-31,34.4-31c14.9,0,25.7,5.2,33.4,18.8l-18.3,11.7c-4-7.2-8.4-10.1-15.1-10.1
	c-6.9,0-11.2,4.4-11.2,10.1c0,7,4.4,9.9,14.4,14.3l5.9,2.5c20,8.6,31.2,17.3,31.2,36.9c0,21.1-16.6,32.7-38.9,32.7
	C-508.2,545.9-522.3,535.5-529.2,521.9"/>
</svg>
