<svg xmlns="http://www.w3.org/2000/svg" viewBox="-668 325.5 250 250" style="enable-background:new -668 325.5 250 250" xml:space="preserve"><linearGradient id="a" gradientUnits="userSpaceOnUse" x1="-3857.95" y1="-29.919" x2="-3810.748" y2="237.78" gradientTransform="matrix(-1 0 0 1 -4377.21 346.504)"><stop offset="0" style="stop-color:#faae42"/><stop offset="1" style="stop-color:#ef3e31"/></linearGradient><path d="M-612.5 325.5h138.4c6.7 0 13.3 1.1 19.6 3.3 9.2 3.3 17.5 9.2 23.7 16.8 6.3 7.6 10.5 17 12 26.7.6 3.6.7 7.2.7 10.8v135c0 4.3-.2 8.7-1.1 12.9-2 9.7-6.5 18.7-13.2 26.1-6.5 7.3-15.1 12.8-24.4 15.7-5.7 1.8-11.5 2.5-17.5 2.5-2.6 0-138.7 0-140.8-.1-10-.5-19.8-3.7-28.1-9.3-8.1-5.5-14.7-13.1-19-21.9-3.7-7.5-5.6-15.9-5.6-24.3V380.9c-.2-8.3 1.6-16.5 5.2-23.9 4.2-8.8 10.7-16.5 18.8-22 8.3-5.7 18.1-9 28-9.5h3.3z" style="fill:url(#a)"/><linearGradient id="b" gradientUnits="userSpaceOnUse" x1="-540.486" y1="572.451" x2="-575.054" y2="376.405" gradientTransform="matrix(1 0 0 -1 0 902)"><stop offset="0" style="stop-color:#e39f3a"/><stop offset="1" style="stop-color:#d33929"/></linearGradient><path d="M-457.1 529.9c-.9-1.4-1.9-2.7-2.9-4-2.4-2.9-5.3-5.5-8.4-7.6-3.9-2.6-8.5-4.3-13.2-4.5-3.3-.2-6.6.4-9.8 1.6-3.1 1.1-6.1 2.6-9.1 4.2-3.4 1.8-6.8 3.5-10.4 5-4.3 1.8-8.8 3.1-13.4 4.1-5.8 1.1-11.6 1.5-17.4 1.4-10.4-.2-20.9-1.8-30.8-4.7-8.8-2.6-17.2-6.2-25.1-10.8-6.9-4-13.4-8.6-19.4-13.8-5-4.3-9.6-8.9-13.9-13.8-2.9-3.4-5.8-7-8.4-10.7-1.1-1.5-2-3-2.9-4.6l-25.8-27.8v-63c0-30.6 24.7-55.3 55.3-55.3h49.3l36.5 37.1c82.4 56 55.7 117.8 55.7 117.8s23.4 26.3 14.1 49.4z" style="fill:url(#b)"/><path d="M-526.7 362.6c82.4 56 55.7 117.8 55.7 117.8s23.4 26.5 14 49.6c0 0-9.7-16.2-25.9-16.2-15.6 0-24.8 16.2-56.2 16.2-70 0-103.1-58.5-103.1-58.5 63.1 41.5 106.1 12.1 106.1 12.1-28.4-16.5-88.8-95.4-88.8-95.4 52.6 44.8 75.4 56.6 75.4 56.6-13.6-11.2-51.6-66.1-51.6-66.1 30.5 30.8 91 73.9 91 73.9 17-47.5-16.6-90-16.6-90z" style="fill:#fff"/></svg>