<svg version="1.1" id="Calque_1" xmlns="http://www.w3.org/2000/svg" x="0" y="0" viewBox="0 0 215.6 50" style="enable-background:new 0 0 215.6 50" xml:space="preserve"><style>.st0{opacity:.2}</style><g class="st0"><path d="m1.8 8.8 2.3 4.1h7l11.8 20.4-1.1 1.8L10 14.9H5.3l16.4 28.5 5.8-10.1L13.6 8.8zM15.7 8.8l5.9 10.1h9.6l-2.4 4.2-1.3-2.1h-4.7l6 10.4 9.4-16.5H23.9l-1.1-2h16.6l2.2-4.1z"/></g><g class="st0"><path d="M44.3 13.9h10.2c2.4 0 4.6.5 6.5 1.4 1.9.9 3.3 2.2 4.4 3.9 1 1.7 1.6 3.7 1.6 5.9s-.5 4.2-1.6 5.9c-1 1.7-2.5 3-4.4 3.9-1.9.9-4 1.4-6.5 1.4H44.3V13.9zm9.9 18.3c2.2 0 4-.6 5.4-1.9 1.3-1.3 2-3 2-5.1 0-2.1-.7-3.8-2-5.1-1.3-1.3-3.1-1.9-5.4-1.9h-4.8v13.9h4.8zM70.7 15.9c-.6-.5-.9-1.2-.9-2s.3-1.5.9-2c.6-.5 1.3-.8 2.2-.8.9 0 1.7.3 2.2.8s.9 1.2.9 1.9c0 .8-.3 1.5-.9 2.1s-1.3.8-2.2.8c-.9 0-1.6-.2-2.2-.8zm-.2 3.2h5v17.3h-5V19.1zM98 19.1v14.4c0 3.2-.8 5.5-2.5 7.1-1.6 1.5-4.1 2.3-7.2 2.3-1.7 0-3.3-.2-4.8-.6-1.5-.4-2.7-1-3.7-1.8l2-3.6c.7.6 1.6 1.1 2.8 1.4s2.2.5 3.3.5c1.7 0 3-.4 3.8-1.2.8-.8 1.2-2 1.2-3.6v-.7c-1.3 1.4-3.1 2.2-5.5 2.2-1.6 0-3-.3-4.4-1-1.3-.7-2.4-1.7-3.1-2.9-.8-1.3-1.2-2.7-1.2-4.4 0-1.6.4-3.1 1.2-4.4.8-1.3 1.8-2.2 3.1-2.9 1.3-.7 2.8-1 4.4-1 2.5 0 4.4.8 5.7 2.5v-2.2H98zm-6.3 11.2c.8-.8 1.3-1.8 1.3-3.1s-.4-2.3-1.3-3.1c-.8-.8-1.9-1.2-3.3-1.2-1.3 0-2.4.4-3.3 1.2-.9.8-1.3 1.8-1.3 3.1s.4 2.3 1.3 3.1c.9.8 1.9 1.2 3.3 1.2s2.5-.4 3.3-1.2zM102.9 15.9c-.6-.5-.9-1.2-.9-2s.3-1.5.9-2c.6-.5 1.3-.8 2.2-.8s1.7.3 2.3.8.9 1.2.9 1.9c0 .8-.3 1.5-.9 2.1s-1.3.8-2.3.8-1.6-.2-2.2-.8zm-.3 3.2h5v17.3h-5V19.1zM113.9 36.2c-1.4-.4-2.5-.8-3.3-1.3l1.7-3.6c.8.5 1.7.9 2.8 1.2s2.2.5 3.2.5c2.1 0 3.2-.5 3.2-1.6 0-.5-.3-.8-.9-1.1-.6-.2-1.5-.4-2.7-.5-1.4-.2-2.6-.5-3.5-.7s-1.7-.8-2.4-1.5-1-1.7-1-3c0-1.1.3-2.1.9-2.9.6-.8 1.6-1.5 2.8-2 1.2-.5 2.6-.7 4.3-.7 1.2 0 2.4.1 3.6.4 1.2.3 2.2.6 3 1.1L124 24c-1.5-.9-3.2-1.3-5-1.3-1.1 0-1.9.1-2.4.4-.5.3-.8.7-.8 1.2s.3.9.9 1.1c.6.2 1.5.4 2.8.6 1.4.2 2.6.5 3.5.8.9.3 1.7.8 2.3 1.5s1 1.7 1 3c0 1.1-.3 2-1 2.9-.6.8-1.6 1.5-2.8 1.9-1.2.5-2.7.7-4.4.7-1.4-.1-2.8-.3-4.2-.6zM146.9 19.1v23.5h-5v-8.1c-1.2 1.4-3 2.1-5.2 2.1-1.6 0-3.1-.4-4.4-1.1-1.3-.7-2.4-1.8-3.1-3.1s-1.1-2.9-1.1-4.7c0-1.8.4-3.3 1.1-4.7.8-1.3 1.8-2.4 3.1-3.1 1.3-.7 2.8-1.1 4.4-1.1 2.4 0 4.2.8 5.4 2.2v-2h4.8zm-6.2 12.2c.8-.9 1.3-2 1.3-3.5s-.4-2.6-1.3-3.5c-.8-.9-1.9-1.3-3.1-1.3-1.3 0-2.3.4-3.2 1.3-.8.9-1.3 2-1.3 3.5s.4 2.6 1.3 3.5c.8.9 1.9 1.3 3.2 1.3 1.3 0 2.3-.4 3.1-1.3zM169 19.1v17.3h-4.8v-2.1c-.7.8-1.5 1.3-2.4 1.7-.9.4-1.9.6-3 .6-2.3 0-4.1-.7-5.4-2s-2-3.2-2-5.8V19h5v9c0 2.8 1.2 4.2 3.5 4.2 1.2 0 2.2-.4 2.9-1.2.7-.8 1.1-1.9 1.1-3.5V19h5.1zM186.8 20.8c1.4 1.3 2.2 3.2 2.2 5.8v9.9h-4.7v-2.2c-.9 1.6-2.7 2.4-5.3 2.4-1.3 0-2.5-.2-3.5-.7-1-.5-1.7-1.1-2.2-1.9-.5-.8-.8-1.7-.8-2.7 0-1.6.6-2.9 1.8-3.8 1.2-.9 3.1-1.4 5.6-1.4h4c0-1.1-.3-1.9-1-2.5-.7-.6-1.7-.9-3-.9-.9 0-1.8.1-2.7.4-.9.3-1.6.7-2.3 1.2l-1.8-3.5c.9-.7 2.1-1.2 3.4-1.5 1.3-.4 2.7-.5 4.1-.5 2.7 0 4.7.6 6.2 1.9zm-4.3 11.9c.7-.4 1.1-1 1.4-1.8v-1.8h-3.4c-2.1 0-3.1.7-3.1 2 0 .6.3 1.2.8 1.5s1.2.6 2.1.6c.8.1 1.5-.1 2.2-.5zM211.2 12.6v23.8h-4.8v-2c-1.2 1.5-3 2.2-5.4 2.2-1.6 0-3.1-.4-4.4-1.1-1.3-.7-2.4-1.8-3.1-3.1-.8-1.3-1.1-2.9-1.1-4.7 0-1.8.4-3.3 1.1-4.7.7-1.3 1.8-2.4 3.1-3.1 1.3-.7 2.8-1.1 4.4-1.1 2.2 0 3.9.7 5.2 2.1v-8.4h5zm-6.1 18.7c.8-.9 1.3-2 1.3-3.5s-.4-2.6-1.3-3.5c-.8-.9-1.9-1.3-3.1-1.3-1.3 0-2.3.4-3.2 1.3s-1.3 2-1.3 3.5.4 2.6 1.3 3.5 1.9 1.3 3.2 1.3c1.2 0 2.2-.4 3.1-1.3z"/></g></svg>