<svg xmlns="http://www.w3.org/2000/svg" viewBox="0 0 100 100" style="enable-background:new 0 0 100 100" xml:space="preserve"><path d="M89.4 68.4c-.4-1.1-.9-2.1-1.3-3.2-.7-1.6-1.4-3-2-4.5C80 47.6 73.6 34.2 66.8 21.1l-.2-.5c-.7-1.3-1.4-2.7-2.1-4.1-.9-1.6-1.8-3.2-3.2-4.8-2.9-3.7-6.8-5.5-11.1-5.5s-8.2 2-11.3 5.2c-1.3 1.6-2.3 3.2-3.2 4.8-.7 1.4-1.4 2.9-2.1 4.1l-.2.5C26.5 34 20.1 47.5 14 60.5v.2c-.5 1.4-1.3 2.9-2 4.5-.4.9-.9 2-1.3 3.2-1.1 3.2-1.4 6.3-1.1 9.5.9 6.6 5.4 12 11.5 14.5 2.3.9 4.7 1.4 7.2 1.4.7 0 1.6 0 2.3-.2 2.9-.4 5.9-1.3 8.8-3 3.6-2 7-4.8 10.9-9.1 3.9 4.1 7.3 7.2 10.9 9.1 2.9 1.6 5.9 2.7 8.8 3 .7 0 1.6.2 2.3.2 2.5 0 4.8-.4 7.2-1.4 6.1-2.5 10.4-8.1 11.5-14.5-.2-3.2-.5-6.3-1.6-9.5zm-39.6 4.5C45.1 67 41.9 61.2 41 56.6c-.4-2-.5-3.8-.2-5.4.2-1.4.7-2.7 1.4-3.8 1.6-2.3 4.5-3.9 7.7-3.9s6.1 1.4 7.7 3.9c.7 1.1 1.3 2.3 1.4 3.8.2 1.6.2 3.4-.2 5.4-1.1 4.6-4.3 10.4-9 16.3zM84.7 77c-.5 4.5-3.8 8.4-7.9 10.2-2.1.9-4.3 1.1-6.6.9-2.1-.2-4.3-.9-6.6-2.3-3.2-1.8-6.3-4.5-10-8.4 5.7-7.2 9.3-13.6 10.6-19.3.5-2.7.7-5.2.4-7.5-.4-2.1-1.1-4.1-2.3-5.9-2.7-3.9-7.3-6.3-12.4-6.3-5 0-9.7 2.3-12.4 6.3-1.3 1.8-2 3.8-2.3 5.9-.4 2.3-.2 4.8.4 7.5 1.3 5.7 4.8 12.4 10.6 19.5-3.6 3.9-6.8 6.8-10 8.4-2.3 1.3-4.5 2-6.6 2.3-2.3.2-4.7 0-6.6-.9-4.3-1.8-7.3-5.7-7.9-10.2-.2-2.1 0-4.3.7-6.8.2-.9.7-1.8 1.1-2.9.5-1.4 1.3-2.9 2-4.3V63C24.7 50 31.2 36.7 38 23.6l.2-.5c.7-1.3 1.4-2.7 2.1-3.9.7-1.4 1.4-2.7 2.5-3.9 1.8-2.1 4.3-3.2 7-3.2s5.2 1.1 7 3.2c.9 1.1 1.8 2.5 2.5 3.9.7 1.3 1.4 2.7 2.1 3.9l.2.5C68.2 36.7 74.7 50 80.8 63c.7 1.4 1.3 3 2 4.3.4 1.1.9 2 1.1 2.9 1 2.3 1.2 4.7.8 6.8z" style="fill:#ff5a5f"/></svg>