<?xml version="1.0" encoding="utf-8"?>
<!-- Generator: Adobe Illustrator 23.0.1, SVG Export Plug-In . SVG Version: 6.00 Build 0)  -->
<svg version="1.1" id="Layer_1" xmlns="http://www.w3.org/2000/svg" xmlns:xlink="http://www.w3.org/1999/xlink" x="0px" y="0px"
	 viewBox="0 0 100 100" style="enable-background:new 0 0 100 100;" xml:space="preserve">
<style type="text/css">
	.st0{fill:#E74D89;}
	.st1{fill:#B2215A;}
</style>
<g>
	<path class="st0" d="M50,4.5c25.2,0,45.5,20.3,45.5,45.5S75.2,95.5,50,95.5S4.5,75.2,4.5,50S24.8,4.5,50,4.5z"/>
	<path class="st1" d="M50,98.7C23,98.7,1.3,77,1.3,50S23.2,1.3,50,1.3S98.7,23,98.7,50S77,98.7,50,98.7L50,98.7z M91.1,56.6
		c-1.4-0.4-12.9-3.8-26-1.8c5.4,14.9,7.7,27.2,8.1,29.6C82.6,78.2,89.3,68.3,91.1,56.6z M66.3,88.5c-0.6-3.6-3-16.3-8.9-31.6h-0.2
		c-23.6,8.3-32,24.6-32.6,26c7.1,5.4,15.9,8.9,25.6,8.9C55.8,91.7,61.3,90.5,66.3,88.5L66.3,88.5z M19,77.8
		c1-1.6,12.5-20.5,33.8-27.4c0.6-0.2,1-0.4,1.6-0.4c-1-2.4-2.2-4.6-3.4-7.1c-20.7,6.2-41.1,6-42.9,5.8c0,0.4,0,0.8,0,1.2
		C8.3,60.7,12.3,70.5,19,77.8L19,77.8z M9.1,41.5c1.8,0,18.9,0.2,38.5-5c-6.8-12.3-14.3-22.6-15.5-24C20.6,18,11.9,28.6,9.1,41.5z
		 M40.3,9.5c1.2,1.6,8.7,11.9,15.5,24.4C70.7,28.2,77,20,77.6,18.8C70.1,12.3,60.5,8.3,50,8.3C46.6,8.5,43.4,8.9,40.3,9.5z
		 M82.2,23.6c-0.8,1.2-7.9,10.1-23.2,16.5c1,2,1.8,4,2.8,6c0.4,0.8,0.6,1.4,1,2.2c13.9-1.8,27.6,1,29,1.4
		C91.7,39.9,88.1,30.9,82.2,23.6L82.2,23.6z"/>
</g>
</svg>
