<?xml version="1.0" encoding="utf-8"?>
<!-- Generator: Adobe Illustrator 23.0.1, SVG Export Plug-In . SVG Version: 6.00 Build 0)  -->
<svg version="1.1" id="Layer_1" xmlns="http://www.w3.org/2000/svg" xmlns:xlink="http://www.w3.org/1999/xlink" x="0px" y="0px"
	 viewBox="0 0 100 100" style="enable-background:new 0 0 100 100;" xml:space="preserve">
<path d="M50,26.2c-13.4,0-24.2,10.8-24.2,24.2c0,11.4,7.8,20.8,18.3,23.5c-0.1-0.3-0.2-0.7-0.2-1.1v-4.1h-3c-1.6,0-3.1-0.7-3.8-2.1
	c-0.8-1.5-0.9-3.7-2.9-5.1c-0.6-0.5-0.1-1,0.5-0.9C36,60.9,37,61.7,38,63c1,1.3,1.4,1.6,3.2,1.6c0.8,0,2.2-0.1,3.4-0.2
	c0.7-1.7,1.8-3.2,3.2-3.9c-8.1-1-12-5-12-10.4c0-2.4,1-4.6,2.7-6.5c-0.5-1.9-1.3-5.8,0.2-7.3c3.6,0,5.8,2.4,6.4,3
	c1.8-0.6,3.8-1,5.9-1c2.1,0,4.1,0.4,5.9,1c0.5-0.6,2.7-3,6.4-3c1.5,1.5,0.8,5.4,0.2,7.3c1.7,1.9,2.7,4.2,2.7,6.5
	c0,5.4-3.8,9.4-11.9,10.3c2.2,1.1,3.8,4.4,3.8,6.8v5.5c0,0.2-0.1,0.4-0.1,0.5c9.4-3.3,16.2-12.2,16.2-22.8
	C74.2,37,63.4,26.2,50,26.2L50,26.2z"/>
</svg>
