<svg xmlns="http://www.w3.org/2000/svg" viewBox="0 0 100 100" style="enable-background:new 0 0 100 100" xml:space="preserve"><path d="M50 26.2c-13.4 0-24.2 10.8-24.2 24.2 0 11.4 7.8 20.8 18.3 23.5-.1-.3-.2-.7-.2-1.1v-4.1h-3c-1.6 0-3.1-.7-3.8-2.1-.8-1.5-.9-3.7-2.9-5.1-.6-.5-.1-1 .5-.9 1.3.3 2.3 1.1 3.3 2.4 1 1.3 1.4 1.6 3.2 1.6.8 0 2.2-.1 3.4-.2.7-1.7 1.8-3.2 3.2-3.9-8.1-1-12-5-12-10.4 0-2.4 1-4.6 2.7-6.5-.5-1.9-1.3-5.8.2-7.3 3.6 0 5.8 2.4 6.4 3 1.8-.6 3.8-1 5.9-1 2.1 0 4.1.4 5.9 1 .5-.6 2.7-3 6.4-3 1.5 1.5.8 5.4.2 7.3 1.7 1.9 2.7 4.2 2.7 6.5 0 5.4-3.8 9.4-11.9 10.3 2.2 1.1 3.8 4.4 3.8 6.8v5.5c0 .2-.1.4-.1.5 9.4-3.3 16.2-12.2 16.2-22.8C74.2 37 63.4 26.2 50 26.2z"/></svg>