<?xml version="1.0" encoding="utf-8"?>
<!-- Generator: Adobe Illustrator 23.0.1, SVG Export Plug-In . SVG Version: 6.00 Build 0)  -->
<svg version="1.1" id="Layer_1" xmlns="http://www.w3.org/2000/svg" xmlns:xlink="http://www.w3.org/1999/xlink" x="0px" y="0px"
	 viewBox="0 0 100 100" style="enable-background:new 0 0 100 100;" xml:space="preserve">
<style type="text/css">
	.st0{fill:#E24329;}
	.st1{fill:#FC6D26;}
	.st2{fill:#FCA326;}
</style>
<g>
	<path class="st0" d="M50,94.8l18-55.2H32L50,94.8L50,94.8z"/>
	<path class="st1" d="M50,94.8L32,39.6H7L50,94.8z"/>
	<path class="st2" d="M7,39.6L1.6,56.5c-0.6,1.5,0,3.1,1.3,4.1L50,94.8L7,39.6L7,39.6z"/>
	<path class="st0" d="M7,39.6h25.2L21.5,6.5c-0.6-1.7-3-1.7-3.5,0L7,39.6L7,39.6z"/>
	<path class="st1" d="M50,94.8l18-55.2h25.2L50,94.8L50,94.8z"/>
	<path class="st2" d="M93,39.6l5.4,16.9c0.6,1.5,0,3.1-1.3,4.1L50,94.8L93,39.6L93,39.6z"/>
	<path class="st0" d="M93,39.6H68L78.7,6.5c0.6-1.7,3-1.7,3.5,0L93,39.6L93,39.6z"/>
</g>
</svg>
