<?xml version="1.0" encoding="utf-8"?>
<!-- Generator: Adobe Illustrator 23.0.1, SVG Export Plug-In . SVG Version: 6.00 Build 0)  -->
<svg version="1.1" id="Layer_1" xmlns="http://www.w3.org/2000/svg" xmlns:xlink="http://www.w3.org/1999/xlink" x="0px" y="0px"
	 viewBox="0 0 100 100" style="enable-background:new 0 0 100 100;" xml:space="preserve">
<style type="text/css">
	.st0{fill:#4285F4;}
	.st1{fill:#34A853;}
	.st2{fill:#FBBC05;}
	.st3{fill:#EB4335;}
</style>
<g>
	<path class="st0" d="M97.2,51c0-4-0.4-6.8-1-9.8H51v17.9h26.5c-0.6,4.4-3.4,11.2-9.8,15.7v0.6l14.4,11.2h1
		C92.1,78.1,97.2,65.7,97.2,51"/>
	<path class="st1" d="M51,98.2c13,0,23.9-4.4,31.9-11.8L67.7,74.7c-4,2.8-9.6,4.8-16.7,4.8c-12.8,0-23.5-8.4-27.5-20.1h-0.6
		L8.1,71.1l-0.2,0.6C15.7,87.5,32.1,98.2,51,98.2"/>
	<path class="st2" d="M23.5,59.6c-1-3-1.6-6.2-1.6-9.6c0-3.4,0.6-6.6,1.6-9.6v-0.6L8.3,28.1l-0.4,0.2c-3.2,6.6-5.2,14-5.2,21.7
		s1.8,15.1,5.2,21.7L23.5,59.6"/>
	<path class="st3" d="M51,20.5c9,0,15.1,4,18.7,7.2l13.6-13.4C74.9,6.6,64,1.8,51,1.8c-18.9,0-35.1,10.8-43.1,26.5l15.5,12.2
		C27.3,28.9,38.2,20.5,51,20.5"/>
</g>
</svg>
