<svg xmlns="http://www.w3.org/2000/svg" viewBox="0 0 100 100" style="enable-background:new 0 0 100 100" xml:space="preserve"><path d="M97.2 51c0-4-.4-6.8-1-9.8H51v17.9h26.5c-.6 4.4-3.4 11.2-9.8 15.7v.6l14.4 11.2h1c9-8.5 14.1-20.9 14.1-35.6" style="fill:#4285f4"/><path d="M51 98.2c13 0 23.9-4.4 31.9-11.8L67.7 74.7c-4 2.8-9.6 4.8-16.7 4.8-12.8 0-23.5-8.4-27.5-20.1h-.6L8.1 71.1l-.2.6C15.7 87.5 32.1 98.2 51 98.2" style="fill:#34a853"/><path d="M23.5 59.6c-1-3-1.6-6.2-1.6-9.6 0-3.4.6-6.6 1.6-9.6v-.6L8.3 28.1l-.4.2c-3.2 6.6-5.2 14-5.2 21.7s1.8 15.1 5.2 21.7l15.6-12.1" style="fill:#fbbc05"/><path d="M51 20.5c9 0 15.1 4 18.7 7.2l13.6-13.4C74.9 6.6 64 1.8 51 1.8c-18.9 0-35.1 10.8-43.1 26.5l15.5 12.2c3.9-11.6 14.8-20 27.6-20" style="fill:#eb4335"/></svg>