<?xml version="1.0" encoding="utf-8"?>
<!-- Generator: Adobe Illustrator 19.0.0, SVG Export Plug-In . SVG Version: 6.00 Build 0)  -->
<svg version="1.1" id="Calque_1" xmlns="http://www.w3.org/2000/svg" xmlns:xlink="http://www.w3.org/1999/xlink" x="0px" y="0px"
	 viewBox="-172 295.9 250 250" style="enable-background:new -172 295.9 250 250;" xml:space="preserve">
<style type="text/css">
	.st0{fill:#A4C639;}
	.st1{fill:#FFFFFF;}
</style>
<path class="st0" d="M-172,295.9H78v250h-250V295.9z"/>
<g>
	<path class="st1" d="M-103.6,393.4c-5.4,0-9.7,4.3-9.7,9.7v40.4c0,5.4,4.3,9.7,9.7,9.7s9.7-4.3,9.7-9.7v-40.4
		C-93.9,397.7-98.2,393.4-103.6,393.4L-103.6,393.4z M9.6,393.4c-5.4,0-9.7,4.3-9.7,9.7v40.4c0,5.4,4.3,9.7,9.7,9.7
		c5.4,0,9.7-4.3,9.7-9.7v-40.4C19.3,397.7,15,393.4,9.6,393.4L9.6,393.4z"/>
	<path class="st1" d="M-63.2,439.5c-5.4,0-9.7,4.3-9.7,9.7v40.4c0,5.4,4.3,9.7,9.7,9.7s9.7-4.3,9.7-9.7v-40.4
		C-53.5,443.8-57.8,439.5-63.2,439.5L-63.2,439.5z M-30.8,439.5c-5.4,0-9.7,4.3-9.7,9.7v40.4c0,5.4,4.3,9.7,9.7,9.7
		c5.4,0,9.7-4.3,9.7-9.7v-40.4C-21.1,443.8-25.4,439.5-30.8,439.5L-30.8,439.5z"/>
	<g>
		<path class="st1" d="M-25.8,356.8l6.8-12.4c0.4-0.7,0.2-1.5-0.5-1.9c-0.2-0.1-0.4-0.2-0.7-0.2c-0.5,0-1,0.2-1.2,0.7l-6.9,12.5
			c-5.7-2.5-12-3.9-18.7-3.9c-6.7,0-13.1,1.4-18.7,3.9l-6.9-12.5c-0.3-0.5-0.7-0.7-1.2-0.7c-0.2,0-0.4,0.1-0.7,0.2
			c-0.7,0.4-0.9,1.2-0.5,1.9l6.8,12.4c-13.2,6.8-22,19.9-22.1,34.8h86.6C-3.7,376.7-12.6,363.7-25.8,356.8z M-67,375.8
			c-2,0-3.6-1.6-3.6-3.6c0-2,1.6-3.6,3.6-3.6c2,0,3.6,1.6,3.6,3.6C-63.4,374.1-65,375.8-67,375.8z M-27,375.8c-2,0-3.6-1.6-3.6-3.6
			c0-2,1.6-3.6,3.6-3.6s3.6,1.6,3.6,3.6C-23.4,374.1-25,375.8-27,375.8z"/>
		<path class="st1" d="M-90.3,457.8c0,5.8,4.7,10.5,10.5,10.5h65.7c5.8,0,10.5-4.7,10.5-10.5V395h-86.6V457.8z"/>
	</g>
</g>
</svg>
