<?xml version="1.0" encoding="utf-8"?>
<!-- Generator: Adobe Illustrator 19.0.0, SVG Export Plug-In . SVG Version: 6.00 Build 0)  -->
<svg version="1.1" id="Calque_1" xmlns="http://www.w3.org/2000/svg" xmlns:xlink="http://www.w3.org/1999/xlink" x="0px" y="0px"
	 viewBox="-668 325.5 250 250" style="enable-background:new -668 325.5 250 250;" xml:space="preserve">
<style type="text/css">
	.st0{fill:#333333;}
	.st1{fill:#539E43;}
</style>
<rect x="-668" y="325.5" class="st0" width="250" height="250"/>
<g>
	<path class="st1" d="M-543,534c-2.3,0-4.5-0.6-6.5-1.7l-20.5-12.2c-3.1-1.7-1.5-2.3-0.6-2.6c4.2-1.4,4.9-1.7,9.2-4.2
		c0.5-0.3,1.1-0.2,1.5,0.2l15.7,9.4c0.6,0.3,1.4,0.3,1.8,0l61.4-35.6c0.6-0.3,0.9-0.9,0.9-1.7v-70.9c0-0.8-0.3-1.4-0.9-1.7
		l-61.4-35.4c-0.6-0.3-1.4-0.3-1.8,0l-61.4,35.4c-0.6,0.3-0.9,1.1-0.9,1.7v70.9c0,0.6,0.3,1.4,0.9,1.7l16.8,9.7
		c9.1,4.6,14.8-0.8,14.8-6.2v-70c0-0.9,0.8-1.8,1.8-1.8h7.8c0.9,0,1.8,0.8,1.8,1.8v70c0,12.2-6.6,19.2-18.2,19.2
		c-3.5,0-6.3,0-14.2-3.8l-16.2-9.2c-4-2.3-6.5-6.6-6.5-11.2v-70.9c0-4.6,2.5-8.9,6.5-11.2l61.4-35.6c3.8-2.2,9.1-2.2,12.9,0
		l61.4,35.6c4,2.3,6.5,6.6,6.5,11.2v70.9c0,4.6-2.5,8.9-6.5,11.2l-61.4,35.6C-538.5,533.5-540.8,534-543,534L-543,534z
		 M-524.1,485.2c-26.9,0-32.5-12.3-32.5-22.8c0-0.9,0.8-1.8,1.8-1.8h8c0.9,0,1.7,0.6,1.7,1.5c1.2,8.2,4.8,12.2,21.1,12.2
		c12.9,0,18.5-2.9,18.5-9.8c0-4-1.5-6.9-21.7-8.9c-16.8-1.7-27.2-5.4-27.2-18.8c0-12.5,10.5-19.9,28-19.9c19.7,0,29.4,6.8,30.6,21.5
		c0,0.5-0.2,0.9-0.5,1.4c-0.3,0.3-0.8,0.6-1.2,0.6h-8c-0.8,0-1.5-0.6-1.7-1.4c-1.8-8.5-6.6-11.2-19.2-11.2
		c-14.2,0-15.9,4.9-15.9,8.6c0,4.5,2,5.8,21.1,8.3c18.9,2.5,27.9,6,27.9,19.2C-493.4,477.5-504.5,485.2-524.1,485.2L-524.1,485.2z"
		/>
</g>
</svg>
