<?xml version="1.0" encoding="utf-8"?>
<!-- Generator: Adobe Illustrator 19.0.0, SVG Export Plug-In . SVG Version: 6.00 Build 0)  -->
<svg version="1.1" id="Calque_1" xmlns="http://www.w3.org/2000/svg" xmlns:xlink="http://www.w3.org/1999/xlink" x="0px" y="0px"
	 viewBox="-180 272 250 250" style="enable-background:new -180 272 250 250;" xml:space="preserve">
<style type="text/css">
	.st0{fill:#6181B6;}
	.st1{fill:#FFFFFF;}
	.st2{fill:#000004;}
</style>
<rect x="-180" y="272" class="st0" width="250" height="250"/>
<g>
	<g>
		<path class="st1" d="M-30.5,422.1l6.1-31.4c1.4-7.1,0.2-12.4-3.4-15.7c-3.5-3.2-9.5-4.8-18.3-4.8h-10.6l3-15.6
			c0.1-0.6,0-1.2-0.4-1.7s-0.9-0.7-1.5-0.7h-14.6c-1,0-1.8,0.7-2,1.6l-6.5,33.3c-0.6-3.8-2-7-4.4-9.6c-4.3-4.9-11-7.4-20.1-7.4
			h-28.1c-1,0-1.8,0.7-2,1.6l-13.1,67.6c-0.1,0.6,0,1.2,0.4,1.7c0.4,0.5,0.9,0.7,1.5,0.7h14.7c1,0,1.8-0.7,2-1.6l3.2-16.3h10.9
			c5.7,0,10.6-0.6,14.3-1.8c3.9-1.3,7.4-3.4,10.5-6.3c2.5-2.3,4.6-4.9,6.2-7.7l-2.6,13.5c-0.1,0.6,0,1.2,0.4,1.7s0.9,0.7,1.5,0.7
			h14.6c1,0,1.8-0.7,2-1.6l7.2-37h10c4.3,0,5.5,0.8,5.9,1.2c0.3,0.3,0.9,1.5,0.2,5.2l-5.8,29.9c-0.1,0.6,0,1.2,0.4,1.7
			s0.9,0.7,1.5,0.7h15C-31.5,423.8-30.7,423.1-30.5,422.1z M-98.1,396.1c-0.9,4.7-2.6,8.1-5.1,10c-2.5,1.9-6.6,2.9-12,2.9h-6.5
			l4.7-24.2h8.4c6.2,0,8.7,1.3,9.7,2.4C-97.6,388.9-97.3,392-98.1,396.1z"/>
		<path class="st1" d="M31.9,377.6c-4.3-4.9-11-7.4-20.1-7.4h-28.3c-1,0-1.8,0.7-2,1.6l-13.1,67.5c-0.1,0.6,0,1.2,0.4,1.7
			s0.9,0.7,1.5,0.7H-15c1,0,1.8-0.7,2-1.6l3.2-16.3H1.1c5.7,0,10.6-0.6,14.3-1.8c3.9-1.3,7.4-3.4,10.5-6.3c2.6-2.4,4.8-5.1,6.4-8
			c1.6-2.9,2.8-6.1,3.5-9.6C37.5,389.4,36.2,382.6,31.9,377.6z M16.6,396.1c-0.9,4.7-2.6,8.1-5.1,10c-2.5,1.9-6.6,2.9-12,2.9H-7
			l4.7-24.2h8.4c6.2,0,8.7,1.3,9.7,2.4C17.2,388.9,17.5,392,16.6,396.1z"/>
	</g>
	<g>
		<path class="st2" d="M-108.6,382.9c5.6,0,9.3,1,11.2,3.1c1.9,2.1,2.3,5.6,1.3,10.6c-1,5.2-3,9-5.9,11.2c-2.9,2.2-7.3,3.3-13.2,3.3
			h-8.9l5.5-28.2H-108.6z M-144.4,439.6h14.7l3.5-17.9h12.6c5.6,0,10.1-0.6,13.7-1.8c3.6-1.2,6.8-3.1,9.8-5.9c2.5-2.3,4.5-4.8,6-7.5
			c1.5-2.7,2.6-5.7,3.2-9c1.6-8,0.4-14.2-3.5-18.7s-10.1-6.7-18.6-6.7h-28.3L-144.4,439.6z"/>
		<path class="st2" d="M-70.1,354.3h14.6l-3.5,17.9h13c8.2,0,13.8,1.4,16.9,4.3c3.1,2.9,4,7.5,2.8,13.9l-6.1,31.4h-14.8l5.8-29.9
			c0.7-3.4,0.4-5.7-0.7-6.9c-1.1-1.2-3.6-1.9-7.3-1.9h-11.7l-7.5,38.7h-14.6L-70.1,354.3z"/>
		<path class="st2" d="M6.1,382.9c5.6,0,9.3,1,11.2,3.1s2.3,5.6,1.3,10.6c-1,5.2-3,9-5.9,11.2c-2.9,2.2-7.3,3.3-13.2,3.3h-8.9
			l5.5-28.2H6.1z M-29.7,439.6H-15l3.5-17.9H1.1c5.6,0,10.1-0.6,13.7-1.8c3.6-1.2,6.8-3.1,9.8-5.9c2.5-2.3,4.5-4.8,6-7.5
			c1.5-2.7,2.6-5.7,3.2-9c1.6-8,0.4-14.2-3.5-18.7s-10.1-6.7-18.6-6.7h-28.3L-29.7,439.6z"/>
	</g>
</g>
</svg>
