<?xml version="1.0" encoding="utf-8"?>
<!-- Generator: Adobe Illustrator 19.0.0, SVG Export Plug-In . SVG Version: 6.00 Build 0)  -->
<svg version="1.1" id="Calque_1" xmlns="http://www.w3.org/2000/svg" xmlns:xlink="http://www.w3.org/1999/xlink" x="0px" y="0px"
	 viewBox="-180 272 250 250" style="enable-background:new -180 272 250 250;" xml:space="preserve">
<style type="text/css">
	.st0{fill:#10283D;}
	.st1{fill:#61DAFB;}
</style>
<rect x="-180" y="272" class="st0" width="250" height="250"/>
<g>
	<path class="st1" d="M24.9,397c0-10.6-13.3-20.6-33.6-26.8c4.7-20.7,2.6-37.2-6.6-42.5c-2.1-1.2-4.6-1.8-7.3-1.8v7.3
		c1.5,0,2.7,0.3,3.7,0.8c4.4,2.5,6.4,12.2,4.9,24.7c-0.4,3.1-0.9,6.3-1.7,9.6c-6.4-1.6-13.4-2.8-20.7-3.6c-4.4-6-9-11.5-13.6-16.3
		c10.6-9.9,20.6-15.3,27.4-15.3v-7.3l0,0c-9,0-20.7,6.4-32.6,17.5c-11.9-11-23.6-17.3-32.6-17.3v7.3c6.7,0,16.7,5.4,27.4,15.2
		c-4.6,4.8-9.1,10.2-13.5,16.3c-7.4,0.8-14.3,2-20.7,3.6c-0.7-3.3-1.3-6.4-1.7-9.4c-1.5-12.4,0.4-22.1,4.8-24.7
		c1-0.6,2.2-0.8,3.7-0.8V326l0,0c-2.7,0-5.2,0.6-7.4,1.8c-9.2,5.3-11.2,21.7-6.5,42.4c-20.3,6.3-33.5,16.3-33.5,26.8
		c0,10.6,13.3,20.6,33.6,26.8c-4.7,20.7-2.6,37.2,6.6,42.5c2.1,1.2,4.6,1.8,7.3,1.8c9,0,20.7-6.4,32.6-17.5
		c11.9,11,23.6,17.3,32.6,17.3c2.7,0,5.2-0.6,7.4-1.8c9.2-5.3,11.2-21.7,6.5-42.4C11.7,417.6,24.9,407.6,24.9,397z M-17.5,375.3
		c-1.2,4.2-2.7,8.5-4.4,12.9c-1.3-2.6-2.7-5.2-4.3-7.8c-1.5-2.6-3.1-5.1-4.7-7.6C-26.2,373.4-21.8,374.2-17.5,375.3z M-32.4,410
		c-2.5,4.4-5.1,8.6-7.9,12.4c-4.9,0.4-9.8,0.7-14.7,0.7c-4.9,0-9.8-0.2-14.7-0.6c-2.7-3.9-5.3-8-7.9-12.4c-2.5-4.3-4.7-8.6-6.8-13
		c2-4.4,4.3-8.7,6.7-13c2.5-4.4,5.1-8.6,7.9-12.4c4.9-0.4,9.8-0.7,14.7-0.7c4.9,0,9.8,0.2,14.7,0.6c2.7,3.9,5.3,8,7.9,12.4
		c2.5,4.3,4.7,8.6,6.8,13C-27.7,401.3-30,405.7-32.4,410z M-21.9,405.7c1.8,4.4,3.3,8.7,4.5,13c-4.3,1-8.8,1.9-13.4,2.6
		c1.6-2.5,3.2-5.1,4.7-7.7C-24.6,411-23.2,408.4-21.9,405.7z M-54.9,440.5c-3-3.1-6.1-6.6-9.1-10.4c2.9,0.1,5.9,0.2,9,0.2
		c3.1,0,6.1-0.1,9.1-0.2C-48.9,433.9-51.9,437.4-54.9,440.5z M-79.2,421.3c-4.6-0.7-9.1-1.5-13.4-2.6c1.2-4.2,2.7-8.5,4.4-12.9
		c1.3,2.6,2.7,5.2,4.3,7.8C-82.3,416.3-80.8,418.8-79.2,421.3z M-55.1,353.5c3,3.1,6.1,6.6,9.1,10.4c-2.9-0.1-5.9-0.2-9-0.2
		c-3.1,0-6.1,0.1-9.1,0.2C-61.1,360.1-58.1,356.6-55.1,353.5z M-79.2,372.7c-1.6,2.5-3.2,5.1-4.7,7.7c-1.5,2.6-2.9,5.2-4.2,7.8
		c-1.8-4.4-3.3-8.7-4.5-13C-88.4,374.3-83.9,373.4-79.2,372.7z M-108.7,413.5c-11.5-4.9-19-11.4-19-16.5s7.5-11.6,19-16.5
		c2.8-1.2,5.9-2.3,9-3.3c1.9,6.4,4.3,13,7.3,19.8c-3,6.8-5.4,13.4-7.2,19.7C-102.8,415.8-105.9,414.7-108.7,413.5z M-91.2,460.1
		c-4.4-2.5-6.4-12.2-4.9-24.7c0.4-3.1,0.9-6.3,1.7-9.6c6.4,1.6,13.4,2.8,20.7,3.6c4.4,6,9,11.5,13.6,16.3
		c-10.6,9.9-20.6,15.3-27.4,15.3C-89,460.9-90.2,460.6-91.2,460.1z M-13.9,435.2c1.5,12.4-0.4,22.1-4.8,24.7c-1,0.6-2.2,0.8-3.7,0.8
		c-6.7,0-16.7-5.4-27.4-15.2c4.6-4.8,9.1-10.2,13.5-16.3c7.4-0.8,14.3-2,20.7-3.6C-14.8,429-14.2,432.2-13.9,435.2z M-1.3,413.5
		c-2.8,1.2-5.9,2.3-9,3.3c-1.9-6.4-4.3-13-7.3-19.8c3-6.8,5.4-13.4,7.2-19.7c3.2,1,6.3,2.1,9.2,3.3c11.5,4.9,19,11.4,19,16.5
		C17.7,402.1,10.2,408.6-1.3,413.5z"/>
	<path class="st1" d="M-87.6,326L-87.6,326L-87.6,326z"/>
	<circle class="st1" cx="-55" cy="397" r="14.9"/>
	<path class="st1" d="M-22.6,325.9L-22.6,325.9L-22.6,325.9z"/>
</g>
</svg>
