<?xml version="1.0" encoding="utf-8"?>
<!-- Generator: Adobe Illustrator 19.0.0, SVG Export Plug-In . SVG Version: 6.00 Build 0)  -->
<svg version="1.1" id="Calque_1" xmlns="http://www.w3.org/2000/svg" xmlns:xlink="http://www.w3.org/1999/xlink" x="0px" y="0px"
	 viewBox="-668 325.5 250 250" style="enable-background:new -668 325.5 250 250;" xml:space="preserve">
<style type="text/css">
	.st0{fill:url(#SVGID_1_);}
	.st1{fill:url(#SVGID_2_);}
	.st2{fill:#FFFFFF;}
</style>
<linearGradient id="SVGID_1_" gradientUnits="userSpaceOnUse" x1="-3857.9504" y1="-29.9193" x2="-3810.7478" y2="237.7801" gradientTransform="matrix(-1 0 0 1 -4377.2109 346.5044)">
	<stop  offset="0" style="stop-color:#FAAE42"/>
	<stop  offset="1" style="stop-color:#EF3E31"/>
</linearGradient>
<path class="st0" d="M-612.5,325.5c1.5,0,136,0,138.4,0c6.7,0,13.3,1.1,19.6,3.3c9.2,3.3,17.5,9.2,23.7,16.8
	c6.3,7.6,10.5,17,12,26.7c0.6,3.6,0.7,7.2,0.7,10.8c0,3.3,0,120.3,0,125.5c0,3.1,0,6.3,0,9.5c0,4.3-0.2,8.7-1.1,12.9
	c-2,9.7-6.5,18.7-13.2,26.1c-6.5,7.3-15.1,12.8-24.4,15.7c-5.7,1.8-11.5,2.5-17.5,2.5c-2.6,0-138.7,0-140.8-0.1
	c-10-0.5-19.8-3.7-28.1-9.3c-8.1-5.5-14.7-13.1-19-21.9c-3.7-7.5-5.6-15.9-5.6-24.3c0-2,0-136.9,0-138.8c-0.2-8.3,1.6-16.5,5.2-23.9
	c4.2-8.8,10.7-16.5,18.8-22c8.3-5.7,18.1-9,28-9.5C-614.6,325.5-613.5,325.5-612.5,325.5z"/>
<linearGradient id="SVGID_2_" gradientUnits="userSpaceOnUse" x1="-540.4857" y1="572.4506" x2="-575.0537" y2="376.4049" gradientTransform="matrix(1 0 0 -1 0 902)">
	<stop  offset="0" style="stop-color:#E39F3A"/>
	<stop  offset="1" style="stop-color:#D33929"/>
</linearGradient>
<path class="st1" d="M-457.1,529.9c-0.9-1.4-1.9-2.7-2.9-4c-2.4-2.9-5.3-5.5-8.4-7.6c-3.9-2.6-8.5-4.3-13.2-4.5
	c-3.3-0.2-6.6,0.4-9.8,1.6c-3.1,1.1-6.1,2.6-9.1,4.2c-3.4,1.8-6.8,3.5-10.4,5c-4.3,1.8-8.8,3.1-13.4,4.1c-5.8,1.1-11.6,1.5-17.4,1.4
	c-10.4-0.2-20.9-1.8-30.8-4.7c-8.8-2.6-17.2-6.2-25.1-10.8c-6.9-4-13.4-8.6-19.4-13.8c-5-4.3-9.6-8.9-13.9-13.8
	c-2.9-3.4-5.8-7-8.4-10.7c-1.1-1.5-2-3-2.9-4.6l0,0l0,0l-25.8-27.8v-63c0-30.6,24.7-55.3,55.3-55.3h49.3l36.5,37.1l0,0
	c82.4,56,55.7,117.8,55.7,117.8S-447.8,506.8-457.1,529.9z"/>
<path class="st2" d="M-526.7,362.6c82.4,56,55.7,117.8,55.7,117.8s23.4,26.5,14,49.6c0,0-9.7-16.2-25.9-16.2
	c-15.6,0-24.8,16.2-56.2,16.2c-70,0-103.1-58.5-103.1-58.5c63.1,41.5,106.1,12.1,106.1,12.1c-28.4-16.5-88.8-95.4-88.8-95.4
	c52.6,44.8,75.4,56.6,75.4,56.6c-13.6-11.2-51.6-66.1-51.6-66.1c30.5,30.8,91,73.9,91,73.9C-493.1,405.1-526.7,362.6-526.7,362.6z"
	/>
</svg>
