<?xml version="1.0" encoding="utf-8"?>
<!-- Generator: Adobe Illustrator 19.0.0, SVG Export Plug-In . SVG Version: 6.00 Build 0)  -->
<svg version="1.1" id="Calque_1" xmlns="http://www.w3.org/2000/svg" xmlns:xlink="http://www.w3.org/1999/xlink" x="0px" y="0px"
	 viewBox="-180 272 250 250" style="enable-background:new -180 272 250 250;" xml:space="preserve">
<style type="text/css">
	.st0{fill:#FFFFFF;}
</style>
<rect x="-180" y="272" width="250" height="250"/>
<g id="g12">
	<circle id="circle14" cx="-55" cy="397" r="125"/>
	<path id="path16" inkscape:connector-curvature="0" class="st0" d="M-0.4,318.3c-12.7,0.4-23.8,7.4-32,17.1
		c-9.1,10.6-15.2,23.2-19.6,36.1c-7.8-6.4-13.9-14.7-26.4-18.4c-9.7-2.8-19.9-1.6-29.3,5.3c-4.4,3.3-7.5,8.3-9,13.1
		c-3.8,12.3,4,23.2,7.5,27.1l7.7,8.2c1.6,1.6,5.4,5.8,3.5,11.9c-2,6.6-9.9,10.8-18,8.3c-3.6-1.1-8.8-3.8-7.7-7.6
		c0.5-1.6,1.6-2.7,2.2-4.1c0.5-1.2,0.8-2,1-2.5c1.5-4.8-0.5-11.1-5.7-12.7c-4.8-1.5-9.8-0.3-11.7,5.9c-2.2,7.1,1.2,19.9,19.3,25.5
		c21.2,6.5,39.2-5,41.8-20.1c1.6-9.4-2.7-16.5-10.5-25.5l-6.4-7c-3.9-3.9-5.2-10.4-1.2-15.5c3.4-4.3,8.2-6.1,16-3.9
		c11.5,3.1,16.6,11.1,25.1,17.5c-3.5,11.6-5.8,23.2-7.9,33.6l-1.3,7.7c-6.1,32-10.8,49.6-22.9,59.7c-2.4,1.7-5.9,4.3-11.2,4.5
		c-2.8,0.1-3.6-1.8-3.7-2.6c-0.1-1.9,1.6-2.8,2.7-3.7c1.6-0.9,4.1-2.3,3.9-7c-0.2-5.5-4.8-10.3-11.4-10.1c-5,0.2-12.5,4.8-12.3,13.4
		c0.3,8.8,8.5,15.5,21,15c6.6-0.2,21.5-2.9,36.1-20.3c17-19.9,21.8-42.7,25.3-59.5l4-22.1c2.2,0.3,4.6,0.4,7.2,0.5
		c21.2,0.5,31.8-10.5,31.9-18.5c0.1-4.8-3.2-9.6-7.8-9.5c-3.3,0.1-7.4,2.3-8.4,6.8c-1,4.5,6.7,8.5,0.7,12.4
		c-4.3,2.8-12,4.7-22.8,3.1l2-10.9c4-20.6,9-45.9,27.7-46.5c1.4-0.1,6.4,0.1,6.5,3.4c0,1.1-0.2,1.4-1.5,3.9c-1.3,2-1.8,3.6-1.8,5.6
		c0.2,5.3,4.2,8.7,10,8.5c7.7-0.3,10-7.8,9.8-11.7C21.9,323.6,12.3,317.8-0.4,318.3z"/>
</g>
</svg>
