<?xml version="1.0" encoding="utf-8"?>
<!-- Generator: Adobe Illustrator 23.0.1, SVG Export Plug-In . SVG Version: 6.00 Build 0)  -->
<svg version="1.1" id="Layer_1" xmlns="http://www.w3.org/2000/svg" xmlns:xlink="http://www.w3.org/1999/xlink" x="0px" y="0px"
	 viewBox="0 0 100 100" style="enable-background:new 0 0 100 100;" xml:space="preserve">
<style type="text/css">
	.st0{fill:#FF5A5F;}
</style>
<path class="st0" d="M89.4,68.4c-0.4-1.1-0.9-2.1-1.3-3.2c-0.7-1.6-1.4-3-2-4.5l0,0c-6.1-13.1-12.5-26.5-19.3-39.6l-0.2-0.5
	c-0.7-1.3-1.4-2.7-2.1-4.1c-0.9-1.6-1.8-3.2-3.2-4.8C58.4,8,54.5,6.2,50.2,6.2s-8.2,2-11.3,5.2c-1.3,1.6-2.3,3.2-3.2,4.8
	c-0.7,1.4-1.4,2.9-2.1,4.1l-0.2,0.5C26.5,34,20.1,47.5,14,60.5v0.2c-0.5,1.4-1.3,2.9-2,4.5c-0.4,0.9-0.9,2-1.3,3.2
	c-1.1,3.2-1.4,6.3-1.1,9.5c0.9,6.6,5.4,12,11.5,14.5c2.3,0.9,4.7,1.4,7.2,1.4c0.7,0,1.6,0,2.3-0.2c2.9-0.4,5.9-1.3,8.8-3
	c3.6-2,7-4.8,10.9-9.1c3.9,4.1,7.3,7.2,10.9,9.1c2.9,1.6,5.9,2.7,8.8,3c0.7,0,1.6,0.2,2.3,0.2c2.5,0,4.8-0.4,7.2-1.4
	c6.1-2.5,10.4-8.1,11.5-14.5C90.8,74.7,90.5,71.6,89.4,68.4z M49.8,72.9C45.1,67,41.9,61.2,41,56.6c-0.4-2-0.5-3.8-0.2-5.4
	c0.2-1.4,0.7-2.7,1.4-3.8c1.6-2.3,4.5-3.9,7.7-3.9c3.2,0,6.1,1.4,7.7,3.9c0.7,1.1,1.3,2.3,1.4,3.8c0.2,1.6,0.2,3.4-0.2,5.4
	C57.7,61.2,54.5,67,49.8,72.9z M84.7,77c-0.5,4.5-3.8,8.4-7.9,10.2c-2.1,0.9-4.3,1.1-6.6,0.9c-2.1-0.2-4.3-0.9-6.6-2.3
	c-3.2-1.8-6.3-4.5-10-8.4c5.7-7.2,9.3-13.6,10.6-19.3c0.5-2.7,0.7-5.2,0.4-7.5c-0.4-2.1-1.1-4.1-2.3-5.9c-2.7-3.9-7.3-6.3-12.4-6.3
	c-5,0-9.7,2.3-12.4,6.3c-1.3,1.8-2,3.8-2.3,5.9c-0.4,2.3-0.2,4.8,0.4,7.5c1.3,5.7,4.8,12.4,10.6,19.5c-3.6,3.9-6.8,6.8-10,8.4
	c-2.3,1.3-4.5,2-6.6,2.3c-2.3,0.2-4.7,0-6.6-0.9c-4.3-1.8-7.3-5.7-7.9-10.2c-0.2-2.1,0-4.3,0.7-6.8c0.2-0.9,0.7-1.8,1.1-2.9
	c0.5-1.4,1.3-2.9,2-4.3V63C24.7,50,31.2,36.7,38,23.6l0.2-0.5c0.7-1.3,1.4-2.7,2.1-3.9c0.7-1.4,1.4-2.7,2.5-3.9
	c1.8-2.1,4.3-3.2,7-3.2s5.2,1.1,7,3.2c0.9,1.1,1.8,2.5,2.5,3.9c0.7,1.3,1.4,2.7,2.1,3.9l0.2,0.5C68.2,36.7,74.7,50,80.8,63l0,0
	c0.7,1.4,1.3,3,2,4.3c0.4,1.1,0.9,2,1.1,2.9C84.9,72.5,85.1,74.9,84.7,77z"/>
</svg>
