<?xml version="1.0" encoding="utf-8"?>
<!-- Generator: Adobe Illustrator 23.0.1, SVG Export Plug-In . SVG Version: 6.00 Build 0)  -->
<svg version="1.1" id="Layer_1" xmlns="http://www.w3.org/2000/svg" xmlns:xlink="http://www.w3.org/1999/xlink" x="0px" y="0px"
	 viewBox="0 0 100 100" style="enable-background:new 0 0 100 100;" xml:space="preserve">
<style type="text/css">
	.st0{fill:url(#SVGID_1_);}
	.st1{fill:#2684FF;}
</style>
<g>
	
		<linearGradient id="SVGID_1_" gradientUnits="userSpaceOnUse" x1="-254.0402" y1="244.9835" x2="-255.6817" y2="242.1404" gradientTransform="matrix(10.9488 0 0 -10.9488 2826.5569 2734.8279)">
		<stop  offset="0" style="stop-color:#0052CC"/>
		<stop  offset="0.92" style="stop-color:#2684FF"/>
	</linearGradient>
	<path class="st0" d="M35.8,47.4c-0.7-0.9-1.9-1-2.7-0.4c-0.3,0.1-0.4,0.4-0.6,0.7l-17.1,34c-0.4,1-0.1,2.3,0.9,2.7
		c0.3,0.1,0.6,0.3,0.9,0.3h23.7c0.7,0,1.4-0.4,1.9-1.1C48,72.9,44.8,56.9,35.8,47.4z"/>
	<path class="st1" d="M48.4,16.4c-8.6,13.3-9.6,30.1-2.6,44.3l11.5,22.8c0.3,0.7,1,1.1,1.9,1.1h23.7c1.1,0,2-0.9,2-2l0,0
		c0-0.3-0.1-0.6-0.1-0.9L51.9,16.4c-0.4-1-1.6-1.4-2.6-0.9C48.8,15.7,48.6,16,48.4,16.4L48.4,16.4z"/>
</g>
</svg>
