<?xml version="1.0" encoding="utf-8"?>
<!-- Generator: Adobe Illustrator 23.0.1, SVG Export Plug-In . SVG Version: 6.00 Build 0)  -->
<svg version="1.1" id="Layer_1" xmlns="http://www.w3.org/2000/svg" xmlns:xlink="http://www.w3.org/1999/xlink" x="0px" y="0px"
	 viewBox="0 0 100 100" style="enable-background:new 0 0 100 100;" xml:space="preserve">
<style type="text/css">
	.st0{fill:#FF7A59;}
</style>
<path class="st0" d="M60.8,41.7v-5.8c1.6-0.7,2.6-2.3,2.6-4v-0.1c0-2.5-2-4.5-4.5-4.5h-0.1c-2.5,0-4.5,2-4.5,4.5c0,0,0,0,0,0v0.1
	c0,1.7,1,3.3,2.6,4v5.8c-2.2,0.3-4.3,1.3-6,2.7l-16-12.4c0.1-0.4,0.2-0.8,0.2-1.3c0-2.8-2.2-5.1-5-5.1c-2.8,0-5.1,2.2-5.1,5
	s2.2,5.1,5,5.1c0,0,0,0,0,0c0.9,0,1.7-0.2,2.5-0.7l15.7,12.2c-2.9,4.4-2.8,10,0.2,14.3l-4.8,4.8c-0.4-0.1-0.8-0.2-1.2-0.2
	c-2.3,0-4.1,1.9-4.1,4.1c0,2.3,1.9,4.1,4.1,4.1c2.3,0,4.1-1.9,4.1-4.1c0-0.4-0.1-0.8-0.2-1.2l4.7-4.7c5.6,4.3,13.6,3.3,17.9-2.3
	c4.3-5.6,3.3-13.6-2.3-17.9C64.9,42.8,62.9,42,60.8,41.7 M58.8,60.8c-3.6,0.1-6.6-2.7-6.7-6.4c-0.1-3.6,2.7-6.6,6.4-6.7
	c0.1,0,0.2,0,0.4,0c3.6,0.1,6.4,3.2,6.3,6.8C65,57.9,62.3,60.7,58.8,60.8"/>
</svg>
