<svg xmlns="http://www.w3.org/2000/svg" viewBox="-668 325.5 250 250" style="enable-background:new -668 325.5 250 250" xml:space="preserve"><path style="fill:#333" d="M-668 325.5h250v250h-250z"/><path d="M-543 534c-2.3 0-4.5-.6-6.5-1.7l-20.5-12.2c-3.1-1.7-1.5-2.3-.6-2.6 4.2-1.4 4.9-1.7 9.2-4.2.5-.3 1.1-.2 1.5.2l15.7 9.4c.6.3 1.4.3 1.8 0l61.4-35.6c.6-.3.9-.9.9-1.7v-70.9c0-.8-.3-1.4-.9-1.7l-61.4-35.4c-.6-.3-1.4-.3-1.8 0l-61.4 35.4c-.6.3-.9 1.1-.9 1.7v70.9c0 .6.3 1.4.9 1.7l16.8 9.7c9.1 4.6 14.8-.8 14.8-6.2v-70c0-.9.8-1.8 1.8-1.8h7.8c.9 0 1.8.8 1.8 1.8v70c0 12.2-6.6 19.2-18.2 19.2-3.5 0-6.3 0-14.2-3.8l-16.2-9.2c-4-2.3-6.5-6.6-6.5-11.2v-70.9c0-4.6 2.5-8.9 6.5-11.2l61.4-35.6c3.8-2.2 9.1-2.2 12.9 0l61.4 35.6c4 2.3 6.5 6.6 6.5 11.2v70.9c0 4.6-2.5 8.9-6.5 11.2l-61.4 35.6c-1.6.9-3.9 1.4-6.1 1.4zm18.9-48.8c-26.9 0-32.5-12.3-32.5-22.8 0-.9.8-1.8 1.8-1.8h8c.9 0 1.7.6 1.7 1.5 1.2 8.2 4.8 12.2 21.1 12.2 12.9 0 18.5-2.9 18.5-9.8 0-4-1.5-6.9-21.7-8.9-16.8-1.7-27.2-5.4-27.2-18.8 0-12.5 10.5-19.9 28-19.9 19.7 0 29.4 6.8 30.6 21.5 0 .5-.2.9-.5 1.4-.3.3-.8.6-1.2.6h-8c-.8 0-1.5-.6-1.7-1.4-1.8-8.5-6.6-11.2-19.2-11.2-14.2 0-15.9 4.9-15.9 8.6 0 4.5 2 5.8 21.1 8.3 18.9 2.5 27.9 6 27.9 19.2-.1 13.6-11.2 21.3-30.8 21.3z" style="fill:#539e43"/></svg>