<svg version="1.1" id="Calque_1" xmlns="http://www.w3.org/2000/svg" x="0" y="0" viewBox="-180 272 250 250" style="enable-background:new -180 272 250 250" xml:space="preserve"><style>.st1{fill:#fff}.st2{fill:#000004}</style><path style="fill:#6181b6" d="M-180 272H70v250h-250z"/><path class="st1" d="m-30.5 422.1 6.1-31.4c1.4-7.1.2-12.4-3.4-15.7-3.5-3.2-9.5-4.8-18.3-4.8h-10.6l3-15.6c.1-.6 0-1.2-.4-1.7s-.9-.7-1.5-.7h-14.6c-1 0-1.8.7-2 1.6l-6.5 33.3c-.6-3.8-2-7-4.4-9.6-4.3-4.9-11-7.4-20.1-7.4h-28.1c-1 0-1.8.7-2 1.6l-13.1 67.6c-.1.6 0 1.2.4 1.7s.9.7 1.5.7h14.7c1 0 1.8-.7 2-1.6l3.2-16.3h10.9c5.7 0 10.6-.6 14.3-1.8 3.9-1.3 7.4-3.4 10.5-6.3 2.5-2.3 4.6-4.9 6.2-7.7l-2.6 13.5c-.1.6 0 1.2.4 1.7s.9.7 1.5.7h14.6c1 0 1.8-.7 2-1.6l7.2-37h10c4.3 0 5.5.8 5.9 1.2.3.3.9 1.5.2 5.2l-5.8 29.9c-.1.6 0 1.2.4 1.7s.9.7 1.5.7h15c.9-.2 1.7-.9 1.9-1.9zm-67.6-26c-.9 4.7-2.6 8.1-5.1 10-2.5 1.9-6.6 2.9-12 2.9h-6.5l4.7-24.2h8.4c6.2 0 8.7 1.3 9.7 2.4 1.3 1.7 1.6 4.8.8 8.9zM31.9 377.6c-4.3-4.9-11-7.4-20.1-7.4h-28.3c-1 0-1.8.7-2 1.6l-13.1 67.5c-.1.6 0 1.2.4 1.7s.9.7 1.5.7H-15c1 0 1.8-.7 2-1.6l3.2-16.3H1.1c5.7 0 10.6-.6 14.3-1.8 3.9-1.3 7.4-3.4 10.5-6.3 2.6-2.4 4.8-5.1 6.4-8 1.6-2.9 2.8-6.1 3.5-9.6 1.7-8.7.4-15.5-3.9-20.5zm-15.3 18.5c-.9 4.7-2.6 8.1-5.1 10C9 408 4.9 409-.5 409H-7l4.7-24.2h8.4c6.2 0 8.7 1.3 9.7 2.4 1.4 1.7 1.7 4.8.8 8.9z"/><path class="st2" d="M-108.6 382.9c5.6 0 9.3 1 11.2 3.1 1.9 2.1 2.3 5.6 1.3 10.6-1 5.2-3 9-5.9 11.2-2.9 2.2-7.3 3.3-13.2 3.3h-8.9l5.5-28.2h10zm-35.8 56.7h14.7l3.5-17.9h12.6c5.6 0 10.1-.6 13.7-1.8 3.6-1.2 6.8-3.1 9.8-5.9 2.5-2.3 4.5-4.8 6-7.5s2.6-5.7 3.2-9c1.6-8 .4-14.2-3.5-18.7s-10.1-6.7-18.6-6.7h-28.3l-13.1 67.5zM-70.1 354.3h14.6l-3.5 17.9h13c8.2 0 13.8 1.4 16.9 4.3 3.1 2.9 4 7.5 2.8 13.9l-6.1 31.4h-14.8l5.8-29.9c.7-3.4.4-5.7-.7-6.9-1.1-1.2-3.6-1.9-7.3-1.9h-11.7l-7.5 38.7h-14.6l13.1-67.5zM6.1 382.9c5.6 0 9.3 1 11.2 3.1s2.3 5.6 1.3 10.6c-1 5.2-3 9-5.9 11.2-2.9 2.2-7.3 3.3-13.2 3.3h-8.9l5.5-28.2h10zm-35.8 56.7H-15l3.5-17.9H1.1c5.6 0 10.1-.6 13.7-1.8 3.6-1.2 6.8-3.1 9.8-5.9 2.5-2.3 4.5-4.8 6-7.5s2.6-5.7 3.2-9c1.6-8 .4-14.2-3.5-18.7s-10.1-6.7-18.6-6.7h-28.3l-13.1 67.5z"/></svg>