<svg xmlns="http://www.w3.org/2000/svg" viewBox="0 0 480 480" style="enable-background:new 0 0 480 480" xml:space="preserve"><path d="M409.8 255c-16.5.1-30.8 4-42.7 9.9-4.4-8.8-8.8-16.3-9.6-22.1-.8-6.6-1.8-10.7-.8-18.5 1-8 5.6-19.1 5.6-20-.1-.8-1-4.8-10.4-4.9-9.5-.1-17.7 1.8-18.5 4.3-.8 2.5-2.7 8.2-4 14-1.6 8.7-19 39.3-28.8 55.3-3.2-6.3-6-11.8-6.6-16.2-.8-6.6-1.8-10.7-.8-18.5 1-8 5.6-19.1 5.6-20-.1-.8-1-4.8-10.4-4.9-9.5-.1-17.7 1.8-18.5 4.3-.8 2.5-1.9 8.4-4 14-1.9 5.8-24.9 56.9-30.9 70.2-3 6.9-5.8 12.2-7.7 15.9-1.9 3.7-.1.3-.3.7-1.6 3.2-2.6 4.8-2.6 4.8v.1c-1.2 2.3-2.6 4.5-3.3 4.5-.4 0-1.4-6.2.1-14.6 3.4-17.7 11.7-45.5 11.5-46.4 0-.4 1.5-5.4-5.4-7.8-6.7-2.5-9.1 1.6-9.6 1.6s-1 1.5-1 1.5 7.4-31.2-14.3-31.2c-13.6 0-32.4 14.8-41.6 28.3-5.9 3.2-18.4 10-31.6 17.3-5.1 2.7-10.3 5.8-15.2 8.4l-1-1.1c-26.4-28-75-47.9-72.9-85.6.7-13.7 5.5-49.8 93.4-93.7 72-35.8 129.6-26.1 139.7-4.1 14.3 31.3-30.8 89.4-105.6 97.8-28.6 3.2-43.5-7.8-47.2-11.9-4-4.3-4.5-4.5-6-3.7-2.3 1.2-1 5.2 0 7.4 2.2 5.8 11.4 16.1 27.1 21.3 13.7 4.5 47.2 7 87.6-8.7 45.3-17.6 80.7-66.3 70.3-107.1-10.6-41.5-79.4-55.1-144.3-32-38.9 13.6-80.8 35.1-111 63.4C8.3 160.5 2.5 189.8 5 201.8c8.4 43.3 68.1 71.5 92 92.4-1.2.7-2.3 1.2-3.3 1.8-11.9 6-57.5 29.7-68.9 55-12.9 28.6 2.1 49 11.9 51.8 30.8 8.5 62.2-6.9 79.2-32.1 16.9-25.3 14.8-58.1 7.1-73.1l-.3-.5 9.3-5.5c6-3.6 12.1-6.9 17.3-9.8-2.9 8-5.1 17.4-6.2 31.3-1.2 16.2 5.4 37.2 14 45.5 3.8 3.6 8.5 3.7 11.3 3.7 10.2 0 14.7-8.4 19.8-18.4 6.3-12.2 11.8-26.4 11.8-26.4s-6.9 38.3 11.9 38.3c6.9 0 13.7-8.9 16.9-13.5v.1s.1-.3.5-1c.4-.5.7-1.1 1.1-1.8v-.1c2.7-4.8 8.9-15.8 18.1-33.8 11.8-23.3 23.2-52.6 23.2-52.6s1.1 7.1 4.5 19c2.1 7 6.5 14.6 9.9 22.1-2.7 3.8-4.4 6-4.4 6l.1.1c-2.2 2.9-4.7 6-7.3 9.2-9.3 11.3-20.6 24-22.1 27.7-1.8 4.3-1.4 7.6 2.1 10.2 2.5 1.8 6.9 2.2 11.5 1.8 8.5-.5 14.3-2.6 17.3-4 4.5-1.6 9.9-4.1 14.8-7.8 9.2-6.9 14.8-16.5 14.3-29.4-.3-7.1-2.6-14-5.5-20.7.8-1.2 1.6-2.3 2.5-3.7 14.6-21.3 25.8-44.6 25.8-44.6s1.1 7.1 4.5 19c1.8 6 5.2 12.5 8.4 19-13.6 11.1-22.1 24-25.1 32.4-5.5 15.7-1.2 22.7 6.9 24.3 3.6.7 8.8-1 12.6-2.6 4.8-1.5 10.6-4.3 15.9-8.2 9.2-6.9 18-16.3 17.6-29.1-.3-5.9-1.8-11.7-4-17.2 11.5-4.8 26.6-7.6 45.6-5.2 40.9 4.8 49 30.3 47.5 41.1-1.5 10.7-10.2 16.6-12.9 18.4-2.9 1.8-3.7 2.3-3.4 3.7.4 1.9 1.6 1.8 4.1 1.5 3.4-.5 21.6-8.8 22.2-28.4 1.3-25.4-22.6-53-65.3-52.7zM94.3 361.4c-13.5 14.8-32.5 20.5-40.6 15.7-8.8-5.1-5.4-26.9 11.3-42.6 10.2-9.6 23.2-18.4 31.9-23.8 1.9-1.2 4.8-2.9 8.4-5.1.5-.4 1-.5 1-.5l2.1-1.2c6 22.2.1 41.9-14.1 57.5zm98.8-67.3c-4.7 11.5-14.6 41.1-20.6 39.4-5.2-1.4-8.2-23.8-1-45.9 3.7-11.1 11.5-24.3 16.1-29.5 7.4-8.2 15.5-11 17.6-7.7 2.4 4.6-9.2 36.6-12.1 43.7zm81.6 39c-2.1 1-3.8 1.8-4.7 1.2-.7-.4.8-1.8.8-1.8s10.2-11 14.3-16.1c2.3-2.9 5.1-6.3 8-10.2v1.1c0 13.5-12.6 22.3-18.4 25.8zm62.9-14.3c-1.5-1.1-1.2-4.5 3.7-15.2 1.9-4.3 6.3-11.3 14-18 1 2.7 1.5 5.5 1.4 8-.2 16.5-12 22.6-19.1 25.2z" style="fill:#cf649a"/></svg>