<svg xmlns="http://www.w3.org/2000/svg" viewBox="-180 272 250 250" style="enable-background:new -180 272 250 250" xml:space="preserve"><path d="M-180 272H70v250h-250z"/><circle cx="-55" cy="397" r="125"/><path d="M-.4 318.3c-12.7.4-23.8 7.4-32 17.1-9.1 10.6-15.2 23.2-19.6 36.1-7.8-6.4-13.9-14.7-26.4-18.4-9.7-2.8-19.9-1.6-29.3 5.3-4.4 3.3-7.5 8.3-9 13.1-3.8 12.3 4 23.2 7.5 27.1l7.7 8.2c1.6 1.6 5.4 5.8 3.5 11.9-2 6.6-9.9 10.8-18 8.3-3.6-1.1-8.8-3.8-7.7-7.6.5-1.6 1.6-2.7 2.2-4.1.5-1.2.8-2 1-2.5 1.5-4.8-.5-11.1-5.7-12.7-4.8-1.5-9.8-.3-11.7 5.9-2.2 7.1 1.2 19.9 19.3 25.5 21.2 6.5 39.2-5 41.8-20.1 1.6-9.4-2.7-16.5-10.5-25.5l-6.4-7c-3.9-3.9-5.2-10.4-1.2-15.5 3.4-4.3 8.2-6.1 16-3.9 11.5 3.1 16.6 11.1 25.1 17.5-3.5 11.6-5.8 23.2-7.9 33.6l-1.3 7.7c-6.1 32-10.8 49.6-22.9 59.7-2.4 1.7-5.9 4.3-11.2 4.5-2.8.1-3.6-1.8-3.7-2.6-.1-1.9 1.6-2.8 2.7-3.7 1.6-.9 4.1-2.3 3.9-7-.2-5.5-4.8-10.3-11.4-10.1-5 .2-12.5 4.8-12.3 13.4.3 8.8 8.5 15.5 21 15 6.6-.2 21.5-2.9 36.1-20.3 17-19.9 21.8-42.7 25.3-59.5l4-22.1c2.2.3 4.6.4 7.2.5 21.2.5 31.8-10.5 31.9-18.5.1-4.8-3.2-9.6-7.8-9.5-3.3.1-7.4 2.3-8.4 6.8s6.7 8.5.7 12.4c-4.3 2.8-12 4.7-22.8 3.1l2-10.9c4-20.6 9-45.9 27.7-46.5 1.4-.1 6.4.1 6.5 3.4 0 1.1-.2 1.4-1.5 3.9-1.3 2-1.8 3.6-1.8 5.6.2 5.3 4.2 8.7 10 8.5 7.7-.3 10-7.8 9.8-11.7-.1-9.1-9.7-14.9-22.4-14.4z" style="fill:#fff"/></svg>