<svg version="1.1" id="Calque_1" xmlns="http://www.w3.org/2000/svg" x="0" y="0" viewBox="0 0 250 250" style="enable-background:new 0 0 250 250" xml:space="preserve"><style>.st2{fill:#fff}</style><circle cx="125" cy="125" r="125" style="fill-rule:evenodd;clip-rule:evenodd;fill:#6e2fd1"/><g style="enable-background:new"><path class="st2" d="M37.6 153.3c-1.4-1.4-2.1-3.2-2.1-5.3 0-2.1.7-3.9 2.1-5.3 1.4-1.4 3.1-2.1 5.3-2.1 2.1 0 3.9.7 5.3 2.1 1.4 1.4 2.1 3.2 2.1 5.3 0 2.1-.7 3.9-2.1 5.3-1.4 1.4-3.1 2.1-5.3 2.1-2.1 0-3.9-.7-5.3-2.1zM105.3 86c1.2 1.1 1.8 2.4 1.8 4.2v59.3c0 1.8-.6 3.2-1.7 4.3-1.1 1.1-2.6 1.6-4.5 1.6s-3.3-.5-4.5-1.6c-1.1-1.1-1.7-2.5-1.7-4.3V147c-1.5 2.7-3.6 4.8-6.3 6.3-2.7 1.5-5.9 2.3-9.4 2.3-4.2 0-7.9-1.1-11.1-3.2-3.3-2.1-5.8-5.1-7.6-9-1.8-3.9-2.7-8.3-2.7-13.3s.9-9.4 2.7-13.2c1.8-3.8 4.3-6.7 7.6-8.7 3.2-2 7-3.1 11.2-3.1 3.5 0 6.6.7 9.3 2.2 2.7 1.5 4.8 3.5 6.2 6.1V90c0-1.7.5-3 1.6-4s2.6-1.5 4.4-1.5c2-.1 3.5.5 4.7 1.5zm-13.7 55.9c2.1-2.7 3.2-6.6 3.2-11.6s-1.1-8.9-3.2-11.5c-2.1-2.7-5.2-4-9.1-4-4 0-7 1.3-9.2 4-2.2 2.6-3.3 6.4-3.3 11.4s1.1 8.9 3.3 11.7c2.2 2.8 5.2 4.2 9.1 4.2 4-.1 7.1-1.5 9.2-4.2zM129 152.5c-3.7-2-6.6-5-8.7-8.8-2-3.8-3.1-8.3-3.1-13.4s1-9.5 3.1-13.3c2-3.8 4.9-6.7 8.7-8.8 3.7-2 8.1-3.1 13-3.1 5 0 9.3 1 13 3.1 3.7 2 6.6 5 8.6 8.8 2 3.8 3 8.2 3 13.3 0 5.1-1 9.5-3 13.4-2 3.8-4.9 6.8-8.6 8.8-3.7 2-8.1 3.1-13 3.1-5 0-9.3-1-13-3.1zm22.1-10.5c2.1-2.6 3.2-6.5 3.2-11.7 0-5.1-1.1-9-3.2-11.6-2.1-2.7-5.2-4-9.1-4-4 0-7 1.3-9.2 4-2.1 2.7-3.2 6.6-3.2 11.6 0 5.2 1.1 9.1 3.2 11.7 2.1 2.6 5.2 4 9.1 4 4 0 7.1-1.3 9.2-4zM185.6 152.5c-3.7-2-6.5-5-8.5-8.7-2-3.8-3-8.2-3-13.2s1-9.5 3.1-13.3c2.1-3.9 5-6.9 8.8-9 3.8-2.1 8.1-3.2 13-3.2 2.6 0 5.2.4 7.8 1.1 2.6.7 4.9 1.7 6.9 3 2.1 1.4 3.2 3.1 3.2 5.3 0 1.5-.3 2.6-1 3.5-.7.9-1.6 1.3-2.7 1.3-.7 0-1.5-.2-2.3-.5-.8-.3-1.6-.7-2.4-1.2-1.5-.9-2.8-1.5-4.2-2-1.3-.5-2.8-.7-4.6-.7-4.1 0-7.3 1.3-9.5 4s-3.3 6.5-3.3 11.5 1.1 8.8 3.3 11.4c2.2 2.7 5.4 4 9.5 4 1.7 0 3.1-.2 4.4-.7 1.3-.5 2.7-1.2 4.3-2 1-.6 1.8-1 2.6-1.3.7-.3 1.5-.4 2.2-.4 1.1 0 1.9.5 2.7 1.4.7.9 1.1 2.1 1.1 3.5 0 1.1-.2 2.1-.7 2.9-.5.8-1.3 1.6-2.4 2.2-2 1.3-4.4 2.4-7.1 3.1-2.7.8-5.5 1.1-8.3 1.1-5 0-9.2-1-12.9-3.1z"/></g></svg>