<svg version="1.1" id="Layer_1" xmlns="http://www.w3.org/2000/svg" x="0" y="0" viewBox="0 0 100 100" style="enable-background:new 0 0 100 100" xml:space="preserve"><style>.st0{fill:#6a8a22}</style><path class="st0" d="M20.4 63.1s-5.5 3.3-15.7 18.1C3.1 83.6 2 83.4 2 83.4s.5 3.6 5.7 2.5c0 0 7.4-17.5 15.1-21l-2.4-1.8z"/><path d="M13.1 72.2s3.4-48 42.3-46.7C87.6 26.5 98 14 98 14s.3 68.1-84.9 58.2z" style="fill:#86c61f"/><path class="st0" d="M17.8 67.5s16.1-24.3 35.1-26.2C72.2 39.4 84 29.9 84 29.9S72.2 44.2 51.7 46.3C34 48.1 17.8 67.5 17.8 67.5z"/></svg>