<svg version="1.1" id="Calque_1" xmlns="http://www.w3.org/2000/svg" x="0" y="0" viewBox="-180 272 250 250" style="enable-background:new -180 272 250 250" xml:space="preserve"><style>.st0{fill:#d34b47}</style><g id="XMLID_5_"><path id="XMLID_174_" class="st0" d="m-25 512.6 2.5-39.4 6.4-11.1s-14.8 6.1-39.6 6.1-39.4-5.9-39.4-5.9l7.4 12.1 2.5 38.1c0 4.2 13.5 7.4 30.3 7.4 16.4.1 29.9-3.1 29.9-7.3"/><path id="XMLID_173_" class="st0" d="m-32.4 328.9 4.9-19.7L0 280.4l-7.1-6.1-29.2 30.7-5.7 23.4c-4.2-.2-8.6-.2-13-.2-30.5 0-55.3 3.4-55.3 7.9 0 4.2 24.8 7.9 55.3 7.9S.3 340.6.3 336.1c0-3.3-13.5-6-32.7-7.2"/><path id="XMLID_131_" d="M-35.3 340s-1 .2-4.2.2-5.4 0-6.4-.7c-.2-.2-.5-.7-.5-1 0-.5.5-1 1-1l.5.7c-.2 0-.2.2-.2.2 0 .5 3.2.7 5.7.7s5.4-.2 5.4-.7c0-.2-.2-.2-.7-.2l.5-.7c.7.2 1.2.5 1.2 1.2.1 1-1.3 1-2.3 1.3" style="fill:#fff"/><path id="XMLID_130_" class="st0" d="M-.2 280.7c.7-.7-.2-3-2.5-4.7-2-1.7-4.2-2.5-4.9-1.7s.2 3 2.5 4.4c2.2 2 4.5 2.7 4.9 2"/><path id="XMLID_129_" class="st0" d="M-26.2 416.5c-.7-6.1 13.8-15.2 10.1-15.5-7.9.5-11.8 9.3-15.7 18.4-1.5 3.4-6.4 18-9.8 16-3.2-1.7 4.2-13.8 6.4-20.7-2.5 1.7-11.3 8.6-13.8 2.2-3.7 3.2-11.6 4.9-10.8-3.4-2 3.4-6.4 8.4-11.6 6.4-6.9-2.7 3.9-24.8 6.6-23.6 2.7 1.2-.5 6.1-1.5 8.1-2 4.4-4.2 9.8-2.7 10.8 2.5 2 9.3-7.1 9.3-7.4 1.2-1.7 4.9-12.8 7.9-11.3 3 1.2-7.4 15.7-3.4 18.7.7.5 3.9-.2 5.9-2.5 1.2-1.2.7-4.4 4.9-14.3s7.9-22.1 10.6-21.2c3 1 .5 7.1-.5 9.6-4.7 11.1-13 29.3-9.1 27.8s5.9-1.5 9.8-5.9c3.7-4.4 3.7-11.8 6.1-11.6 2.5.2 2.2 2.5 1.5 4.4 2.5-3 11.8-8.9 14-3 2.7 7.1-13.3 17.2-9.3 16.7 3.9-.5 10.3-4.4 13-8.1l7.4-66.9s-7.4 6.1-55.1 6.1c-47.5 0-54.4-6.1-54.4-6.1l6.4 61c3.4-9.6 11.3-28.8 23.9-28.3 5.7.2 13.3 11.3 6.9 11.6-2.7.2-3-5.4-6.4-6.4-2.5-.5-5.7 1.2-7.9 3.4-4.2 4.2-13.3 20.4-12.1 28.8 1.5 10.3 14.3-3.7 16.5-7.9 1.5-3 2.5-11.6 5.9-10.8 3.4 1-.2 9.8-2.7 17.7-2.7 8.9-4.2 18.2-7.6 17.2-3.4-1 2.2-12.5 2-14.5-3.2 3-9.1 10.6-16.7 6.6l3.9 37.9s10.3 8.4 41.8 8.4 42.3-8.1 42.3-8.1l4.9-43.8c-3.4 4.4-16.2 11.3-16.9 3.5"/></g></svg>