<svg xmlns="http://www.w3.org/2000/svg" viewBox="0 0 480 480" style="enable-background:new 0 0 480 480" xml:space="preserve"><g transform="translate(0 1.292) scale(3.69565)"><path d="M20.4 100c-5.3 0-10.3-2.9-12.9-7.5-2.7-4.6-2.5-10.3.4-14.8L34.5 36c2.8-4.6 7.8-7.3 13.1-7.1 5.3.1 10.2 3.1 12.7 7.8 2.5 4.7 2.2 10.3-.8 14.7L32.9 93.2c-2.7 4.2-7.5 6.8-12.5 6.8z" style="fill:#f62b54"/><path d="M66 100c-5.4 0-10.3-2.9-12.9-7.5-2.6-4.6-2.4-10.3.4-14.7L80 36.1c2.7-4.6 7.8-7.4 13.1-7.3 5.4.1 10.3 3.1 12.8 7.9 2.5 4.7 2.1 10.4-1 14.8L78.5 93.2C75.7 97.4 71 100 66 100z" style="fill:#fc0"/><ellipse cx="110.6" cy="86.9" rx="13.7" ry="13.4" style="fill:#00ca72"/></g></svg>