<svg version="1.1" id="Calque_1" xmlns="http://www.w3.org/2000/svg" x="0" y="0" viewBox="0 0 250 250" style="enable-background:new 0 0 250 250" xml:space="preserve"><style>.st1{fill:#fff}</style><circle cx="125" cy="125" r="125" style="fill-rule:evenodd;clip-rule:evenodd;fill:#ef295d"/><path class="st1" d="M34.8 151.7c-1.4-1.5-2.2-3.3-2.2-5.5s.7-4 2.2-5.5c1.4-1.5 3.2-2.2 5.4-2.2s4 .7 5.4 2.2c1.4 1.5 2.2 3.3 2.2 5.5s-.7 4-2.2 5.5c-1.4 1.5-3.2 2.2-5.4 2.2s-4-.8-5.4-2.2zM100 105.1c3.4 2.2 6 5.3 7.9 9.3 1.9 4 2.8 8.6 2.8 13.8 0 5.2-.9 9.7-2.8 13.6-1.9 3.9-4.5 6.9-7.8 9-3.4 2.1-7.2 3.2-11.6 3.2-3.6 0-6.7-.8-9.5-2.3-2.8-1.5-5-3.6-6.5-6.3v20.9c0 1.8-.6 3.2-1.7 4.2-1.2 1-2.7 1.5-4.6 1.5-1.9 0-3.5-.5-4.7-1.6-1.2-1.1-1.8-2.5-1.8-4.3v-58.2c0-1.8.6-3.3 1.7-4.4 1.1-1.1 2.7-1.6 4.6-1.6 1.9 0 3.5.5 4.6 1.6 1.2 1.1 1.7 2.6 1.7 4.4v2.6c1.5-2.8 3.7-5 6.5-6.5s6.1-2.3 9.7-2.3c4.2.1 8.1 1.2 11.5 3.4zM94.5 140c2.3-2.8 3.4-6.7 3.4-11.7 0-5.2-1.1-9.2-3.4-12.1-2.3-2.9-5.4-4.3-9.4-4.3-4.1 0-7.3 1.4-9.5 4.2-2.2 2.8-3.3 6.8-3.3 12 0 5.1 1.1 9.1 3.3 11.9 2.2 2.8 5.4 4.2 9.5 4.2 4-.1 7.1-1.5 9.4-4.2zM161.6 105.1c3.4 2.2 6 5.3 7.9 9.3 1.9 4 2.8 8.6 2.8 13.8 0 5.2-.9 9.7-2.8 13.6-1.9 3.9-4.5 6.9-7.8 9-3.4 2.1-7.2 3.2-11.6 3.2-3.6 0-6.7-.8-9.5-2.3-2.8-1.5-5-3.6-6.5-6.3v20.9c0 1.8-.6 3.2-1.7 4.2-1.2 1-2.7 1.5-4.6 1.5-1.9 0-3.5-.5-4.7-1.6-1.2-1.1-1.8-2.5-1.8-4.3v-58.2c0-1.8.6-3.3 1.7-4.4 1.1-1.1 2.7-1.6 4.6-1.6 1.9 0 3.5.5 4.6 1.6 1.2 1.1 1.7 2.6 1.7 4.4v2.6c1.5-2.8 3.7-5 6.5-6.5s6.1-2.3 9.7-2.3c4.3.1 8.2 1.2 11.5 3.4zm-5.4 34.9c2.3-2.8 3.4-6.7 3.4-11.7 0-5.2-1.1-9.2-3.4-12.1-2.3-2.9-5.4-4.3-9.4-4.3-4.1 0-7.3 1.4-9.5 4.2-2.2 2.8-3.3 6.8-3.3 12 0 5.1 1.1 9.1 3.3 11.9 2.2 2.8 5.4 4.2 9.5 4.2 4-.1 7.1-1.5 9.4-4.2zM213.8 148.9c0 1.6-.7 2.9-2 3.7-1.3.9-3.2 1.2-5.7 1.1l-2.8-.2c-11.5-.8-17.2-7-17.2-18.5v-22.4H181c-1.8 0-3.3-.4-4.3-1.2-1-.8-1.5-2-1.5-3.6s.5-2.8 1.5-3.6c1-.8 2.4-1.2 4.3-1.2h5.1v-9.4c0-1.8.6-3.3 1.7-4.4 1.2-1.1 2.7-1.6 4.7-1.6 1.9 0 3.5.5 4.6 1.6 1.2 1.1 1.7 2.6 1.7 4.4v9.4h8.7c1.8 0 3.3.4 4.3 1.2 1 .8 1.5 2 1.5 3.6s-.5 2.8-1.5 3.6c-1 .8-2.4 1.2-4.3 1.2h-8.7V136c0 5.1 2.3 7.8 7 8.1l2.8.2c3.5.2 5.2 1.8 5.2 4.6z"/></svg>