<svg xmlns="http://www.w3.org/2000/svg" viewBox="0 0 100 100" style="enable-background:new 0 0 100 100" xml:space="preserve"><circle cx="50" cy="50" r="50" style="fill:#2ca01c"/><path d="M12.1 49.9c0 11.3 9.1 20.5 20.4 20.6h2.9V63h-2.9c-7 1.9-14.2-2.2-16.1-9.2v-.2c-2-7.1 2.1-14.5 9.2-16.5H27c1.8-.4 3.7-.4 5.5 0h7v40.1c0 4.2 3.4 7.7 7.6 7.8V29.1H32.5c-11.4.1-20.5 9.4-20.4 20.8zm55.5-20.7h-2.9v8h2.9c7-1.9 14.2 2.2 16.1 9.2v.2c2 7.1-2.1 14.4-9.2 16.4h-1.4c-1.8.4-3.7.4-5.5 0h-7V22.8c0-4.2-3.4-7.7-7.6-7.8v55.9h14.6C79 70.8 88.2 61.3 88 49.8c-.2-11.2-9.2-20.3-20.5-20.5l.1-.1z" style="fill:#fff"/></svg>