<svg version="1.1" id="Layer_1" xmlns="http://www.w3.org/2000/svg" x="0" y="0" viewBox="0 0 394 394" style="enable-background:new 0 0 394 394" xml:space="preserve"><style>.st2{fill:#ea6c00}.st3{fill:#fdad00}.st4{fill:#fdd231}</style><circle cx="197" cy="197" r="197" style="fill:#e8e8e8"/><g id="sketch-symbol"><path id="Path" style="fill:#fdb300" d="m106.3 75.1 90.7-9.6 90.7 9.6 70.3 94.3-161 187.5L36 169.4z"/><g id="Group"><path class="st2" d="M101.2 42.5 197 230 36 42.5zM292.8 42.5 197 230 358 42.5z" transform="translate(0 126.881)"/><path class="st3" d="M101.2 42.5h191.6L197 230z" transform="translate(0 126.881)"/></g><path class="st4" d="m197 65.5-90.7 9.6-5.1 94.3zM197 65.5l90.7 9.6 5.1 94.3z"/><path class="st3" d="m358 169.4-70.3-94.3 5.1 94.3zM36 169.4l70.3-94.3-5.1 94.3z"/><path style="fill:#feeeb7" d="m197 65.5-95.8 103.9h191.6z"/></g></svg>